<svg xmlns="http://www.w3.org/2000/svg" xmlns:xlink="http://www.w3.org/1999/xlink" width="242" height="581.009" viewBox="0 0 242 581.009"><defs><clipPath id="a"><rect width="153" height="191" transform="translate(51 1951)" fill="#fff"/></clipPath></defs><g transform="translate(16 -1951)"><g transform="translate(97 2030)"><g transform="translate(40.092 0)"><path d="M300.523,1137.957c0,2.262,3.926,1.57,4,0s1.038-5.115,1-8c-.074-5.5-.953-124.423-1-165h-4c.011,7.814-.009,14.923,0,22v2c0,1.174,0,1.849,0,3,.018,12.947-.022,24.24,0,33,0,.407,0,.6,0,1h0c0,1.221,0,2.887,0,4,.022,7.148-.024,98.162,0,100C300.565,1133.114,300.523,1135.693,300.523,1137.957Z" transform="translate(-300.615 -964.957)" fill="#775155"/></g><g transform="translate(2.632 60.221)"><path d="M305.341,1068.183v-1c0-.63-.378-.605,0-1,.032-.038-.036-.972,0-1s-.041.023,0,0c.232-.146.767-.011,1,0,.032,0-.038,0,0,0h37c.059,0-.058-.008,0,0,.4.06.71.587,1,1,.027.038-.024-.039,0,0,.187.312,0,.6,0,1v1c0,1.084-.009,1.99-1,2h-37c-.037,0,.034,0,0,0C305.418,1070.124,305.341,1069.232,305.341,1068.183Z" transform="translate(-304.973 -1065.404)" fill="#6b3e45"/><path d="M305.435,1065.2c.048-.03-.052.025,0,0a3.96,3.96,0,0,1,1,0c.036,0-.035,0,0,0h37c.059,0-.058-.008,0,0,.4.06.71.587,1,1,.027.038-.024-.039,0,0-.318.059-.655-.052-1,0-1.253.193-2.447.883-4,1-1.527.116-3.282-.052-5,0-10.449.318-23.642-.151-28-1-.286-.055-.792.056-1,0C305.419,1066.189,305.451,1065.2,305.435,1065.2Z" transform="translate(-305.067 -1065.417)" fill="#1f1f3b" opacity="0.24"/></g><g transform="translate(2.704 20.772)"><path d="M305.14,1004.6h0c0-.63-.378-1.605,0-2,.032-.038-.036.028,0,0s-.04.024,0,0c.233-.146.767-.011,1,0,.032,0-.039,0,0,0h37c.06,0-.058-.008,0,0,.4.059.71.586,1,1,.028.038-.024-.039,0,0,.187.311,0,.6,0,1h0c0,1.084-.009,1.991-1,2h-37c-.037,0,.034,0,0,0C305.216,1006.539,305.14,1005.647,305.14,1004.6Z" transform="translate(-304.844 -1002.37)" fill="#6b3e45"/><path d="M305.234,1002.61c.049-.03-.052.025,0,0a3.932,3.932,0,0,1,1,0c.036,0-.036,0,0,0h37c.06,0-.058-.008,0,0,.4.059.71.586,1,1,.028.038-.024-.039,0,0-.318.059-.655-.052-1,0-1.253.193-2.447-.118-4,0-1.527.116-3.282.948-5,1a160.478,160.478,0,0,1-28-2c-.286-.055-.792.057-1,0C305.218,1002.6,305.25,1002.615,305.234,1002.61Z" transform="translate(-304.939 -1002.382)" fill="#1f1f3b" opacity="0.24"/></g><g transform="translate(0 0)"><path d="M372.326,1137.957c-.124,2.262,4.775,2.13,5,0a62.481,62.481,0,0,0,0-7c-.025-1.842.052-93.347,0-101-.009-1.294.009-2.566,0-4,0-.2,0-.8,0-1-.058-8.8-.921-20.069-1-33-.007-1.365.007-2.6,0-4,0-.186,0-.814,0-1-.043-7.069.045-14.177,0-22h-4c.245,41.513.928,160.676,1,166C373.364,1133.757,372.449,1135.693,372.326,1137.957Z" transform="translate(-372.326 -964.957)" fill="#775155"/></g><g transform="translate(2.914 98.464)"><path d="M304.552,1131.728v-1c0-.63-.378-.605,0-1,.032-.037.964.028,1,0s-.041.023,0,0c.232-.146-.233-1.011,0-1,.032,0-.038,0,0,0h37c.059,0-.058-.008,0,0,.4.059.71.586,1,1,.027.038-.024-.04,0,0,.187.311,0,.6,0,1v1c0,1.084-.009,1.99-1,2h-37c-.037,0,.034,0,0,0C304.629,1133.667,304.552,1132.777,304.552,1131.728Z" transform="translate(-304.466 -1129.191)" fill="#6b3e45"/><path d="M304.646,1129.74c.048-.03.948.026,1,0,.2-.1-.228-.986,0-1,.036,0-.036,0,0,0h37c.059,0-.058-.008,0,0,.4.059.71.586,1,1,.027.038-.024-.04,0,0-.318.059-.655.948-1,1-1.253.193-2.447-.118-4,0-1.527.116-3.283-.052-5,0-10.449.318-23.642-.151-28-1-.286-.055-.792.057-1,0C304.63,1129.734,304.663,1129.744,304.646,1129.74Z" transform="translate(-304.56 -1129.203)" fill="#1f1f3b" opacity="0.24"/></g><g transform="translate(2.358 135.035)"><path d="M305.108,1192.156h0a3.847,3.847,0,0,1,1-2c.032-.037-.036.028,0,0s-.041.023,0,0c.232-.146.767-.011,1,0,.032,0-.038,0,0,0h37c.059,0-.058-.008,0,0,.4.059-.29.586,0,1,.027.038.976-.04,1,0,.187.311,0,.6,0,1h0c0,1.084-.009,1.99-1,2h-37c-.037,0,.034,0,0,0A2.225,2.225,0,0,1,305.108,1192.156Z" transform="translate(-305.466 -1190.191)" fill="#6b3e45"/><path d="M306.2,1190.168c.048-.03-.052.025,0,0a3.988,3.988,0,0,1,1,0c.036,0-.036,0,0,0h37c.059,0-.058-.008,0,0,.4.06-.29.586,0,1,.027.038.976-.039,1,0-.318.059-.655-.052-1,0-1.253.193-3.447.882-5,1-1.527.116-3.283-.052-5,0a147.606,147.606,0,0,1-27-2c-.286-.055-.792.057-1,0C306.186,1190.162,306.218,1190.173,306.2,1190.168Z" transform="translate(-305.56 -1190.203)" fill="#1f1f3b" opacity="0.24"/></g></g><g transform="translate(13.181 2086.183)" opacity="0.77"><path d="M238.778,1102.438a8.824,8.824,0,0,0,1-4c0-4.169-2.179-7.914-6-9a14.57,14.57,0,0,0,0-2,13.229,13.229,0,0,0-13-13,13.094,13.094,0,0,0-8,3,9.411,9.411,0,0,0-8-4,7.906,7.906,0,0,0-5,2,11.767,11.767,0,0,0-22,5,12.539,12.539,0,0,0-6-1,12.764,12.764,0,0,0-13,13,14.19,14.19,0,0,0,1,6h0a10.123,10.123,0,0,0-10,10c0,5.429,4.571,9,10,9a9.525,9.525,0,0,0,6-2c2.372,3.766,6.221,7,11,7a14.281,14.281,0,0,0,10-4,18.974,18.974,0,0,0,14,6,17.291,17.291,0,0,0,12-5,13.088,13.088,0,0,0,10,4,15.343,15.343,0,0,0,12-6c.769.241,1.152,1,2,1a7.912,7.912,0,0,0,8-8A8.493,8.493,0,0,0,238.778,1102.438Z" transform="translate(-149.959 -1069.621)" fill="#fff"/><path d="M242.778,1130.2a10.842,10.842,0,0,1-2,2c-1.495,1.495-3.885,2-6,2a6.278,6.278,0,0,1-5-2,13.886,13.886,0,0,1-1-2,12.169,12.169,0,0,1-8,3,10.977,10.977,0,0,1-7-2c-.912.354-.977,0-2,0h-1a6.019,6.019,0,0,1-4-1,17.488,17.488,0,0,1-9,3c-.108,0,.108,0,0,0a8.539,8.539,0,0,1-2,3c-1.485,1.485-3.9,2-6,2a8.015,8.015,0,0,1-2,0,9.6,9.6,0,0,1-4-2h0c-2.2,1.214-4.453,1-7,1a13.218,13.218,0,0,1-9-3c-1.54.934-4.1,1-6,1a10.285,10.285,0,0,1-10-8c-1.389,1.7-2,4.638-2,7,0,5.429,4.571,9,10,9a9.525,9.525,0,0,0,6-2c2.372,3.766,6.221,7,11,7a14.28,14.28,0,0,0,10-4,18.974,18.974,0,0,0,14,6,17.291,17.291,0,0,0,12-5,13.088,13.088,0,0,0,10,4,15.343,15.343,0,0,0,12-6c.769.241,1.152,1,2,1a7.912,7.912,0,0,0,8-8C244.778,1133.874,244.348,1131.682,242.778,1130.2Z" transform="translate(-149.959 -1095.385)" fill="#e7f5fe"/></g><g transform="translate(-16 2206.875)" opacity="0.3"><path d="M102.357,1317.125a13.42,13.42,0,0,0-6,2,12.185,12.185,0,0,0,0-3,13.1,13.1,0,0,0-13-13c-.211,0,.209-.009,0,0a17.015,17.015,0,0,0-34,1c0,.089,0-.089,0,0a17.288,17.288,0,0,0-3,0,12.631,12.631,0,0,0-13,13c0,1.4-.394,2.73,0,4a11.275,11.275,0,0,0-8,11,10.907,10.907,0,0,0,11,11,11.61,11.61,0,0,0,7-2,11.827,11.827,0,0,0,10,5c4.975,0,9.936-2.824,12-7,2.715,4.239,6.593,7,12,7a16.733,16.733,0,0,0,12-5,7.208,7.208,0,0,0,5,2,6.108,6.108,0,0,0,5-2,14.258,14.258,0,0,0,3,0,12,12,0,0,0,0-24Z" transform="translate(-25.357 -1287)" fill="#fff"/><path d="M108.357,1361.568a10.357,10.357,0,0,1-8-4c-.237.3-.726.726-1,1a10.408,10.408,0,0,1-7,3h0c-1.869,0-3.455-.983-5-2a6.585,6.585,0,0,1-6,4c-2.976,0-4.632-2.111-5-5a6.385,6.385,0,0,1-4,1h0c-1.561,0-3.9.1-5-1-.121-.121.109-.87,0-1a15.67,15.67,0,0,1-20,4,10.579,10.579,0,0,1-10,7c-5.795,0-10-5.205-10-11,0-.077,0,.077,0,0a11.046,11.046,0,0,0-2,6,10.907,10.907,0,0,0,11,11,11.61,11.61,0,0,0,7-2,11.827,11.827,0,0,0,10,5c4.975,0,9.936-2.824,12-7,2.715,4.239,6.593,7,12,7a16.733,16.733,0,0,0,12-5,7.207,7.207,0,0,0,5,2,6.109,6.109,0,0,0,5-2,14.258,14.258,0,0,0,3,0,12.064,12.064,0,0,0,12-12c0-.454-.95-.559-1-1A6.982,6.982,0,0,1,108.357,1361.568Z" transform="translate(-25.357 -1318.442)" fill="#e7f5fe"/></g><g transform="translate(150.934 2154.048)" opacity="0.4"><path d="M466.134,1214.806a9.6,9.6,0,0,0,0-3,10.179,10.179,0,0,0-10-10,9.13,9.13,0,0,0-4,1,14.481,14.481,0,0,0-14-11,14.229,14.229,0,0,0-14,11c-1.137-.478-1.69-1-3-1a10.333,10.333,0,0,0-10,10,7.653,7.653,0,0,0,0,2,8.427,8.427,0,0,0-4-1c-5.125,0-9,4.875-9,10a8.81,8.81,0,0,0,9,9,8.7,8.7,0,0,0,6-2,7.847,7.847,0,0,0,7,4,9.928,9.928,0,0,0,6-2,12.105,12.105,0,0,0,9,4c4.765,0,8.779-3.148,11-7a12.432,12.432,0,0,0,5,1,6.754,6.754,0,0,0,4-1,11.235,11.235,0,0,0,9,5c5.249,0,9-4.751,9-10C473.134,1219.212,470.466,1215.691,466.134,1214.806Z" transform="translate(-398.068 -1191.854)" fill="#fff"/><path d="M467.134,1247.485c-4.494,0-8.881-3.531-9-8-.569.309-1.344,1-2,1-1.032,0-1.271-1.271-2-2a3.742,3.742,0,0,1-1-2c-1.155.758-2.54,2-4,2a10.39,10.39,0,0,1-4-1c.716,2.014-.219,4-3,4-1.424,0-2.493-.037-3-1-.182.208.2-.2,0,0-.034.033.034.967,0,1h0c-2.268,2.268-5.791,3-9,3a11.782,11.782,0,0,1-7-2,7.909,7.909,0,0,1-1,1,3.709,3.709,0,0,1-3,1h0c-1.237,0-3.126-.126-4-1-.246-.247.184-.708,0-1a8.822,8.822,0,0,1-6,2c-4.743,0-8.9-3.277-9-8a9.344,9.344,0,0,0-2,6,8.81,8.81,0,0,0,9,9,8.7,8.7,0,0,0,6-2,7.847,7.847,0,0,0,7,4,9.928,9.928,0,0,0,6-2,12.1,12.1,0,0,0,9,4c4.765,0,8.779-3.148,11-7a12.432,12.432,0,0,0,5,1,6.753,6.753,0,0,0,4-1,11.235,11.235,0,0,0,9,5c4.9,0,8.488-4.233,9-9A7.536,7.536,0,0,1,467.134,1247.485Z" transform="translate(-398.068 -1211.533)" fill="#e7f5fe"/></g><g transform="translate(73.729 2354.355)"><path d="M387.05,1822.645c.132-2.477,0-8,0-8h-7l1,9,4,3Z" transform="translate(-312.779 -1652)" fill="#fff"/><path d="M387.967,1827.757c.722-.167-.272.964,0,2,.622,2.371,9.629,1.792,11,2,.708.108,2.521,4-1,4-3.044,0-12.669.021-16,0-.7,0-1.829-.359-2-1-.61-2.29.071-5.921,1-6C382.37,1828.325,384.958,1828.453,387.967,1827.757Z" transform="translate(-312.696 -1658.112)" fill="#1f1f39"/><g transform="translate(0 151.986)"><path d="M271.929,1806.412c2.072-1.51,7-6,7-6l-5-5-7,7,1,5Z" transform="translate(-262.659 -1795.753)" fill="#fff"/><path d="M269.285,1811.066c.6.414-.346.132-1,1-1.5,1.987,5.278,8.873,6,10,.373.582-1.719,3.547-4,1-1.973-2.2-8.857-8.578-11-11a1.725,1.725,0,0,1,0-2c1.44-1.925,4.334-4.621,5-4C265.541,1806.8,266.777,1809.34,269.285,1811.066Z" transform="translate(-259.014 -1800.407)" fill="#1f1f39"/></g><path d="M339.874,1747.6c-.2.04-.807-.038-1,0a62.924,62.924,0,0,1-7,1,7.982,7.982,0,0,1-2,0c-.777-4.525-2.69-28.306-6-36-3.2-7.454-12.426-28.674-13-30h0c-2.175,9.958-3.868,21.53-8,32-3.981,8.433-12.261,16.781-18,22-1.391,1.264-2.008,3.166-3,4a16.154,16.154,0,0,1-3,2c-.4-.239-.625-.762-1-1a28.421,28.421,0,0,1-5-4c-.707-.674-1.295-.915-1-1a54.2,54.2,0,0,1,5-6c.938-.938,1.983-1.979,3-3,5.917-5.934,12.517-13.362,13-17,.489-3.691-.125-16.436,0-29,.008-.887.985-1.117,1-2,.013-.671-.017-1.335,0-2,.011-.441-.015-1.564,0-2,.006-.258-.008.254,0,0,.008-.272-.011-.731,0-1,.023-.637-.03-1.378,0-2,0-.036,0,.036,0,0,.023-.523-.027-1.487,0-2,.059-1.037-.077-2.02,0-3,.008-.125-.011.123,0,0,.053-.648-.062-1.384,0-2,.017-.167-.017-.837,0-1,.034-.327-.038-.685,0-1,.093-.8.886-1.269,1-2,.233-1.48,22-4,22-4l2-1c3.895,10.409,14.22,47.568,15,53S340.134,1745.789,339.874,1747.6Z" transform="translate(-264.603 -1581.955)" fill="#3b3b4c"/><path d="M345.034,1706.15a48.231,48.231,0,0,1-3-8c.591-2.993,1-6,1-6S344.631,1701.034,345.034,1706.15Z" transform="translate(-295.764 -1597.505)" fill="#1f1f39" opacity="0.43"/><path d="M310.33,1687.423c2.668-2.109,10.583-9.041,13-17l-12-1A176.511,176.511,0,0,0,310.33,1687.423Z" transform="translate(-282.059 -1587.778)" fill="#1f1f39" opacity="0.43"/><path d="M416.655,1534.017a12.288,12.288,0,0,0-1,2,17.7,17.7,0,0,0-1,3c-.008.219,0-.238,0,0-.006.261.013.773,0,1-.087,1.491.2,2.727,0,4,0,0-4.841-.157-5-1-.1-.518-.252.109,0-1,.1-.465.928-2.5,1-3,.037-.25.042-1.248,0-1-.484,2.825.153-.439,0-1-.46-1.7-2.3-1.9-2-3,.4-1.465,3.461,2.365,4-5,.139-1.9,3.99-2.671,5,0A12.526,12.526,0,0,1,416.655,1534.017Z" transform="translate(-325.384 -1524.372)" fill="#efaea6"/><g transform="translate(44.061 23.543)"><path d="M339.583,1569.515c.137,2.3-1.625,8.532-1,11h6s5.155.1,4-1c-1.542-1.471-1.325.03-2-1a13.129,13.129,0,0,1-1-3c-.519-1.807-.795-4.015-1-5a3.788,3.788,0,0,1,0-1h0l-3-5S339.433,1566.994,339.583,1569.515Z" transform="translate(-338.373 -1564.414)" fill="#efaea6"/><path d="M347.611,1579.874c-.519-1.807-.795-4.015-1-5l-2-1s-1.624.3-2,1C342.043,1575.933,344.91,1581.4,347.611,1579.874Z" transform="translate(-340.401 -1568.772)" fill="#1f1f3b" opacity="0.14"/></g><path d="M328.916,1582.286c2.11-.631,2.873,2.814,5,3,1.123.1.47-.43,1-1,.326-.351.484-.583,1,0,10.5,11.864-.336,41.913,1,44,1.093,1.707-7.42,5.5-13,4-7.653-2.055-7.222-11.252-7-13s5-32,5-32A27.861,27.861,0,0,0,328.916,1582.286Z" transform="translate(-284.645 -1548.641)" fill="#fff"/><path d="M378.1,1577.257c-7.082,4.3-15.543,3.473-18,6-1.551,1.594-3.6,7-3,10,.351,1.763.867,9.727,1,11,.3,2.972.533,9.383-2,14-.159.288.186.722,0,1-.115.174-.869-.151-1,0-2.336,2.671-3.6,2.406-5,1a7.872,7.872,0,0,1-2-5h0c-.034-1.793.888-3.613,1-6,.039-.808-.035-1.146,0-2a92.828,92.828,0,0,0,0-11c-.71-8.278,2.8-13.156,2-20-.127-1.065-.941-2.2-1-3,0-.016,0,.016,0,0a25.581,25.581,0,0,1,0-3c0-.841,0-1,0-1h0a54.338,54.338,0,0,0,7,1,51.264,51.264,0,0,0,16-1,5.676,5.676,0,0,0,1,0c3.195-1.992,7.275-18.19,8-21a10.663,10.663,0,0,1,2,0h0a25.121,25.121,0,0,1,4,1c.487.138.946-.153,1,0C389.243,1549.653,384.8,1573.187,378.1,1577.257Z" transform="translate(-298.83 -1533.612)" fill="#0069a8"/><g transform="translate(37.758 16.791)"><path d="M333.436,1563.932s1.149,1.171,2,2a12.716,12.716,0,0,0,3,2c.062.035-.07.972,0,1,1.657.658,5.842-.674,8-3,.928-1-2.908-3.093-2-4,.522-.523-1.62-1.339-3-2a9.834,9.834,0,0,1-2-1c-.037-.028.033.027,0,0Z" transform="translate(-329.923 -1555.078)" fill="#efaea6"/><path d="M329.533,1564.106c.008.274-.122-.215,0,0,1.06,1.9,6.008,2.634,6,2h0c-.01-.824-2.078-2.25-2-3,.118-1.132.929-.978,2-1,1.142-.023,1.784-.618,0-1-.476-.1-.8.138-1,0-.56-.376.451-1.569,1-2,.828-.652.751-.227,1-1s-1.792-.87-1-2c.149-.215.851.217,1,0a2.628,2.628,0,0,0,0-3c-.046-.063.057.065,0,0-.353-.4-.69-.9-1-1-.119-.038.114,0,0,0h0c-.825-.009-1.541,1.29-2,2h0c-.088.138-.843-.026-1,0a2.6,2.6,0,0,0-2,1c-.835.926-.293,1.14-1,2-.426.519-1.873.675-2,2a2.3,2.3,0,0,0,0,1C328.012,1561.576,329.476,1562.215,329.533,1564.106Z" transform="translate(-327.019 -1552.252)" fill="#191939"/></g><path d="M389.229,1566.37" transform="translate(-316.959 -1541.725)" fill="#efaea6"/><g transform="translate(1.745 0)"><path d="M272.682,1541.655c-.482-1.161-2.683,3.635-3,3-.148-.3-2.067-6.7-4-11-1.127-2.505-1.928-3.792-2-4-.079-.223-.93-.788-1-1-.378-1.164.135-2.212,0-3a3.381,3.381,0,0,1,0-2c.917-1.654,3.6-2,4-1,.69,1.7.546,2.6,1,3,.391.343,1.629-.048,2,0,.133.017-.144-.033,0,0,1.013.229.072,2.231,0,4-.024.588-.164.465,0,1,.031.1-.035.9,0,1,.046.133-.052-.131,0,0,.182.468.8.578,1,1a11.124,11.124,0,0,1,1,3C271.715,1536.5,272.634,1541.489,272.682,1541.655Z" transform="translate(-262.156 -1522.01)" fill="#efaea6"/><path d="M307.015,1562.686c-16.583.987-21.452-2.033-24-4-2.451-2.018-10-21-10-21s-5.91,2.916-6,4,6.568,18.252,11,23c3.76,3.824,11.268,6.043,14,10,1.358,1.968,1.828,12.675,2,16,.23,3.235-.078,4.748-1,9h0c-1.362,6.495-2.794,14.767-1,16,3.345,2.305,8.055,2.415,11-1,2.441-2.832-.806-6.394,1-13a114.585,114.585,0,0,0,3-12C308.192,1582.3,307.37,1568.042,307.015,1562.686Z" transform="translate(-264.489 -1529.041)" fill="#0069a8"/></g></g><g transform="translate(67.077 2208.746)"><path d="M359.678,1276.006c-.048-2.982-1.089-7.2-2-8s-1.166-2.856,0-2,2.923,1.695,2-1c-.559-1.629-1.317-3.019-1-4,.378-1.167,5.962-2.615,6,1s-.746,5.76,0,12C365.124,1277.734,359.678,1276.006,359.678,1276.006Z" transform="translate(-295.755 -1259.752)" fill="#efaea6"/><path d="M371.076,1570.679c.032-2.448,0-8,0-8h-7l1,9,5,3Z" transform="translate(-299.153 -1394.425)" fill="#fff"/><path d="M371.547,1577.012c.607-.17.734.1,1,1,.609,2.06,7.829,1.862,9,2,.6.072,1.987,2.886-1,3-2.582.1-11.173.909-14,1-.591.019-.833-.442-1-1-.595-1.989-.785-4.9,0-5C366.723,1577.587,369.018,1577.72,371.547,1577.012Z" transform="translate(-299.624 -1400.758)" fill="#1f1f39"/><g transform="translate(0 142.678)"><path d="M256.663,1524.307c2.3-.154,8-1,8-1l-1-7-9,2-2,5Z" transform="translate(-249.74 -1516.731)" fill="#fff"/><path d="M254.956,1525.156c.237.622-.077.645-1,1-2.113.811-1.966,8.761-2,10-.017.639-2.594,2.12-3-1-.351-2.7-1.634-11.045-2-14a2.343,2.343,0,0,1,1-2c2.04-.792,4.82-.815,5,0C253.516,1520.353,253.967,1522.565,254.956,1525.156Z" transform="translate(-247.033 -1517.581)" fill="#1f1f39"/></g><path d="M307.341,1418.05c4.112,10.128,11.05,39.67,12,45s6.973,37.03,7,38-8.853,3.544-10,2-3.549-27.53-7-35-13-31-13-31c1.579,11.627,4.587,29.138,3,33-2.917,8.609-36,10-36,10-2.465-1.713-2.539-9.559-2-9,6.339-.823,25.42-2.352,26-5,1.253-5.72-10.615-38.6-8-49,.729-2.9,23-2,23-2Z" transform="translate(-253.419 -1328.796)" fill="#4b4b5b"/><path d="M321.438,1449.444c.33,3.344.5,7.131,1,11l-5-18S319.2,1445.709,321.438,1449.444Z" transform="translate(-278.515 -1341.19)" fill="#1f1f39" opacity="0.62"/><g transform="translate(29.031 31.995)"><path d="M309.7,1323.289a33.559,33.559,0,0,0,4,4c-.413.743-1.149.286,0,2,1.669,2.49,3.095,4.39-1,4,1.216,1.842,2,3,2,3l1,4-5,2c-.638-3.784-8.773-12.988-8-16S308.937,1322.386,309.7,1323.289Z" transform="translate(-300.806 -1320.03)" fill="#efaea6"/><path d="M307.213,1328.637c-1.757-.181-1.959-2.566,0-2,1.078-.77,1.7-1.012,1-2s-.364-1.769,0-3,1.474-2.318,0-3a2.968,2.968,0,0,0-1-1,2.346,2.346,0,0,0-3,1c-.494,1.266.924,1.434-1,1a2.374,2.374,0,0,0-3,3c.633,2.343-1.411.657-1,3,.738,4.2,3.008,2.956,4,5s2.639,3.96,4,3S307.866,1329.627,307.213,1328.637Z" transform="translate(-299.321 -1317.377)" fill="#6d3522"/><path d="M319.027,1341.131c-1.377-.471-1.905-.36-2,0-.851,3.234,1.484,3.085,3,4s0-2,0-2Z" transform="translate(-307.135 -1327.871)" fill="#1f1f39" opacity="0.16"/></g><path d="M321.109,1329.557a27.873,27.873,0,0,0-2,4c.112,5.629-.612,8.821,1,18h0c.169.967-.238,1.9,0,3h0c.188.869.766,2.037,1,3-7.45,7.129-28.34,5.222-29,1s2.011-28.959,3-32a13.976,13.976,0,0,1,8-9c5.965-2.492,8.232.191,12-1,4.525-1.431,9.036-9.6,11-14,1.58-3.533,4-21,4-21,.77-.873,6.129-3.331,7-3,.57,6.652-.356,17.44-3,27-1.753,6.333-9.68,18.033-13,24Z" transform="translate(-267.186 -1268.303)" fill="#0069a8"/><path d="M339.641,1370.428s0-.008,0,0h0a27.893,27.893,0,0,0-2,4c.112,5.629-.612,8.821,1,18h0c.14.971-.269,1.9,0,3h0c-.295,0-.57-1.328-1-2-1.769-2.75-4.517-15.878-4-17C334.148,1375.331,336.714,1371.666,339.641,1370.428Z" transform="translate(-285.718 -1309.174)" fill="#1f1f39" opacity="0.28"/></g><g clip-path="url(#a)"><g transform="translate(97 1863)"><g transform="translate(40.092 0.184)"><path d="M300.522,966.772c0-2.262,3.926-1.57,4,0s1.038,5.115,1,8c-.074,5.5-.953,124.423-1,165h-4c.011-7.814-.009-14.923,0-22v-2c0-1.174,0-1.849,0-3,.018-12.947-.022-24.24,0-33,0-.407,0-.6,0-1h0c0-1.221,0-2.887,0-4,.022-7.148-.024-98.162,0-100C300.565,971.616,300.522,969.037,300.522,966.772Z" transform="translate(-300.615 -964.957)" fill="#775155"/></g><g transform="translate(2.632 110.389)"><path d="M305.341,1067.015v1c0,.63-.378.605,0,1,.032.038-.036.972,0,1s-.041-.023,0,0c.232.146.767.011,1,0,.032,0-.038,0,0,0h37c.059,0-.058.008,0,0,.4-.06.71-.587,1-1,.027-.038-.024.039,0,0,.187-.312,0-.6,0-1v-1c0-1.084-.009-1.99-1-2h-37c-.037,0,.034,0,0,0C305.418,1065.075,305.341,1065.966,305.341,1067.015Z" transform="translate(-304.973 -1065.405)" fill="#6b3e45"/><path d="M305.435,1066.493c.048.03-.052.975,0,1a3.96,3.96,0,0,0,1,0c.036,0-.035,0,0,0h37c.059,0-.058.008,0,0,.4-.06.71-.587,1-1,.027-.038-.024.039,0,0-.318-.059-.655.052-1,0-1.253-.193-2.447-.883-4-1-1.527-.116-3.282.052-5,0-10.449-.318-23.642.151-28,1-.286.055-.792-.056-1,0C305.419,1066.5,305.451,1066.488,305.435,1066.493Z" transform="translate(-305.067 -1062.883)" fill="#1f1f3b" opacity="0.24"/></g><g transform="translate(2.704 149.838)"><path d="M305.14,1004.532h0c0,.63-.378,1.605,0,2,.032.038-.036-.028,0,0s-.04-.024,0,0c.233.146.767.011,1,0,.032,0-.039,0,0,0h37c.06,0-.058.008,0,0,.4-.059.71-.586,1-1,.028-.038-.024.039,0,0,.187-.311,0-.6,0-1h0c0-1.084-.009-1.991-1-2h-37c-.037,0,.034,0,0,0C305.216,1002.591,305.14,1003.482,305.14,1004.532Z" transform="translate(-304.844 -1002.37)" fill="#6b3e45"/><path d="M305.234,1004.009c.049.03-.052-.025,0,0a3.932,3.932,0,0,0,1,0c.036,0-.036,0,0,0h37c.06,0-.058.008,0,0,.4-.059.71-.586,1-1,.028-.038-.024.039,0,0-.318-.059-.655.052-1,0-1.253-.193-2.447.118-4,0-1.527-.116-3.282-.948-5-1a160.478,160.478,0,0,0-28,2c-.286.055-.792-.057-1,0C305.218,1004.015,305.25,1004,305.234,1004.009Z" transform="translate(-304.939 -999.847)" fill="#1f1f3b" opacity="0.24"/></g><g transform="translate(0 0)"><path d="M372.326,966.957c-.124-2.262,4.775-2.13,5,0a62.481,62.481,0,0,1,0,7c-.025,1.842.052,93.347,0,101-.009,1.294.009,2.566,0,4,0,.2,0,.8,0,1-.058,8.8-.921,20.069-1,33-.007,1.365.007,2.6,0,4,0,.186,0,.814,0,1-.043,7.069.045,14.177,0,22h-4c.245-41.513.928-160.676,1-166C373.364,971.157,372.449,969.221,372.326,966.957Z" transform="translate(-372.326 -964.957)" fill="#775155"/></g><g transform="translate(2.914 72.147)"><path d="M304.552,1131.044v1c0,.63-.378.605,0,1,.032.037.964-.028,1,0s-.041-.023,0,0c.232.146-.233,1.011,0,1,.032,0-.038,0,0,0h37c.059,0-.058-.992,0-1,.4-.059.71.414,1,0,.027-.038-.024.04,0,0,.187-.311,0-.6,0-1v-1c0-1.084-.009-1.99-1-2h-37c-.037,0,.034,0,0,0C304.629,1129.1,304.552,1129.995,304.552,1131.044Z" transform="translate(-304.466 -1129.191)" fill="#6b3e45"/><path d="M304.646,1130.522c.048.03.948-.026,1,0,.2.1-.228.986,0,1,.036,0-.036,0,0,0h37c.059,0-.058-.992,0-1,.4-.059.71.414,1,0,.027-.038-.024.04,0,0-.318-.059-.655-.948-1-1-1.253-.193-2.447.118-4,0-1.527-.116-3.283.052-5,0-10.449-.318-23.642.151-28,1-.286.055-.792-.057-1,0C304.63,1130.528,304.663,1130.517,304.646,1130.522Z" transform="translate(-304.56 -1126.669)" fill="#1f1f3b" opacity="0.24"/></g><g transform="translate(2.359 35.576)"><path d="M305.107,1192.616h0a3.847,3.847,0,0,0,1,2c.032.037-.036-.028,0,0s-.041-.023,0,0c.232.146.767.011,1,0,.032,0-.038,0,0,0h37c.059,0-.058.008,0,0,.4-.059-.29-.586,0-1,.027-.038.976.04,1,0,.187-.311,0-.6,0-1h0c0-1.084-.009-1.99-1-2h-37c-.037,0,.034,0,0,0A2.225,2.225,0,0,0,305.107,1192.616Z" transform="translate(-305.466 -1190.191)" fill="#6b3e45"/><path d="M306.2,1192.093c.048.03-.052-.025,0,0a3.988,3.988,0,0,0,1,0c.036,0-.036,0,0,0h37c.059,0-.058.008,0,0,.4-.06-.29-.586,0-1,.027-.038.976.039,1,0-.318-.059-.655.052-1,0-1.253-.193-3.447-.882-5-1-1.527-.116-3.283.052-5,0a147.606,147.606,0,0,0-27,2c-.286.055-.792-.057-1,0C306.186,1192.1,306.218,1192.089,306.2,1192.093Z" transform="translate(-305.56 -1187.669)" fill="#1f1f3b" opacity="0.24"/></g></g></g><g transform="translate(14.913 2433.523)"><g transform="translate(0 0)"><path d="M78.744,1678.077a34.669,34.669,0,0,1,6-4c2.293-1.038,5.48-1.976,8-3s11.55-4.7,13-6c-11.169,11.066-19.368,29.784-29,22C73.144,1684.166,75.614,1680.387,78.744,1678.077Z" transform="translate(-51.657 -1664.6)" fill="#ffde91"/><path d="M92.957,1710.482a25.573,25.573,0,0,1,8,0,33.175,33.175,0,0,1,7,2,8.481,8.481,0,0,0-5,0c-4.817.944-8.478,4.919-12,8-2.2,1.32-3.919,4.321-7,3-3.081-.88-.755-7.3,2-10A14.115,14.115,0,0,1,92.957,1710.482Z" transform="translate(-54.87 -1685.005)" fill="#ffde91"/><path d="M128.228,1714.082c.185.056-.165-.084,0,0C128.057,1714.01,128.405,1714.152,128.228,1714.082Z" transform="translate(-75.141 -1686.605)" fill="#71d794"/><path d="M40.744,1722.427c2.869-1.39,7.387-.552,9,0,5.037,1.724,6.641,5.919,4,9-2.641,3.961-12.637-5.29-21,3C32.3,1730.3,34.424,1725.488,40.744,1722.427Z" transform="translate(-32.657 -1689.95)" fill="#ffde91"/><path d="M98.091,1739.008c3.522-.88,7.722-.987,11,1-3.483-1.709-6.19,1.018-9,4-2.918,3.291-5.479,11.4-9,7S93.25,1740.328,98.091,1739.008Z" transform="translate(-58.004 -1697.531)" fill="#ffbc5a"/><path d="M56.552,1764.671a9.47,9.47,0,0,1,6,1c4.164,2.64,4.2,7.823,0,9-2.013.564-3.88-1.79-6-3s-3.8-1.538-6,0C51.186,1767.8,52.342,1765.341,56.552,1764.671Z" transform="translate(-40.465 -1709.193)" fill="#ffde91"/><path d="M111.037,1760.407c-.617-.132-2.223,3.128-4,7-1.629,2.505-1.8,5.8-4,8-1.761,1.76-4,1.2-4-1C98.6,1767.8,102.48,1758.163,111.037,1760.407Z" transform="translate(-61.95 -1706.93)" fill="#ffbc5a"/><path d="M60.286,1799.535a20.868,20.868,0,0,0,6-1c2.7-1,6.191.65,5,4-1.724,4.845-6.885,4.624-11,3-4.181-1.651-6,1-6,1S53.079,1800.056,60.286,1799.535Z" transform="translate(-42.199 -1724.057)" fill="#ffbc5a"/><path d="M66.2,1724.05c-.335-1.974.241-5.017,0-7-.723-5.952-2.926-14.883-1-20,1.264-3.359,7.479-9.225,11-10-2.916,1.409-9.3,7.354-10,10-1.466,4.893-.4,10.035,0,15,.2,2.482-.243,4.537,0,7s2,9,2,9c-1.816-16.4,6.331-23.053,11-25a16.111,16.111,0,0,1,5-1c.089-.014.089-.017,0,0-2.566.107-4.769,1.579-7,3a21.822,21.822,0,0,0-5,5,23.655,23.655,0,0,0-3,6c-3.094,8.691,1.8,17.2,4,26a42.443,42.443,0,0,1,2-17c.708-2.272,3.38-7.043,6-8-11.445,7.923-6.32,25.116-5,37,1.8-6.291,3.979-17.852,7-22-3.081,10.124-9.557,23.306-4,32-2.2-3.521-4-1-4-1s-.1-7.6-1-8c-3.356-1.486-11.038-3.641-15-1,4.4-3.521,16,0,16,0s-8.285-13.855-14-18a24.275,24.275,0,0,0-6-3c3.567.7,5.221,1.16,7,3,2.953,2.782,6.929,7.383,11,12-1.321-8.363-5.664-20.973-10-28-1.109-1.866-7.233-14.337-14-9C57.858,1703.237,64.872,1722.957,66.2,1724.05Z" transform="translate(-40.111 -1674.573)" fill="#5c5e67"/></g><g transform="translate(28.291 17.011)"><path d="M153.166,1695.7c-1.8.518-2.071,2.138-4,6-2.9,5.814-9.9,10.907-17,11C137.811,1703.94,132.888,1699.958,153.166,1695.7Z" transform="translate(-105.37 -1695.239)" fill="#ffde91"/><path d="M135.215,1729.921c4.843-.874,10.519.466,14,4-.793-.914-3.32-1.234-5-1-6.3.456-9.43,10.663-15,5C125.717,1734.366,131.71,1730.554,135.215,1729.921Z" transform="translate(-103.419 -1710.455)" fill="#ffbc5a"/><path d="M100.1,1722.95c5.677.789,5.513,8,4,9-2.986,1.982-3.895-3.234-8-4a14.186,14.186,0,0,0-6,1C93.408,1727.16,92.89,1721.948,100.1,1722.95Z" transform="translate(-86.305 -1707.484)" fill="#ffbc5a"/><path d="M124.578,1753.577c2.158-1.485,5.685-1.726,8-2,3.614.134,5.289,2.4,7,5-1.687-2.377-4.559-2.414-8-1-3.064,1.294-7.2,4.641-9,3C121.273,1757.044,122.42,1755.062,124.578,1753.577Z" transform="translate(-100.781 -1720.111)" fill="#ffde91"/><path d="M153.832,1760.587c.064.09.941-.1,1,0C154.772,1760.492,153.894,1760.681,153.832,1760.587Z" transform="translate(-115.036 -1724.121)" fill="#71d794"/><path d="M96.976,1747.839c2.659,1.148,4,4.459,4,7s-1.937,4.68-5,3c-2.021-1.109-.576-2.682-2-5s-3.617-3.668-5-2C90.928,1747.878,93.955,1746.729,96.976,1747.839Z" transform="translate(-86.18 -1718.373)" fill="#ff3b00"/><path d="M131.037,1773.855c-3.274.123-3.276.543-5,4-2.085,4.183-5.849,7.052-9,5-1.669-1.087-.64-5.126,1-7C120.936,1772.542,126.724,1770.677,131.037,1773.855Z" transform="translate(-98.241 -1729.389)" fill="#ffde91"/><path d="M93.408,1789.916c-2.3,2.357-5.081.507-7-1s-3-8-3-8a61.486,61.486,0,0,0,9,3C94.6,1784.6,95.577,1787.693,93.408,1789.916Z" transform="translate(-83.612 -1733.45)" fill="#ff3b00"/><path d="M98.591,1761.893c1.649,3.017,1.958,1.2,2-1,.105-5.532.45-20.723-6-26,6.707,3.516,5.81,13.128,7,20,.611-8.971,9.368-29.516-4-33,6.721.4,8.693,7.5,8,14,3.019-7.083,7.506-15.547,14-20-6.75,5.821-12.1,17.046-15,25,3.9-7.247,14.485-15.818,22-15,.064.008.064,0,0,0-13.035.6-24.568,16.054-25,29,2.252-2.956,7.124-18.452,18-18-11.021.635-18.146,19.106-19,29,2.938-4.731,5.994-9.03,9-13a14.1,14.1,0,0,1,5-4c-7,7.19-15.35,21.079-15,27l-2-1s4.581-12.4-7-19C94.575,1755.786,97.319,1759.566,98.591,1761.893Z" transform="translate(-86.794 -1704.427)" fill="#5c5e67"/></g><g transform="translate(27.968 81.793)"><path d="M84.149,1811.6h17c.615,0,1.136.4,1,1l-1,3c-.1.436-.553,1-1,1h-16c-.447,0,.1-.564,0-1l-1-3C83.013,1812,83.535,1811.6,84.149,1811.6Z" transform="translate(-83.03 -1811.919)" fill="#b54a60"/><path d="M99.6,1829.331c-.092.637-.357,1-1,1h-10c-.644,0-.908-.363-1-1l-1-9h15Z" transform="translate(-84.481 -1815.647)" fill="#ff5f85"/></g></g></g></svg>