<svg xmlns="http://www.w3.org/2000/svg" width="327.052" height="147.204" viewBox="0 0 327.052 147.204"><g transform="translate(-35.015 -239.162)"><g transform="translate(115.413 238.997)"><g transform="translate(0 132.892)"><path d="M361.477,768.349c-3.861.2-7,2.335-7,6a6.841,6.841,0,0,0,2,5c1.35,1.29,4.1,2,6,2h70v-13Z" transform="translate(-354.823 -767.872)" fill="#ff5f85"/><g transform="translate(68.093 1.324)"><path d="M682.375,784.293a6.218,6.218,0,0,1-6-6c0-2.792,2.2-4.587,5-5h-50c-3.074.162-6,2.02-6,5a6.215,6.215,0,0,0,6,6Z" transform="translate(-625.814 -773.14)" fill="#d9e2ff" fill-rule="evenodd"/></g><g transform="translate(66.772)"><path d="M627.441,779.349c-1.218,0-2.143-1.182-3-2a3.876,3.876,0,0,1-1-3,3.93,3.93,0,0,1,4-4h54v-2h-54c-3.861.2-7,2.335-7,6a6.843,6.843,0,0,0,2,5,7.15,7.15,0,0,0,5,2h54v-2Z" transform="translate(-620.559 -767.872)" fill="#b54a60"/></g><path d="M578.858,787.349l3,3,3-3-3-2Z" transform="translate(-522.204 -780.873)" fill="#b54a60"/></g><g transform="translate(1.611 121.716)"><g transform="translate(40.405)"><path d="M579.672,723.047c3.13.165,5,3.028,5,6,0,1.5.108,2.943-1,4a8.709,8.709,0,0,1-5,2h-57v-12Z" transform="translate(-522.034 -723.394)" fill="#71d794"/></g><g transform="translate(1.904 1.073)"><path d="M368.952,736.245c2.614,0,5-1.5,5-4a5.146,5.146,0,0,0-4-5h41c2.492.131,4,2.584,4,5,0,2.5-2.386,4-5,4Z" transform="translate(-368.813 -727.665)" fill="#d9e2ff" fill-rule="evenodd"/></g><path d="M404.277,732.047a4.747,4.747,0,0,0,3-1,2.429,2.429,0,0,0,1-2c0-1.834-1.061-2.9-3-3l-44-1v-2h44c3.13.165,5,3.028,5,6a5.825,5.825,0,0,1-2,4,6.082,6.082,0,0,1-4,2h-43v-3Z" transform="translate(-361.234 -723.394)" fill="#17cb6f"/><g transform="translate(28.931 4.153)"><path d="M480.482,750.422l-2-2-2,2v-10h4Z" transform="translate(-476.37 -739.922)" fill="#4b6dff" fill-rule="evenodd"/></g><path d="M575.5,739.588l-3,2-3-2,3-2Z" transform="translate(-517.453 -733.935)" fill="#17cb6f"/></g><g transform="translate(19.355 78.408)"><path d="M488.906,675.624c-2.852-.31-18.528,4.016-25,7-2.753,1.27-1.838,5.612,1,6,7.582,1.035,17-1.037,23-3C493.173,683.9,491.985,675.959,488.906,675.624Z" transform="translate(-454.607 -644.664)" fill="#ffbc5a"/><path d="M470.882,811.379l-2-1a7.734,7.734,0,0,0-1,1c-.371.6-3,1.182-3,2,0,.386,1.276,0,2,0,.672,0,1.589.007,2,0,.525-.009,1.8.2,2,0,.505-.51,0-.5,0-1Z" transform="translate(-456.583 -745.419)" fill="#505159"/><path d="M478.726,810.163a4.374,4.374,0,0,0-1,1,2.236,2.236,0,0,0,3,1c.007-.432,0-2,0-2Z" transform="translate(-466.427 -745.203)" fill="#ff8eaa"/><path d="M502.628,676.961c-2.869,0-18.89,5.331-25,9-2.6,1.561-.863,4.923,2,5,7.649.207,17.252-.4,23-3C507.676,685.675,505.726,676.961,502.628,676.961Z" transform="translate(-465.329 -645.001)" fill="#ffde91"/><path d="M476.066,716c.29,12.494,0,22,0,22,.6.4,2.154.135,3,0,0,0,1.3-9.137,3-20C483.184,710.841,475.947,710.907,476.066,716Z" transform="translate(-464.767 -672.043)" fill="#ffde91"/><path d="M465.645,673.676c-.053.156.836,0,1,0,.393-.117.615.056,1,0a3.209,3.209,0,0,1-1,0C466.468,673.607,465.706,673.428,465.645,673.676Z" transform="translate(-457.346 -642.715)" fill="#fd5b88"/><path d="M460.5,674.337a19.558,19.558,0,0,0-2,1c-.2.1-.871-.118-1,0a3.5,3.5,0,0,0,0,1h0c-.024.236,1.019-.056,1,0-.076.23.219.345,1,0a16.021,16.021,0,0,0,3,0,13.456,13.456,0,0,0-1-2C461.114,674.394,460.892,674.221,460.5,674.337Z" transform="translate(-451.2 -643.377)" fill="#fd5b88"/><path d="M483.436,651.493c-.147.012-.9-.044-1,0-1.9.814-7.887,5.467-10,6,.313.636-.084,1.556,0,2,3.459-.947,11.974-4.568,12-6C484.46,652.18,484.082,651.441,483.436,651.493Z" transform="translate(-462.137 -626.533)" fill="#fd5b88"/><path d="M487.9,609.37c-.161.016.079-.129,0,0a19.982,19.982,0,0,0-2,4c-.723,1.983-1.34,4.722-2,6-.114.221.081-.21,0,0-.759.421-1.943,1.365-3,2-2.307,1.387-5.811,3.682-7,4l1,2c2.953-.854,10.352-3.308,12-5,1.734-1.731,7.339-9.34,6-11A14.475,14.475,0,0,0,487.9,609.37Z" transform="translate(-463.598 -594.41)" fill="#acb7d0"/><path d="M544.064,580.118c-.214.181-2.326,2.055-3,2a7.619,7.619,0,0,1,0,3c.253.965,3.366.708,4-1A11.105,11.105,0,0,1,544.064,580.118Z" transform="translate(-513.765 -573.158)" fill="#ff8eaa"/><path d="M537.316,596.591a29.488,29.488,0,0,1-3-1s-2.042,1.864-3,2c-.658.093-1-1-1-1s-1.585.719-2,1c-1.609,1.088-1.317,2.669-1,4,1.107,4.641,0,17,0,17,1.96.773,12.622,6.165,16,3,0,0,.9-12.469-3-21C539.561,598.939,539.428,596.948,537.316,596.591Z" transform="translate(-503.017 -584.631)" fill="#c7cfe4"/><path d="M533.967,567.365c-1.234,0-1.808.822-2,2-.069.422-.039,4.569,2,5,.862.182,3-2.01,3-3,0,0,0-.986,0-1A3.567,3.567,0,0,0,533.967,567.365Z" transform="translate(-506.668 -563.405)" fill="#ff8eaa"/><path d="M437.15,800.1l-2-1a1.941,1.941,0,0,1,0,1c-.316.63-3.073,1.185-3,2,.034.384.278,1.064,1,1,.669-.06,2.591.043,3,0,.522-.056.823-.787,1-1,.457-.553.044-.5,0-1A7.725,7.725,0,0,1,437.15,800.1Z" transform="translate(-431.851 -737.14)" fill="#505159"/><path d="M444.6,798.861a1.291,1.291,0,0,1,0,1s-.357.814,0,1a8.69,8.69,0,0,0,2,0c-.031-.431,0-2,0-2Z" transform="translate(-441.298 -736.901)" fill="#ff8eaa"/><path d="M448.822,705.469c-2.325,12.279-4,22-4,22,.5.513,1.152.3,2,0,0,0,4.073-8.731,8-19C457.411,701.7,449.77,700.461,448.822,705.469Z" transform="translate(-441.523 -664.509)" fill="#ffbc5a"/><g transform="translate(0.515 24.735)"><g transform="translate(17.072 12.486)"><path d="M501.555,698.912h0a1.6,1.6,0,0,0,1,1h13a1.6,1.6,0,0,0,1-1h-15Z" transform="translate(-501.843 -699.173)" fill="#b1bfd9"/></g><path d="M468.931,650.712c-.126-.457-.526-1.012-1-1h-8v13h11a1.112,1.112,0,0,0,1-1Z" transform="translate(-453.147 -649.487)" fill="#b1bfd9"/><path d="M448.683,649.705c-.04-.143.149,0,0,0h-14c-.219,0-1.059-.211-1,0l3,12c.2.708,1.265,1,2,1h13c.219,0,.059-.789,0-1Z" transform="translate(-433.899 -649.48)" fill="#e2e8f1"/></g><path d="M537.958,611.918c-.916,2.341-2.716,4.7-4,7-1.784,3.2-3.109,7.8-6,10a14.3,14.3,0,0,0,7-3c2.014-1.915,7.151-9.9,4-13C538.777,612.674,538.04,612.2,537.958,611.918Z" transform="translate(-503.659 -596.958)" fill="#5a5d71" opacity="0.41"/><g transform="translate(15.504 14.419)"><path d="M500.89,679.2c-.183-.05.034-.253,0,0-.036.161.837,1.017,1,1,.378-.159.624-.9,1-1A12.735,12.735,0,0,1,500.89,679.2Z" transform="translate(-499.095 -661.656)" fill="#ff8eaa"/><path d="M497.348,679.349c-.376.1-.622.842-1,1-.449.183-1.933.963-2,1-.188.117-.885-.131-1,0a3.283,3.283,0,0,0,0,1h0c0,.237,1.013-.058,1,0-.051.237.26.426,1,0,.044-.025,2.372-.727,3-1A21.058,21.058,0,0,0,497.348,679.349Z" transform="translate(-493.553 -661.807)" fill="#ff8eaa"/><path d="M546.545,610.019c-.842,1.715-1.876,7.213-3,10-1.379,3.419,1.248,3.9,2,3,1.979-2.371,6.122-9.847,5-11C550.058,611.519,546.7,609.709,546.545,610.019Z" transform="translate(-530.75 -609.478)" fill="#fd5b88"/><path d="M517.678,653.082c-.144.028.1-.055,0,0-1.8,1.013-7.956,5.243-10,6,.38.6-.131,1.568,0,2,3.337-1.313,12.128-5.573,12-7C519.562,652.775,518.315,652.96,517.678,653.082Z" transform="translate(-503.883 -641.54)" fill="#ff8eaa"/><path d="M521.559,607.965c-.158.033.065.863,0,1-.416.879-2.481,8.658-3,10-.089.232.058.783,0,1-.709.5-2.018,1.255-3,2a39.368,39.368,0,0,1-6,4l1,2c2.844-1.167,9.544-4.142,11-6,1.538-1.908,6.509-10.494,5-12C526.053,609.461,522.252,607.822,521.559,607.965Z" transform="translate(-505.764 -608.424)" fill="#c7cfe4"/></g><path d="M534.869,561.8c-1.8-1.635-4,0-4,0-2.126.405-1.976,3.547-1,4-.461-2.289,1-3,1-3,2.882-.042,4.194,4.11,4,5C534.869,567.8,537.584,564.259,534.869,561.8Z" transform="translate(-504.57 -558.838)" fill="#688bff"/><path d="M561.484,558c-.913-.563-2.138-.621-3-3-2.861-7.89-7.751-2.073-7,0,.185.51.73.669,1,0,.455-1.129,2.109-3.33,2,2-.029,1.407-1.325,3.7,3,5,3.913,1.179,1.54,3.074,2,4C560.664,568.378,565.993,560.783,561.484,558Z" transform="translate(-521.185 -551.041)" fill="#688bff"/><path d="M549.783,561.211c-.175-.105.149-1.011,0-1-.371.027-1,1-1,1a11.256,11.256,0,0,1,2,1C550.977,561.788,550.442,561.611,549.783,561.211Z" transform="translate(-519.484 -558.251)"/></g><g transform="translate(180.157 62.923)"><path d="M1156.7,500.86a40.208,40.208,0,0,1,6-3c1.992-.9,3.811-2.111,6-3s9.74-3.871,11-5c-9.7,9.615-15.631,25.763-24,19C1152.573,506.332,1153.982,502.867,1156.7,500.86Z" transform="translate(-1133.205 -489.415)" fill="#1e94fe"/><path d="M1177.085,577.8a22.533,22.533,0,0,1,7,0c2.112.3,4.331.346,6,1-1.105-.334-3.26.47-5,1-4.185.82-6.94,3.323-10,6-1.912,1.147-3.323,4.147-6,3-2.677-.765-.394-5.65,2-8A12.506,12.506,0,0,1,1177.085,577.8Z" transform="translate(-1143.588 -555.357)" fill="#1e94fe"/><path d="M1255.594,583.975c.162.049-.143.926,0,1C1255.445,584.913,1255.748,584.036,1255.594,583.975Z" transform="translate(-1209.097 -560.53)" fill="#71d794"/><path d="M1078.3,599.783c2.493-1.207,6.6-1.48,8-1,4.377,1.5,6.295,5.323,4,8-2.295,3.442-10.734-3.2-18,4C1071.917,607.2,1072.808,602.443,1078.3,599.783Z" transform="translate(-1071.803 -571.338)" fill="#1e94fe"/><path d="M1189.212,632.282a11.4,11.4,0,0,1,9,1c-3.026-1.485-5.558.409-8,3-2.535,2.859-4.941,9.824-8,6S1185.006,633.429,1189.212,632.282Z" transform="translate(-1153.716 -595.837)" fill="#4b6dff"/><path d="M1111.531,681.972a4.973,4.973,0,0,1,4,1c3.617,2.293,4.652,5.977,1,7-1.749.49-3.158-.949-5-2a5.473,5.473,0,0,0-6,0C1106.083,684.612,1107.873,682.554,1111.531,681.972Z" transform="translate(-1097.034 -633.527)" fill="#1e94fe"/><path d="M1208.962,672.656c-.536-.114-1.456,2.635-3,6-1.415,2.177-1.088,5.088-3,7-1.529,1.53-5,.912-5-1C1197.58,678.92,1201.528,670.706,1208.962,672.656Z" transform="translate(-1166.466 -626.211)" fill="#4b6dff"/><path d="M1118.137,747.009a24,24,0,0,0,6-1,3.056,3.056,0,0,1,4,4c-1.5,4.21-6.425,4.411-10,3-3.633-1.434-5,1-5,1S1111.875,747.462,1118.137,747.009Z" transform="translate(-1102.641 -681.564)" fill="#4b6dff"/><path d="M1119.387,565.09c-.291-1.715-.79-5.276-1-7-.628-5.171-1.673-12.554,0-17,1.1-2.918,5.941-8.327,9-9-2.534,1.223-8.392,6.7-9,9-1.274,4.251-.351,8.686,0,13,.176,2.157.789,3.859,1,6s1,8,1,8c-1.578-14.246,4.943-20.308,9-22,1.5-.626,3.422.161,5,0,.077-.013.077-.015,0,0a11.559,11.559,0,0,0-6,2,16.1,16.1,0,0,0-4,4c-1.072,1.62-2.424,3.134-3,5-2.688,7.552,1.088,15.351,3,23a38.137,38.137,0,0,1,2-15c.615-1.975,2.724-5.168,5-6-9.943,6.884-6.147,20.674-5,31,1.562-5.466,4.375-15.4,7-19-2.677,8.8-8.828,20.447-4,28-1.912-3.059-3-1-3-1s-.218-5.654-1-6c-2.916-1.291-9.558-4.294-13-2,3.824-3.059,14,1,14,1s-7.034-12.4-12-16a21.687,21.687,0,0,0-5-3c3.1.611,4.454,1.4,6,3,2.566,2.417,5.463,6.989,9,11-1.147-7.266-4.232-18.895-8-25-.963-1.621-6.12-12.637-12-8C1111.911,546.3,1118.235,564.14,1119.387,565.09Z" transform="translate(-1095.89 -521.645)" fill="#5c5e67"/><g transform="translate(24.58 14.78)"><path d="M1281.857,547.9c-1.565.45-2.324,2.644-4,6a16.159,16.159,0,0,1-14,9C1268.761,555.286,1264.239,551.6,1281.857,547.9Z" transform="translate(-1239.941 -548.236)" fill="#1e94fe"/><path d="M1261.551,614.075c4.208-.76,8.975-.071,12,3-.69-.794-3.54-.2-5,0-5.476.4-8.16,8.92-13,4C1252.513,617.986,1258.506,614.624,1261.551,614.075Z" transform="translate(-1233.635 -597.41)" fill="#688bff"/><path d="M1190.245,601.475c4.932.686,4.314,6.128,3,7-2.594,1.722-3.433-2.335-7-3a11.492,11.492,0,0,0-5,1C1184.118,604.92,1183.979,600.6,1190.245,601.475Z" transform="translate(-1178.328 -587.81)" fill="#4b6dff"/><path d="M1246.028,658.28a19.123,19.123,0,0,1,7-3c3.14.117,4.514,2.739,6,5-1.466-2.065-4.011-1.229-7,0-2.662,1.124-6.439,3.426-8,2C1242.895,660.948,1244.153,659.57,1246.028,658.28Z" transform="translate(-1225.112 -628.615)" fill="#1e94fe"/><path d="M1305.094,673.239c.056.078-.051-.086,0,0C1305.042,673.156,1305.148,673.321,1305.094,673.239Z" transform="translate(-1271.178 -641.574)" fill="#71d794"/><path d="M1186.839,648.663a7.159,7.159,0,0,1,4,6c0,2.208-1.339,4.46-4,3-1.756-.963-.763-2.986-2-5s-2.8-3.45-4-2C1182.536,648.091,1184.215,647.7,1186.839,648.663Z" transform="translate(-1177.923 -622.998)" fill="#1e94fe"/><path d="M1245.819,697.263c-2.845.106-3.5,1-5,4-1.812,3.634-4.262,5.783-7,4-1.45-.944-.425-4.372,1-6C1237.338,696.385,1242.071,694.5,1245.819,697.263Z" transform="translate(-1216.903 -658.598)" fill="#4b6dff"/><path d="M1178.542,720.386c-2,2.048-5.333,1.31-7,0s-2-7-2-7,4.162,2.472,7,3C1178.443,716.986,1180.427,718.455,1178.542,720.386Z" transform="translate(-1169.626 -671.721)" fill="#4b6dff"/><path d="M1189.828,628.593c1.433,2.621,1.964-.088,2-2,.092-4.807.6-17.415-5-22,5.827,3.055,4.967,11.029,6,17,.531-7.795,7.615-24.973-4-28,5.84.351,7.6,6.353,7,12,2.624-6.154,7.357-14.131,13-18-5.864,5.058-10.48,15.089-13,22,3.392-6.3,11.471-13.711,18-13,.055.007.056,0,0,0-11.325.52-20.625,13.752-21,25,1.957-2.568,5.551-15.393,15-15-9.575.552-15.258,16.4-16,25,2.552-4.111,5.388-8.55,8-12a9.911,9.911,0,0,1,4-3c-6.086,6.247-13.3,17.856-13,23h-1s4.061-11.261-6-17C1187.29,622.5,1188.723,626.572,1189.828,628.593Z" transform="translate(-1179.911 -577.928)" fill="#5c5e67"/></g><g transform="translate(24.3 71.066)"><path d="M1169.707,772.618h14c.534,0,1.118.48,1,1v2c-.086.379-.612,1-1,1h-14c-.389,0-.914-.621-1-1v-2C1168.589,773.1,1169.173,772.618,1169.707,772.618Z" transform="translate(-1168.51 -772.239)" fill="#b54a60"/><path d="M1186.394,796.667a1.049,1.049,0,0,1-1,1h-8a1.049,1.049,0,0,1-1-1l-2-8h14Z" transform="translate(-1173.197 -784.288)" fill="#ff5f85"/></g></g><g transform="translate(118.537 44.191)"><path d="M946.51,808.687a2.136,2.136,0,0,0,2,2h20v-4h-20A2.125,2.125,0,0,0,946.51,808.687Z" transform="translate(-916.393 -708.51)" fill="#e2e8f1"/><path d="M1010.214,729.082h-21v9a3.951,3.951,0,0,0,1,3l6,7h21l-7-8Z" transform="translate(-948.097 -649.905)" fill="#e0e5eb"/><path d="M990.161,732.083h21v-3h-21Z" transform="translate(-949.044 -649.905)" fill="#5a5d71" opacity="0.28"/><g transform="translate(49.346 78.816)"><path d="M1037.727,737.9v-9h-3l-1,9a3.821,3.821,0,0,0,1,3l7,7h-17a2.073,2.073,0,0,0-2,2,2.094,2.094,0,0,0,2,2h18c1.7,0,2.671-1.13,3-3a2.967,2.967,0,0,0-1-3Z" transform="translate(-1022.957 -728.534)" fill="#b1bfd9"/></g><path d="M935.813,415.044l-92,11c-2.656.317-4.779,3.056-5,6l-4,56c-.257,3.42,1.969,6,5,6h93c3.654,0,5.814-2.419,6-6l4-67C943.017,417.118,939.886,414.557,935.813,415.044Z" transform="translate(-832.696 -414.867)" fill="#b1bfd9"/><path d="M926.687,416.02l-91,11c-2.625.313-4.777,3.079-5,6l-4,56a9.371,9.371,0,0,0,0,2,4.747,4.747,0,0,0,5,4h92c3.608,0,6.81-2.449,7-6l3-66C933.889,419.129,930.708,415.54,926.687,416.02Z" transform="translate(-826.57 -415.843)" fill="#e2e8f1"/><path d="M938.713,434.82v3l-4,63c-.076,1.429-.543,1.991-2,2l-92,1a3.308,3.308,0,0,1-2-1c-.229-.279-.065-1.1,0-2l4-53v-3a2.34,2.34,0,0,1,1-2c.229-.127.737-.972,1-1l91-10a2.5,2.5,0,0,1,2,1c.02.017-.02-.02,0,0s-.02-.023,0,0c.042.045-.045-.057,0,0A3.682,3.682,0,0,1,938.713,434.82Z" transform="translate(-835.596 -427.643)" fill="#518bf1"/><path d="M950.65,434.82v3h0l-96,10h0v-4c.181-.692.419-.689,1-1,.229-.127.737-.972,1-1l91-10a2.5,2.5,0,0,1,2,1c.02.017-.02-.02,0,0s-.02-.023,0,0c.042.045-.045-.057,0,0A3.532,3.532,0,0,1,950.65,434.82Z" transform="translate(-847.533 -427.643)" fill="#5c5e67"/><g transform="translate(85.751 6.368)"><g transform="translate(8.688)"><path d="M1203.416,440.715l2,3c.078.089.086-.106,0,0a1.748,1.748,0,0,1-1,0l-2-2c-.077-.088.915.106,1,0S1203.34,440.627,1203.416,440.715Z" transform="translate(-1202.739 -440.906)" fill="#fff"/><path d="M1205.091,440.019c.087-.107-.078-.088,0,0a2.067,2.067,0,0,1,0,1l-2,2a1.759,1.759,0,0,1-1,0c-.077-.088-.085.106,0,0Z" transform="translate(-1202.414 -440.21)" fill="#fff"/></g><g transform="translate(4.296 0.36)"><path d="M1185,443.091c-.041.934.206,2.083,1,2a2.552,2.552,0,0,0,2-2c.041-.94-1.2-1.089-2-1S1185.044,442.156,1185,443.091Zm0,0c.032-.722.385-.932,1-1s1.032.275,1,1-.384,1.935-1,2S1184.972,443.813,1185,443.091Z" transform="translate(-1184.933 -441.641)" fill="#fff"/></g><g transform="translate(0 3.451)"><path d="M1168.2,454.3h2c.092-.01,1-.107,1,0s-.908-.01-1,0h-2c-.091.01-.005.107,0,0S1168.112,454.311,1168.2,454.3Z" transform="translate(-1167.838 -453.943)" fill="#fff"/></g></g><g transform="translate(18.335 55.278)"><path d="M1075.343,634.758h20a.982.982,0,0,1,1,1,1.02,1.02,0,0,1-1,1h-20a.983.983,0,0,1-1-1A1.02,1.02,0,0,1,1075.343,634.758Z" transform="translate(-1030.562 -634.858)" fill="#ffde91"/><path d="M1139.435,655.308h4a1.186,1.186,0,0,1,1,1,1.238,1.238,0,0,1-1,1h-4a1.186,1.186,0,0,1-1-1A1.238,1.238,0,0,1,1139.435,655.308Z" transform="translate(-1078.653 -650.409)" fill="#ffde91"/><path d="M1095.87,674.862h15c.267,0,.009.733,0,1s.267,0,0,0h-15c-.266,0-1.01.267-1,0A1.88,1.88,0,0,1,1095.87,674.862Z" transform="translate(-1046.089 -664.963)" fill="#fff"/><path d="M1095.457,690.658h15c.267,0,.009.734,0,1s-.733,0-1,0h-14c-.267,0-1.009.268-1,0A1.884,1.884,0,0,1,1095.457,690.658Z" transform="translate(-1045.676 -676.759)" fill="#fff"/><path d="M901.143,640.438l15-1c.267,0,.009.733,0,1s.267,0,0,0l-15,1c-.266,0-1.01-.733-1-1S900.876,640.443,901.143,640.438Z" transform="translate(-900.362 -638.539)" fill="#fff"/><path d="M939.93,655.235h5c.267,0,.009.733,0,1s.267,0,0,0h-5c-.267,0-1.01.267-1,0A1.882,1.882,0,0,1,939.93,655.235Z" transform="translate(-929.149 -650.336)" fill="#ffde91"/><path d="M920.46,655.686h1c.267,0,.009.733,0,1s.267,0,0,0h-1c-.267,0-1.01.267-1,0A1.881,1.881,0,0,1,920.46,655.686Z" transform="translate(-914.679 -650.786)" fill="#fff"/><path d="M900.321,672.03l14-1c.268,0,1.01.732,1,1s-.733,0-1,0h-14c-.267,0-1.01.267-1,0S900.054,672.035,900.321,672.03Z" transform="translate(-899.54 -662.131)" fill="#fff"/><path d="M1031.162,676.724l4-1a1.335,1.335,0,0,1,1,1,1.394,1.394,0,0,1-1,1h-4a1.333,1.333,0,0,1-1-1C1030.175,676.351,1030.79,676.73,1031.162,676.724Z" transform="translate(-997.381 -665.824)" fill="#ffde91"/><path d="M1031.5,663.091h4a1.333,1.333,0,0,1,1,1,1.4,1.4,0,0,1-1,1h-4a1.336,1.336,0,0,1-1-1A1.4,1.4,0,0,1,1031.5,663.091Z" transform="translate(-997.716 -656.191)" fill="#ffde91"/><path d="M1031.834,650.457h4a1.334,1.334,0,0,1,1,1c-.013.372-.627-.006-1,0h-4c-.373.006-1.013.372-1,0A1.4,1.4,0,0,1,1031.834,650.457Z" transform="translate(-998.052 -646.558)" fill="#ffde91"/><path d="M1032.171,637.824h5c.372-.007.013-.372,0,0s.372.994,0,1h-5c-.372.007-1.013.372-1,0A1.4,1.4,0,0,1,1032.171,637.824Z" transform="translate(-998.389 -636.924)" fill="#ffde91"/><path d="M1001.054,638.31h3a1.336,1.336,0,0,1,1,1c-.013.372-.628-.006-1,0h-3c-.372.007-.012.372,0,0S1000.682,638.316,1001.054,638.31Z" transform="translate(-975.273 -637.41)" fill="#ffde91"/><path d="M1000.311,666.612h3a1.333,1.333,0,0,1,1,1c-.013.373-.627-.007-1,0l-3,1a1.333,1.333,0,0,1-1-1A1.4,1.4,0,0,1,1000.311,666.612Z" transform="translate(-974.53 -658.712)" fill="#ffde91"/></g><path d="M985.667,450.969l-48,5v-4l48-5Z" transform="translate(-909.551 -438.792)" fill="#5c5e67"/><g transform="translate(14.681 14.482)"><g transform="translate(0 3.078)"><path d="M885.431,485.368l4-1c.145-.015.008.855,0,1s.143-.015,0,0h-4c-.144.015-.008.145,0,0S885.288,485.383,885.431,485.368Z" transform="translate(-884.995 -484.75)" fill="#fff"/></g><g transform="translate(0.08 1.539)"><path d="M885.67,478.782h4c.145-.015.008-.146,0,0s.145-.015,0,0l-4,1c-.144.015-.007.146,0,0S885.525,478.8,885.67,478.782Z" transform="translate(-885.314 -478.626)" fill="#fff"/></g><g transform="translate(0.16)"><path d="M885.908,473.2l4-1c.145-.015.007.855,0,1s.145-.015,0,0h-4c-.144.015-.007.145,0,0S885.763,473.212,885.908,473.2Z" transform="translate(-885.632 -472.501)" fill="#fff"/></g></g><g transform="translate(8.805 17.305)"><g transform="translate(1.031 7.121)"><path d="M881,511.827l-15,2c-.124.012.015-.142,0,0s-.124.013,0,0l15-1c.133-.013-.017-.853,0-1S881.129,511.813,881,511.827Z" transform="translate(-865.715 -512.075)" fill="#fff"/></g><g transform="translate(17.423 6.717)"><path d="M933.838,510.625h-3c-.134.014.017-.147,0,0s-.134,1.014,0,1l3-1c.136-.013-.018.149,0,0S933.974,510.611,933.838,510.625Z" transform="translate(-930.949 -510.47)" fill="#fff"/></g><g transform="translate(22.807 5.266)"><path d="M963.883,504.3l-11,2c-.138.014-.982-.15-1,0s.862.014,1,0l11-1c.145-.015.98.154,1,0A2.881,2.881,0,0,0,963.883,504.3Z" transform="translate(-952.378 -504.695)" fill="#fff"/></g><g transform="translate(0.853 8.556)"><path d="M883.464,518.1l-18,1c-.124.012.015.859,0,1s-.124.012,0,0l18-2c.135-.013-.018.148,0,0S883.6,518.09,883.464,518.1Z" transform="translate(-865.005 -517.787)" fill="#fff"/></g><g transform="translate(20.915 7.285)"><path d="M953.245,512.316l-8,1c-.136.013.018-.149,0,0s-.136,1.013,0,1l8-1c.141-.013-.018.152,0,0S953.387,512.3,953.245,512.316Z" transform="translate(-944.849 -512.73)" fill="#fff"/></g><g transform="translate(30.321 6.735)"><path d="M986.271,510.679h-4c-.143.014.019.848,0,1s-.143.014,0,0l4-1c.145-.014.981.154,1,0S986.416,510.665,986.271,510.679Z" transform="translate(-982.279 -510.542)" fill="#fff"/></g><g transform="translate(1.385 10.339)"><path d="M889.049,524.417l-22,2c-.125.011.015.859,0,1s-.124.011,0,0l22-2c.138-.013-.018.149,0,0S889.187,524.4,889.049,524.417Z" transform="translate(-867.122 -524.884)" fill="#fff"/></g><g transform="translate(25.741 9.515)"><path d="M970.625,521.96h-6a3.687,3.687,0,0,0-1,1c-.019.15.861.012,1,0l6-1c.143-.013-.02.152,0,0S970.768,521.947,970.625,521.96Z" transform="translate(-964.054 -521.603)" fill="#fff"/></g><g transform="translate(16.137 11.345)"><path d="M944.006,528.414l-18,2c-.133.012.017-.146,0,0s-.133,1.011,0,1l18-2c.144-.012-.02.152,0,0S944.151,528.4,944.006,528.414Z" transform="translate(-925.831 -528.887)" fill="#fff"/></g><g transform="translate(0.168 14.912)"><path d="M885.423,543.043l-23,2c-.123.01.015-.141,0,0s-.124.01,0,0l23-1c.137-.011-.018-.852,0-1S885.56,543.032,885.423,543.043Z" transform="translate(-862.279 -543.083)" fill="#fff"/></g><g transform="translate(15.642 15.757)"><path d="M942.533,546.559l-18,1a3.79,3.79,0,0,0-1,1c-.017.146.867.01,1,0l18-2c.144-.011-.019.151,0,0S942.677,546.548,942.533,546.559Z" transform="translate(-923.863 -546.444)" fill="#fff"/></g><g transform="translate(0 22.075)"><path d="M875.923,571.388l-14,1c-.123.008.015-.139,0,0s-.123,1.008,0,1l14-1c.131-.009-.016-.856,0-1S876.054,571.379,875.923,571.388Z" transform="translate(-861.611 -571.591)" fill="#fff"/></g><g transform="translate(0.435 13.742)"><path d="M869.219,538.555h-6c-.124.011.015.859,0,1s-.124.011,0,0l6-1c.127-.011-.016.143,0,0S869.346,538.544,869.219,538.555Z" transform="translate(-863.342 -538.425)" fill="#fff"/></g><g transform="translate(51.642 3.127)"><path d="M1072.8,495.927l-5,1c-.17.017-.976-.173-1,0s.831.017,1,0h5c.174-.017.975.176,1,0S1072.977,495.91,1072.8,495.927Z" transform="translate(-1067.134 -496.183)" fill="#fff"/></g><g transform="translate(43.745 5.678)"><path d="M1048.273,506.528l-12,1c-.164.016-.977-.169-1,0s.837,1.015,1,1l12-2c.173-.016.975.175,1,0S1048.446,506.512,1048.273,506.528Z" transform="translate(-1035.706 -506.335)" fill="#fff"/></g><g transform="translate(63.058 2.302)"><path d="M1115.818,492.468l-3,1c-.178.018.025-.177,0,0s-.177.018,0,0h2c.18-.018.974.179,1,0S1116,492.451,1115.818,492.468Z" transform="translate(-1112.564 -492.898)" fill="#fff"/></g><g transform="translate(67.445 1.858)"><path d="M1132.891,491.147h-2a3.034,3.034,0,0,0-1,1c-.027.179-.181.018,0,0h3c.183-.018-.028-.82,0-1S1133.074,491.129,1132.891,491.147Z" transform="translate(-1130.023 -491.133)" fill="#fff"/></g><g transform="translate(71.912 1.407)"><path d="M1150.2,489.8h-2c-.184.019.027-.18,0,0s-.185.018,0,0h2c.187-.019.972.182,1,0S1150.389,489.783,1150.2,489.8Z" transform="translate(-1147.803 -489.337)" fill="#fff"/></g><g transform="translate(76.464 0.947)"><path d="M1168.766,487.43h-2a2.954,2.954,0,0,0-1,1c-.028.183-.188.019,0,0h3c.19-.019-.028-.816,0-1S1168.956,487.411,1168.766,487.43Z" transform="translate(-1165.919 -487.505)" fill="#fff"/></g><g transform="translate(81.101 0.478)"><path d="M1187.584,486.034h-3c-.192.019.029-.184,0,0s-.191,1.019,0,1l3-1c.193-.019-.03.186,0,0S1187.778,486.014,1187.584,486.034Z" transform="translate(-1184.373 -485.64)" fill="#fff"/></g><g transform="translate(85.826)"><path d="M1206.662,483.609h-3c-.195.019.03.814,0,1s-.195.019,0,0h2a2.865,2.865,0,0,0,1-1C1206.693,483.422,1206.86,483.589,1206.662,483.609Z" transform="translate(-1203.176 -483.737)" fill="#fff"/></g><g transform="translate(62.788 4.244)"><path d="M1113.016,500.255l-1,1c-.178.017-.974-.177-1,0s.823.017,1,0h1c.178-.017.974.177,1,0S1113.195,500.238,1113.016,500.255Z" transform="translate(-1111.492 -500.627)" fill="#fff"/></g><g transform="translate(66.387 3.895)"><path d="M1127.739,499.216h-2c-.18.017.026.821,0,1s-.18.017,0,0h2c.181-.017-.027-.821,0-1S1127.92,499.2,1127.739,499.216Z" transform="translate(-1125.814 -499.24)" fill="#fff"/></g><g transform="translate(70.04 3.542)"><path d="M1142.623,498.162h-2c-.183.018.027-.18,0,0s-.183.017,0,0h2c.184-.018-.027.18,0,0S1142.807,498.144,1142.623,498.162Z" transform="translate(-1140.351 -497.832)" fill="#fff"/></g><g transform="translate(73.748 3.182)"><path d="M1156.672,496.091h-1a2.977,2.977,0,0,0-1,1c-.027.181.814.018,1,0h1c.187-.018.972.182,1,0S1156.859,496.073,1156.672,496.091Z" transform="translate(-1155.108 -496.401)" fill="#fff"/></g><g transform="translate(77.513 2.817)"><path d="M1171.893,495h-1c-.189.018-.971-.183-1,0s-.188,1.018,0,1h2a2.927,2.927,0,0,0,1-1C1172.922,494.82,1172.082,494.986,1171.893,495Z" transform="translate(-1170.095 -494.949)" fill="#fff"/></g><g transform="translate(81.338 2.447)"><path d="M1187.288,493.9h-2c-.192.018.029-.184,0,0s-.191.018,0,0h2c.193-.018-.029.184,0,0S1187.481,493.881,1187.288,493.9Z" transform="translate(-1185.314 -493.474)" fill="#fff"/></g><g transform="translate(85.221 2.07)"><path d="M1202.861,491.779h-2c-.195.019.03.814,0,1s-.194.019,0,0h2c.2-.019-.03.186,0,0S1203.056,491.76,1202.861,491.779Z" transform="translate(-1200.77 -491.977)" fill="#fff"/></g><g transform="translate(42.833 13.264)"><path d="M1032.555,538.131l2-1a1.483,1.483,0,0,0,0-1,1.441,1.441,0,0,0-1,0l-1,2a1.5,1.5,0,0,0,0,1l1,1c.05.055-.075.006,0,0s-.066.064,0,0c.131-.127.1.11,0,0Z" transform="translate(-1032.076 -536.523)" fill="#fff"/></g><g transform="translate(44.386 13.137)"><path d="M1039.182,537.754l1-1a1.472,1.472,0,0,0,0-1c-.1-.11.133-.129,0,0l-2,2a1.486,1.486,0,0,0,0,1l1,1a5.526,5.526,0,0,0,1,0c.076-.006-.066.064,0,0,.132-.128.1.111,0,0Z" transform="translate(-1038.256 -536.02)" fill="#fff"/></g><g transform="translate(8.31 25.331)"><path d="M895.683,588.09l2-3c.1-.106,1.08.1,1,0a1.683,1.683,0,0,0-1,0l-3,3c-.1.1-.079-.1,0,0l2,3a6.676,6.676,0,0,0,1,0c.06,0-.051.052,0,0,.1-.1.08.1,0,0Z" transform="translate(-894.681 -584.55)" fill="#fff"/></g><g transform="translate(11.062 25.167)"><path d="M905.884,587.6l3-3a1.825,1.825,0,0,0,0-1c-.081-.1.1-.107,0,0l-3,4c-.1.105-.08-.1,0,0l2,3c.04.048-.061,0,0,0s-.052.052,0,0c.1-.105,1.081-.9,1-1Z" transform="translate(-905.634 -583.896)" fill="#fff"/></g><g transform="translate(23.012 24.6)"><path d="M954.493,581.91c-.042-.049.064,0,0,0s.055-.055,0,0c-.11.11-.084-.1,0,0l2,3-3,3c-.109.107-.084-.1,0,0s-.109.107,0,0l3-3c.111-.109.085.1,0,0Z" transform="translate(-953.193 -581.637)" fill="#fff"/></g><g transform="translate(20.107 24.771)"><path d="M942.837,582.421c-.041-.049.063,0,0,0s.054-.055,0,0c-.108.109-.084-.1,0,0l2,3-3,3c-.107.107-.083-.1,0,0s-.108.106,0,0l3-3c.109-.109,1.084.1,1,0Z" transform="translate(-941.632 -582.32)" fill="#fff"/></g><g transform="translate(50.093 9.85)"><path d="M1098.188,522.96l-37,3c-.168.013.023-.171,0,0s-.168,1.013,0,1l37-3c.2-.016-.03-.816,0-1S1098.384,522.944,1098.188,522.96Z" transform="translate(-1060.969 -522.938)" fill="#fff"/></g><g transform="translate(49.873 12.748)"><path d="M1082.531,534.594l-22,2c-.168.013.024-.171,0,0s-.167.013,0,0l21-1a2.983,2.983,0,0,0,1-1C1082.559,534.415,1082.714,534.58,1082.531,534.594Z" transform="translate(-1060.092 -534.47)" fill="#fff"/></g><g transform="translate(49.563 15.097)"><path d="M1080.609,543.594l-21,2c-.167.012-.976-.169-1,0s.833.012,1,0l21-1c.183-.013-.027.178,0,0S1080.792,543.58,1080.609,543.594Z" transform="translate(-1058.86 -543.818)" fill="#fff"/></g><g transform="translate(25.858 31.794)"><path d="M969.974,610.348h-5c-.138.006.019-.146,0,0s-.138,1.006,0,1l5-1c.141-.005-.019.149,0,0S970.115,610.342,969.974,610.348Z" transform="translate(-964.521 -610.27)" fill="#fff"/></g></g></g><path d="M792.494,242.366v5l-5,81c-.1,1.863-1.1,3.989-3,4h-120a2.562,2.562,0,0,1-2-1c-.3-.367-.082-.834,0-2l5-74a9.048,9.048,0,0,1,0-1c.333-1.262,1.8-1.865,3-2l118-13c1.375-.158,2.582-.367,3,0A4.406,4.406,0,0,1,792.494,242.366Z" transform="translate(-584.84 -238.997)" fill="#8fafff" opacity="0.89"/><g transform="translate(81.198)"><path d="M921.308,293.64l-1,30-65,5,2-28Z" transform="translate(-810.853 -280.272)" fill="#518bf1"/><path d="M1065.154,435.382v9l-15,1,1-9Z" transform="translate(-956.698 -386.013)" fill="#518bf1"/><path d="M896.183,440.331l-1,9-43,3,1-9Z" transform="translate(-808.727 -389.963)" fill="#518bf1"/><path d="M725.254,321.082l-1,12-34,3v-11Z" transform="translate(-686.799 -300.713)" fill="#518bf1"/><path d="M786.427,494.871l-1,13-107,3v-11Z" transform="translate(-677.972 -430.503)" fill="#518bf1"/><path d="M718.5,381.13l-2,28-34,2,1-27Z" transform="translate(-681.04 -345.761)" fill="#518bf1"/><path d="M808.349,242.366v5l-125,12v-5c.333-1.262,1.8-1.865,3-2l118-13c1.375-.158,2.582-.367,3,0A4.406,4.406,0,0,1,808.349,242.366Z" transform="translate(-681.893 -238.997)" fill="#5c5e67"/><path d="M1131.633,281.683c1.409-.141,2.067,1.564,2,3l-3,67a3.443,3.443,0,0,1-3,3c-1.4.011-2.066-1.577-2-3l3-67A3.581,3.581,0,0,1,1131.633,281.683Z" transform="translate(-1013.178 -271.314)" fill="#fff"/><path d="M1138.894,319.467h1a.874.874,0,0,1,1,1l-1,24c-.03.639-1.371.965-2,1h0a.886.886,0,0,1-1-1l1-24A.955.955,0,0,1,1138.894,319.467Z" transform="translate(-1021.439 -299.098)" fill="#5c5e67"/><g transform="translate(83.603 17.881)"><path d="M1011.543,312.648l23-2c.293-.027.013-.3,0,0s.293.973,0,1l-23,2c-.276.025-1.013-.707-1-1S1011.267,312.673,1011.543,312.648Z" transform="translate(-1010.691 -310.161)" fill="#fff"/></g><g transform="translate(75.458 20.3)"><path d="M979.272,319.854h5c.274-.025.014-.292,0,0s.274.975,0,1h-6c-.27.024-.013.29,0,0S979,319.879,979.272,319.854Z" transform="translate(-978.275 -319.786)" fill="#fff"/></g><g transform="translate(49.313 21.315)"><path d="M874.368,325.878l22-2c.264-.025.014-.289,0,0s.264.975,0,1l-22,2c-.252.024-.014.282,0,0S874.116,325.9,874.368,325.878Z" transform="translate(-874.226 -323.824)" fill="#fff"/></g><g transform="translate(77.394 21.437)"><path d="M986.041,327.241l30-3c.285-.026.013.7,0,1s.286-.026,0,0l-30,3c-.268.024-.015-.709,0-1S985.771,327.266,986.041,327.241Z" transform="translate(-985.979 -324.31)" fill="#fff"/></g><g transform="translate(58.808 23.821)"><path d="M912.66,335.347l15-2c.267-.025.015.71,0,1s.266.976,0,1l-15,1c-.257.024-1.015-.715-1-1S912.4,335.371,912.66,335.347Z" transform="translate(-912.013 -333.8)" fill="#fff"/></g><g transform="translate(48.738 25.448)"><path d="M872.653,341.193l7-1c.256-.023,1.014.715,1,1s-.743-.023-1,0l-7,1c-.252.023-1.014-.718-1-1S872.4,341.217,872.653,341.193Z" transform="translate(-871.935 -340.273)" fill="#ffde91"/></g><g transform="translate(68.781 26.022)"><path d="M952.378,345.9l36-3c.285-.025.014-.3,0,0s.285.975,0,1l-36,3c-.263.023-1.014-.71-1-1S952.115,345.926,952.378,345.9Z" transform="translate(-951.704 -342.557)" fill="#fff"/></g><g transform="translate(52.159 29.581)"><path d="M885.846,357.508l12-1c.262-.023.014.712,0,1s.26-.022,0,0l-12,1c-.254.022-.015.284,0,0S885.592,357.53,885.846,357.508Z" transform="translate(-885.549 -356.72)" fill="#fff"/></g><g transform="translate(48.303 31.875)"><path d="M870.359,368.344l34-2c.273-.023.014-.294,0,0s.271.978,0,1l-34,2c-.251.02-.015.282,0,0S870.107,368.365,870.359,368.344Z" transform="translate(-870.207 -365.851)" fill="#fff"/></g><g transform="translate(66.858 35.276)"><path d="M944.645,382.478l39-3c.286-.022,1.014-.3,1,0a1.775,1.775,0,0,1-1,1l-39,3c-.263.02-1.014-.71-1-1S944.382,382.5,944.645,382.478Z" transform="translate(-944.047 -379.385)" fill="#fff"/></g><g transform="translate(49.115 39.242)"><path d="M873.776,397.3l35-2c.273-.02.014-.3,0,0s.273.98,0,1l-35,2c-.252.018-.014.284,0,0S873.524,397.316,873.776,397.3Z" transform="translate(-873.435 -395.171)" fill="#fff"/></g><g transform="translate(77.53 40.952)"><path d="M987.447,403.393l20-1c.281-.02.014-.3,0,0s.282.98,0,1l-20,1c-.27.019-1.014.293-1,0A1.853,1.853,0,0,1,987.447,403.393Z" transform="translate(-986.521 -401.977)" fill="#fff"/></g><g transform="translate(92.933 29.858)"><path d="M1048.343,359.336l13-2c.286-.023,1.014.7,1,1a1.782,1.782,0,0,1-1,1l-13,1c-.278.023-1.013-.7-1-1S1048.065,359.359,1048.343,359.336Z" transform="translate(-1047.821 -357.826)" fill="#fff"/></g><g transform="translate(96.125 51.661)"><path d="M1060.853,445.3l9-1c.287-.017,1.014.7,1,1s-.713-.017-1,0l-9,1c-.281.016-.014-.7,0-1S1060.573,445.319,1060.853,445.3Z" transform="translate(-1060.522 -444.595)" fill="#fff"/></g><g transform="translate(96.225 54.506)"><path d="M1061.154,456.78l10-1c.287-.016.014.7,0,1s-.713-.016-1,0l-9,1c-.281.015-.014-.7,0-1S1060.873,456.8,1061.154,456.78Z" transform="translate(-1060.923 -455.918)" fill="#fff"/></g><g transform="translate(80.804 52.362)"><path d="M1000.2,447.39h4c.275-.016.014.7,0,1s-.726-.016-1,0h-3c-.272.016-1.014.294-1,0A1.834,1.834,0,0,1,1000.2,447.39Z" transform="translate(-999.55 -447.384)" fill="#fff"/></g><g transform="translate(74.208 52.759)"><path d="M973.546,449.575l4-1c.27-.016.014.706,0,1s.27-.016,0,0l-4,1c-.267.015-.014-.708,0-1S973.279,449.591,973.546,449.575Z" transform="translate(-973.298 -448.966)" fill="#fff"/></g><g transform="translate(67.708 53.151)"><path d="M948.18,450.741h3c.266-.016,1.014-.292,1,0a1.856,1.856,0,0,1-1,1h-3c-.264.016-1.014.29-1,0A1.864,1.864,0,0,1,948.18,450.741Z" transform="translate(-947.433 -450.524)" fill="#fff"/></g><g transform="translate(61.301 53.537)"><path d="M922.087,451.891h4c.262-.016.014.71,0,1s.263-.016,0,0h-4c-.26.015-.015.288,0,0S921.827,451.907,922.087,451.891Z" transform="translate(-921.932 -452.06)" fill="#fff"/></g><g transform="translate(54.985 53.917)"><path d="M897.269,454.025h3c.259-.016,1.014-.288,1,0a1.893,1.893,0,0,1-1,1h-3c-.257.015-.014-.714,0-1S897.012,454.04,897.269,454.025Z" transform="translate(-896.798 -453.574)" fill="#fff"/></g><g transform="translate(48.76 54.292)"><path d="M872.719,455.142h3c.255-.015,1.015-.286,1,0a1.911,1.911,0,0,1-1,1h-3c-.253.015-1.015.284-1,0A1.921,1.921,0,0,1,872.719,455.142Z" transform="translate(-872.024 -455.066)" fill="#ffde91"/></g><g transform="translate(81.952 55.453)"><path d="M1004.622,459.6h2c.274-.015,1.014.7,1,1s-.726-.015-1,0h-2c-.272.015-1.014.3-1,0A1.825,1.825,0,0,1,1004.622,459.6Z" transform="translate(-1004.118 -459.686)" fill="#ff5b7c"/></g><g transform="translate(76.501 55.762)"><path d="M983.38,461.522l2-1c.271-.015.014.705,0,1s.271-.015,0,0l-2,1c-.269.015-1.014-.707-1-1S983.111,461.537,983.38,461.522Z" transform="translate(-982.425 -460.915)" fill="#fff"/></g><g transform="translate(71.115 56.067)"><path d="M961.33,462.431h2c.267-.015,1.014-.292,1,0a1.845,1.845,0,0,1-1,1h-2c-.266.015-.014-.708,0-1S961.064,462.446,961.33,462.431Z" transform="translate(-960.989 -462.13)" fill="#fff"/></g><g transform="translate(65.791 56.369)"><path d="M940.468,463.33h2c.264-.015,1.014.709,1,1s-.736-.015-1,0h-2c-.262.014-1.013.29-1,0A1.871,1.871,0,0,1,940.468,463.33Z" transform="translate(-939.804 -463.33)" fill="#fff"/></g><g transform="translate(60.533 56.667)"><path d="M919.8,464.218h2c.261-.015.014.711,0,1s.261-.014,0,0h-2c-.259.014-1.014.288-1,0A1.884,1.884,0,0,1,919.8,464.218Z" transform="translate(-918.876 -464.516)" fill="#ffde91"/></g><g transform="translate(55.335 56.961)"><path d="M898.311,466.1h3c.258-.015.015-.287,0,0s.258.986,0,1h-3c-.257.014-.014-.714,0-1S898.054,466.11,898.311,466.1Z" transform="translate(-898.19 -465.688)" fill="#fff"/></g><g transform="translate(50.198 57.252)"><path d="M878,466.962h2c.255-.014,1.015-.286,1,0a1.907,1.907,0,0,1-1,1h-2c-.254.014-.014.285,0,0S877.751,466.977,878,466.962Z" transform="translate(-877.747 -466.846)" fill="#fff"/></g><g transform="translate(101.996 67.279)"><path d="M1086.348,509.839l-2-2a.9.9,0,0,1,0-1,.858.858,0,0,1,1,0l2,3a.9.9,0,0,1,0,1l-3,2c-.107.111.132,1,0,1s.1.1,0,0a.9.9,0,0,1,0-1Z" transform="translate(-1083.888 -506.75)" fill="#fff"/></g><g transform="translate(99.283 67.394)"><path d="M1075.265,510.183l-2-2a.906.906,0,0,1,0-1,.86.86,0,0,1,1,0l2,3a.9.9,0,0,1,0,1l-2,3c-.105.11-.869,0-1,0s.1.1,0,0a.908.908,0,0,1,0-1Z" transform="translate(-1073.093 -507.208)" fill="#fff"/></g><g transform="translate(30.837 24.511)"><path d="M803.314,339.4l-2-2a1.042,1.042,0,0,1,0-1c.181-.213-.161-.18,0,0l3,3c.077.086.007-.133,0,0s-.913-.1-1,0l-2,3c-.091.106.112-.01,0,0a3.342,3.342,0,0,1-1,0c-.16-.18.82-.789,1-1Z" transform="translate(-800.696 -336.547)" fill="#fff"/></g><g transform="translate(15.641 38.72)"><path d="M741.032,394.74l18-2c.246-.019.015.72,0,1s.246-.019,0,0l-18,2c-.236.019-1.015-.726-1-1S740.8,394.759,741.032,394.74Z" transform="translate(-740.217 -393.091)" fill="#fff"/></g><g transform="translate(24.147 46.287)"><path d="M774.378,423.289h7c.242-.017,1.014-.278,1,0a1.992,1.992,0,0,1-1,1h-7c-.238.016-.014.276,0,0S774.14,423.306,774.378,423.289Z" transform="translate(-774.07 -423.208)" fill="#fff"/></g><g transform="translate(23.934 50.322)"><path d="M773.743,439.313h7c.242-.016.015-.279,0,0s.242.985,0,1h-7c-.238.016-1.015.276-1,0A2.007,2.007,0,0,1,773.743,439.313Z" transform="translate(-773.221 -439.268)" fill="#fff"/></g><g transform="translate(23.72 54.362)"><path d="M773.105,455.35h7c.242-.015.014-.278,0,0s.243.985,0,1h-7c-.238.014-1.015.276-1,0A2.008,2.008,0,0,1,773.105,455.35Z" transform="translate(-772.37 -455.343)" fill="#fff"/></g><g transform="translate(23.505 58.404)"><path d="M772.467,471.393h7c.244-.014.015.72,0,1s.243-.014,0,0h-8c-.238.013-.015.276,0,0A2,2,0,0,1,772.467,471.393Z" transform="translate(-771.517 -471.428)" fill="#fff"/></g><g transform="translate(9.237 45.397)"><path d="M714.95,419.636h5c.233-.017.014-.273,0,0s.233.984,0,1h-5c-.231.017-.015.271,0,0S714.721,419.652,714.95,419.636Z" transform="translate(-714.731 -419.664)" fill="#fff"/></g><g transform="translate(9.114 47.645)"><path d="M714.583,429.336l5-1c.233-.017.014.728,0,1s.233-.016,0,0l-5,1c-.229.016-.014-.729,0-1S714.354,429.353,714.583,429.336Z" transform="translate(-714.242 -428.613)" fill="#fff"/></g><g transform="translate(8.991 49.893)"><path d="M714.217,438.034h5c.233-.016.015-.272,0,0s.233.985,0,1h-5c-.23.015-.015-.729,0-1S713.988,438.05,714.217,438.034Z" transform="translate(-713.753 -437.559)" fill="#fff"/></g><g transform="translate(8.868 52.143)"><path d="M713.852,446.74h5c.232-.015.015-.273,0,0a2.042,2.042,0,0,1-1,1h-4c-.23.015-1.015.271-1,0A2.064,2.064,0,0,1,713.852,446.74Z" transform="translate(-713.265 -446.515)" fill="#fff"/></g><g transform="translate(8.745 54.393)"><path d="M713.486,455.443h4c.233-.014,1.015-.273,1,0a2.04,2.04,0,0,1-1,1h-4c-.23.014-1.015.271-1,0A2.062,2.062,0,0,1,713.486,455.443Z" transform="translate(-712.776 -455.468)" fill="#fff"/></g><g transform="translate(8.623 56.645)"><path d="M713.12,465.153l4-1c.233-.014,1.015.727,1,1s-.767-.014-1,0l-4,1c-.23.014-1.015-.729-1-1S712.89,465.167,713.12,465.153Z" transform="translate(-712.287 -464.429)" fill="#fff"/></g><g transform="translate(8.5 58.898)"><path d="M711.754,473.865h5c.233-.013,1.015-.273,1,0a2.04,2.04,0,0,1-1,1h-5c-.23.013-.015-.729,0-1S711.524,473.878,711.754,473.865Z" transform="translate(-711.798 -473.395)" fill="#fff"/></g><g transform="translate(8.377 61.151)"><path d="M711.387,482.58h5c.233-.012.015-.273,0,0s.232.988,0,1h-5c-.23.012-.015.271,0,0S711.157,482.593,711.387,482.58Z" transform="translate(-711.309 -482.363)" fill="#fff"/></g><g transform="translate(47.992 67.677)"><path d="M869.432,510.027l45-2c.28-.012.014.7,0,1s.28-.012,0,0l-45,2c-.253.011-.015.285,0,0S869.179,510.038,869.432,510.027Z" transform="translate(-868.969 -508.336)" fill="#fff"/></g><g transform="translate(68.594 70.483)"><path d="M951.818,520.386l24-1c.28-.011.014.7,0,1s.28-.011,0,0l-24,1c-.266.01-1.015.292-1,0A1.843,1.843,0,0,1,951.818,520.386Z" transform="translate(-950.956 -519.501)" fill="#fff"/></g><g transform="translate(68.406 74.434)"><path d="M950.26,536.159l25-1c.28-.01.014.7,0,1s.28-.01,0,0l-25,1c-.265.009-.015-.708,0-1S949.995,536.168,950.26,536.159Z" transform="translate(-950.211 -535.225)" fill="#fff"/></g><g transform="translate(103.918 2.712)"><g transform="translate(11.324)"><path d="M1137.244,251.352l3,3c.1.117.113-.138,0,0s.1.116,0,0l-3-3c-.1-.115-.111.138,0,0S1137.144,251.237,1137.244,251.352Z" transform="translate(-1137.031 -250.695)" fill="#fff"/><path d="M1139.82,249.446c.113-.139-.1-.115,0,0a1.6,1.6,0,0,1,0,1l-3,3c-.112.137.1.115,0,0s-.111.138,0,0Z" transform="translate(-1136.608 -249.789)" fill="#fff"/></g><g transform="translate(5.599 0.469)"><path d="M1113.76,253.842a1.88,1.88,0,0,0,2,2,2.072,2.072,0,0,0,2-2,1.87,1.87,0,0,0-2-2A2.083,2.083,0,0,0,1113.76,253.842Zm0,0a2.552,2.552,0,0,1,2-2c.8-.089,1.042,1.055,1,2s-.2,1.915-1,2A2.264,2.264,0,0,1,1113.76,253.842Z" transform="translate(-1113.822 -251.654)" fill="#fff"/></g><g transform="translate(0 4.498)"><path d="M1092.077,267.848h3c.12-.013.006-.14,0,0s.12-.013,0,0l-3,1a3.44,3.44,0,0,1-1-1C1091.083,267.709,1091.958,267.86,1092.077,267.848Z" transform="translate(-1091.54 -267.689)" fill="#fff"/></g></g></g><g transform="translate(80.88 101.368)"><g transform="translate(22.055 2.165)"><path d="M764.2,650.867l12,43h1l-12-43Z" transform="translate(-764.48 -651.032)" fill="#42434a"/><path d="M818.8,650.867l11,43h1l-11-43Z" transform="translate(-805.079 -651.032)" fill="#42434a"/><path d="M772.708,674.154l1,1h13v-1Z" transform="translate(-770.989 -668.318)" fill="#42434a"/><path d="M780.423,702.761l1,1h13v-1Z" transform="translate(-776.704 -689.926)" fill="#42434a"/><path d="M788.137,731.369v1h14v-1Z" transform="translate(-782.419 -711.534)" fill="#42434a"/><path d="M795.852,760.976v1h14v-1Z" transform="translate(-788.134 -733.141)" fill="#42434a"/><path d="M803.567,789.583v1h14v-1Z" transform="translate(-793.848 -754.748)" fill="#42434a"/></g><g transform="translate(0 2.165)"><path d="M676.48,693.867h1l12-43h-1Z" transform="translate(-676.706 -651.032)" fill="#505159"/><path d="M731.079,693.867h1l11-43h-1Z" transform="translate(-717.305 -651.032)" fill="#505159"/><path d="M687.036,792.053h13v-1h-13Z" transform="translate(-684.262 -756.217)" fill="#505159"/><path d="M694.751,763.446h13v-1h-13Z" transform="translate(-689.978 -734.611)" fill="#505159"/><path d="M702.465,734.838h13v-1h-13Z" transform="translate(-695.692 -713.003)" fill="#505159"/><path d="M710.181,706.231h13v-1h-13Z" transform="translate(-701.407 -691.396)" fill="#505159"/><path d="M716.9,676.623h14v-1h-13Z" transform="translate(-707.122 -669.788)" fill="#505159"/></g><rect width="13" height="2" transform="translate(26.773 0)" fill="#42434a"/><rect width="19" height="2" transform="translate(7.773 0)" fill="#505159"/></g><g transform="translate(163.398 65.698)"><path d="M1065.84,523.285c-.134-.11.1.14,0,0-.538-.728.564-1.688,1-2a2.521,2.521,0,0,0,1-3c-.391-1.159-1.052-1.7-1-3,.078-1.939,2.086-2.018,2-4-.038-.871-1.623-1.346-2-2-.235-.409.1-.539,0-1-.345-1.662-2.4-2.821-4-3-1.022-.114-2.018.551-3,0a1.639,1.639,0,0,0-2,0c-.471.425-.683.49-1,1-.3.486-.457.817-1,1a7.767,7.767,0,0,0-2,1,3.149,3.149,0,0,0-1,1c-.442.711-.978,1.164-1,2-.021.793.106,2.206,0,3-.163,1.215-1.418,1-2,2-2.385,4.085-.675,8.875,2,12a13.867,13.867,0,0,0,8,4c3.45.472,7.755.179,8-4A6.86,6.86,0,0,0,1065.84,523.285Z" transform="translate(-1037.584 -503.614)" fill="#42434a"/><path d="M1062.152,634.2c-.242,1.733,4,44,4,44a1.741,1.741,0,0,0,2,0s.674-9.709,2-19a136.11,136.11,0,0,0,1-16,50.794,50.794,0,0,0,0-8A28.932,28.932,0,0,1,1062.152,634.2Z" transform="translate(-1047.896 -600.534)" fill="#42434a"/><path d="M1068.574,804.21a11,11,0,0,1-2,0c-.01-.135.087.192,0,0a9.621,9.621,0,0,0-1,0c.089.461.465,2.653,0,3-.567.423-1.83,0-2,0a1,1,0,0,0-1,1c0,.318.765,0,1,0h4c.442,0,.631.43,1,0a1.6,1.6,0,0,0,0-1C1068.473,806.912,1068.609,804.916,1068.574,804.21Z" transform="translate(-1048.318 -727.539)" fill="#ffbc5a"/><g transform="translate(0.015)"><path d="M1014.071,505.8c-.166,0-.963-.16-1,0,.028.411-.237.791,0,1,.075-.334-.185-.708,0-1C1013.172,505.636,1014.286,505.8,1014.071,505.8Z" transform="translate(-1010.829 -504.126)" fill="#ff8eaa"/><path d="M1006.4,501.128c-.092-.16.1-.882,0-1-.17-.2-.863-.013-1,0-.182.016,0,1,0,1-.236-.016.056.014,0,0-.229-.059-.331.374,0,1,.02.038.807,1.475,1,2,.415-.08,1-.982,1-1-.049-.31.11-.684,0-1C1007.277,501.754,1006.431,501.185,1006.4,501.128Z" transform="translate(-1005.161 -500.458)" fill="#ff8eaa"/><path d="M1040.251,552.19c-1.8-.666-8.1-1.161-11-2-3.553-1.029-2.975,1.341-2,2,2.568,1.734,9.963,6.238,11,5C1038.7,556.653,1040.577,552.311,1040.251,552.19Z" transform="translate(-1021.009 -537.52)" fill="#ff8eaa"/><path d="M1053.143,553.653c-1.268-.47-5.162-1.208-8-2a20.738,20.738,0,0,0-1,3c-.109.386-.925,1.609-1,2,3.171,1.473,7.308,2.826,8,2C1051.593,558.116,1053.469,553.775,1053.143,553.653Z" transform="translate(-1033.902 -538.983)" fill="#ffbc5a"/><path d="M1015.787,522.345c-.811-1.907-5.471-8.878-6-11-.639.313-.555.917-1,1,.94,3.472,3.563,11.969,5,12a2.093,2.093,0,0,0,2-2C1015.776,522.2,1015.832,522.449,1015.787,522.345Z" transform="translate(-1007.546 -508.675)" fill="#ff8eaa"/></g><path d="M1090.415,634.2c-1.08.473-8.744,2.213-12,2,0,0,1.091,4.287,2,9,.792,4.11,1.491,8.435,2,12a161.469,161.469,0,0,0,5,21,2.14,2.14,0,0,0,2,0s-.365-17.324,0-20C1089.847,655.027,1090.546,635.145,1090.415,634.2Z" transform="translate(-1060.158 -600.534)" fill="#505159"/><path d="M1059.434,628.132s-1.5,5.568-1,6c1.126.978,5.785-.6,9-1s8.845.656,9,0a27.364,27.364,0,0,0,0-6Z" transform="translate(-1045.177 -595.462)" fill="#ffbc5a"/><path d="M1084.68,539.032a8.477,8.477,0,0,1-3,1c.005.186.434,2.943,0,4,.187.984,3.249.666,4-1A10.631,10.631,0,0,1,1084.68,539.032Z" transform="translate(-1062.423 -529.362)" fill="#ff8eaa"/><path d="M1080.863,524.12c-1.032-.684-2.186-.879-3,0-.292.315-2.466,3.509-1,5,.62.63,3.452-.172,4-1,0,0-.007-.989,0-1C1081.59,526.022,1081.971,524.854,1080.863,524.12Z" transform="translate(-1058.606 -517.449)" fill="#ff8eaa"/><path d="M1074.023,558.66c-.754-2.075-1.911-2.5-4-3a9.76,9.76,0,0,1-2-1,13.265,13.265,0,0,1-3,1,5.233,5.233,0,0,1-1,0s-2.565.748-3,1c-1.686.978-1.9,2.63-2,4-.984,13.657-1.428,15.245-1,16,1.049,1.852,18.323.289,18-2C1074.946,567.038,1074.255,559.3,1074.023,558.66Z" transform="translate(-1044.766 -540.99)" fill="#ffde91"/><path d="M1094.244,535.363a3.541,3.541,0,0,0-1,0c-.066.461.007,1.617,0,2,.33.036.881-.7,1-1C1094.37,536.044,1094.562,535.489,1094.244,535.363Z" transform="translate(-1070.987 -526.692)" fill="#ff8eaa"/><g transform="translate(0 12.716)"><path d="M1016.528,553.719c-.059-.181.231-.111,0,0-.155.059-.1.873,0,1,.342.23-.289-.262,0,0C1016.31,554.454,1016.656,554.038,1016.528,553.719Z" transform="translate(-1013.271 -552.764)" fill="#fe5d89"/><path d="M1009.359,553.019a11.253,11.253,0,0,0-1-1c-.4-.275-1.932-.964-2-1a4.81,4.81,0,0,0-1,0c-.111-.016.1-.1,0,0-.13.13,0,1,0,1-.2.132.055-.021,0,0-.227.088.235.616,1,1a20.712,20.712,0,0,0,2,2A15.787,15.787,0,0,0,1009.359,553.019Z" transform="translate(-1005.103 -551.065)" fill="#ff8eaa"/><path d="M1067.738,557.158c0-.7-.673-5.119-1-5-1.8.654-7.248,4.767-10,6-3.375,1.512-1.17,3.128,0,3C1059.819,560.821,1067.748,558.773,1067.738,557.158Z" transform="translate(-1042.482 -552.204)" fill="#ff8eaa"/><path d="M1080,552.166c-1.352,0-4.323,2.769-7,4a10.194,10.194,0,0,0,2,5c3.371-.927,6.275-2.2,7-3C1083.867,556.116,1081.752,552.168,1080,552.166Z" transform="translate(-1055.746 -552.212)" fill="#ffbc5a"/><path d="M1029,563.689c-.1-.106.1.052,0,0-1.842-.95-9.238-3.7-11-5-.292.649-.71.652-1,1,2.941,2.072,10.875,6.894,12,6C1030.033,564.87,1029.456,564.156,1029,563.689Z" transform="translate(-1013.745 -556.735)" fill="#ff8eaa"/></g><path d="M1106.771,803.764a2.739,2.739,0,0,1-1,0c-.018-.134.1.186,0,0-.233-.046-.762-.989-1-1,.116.455.444,3.627,0,4-.542.455-1.831-.01-2,0a1.021,1.021,0,0,0-1,1c.019.317.766.014,1,0,1.037-.061,3.279.042,4,0,.441-.026.656.451,1,0a1.566,1.566,0,0,0,0-1A19.413,19.413,0,0,1,1106.771,803.764Z" transform="translate(-1077.515 -727.093)" fill="#ffde91"/></g><g transform="translate(96.243 20.008)"><path d="M783.27,630.88l2-1s-.246.709,0,1c.473.561,3,.2,3,1,0,.4-1.31.973-2,1s-.593.133-1,0a7.649,7.649,0,0,1-2-1,1.224,1.224,0,0,1,0-1Z" transform="translate(-771.86 -551.519)" fill="#42434a"/><path d="M785.362,629.745a.911.911,0,0,0,0,1h0a8,8,0,0,1-2,0,4.045,4.045,0,0,1,0-1Z" transform="translate(-771.952 -551.385)" fill="#fd5b88"/><path d="M776.573,447.175a179.431,179.431,0,0,1,0,26,167.5,167.5,0,0,1-3,20c-.019.074-1.313.757-2,0a84.526,84.526,0,0,0,0-20c-1.188-8.326-3.341-15.481-4-16v-9A27.8,27.8,0,0,0,776.573,447.175Z" transform="translate(-760.163 -414.815)" fill="#acb7d0"/><g transform="translate(15.218 6.611)"><path d="M892.031,348.144c.043-.192-.25-.091,0,0,.166.045.094.859,0,1-.33.272-.728-.3-1,0C891.23,348.85,891.93,348.487,892.031,348.144Z" transform="translate(-867.838 -347.395)" fill="#ff8eaa"/><path d="M890.4,347.684a11.2,11.2,0,0,1,1-1c.387-.324.934-.956,1-1,.2-.117.823-.957,1-1a2.827,2.827,0,0,1,1,0c.146.121,0,1,0,1,.218.117-.059-.017,0,0,.243.068-.248.527-1,1-.045.028-1.442,1.554-2,2C891.1,348.364,890.385,347.7,890.4,347.684Z" transform="translate(-867.206 -344.935)" fill="#ff8eaa"/><path d="M845.117,360.5c.1-.119-.1-.936,0-1,1.808-1.166,9.309-3.485,11-5,.367.641.666.67,1,1-2.831,2.436-10.747,7.812-12,7C843.97,361.758,844.7,361.028,845.117,360.5Z" transform="translate(-832.924 -351.752)" fill="#fd5b88"/><path d="M800.943,366.5c1.989.058,7.886,1.681,11,2,3.819.391,2.195,2.745,1,3-3.146.671-12.483.595-13-1C799.719,369.809,800.582,366.491,800.943,366.5Z" transform="translate(-799.75 -360.752)" fill="#fd5b88"/><path d="M798.6,355.5c.108-.135.838,0,1,0a34.179,34.179,0,0,1,5,1c2.2.513,6.767.95,7,1,.82-.434,9.02-4.122,10-5l1,2c-2.493,2.144-8.531,6.517-11,7-2.57.541-12.3,2.169-13,0C798.368,360.777,798.13,356.094,798.6,355.5Z" transform="translate(-798.41 -350.753)" fill="#42434a"/></g><path d="M740.362,629.505h2c.428.6,3.063,1.207,3,2-.031.4-1.31,1.027-2,1s-.649.246-1,0c-.437-.306-1.873-.742-2-1a1.381,1.381,0,0,1,0-1A7.8,7.8,0,0,1,740.362,629.505Z" transform="translate(-739.952 -551.145)" fill="#42434a"/><path d="M742.632,629.326h0s.553.75,0,1a9.322,9.322,0,0,1-2,0,7.759,7.759,0,0,1,0-1Z" transform="translate(-740.221 -550.966)" fill="#ff8eaa"/><path d="M740.154,447.823c3.353.486,12.843,2.4,14,2,.059.977-5.06,13.032-7,25a108.839,108.839,0,0,1-5,19c-.024.073-1.375.808-2,0,0,0,3.165-10.326,2-20C741.3,466.766,739.67,462.019,740.154,447.823Z" transform="translate(-739.744 -415.462)" fill="#c7cfe4"/><path d="M794.823,345.452a8.435,8.435,0,0,0,0,3c-.322.988-3.445.814-4-1a11.123,11.123,0,0,0,1-4C792.034,343.653,794.119,345.468,794.823,345.452Z" transform="translate(-777.412 -337.091)" fill="#ff8eaa"/><path d="M799.043,331.4a1.936,1.936,0,0,1,2,2c.046.443.146,3.677-2,4-.908.136-3.061-.971-3-2,0,0,0-1.986,0-2C796.123,332.032,797.665,331.315,799.043,331.4Z" transform="translate(-781.632 -328.036)" fill="#ff8eaa"/><path d="M748.257,359.254a15.323,15.323,0,0,1,3,0s1.012,1.8,2,2c.679.137,2-1,2-1a16.485,16.485,0,0,1,2,1c1.607,1.229,1.265,4.086,1,6-.154,1.11-3.607,11.079-3,21-1.727,1.939-7.994,3.233-14,0v-7l-2,7c-.4-.1-.683.064-1,0C738.257,369.7,741.831,360.95,748.257,359.254Z" transform="translate(-737.847 -348.894)" fill="#505159"/><path d="M770.014,385.862c.9,4.462,8,10,8,10a8.845,8.845,0,0,1-4-1c-3.573-1.647-6.247-3.967-7-7C766.437,385.535,769.725,384.423,770.014,385.862Z" transform="translate(-759.604 -368.502)" fill="#42434a"/><path d="M782.054,359.254s1.012,1.8,2,2c.679.137,2-1,2-1a19.3,19.3,0,0,1,2,1c-.4,2-3,4-3,4s-3.384-4.294-6-6a3.8,3.8,0,0,0,1,0C780.41,359.228,782.054,359.254,782.054,359.254Z" transform="translate(-768.644 -348.894)" fill="#42434a"/><path d="M790.85,318.984c2.7-2.126,7.079.274,7,3-.017.6-.439,2.585-6,1a7.553,7.553,0,0,0-1,3C789.272,324.384,788.785,320.61,790.85,318.984Z" transform="translate(-776.439 -318.624)" fill="#ffde91"/><path d="M793.93,338.756a2.756,2.756,0,0,1,1,0c-.073.478-.892.617-1,1-.339-.063.028-.665,0-1C793.9,338.4,793.576,338.786,793.93,338.756Z" transform="translate(-779.52 -333.396)" fill="#ff8eaa"/><path d="M857.475,423.574c.087.148-.834.965-1,1a5.577,5.577,0,0,0-1,0c.348-.071.689-.825,1-1C856.64,423.466,857.36,423.334,857.475,423.574Z" transform="translate(-826.064 -397.214)" fill="#ff8eaa"/><path d="M854.263,426.222c.5.038,1.922-.015,2,0,.224.056.843-.093,1,0,.1.059-.016.857,0,1h0c.074.235-1.031-.054-1,0,.126.219-.131.187-1,0-.053-.011-2.29.07-3,0,.008-.44.977-1,1-1A5.651,5.651,0,0,1,854.263,426.222Z" transform="translate(-823.852 -398.862)" fill="#ff8eaa"/><path d="M770.894,370.937c.171-.021-.112-.116,0,0a27.013,27.013,0,0,1,3,4,50.124,50.124,0,0,0,4,5c.17.2-.133.8,0,1,.889.263,2.75.582,4,1,2.729.912,5.685,1.944,7,2v3c-3.279-.206-10.889-1.617-13-3-2.211-1.4-10.012-7.957-9-10A11.711,11.711,0,0,1,770.894,370.937Z" transform="translate(-759.484 -357.577)" fill="#505159"/></g><g transform="translate(104.317 6.541)"><path d="M806.313,264.857h-32c-2.6,0-4,2.4-4,5s1.4,5,4,5h26l-1,4,5-4h2a5,5,0,0,0,0-10Z" transform="translate(-769.976 -265.03)" fill="#ffde91"/><path d="M868.736,281.157h-14c-.187,0,0,.813,0,1s-.187,0,0,0h14c.187,0,0,.187,0,0S868.923,281.157,868.736,281.157Z" transform="translate(-833.398 -277.33)" fill="#5c5e68"/><path d="M824.711,273.268h-14c-.187,0,0,.813,0,1s-.187,0,0,0h14c.187,0,0,.187,0,0S824.9,273.268,824.711,273.268Z" transform="translate(-800.374 -271.441)" fill="#5c5e68"/><path d="M881.365,273.6h-9a2.569,2.569,0,0,0-1,1c0,.187.813,0,1,0h9c.187,0,0,.187,0,0S881.552,273.6,881.365,273.6Z" transform="translate(-846.028 -271.773)" fill="#5c5e68"/><path d="M797.938,289.327h-13a2.566,2.566,0,0,0-1,1c0,.187.813,0,1,0h13c.187,0,0,.187,0,0S798.126,289.327,797.938,289.327Z" transform="translate(-780.601 -283.5)" fill="#5c5e68"/><path d="M854.593,289.66h-9c-.187,0,0,.813,0,1s-.187,0,0,0h9c.187,0,1,.187,1,0A2.568,2.568,0,0,0,854.593,289.66Z" transform="translate(-826.256 -283.833)" fill="#5c5e68"/><path d="M821.982,281.069h-9a2.57,2.57,0,0,0-1,1c0,.187.813,0,1,0h9c.187,0,0,.187,0,0S822.169,281.069,821.982,281.069Z" transform="translate(-801.645 -277.242)" fill="#5c5e68"/><path d="M788.186,281.069h-6c-.124,0,0,.813,0,1s-.124,0,0,0h6c.124,0,0,.187,0,0S788.31,281.069,788.186,281.069Z" transform="translate(-778.848 -277.242)" fill="#5c5e68"/></g><g transform="translate(146.572 39.302)"><path d="M967.223,395.475h-25a3.845,3.845,0,0,0-4,4v13a3.845,3.845,0,0,0,4,4h19l5,5v-5h1c2.339,0,5-1.661,5-4v-13C972.223,397.136,969.562,395.475,967.223,395.475Z" transform="translate(-938.141 -395.409)" fill="#ffde91"/><g transform="translate(5.821 4.657)"><path d="M961.568,426.253l7-3v1l-6,3h0l6,3v1l-7-4Z" transform="translate(-961.307 -420.843)" fill="#5c5e68"/><path d="M997.451,424.352l4-10h1l-4,10Z" transform="translate(-988.19 -413.942)" fill="#5c5e68"/><path d="M1028.738,427.172l-7,4v-1l6-3h0l-6-3v-1l7,3Z" transform="translate(-1006.477 -420.763)" fill="#5c5e68"/></g></g></g><g transform="translate(35.067 310.352)"><g transform="translate(0 12.398)"><g transform="translate(1.793)"><path d="M64.409,589.927a3.129,3.129,0,0,0-2,0c-2.013.45-3.343,1.919-5,3-.535.349-.488,1.448-1,1-.3-.265-1.119-.616-1-1a5.524,5.524,0,0,1,2-2,26.925,26.925,0,0,0,5-4c1.539-1.52,3.025-2.849,3-5a1.9,1.9,0,0,0-2-2c-.405.023-.666-.227-1,0l-4,2c-.419.285-1.117.491-1,0l2-5a5.948,5.948,0,0,0,0-3c-.121-.4-.677-.729-1-1-1.257-1.054-2.968-.152-4,1a11.655,11.655,0,0,0-3,8c.025.45.389.673,0,1s-.591.3-1,0a2.98,2.98,0,0,1-1-2,3.011,3.011,0,0,0-2-2c-.81-.328-1.4-.629-2,0a5.685,5.685,0,0,0-1,5,14.1,14.1,0,0,0,4,6c.668.673,1.637,1.128,2,2,.433,1.041.349,2.971-1,3-.367.008-.694.2-1,0-.8-.529-1.54-2.2-2-3a2.363,2.363,0,0,0-3-1c-.374.146-.8-.348-1,0a4.712,4.712,0,0,0,0,3,12.346,12.346,0,0,0,2,5,12.13,12.13,0,0,0,6,4c4.019,1.229,7.993-1.9,11-4a16.742,16.742,0,0,0,4-4C66.416,593.486,66.517,590.792,64.409,589.927Z" transform="translate(-42.202 -572.311)" fill="#004a6c"/><g transform="translate(2.883 7.469)"><g transform="translate(7.571)"><path d="M85.56,602.184c-.057-.011.011-.057,0,0-1.849,9.394-1.7,19.407-1,29,0,.056-.055,0,0,0h0c.058,0,0,.058,0,0-.7-9.575-.845-19.624,1-29C85.571,602.127,85.617,602.2,85.56,602.184Z" transform="translate(-83.807 -602.037)" fill="#00879b"/></g><g transform="translate(1.686 1.807)"><path d="M76.024,609.569a23.678,23.678,0,0,1-5,5,6.482,6.482,0,0,1-6,1,7.16,7.16,0,0,1-3-3c-.76-1.169-.549-1.806-1-3a4.462,4.462,0,0,0-1,0c-.054.021-.021-.054,0,0a22.908,22.908,0,0,0,2,4,5.584,5.584,0,0,0,3,2c.591.227,1.331,1,2,1a10.556,10.556,0,0,0,5-2c1.817-1.276,2.729-3.257,4-5,.034-.047.047.034,0,0S76.058,609.522,76.024,609.569Z" transform="translate(-60.386 -609.23)" fill="#00879b"/></g><g transform="translate(0 13.455)"><path d="M72,655.277a46.89,46.89,0,0,1-6,5h0c-2.259,1.632-4.861,2.725-7,2-2.506-.849-4.021-3.238-5-5-.028-.051.05-.029,0,0s-.028-.051,0,0c1,1.792,2.425,4.127,5,5a6.31,6.31,0,0,0,2,0,8.69,8.69,0,0,0,5-2h1c1.922-1.386,3.091-3.058,5-5,.041-.041.041.041,0,0S72.04,655.235,72,655.277Z" transform="translate(-53.676 -655.586)" fill="#00879b"/></g></g></g><g transform="translate(0 13.966)"><path d="M50.067,635.54c-.189-.157-.754,0-1,0-.791-.009-.886,1.274-1,2-.088.559.342.519,0,1a5.014,5.014,0,0,1-1,1c-.777.278-1.018-1.3-1-2,.016-.583-.233-.466,0-1a11.44,11.44,0,0,0,1-5c-.092-.961-.355-1.746-1-2a3.707,3.707,0,0,0-2,0c-.314.253-.107,1.455,0,2,.089.455.263.594,0,1-.169.26-.707.1-1,0s.085.265,0,0c-.53-1.659-2.456-3.195-4-4-.843-.44-1.513-.883-2,0a2.337,2.337,0,0,0,0,1c.047.621.665.505,1,1l1,3c.174.258.3,1.073,0,1l-3-1c-.241-.058.237-.075,0,0a1.816,1.816,0,0,0-1,2c.459,1.247,1.787,1.459,3,2a18.153,18.153,0,0,0,4,1c.406.075.732.656,1,1,.152.2.115-.219,0,0-.194.37-.617,1.085-1,1-1.185-.262-2.75-1.18-4-1-.443.064-.675.692-1,1-1.014.959.107,1.389,1,2,.941.644,1.914,1.723,3,2,2.181.557,4.974,1.587,7,0a9.445,9.445,0,0,0,3-4,6.283,6.283,0,0,0,0-3A4.226,4.226,0,0,0,50.067,635.54Z" transform="translate(-35.067 -627.89)" fill="#ffc343"/><g transform="translate(1.699 3.126)"><g transform="translate(3.764 0.684)"><path d="M57.346,642.892c-.039-.063.063-.038,0,0s-1.039-.062-1,0c3.114,5,6.292,10.328,8,16a7.482,7.482,0,0,0,0,1c.008,0-.007,0,0,0a3.646,3.646,0,0,0,0-1A65.3,65.3,0,0,0,57.346,642.892Z" transform="translate(-56.81 -643.052)" fill="#f7b63b"/></g><path d="M51.131,639.856a6.323,6.323,0,0,0-1,1,7.4,7.4,0,0,1,0,2,3.383,3.383,0,0,1-1,2,4.817,4.817,0,0,1-4,1c-1.288-.331-1.9-1.28-3-2-.062-.04.04-.062,0,0s-.062-.04,0,0c1.114.732,1.671,1.658,3,2a5.526,5.526,0,0,0,2,0,3.8,3.8,0,0,0,2-1,3.168,3.168,0,0,0,1-2c.181-.862,1.005-1.2,1-2A4.558,4.558,0,0,0,51.131,639.856Z" transform="translate(-41.83 -640.332)" fill="#ffb100"/><g transform="translate(1.737 7.102)"><path d="M59.306,669.018c-.073-.009.01-.073,0,0a6.631,6.631,0,0,1-2,4c-1.045.871-2.372.443-4,0h0a20.03,20.03,0,0,1-4-1,3.4,3.4,0,0,0-1,0,9.167,9.167,0,0,0,1,0c1.525.707,2.593,1.62,4,2h0a4.369,4.369,0,0,0,2,0,7.537,7.537,0,0,0,3-1c1.3-1.081.824-2.737,1-4C59.316,668.946,59.379,669.029,59.306,669.018Z" transform="translate(-48.742 -668.597)" fill="#f7b63b"/></g></g></g><g transform="translate(10.332 22.461)"><path d="M84.855,664.854c-.128-.057.14-.017,0,0h-2c-.175.022-.115.134,0,0l1-1c.221-.257.934-.653,1-1a4.011,4.011,0,0,0,0-1c-.219-.529-1.5-.195-2,0a3.684,3.684,0,0,0-2,2c-.065.144.172-.04,0,0s.078.158,0,0a1.682,1.682,0,0,1,0-1c.095-.3.242-.716,0-1-.2-.232-.713-.1-1,0a1.3,1.3,0,0,0-1,1,6.971,6.971,0,0,0,0,3,2.671,2.671,0,0,1,0,1c-.034.393-.579,1.206-1,1-.114-.056.062-.888,0-1-.163-.293.014-.679,0-1a1.284,1.284,0,0,0-1-1c-.139-.014.116.923,0,1-.276.181-.917-.3-1,0a4.889,4.889,0,0,0,0,2,8.634,8.634,0,0,0,2,3c1.043,1.023,2.734.176,4,0a7.623,7.623,0,0,0,2-1c.542-.288.511-.395,0-1-.164-.194-.754-.936-1-1-.694-.181-1.315.927-2,1-.221.024.086-.779,0-1-.05-.131-.1.1,0,0,.173-.177-.234.017,0,0a18.905,18.905,0,0,0,3-1c.719-.228.662-.326,1-1C85.009,665.548,85.277,665.042,84.855,664.854Z" transform="translate(-76.188 -661.699)" fill="#5ccdfc"/><g transform="translate(0.811 1.271)"><g transform="translate(0.2 0.697)"><path d="M84.866,669.717a39.982,39.982,0,0,0-5,9c-.023.055-.055-.024,0,0,.013.005-.013,0,0,0a7.8,7.8,0,0,0,1,0,40.176,40.176,0,0,1,5-9c.037-.047.047.037,0,0A3.976,3.976,0,0,0,84.866,669.717Z" transform="translate(-80.209 -669.53)" fill="#0080ef"/></g><g transform="translate(2.517)"><path d="M93.772,669.642a6.94,6.94,0,0,1-2,1,2.507,2.507,0,0,1-2-1c-.346-.392.034-.64,0-1a13.552,13.552,0,0,1,0-2c.007-.059.06.007,0,0s.007-.059,0,0a13.15,13.15,0,0,0,0,2c.037.391-.384.565,0,1a3.339,3.339,0,0,0,2,1c.164,0-.171.024,0,0a13.19,13.19,0,0,0,3-1c.053-.027.027.053,0,0A4.145,4.145,0,0,0,93.772,669.642Z" transform="translate(-89.432 -666.758)" fill="#0080ef"/></g><g transform="translate(0 3.764)"><path d="M85.271,683.858c-.889.3-1.191.876-2,1h-1c-.936.145-1.473-.45-2-1a3.073,3.073,0,0,1-1-2c0-.06.058,0,0,0s0-.06,0,0a2.889,2.889,0,0,0,1,2,3.16,3.16,0,0,0,2,1c.206,0-.215.034,0,0h1c.818-.125,1.093.3,2,0a4.4,4.4,0,0,0,0-1C85.252,683.8,85.327,683.84,85.271,683.858Z" transform="translate(-79.414 -681.738)" fill="#0080ef"/></g></g></g><g transform="translate(7.467 31.251)"><path d="M73.317,697.045h-8c-.282,0-1.062-.275-1,0l1,1c.044.2-.205,1,0,1h7c.205,0,.953-.8,1-1v-1C73.381,696.77,73.6,697.046,73.317,697.045Z" transform="translate(-64.784 -696.68)" fill="#003f78"/><g transform="translate(0.824 2.139)"><path d="M68.771,709.419c.041.293-.3,1,0,1h5c.3,0,.957-.708,1-1v-4h-7Z" transform="translate(-68.062 -705.193)" fill="#0070be"/></g></g><path d="M67.317,703.045v-4h-1c-.205,0,.045-.8,0-1v-1c-.062-.275-.282,0,0,0h-1c-.282,0-1.062-.275-1,0l1,1c.044.2-.205,1,0,1h0l1,4c.041.293-.3,1,0,1h2C68.021,704.044,67.358,703.338,67.317,703.045Z" transform="translate(-57.317 -665.43)" fill="#061233" opacity="0.33"/></g><g transform="translate(14.684 31.444)"><g transform="translate(0 13.756)"><g transform="translate(19.437)"><path d="M200.74,705.668c0,.724.533,1.491,0,2a5.322,5.322,0,0,1-2,1c-.172.031.179,0,0,0h-28v-1h0v-4h0v-1h28C200.245,702.747,200.741,704.238,200.74,705.668Z" transform="translate(-170.861 -702.854)" fill="#0069ba"/></g><g transform="translate(0.916 0.516)"><path d="M97.552,709.206a1.859,1.859,0,0,0,2-2,2.133,2.133,0,0,0-2-2h20a1.945,1.945,0,0,1,2,2,1.858,1.858,0,0,1-2,2Z" transform="translate(-97.153 -704.909)" fill="#e2eff4" fill-rule="evenodd"/></g><path d="M114.823,707.668c.475,0,.666-.681,1-1s0-.56,0-1c0-.882-.068-1.95-1-2h-21v-1h21c1.506.079,2,1.57,2,3,0,.723.533,1.491,0,2a3.153,3.153,0,0,1-2,1h-21v-1Z" transform="translate(-93.507 -702.854)" fill="#004880"/><g transform="translate(13.917 1.998)"><path d="M150.293,715.622l-1-1h0v-4h1Z" transform="translate(-148.895 -710.806)" fill="#ffcb00" fill-rule="evenodd"/></g><path d="M195.974,710.739l-1,1-1-1,1-1Z" transform="translate(-168.659 -707.925)" fill="#004880"/></g><g transform="translate(6.347 9.183)"><path d="M120.735,685.042a1.872,1.872,0,0,0-2,2,3.511,3.511,0,0,0,1,2c.448.428.369,0,1,0h24v-4Z" transform="translate(-118.767 -684.656)" fill="#ff3a00"/><g transform="translate(22.603 0.439)"><path d="M228.087,690.352h-17a2.078,2.078,0,0,1-2-2c0-.99-.02-1.947,1-2h17c-.371.055-.73-.226-1,0-.407.34,0,1.443,0,2,0,.577-.434.66,0,1a5.714,5.714,0,0,0,2,1Z" transform="translate(-208.722 -686.405)" fill="#b6d1e3" fill-rule="evenodd"/></g><g transform="translate(22.165)"><path d="M226.78,689.042h-17c-.068,0-.933.006-1,0h0c-.542-.051-.608.374-1,0a3.511,3.511,0,0,1-1-2,2.146,2.146,0,0,1,2-2c.113-.022-.118.006,0,0h0c-.794.042-1,1.249-1,2,0,.373.721.734,1,1s.6,0,1,0h17Z" transform="translate(-206.976 -684.656)" fill="#cc2500"/></g><g transform="translate(28.95 1.7)"><path d="M234,696.109l1-1v-4h-1Z" transform="translate(-233.981 -691.422)" fill="#ffc442" fill-rule="evenodd"/></g><path d="M193.3,691.358l1,1,1-1-1-1Z" transform="translate(-174.328 -688.971)" fill="#cc2500"/></g><g transform="translate(1.612 4.827)"><g transform="translate(15.906)"><path d="M186.023,667.061a1.922,1.922,0,0,1,2,2,3.644,3.644,0,0,1-1,2c-.431.412-.393,1-1,1h-23v-5Z" transform="translate(-163.226 -667.318)" fill="#ffc442"/></g><g transform="translate(0.75 0.423)"><path d="M102.861,672.321a2.14,2.14,0,0,0,2-2c0-.891-1.106-.868-2-1h16c.981.052,2,.049,2,1a2.139,2.139,0,0,1-2,2Z" transform="translate(-102.908 -669.001)" fill="#e2eff4" fill-rule="evenodd"/></g><path d="M116.627,671.061c.389,0,.727-.739,1-1s1-.641,1-1c0-.723-1.237-.959-2-1h-17v-1h17c1.232.065,3,.83,3,2a3.644,3.644,0,0,1-1,2,3.806,3.806,0,0,1-2,1h-17v-1Z" transform="translate(-99.924 -667.318)" fill="#f7b63b"/><g transform="translate(11.389 1.635)"><path d="M146.563,677.934l-1-1v-3h1Z" transform="translate(-145.249 -673.826)" fill="#0069ba" fill-rule="evenodd"/></g><path d="M184.125,673.211l-1,1-1-1h2Z" transform="translate(-161.422 -671.468)" fill="#f7b63b"/></g><g transform="translate(7.638)"><g transform="translate(15.32)"><path d="M209.231,650.679a3.685,3.685,0,0,1-1,2c-.4.438-1.442-.018-2,0-.022,0,.023,0,0,0h-21v-4h0v-1h21C207.417,647.751,209.232,649.383,209.231,650.679Z" transform="translate(-184.873 -648.109)" fill="#0069ba"/></g><g transform="translate(0.722 0.468)"><path d="M126.733,654.074a2.087,2.087,0,0,0,2-2c0-.987-1.139-1.854-2-2h16a2.2,2.2,0,0,1,2,2,2.086,2.086,0,0,1-2,2Z" transform="translate(-126.777 -649.972)" fill="#e2eff4" fill-rule="evenodd"/></g><g transform="translate(0 0)"><path d="M140.582,651.68c.375,0,.736.289,1,0s0-.6,0-1c0-.8-.265-1.955-1-2h-17v-1h17c1.186.072,2,1.7,2,3a3.69,3.69,0,0,1-1,2c-.415.456-.416,0-1,0h-17v-1Z" transform="translate(-123.904 -648.11)" fill="#004880"/></g><g transform="translate(10.969 1.811)"><path d="M169.267,660.076l-1-1-1,1v-5h2Z" transform="translate(-167.559 -655.318)" fill="#ffcb00" fill-rule="evenodd"/></g></g></g><g transform="translate(36.058 0)"><path d="M180.2,527.985c.261,2.1.466,2.235,0,3-2.3,3.778,4.024,7.214,4,5-.009-.863-2.462-.64,0-3,2.722-2.608.555-3.965,0-5-2.1-3.922.234-3.668,1-3,.454.4,1.056.449,1,0C185.968,523.159,179.332,521.033,180.2,527.985Z" transform="translate(-179.254 -522.972)" fill="#003f5c"/><path d="M190.4,618.965c2.079-.443,14.007,1.287,19,3a2.058,2.058,0,0,1,0,4,41.728,41.728,0,0,1-17,0C188.387,625.09,188.154,619.444,190.4,618.965Z" transform="translate(-186.456 -594.952)" fill="#c0d2e2"/><path d="M256.652,712.75h2c.084.515,2.232,1.441,2,2-.11.264-1.5.205-2,0-.46-.191-.721.121-1,0a3.019,3.019,0,0,1-1-1,1.027,1.027,0,0,1,0-1Z" transform="translate(-236.711 -664.737)" fill="#00265a"/><path d="M260.451,711.882h0s.293.948,0,1a11.4,11.4,0,0,1-2-1,5.146,5.146,0,0,1,1-1Z" transform="translate(-238.509 -663.868)" fill="#fecfb3"/><path d="M182.289,611.623c2.125,0,13.475,5.282,18,8,1.925,1.156,1.121,2.943-1,3-5.665.153-13.743-1.073-18-3C177.55,617.929,179.995,611.622,182.289,611.623Z" transform="translate(-179.348 -589.609)" fill="#e3eff4"/><path d="M252.062,641.649c-.215,9.253,0,16,0,16-.441.294-1.374.1-2,0,0,0-1.744-6.955-3-15C246.234,637.345,252.149,637.875,252.062,641.649Z" transform="translate(-230.12 -609.636)" fill="#e3eff4"/><path d="M269,611.722c.133-.043.965-.186,1,0a3.423,3.423,0,0,1-1,1c-.286-.1.282.059,0,0C269.253,612.738,268.754,611.785,269,611.722Z" transform="translate(-246.06 -589.709)" fill="#fecfb3"/><path d="M266.5,613a3.37,3.37,0,0,0,1,0,14.138,14.138,0,0,1,1,1c.058.059.016-.1,0,0h0c.008.175-.011-.042,0,0,.046.174-.438.289-1,0a8.033,8.033,0,0,1-2,0,18.733,18.733,0,0,0,0-2C265.781,612.061,266.214,612.9,266.5,613Z" transform="translate(-243.558 -589.989)" fill="#fecfb3"/><path d="M219.6,562.622c.684,1.239,1.069,5.978,2,8,1.142,2.48-.412,1.639-1,1-1.549-1.684-4.789-7.106-4-8C216.94,563.235,219.474,562.4,219.6,562.622Z" transform="translate(-206.657 -552.609)" fill="#fecfb3"/><path d="M233.757,594.113c.108.015-.075-.037,0,0,1.368.685,6.461,3.513,8,4a16.63,16.63,0,0,0-1,2c-2.516-.852-8.044-3.94-8-5C232.8,594.141,233.282,594.045,233.757,594.113Z" transform="translate(-218.816 -576.099)" fill="#fecfb3"/><path d="M218.862,561.924c.118.018-.053-.1,0,0a18.841,18.841,0,0,1,1,3c.447,1.5.568,3.026,1,4,.075.168.949.841,1,1,.542.345,1.247.484,2,1,1.645,1.126,3.135,2.712,4,3v2c-2.146-.762-7.857-3.677-9-5-1.206-1.357-5.063-6.832-4-8A11.488,11.488,0,0,1,218.862,561.924Z" transform="translate(-205.92 -551.91)" fill="#cc2500"/><path d="M192.241,609.739l1,2a2.77,2.77,0,0,1-2,1l-1-1v1a19.915,19.915,0,0,1-11,0c-.222-1.828,1-5,1-5Z" transform="translate(-179.299 -586.726)" fill="#ccdae8"/><path d="M183.511,552.911a10.5,10.5,0,0,0,2-1,6.991,6.991,0,0,0,2,1,4.216,4.216,0,0,0,1,0s1.693.792,2,1a2.618,2.618,0,0,1,1,3c-.82,3.437,1.064,11.58,0,12-1.452.573-10.5,2.344-13,0,0,0,1.829-9.68,3-13C181.959,554.642,181.947,553.175,183.511,552.911Z" transform="translate(-178.57 -544.898)" fill="#ff3b00"/><path d="M282.066,702.862h2a2.675,2.675,0,0,0,0,1c.234.467,2.054.4,2,1-.025.285-.466,1.048-1,1-.5-.044-1.7.032-2,0-.386-.041-.869-.842-1-1-.339-.409-.033-.631,0-1C282.1,703.543,282.066,702.862,282.066,702.862Z" transform="translate(-256.125 -657.848)" fill="#00265a"/><path d="M285.032,702.686a1.826,1.826,0,0,0,0,1h0a11.759,11.759,0,0,1-2,0c.023-.319,0-1,0-1Z" transform="translate(-257.091 -657.672)" fill="#fecfb3"/><path d="M263.483,633.07c1.722,9.094,3,16,3,16-.37.38-1.372,1.222-2,1,0,0-2.092-6.395-5-14C257.566,631.055,262.78,629.36,263.483,633.07Z" transform="translate(-238.542 -604.057)" fill="#c0d2e2"/><g transform="translate(7.85 18.241)"><g transform="translate(0 8.249)"><path d="M209.9,627.918h0c0,.205-.205,1,0,1h9c.205,0,0-.795,0-1h-9Z" transform="translate(-209.81 -628.395)" fill="#97b3bb"/></g><path d="M245.644,596.344l-1,7c-.03.122-.456,1,0,1h7v-9h-5C246.331,595.336,245.727,596.042,245.644,596.344Z" transform="translate(-235.552 -595.571)" fill="#97b3bb"/><path d="M256.417,595.338h-9c-.1,0,.026-.1,0,0l-2,9c-.039.14-.145,0,0,0h9c.486,0,.87-.532,1-1l2-7C257.456,596.2,256.562,595.338,256.417,595.338Z" transform="translate(-236.325 -595.566)" fill="#d5e0e3"/><path d="M250.138,621.022h-3l1-2Z" transform="translate(-238.047 -613.25)" fill="#fff" opacity="0.42"/><path d="M252.843,599.3v-2h1c2.274,2.61,4.725,4.39,7,7h-3Z" transform="translate(-241.751 -596.528)" fill="#fff" opacity="0.42"/></g><path d="M194.4,564.039c.679,1.734,2.049,3.3,3,5,1.321,2.367,2.859,6.368,5,8-2.309-.44-4.961-1.012-6-2-1.492-1.419-4.334-7.7-2-10C194.536,564.859,194.341,564.247,194.4,564.039Z" transform="translate(-189.46 -554.026)" fill="#cc2500"/><g transform="translate(3.349 9.688)"><path d="M244.495,614.278c.135-.037.974-.188,1,0,.027.119-.88.013-1,0-.28-.117-.721.072-1,0A4.3,4.3,0,0,0,244.495,614.278Z" transform="translate(-230.902 -600.953)" fill="#fecfb3"/><path d="M240.841,614.391c.278.072.72-.118,1,0,.333.135.951.973,1,1,.14.086.914-.1,1,0a4.432,4.432,0,0,1,0,1h0c0,.175-1.009-.043-1,0,.038.176.548.316,0,0-.033-.019-1.535-.8-2-1A3.744,3.744,0,0,0,240.841,614.391Z" transform="translate(-228.248 -601.065)" fill="#fecfb3"/><path d="M196.664,562.633c.624,1.27,1.167,5.936,2,8,1.021,2.532-.443,1.667-1,1-1.466-1.756-4.831-7.145-4-8C194.024,563.264,196.551,562.4,196.664,562.633Z" transform="translate(-193.071 -562.308)" fill="#fecfb3"/><path d="M209.8,594.38c.107.02-.073-.041,0,0,1.334.75,5.486,4.439,7,5-.281.444.1.68,0,1-2.471-.972-8.095-3.943-8-5C208.882,594.413,209.323,594.29,209.8,594.38Z" transform="translate(-204.203 -586.055)" fill="#fecfb3"/><path d="M195.49,561.853c.117.024-.048-.1,0,0,.308.651,1.616,7.006,2,8,.066.172.957-.161,1,0,.525.37.273.449,1,1,1.588,1.2,4.15,3.671,5,4l-1,1c-2.107-.865-6.922-3.623-8-5-1.139-1.413-4.118-6.884-3-8A6.779,6.779,0,0,1,195.49,561.853Z" transform="translate(-191.897 -561.528)" fill="#ff3b00"/></g><path d="M208.11,540.329c.181.121,1.5,2.1,2,2a3.369,3.369,0,0,0,0,2c-.09.754-2.34,1.249-3,0A13.3,13.3,0,0,0,208.11,540.329Z" transform="translate(-200.169 -536.316)" fill="#fecfb3"/><path d="M209.325,529.692c-1.074.276-2.274.936-2,2,0,.011,1,1,1,1,.207.8,1.339,2.328,2,2,1.564-.775,1.144-4.673,1-5C210.923,528.776,210.325,529.434,209.325,529.692Z" transform="translate(-200.383 -527.678)" fill="#fecfb3"/><path d="M205.523,526.086s-2.77-.616-4,1c-1.852,2.433,2,4,2,4,.187-.839-.372-3.595,2-4,0,0,1.03.052,1,2C207.255,528.566,207.329,526.095,205.523,526.086Z" transform="translate(-195.582 -525.073)" fill="#003f5c"/><path d="M206.424,538.1a2.068,2.068,0,0,0,1,1c.068-.313-.035-.613,0-1-.168-.078.108-.016,0,0C207.141,538.139,206.384,537.815,206.424,538.1Z" transform="translate(-199.483 -534.085)" fill="#fecfb3"/><path d="M202.8,526.421c-.124.013-.872-.114-1,0-.48.428-.224.682,0,1a2.654,2.654,0,0,1,1-1Z" transform="translate(-195.857 -525.407)" fill="#f17548"/></g></g><g transform="translate(129.815 306.624)"><path d="M435.39,507.876h-20c-1.838,0-3,2.162-3,4v5c0,1.838,1.162,4,3,4h15l4,3-1-3h2c1.838,0,3-2.162,3-4v-5C438.39,510.039,437.228,507.876,435.39,507.876Z" transform="translate(-412.138 -508.135)" fill="#ffde91"/><path d="M451.3,520.968h10c.2,0,1,.2,1,0h0a2.356,2.356,0,0,0-1-1h-10a2.356,2.356,0,0,0-1,1h0C450.3,521.173,451.1,520.968,451.3,520.968Z" transform="translate(-441.052 -517.227)" fill="#5c5e68"/><path d="M439.78,525.805h10c.2,0,1,.2,1,0h0c0-.2-.8,0-1,0h-10c-.205,0,0-.2,0,0h0C439.78,526.01,439.575,525.805,439.78,525.805Z" transform="translate(-432.528 -521.064)" fill="#5c5e68"/><path d="M428.684,541.868h11c.2,0,0,.2,0,0h0c0-.2.2,0,0,0h-11c-.205,0,0-.2,0,0h0C428.684,542.073,428.479,541.868,428.684,541.868Z" transform="translate(-424.431 -533.127)" fill="#5c5e68"/><path d="M460.839,531.469h8a2.358,2.358,0,0,0,1-1h0c0-.205-.8,0-1,0h-8c-.2,0,0-.205,0,0h0C460.839,530.673,460.634,531.469,460.839,531.469Z" transform="translate(-448.587 -524.728)" fill="#5c5e68"/><path d="M477.091,541.9h4c.2,0,1,.2,1,0h0c0-.205-.8,0-1,0h-4c-.2,0,0-.205,0,0h0C477.091,542.1,476.887,541.9,477.091,541.9Z" transform="translate(-460.839 -533.154)" fill="#5c5e68"/><path d="M427.468,531.469h7c.205,0,0-.8,0-1h0c0-.205.205,0,0,0h-7c-.2,0-1-.205-1,0h0A2.358,2.358,0,0,0,427.468,531.469Z" transform="translate(-423.215 -524.728)" fill="#5c5e68"/><path d="M440.224,536.307h10c.2,0,0-.8,0-1h0c0-.2.2,0,0,0h-10c-.2,0,0-.2,0,0h0C440.224,535.511,440.019,536.307,440.224,536.307Z" transform="translate(-432.971 -528.566)" fill="#5c5e68"/><path d="M419.692,535.032c-.155-.135,0,.3,0,0v-1c0-.2.08.063,0,0s.186-1,0-1h0c.186,0-.08.063,0,0s0,.2,0,0v-1c0-.3-.155-.865,0-1s.71-.027,1,0h0c-.2-.02.09-.07,0,0s-1,.794-1,1v1c0,.356.26-.077,0,0,.26.077,0,.644,0,1v1c0,.206.91-.07,1,0s-.2.02,0,0v1C420.4,536.058,419.847,535.167,419.692,535.032Z" transform="translate(-417.44 -525.29)" fill="#5c5e68"/><path d="M500.951,521.1h0a3.707,3.707,0,0,0,1,0c.09-.07,0-.793,0-1v-1c0-.356-.26.077,0,0-.26-.077,0-.644,0-1v-1c0-.206.09.07,0,0a3.7,3.7,0,0,0-1,0v-1c.29-.027.845.865,1,1s0-.3,0,0v1c0,.2-.08-.063,0,0a5.265,5.265,0,0,0,1,0v1a5.26,5.26,0,0,0-1,0c-.08.063,0-.2,0,0v1c0,.3.155.865,0,1S501.24,521.124,500.951,521.1Z" transform="translate(-478.698 -514.356)" fill="#5c5e68"/></g></g></svg>