<svg xmlns="http://www.w3.org/2000/svg" xmlns:xlink="http://www.w3.org/1999/xlink" width="93.08" height="182.081" viewBox="0 0 93.08 182.081"><defs><linearGradient id="a" x1="-107.512" y1="0.5" x2="-106.512" y2="0.5" gradientUnits="objectBoundingBox"><stop offset="0" stop-color="#fcd528"/><stop offset="1" stop-color="#ffb800"/></linearGradient><linearGradient id="b" x1="63.47" y1="0.5" x2="64.47" y2="0.5" xlink:href="#a"/><linearGradient id="c" x1="-165.115" y1="0.5" x2="-164.115" y2="0.5" xlink:href="#a"/></defs><g transform="translate(-166.297 -2354.608)"><g transform="translate(177.166 2354.921)"><path d="M1128.449,1663.789a3.024,3.024,0,0,0-1,2c.627.615,1.392.392,2,1a7.427,7.427,0,0,1-1-2C1128.395,1664.387,1128.978,1663.645,1128.449,1663.789Z" transform="translate(-1121.317 -1641.042)" fill="#fecfb3"/><path d="M1118.577,1665.261h0c1.553,1.319,3.39,2.541,4,3,1.142-.41,2.026-2.958,2-3-.815-.577-1.3-1.463-2-2-.814-.64-2.86-1.909-3-2-.413-.225-1.657-.861-2-1-.442-.183-.707-.353-1,0-.089.155,0,.412,1,1a6.557,6.557,0,0,1,2,2s-1.276-.557-1,0a1.127,1.127,0,0,0,0,1S1118.136,1664.9,1118.577,1665.261Z" transform="translate(-1116.445 -1639.514)" fill="#fecfb3"/><path d="M1148.442,1678.312c.48-.1,1.462.047,2,0a104.634,104.634,0,0,0,12-2c4.462-.967,8.886-1.971,11-2,.329,0,.785-.278,1,0,.942,1.218,1.5,9.531,1,11-1.5,4.389-21.8,2.18-27,1-5.022-1.066-18-10.56-23-15l3-4c1.967,1.818,8.773,5.366,14,8C1144.836,1676.519,1146.788,1677.4,1148.442,1678.312Z" transform="translate(-1120.31 -1642.565)" fill="#cef6fe"/><path d="M1151.014,1757.792c15.974-1.552,43.165.227,49,3,6.3,2.994,12.477,20.233,0,20-14.2-.266-34.645-3.183-50-11C1144.266,1766.865,1144.219,1758.453,1151.014,1757.792Z" transform="translate(-1128.882 -1681.045)" fill="#01447a"/><path d="M1163.622,1857.53c.4-.72,1-2,1-2h4s-.046,1.029,0,2c.055,1.125,2.08,2.8,1,4-.417.463-2.822-.077-4,0-.925.06-3.489.926-5,1-1.631.078-3.957-1.132-4-2C1156.533,1858.692,1162.853,1858.919,1163.622,1857.53Z" transform="translate(-1133.49 -1722.783)" fill="#801720"/><path d="M1170.055,1854.412l4,1s-.03,1.029,0,2c0,0-4.357,1.37-5,1-.785-.452,0-1,0-1A16.01,16.01,0,0,0,1170.055,1854.412Z" transform="translate(-1138.923 -1722.665)" fill="#fecfb3"/><path d="M1160.943,1769.928c1.109,24.731,3,46,3,46a4.755,4.755,0,0,1-5,1s-5.3-21.934-13-49C1142.8,1756.887,1160.729,1765.182,1160.943,1769.928Z" transform="translate(-1128.811 -1683.181)" fill="#01447a"/><path d="M1206.562,1660.523c-.033,1.791,1.275,7.156,2,8-1.044,3.417-6.394,3.861-7,2,.579-2.158-.944-5.64-1-6C1201.888,1664.554,1206.162,1660.9,1206.562,1660.523Z" transform="translate(-1152.43 -1639.776)" fill="#fecfb3"/><path d="M1249.8,1928.51l-3-1a14.471,14.471,0,0,1-1,2c-.836,1.214-5.155,2.41-5,4,.078.8,1.617,1.08,3,1a14.036,14.036,0,0,0,4-1,9.7,9.7,0,0,0,3-2c.428-.91-1-1-1-1C1249.859,1929.609,1249.8,1928.51,1249.8,1928.51Z" transform="translate(-1168.668 -1753.763)" fill="#801720"/><path d="M1249.6,1927.5a2,2,0,0,1,0,2,19.792,19.792,0,0,0,2,1,4.689,4.689,0,0,0,2,0c.06-.9,0-3,0-3Z" transform="translate(-1172.465 -1753.755)" fill="#fecfb3"/><path d="M1214.362,1754.353c-.082,1.958,5.665,37.1,10,61a234.3,234.3,0,0,0,11,39c.052.145,2.775.646,4-1,0,0-4.871-19.457-4-39,.753-16.871,3.785-42.834,5-44l-4-16C1229.649,1755.454,1216.7,1755.116,1214.362,1754.353Z" transform="translate(-1158.23 -1679.606)" fill="#015293"/><path d="M1203.778,1650.528c2.244,1.311,3.3,3.778,2,6-.013.024-2,2-2,2-.979,1.677-4.72,3.162-6,2-3.027-2.749.466-9.353,1-10C1200.27,1648.723,1201.688,1649.308,1203.778,1650.528Z" transform="translate(-1150.646 -1634.781)" fill="#fecfb3"/><path d="M1190.344,1720.086c8.672,8.548,23.259,4.868,33,9l1-6,2,12a5.318,5.318,0,0,0,4,1c0-34.947-8.9-58.8-21-62a22.5,22.5,0,0,0-5,0s-2.142,2.622-4,3c-1.278.257-3-1-3-1a35.178,35.178,0,0,0-4,2c-3.025,2.317-2.5,7.391-2,11,.214,1.528.288,6.615,0,17-.009.348.013,1.644,0,2C1191.232,1711.665,1190.622,1715.512,1190.344,1720.086Z" transform="translate(-1148.212 -1645.339)" fill="#336989"/><path d="M1202.739,1677.087c1.86-.376,4-3,4-3s2.331-.049,3,0a8.544,8.544,0,0,0,2,0c-4.928,3.213-12,12-12,12a58.389,58.389,0,0,1-3-9,28.663,28.663,0,0,1,3-1S1201.461,1677.346,1202.739,1677.087Z" transform="translate(-1150.607 -1645.34)" fill="#cef6fe"/><path d="M1199.3,1644.1a6.781,6.781,0,0,1,10,4c1.478,5.817-3.8,7.817-6,11,0,0,2.219-5.577,2-8-7.491-1.025-9.267-4.447-10-7C1195.3,1644.1,1196.681,1645.546,1199.3,1644.1Z" transform="translate(-1150.17 -1632.348)" fill="#686868"/><path d="M1212.594,1660.175a1.591,1.591,0,0,1,0,2c-.394.5-1.4,1.256-2,1a30.025,30.025,0,0,1,1-3C1212.026,1660.213,1212.394,1660.016,1212.594,1660.175Z" transform="translate(-1156.462 -1639.428)" fill="#fecfb3"/><path d="M1191.769,1711.292a135.041,135.041,0,0,0,16-10,33.75,33.75,0,0,0,4-4c4.441-4.747,3.647-11.79-2-15-1.09-.617-1.816-.738-2,0-1.747,6.934-12.567,21.915-16,27C1191.761,1709.639,1191.782,1710.935,1191.769,1711.292Z" transform="translate(-1148.637 -1648.544)" fill="#275069"/><path d="M1176.647,1675.389c-.217.695-1,1.277-1,2-.123-.814-.748-.167-1-1,0-.347,1.668-2.111,2-2C1177.172,1674.517,1176.792,1675.015,1176.647,1675.389Z" transform="translate(-1141.515 -1645.642)" fill="#fecfb3"/><g transform="translate(4.101)"><g transform="translate(23.533 21.979)"><path d="M1165.187,1677.062c-.089.25-.384.939,0,1s.911-.749,1-1l6-14-4-1Z" transform="translate(-1164.688 -1662.293)" fill="#120d57"/></g><g transform="translate(27.61 10.648)"><path d="M1180.228,1643.611l-6-1-2,14,5,1c3.5.627,7.228-1.966,8-6S1183.732,1644.236,1180.228,1643.611Z" transform="translate(-1171.807 -1642.512)" fill="#f64c4a"/></g><g transform="translate(5.724 0.279)"><path d="M1158.9,1634.877c-.062-.013-.936.006-1,0h0l-19-11-5,28,22-3h0c2.086.4,4.188-1.973,5-6S1160.99,1635.277,1158.9,1634.877Z" transform="translate(-1133.597 -1624.409)" fill="#f64c4a"/></g><path d="M1133.635,1623.668c-3.811-.727-7.42,5.215-9,13s.191,14.27,4,15c2.234.422,4.057-.877,6-4,.919-1.47,2.367-3.032,3-5,.315-.982-.217-2.923,0-4s.91-1.977,1-3a19.488,19.488,0,0,0,0-6C1137.967,1626.5,1135.7,1624.057,1133.635,1623.668Z" transform="translate(-1123.604 -1623.921)" fill="#9c3135"/><g transform="translate(3.539 3.099)"><path d="M1138.275,1628.979c-3.04-.58-6.736,3.792-8,10s-.04,12.421,3,13c1.319.249,2.729-.6,4-2,.919-1.47,2.367-3.032,3-5,.315-.982-.217-2.923,0-4s.91-1.977,1-3a19.492,19.492,0,0,0,0-6C1140.645,1630.51,1139.46,1629.2,1138.275,1628.979Z" transform="translate(-1129.782 -1629.331)" fill="#fff"/></g><path d="M1141.871,1642.836h4a26.468,26.468,0,0,1-2,10l-3-2Z" transform="translate(-1130.839 -1632.089)" fill="#9c3135"/><g transform="translate(8.659 11.376)"><path d="M1141.093,1643.153c-.965-.185-1.6,2.029-2,4s.035,3.816,1,4c.419.08.6-.555,1-1a10.955,10.955,0,0,0,1-2c.1-.312-.069-.658,0-1a8.332,8.332,0,0,0,0-1,6.792,6.792,0,0,0,0-2A1.71,1.71,0,0,0,1141.093,1643.153Z" transform="translate(-1138.721 -1643.782)" fill="#f64c4a"/></g><g transform="translate(27.609 10.648)"><path d="M1172.228,1667.5Z" transform="translate(-1171.806 -1653.396)" fill="#004143"/><path d="M1176.523,1642.61c-.064-.012.063.006,0,0h-2c.064.006.938-.013,1,0,2.086.4,2.812,3.972,2,8-.768,3.807-3.005,6.039-5,6h1c2.085.4,5.188-1.973,6-6S1178.609,1643.01,1176.523,1642.61Z" transform="translate(-1172.101 -1642.511)" fill="#120d57"/></g></g><path d="M1170.456,1667.142a15.293,15.293,0,0,1,1,2c.064.148.711,2.013,1,3,.251.832-.124,2.187,0,3a24.394,24.394,0,0,1-3,1c-.438-1.383-.956-4.9-1-5-.738-1.65-.489-3.159,0-3,.119.039-.5-1.049,0-1a7.88,7.88,0,0,0,1,0C1169.745,1667.113,1170.3,1666.968,1170.456,1667.142Z" transform="translate(-1138.324 -1642.395)" fill="#fecfb3"/><path d="M1174.106,1679.76c.668,2.593,5.036,8.953,8,14,.641,1.092.425,2.006,1,3,1.891-2.1,4.892-4.384,7-7,2.862-3.556,5.374-6.65,7-8,.253-.21.663-.9,1-1a6.276,6.276,0,0,1,7,8c-.95,4.126-13.312,13.59-19,17h0c-1.451.914-4.278,3.679-5,3a4.47,4.47,0,0,1-1-2c-3.644-3.716-9.218-18.594-11-25Z" transform="translate(-1138.974 -1648.013)" fill="#cef6fe"/></g><g transform="translate(165.899 2494.438)"><g transform="translate(0 34.443)"><path d="M1097.173,1931.419a4.024,4.024,0,0,0,1,3,3.578,3.578,0,0,0,2,1,7.1,7.1,0,0,0,1,0h41v-1h0v-7h-41A4.08,4.08,0,0,0,1097.173,1931.419Z" transform="translate(-1096.774 -1927.631)" fill="#6eacbb"/><g transform="translate(39.925 0.777)"><path d="M1199.951,1935c-1.89,0-4-1.193-4-3a3.194,3.194,0,0,1,3-3h-29a2.913,2.913,0,0,0-3,3,2.784,2.784,0,0,0,3,3Z" transform="translate(-1166.477 -1928.987)" fill="#f3f0fc" fill-rule="evenodd"/></g><g transform="translate(39.151 0.001)"><path d="M1169.374,1934.419a3.536,3.536,0,0,1-3-3c0-1.327,1.6-1.926,3-2h31v-2h-31a4.08,4.08,0,0,0-4,4,4.026,4.026,0,0,0,1,3,4.217,4.217,0,0,0,3,1h31v-1Z" transform="translate(-1165.126 -1927.632)" fill="#bfe1ea"/></g><g transform="translate(51.137 1.004)"><path d="M1186.314,1938.659l1-1,1,1v-6h-2Z" transform="translate(-1186.052 -1932.876)" fill="#ffcb00" fill-rule="evenodd"/></g><path d="M1154.739,1933.327l1,2,2-2-2-1Z" transform="translate(-1121.34 -1929.539)" fill="#bfe1ea"/></g><g transform="translate(18.696)"><path d="M1129.118,1870.729a2.742,2.742,0,0,0,1,2,2.771,2.771,0,0,0,2,1c.032,0-.032,0,0,0h30v-6h-30A2.978,2.978,0,0,0,1129.118,1870.729Z" transform="translate(-1129.415 -1867.498)" fill="#015578"/><g transform="translate(28.562 0.659)"><path d="M1203.421,1874.22a3.32,3.32,0,0,1-3-3c0-1.391.825-2.794,2-3h-21c-1.289.081-2,1.516-2,3,0,1.535.647,3,2,3Z" transform="translate(-1179.28 -1868.649)" fill="#f3f0fc" fill-rule="evenodd"/></g><g transform="translate(28.008)"><path d="M1181.008,1872.729c-.511,0-.64-.593-1-1s-1-.439-1-1a2.1,2.1,0,0,1,2-2h23v-1h-23a2.981,2.981,0,0,0-3,3,2.742,2.742,0,0,0,1,2,2.581,2.581,0,0,0,2,1h23v-1Z" transform="translate(-1178.313 -1867.498)" fill="#01648d"/></g><path d="M1170.692,1872.349l1,1,2-1-2-1Z" transform="translate(-1146.989 -1869.119)" fill="#01648d"/></g><g transform="translate(1.591 27.57)"><g transform="translate(24.867)"><path d="M1177.907,1915.292a4.609,4.609,0,0,1,4,4,2.412,2.412,0,0,1-1,2,4.9,4.9,0,0,1-3,1h-35v-7Z" transform="translate(-1142.966 -1915.631)" fill="#01648d"/></g><g transform="translate(1.173 0.661)"><path d="M1101.234,1921.785h26c1.609,0,3-.463,3-2a3.272,3.272,0,0,0-3-3h-25c.557.082.594-.341,1,0a4.993,4.993,0,0,1,1,3,2.384,2.384,0,0,1-1,2c-.5.395-1.3,0-2,0Z" transform="translate(-1101.599 -1916.785)" fill="#e9e9e9" fill-rule="evenodd"/></g><path d="M1099.359,1922.292h27c.1,0-.1.009,0,0h0a3.214,3.214,0,0,0,2-1,2.415,2.415,0,0,0,1-2c0-1.66-.334-3.683-2-4-.17-.033-.823.009-1,0h-27v1h27c1.193.064,2,1.871,2,3,0,.561.419.6,0,1a3.822,3.822,0,0,1-2,1h-27Z" transform="translate(-1099.551 -1915.631)" fill="#015578"/><g transform="translate(17.806 2.556)"><path d="M1132.64,1926.2l-1-1-1,1v-6h2Z" transform="translate(-1130.638 -1920.093)" fill-rule="evenodd" fill="url(#a)"/></g><path d="M1159.426,1920.916l-2,1-2-1,2-2Z" transform="translate(-1123.618 -1917.255)" fill="#015578"/></g><g transform="translate(11.154 21.021)"><path d="M1119.492,1904.407a2.88,2.88,0,0,0-3,3,2.5,2.5,0,0,0,1,2,2.6,2.6,0,0,0,2,1h34v-6Z" transform="translate(-1116.247 -1904.197)" fill="#6eacbb"/><g transform="translate(32.673 0.635)"><path d="M1200.862,1909.881c-1.547,0-3-.522-3-2,0-1.34.657-2.8,2-3h-24a3.375,3.375,0,0,0-3,3,3.2,3.2,0,0,0,3,3h25v-1Z" transform="translate(-1173.289 -1905.306)" fill="#f3f0fc" fill-rule="evenodd"/></g><g transform="translate(32.039)"><path d="M1175.389,1909.407c-.584,0-.589-.608-1-1s-1-.459-1-1a2.022,2.022,0,0,1,2-2h26v-1h-26a2.879,2.879,0,0,0-3,3,2.5,2.5,0,0,0,1,2,2.6,2.6,0,0,0,2,1h26v-1Z" transform="translate(-1172.183 -1904.197)" fill="#bfe1ea"/></g><g transform="translate(41.847 2.458)"><path d="M1189.7,1914.241l1-1,1,1v-6h-2Z" transform="translate(-1189.307 -1908.489)" fill-rule="evenodd" fill="url(#b)"/></g><path d="M1163.6,1908.969l1,1,2-1-2-1Z" transform="translate(-1136.351 -1905.759)" fill="#bfe1ea"/></g><g transform="translate(4.35 13.765)"><path d="M1104.417,1895a4.946,4.946,0,0,0,1,3,2.6,2.6,0,0,0,2,1c.033,0-.035,0,0,0h33v-8h-33C1105.632,1891.1,1104.416,1893.047,1104.417,1895Z" transform="translate(-1104.368 -1891.529)" fill="#015578"/><g transform="translate(31.469 0.703)"><path d="M1185.888,1898.52a3.125,3.125,0,0,1-3-3c0-1.484.706-2.78,2-3h-23a3.293,3.293,0,0,0-3,3,3.125,3.125,0,0,0,3,3Z" transform="translate(-1159.308 -1892.757)" fill="#f3f0fc" fill-rule="evenodd"/></g><g transform="translate(30.859 0.001)"><path d="M1161.433,1897c-.563,0-.6.434-1,0a4.012,4.012,0,0,1-1-2,1.98,1.98,0,0,1,2-2h25v-2h-25c-1.785.108-3,2.051-3,4a4.947,4.947,0,0,0,1,3,2.423,2.423,0,0,0,2,1h25v-2Z" transform="translate(-1158.243 -1891.53)" fill="#01648d"/></g><g transform="translate(40.305 2.723)"><path d="M1174.479,1903.026l1-1,1,1v-7h-2Z" transform="translate(-1174.736 -1896.283)" fill="#ffcb00" fill-rule="evenodd"/></g></g><g transform="translate(9.486 6.913)"><g transform="translate(24.867)"><path d="M1191.8,1878.885a4.61,4.61,0,0,1,4,4,2.41,2.41,0,0,1-1,2,4.9,4.9,0,0,1-3,1h-35v-7Z" transform="translate(-1156.751 -1879.567)" fill="#bfe1ea"/></g><g transform="translate(1.172 0.66)"><path d="M1115.122,1886.377h26a3.113,3.113,0,0,0,3-3,3.272,3.272,0,0,0-3-3h-25c.557.083.594.659,1,1a2.532,2.532,0,0,1,1,2,2.387,2.387,0,0,1-1,2,3.847,3.847,0,0,1-2,1Z" transform="translate(-1115.382 -1880.72)" fill="#e9e9e9" fill-rule="evenodd"/></g><g transform="translate(0 0.001)"><path d="M1113.248,1885.885h27c.1,0-.1.009,0,0s-.089.014,0,0a3.834,3.834,0,0,0,2-1,2.412,2.412,0,0,0,1-2c0-1.828-1.074-3.9-3-4h-27v2h27a1.969,1.969,0,0,1,2,2c0,.563-.581.6-1,1s-.392,1-1,1h-27Z" transform="translate(-1113.336 -1879.568)" fill="#6eacbb"/></g><g transform="translate(17.806 2.557)"><path d="M1146.529,1889.792l-1-1-1,1v-6h2Z" transform="translate(-1144.423 -1884.031)" fill="#ffcb00" fill-rule="evenodd"/></g><path d="M1173.315,1884.509l-2,1-2-1,2-1Z" transform="translate(-1137.402 -1881.191)" fill="#6eacbb"/></g><g transform="translate(55.279 2.551)"><path d="M1193.4,1877.631l1-1,1,1v-6h-2Z" transform="translate(-1193.285 -1871.951)" fill-rule="evenodd" fill="url(#c)"/></g></g></g></svg>