<svg xmlns="http://www.w3.org/2000/svg" width="1366.023" height="2318.579" viewBox="0 0 1366.023 2318.579"><g transform="translate(-0.073 -97.917)"><rect width="1366.023" height="2318.579" transform="translate(0.073 97.917)" fill="#7ec3c9"/><path d="M803.7,115.464c104.3,251.742-77.4,543.979-6.244,806.813,43.981,162.535,183.7,289.468,343.86,345.4,72.3,25.274,148.336,37.334,224.782,39.134V97.917H795.936Q800,106.58,803.7,115.464Z" fill="#7ec3c9" style="mix-blend-mode:soft-light;isolation:isolate"/><path d="M1246.676,97.917H1366.1V614.193c-42.206,13.5-96.406-10.31-121.194-51.075-19.141-31.424-25.624-68.843-27.432-105.43C1211.533,338.059,1250.89,215.169,1246.676,97.917Z" fill="#7ec3c9" style="mix-blend-mode:soft-light;isolation:isolate"/><path d="M1134.48,2416.5H.073V270.125A383.717,383.717,0,0,1,98,264.657c101.013,7.61,197.495,62.068,255.928,144.487,156.417,220.565,15.741,547.311,143.62,785.437,42.268,78.727,112.705,144.572,131.192,231.924C650.085,1527.5,596.1,1632.3,613.706,1734c19.336,111.734,117.4,189.7,200.92,266.763A1557.963,1557.963,0,0,1,1134.48,2416.5Z" fill="#7ec3c9" style="mix-blend-mode:soft-light;isolation:isolate"/><path d="M717.578,2416.5H.073V586.328c85.356,12.417,165.9,41.924,222.521,100.206,96.709,99.558,98.889,254.977,86.15,392.826-12.74,137.878-32.3,286.23,35.954,406.905,44.731,79.061,124.992,141,141.468,230.228,14.863,80.5-26.838,165.273-3.878,243.855,19.364,66.194,79.27,110.849,125.133,162.57a451.508,451.508,0,0,1,107.524,227.666A271.022,271.022,0,0,1,717.578,2416.5Z" fill="#7ec3c9" style="mix-blend-mode:soft-light;isolation:isolate"/><path d="M327.967,2416.5H.073V1253.323c31.113,15.419,57.753,33.458,70.012,46.65,41.815,44.93,56.366,108.718,60.075,169.856,5.266,86.7-7.955,173.6-5.577,260.478,2.35,86.845,23.016,178.256,84.026,240.381,31.764,32.33,72.249,54.514,108.147,82.278,35.869,27.736,68.823,64.351,74.938,109.169,10.7,78.3-62.4,146.348-64.067,225.357C327.429,2396.935,328.136,2406.856,327.967,2416.5Z" fill="#7ec3c9" style="mix-blend-mode:soft-light;isolation:isolate"/></g></svg>