<svg xmlns="http://www.w3.org/2000/svg" width="1366" height="1843.66" viewBox="0 0 1366 1843.66"><g transform="translate(-0.84 -97.92)"><rect width="1366" height="1843.66" transform="translate(0.84 97.92)" fill="#99c5ff"/><path d="M796.2,97.92q4.065,8.67,7.76,17.55c104.24,251.74-77.35,543.98-6.24,806.81,43.95,162.54,183.58,289.47,343.64,345.4,72.26,25.28,148.24,37.34,224.64,39.14V97.92Z" transform="translate(0.84)" fill="#99c5ff" style="mix-blend-mode:soft-light;isolation:isolate"/><path d="M1246.656,97.923H1366V614.2c-42.179,13.5-96.344-10.31-121.117-51.075-19.129-31.423-25.608-68.843-27.415-105.429C1211.535,338.065,1250.867,215.175,1246.656,97.923Z" transform="translate(0.84)" fill="#99c5ff" style="mix-blend-mode:soft-light;isolation:isolate"/><path d="M750.26,1941.58H.84V270.13a383.425,383.425,0,0,1,97.87-5.47c100.95,7.61,197.37,62.07,255.76,144.49C510.79,629.72,370.21,956.46,498,1194.59c42.24,78.72,112.64,144.57,131.11,231.92,21.33,101-32.62,205.8-15.02,307.5C628.52,1817.48,686.87,1882.1,750.26,1941.58Z" fill="#99c5ff" style="mix-blend-mode:soft-light;isolation:isolate"/><path d="M478.46,1941.58H.84V586.33c85.31,12.42,165.8,41.93,222.38,100.21,96.65,99.56,98.83,254.98,86.1,392.83-12.73,137.87-32.28,286.23,35.93,406.9,44.7,79.06,124.91,141,141.38,230.23C500.3,1790.63,466.05,1868.38,478.46,1941.58Z" fill="#99c5ff" style="mix-blend-mode:soft-light;isolation:isolate"/><path d="M184.97,1941.58H.84V1253.33c31.1,15.42,57.72,33.46,69.97,46.65,41.79,44.93,56.33,108.72,60.04,169.86,5.26,86.7-7.95,173.6-5.57,260.47C127.28,1804.43,142.62,1881.86,184.97,1941.58Z" fill="#99c5ff" style="mix-blend-mode:soft-light;isolation:isolate"/></g></svg>