<svg xmlns="http://www.w3.org/2000/svg" width="1366" height="1554.08" viewBox="0 0 1366 1554.08"><g transform="translate(-0.67 -97.92)"><rect width="1366" height="1554.08" transform="translate(0.67 97.92)" fill="#48c78b"/><path d="M796.03,97.92q4.065,8.67,7.76,17.55c104.24,251.74-77.35,543.98-6.24,806.81,43.95,162.54,183.58,289.47,343.64,345.4,72.26,25.28,148.24,37.34,224.64,39.14V97.92Z" transform="translate(0.84)" fill="#48c78b" style="mix-blend-mode:soft-light;isolation:isolate"/><path d="M1246.483,97.927h119.344V614.2c-42.18,13.5-96.345-10.31-121.117-51.076C1225.581,531.7,1219.1,494.285,1217.3,457.7,1211.362,338.069,1250.694,215.178,1246.483,97.927Z" transform="translate(0.84)" fill="#48c78b" style="mix-blend-mode:soft-light;isolation:isolate"/><path d="M612.33,1652H.67V270.13a383.425,383.425,0,0,1,97.87-5.47c100.95,7.61,197.37,62.07,255.76,144.49,156.32,220.57,15.74,547.31,143.53,785.44,42.24,78.72,112.64,144.57,131.11,231.92C644.57,1500.53,619.77,1576.61,612.33,1652Z" fill="#48c78b" style="mix-blend-mode:soft-light;isolation:isolate"/><path d="M462.62,1652H.67V586.33c85.31,12.42,165.8,41.93,222.38,100.21,96.65,99.56,98.83,254.98,86.1,392.83-12.73,137.87-32.28,286.23,35.93,406.9C378.23,1544.89,430.89,1594.1,462.62,1652Z" fill="#48c78b" style="mix-blend-mode:soft-light;isolation:isolate"/><path d="M126.26,1652H.67V1253.33c31.1,15.42,57.72,33.46,69.97,46.65,41.79,44.93,56.33,108.72,60.04,169.86C134.36,1530.49,129,1591.23,126.26,1652Z" fill="#48c78b" style="mix-blend-mode:soft-light;isolation:isolate"/></g></svg>