<svg xmlns="http://www.w3.org/2000/svg" width="1365.253" height="2087.293" viewBox="0 0 1365.253 2087.293"><rect width="1365.253" height="2087.29" transform="translate(0 0.003)" fill="#7ec3c9"/><path d="M795.929,97.92q4.062,8.655,7.754,17.54c104.224,251.75-77.343,543.98-6.245,806.82,43.948,162.53,183.576,289.47,343.608,345.4,72.247,25.27,148.232,37.33,224.625,39.13V97.92Z" transform="translate(-0.419 -97.917)" fill="#7ec3c9" style="mix-blend-mode:soft-light;isolation:isolate"/><path d="M1246.654,97.917h119.333V614.193c-42.175,13.5-96.335-10.31-121.105-51.075-19.127-31.424-25.605-68.843-27.412-105.43C1211.537,338.059,1250.865,215.169,1246.654,97.917Z" transform="translate(-0.738 -97.917)" fill="#7ec3c9" style="mix-blend-mode:soft-light;isolation:isolate"/><path d="M983.8,2185.21H.07V270.13a382.88,382.88,0,0,1,97.858-5.47c100.936,7.61,197.346,62.07,255.743,144.48,156.3,220.57,15.729,547.32,143.515,785.44,42.239,78.73,112.618,144.57,131.094,231.93C649.6,1527.5,595.664,1632.3,613.261,1734c19.316,111.73,117.314,189.7,200.773,266.76A1550.851,1550.851,0,0,1,983.8,2185.21Z" transform="translate(-0.07 -97.917)" fill="#7ec3c9" style="mix-blend-mode:soft-light;isolation:isolate"/><path d="M653.112,2185.21H.07V586.33c85.3,12.42,165.779,41.92,222.357,100.2,96.639,99.56,98.818,254.98,86.087,392.83-12.731,137.88-32.276,286.23,35.934,406.9,44.7,79.07,124.9,141.01,141.367,230.23,14.849,80.5-26.82,165.28-3.877,243.86,19.346,66.19,79.212,110.85,125.038,162.57A445.328,445.328,0,0,1,653.112,2185.21Z" transform="translate(-0.07 -97.917)" fill="#7ec3c9" style="mix-blend-mode:soft-light;isolation:isolate"/><path d="M392.263,2185.21H.07V1253.32c31.1,15.42,57.718,33.46,69.959,46.65,41.789,44.93,56.329,108.72,60.036,169.86,5.266,86.7-7.954,173.6-5.576,260.48,2.348,86.84,23,178.25,83.969,240.38,31.737,32.33,72.2,54.51,108.071,82.28,35.844,27.73,68.77,64.35,74.875,109.17A119.41,119.41,0,0,1,392.263,2185.21Z" transform="translate(-0.07 -97.917)" fill="#7ec3c9" style="mix-blend-mode:soft-light;isolation:isolate"/></svg>