<svg xmlns="http://www.w3.org/2000/svg" width="1366" height="2318.58" viewBox="0 0 1366 2318.58"><g transform="translate(0 -97.923)"><rect width="1366" height="2318.579" transform="translate(0 97.923)" fill="#40c5ae"/><path d="M803.612,115.47c104.3,251.742-77.4,543.979-6.244,806.813,43.98,162.535,183.7,289.468,343.854,345.4,72.3,25.274,148.334,37.334,224.778,39.134V97.923H795.85Q799.918,106.587,803.612,115.47Z" fill="#40c5ae" style="mix-blend-mode:soft-light;isolation:isolate"/><path d="M1246.582,97.923H1366V614.2c-42.206,13.5-96.4-10.31-121.192-51.075-19.141-31.423-25.623-68.843-27.432-105.429C1211.439,338.065,1250.8,215.175,1246.582,97.923Z" fill="#40c5ae" style="mix-blend-mode:soft-light;isolation:isolate"/><path d="M1134.388,2416.5H0V270.131a383.711,383.711,0,0,1,97.925-5.468c101.01,7.611,197.492,62.068,255.924,144.488,156.413,220.564,15.74,547.311,143.617,785.436,42.267,78.727,112.7,144.572,131.189,231.924,21.346,100.995-32.641,205.8-15.032,307.495,19.336,111.734,117.4,189.7,200.917,266.763A1557.944,1557.944,0,0,1,1134.388,2416.5Z" fill="#40c5ae" style="mix-blend-mode:soft-light;isolation:isolate"/><path d="M717.493,2416.5H0V586.334c85.355,12.417,165.9,41.924,222.518,100.206,96.707,99.558,98.887,254.977,86.148,392.827-12.74,137.877-32.3,286.229,35.954,406.9,44.73,79.061,124.989,141,141.465,230.228,14.863,80.5-26.838,165.273-3.878,243.855,19.364,66.194,79.268,110.849,125.131,162.57A451.5,451.5,0,0,1,714.86,2350.59,271.026,271.026,0,0,1,717.493,2416.5Z" fill="#40c5ae" style="mix-blend-mode:soft-light;isolation:isolate"/><path d="M327.888,2416.5H0V1253.329c31.113,15.419,57.753,33.458,70.011,46.65,41.814,44.93,56.366,108.718,60.074,169.856,5.266,86.7-7.955,173.6-5.577,260.478,2.35,86.845,23.016,178.256,84.025,240.381,31.764,32.33,72.247,54.514,108.144,82.278,35.869,27.736,68.822,64.352,74.937,109.169,10.7,78.3-62.4,146.348-64.065,225.357C327.35,2396.941,328.058,2406.862,327.888,2416.5Z" fill="#40c5ae" style="mix-blend-mode:soft-light;isolation:isolate"/></g></svg>