<svg xmlns="http://www.w3.org/2000/svg" width="1366" height="1239.021" viewBox="0 0 1366 1239.021"><g transform="translate(0.001 -98.023)"><rect width="1366" height="1239.02" transform="translate(-0.001 98.024)" fill="#d8d7b0"/><path d="M795.849,98.024q4.065,8.67,7.76,17.549c104.3,251.741-77.4,543.981-6.24,806.81,43.98,162.541,183.7,289.471,343.85,345.4,72.3,25.279,148.34,37.339,224.78,39.14V98.024Z" fill="#d8d7b0" style="mix-blend-mode:soft-light;isolation:isolate"/><path d="M1246.581,98.027H1366V614.3c-42.206,13.5-96.4-10.31-121.192-51.076-19.141-31.423-25.624-68.842-27.432-105.429C1211.438,338.169,1250.8,215.278,1246.581,98.027Z" fill="#d8d7b0" style="mix-blend-mode:soft-light;isolation:isolate"/><path d="M591.039,1337.044H0V270.234a383.882,383.882,0,0,1,97.92-5.471c101.02,7.611,197.5,62.071,255.93,144.491,156.41,220.569,15.74,547.309,143.62,785.439C524.149,1244.394,562.059,1288.954,591.039,1337.044Z" fill="#d8d7b0" style="mix-blend-mode:soft-light;isolation:isolate"/><path d="M308.669,1079.474c-7.84,84.849-18.27,173.67-9.21,257.57H0V586.433c85.36,12.421,165.9,41.931,222.52,100.211C319.229,786.2,321.409,941.623,308.669,1079.474Z" fill="#d8d7b0" style="mix-blend-mode:soft-light;isolation:isolate"/><path d="M96.559,1337.044H0v-83.611c31.11,15.421,57.75,33.461,70.01,46.651A184.717,184.717,0,0,1,96.559,1337.044Z" fill="#d8d7b0" style="mix-blend-mode:soft-light;isolation:isolate"/></g></svg>