<svg xmlns="http://www.w3.org/2000/svg" xmlns:xlink="http://www.w3.org/1999/xlink" width="1131.246" height="259.009" viewBox="0 0 1131.246 259.009">
  <defs>
    <linearGradient id="linear-gradient" y1="0.5" x2="1" y2="0.5" gradientUnits="objectBoundingBox">
      <stop offset="0" stop-color="#414042"/>
      <stop offset="1"/>
    </linearGradient>
    <linearGradient id="linear-gradient-2" x1="-103.852" y1="51.716" x2="-102.852" y2="51.716" xlink:href="#linear-gradient"/>
    <linearGradient id="linear-gradient-3" x1="-59.326" y1="29.789" x2="-58.326" y2="29.789" xlink:href="#linear-gradient"/>
  </defs>
  <g id="Group_10857" data-name="Group 10857" transform="translate(-93.136 -1585.7)">
    <g id="_1" data-name="1" opacity="0.3">
      <g id="Group_4033" data-name="Group 4033">
        <g id="Group_4030" data-name="Group 4030">
          <path id="Path_5312" data-name="Path 5312" d="M555.747,1685.095l27.054,16.5-3.482-26.627Z" fill="#fff"/>
        </g>
        <g id="Group_4032" data-name="Group 4032">
          <g id="Group_4031" data-name="Group 4031">
            <path id="Path_5313" data-name="Path 5313" d="M564.835,1677.31a11.827,11.827,0,0,1,5.256,15.332,10.683,10.683,0,0,1-14.511,5.555,11.834,11.834,0,0,1-5.259-15.334A10.686,10.686,0,0,1,564.835,1677.31Zm-.222.5A10.171,10.171,0,0,0,550.8,1683.1a11.263,11.263,0,0,0,5,14.595,10.171,10.171,0,0,0,13.816-5.286A11.264,11.264,0,0,0,564.613,1677.812Z" fill="#fff"/>
          </g>
        </g>
      </g>
      <g id="Group_4036" data-name="Group 4036">
        <g id="Group_4035" data-name="Group 4035">
          <g id="Group_4034" data-name="Group 4034">
            <path id="Path_5314" data-name="Path 5314" d="M754.973,1624.378a10.624,10.624,0,0,1,14.834,4.505,11.894,11.894,0,0,1-4.263,15.674,10.627,10.627,0,0,1-14.836-4.5A11.9,11.9,0,0,1,754.973,1624.378Zm.255.485a11.323,11.323,0,0,0-4.061,14.92,10.117,10.117,0,0,0,14.121,4.289,11.325,11.325,0,0,0,4.06-14.921A10.117,10.117,0,0,0,755.228,1624.863Z" fill="#231f20"/>
          </g>
        </g>
      </g>
      <g id="Group_4040" data-name="Group 4040">
        <g id="Group_4039" data-name="Group 4039">
          <g id="Group_4038" data-name="Group 4038">
            <g id="Group_4037" data-name="Group 4037">
              <path id="Path_5315" data-name="Path 5315" d="M855.135,1723.534a3.313,3.313,0,0,1-1.473,4.294,2.991,2.991,0,0,1-4.065-1.555,3.315,3.315,0,0,1,1.473-4.294A2.992,2.992,0,0,1,855.135,1723.534Z" fill="#231f20"/>
            </g>
          </g>
        </g>
      </g>
      <g id="Group_4041" data-name="Group 4041">
        <path id="Path_5316" data-name="Path 5316" d="M822.93,1795.707a3.883,3.883,0,0,1,3.492-.907,2.8,2.8,0,0,0,2.545-.557c.679-.67.649-1.361.547-2.428a3.6,3.6,0,0,1,4.434-4.426,2.788,2.788,0,0,0,2.54-.554c.678-.67.647-1.357.549-2.431a3.591,3.591,0,0,1,4.428-4.421,2.787,2.787,0,0,0,2.542-.557c.679-.67.651-1.361.547-2.427a3.588,3.588,0,0,1,4.426-4.42,2.794,2.794,0,0,0,2.543-.558l.844.956a3.885,3.885,0,0,1-3.495.9,2.774,2.774,0,0,0-2.539.557c-.679.667-.651,1.352-.547,2.425a3.593,3.593,0,0,1-4.429,4.421,2.785,2.785,0,0,0-2.54.559c-.681.672-.652,1.354-.551,2.429a3.59,3.59,0,0,1-4.429,4.42,2.784,2.784,0,0,0-2.54.558c-.681.675-.653,1.364-.55,2.433a3.593,3.593,0,0,1-4.433,4.419,2.78,2.78,0,0,0-2.54.559Z" fill="#231f20"/>
      </g>
      <g id="Group_4043" data-name="Group 4043">
        <g id="Group_4042" data-name="Group 4042">
          <path id="Path_5317" data-name="Path 5317" d="M736.407,1601.727l-7.583-8.016,7.583-8.011,7.584,8.011Zm-6.249-8.016,6.249,6.6,6.249-6.6-6.249-6.6Z" fill="#231f20"/>
        </g>
      </g>
      <g id="Group_4044" data-name="Group 4044">
        <path id="Path_5318" data-name="Path 5318" d="M682.26,1783.249l5.433-5.737-5.433-5.74-5.43,5.74Z" fill="#fff"/>
      </g>
      <g id="Group_4061" data-name="Group 4061">
        <g id="Group_4045" data-name="Group 4045">
          <path id="Path_5319" data-name="Path 5319" d="M544.9,1745.487a1.864,1.864,0,1,0,1.863-1.965A1.917,1.917,0,0,0,544.9,1745.487Z" fill="#231f20"/>
        </g>
        <g id="Group_4046" data-name="Group 4046">
          <path id="Path_5320" data-name="Path 5320" d="M533.849,1745.487a1.864,1.864,0,1,0,1.859-1.965A1.916,1.916,0,0,0,533.849,1745.487Z" fill="#231f20"/>
        </g>
        <g id="Group_4047" data-name="Group 4047">
          <path id="Path_5321" data-name="Path 5321" d="M522.8,1745.487a1.864,1.864,0,1,0,1.859-1.965A1.915,1.915,0,0,0,522.8,1745.487Z" fill="#231f20"/>
        </g>
        <g id="Group_4048" data-name="Group 4048">
          <path id="Path_5322" data-name="Path 5322" d="M511.743,1745.487a1.863,1.863,0,1,0,1.861-1.965A1.915,1.915,0,0,0,511.743,1745.487Z" fill="#231f20"/>
        </g>
        <g id="Group_4049" data-name="Group 4049">
          <path id="Path_5323" data-name="Path 5323" d="M544.9,1755.218a1.864,1.864,0,1,0,1.863-1.965A1.915,1.915,0,0,0,544.9,1755.218Z" fill="#231f20"/>
        </g>
        <g id="Group_4050" data-name="Group 4050">
          <path id="Path_5324" data-name="Path 5324" d="M533.849,1755.218a1.864,1.864,0,1,0,1.859-1.965A1.914,1.914,0,0,0,533.849,1755.218Z" fill="#231f20"/>
        </g>
        <g id="Group_4051" data-name="Group 4051">
          <path id="Path_5325" data-name="Path 5325" d="M522.8,1755.218a1.864,1.864,0,1,0,1.859-1.965A1.913,1.913,0,0,0,522.8,1755.218Z" fill="#231f20"/>
        </g>
        <g id="Group_4052" data-name="Group 4052">
          <path id="Path_5326" data-name="Path 5326" d="M511.743,1755.218a1.863,1.863,0,1,0,1.861-1.965A1.913,1.913,0,0,0,511.743,1755.218Z" fill="#231f20"/>
        </g>
        <g id="Group_4053" data-name="Group 4053">
          <path id="Path_5327" data-name="Path 5327" d="M544.9,1764.952a1.864,1.864,0,1,0,1.863-1.965A1.916,1.916,0,0,0,544.9,1764.952Z" fill="#231f20"/>
        </g>
        <g id="Group_4054" data-name="Group 4054">
          <path id="Path_5328" data-name="Path 5328" d="M533.849,1764.952a1.864,1.864,0,1,0,1.859-1.965A1.916,1.916,0,0,0,533.849,1764.952Z" fill="#231f20"/>
        </g>
        <g id="Group_4055" data-name="Group 4055">
          <path id="Path_5329" data-name="Path 5329" d="M522.8,1764.952a1.864,1.864,0,1,0,1.859-1.965A1.914,1.914,0,0,0,522.8,1764.952Z" fill="#231f20"/>
        </g>
        <g id="Group_4056" data-name="Group 4056">
          <path id="Path_5330" data-name="Path 5330" d="M511.743,1764.952a1.863,1.863,0,1,0,1.861-1.965A1.915,1.915,0,0,0,511.743,1764.952Z" fill="#231f20"/>
        </g>
        <g id="Group_4057" data-name="Group 4057">
          <path id="Path_5331" data-name="Path 5331" d="M544.9,1774.682a1.864,1.864,0,1,0,1.863-1.967A1.915,1.915,0,0,0,544.9,1774.682Z" fill="#231f20"/>
        </g>
        <g id="Group_4058" data-name="Group 4058">
          <path id="Path_5332" data-name="Path 5332" d="M533.849,1774.682a1.864,1.864,0,1,0,1.859-1.967A1.915,1.915,0,0,0,533.849,1774.682Z" fill="#231f20"/>
        </g>
        <g id="Group_4059" data-name="Group 4059">
          <path id="Path_5333" data-name="Path 5333" d="M522.8,1774.682a1.864,1.864,0,1,0,1.859-1.967A1.913,1.913,0,0,0,522.8,1774.682Z" fill="#231f20"/>
        </g>
        <g id="Group_4060" data-name="Group 4060">
          <path id="Path_5334" data-name="Path 5334" d="M511.743,1774.682a1.863,1.863,0,1,0,1.861-1.967A1.914,1.914,0,0,0,511.743,1774.682Z" fill="#231f20"/>
        </g>
      </g>
      <g id="Group_4078" data-name="Group 4078">
        <g id="Group_4062" data-name="Group 4062">
          <path id="Path_5335" data-name="Path 5335" d="M661.993,1634.316a1.085,1.085,0,1,0,1.082-1.142A1.114,1.114,0,0,0,661.993,1634.316Z" fill="#231f20"/>
        </g>
        <g id="Group_4063" data-name="Group 4063">
          <path id="Path_5336" data-name="Path 5336" d="M655.565,1634.316a1.084,1.084,0,1,0,1.081-1.142A1.115,1.115,0,0,0,655.565,1634.316Z" fill="#231f20"/>
        </g>
        <g id="Group_4064" data-name="Group 4064">
          <path id="Path_5337" data-name="Path 5337" d="M649.134,1634.316a1.084,1.084,0,1,0,1.082-1.142A1.116,1.116,0,0,0,649.134,1634.316Z" fill="#231f20"/>
        </g>
        <g id="Group_4065" data-name="Group 4065">
          <path id="Path_5338" data-name="Path 5338" d="M642.7,1634.316a1.084,1.084,0,1,0,1.085-1.142A1.115,1.115,0,0,0,642.7,1634.316Z" fill="#231f20"/>
        </g>
        <g id="Group_4066" data-name="Group 4066">
          <path id="Path_5339" data-name="Path 5339" d="M661.993,1639.977a1.085,1.085,0,1,0,1.082-1.144A1.112,1.112,0,0,0,661.993,1639.977Z" fill="#231f20"/>
        </g>
        <g id="Group_4067" data-name="Group 4067">
          <path id="Path_5340" data-name="Path 5340" d="M655.565,1639.977a1.084,1.084,0,1,0,1.081-1.144A1.113,1.113,0,0,0,655.565,1639.977Z" fill="#231f20"/>
        </g>
        <g id="Group_4068" data-name="Group 4068">
          <path id="Path_5341" data-name="Path 5341" d="M649.134,1639.977a1.084,1.084,0,1,0,1.082-1.144A1.114,1.114,0,0,0,649.134,1639.977Z" fill="#231f20"/>
        </g>
        <g id="Group_4069" data-name="Group 4069">
          <path id="Path_5342" data-name="Path 5342" d="M642.7,1639.977a1.084,1.084,0,1,0,1.085-1.144A1.114,1.114,0,0,0,642.7,1639.977Z" fill="#231f20"/>
        </g>
        <g id="Group_4070" data-name="Group 4070">
          <path id="Path_5343" data-name="Path 5343" d="M661.993,1645.64a1.085,1.085,0,1,0,1.082-1.142A1.117,1.117,0,0,0,661.993,1645.64Z" fill="#231f20"/>
        </g>
        <g id="Group_4071" data-name="Group 4071">
          <path id="Path_5344" data-name="Path 5344" d="M655.565,1645.64a1.084,1.084,0,1,0,1.081-1.142A1.117,1.117,0,0,0,655.565,1645.64Z" fill="#231f20"/>
        </g>
        <g id="Group_4072" data-name="Group 4072">
          <path id="Path_5345" data-name="Path 5345" d="M649.134,1645.64a1.084,1.084,0,1,0,1.082-1.142A1.118,1.118,0,0,0,649.134,1645.64Z" fill="#231f20"/>
        </g>
        <g id="Group_4073" data-name="Group 4073">
          <path id="Path_5346" data-name="Path 5346" d="M642.7,1645.64a1.084,1.084,0,1,0,1.085-1.142A1.118,1.118,0,0,0,642.7,1645.64Z" fill="#231f20"/>
        </g>
        <g id="Group_4074" data-name="Group 4074">
          <path id="Path_5347" data-name="Path 5347" d="M661.993,1651.3a1.085,1.085,0,1,0,1.082-1.145A1.112,1.112,0,0,0,661.993,1651.3Z" fill="#231f20"/>
        </g>
        <g id="Group_4075" data-name="Group 4075">
          <path id="Path_5348" data-name="Path 5348" d="M655.565,1651.3a1.084,1.084,0,1,0,1.081-1.145A1.112,1.112,0,0,0,655.565,1651.3Z" fill="#231f20"/>
        </g>
        <g id="Group_4076" data-name="Group 4076">
          <path id="Path_5349" data-name="Path 5349" d="M649.134,1651.3a1.084,1.084,0,1,0,1.082-1.145A1.113,1.113,0,0,0,649.134,1651.3Z" fill="#231f20"/>
        </g>
        <g id="Group_4077" data-name="Group 4077">
          <path id="Path_5350" data-name="Path 5350" d="M642.7,1651.3a1.084,1.084,0,1,0,1.085-1.145A1.113,1.113,0,0,0,642.7,1651.3Z" fill="#231f20"/>
        </g>
      </g>
      <g id="Group_4079" data-name="Group 4079">
        <path id="Path_5351" data-name="Path 5351" d="M694.947,1817.516a1.607,1.607,0,1,0-1.583,1.716A1.646,1.646,0,0,0,694.947,1817.516Z" fill="#fff"/>
        <path id="Path_5352" data-name="Path 5352" d="M701.3,1817.428a1.607,1.607,0,1,0-1.584,1.719A1.646,1.646,0,0,0,701.3,1817.428Z" fill="#fff"/>
        <path id="Path_5353" data-name="Path 5353" d="M707.654,1817.343a1.607,1.607,0,1,0-1.585,1.716A1.649,1.649,0,0,0,707.654,1817.343Z" fill="#fff"/>
        <path id="Path_5354" data-name="Path 5354" d="M713.211,1817.269a1.607,1.607,0,1,0-1.582,1.716A1.646,1.646,0,0,0,713.211,1817.269Z" fill="#fff"/>
        <path id="Path_5355" data-name="Path 5355" d="M719.762,1817.183a1.606,1.606,0,1,0-1.582,1.716A1.645,1.645,0,0,0,719.762,1817.183Z" fill="#fff"/>
        <path id="Path_5356" data-name="Path 5356" d="M726.116,1817.1a1.608,1.608,0,1,0-1.586,1.716A1.648,1.648,0,0,0,726.116,1817.1Z" fill="#fff"/>
        <path id="Path_5357" data-name="Path 5357" d="M732.468,1817.01a1.607,1.607,0,1,0-1.585,1.72A1.649,1.649,0,0,0,732.468,1817.01Z" fill="#fff"/>
        <path id="Path_5358" data-name="Path 5358" d="M739.615,1816.918a1.607,1.607,0,1,0-1.583,1.716A1.649,1.649,0,0,0,739.615,1816.918Z" fill="#fff"/>
        <path id="Path_5359" data-name="Path 5359" d="M701.386,1824.561a1.607,1.607,0,1,0-1.584,1.716A1.648,1.648,0,0,0,701.386,1824.561Z" fill="#fff"/>
        <path id="Path_5360" data-name="Path 5360" d="M707.739,1824.476a1.608,1.608,0,1,0-1.584,1.716A1.652,1.652,0,0,0,707.739,1824.476Z" fill="#fff"/>
        <path id="Path_5361" data-name="Path 5361" d="M713.3,1824.4a1.607,1.607,0,1,0-1.584,1.715A1.649,1.649,0,0,0,713.3,1824.4Z" fill="#fff"/>
        <path id="Path_5362" data-name="Path 5362" d="M719.849,1824.312a1.607,1.607,0,1,0-1.585,1.718A1.654,1.654,0,0,0,719.849,1824.312Z" fill="#fff"/>
        <path id="Path_5363" data-name="Path 5363" d="M726.2,1824.231a1.607,1.607,0,1,0-1.585,1.715A1.647,1.647,0,0,0,726.2,1824.231Z" fill="#fff"/>
        <path id="Path_5364" data-name="Path 5364" d="M732.555,1824.143a1.608,1.608,0,1,0-1.587,1.718A1.65,1.65,0,0,0,732.555,1824.143Z" fill="#fff"/>
        <path id="Path_5365" data-name="Path 5365" d="M707.822,1831.313a1.607,1.607,0,1,0-1.585,1.715A1.646,1.646,0,0,0,707.822,1831.313Z" fill="#fff"/>
        <path id="Path_5366" data-name="Path 5366" d="M713.377,1831.24a1.606,1.606,0,1,0-1.582,1.713A1.647,1.647,0,0,0,713.377,1831.24Z" fill="#fff"/>
        <path id="Path_5367" data-name="Path 5367" d="M719.929,1831.151a1.607,1.607,0,1,0-1.582,1.716A1.648,1.648,0,0,0,719.929,1831.151Z" fill="#fff"/>
        <path id="Path_5368" data-name="Path 5368" d="M726.284,1831.066a1.608,1.608,0,1,0-1.585,1.717A1.649,1.649,0,0,0,726.284,1831.066Z" fill="#fff"/>
        <path id="Path_5369" data-name="Path 5369" d="M713.45,1837.178a1.607,1.607,0,1,0-1.582,1.718A1.648,1.648,0,0,0,713.45,1837.178Z" fill="#fff"/>
        <path id="Path_5370" data-name="Path 5370" d="M720,1837.092a1.606,1.606,0,1,0-1.581,1.718A1.646,1.646,0,0,0,720,1837.092Z" fill="#fff"/>
        <path id="Path_5371" data-name="Path 5371" d="M716.728,1842.993a1.607,1.607,0,1,0-1.583,1.716A1.644,1.644,0,0,0,716.728,1842.993Z" fill="#fff"/>
      </g>
      <g id="Group_4080" data-name="Group 4080">
        <path id="Path_5372" data-name="Path 5372" d="M598.925,1641.454a3.8,3.8,0,0,0-3.533-.23,2.711,2.711,0,0,1-2.551-.071c-.744-.54-.854-1.195-.934-2.249a3.73,3.73,0,0,0-1.489-3.233,3.8,3.8,0,0,0-3.533-.23,2.707,2.707,0,0,1-2.549-.069c-.744-.544-.856-1.2-.932-2.25a3.7,3.7,0,0,0-1.49-3.23,3.78,3.78,0,0,0-3.529-.23,2.722,2.722,0,0,1-2.551-.069c-.767-.547-.855-1.2-.931-2.25a3.465,3.465,0,0,0-5.017-3.459,2.715,2.715,0,0,1-2.55-.071l-.658,1.083a3.783,3.783,0,0,0,3.531.229,2.716,2.716,0,0,1,2.549.068c.766.547.854,1.2.931,2.25a3.686,3.686,0,0,0,1.487,3.231,3.792,3.792,0,0,0,3.53.228,2.728,2.728,0,0,1,2.551.07c.775.546.855,1.2.932,2.25a3.465,3.465,0,0,0,5.018,3.459,2.721,2.721,0,0,1,2.552.072c.756.535.857,1.2.936,2.251a3.692,3.692,0,0,0,1.486,3.231,3.8,3.8,0,0,0,3.533.231,2.716,2.716,0,0,1,2.553.072Z" fill="#fff"/>
      </g>
      <g id="Group_4083" data-name="Group 4083">
        <g id="Group_4081" data-name="Group 4081">
          <path id="Path_5373" data-name="Path 5373" d="M633.794,1818.9a7.216,7.216,0,1,1-7.206-7.612A7.424,7.424,0,0,1,633.794,1818.9Zm-13.787,0a6.592,6.592,0,1,0,6.581-6.954A6.782,6.782,0,0,0,620.007,1818.9Z" fill="#231f20"/>
        </g>
        <g id="Group_4082" data-name="Group 4082">
          <path id="Path_5374" data-name="Path 5374" d="M631.716,1818.9a5.135,5.135,0,1,1-5.128-5.417A5.284,5.284,0,0,1,631.716,1818.9Zm-9.629,0a4.509,4.509,0,1,0,4.5-4.758A4.641,4.641,0,0,0,622.087,1818.9Z" fill="#231f20"/>
        </g>
      </g>
      <g id="Group_4084" data-name="Group 4084">
        <path id="Path_5375" data-name="Path 5375" d="M838.681,1660.649l-.69.73-13.675-14.448,13.129-13.87.691.728L825.7,1646.93Z" fill="#231f20"/>
      </g>
    </g>
    <g id="_2" data-name="2" opacity="0.3">
      <g id="Group_4086" data-name="Group 4086">
        <path id="Path_5376" data-name="Path 5376" d="M398.962,1649.6l-7.772,9.754,10.158.121Z" fill="#fff"/>
      </g>
      <g id="Group_4088" data-name="Group 4088">
        <g id="Group_4087" data-name="Group 4087">
          <rect id="Rectangle_1019" data-name="Rectangle 1019" width="11.583" height="11.582" transform="translate(261.477 1808.49) rotate(-28.437)" fill="#fff"/>
        </g>
      </g>
      <g id="Group_4091" data-name="Group 4091">
        <g id="Group_4089" data-name="Group 4089">
          <path id="Path_5377" data-name="Path 5377" d="M375.461,1784.516l-11.985-16.55,16.553-11.985,11.984,16.551Zm-10.312-16.283,10.578,14.61,14.612-10.58-10.578-14.609Z" fill="#fff"/>
        </g>
        <g id="Group_4090" data-name="Group 4090">
          <path id="Path_5378" data-name="Path 5378" d="M391.43,1766.371a11.354,11.354,0,1,1-9.023,13.283A11.363,11.363,0,0,1,391.43,1766.371Zm.1.538a10.806,10.806,0,1,0,12.643,8.585A10.819,10.819,0,0,0,391.534,1766.909Z" fill="#fff"/>
        </g>
      </g>
      <g id="Group_4108" data-name="Group 4108">
        <g id="Group_4092" data-name="Group 4092">
          <path id="Path_5379" data-name="Path 5379" d="M236.036,1770.213a1.927,1.927,0,1,0,1.925-1.922A1.927,1.927,0,0,0,236.036,1770.213Z" fill="#fff"/>
        </g>
        <g id="Group_4093" data-name="Group 4093">
          <path id="Path_5380" data-name="Path 5380" d="M224.6,1770.213a1.926,1.926,0,1,0,1.925-1.922A1.927,1.927,0,0,0,224.6,1770.213Z" fill="#fff"/>
        </g>
        <g id="Group_4094" data-name="Group 4094">
          <path id="Path_5381" data-name="Path 5381" d="M213.159,1770.213a1.925,1.925,0,1,0,1.924-1.922A1.926,1.926,0,0,0,213.159,1770.213Z" fill="#fff"/>
        </g>
        <g id="Group_4095" data-name="Group 4095">
          <path id="Path_5382" data-name="Path 5382" d="M201.718,1770.213a1.926,1.926,0,1,0,1.929-1.922A1.928,1.928,0,0,0,201.718,1770.213Z" fill="#fff"/>
        </g>
        <g id="Group_4096" data-name="Group 4096">
          <path id="Path_5383" data-name="Path 5383" d="M236.036,1779.746a1.927,1.927,0,1,0,1.925-1.925A1.923,1.923,0,0,0,236.036,1779.746Z" fill="#fff"/>
        </g>
        <g id="Group_4097" data-name="Group 4097">
          <path id="Path_5384" data-name="Path 5384" d="M224.6,1779.746a1.925,1.925,0,1,0,1.925-1.925A1.923,1.923,0,0,0,224.6,1779.746Z" fill="#fff"/>
        </g>
        <g id="Group_4098" data-name="Group 4098">
          <path id="Path_5385" data-name="Path 5385" d="M213.159,1779.746a1.925,1.925,0,1,0,1.924-1.925A1.923,1.923,0,0,0,213.159,1779.746Z" fill="#fff"/>
        </g>
        <g id="Group_4099" data-name="Group 4099">
          <path id="Path_5386" data-name="Path 5386" d="M201.718,1779.746a1.925,1.925,0,1,0,1.929-1.925A1.925,1.925,0,0,0,201.718,1779.746Z" fill="#fff"/>
        </g>
        <g id="Group_4100" data-name="Group 4100">
          <path id="Path_5387" data-name="Path 5387" d="M236.036,1789.284a1.927,1.927,0,1,0,1.925-1.925A1.928,1.928,0,0,0,236.036,1789.284Z" fill="#fff"/>
        </g>
        <g id="Group_4101" data-name="Group 4101">
          <path id="Path_5388" data-name="Path 5388" d="M224.6,1789.284a1.925,1.925,0,1,0,1.925-1.925A1.928,1.928,0,0,0,224.6,1789.284Z" fill="#fff"/>
        </g>
        <g id="Group_4102" data-name="Group 4102">
          <path id="Path_5389" data-name="Path 5389" d="M213.159,1789.284a1.925,1.925,0,1,0,1.924-1.925A1.927,1.927,0,0,0,213.159,1789.284Z" fill="#fff"/>
        </g>
        <g id="Group_4103" data-name="Group 4103">
          <path id="Path_5390" data-name="Path 5390" d="M201.718,1789.284a1.925,1.925,0,1,0,1.929-1.925A1.929,1.929,0,0,0,201.718,1789.284Z" fill="#fff"/>
        </g>
        <g id="Group_4104" data-name="Group 4104">
          <path id="Path_5391" data-name="Path 5391" d="M236.036,1798.814a1.927,1.927,0,1,0,1.925-1.926A1.924,1.924,0,0,0,236.036,1798.814Z" fill="#fff"/>
        </g>
        <g id="Group_4105" data-name="Group 4105">
          <path id="Path_5392" data-name="Path 5392" d="M224.6,1798.814a1.925,1.925,0,1,0,1.925-1.926A1.924,1.924,0,0,0,224.6,1798.814Z" fill="#fff"/>
        </g>
        <g id="Group_4106" data-name="Group 4106">
          <path id="Path_5393" data-name="Path 5393" d="M213.159,1798.814a1.925,1.925,0,1,0,1.924-1.926A1.923,1.923,0,0,0,213.159,1798.814Z" fill="#fff"/>
        </g>
        <g id="Group_4107" data-name="Group 4107">
          <path id="Path_5394" data-name="Path 5394" d="M201.718,1798.814a1.925,1.925,0,1,0,1.929-1.926A1.926,1.926,0,0,0,201.718,1798.814Z" fill="#fff"/>
        </g>
      </g>
      <g id="Group_4109" data-name="Group 4109">
        <path id="Path_5395" data-name="Path 5395" d="M307.808,1806.689a1.334,1.334,0,1,0-1.316,1.35A1.332,1.332,0,0,0,307.808,1806.689Z" fill="#231f20"/>
        <path id="Path_5396" data-name="Path 5396" d="M313.089,1806.62a1.334,1.334,0,1,0-1.317,1.352A1.332,1.332,0,0,0,313.089,1806.62Z" fill="#231f20"/>
        <path id="Path_5397" data-name="Path 5397" d="M318.371,1806.553a1.335,1.335,0,1,0-1.317,1.351A1.334,1.334,0,0,0,318.371,1806.553Z" fill="#231f20"/>
        <path id="Path_5398" data-name="Path 5398" d="M322.991,1806.495a1.334,1.334,0,1,0-1.316,1.35A1.333,1.333,0,0,0,322.991,1806.495Z" fill="#231f20"/>
        <path id="Path_5399" data-name="Path 5399" d="M328.436,1806.427a1.333,1.333,0,1,0-1.315,1.35A1.33,1.33,0,0,0,328.436,1806.427Z" fill="#231f20"/>
        <path id="Path_5400" data-name="Path 5400" d="M333.718,1806.36a1.335,1.335,0,1,0-1.318,1.35A1.333,1.333,0,0,0,333.718,1806.36Z" fill="#231f20"/>
        <path id="Path_5401" data-name="Path 5401" d="M339,1806.291a1.334,1.334,0,1,0-1.317,1.353A1.333,1.333,0,0,0,339,1806.291Z" fill="#231f20"/>
        <path id="Path_5402" data-name="Path 5402" d="M344.939,1806.219a1.334,1.334,0,1,0-1.316,1.35A1.333,1.333,0,0,0,344.939,1806.219Z" fill="#231f20"/>
        <path id="Path_5403" data-name="Path 5403" d="M313.16,1812.231a1.334,1.334,0,1,0-1.316,1.351A1.333,1.333,0,0,0,313.16,1812.231Z" fill="#231f20"/>
        <path id="Path_5404" data-name="Path 5404" d="M318.441,1812.165a1.334,1.334,0,1,0-1.316,1.35A1.336,1.336,0,0,0,318.441,1812.165Z" fill="#231f20"/>
        <path id="Path_5405" data-name="Path 5405" d="M323.062,1812.108a1.334,1.334,0,1,0-1.316,1.349A1.334,1.334,0,0,0,323.062,1812.108Z" fill="#231f20"/>
        <path id="Path_5406" data-name="Path 5406" d="M328.509,1812.036a1.334,1.334,0,1,0-1.318,1.352A1.339,1.339,0,0,0,328.509,1812.036Z" fill="#231f20"/>
        <path id="Path_5407" data-name="Path 5407" d="M333.788,1811.972a1.334,1.334,0,1,0-1.317,1.349A1.331,1.331,0,0,0,333.788,1811.972Z" fill="#231f20"/>
        <path id="Path_5408" data-name="Path 5408" d="M339.07,1811.9a1.335,1.335,0,1,0-1.319,1.352A1.333,1.333,0,0,0,339.07,1811.9Z" fill="#231f20"/>
        <path id="Path_5409" data-name="Path 5409" d="M318.51,1817.544a1.335,1.335,0,1,0-1.317,1.349A1.331,1.331,0,0,0,318.51,1817.544Z" fill="#231f20"/>
        <path id="Path_5410" data-name="Path 5410" d="M323.128,1817.487a1.333,1.333,0,1,0-1.315,1.348A1.332,1.332,0,0,0,323.128,1817.487Z" fill="#231f20"/>
        <path id="Path_5411" data-name="Path 5411" d="M328.575,1817.416a1.334,1.334,0,1,0-1.315,1.351A1.333,1.333,0,0,0,328.575,1817.416Z" fill="#231f20"/>
        <path id="Path_5412" data-name="Path 5412" d="M333.857,1817.35a1.334,1.334,0,1,0-1.317,1.35A1.332,1.332,0,0,0,333.857,1817.35Z" fill="#231f20"/>
        <path id="Path_5413" data-name="Path 5413" d="M323.189,1822.158a1.334,1.334,0,1,0-1.315,1.352A1.333,1.333,0,0,0,323.189,1822.158Z" fill="#231f20"/>
        <path id="Path_5414" data-name="Path 5414" d="M328.634,1822.091a1.333,1.333,0,1,0-1.315,1.351A1.333,1.333,0,0,0,328.634,1822.091Z" fill="#231f20"/>
        <path id="Path_5415" data-name="Path 5415" d="M325.915,1826.733a1.334,1.334,0,1,0-1.317,1.351A1.331,1.331,0,0,0,325.915,1826.733Z" fill="#231f20"/>
      </g>
      <g id="Group_4110" data-name="Group 4110">
        <path id="Path_5416" data-name="Path 5416" d="M342.52,1609.322c1.757,1.18,3.4.768,4.856.4,1.326-.332,2.377-.6,3.509.165,1.045.7,1.146,1.58,1.226,2.956s.175,3.047,1.956,4.257c1.755,1.178,3.4.765,4.856.4,1.33-.335,2.373-.6,3.508.162,1.043.707,1.143,1.576,1.223,2.959.07,1.357.168,3.049,1.953,4.251,1.757,1.183,3.4.768,4.858.4,1.327-.336,2.373-.6,3.5.166,1.045.7,1.146,1.578,1.223,2.952.077,1.353.165,3.049,1.956,4.252,1.751,1.18,3.4.765,4.847.4,1.333-.335,2.381-.6,3.512.166l.939-1.389c-1.755-1.183-3.4-.768-4.854-.4-1.327.332-2.375.6-3.508-.168-1.04-.7-1.144-1.57-1.217-2.95-.083-1.361-.173-3.049-1.957-4.253-1.755-1.181-3.4-.765-4.851-.4-1.331.333-2.378.6-3.512-.164-1.044-.705-1.143-1.574-1.223-2.959-.077-1.357-.171-3.047-1.959-4.25-1.753-1.183-3.4-.769-4.849-.4-1.329.334-2.378.6-3.511-.166-1.045-.7-1.146-1.587-1.222-2.959s-.173-3.049-1.964-4.251c-1.751-1.181-3.4-.766-4.852-.4-1.326.335-2.377.594-3.51-.167Z" fill="#fff"/>
      </g>
      <g id="Group_4114" data-name="Group 4114">
        <g id="Group_4112" data-name="Group 4112">
          <g id="Group_4111" data-name="Group 4111">
            <path id="Path_5417" data-name="Path 5417" d="M433.609,1620.868a7.838,7.838,0,1,1-10.487-3.6A7.843,7.843,0,0,1,433.609,1620.868Zm-13.741,6.726a7.462,7.462,0,1,0,3.422-9.983A7.47,7.47,0,0,0,419.868,1627.594Z" fill="#231f20"/>
          </g>
        </g>
        <g id="Group_4113" data-name="Group 4113">
          <path id="Path_5418" data-name="Path 5418" d="M422.674,1615.638v6.437h-6.439v-6.437Zm-.379,6.058v-5.679h-5.681v5.679Z" fill="#231f20"/>
        </g>
      </g>
      <g id="Group_4131" data-name="Group 4131">
        <g id="Group_4115" data-name="Group 4115">
          <path id="Path_5419" data-name="Path 5419" d="M134.3,1620.036a1.095,1.095,0,1,1-1.094,1.095A1.094,1.094,0,0,1,134.3,1620.036Z" fill="#5d5d5d"/>
        </g>
        <g id="Group_4116" data-name="Group 4116">
          <path id="Path_5420" data-name="Path 5420" d="M134.3,1613.538a1.095,1.095,0,1,1-1.094,1.1A1.094,1.094,0,0,1,134.3,1613.538Z" fill="#5d5d5d"/>
        </g>
        <g id="Group_4117" data-name="Group 4117">
          <path id="Path_5421" data-name="Path 5421" d="M134.3,1607.04a1.094,1.094,0,1,1-1.094,1.093A1.093,1.093,0,0,1,134.3,1607.04Z" fill="#5d5d5d"/>
        </g>
        <g id="Group_4118" data-name="Group 4118">
          <path id="Path_5422" data-name="Path 5422" d="M134.3,1600.54a1.094,1.094,0,1,1-1.094,1.095A1.094,1.094,0,0,1,134.3,1600.54Z" fill="#5d5d5d"/>
        </g>
        <g id="Group_4119" data-name="Group 4119">
          <path id="Path_5423" data-name="Path 5423" d="M139.711,1620.036a1.095,1.095,0,1,1-1.093,1.095A1.094,1.094,0,0,1,139.711,1620.036Z" fill="#5d5d5d"/>
        </g>
        <g id="Group_4120" data-name="Group 4120">
          <path id="Path_5424" data-name="Path 5424" d="M139.711,1613.538a1.095,1.095,0,1,1-1.093,1.1A1.094,1.094,0,0,1,139.711,1613.538Z" fill="#5d5d5d"/>
        </g>
        <g id="Group_4121" data-name="Group 4121">
          <path id="Path_5425" data-name="Path 5425" d="M139.711,1607.04a1.094,1.094,0,1,1-1.093,1.093A1.093,1.093,0,0,1,139.711,1607.04Z" fill="#5d5d5d"/>
        </g>
        <g id="Group_4122" data-name="Group 4122">
          <path id="Path_5426" data-name="Path 5426" d="M139.711,1600.54a1.094,1.094,0,1,1-1.093,1.095A1.094,1.094,0,0,1,139.711,1600.54Z" fill="#5d5d5d"/>
        </g>
        <g id="Group_4123" data-name="Group 4123">
          <path id="Path_5427" data-name="Path 5427" d="M145.127,1620.036a1.095,1.095,0,1,1-1.093,1.095A1.094,1.094,0,0,1,145.127,1620.036Z" fill="#5d5d5d"/>
        </g>
        <g id="Group_4124" data-name="Group 4124">
          <path id="Path_5428" data-name="Path 5428" d="M145.127,1613.538a1.095,1.095,0,1,1-1.093,1.1A1.094,1.094,0,0,1,145.127,1613.538Z" fill="#5d5d5d"/>
        </g>
        <g id="Group_4125" data-name="Group 4125">
          <path id="Path_5429" data-name="Path 5429" d="M145.127,1607.04a1.094,1.094,0,1,1-1.093,1.093A1.093,1.093,0,0,1,145.127,1607.04Z" fill="#5d5d5d"/>
        </g>
        <g id="Group_4126" data-name="Group 4126">
          <path id="Path_5430" data-name="Path 5430" d="M145.127,1600.54a1.094,1.094,0,1,1-1.093,1.095A1.094,1.094,0,0,1,145.127,1600.54Z" fill="#5d5d5d"/>
        </g>
        <g id="Group_4127" data-name="Group 4127">
          <path id="Path_5431" data-name="Path 5431" d="M150.542,1620.036a1.095,1.095,0,1,1-1.1,1.095A1.093,1.093,0,0,1,150.542,1620.036Z" fill="#5d5d5d"/>
        </g>
        <g id="Group_4128" data-name="Group 4128">
          <path id="Path_5432" data-name="Path 5432" d="M150.542,1613.538a1.095,1.095,0,1,1-1.1,1.1A1.093,1.093,0,0,1,150.542,1613.538Z" fill="#5d5d5d"/>
        </g>
        <g id="Group_4129" data-name="Group 4129">
          <path id="Path_5433" data-name="Path 5433" d="M150.542,1607.04a1.094,1.094,0,1,1-1.1,1.093A1.092,1.092,0,0,1,150.542,1607.04Z" fill="#5d5d5d"/>
        </g>
        <g id="Group_4130" data-name="Group 4130">
          <path id="Path_5434" data-name="Path 5434" d="M150.542,1600.54a1.094,1.094,0,1,1-1.1,1.095A1.093,1.093,0,0,1,150.542,1600.54Z" fill="#5d5d5d"/>
        </g>
      </g>
      <g id="Group_4148" data-name="Group 4148">
        <g id="Group_4132" data-name="Group 4132">
          <path id="Path_5435" data-name="Path 5435" d="M439.624,1700.32a1.094,1.094,0,1,1-1.373-.713A1.094,1.094,0,0,1,439.624,1700.32Z"/>
        </g>
        <g id="Group_4133" data-name="Group 4133">
          <path id="Path_5436" data-name="Path 5436" d="M445.82,1698.361a1.094,1.094,0,1,1-1.373-.713A1.094,1.094,0,0,1,445.82,1698.361Z"/>
        </g>
        <g id="Group_4134" data-name="Group 4134">
          <path id="Path_5437" data-name="Path 5437" d="M452.016,1696.4a1.094,1.094,0,1,1-1.373-.714A1.093,1.093,0,0,1,452.016,1696.4Z"/>
        </g>
        <g id="Group_4135" data-name="Group 4135">
          <path id="Path_5438" data-name="Path 5438" d="M458.213,1694.442a1.093,1.093,0,1,1-1.374-.713A1.094,1.094,0,0,1,458.213,1694.442Z"/>
        </g>
        <g id="Group_4136" data-name="Group 4136">
          <path id="Path_5439" data-name="Path 5439" d="M441.256,1705.483a1.094,1.094,0,1,1-1.373-.712A1.095,1.095,0,0,1,441.256,1705.483Z"/>
        </g>
        <g id="Group_4137" data-name="Group 4137">
          <path id="Path_5440" data-name="Path 5440" d="M447.453,1703.524a1.095,1.095,0,1,1-1.374-.712A1.1,1.1,0,0,1,447.453,1703.524Z"/>
        </g>
        <g id="Group_4138" data-name="Group 4138">
          <path id="Path_5441" data-name="Path 5441" d="M453.649,1701.565a1.094,1.094,0,1,1-1.372-.713A1.095,1.095,0,0,1,453.649,1701.565Z"/>
        </g>
        <g id="Group_4139" data-name="Group 4139">
          <path id="Path_5442" data-name="Path 5442" d="M459.845,1699.606a1.093,1.093,0,1,1-1.373-.713A1.093,1.093,0,0,1,459.845,1699.606Z"/>
        </g>
        <g id="Group_4140" data-name="Group 4140">
          <path id="Path_5443" data-name="Path 5443" d="M442.889,1710.647a1.095,1.095,0,1,1-1.373-.712A1.1,1.1,0,0,1,442.889,1710.647Z"/>
        </g>
        <g id="Group_4141" data-name="Group 4141">
          <path id="Path_5444" data-name="Path 5444" d="M449.085,1708.688a1.094,1.094,0,1,1-1.373-.712A1.095,1.095,0,0,1,449.085,1708.688Z"/>
        </g>
        <g id="Group_4142" data-name="Group 4142">
          <path id="Path_5445" data-name="Path 5445" d="M455.281,1706.729a1.094,1.094,0,1,1-1.371-.712A1.093,1.093,0,0,1,455.281,1706.729Z"/>
        </g>
        <g id="Group_4143" data-name="Group 4143">
          <path id="Path_5446" data-name="Path 5446" d="M461.478,1704.77a1.093,1.093,0,1,1-1.373-.712A1.093,1.093,0,0,1,461.478,1704.77Z"/>
        </g>
        <g id="Group_4144" data-name="Group 4144">
          <path id="Path_5447" data-name="Path 5447" d="M444.522,1715.81a1.095,1.095,0,1,1-1.374-.713A1.1,1.1,0,0,1,444.522,1715.81Z"/>
        </g>
        <g id="Group_4145" data-name="Group 4145">
          <path id="Path_5448" data-name="Path 5448" d="M450.717,1713.851a1.094,1.094,0,1,1-1.373-.713A1.093,1.093,0,0,1,450.717,1713.851Z"/>
        </g>
        <g id="Group_4146" data-name="Group 4146">
          <path id="Path_5449" data-name="Path 5449" d="M456.913,1711.892a1.094,1.094,0,1,1-1.371-.714A1.092,1.092,0,0,1,456.913,1711.892Z"/>
        </g>
        <g id="Group_4147" data-name="Group 4147">
          <path id="Path_5450" data-name="Path 5450" d="M463.111,1709.933a1.094,1.094,0,1,1-1.374-.714A1.092,1.092,0,0,1,463.111,1709.933Z"/>
        </g>
      </g>
      <g id="Group_4149" data-name="Group 4149">
        <path id="Path_5451" data-name="Path 5451" d="M105.9,1687.98c1.732,1.439,1.725,3.222,1.722,4.792-.005,1.455-.006,2.712,1.232,3.741h0c1.24,1.03,2.476.8,3.9.524,1.544-.29,3.294-.62,5.025.818h0c1.731,1.437,1.727,3.218,1.722,4.789-.005,1.454-.006,2.711,1.232,3.739h0c1.239,1.03,2.474.8,3.9.526,1.541-.292,3.294-.625,5.024.812l0,0c1.73,1.437,1.723,3.218,1.719,4.787,0,1.458-.007,2.712,1.23,3.741h0l-.87,1.046h0c-1.73-1.438-1.726-3.218-1.72-4.79.006-1.455.009-2.711-1.229-3.74h0c-1.238-1.028-2.473-.8-3.9-.523-1.545.293-3.294.624-5.027-.815h0c-1.731-1.439-1.726-3.219-1.721-4.791,0-1.453.008-2.711-1.231-3.741h0c-1.241-1.031-2.474-.8-3.9-.525-1.548.291-3.3.622-5.028-.815h0c-1.732-1.438-1.727-3.219-1.722-4.791.006-1.455.008-2.712-1.232-3.742h0c-1.24-1.03-2.475-.8-3.906-.526-1.546.291-3.3.625-5.03-.814s-1.727-3.222-1.725-4.794c.006-1.453.009-2.713-1.231-3.743h0L94,1678.1l0,0c1.732,1.439,1.729,3.22,1.725,4.792,0,1.456-.008,2.712,1.234,3.743s2.475.8,3.907.524c1.544-.291,3.295-.622,5.028.816Z" fill="#fff"/>
      </g>
      <g id="Group_4152" data-name="Group 4152">
        <g id="Group_4151" data-name="Group 4151">
          <g id="Group_4150" data-name="Group 4150">
            <path id="Path_5452" data-name="Path 5452" d="M190.428,1662.435a4.116,4.116,0,1,1,5.473,1.983A4.12,4.12,0,0,1,190.428,1662.435Z" fill="#fff"/>
          </g>
        </g>
      </g>
    </g>
    <g id="_3" data-name="3" opacity="0.3">
      <g id="Group_4158" data-name="Group 4158">
        <g id="Group_4154" data-name="Group 4154">
          <path id="Path_5453" data-name="Path 5453" d="M1099.246,1785.464l23.412-10.452-18.423-9.829Z" fill="#fff"/>
        </g>
        <g id="Group_4157" data-name="Group 4157">
          <g id="Group_4156" data-name="Group 4156">
            <g id="Group_4155" data-name="Group 4155">
              <path id="Path_5454" data-name="Path 5454" d="M1114.688,1803.25a8.289,8.289,0,1,1,4.008-1.037A8.314,8.314,0,0,1,1114.688,1803.25Zm-.024-15.883a7.579,7.579,0,1,0,6.647,3.91A7.576,7.576,0,0,0,1114.664,1787.367Z" fill="#231f20"/>
            </g>
          </g>
        </g>
      </g>
      <g id="Group_4162" data-name="Group 4162">
        <g id="Group_4161" data-name="Group 4161">
          <g id="Group_4160" data-name="Group 4160">
            <g id="Group_4159" data-name="Group 4159">
              <path id="Path_5455" data-name="Path 5455" d="M1064.487,1622.523a3.208,3.208,0,1,1-4.265-1.544A3.21,3.21,0,0,1,1064.487,1622.523Z" fill="#231f20"/>
            </g>
          </g>
        </g>
      </g>
      <g id="Group_4163" data-name="Group 4163">
        <path id="Path_5456" data-name="Path 5456" d="M1101.634,1622.473c1.779-1.667,3.733-1.491,5.457-1.342,1.577.14,2.822.248,3.976-.823,1.061-.993,1.015-2.015.854-3.593s-.354-3.508,1.468-5.2c1.784-1.664,3.738-1.489,5.462-1.341,1.571.141,2.813.252,3.969-.817,1.059-.992,1.011-2.008.857-3.6-.16-1.56-.362-3.507,1.461-5.2,1.783-1.662,3.74-1.489,5.461-1.335,1.573.139,2.817.249,3.971-.825,1.061-.991,1.017-2.013.854-3.591-.164-1.557-.357-3.505,1.46-5.2,1.785-1.661,3.734-1.486,5.457-1.334,1.577.138,2.819.249,3.973-.825l1.319,1.414c-1.786,1.666-3.737,1.492-5.462,1.338-1.573-.141-2.815-.253-3.967.825-1.062.986-1.016,2-.854,3.586.163,1.565.357,3.509-1.464,5.2-1.783,1.663-3.733,1.489-5.458,1.335-1.572-.138-2.818-.246-3.968.827-1.064.995-1.02,2-.862,3.593.161,1.564.358,3.505-1.46,5.2-1.783,1.664-3.736,1.489-5.461,1.335-1.572-.138-2.812-.247-3.969.827-1.063,1-1.02,2.017-.86,3.6.155,1.563.357,3.505-1.467,5.2-1.781,1.663-3.735,1.488-5.46,1.335-1.573-.14-2.817-.248-3.97.827Z" fill="#fff"/>
      </g>
      <g id="Group_4167" data-name="Group 4167">
        <g id="Group_4164" data-name="Group 4164">
          <path id="Path_5457" data-name="Path 5457" d="M1201.06,1677.646v-19.088h19.087v19.088Zm1.119-17.968v16.848h16.846v-16.848Z" fill="#fff"/>
        </g>
        <g id="Group_4166" data-name="Group 4166">
          <g id="Group_4165" data-name="Group 4165">
            <path id="Path_5458" data-name="Path 5458" d="M1208.526,1658.742a7.928,7.928,0,1,1,7.93,7.928A7.939,7.939,0,0,1,1208.526,1658.742Zm15.17,0a7.241,7.241,0,1,0-7.24,7.244A7.248,7.248,0,0,0,1223.7,1658.742Z" fill="#fff"/>
          </g>
        </g>
      </g>
      <g id="Group_4169" data-name="Group 4169">
        <g id="Group_4168" data-name="Group 4168">
          <rect id="Rectangle_1020" data-name="Rectangle 1020" width="11.684" height="11.683" transform="matrix(0.879, -0.476, 0.476, 0.879, 940.388, 1797.797)" fill="#231f20"/>
        </g>
      </g>
      <g id="Group_4170" data-name="Group 4170">
        <path id="Path_5459" data-name="Path 5459" d="M1112.556,1828.494l-5.09-9.007,9.008-5.089,5.089,9.007Zm-4.263-8.776,4.491,7.95,7.952-4.493-4.491-7.95Z" fill="#231f20"/>
      </g>
      <g id="Group_4172" data-name="Group 4172">
        <g id="Group_4171" data-name="Group 4171">
          <path id="Path_5460" data-name="Path 5460" d="M915.91,1712.3a6.2,6.2,0,1,1,4.926-7.252A6.2,6.2,0,0,1,915.91,1712.3Zm-.056-.293a5.9,5.9,0,1,0-6.9-4.687A5.906,5.906,0,0,0,915.854,1712Z" fill="#231f20"/>
        </g>
      </g>
      <g id="Group_4189" data-name="Group 4189">
        <g id="Group_4173" data-name="Group 4173">
          <path id="Path_5461" data-name="Path 5461" d="M1220.373,1775.642a1.944,1.944,0,1,0,1.942-1.938A1.943,1.943,0,0,0,1220.373,1775.642Z" fill="#231f20"/>
        </g>
        <g id="Group_4174" data-name="Group 4174">
          <path id="Path_5462" data-name="Path 5462" d="M1208.837,1775.642a1.942,1.942,0,1,0,1.941-1.938A1.943,1.943,0,0,0,1208.837,1775.642Z" fill="#231f20"/>
        </g>
        <g id="Group_4175" data-name="Group 4175">
          <path id="Path_5463" data-name="Path 5463" d="M1197.3,1775.642a1.942,1.942,0,1,0,1.941-1.938A1.943,1.943,0,0,0,1197.3,1775.642Z" fill="#231f20"/>
        </g>
        <g id="Group_4176" data-name="Group 4176">
          <path id="Path_5464" data-name="Path 5464" d="M1185.757,1775.642a1.943,1.943,0,1,0,1.945-1.938A1.944,1.944,0,0,0,1185.757,1775.642Z" fill="#231f20"/>
        </g>
        <g id="Group_4177" data-name="Group 4177">
          <path id="Path_5465" data-name="Path 5465" d="M1220.373,1785.258a1.944,1.944,0,1,0,1.942-1.943A1.939,1.939,0,0,0,1220.373,1785.258Z" fill="#231f20"/>
        </g>
        <g id="Group_4178" data-name="Group 4178">
          <path id="Path_5466" data-name="Path 5466" d="M1208.837,1785.258a1.942,1.942,0,1,0,1.941-1.943A1.94,1.94,0,0,0,1208.837,1785.258Z" fill="#231f20"/>
        </g>
        <g id="Group_4179" data-name="Group 4179">
          <path id="Path_5467" data-name="Path 5467" d="M1197.3,1785.258a1.942,1.942,0,1,0,1.941-1.943A1.939,1.939,0,0,0,1197.3,1785.258Z" fill="#231f20"/>
        </g>
        <g id="Group_4180" data-name="Group 4180">
          <path id="Path_5468" data-name="Path 5468" d="M1185.757,1785.258a1.943,1.943,0,1,0,1.945-1.943A1.941,1.941,0,0,0,1185.757,1785.258Z" fill="#231f20"/>
        </g>
        <g id="Group_4181" data-name="Group 4181">
          <path id="Path_5469" data-name="Path 5469" d="M1220.373,1794.879a1.944,1.944,0,1,0,1.942-1.943A1.944,1.944,0,0,0,1220.373,1794.879Z" fill="#231f20"/>
        </g>
        <g id="Group_4182" data-name="Group 4182">
          <path id="Path_5470" data-name="Path 5470" d="M1208.837,1794.879a1.942,1.942,0,1,0,1.941-1.943A1.944,1.944,0,0,0,1208.837,1794.879Z" fill="#231f20"/>
        </g>
        <g id="Group_4183" data-name="Group 4183">
          <path id="Path_5471" data-name="Path 5471" d="M1197.3,1794.879a1.942,1.942,0,1,0,1.941-1.943A1.944,1.944,0,0,0,1197.3,1794.879Z" fill="#231f20"/>
        </g>
        <g id="Group_4184" data-name="Group 4184">
          <path id="Path_5472" data-name="Path 5472" d="M1185.757,1794.879a1.943,1.943,0,1,0,1.945-1.943A1.945,1.945,0,0,0,1185.757,1794.879Z" fill="#231f20"/>
        </g>
        <g id="Group_4185" data-name="Group 4185">
          <path id="Path_5473" data-name="Path 5473" d="M1220.373,1804.492a1.944,1.944,0,1,0,1.942-1.942A1.94,1.94,0,0,0,1220.373,1804.492Z" fill="#231f20"/>
        </g>
        <g id="Group_4186" data-name="Group 4186">
          <path id="Path_5474" data-name="Path 5474" d="M1208.837,1804.492a1.942,1.942,0,1,0,1.941-1.942A1.941,1.941,0,0,0,1208.837,1804.492Z" fill="#231f20"/>
        </g>
        <g id="Group_4187" data-name="Group 4187">
          <path id="Path_5475" data-name="Path 5475" d="M1197.3,1804.492a1.942,1.942,0,1,0,1.941-1.942A1.94,1.94,0,0,0,1197.3,1804.492Z" fill="#231f20"/>
        </g>
        <g id="Group_4188" data-name="Group 4188">
          <path id="Path_5476" data-name="Path 5476" d="M1185.757,1804.492a1.943,1.943,0,1,0,1.945-1.942A1.941,1.941,0,0,0,1185.757,1804.492Z" fill="#231f20"/>
        </g>
      </g>
      <g id="Group_4190" data-name="Group 4190">
        <path id="Path_5477" data-name="Path 5477" d="M1009.451,1655.887a1.943,1.943,0,1,0,1.927-1.957A1.942,1.942,0,0,0,1009.451,1655.887Z" fill="#231f20"/>
        <path id="Path_5478" data-name="Path 5478" d="M1001.76,1655.95a1.942,1.942,0,1,0,1.927-1.959A1.939,1.939,0,0,0,1001.76,1655.95Z" fill="#231f20"/>
        <path id="Path_5479" data-name="Path 5479" d="M994.066,1656.011a1.944,1.944,0,1,0,1.928-1.957A1.943,1.943,0,0,0,994.066,1656.011Z" fill="#231f20"/>
        <path id="Path_5480" data-name="Path 5480" d="M987.338,1656.064a1.942,1.942,0,1,0,1.925-1.957A1.939,1.939,0,0,0,987.338,1656.064Z" fill="#231f20"/>
        <path id="Path_5481" data-name="Path 5481" d="M979.406,1656.127a1.942,1.942,0,1,0,1.924-1.96A1.937,1.937,0,0,0,979.406,1656.127Z" fill="#231f20"/>
        <path id="Path_5482" data-name="Path 5482" d="M971.712,1656.187a1.944,1.944,0,1,0,1.93-1.959A1.941,1.941,0,0,0,971.712,1656.187Z" fill="#231f20"/>
        <path id="Path_5483" data-name="Path 5483" d="M964.021,1656.25a1.943,1.943,0,1,0,1.928-1.961A1.943,1.943,0,0,0,964.021,1656.25Z" fill="#231f20"/>
        <path id="Path_5484" data-name="Path 5484" d="M955.367,1656.315a1.943,1.943,0,1,0,1.927-1.959A1.942,1.942,0,0,0,955.367,1656.315Z" fill="#231f20"/>
        <path id="Path_5485" data-name="Path 5485" d="M1001.7,1647.778a1.942,1.942,0,1,0,1.926-1.959A1.937,1.937,0,0,0,1001.7,1647.778Z" fill="#231f20"/>
        <path id="Path_5486" data-name="Path 5486" d="M994,1647.838a1.943,1.943,0,1,0,1.926-1.958A1.943,1.943,0,0,0,994,1647.838Z" fill="#231f20"/>
        <path id="Path_5487" data-name="Path 5487" d="M987.273,1647.888a1.942,1.942,0,1,0,1.926-1.955A1.941,1.941,0,0,0,987.273,1647.888Z" fill="#231f20"/>
        <path id="Path_5488" data-name="Path 5488" d="M979.339,1647.955a1.943,1.943,0,1,0,1.928-1.959A1.951,1.951,0,0,0,979.339,1647.955Z" fill="#231f20"/>
        <path id="Path_5489" data-name="Path 5489" d="M971.648,1648.013a1.944,1.944,0,1,0,1.928-1.957A1.941,1.941,0,0,0,971.648,1648.013Z" fill="#231f20"/>
        <path id="Path_5490" data-name="Path 5490" d="M963.955,1648.076a1.944,1.944,0,1,0,1.93-1.959A1.943,1.943,0,0,0,963.955,1648.076Z" fill="#231f20"/>
        <path id="Path_5491" data-name="Path 5491" d="M993.939,1640a1.944,1.944,0,1,0,1.929-1.956A1.941,1.941,0,0,0,993.939,1640Z" fill="#231f20"/>
        <path id="Path_5492" data-name="Path 5492" d="M987.213,1640.053a1.942,1.942,0,1,0,1.925-1.954A1.941,1.941,0,0,0,987.213,1640.053Z" fill="#231f20"/>
        <path id="Path_5493" data-name="Path 5493" d="M979.279,1640.119a1.943,1.943,0,1,0,1.925-1.957A1.943,1.943,0,0,0,979.279,1640.119Z" fill="#231f20"/>
        <path id="Path_5494" data-name="Path 5494" d="M971.586,1640.179a1.943,1.943,0,1,0,1.928-1.956A1.941,1.941,0,0,0,971.586,1640.179Z" fill="#231f20"/>
        <path id="Path_5495" data-name="Path 5495" d="M987.156,1633.25a1.943,1.943,0,1,0,1.926-1.96A1.944,1.944,0,0,0,987.156,1633.25Z" fill="#231f20"/>
        <path id="Path_5496" data-name="Path 5496" d="M979.226,1633.311a1.941,1.941,0,1,0,1.924-1.96A1.938,1.938,0,0,0,979.226,1633.311Z" fill="#231f20"/>
        <path id="Path_5497" data-name="Path 5497" d="M983.219,1626.568a1.942,1.942,0,1,0,1.927-1.959A1.939,1.939,0,0,0,983.219,1626.568Z" fill="#231f20"/>
      </g>
      <g id="Group_4191" data-name="Group 4191">
        <path id="Path_5498" data-name="Path 5498" d="M1056.971,1779.16a4.179,4.179,0,0,0-3.706-.229,2.984,2.984,0,0,1-2.677-.071c-.782-.536-.9-1.186-.98-2.232a3.623,3.623,0,0,0-1.563-3.212,4.186,4.186,0,0,0-3.706-.229,2.981,2.981,0,0,1-2.675-.068c-.782-.54-.9-1.187-.978-2.234a3.6,3.6,0,0,0-1.564-3.208,4.164,4.164,0,0,0-3.7-.229,3,3,0,0,1-2.678-.068c-.8-.543-.9-1.189-.976-2.234a3.687,3.687,0,0,0-1.56-3.209,4.174,4.174,0,0,0-3.7-.226,2.994,2.994,0,0,1-2.677-.072l-.69,1.076a4.17,4.17,0,0,0,3.7.228,2.987,2.987,0,0,1,2.675.068c.8.543.9,1.188.977,2.234a3.58,3.58,0,0,0,1.56,3.208,4.178,4.178,0,0,0,3.7.227,3.007,3.007,0,0,1,2.677.07c.813.541.9,1.188.978,2.234a3.667,3.667,0,0,0,1.562,3.209,4.174,4.174,0,0,0,3.7.227,2.994,2.994,0,0,1,2.677.071c.792.531.9,1.188.982,2.235a3.582,3.582,0,0,0,1.56,3.208,4.183,4.183,0,0,0,3.707.231,2.99,2.99,0,0,1,2.678.071Z" fill="url(#linear-gradient)"/>
      </g>
      <g id="Group_4198" data-name="Group 4198">
        <g id="Group_4192" data-name="Group 4192">
          <path id="Path_5499" data-name="Path 5499" d="M1204.225,1621.167l-18.18-3.571,11.384-9.9Z" fill="#231f20"/>
        </g>
        <g id="Group_4197" data-name="Group 4197" opacity="0.55">
          <g id="Group_4194" data-name="Group 4194">
            <g id="Group_4193" data-name="Group 4193">
              <path id="Path_5500" data-name="Path 5500" d="M1181.138,1612.447a6.053,6.053,0,1,1,1.005,8.5A6.061,6.061,0,0,1,1181.138,1612.447Zm9.111,7.186a5.549,5.549,0,1,0-7.792.919A5.557,5.557,0,0,0,1190.249,1619.633Z" fill="url(#linear-gradient-2)"/>
            </g>
          </g>
          <g id="Group_4196" data-name="Group 4196">
            <g id="Group_4195" data-name="Group 4195">
              <path id="Path_5501" data-name="Path 5501" d="M1166.923,1606.86a10.465,10.465,0,1,1,1.737,14.7A10.478,10.478,0,0,1,1166.923,1606.86Zm16.04,12.644a9.96,9.96,0,1,0-13.989,1.656A9.972,9.972,0,0,0,1182.963,1619.5Z" fill="url(#linear-gradient-3)"/>
            </g>
          </g>
        </g>
      </g>
      <g id="Group_4199" data-name="Group 4199">
        <path id="Path_5502" data-name="Path 5502" d="M959.6,1655.93a3.131,3.131,0,0,1-2.7.661,2.237,2.237,0,0,0-1.959.407c-.527.491-.5,1-.424,1.774a2.73,2.73,0,0,1-.724,2.571,3.118,3.118,0,0,1-2.7.659,2.241,2.241,0,0,0-1.96.408c-.526.49-.5.995-.423,1.775a2.724,2.724,0,0,1-.723,2.569,3.119,3.119,0,0,1-2.7.661,2.242,2.242,0,0,0-1.962.407c-.524.488-.5.991-.422,1.772a2.724,2.724,0,0,1-.72,2.569,3.131,3.131,0,0,1-2.7.66,2.224,2.224,0,0,0-1.96.408l-.651-.7a3.126,3.126,0,0,1,2.7-.659,2.24,2.24,0,0,0,1.959-.407c.525-.488.5-.99.422-1.772a2.719,2.719,0,0,1,.721-2.57,3.121,3.121,0,0,1,2.7-.66,2.237,2.237,0,0,0,1.961-.407c.522-.49.5-.991.423-1.774a2.728,2.728,0,0,1,.722-2.57,3.118,3.118,0,0,1,2.7-.659,2.23,2.23,0,0,0,1.96-.409c.526-.49.508-.993.425-1.772a2.743,2.743,0,0,1,.723-2.572,3.133,3.133,0,0,1,2.7-.66,2.233,2.233,0,0,0,1.961-.409Z" fill="#fff"/>
      </g>
    </g>
  </g>
</svg>
