<svg xmlns="http://www.w3.org/2000/svg" xmlns:xlink="http://www.w3.org/1999/xlink" width="848.175" height="662.653" viewBox="0 0 848.175 662.653"><defs><linearGradient id="a" y1="0.5" x2="1" y2="0.5" gradientUnits="objectBoundingBox"><stop offset="0.145" stop-color="#f2f1f1"/><stop offset="1" stop-color="#60c3ba"/></linearGradient><linearGradient id="b" x1="-2.514" y1="12.483" x2="-1.226" y2="12.483" xlink:href="#a"/><linearGradient id="c" x1="-0.016" y1="0.721" x2="0.687" y2="-0.11" gradientUnits="objectBoundingBox"><stop offset="0.145" stop-color="#f2f1f1"/><stop offset="1" stop-color="#94d3cd"/></linearGradient><linearGradient id="d" x1="0.081" y1="0.517" x2="1.038" y2="0.517" gradientUnits="objectBoundingBox"><stop offset="0.137" stop-color="#bce2de"/><stop offset="0.358" stop-color="#60c3ba"/><stop offset="0.855" stop-color="#f2f1f1"/></linearGradient><linearGradient id="e" x1="-4.45" y1="1.454" x2="-3.601" y2="0.877" gradientUnits="objectBoundingBox"><stop offset="0" stop-color="#94d3cd"/><stop offset="0.855" stop-color="#f2f1f1"/></linearGradient><linearGradient id="f" x1="69.065" y1="126.788" x2="70.155" y2="126.788" gradientUnits="objectBoundingBox"><stop offset="0" stop-color="#e4e4e4"/><stop offset="0.18" stop-color="#e0e2e2"/><stop offset="0.319" stop-color="#d7dbdd"/><stop offset="0.443" stop-color="#c6d1d6"/><stop offset="0.56" stop-color="#afc2cb"/><stop offset="0.67" stop-color="#91afbd"/><stop offset="0.777" stop-color="#6c98ab"/><stop offset="0.88" stop-color="#417c97"/><stop offset="0.978" stop-color="#105d7f"/><stop offset="1" stop-color="#04567a"/></linearGradient><linearGradient id="g" x1="-0.708" y1="0.552" x2="0.373" y2="0.273" gradientUnits="objectBoundingBox"><stop offset="0.145" stop-color="#ed3f3b"/><stop offset="0.186" stop-color="#dc3a36"/><stop offset="0.266" stop-color="#b02e2b"/><stop offset="0.377" stop-color="#691c1a"/><stop offset="0.516" stop-color="#080202"/><stop offset="0.528"/></linearGradient></defs><path d="M1166.252,801.5s-43.612,21.274-82.237,28.476-72.243,3.59-98.436-14.233-59.049-84.661-85.589-97.7-83.1-24.629-116.008-34.55-100.109-43.975-90.528-140.546S767.976,413.113,827.2,430.319s91.047,34.96,195.421,4.478,215.077-37.253,263.451,51.774S1297.783,728.111,1166.252,801.5Z" transform="translate(-479.552 -200.586)" opacity="0.5" fill="url(#a)"/><path d="M750.677,632.248s28.9-15.236,56.685-22.629,53.828-8.65,76.941-1.763,60.472,38.838,82.947,43.185,67.329,5.121,94.018,7.238,83.8,13.667,94.732,65.177-31.8,75.028-79.717,71.56-75.265-9.793-148.273,15.962-155.253,39.675-208.493-2.451S665.251,683.035,750.677,632.248Z" transform="translate(-479.545 -200.586)" opacity="0.5" fill="url(#b)"/><path d="M758.9,420.268s39.543-29.827,77-45.336,72.126-19.75,102.276-8.99,77.274,65.936,106.775,72.134,88.985,4.228,124.253,6.061,110.183,18.5,120.719,111.161-48.016,138.561-111.357,135.872S1079.409,679.062,980.5,731.3s-209.169,83.691-276.59,11.243S641.571,518.869,758.9,420.268Z" transform="translate(-479.529 -200.586)" fill="#f2f1f1" opacity="0.35"/><ellipse cx="211.592" cy="178.798" rx="211.592" ry="178.798" transform="translate(0 469.816) rotate(-57.367)" fill="url(#c)" style="mix-blend-mode:multiply;isolation:isolate"/><path d="M832.839,334.779s44.713-27.188,101.657-21.388,73.635,32.724,87.623,44.015,25.416,41.357,134.919,45.248,129.954,55.261,133.77,65.446,14.72,43.712-12.6,67.318-45.26,30.156-7.3,49.427,43.865,46.587,36.631,66.514-31.2,58.652-83.953,56.142-49.68-9.5-70.412,10.421-31.272,41.448-73.511,47.9-74.91-15.471-105.673-8.947-52.778,27.972-67.327,34.891-84.265,17.807-117.887-10.47-38.694-20.718-49.156-12.964-49.559,24.413-92.174-8.945-45.6-71.1,1.99-109.7,36.215-51.951,11.3-66.287-71.216-39.2-74.672-87.748,30.512-90.09,98.519-109.274S735.978,388.931,832.839,334.779Z" transform="translate(-479.474 -200.586)" opacity="0.5" fill="url(#d)"/><ellipse cx="131.193" cy="193.245" rx="131.193" ry="193.245" transform="matrix(0.331, -0.944, 0.944, 0.331, 366.467, 325.746)" opacity="0.65" fill="url(#e)" style="mix-blend-mode:multiply;isolation:isolate"/><g transform="translate(138.621 407.797)"><path d="M620.062,696.183l.549-2.467.02-.006-.44,2.177a1.38,1.38,0,0,0-.012.435l.025.183a.212.212,0,0,0,.362.12,1.658,1.658,0,0,0,.407-.7l.652-2.307a5.745,5.745,0,0,0,.451-1.79l.164.886c.039.177.191.555.467.56.059,0,.117,0,.176,0,.019-.292-.053-1.39-.056-1.782a13.937,13.937,0,0,0-1.025-2.365l.533-1.153-1.785-.548-.335,1.114-.606.971-.9,2.3h0v0l0,0v0l-.526,1.955a2.237,2.237,0,0,0-.057.476l0,.213c0,.2.137.369.237.28a1.376,1.376,0,0,0,.359-.613l.263-.853-.3,1.945a2.663,2.663,0,0,0-.021.534l.013.239c.012.228.17.407.266.3a1.5,1.5,0,0,0,.325-.7l.329-1.583-.282,1.752a3.043,3.043,0,0,0-.024.639l.018.284c.018.271.223.477.345.347A1.823,1.823,0,0,0,620.062,696.183Z" transform="translate(-618.119 -608.383)" fill="#f5a8a8"/><path d="M643.266,645.39l-.81-.654c-2.416-1.953-6.309-.8-8.7,2.578l-2.057,2.912c-.012.016-.021.033-.033.05a78.283,78.283,0,0,0-8.241,15.742,21.465,21.465,0,0,0-1.772,5.012,10.3,10.3,0,0,0-.318,1.352c-.015.118-.024.227-.032.337-.516,2.6-1.851,9.436-2.352,13.044a2.259,2.259,0,0,0,1.42,2.567l1.765.54a1.873,1.873,0,0,0,2.167-1.1c1.809-3.693,4.976-12.224,4.976-12.224a20.817,20.817,0,0,0,1.947-6.474,70.3,70.3,0,0,0,10-11.074l.036-.047,2.058-2.913C645.707,651.662,645.682,647.342,643.266,645.39Z" transform="translate(-618.12 -608.383)" fill="#04567a"/><path d="M642.305,645.881l-.827-.632c-.025-.019-.052-.033-.077-.051-1.044,1.71-2.328,3.246-3.528,4.855a40.947,40.947,0,0,0-3.672,6.27c-1.239,2.473-2.128,4.812-3.048,7.158-.879,1.617-2.351,4.693-2.752,5.382a5.519,5.519,0,0,0-.539,1.268c-1.223,4.343-2.333,7.646-3.5,12.134-.555,2.13-1.4,4.385-1.952,6.657a1.923,1.923,0,0,0,1.9-1.153c1.809-3.693,4.976-12.224,4.976-12.224a28.969,28.969,0,0,0,1.952-5.825,67.692,67.692,0,0,0,9.3-11.07c.012-.016.024-.031.035-.048l2-3C644.893,652.118,644.774,647.768,642.305,645.881Z" transform="translate(-618.122 -608.383)" fill="#22233b"/><g transform="translate(0.319 148.987)"><path d="M621.545,757.382l-3.107,6.475a4,4,0,0,0,3.889,1l2.433-5.842A35.316,35.316,0,0,0,621.545,757.382Z" transform="translate(-618.438 -757.37)" fill="#231f20"/><path d="M622.74,761.41s-1,1.772-.137,2.636,1.962.909,3.688.985c2.234.1,5.037,3.758.83,2.722-.623-.153-4.052-1.077-5.439-2.719a2.65,2.65,0,0,1,.048-2.731Z" transform="translate(-618.44 -757.37)" fill="#231f20"/></g><path d="M673.631,614.938l-.344-1.125c-.077-.224-.33-.692-.688-.657-.076.007-.152.02-.228.028.019.382.275,1.794.338,2.3a18.111,18.111,0,0,0,1.79,2.952l-.632,1.536,2.4.446.269-1.494.643-1.349.913-3.152-.147-.366a.492.492,0,0,0-.188-.23l-.256-.167-.243-.634a.427.427,0,0,0-.3-.264l-.419-.086a.394.394,0,0,1-.231-.144l-.252-.32a.288.288,0,0,0-.15-.067,1.691,1.691,0,0,0-.68.133l.248-2.887a1.763,1.763,0,0,0-.048-.565l-.06-.234a.276.276,0,0,0-.487-.1,2.181,2.181,0,0,0-.424.972l-.5,3.087A7.452,7.452,0,0,0,673.631,614.938Z" transform="translate(-618.159 -608.383)" fill="#f5a8a8"/><g transform="translate(21.628 18.279)"><path d="M651.165,632.863c1.584,2.745,1.034,6.03-1.229,7.338s-5.38.141-6.964-2.6-1.033-6.03,1.229-7.337S649.582,630.118,651.165,632.863Z" transform="translate(-639.765 -626.662)" fill="#f5a8a8"/><path d="M643.694,645.547l7.068-.3a11.281,11.281,0,0,1-1.315-6.152l-4.972-.892S642.83,643.224,643.694,645.547Z" transform="translate(-639.766 -626.662)" fill="#f5a8a8"/><path d="M649.592,631.6a7.917,7.917,0,0,0,2.149.756c.637,0,.875.757.2,1.753a1.965,1.965,0,0,1-1.472.995Z" transform="translate(-639.77 -626.662)" fill="#f5a8a8"/><path d="M648.79,637.45c0,2.617-1.8,4.739-4.019,4.739s-4.02-2.122-4.02-4.739,1.8-4.739,4.02-4.739S648.79,634.833,648.79,637.45Z" transform="translate(-639.764 -626.662)" fill="#22233b"/><path d="M640.439,629.744c-.171-.074-.222-.164-.2-.24s.082-.331.334-.312c5.254.4,8.821-5.688,10.545-.274.613,2.887-3.2,2.623-5.064,2.479C643.117,631.171,642.2,631.157,640.439,629.744Z" transform="translate(-639.763 -626.662)" fill="#331c51"/><path d="M646.632,635.431c-2.364,1.976-5.22,2.451-6.38,1.061s-.184-4.118,2.179-6.093,5.22-2.451,6.38-1.061S649,633.456,646.632,635.431Z" transform="translate(-639.763 -626.662)" fill="#22233b"/><path d="M647.314,637.728c.312.873.96,1.44,1.449,1.265s.634-1.023.323-1.9-.959-1.44-1.449-1.265S647,636.855,647.314,637.728Z" transform="translate(-639.768 -626.662)" fill="#f5a8a8"/></g><g transform="translate(34.089 153.121)"><path d="M654.33,761.516l-2.1,6.821a4.39,4.39,0,0,0,3.825,1.247l1.89-6.183A39.465,39.465,0,0,0,654.33,761.516Z" transform="translate(-652.233 -761.505)" fill="#231f20"/><path d="M656.838,764.671s-1.585,1.277-1.1,2.4,1.256,2.6,2.982,2.69c2.105.112,2.922.47,3.054,1.21.18,1.01-2.878,1.171-3.92.66a9.324,9.324,0,0,1-3.336-3.982,2.65,2.65,0,0,1,1.053-2.52Z" transform="translate(-652.235 -761.505)" fill="#231f20"/></g><path d="M651.343,691.681c.019-6.676-1.879-12.179-8.006-12.9l-1.74-.205c-8.907-1.052-10.952,9.9-11.635,18.411a115.448,115.448,0,0,0,.063,19.282c.263,3,.514,6.482,1.045,9.8-.016.036-.032.075-.048.112l-1.929,4.437c-.011.025-.02.05-.03.074a155.941,155.941,0,0,0-8.737,27.634s2.5,2.655,4.162,2.346c8.774-9.824,18.645-33.706,18.645-33.706a16.071,16.071,0,0,0,1.056-3.566c1.167-3.268,2.143-6.611,3-9.5C648.761,708.6,651.321,699.363,651.343,691.681Z" transform="translate(-618.121 -608.383)" fill="#00414f"/><path d="M641.1,691.026a50.992,50.992,0,0,0-2.233,15.363c-.11,5.255-.07,10.56.168,15.811.159,3.5,1.105,7.061,1.531,10.528,3.318-5.172,4.9-12.972,6.637-18.832,1.57-5.295,4.13-14.533,4.152-22.215a27.567,27.567,0,0,0-.243-3.864Q646.091,689.368,641.1,691.026Z" transform="translate(-618.134 -608.383)" fill="#03323d"/><path d="M664.085,710.636c-.439-6.039-.988-13.506-3.071-20.117-1.809-5.744-5.273-9.937-11.793-8.823l-1.852.316c-9.478,1.618-8.588,11.616-6.963,19.121a88,88,0,0,0,5.345,16.558c1.785,4.088,3.9,9.3,6.86,12.826-.01.156-.02.311-.031.461l-.354,4.827,0,.079a156.037,156.037,0,0,0,.892,28.97s3.238,1.678,4.7.836a161.823,161.823,0,0,0,5.235-29.013c0-.026.005-.052.007-.079l1.207-8.89a15.576,15.576,0,0,0-.056-2.77C664.844,720.216,664.391,714.844,664.085,710.636Z" transform="translate(-618.135 -608.383)" fill="#006b80"/><path d="M642.745,642.472c1.331-.044,6.481-.118,7.807-.055,1.271.06.436.7,1.6,1.224,0,0,6.155,2.2,8.22,18.6a110.779,110.779,0,0,0,2.139,21.66,8.247,8.247,0,0,1,.148,1.021,3.409,3.409,0,0,1,.366,1.843c-.35,3.914-7.662,7.413-16.859,7.737a36.061,36.061,0,0,1-6.021-.276c-.786-.1-1.172-5.18-1.438-6.238a48.116,48.116,0,0,0-2.893,5.31c-3.078-.956-5.277-2.407-6.081-4.146l-.014-.029c-.034-.075-.065-.152-.094-.228a6.572,6.572,0,0,1-.335-2.967,132.7,132.7,0,0,1,3.058-18.492c1.293-12.65,2.056-18.169,9.3-23.754C641.967,643.432,641.995,642.5,642.745,642.472Z" transform="translate(-618.127 -608.383)" fill="#04567a"/><path d="M651.946,643.524c-.516-.574-.11-1.139-1.206-1.2-1.382-.08-6.749.014-8.135.07-.654.026-.781.861-1,1.319A30.318,30.318,0,0,0,651.946,643.524Z" transform="translate(-618.136 -608.383)" fill="#00b09e"/><path d="M653.045,657.922c2.359,1.2,4.193,2.848,6.964,3.158.074.009.149.013.224.021-1.305-9.114-3.9-13.557-5.794-15.664-1.663,2.053-3.249,4.169-4.82,6.3a1.983,1.983,0,0,1,.307.561A25.677,25.677,0,0,0,653.045,657.922Z" transform="translate(-618.142 -608.383)" fill="#22233b"/><path d="M677.076,620.447a1.335,1.335,0,0,0-1.007-1.4l-1.614-.382a1.28,1.28,0,0,0-1.4.659c-2,3.607-6.237,13.8-6.237,13.8a15.952,15.952,0,0,0-1.2,4.722,53.885,53.885,0,0,0-12.091,6.594c-.015.011-.03.019-.044.03l-2.549,1.92a6.435,6.435,0,0,0-1.672,8.923l.681.907a6.426,6.426,0,0,0,9.031.865l2.549-1.92c.015-.01.027-.022.041-.033,5.093-3.742,10.089-10.016,12.576-13.791a5.3,5.3,0,0,0,.8-2.029c.144-.843.226-1.643.3-2.471.011-.052.023-.1.033-.154C675.278,636.687,676.849,624.872,677.076,620.447Z" transform="translate(-618.141 -608.383)" fill="#04567a"/><path d="M657.717,679.745l3.847-1.579.065.737a.951.951,0,0,1-.236.736l-1.041,1.093-1.981.052a.634.634,0,0,1-.589-.6Z" transform="translate(-618.148 -608.383)" fill="#00b09e"/></g><g transform="translate(166.811 272.161)"><g transform="translate(0 26.816)"><path d="M661.476,500.176l-.393-.613c-.028.019-.711.458-1.783,1.323l.457.567C660.8,500.615,661.469,500.181,661.476,500.176Z" transform="translate(-646.339 -499.563)" fill="#59b1c7"/><path d="M664.173,591.385l-.717-.117c.2-1.2.362-2.4.491-3.581.03-.271.059-.543.085-.816l.724.071q-.038.4-.081.79C664.533,588.938,664.374,590.163,664.173,591.385Zm.131-8.937c.038-1.489.018-2.979-.059-4.429l.726-.039c.077,1.47.1,2.979.059,4.486Zm-.476-8.836c-.2-1.469-.471-2.934-.8-4.353l.71-.163c.331,1.44.6,2.926.807,4.416ZM661.845,565c-.46-1.4-.991-2.785-1.581-4.129l.667-.292c.6,1.365,1.138,2.775,1.6,4.193Zm-3.542-8.091c-.708-1.276-1.489-2.542-2.321-3.764l.6-.41c.844,1.24,1.636,2.525,2.355,3.821Zm-4.786-7.5c-.8-1.3-1.547-2.612-2.214-3.9l.646-.336c.659,1.271,1.4,2.566,2.187,3.851Zm.107-41.631-.579-.44a37.763,37.763,0,0,1,2.931-3.414l.523.506A37.059,37.059,0,0,0,653.624,507.78Zm-4.22,33.666a44.718,44.718,0,0,1-1.515-4.228l.7-.21c.413,1.37.914,2.77,1.49,4.16Zm-.154-26.037-.674-.274a33.078,33.078,0,0,1,1.978-4.047l.63.364A32.145,32.145,0,0,0,649.25,515.409Zm-2.412,17.436a34.817,34.817,0,0,1-.508-4.473l.726-.034a34.253,34.253,0,0,0,.5,4.379Zm.321-8.909-.724-.069a30.806,30.806,0,0,1,.751-4.444l.707.174A30.1,30.1,0,0,0,647.158,523.936Z" transform="translate(-646.33 -499.563)" fill="#59b1c7"/></g><g transform="translate(11.976)"><path d="M662.848,498.971l49.624-23.345-39.823,14.118Z" transform="translate(-658.318 -472.747)" fill="#979796"/><path d="M658.315,472.747s43.345,3.158,54.153,2.879c0,0-27.593,24.485-34.746,33.406l-5.077-19.288-2.781-5.4Z" transform="translate(-658.315 -472.747)" fill="#f2f1f1"/><path d="M662.848,498.971l9.8-9.227,39.823-14.118-42.6,8.716Z" transform="translate(-658.318 -472.747)" fill="url(#f)"/></g></g><g transform="translate(631.223 48.068)"><g transform="translate(61.299 102.48)"><path d="M1240.619,352.626l1.526-1.492c.07.071,1.729,1.779,4.218,4.962l-1.679,1.316C1242.273,354.331,1240.635,352.642,1240.619,352.626Z" transform="translate(-1172.475 -351.134)" fill="#59b1c7"/><path d="M1173.415,600.672q.136-1.153.29-2.312l2.115.279c-.106.8-.2,1.6-.3,2.386-.411,3.453-.736,7-.968,10.559l-2.128-.141C1172.662,607.818,1173.02,604.212,1173.415,600.672Zm2.467-15.282c.888-4.332,1.946-8.632,3.141-12.779l2.051.592c-1.18,4.093-2.224,8.338-3.1,12.616Zm7.308-25.265c1.573-4.122,3.334-8.186,5.232-12.083l1.918.936c-1.871,3.84-3.606,7.847-5.157,11.909Zm11.542-23.643c2.275-3.741,4.752-7.414,7.364-10.917l1.71,1.277c-2.571,3.449-5.011,7.066-7.251,10.749Zm15.723-21.092c2.912-3.223,6.028-6.371,9.261-9.354l1.445,1.57c-3.186,2.94-6.255,6.04-9.125,9.215Zm18.705-18.317c3.114-3.145,6.075-6.359,8.8-9.552l1.621,1.387c-2.76,3.232-5.757,6.485-8.907,9.668Zm22.786-128.993,1.83-1.1a111.577,111.577,0,0,1,6.113,11.7l-1.946.874A109.182,109.182,0,0,0,1251.946,368.08Zm-5.98,109.228c2.567-3.59,4.926-7.257,7.014-10.9l1.851,1.062c-2.123,3.7-4.522,7.432-7.129,11.078Zm16.517-85.644,2.042-.62a96.946,96.946,0,0,1,2.971,12.875l-2.107.335A94.527,94.527,0,0,0,1262.483,391.664Zm-3.712,63.169a100.036,100.036,0,0,0,4.32-12.182l2.055.578a102.25,102.25,0,0,1-4.414,12.445Zm7.723-37.713,2.132-.028a90.386,90.386,0,0,1-.8,13.2l-2.114-.283A88.6,88.6,0,0,0,1266.494,417.12Z" transform="translate(-1172.425 -351.134)" fill="#59b1c7"/></g><path d="M1237.41,348.273l-126.329-99.618,104.435,66.754Z" transform="translate(-1111.081 -248.654)" fill="#86bce5"/><path d="M1267.722,276.348s-125.942-19.729-156.641-27.694c0,0,62.626,88.264,77.153,118.5l27.282-51.743,11.525-13.59Z" transform="translate(-1111.081 -248.654)" fill="#96c9ec"/><path d="M1237.41,348.273l-21.894-32.864-104.435-66.754,115.96,53.164Z" transform="translate(-1111.081 -248.654)" fill="#6db0e0"/></g><path d="M1113.382,411.8a30.639,30.639,0,0,0-30.539-30.561H930.149v59.683c.592,7.7,3.8,16.684,17.222,10.844,9.919-4.337,15.42-7.841,20.837-7.841s17.949,2.836,17.949,32.642S968.375,504.7,964.486,504.59c-8.558-.779-16.337-7.9-19.115-9.787-2.624-1.786-13.964-5.822-15.222,8.09v63.13h67.08c.975.006,1.913.014,2.8.023,17.044,0,4.307,12.567,2.417,15.347s-9,10.566-9.78,19.13c-.111,3.892-1.686,19.349,28.006,21.687,25.152,1.98,31.747-9.817,33.992-15.434,2.276-5.7-.842-16.01-9.209-23.381-9.314-12.571-4.779-17.349,3.222-17.349h55.458l-.011-.023h9.262Z" transform="translate(-479.726 -200.586)" fill="#1c77b9"/><path d="M776.552,536.779v11.828h8.622Z" transform="translate(-479.614 -200.586)" fill="#27a6de"/><g transform="translate(812.417 488.632)"><g transform="translate(13.014 0.161)"><path d="M1305.431,694.662a33.893,33.893,0,0,1,4.9-5.283l-.225,13.816A64.627,64.627,0,0,1,1305.431,694.662Z" transform="translate(-1305.431 -689.379)" fill="#e65f5c"/></g><g transform="translate(17.591 9.255)"><path d="M1310.483,709.938c2.633-2.681,5.281-7.888,6.916-11.465.893,3.057.422,6.39-1.341,10.961-3.517,9.121,2.158,7.409,3.281,6.537s3.95-5.809,7.084-3.574a3.256,3.256,0,0,1,.447.392c-2.908,9.094-14.346,23.047-16.857,26.039Z" transform="translate(-1310.012 -698.473)" fill="#e65f5c"/></g><g transform="translate(2.056 5.936)"><path d="M1309.619,732.76c-1.5-.864-8.579-5.6-15.154-20.789,3.087-1.827,5.73,2.96,6.81,3.833,1.105.892,6.749,2.709,3.4-6.475-2.276-6.244-2.212-10.173.412-14.175a63.987,63.987,0,0,0,5,8.945Z" transform="translate(-1294.465 -695.154)" fill="#e65f5c"/></g><g transform="translate(18.075 0.208)"><path d="M1310.5,709.162l.322-19.736c3.259,3.082,5.355,5.633,6.347,8.344C1315.625,701.172,1313.044,706.361,1310.5,709.162Z" transform="translate(-1310.496 -689.426)" fill="#e65f5c"/></g><path d="M1327.236,713.244c2.046,3.008.686,10.334-3.321,19.422a71.151,71.151,0,0,1-4.227,7.977c-1.514,2.513-3.119,4.95-4.776,7.332-1.237,1.777-2.494,3.541-3.8,5.241a1.755,1.755,0,0,1-1.34.522l.229-14.087C1311.555,737.828,1323.97,723.094,1327.236,713.244Z" transform="translate(-1292.421 -689.218)" fill="#e65f5c"/><g transform="translate(0 23.045)"><path d="M1294.046,712.263c6.956,16.061,14.517,20.563,15.561,21.123l-.33,20.267a.339.339,0,0,1-.044-.017,1.7,1.7,0,0,1-.656-.694c-.384-.632-.815-1.209-1.237-1.807q-1.042-1.482-2.056-2.99c-1.629-2.425-3.2-4.905-4.688-7.46a72.429,72.429,0,0,1-4.156-8.153l-.05-.12C1292.22,722.462,1291.134,714.648,1294.046,712.263Z" transform="translate(-1292.408 -712.263)" fill="#e65f5c"/></g><g transform="translate(1.638)"><path d="M1294.047,712.263c.069-.056.137-.113.211-.163s.138-.087.207-.129c6.575,15.194,13.657,19.925,15.154,20.789l.467-28.661a63.987,63.987,0,0,1-5-8.945c.107-.164.22-.328.336-.492a64.627,64.627,0,0,0,4.678,8.533l.225-13.816c.046-.041.089-.081.134-.123.065-.053.106-.049.172,0s.116.11.175.166l-.322,19.736c2.548-2.8,5.129-7.99,6.669-11.392.085.233.165.467.234.7-1.635,3.577-4.283,8.784-6.916,11.465l-.471,28.89c2.51-2.992,13.949-16.945,16.857-26.039a3.484,3.484,0,0,1,.368.455c-3.267,9.85-15.682,24.584-17.238,26.407l-.229,14.087a1.328,1.328,0,0,1-.48-.085l.33-20.267C1308.564,732.826,1301,728.324,1294.047,712.263Z" transform="translate(-1294.047 -689.218)" fill="#05567a"/></g></g><g transform="translate(805.701 515.142)"><g transform="translate(7.49 0.096)"><path d="M1293.183,718.975a19.95,19.95,0,0,1,2.847-3.15l-.025,8.139A38.015,38.015,0,0,1,1293.183,718.975Z" transform="translate(-1293.183 -715.825)" fill="#f7bc4b"/></g><g transform="translate(10.531 5.398)"><path d="M1296.278,727.933a26.833,26.833,0,0,0,3.984-6.806c.55,1.793.3,3.76-.7,6.466-2,5.4,1.33,4.347,1.984,3.825s2.281-3.453,4.145-2.161a1.919,1.919,0,0,1,.266.228c-1.642,5.379-8.271,13.687-9.726,15.469Z" transform="translate(-1296.226 -721.127)" fill="#f7bc4b"/></g><g transform="translate(1.171 3.538)"><path d="M1295.947,741.383c-.888-.5-5.1-3.229-9.088-12.127,1.8-1.1,3.4,1.7,4.041,2.205.659.517,4,1.543,1.953-3.841-1.39-3.66-1.383-5.975.132-8.353A37.639,37.639,0,0,0,1296,724.5Z" transform="translate(-1286.859 -719.267)" fill="#f7bc4b"/></g><g transform="translate(10.585 0.119)"><path d="M1296.28,727.476l.035-11.628a13.662,13.662,0,0,1,3.8,4.866A29.264,29.264,0,0,1,1296.28,727.476Z" transform="translate(-1296.28 -715.848)" fill="#f7bc4b"/></g><g transform="translate(10.504 14.021)"><path d="M1306.173,729.75c1.228,1.756.484,6.081-1.8,11.466a41.955,41.955,0,0,1-2.428,4.731c-.871,1.493-1.8,2.941-2.755,4.357-.714,1.056-1.441,2.1-2.2,3.116a1.034,1.034,0,0,1-.786.319l.026-8.3C1297.127,744.353,1304.325,735.577,1306.173,729.75Z" transform="translate(-1296.199 -729.75)" fill="#f7bc4b"/></g><g transform="translate(0 13.702)"><path d="M1286.614,729.431c4.222,9.406,8.712,12,9.331,12.32l-.037,11.941-.026-.01a1,1,0,0,1-.392-.4c-.231-.37-.491-.706-.743-1.055q-.627-.864-1.235-1.745c-.978-1.416-1.926-2.864-2.819-4.358a42.649,42.649,0,0,1-2.512-4.77l-.031-.07C1285.619,735.453,1284.918,730.859,1286.614,729.431Z" transform="translate(-1285.687 -729.431)" fill="#f7bc4b"/></g><g transform="translate(0.927)"><path d="M1286.615,729.431c.04-.033.08-.067.123-.1s.081-.052.121-.077c3.991,8.9,8.2,11.63,9.088,12.127L1296,724.5a37.639,37.639,0,0,1-3.014-5.23c.062-.1.127-.2.194-.292a38.015,38.015,0,0,0,2.822,4.989l.025-8.139.078-.073a.066.066,0,0,1,.1,0l.1.1-.035,11.628a29.264,29.264,0,0,0,3.839-6.762c.052.137.1.274.143.413a26.833,26.833,0,0,1-3.984,6.806l-.052,17.021c1.455-1.782,8.084-10.09,9.726-15.469a2.058,2.058,0,0,1,.221.265c-1.848,5.827-9.045,14.6-9.948,15.689l-.026,8.3a.794.794,0,0,1-.283-.047l.037-11.941C1295.327,741.43,1290.837,738.837,1286.615,729.431Z" transform="translate(-1286.615 -715.729)" fill="#05567a"/></g></g><g transform="translate(363.802)"><g transform="translate(20.312 23.169)"><path d="M877.916,226.461q.962-.507,1.969-.923c13.388-5.523,29.425,2.585,33.875,13.386,1.817,4.41,1.008,8.765.716,13.377-.327,5.158-.444,10.32-.645,15.483-.091,2.395-.677,5.279-.11,7.591a8.034,8.034,0,0,0,.356,1.055l-22.523,9.292a9.436,9.436,0,0,0-1.711-2.248c-6.35-5.945-12.638-11.915-19.233-17.57C857.95,255.05,864.387,233.591,877.916,226.461Z" transform="translate(-863.791 -223.755)" fill="#f9be4c" opacity="0.51"/><path d="M883.284,266.583c2.134.665,4.131-.184,5.793-1.51a38.994,38.994,0,0,1,2.306,4.126c.4.8.783,1.549,1.155,2.2l6.782,11.8,1.042-.6-6.782-11.8c-.356-.619-.729-1.358-1.125-2.139a38.377,38.377,0,0,0-2.469-4.383,21,21,0,0,0,3.122-3.947h0a11.973,11.973,0,0,0,.768-1.153c.107.03.214.058.319.086a19.711,19.711,0,0,0,6.19.778c.035.161.072.322.108.48.377,1.623.81,3.256,1.23,4.835l4,15.032,1.161-.309-4-15.033c-.417-1.569-.848-3.192-1.22-4.8-.027-.116-.053-.231-.079-.347a9.412,9.412,0,0,0,2.445-.747A5.4,5.4,0,0,0,906.552,257a3.33,3.33,0,0,0-.043-3.487,3.287,3.287,0,0,0-4.282-.73,4.881,4.881,0,0,0-2.156,3.694,9.042,9.042,0,0,0,.085,2.371,18.839,18.839,0,0,1-5.655-.748l-.062-.017a12.488,12.488,0,0,0,.813-2.408,5.319,5.319,0,0,0,.04-2.629,3.491,3.491,0,0,0-6.778.308,4.453,4.453,0,0,0,1.743,4.16,8.084,8.084,0,0,0,2.435,1.3,11.036,11.036,0,0,1-.645.933l.006.005a20.124,20.124,0,0,1-2.8,3.546,7.741,7.741,0,0,0-3.241-2.527,3.876,3.876,0,0,0-3.922.673,3.117,3.117,0,0,0-1.137,2.931A3.027,3.027,0,0,0,883.284,266.583Zm18.068-7.865a7.818,7.818,0,0,1-.087-2.111,3.681,3.681,0,0,1,1.58-2.8,2.076,2.076,0,0,1,.283-.142,2.043,2.043,0,0,1,2.4.531,2.109,2.109,0,0,1-.018,2.2,4.229,4.229,0,0,1-1.984,1.659A8.386,8.386,0,0,1,901.352,258.718Zm-10.338-2.143a3.246,3.246,0,0,1-1.32-2.994,2.383,2.383,0,0,1,1.426-1.687,2.117,2.117,0,0,1,.717-.163,2.376,2.376,0,0,1,2.3,1.648,4.205,4.205,0,0,1-.058,2.025,11.293,11.293,0,0,1-.807,2.331A7.164,7.164,0,0,1,891.014,256.575Zm-8.88,7.549a1.95,1.95,0,0,1,.745-1.777,2.683,2.683,0,0,1,2.723-.454,6.63,6.63,0,0,1,2.757,2.2c-1.4,1.128-3.043,1.864-4.719,1.342C882.778,265.165,882.256,264.712,882.134,264.124Z" transform="translate(-863.804 -223.755)" fill="#00b1cd"/><path d="M891.28,285.334l22.613-9.329c.125.357.264.709.412,1.057,1.321,3.107,3.728,6.758,3.472,10.206-.264,3.56-.979,10.482-4.872,12.088l-4.518,1.864c-3.823,1.577-11.108-3.221-13.109-6.36a8.384,8.384,0,0,1-.651-1.354C893.61,291.02,892.8,287.776,891.28,285.334Z" transform="translate(-863.811 -223.755)" fill="#f9be4c"/></g><path d="M936.927,242.108a.8.8,0,0,0-.594-1.463l-14.166,3.034a.8.8,0,0,0,.336,1.568l14.167-3.034A.809.809,0,0,0,936.927,242.108Z" transform="translate(-843.522 -200.586)" fill="#f9be4c"/><path d="M913.493,224.779a.787.787,0,0,0,.159-.131l10.781-11.474a.8.8,0,1,0-1.166-1.1L912.485,223.55a.8.8,0,0,0,1.008,1.229Z" transform="translate(-843.515 -200.586)" fill="#f9be4c"/><path d="M898.346,216.387a.8.8,0,0,0,.367-.556l2.232-14.319a.8.8,0,1,0-1.582-.247l-2.233,14.319a.8.8,0,0,0,1.216.8Z" transform="translate(-843.504 -200.586)" fill="#f9be4c"/><path d="M875.526,221.986a.8.8,0,0,0,.254-1.1l-7.786-12.461a.8.8,0,1,0-1.358.85l7.786,12.461A.8.8,0,0,0,875.526,221.986Z" transform="translate(-843.482 -200.586)" fill="#f9be4c"/><path d="M860.948,236.051a.8.8,0,0,0-.186-1.445l-14.281-4.458a.8.8,0,1,0-.478,1.53l14.281,4.458A.8.8,0,0,0,860.948,236.051Z" transform="translate(-843.466 -200.586)" fill="#f9be4c"/><path d="M857.936,256.681a.8.8,0,0,0-.745-1.414l-13.245,5.767a.8.8,0,0,0,.64,1.471l13.245-5.767A.973.973,0,0,0,857.936,256.681Z" transform="translate(-843.465 -200.586)" fill="#f9be4c"/></g><path d="M968.51,443.949c-5.418,0-10.919,3.5-20.838,7.841-13.423,5.84-16.631-3.143-17.221-10.844V381.263H777.757a30.639,30.639,0,0,0-30.539,30.561V566.051H807c6.828-1.176,13.14-5.084,8.011-16.89-4.334-9.926-7.835-15.431-7.835-20.853s2.834-17.961,32.618-17.961,28.117,17.794,28.007,21.687c-.779,8.564-7.891,16.349-9.78,19.129-1.674,2.463-5.328,12.6,5.706,14.888h66.721v-63.13c1.257-13.912,12.6-9.876,15.221-8.091,2.778,1.891,10.557,9.009,19.115,9.787,3.89.112,21.671,1.78,21.671-28.026S973.927,443.949,968.51,443.949Z" transform="translate(-479.592 -200.586)" fill="#27a6de"/><path d="M1123.725,577.724l.012.022H1068.28c-8,0-12.537,4.779-3.222,17.35,8.367,7.371,11.486,17.685,9.209,23.381-2.245,5.617-8.842,17.414-33.992,15.433-29.692-2.338-28.117-17.794-28.006-21.687.778-8.563,7.89-16.348,9.78-19.129s14.627-15.348-2.418-15.348c-.883-.009-1.82-.016-2.795-.022h-22.6c-2.955.011-4.861.022-4.861.022v-.022h-39.62V643.7c-1.278,6.637-5.276,12.53-16.788,7.521-9.919-4.337-15.42-7.84-20.838-7.84s-17.948,2.836-17.948,32.641,17.782,28.138,21.671,28.027c8.558-.779,16.337-7.9,19.115-9.787,2.43-1.654,12.338-5.241,14.787,5.292v62.954H1102.45a30.64,30.64,0,0,0,30.539-30.561V577.724Z" transform="translate(-479.7 -200.586)" fill="#05567a"/><path d="M892.514,631.651c5.417,0,10.919,3.5,20.838,7.841,11.511,5.008,15.509-.885,16.787-7.522V565.99H863.418c-11.033-2.284-7.379-12.425-5.706-14.888,1.89-2.78,9-10.565,9.78-19.129.112-3.892,1.779-21.687-28.005-21.687s-32.618,12.54-32.618,17.961,3.5,10.927,7.835,20.853c5.129,11.806-1.183,15.714-8.012,16.89H746.907V720.217a30.639,30.639,0,0,0,30.539,30.561H930.139V687.824c-2.448-10.533-12.357-6.945-14.787-5.292-2.778,1.891-10.557,9.009-19.115,9.787-3.889.111-21.671,1.78-21.671-28.026S887.1,631.651,892.514,631.651Z" transform="translate(-479.592 -200.586)" fill="#f7bc4b"/><g transform="translate(195.249 419.485)"><path d="M702.171,764.785l19.291-142.308,1.868.362L704.088,764.785Z" transform="translate(-674.809 -620.072)" fill="#0f85b0"/><path d="M674.789,764.785l23.954-142.35,1.855.446-23.879,141.9Z" transform="translate(-674.789 -620.072)" fill="#0f85b0"/><rect width="24.041" height="2.261" transform="translate(18.012 42.28)" fill="#0f85b0"/><rect width="27.184" height="2.261" transform="translate(4.346 121.062)" fill="#0f85b0"/><rect width="24.858" height="5.371" transform="translate(42.87 5.371) rotate(180)" fill="#0f85b0"/><path d="M730.411,764.785l-18.877-143.93,1.87-.351,18.923,144.281Z" transform="translate(-674.816 -620.072)" fill="#00a9c7"/><path d="M753.672,764.785l-19.1-143.929,1.868-.353,19.147,144.282Z" transform="translate(-674.833 -620.072)" fill="#00a9c7"/><rect width="23.058" height="2.261" transform="translate(40.829 23.689)" fill="#00a9c7"/><rect width="23.058" height="2.261" transform="translate(44.298 47.814)" fill="#00a9c7"/><rect width="23.057" height="2.261" transform="translate(47.077 75.327)" fill="#00a9c7"/><rect width="23.058" height="2.262" transform="translate(52.358 104.725)" fill="#00a9c7"/><rect width="23.057" height="2.261" transform="translate(55.827 132.24)" fill="#00a9c7"/><rect width="33.13" height="5.371" transform="translate(66.035 5.371) rotate(180)" fill="#00a9c7"/></g><g transform="translate(192.157 286.088)"><path d="M750.159,555.931l-1.767-1.459,0-.019,1.577,1.252a1.225,1.225,0,0,0,.346.189l.158.055a.192.192,0,0,0,.246-.243,1.5,1.5,0,0,0-.4-.619l-1.595-1.476a5.168,5.168,0,0,0-1.259-1.1l.782.232c.16.042.528.075.645-.146.025-.047.047-.1.072-.143-.229-.136-1.144-.53-1.462-.688a12.584,12.584,0,0,0-2.331-.146l-.712-.9-1.178,1.217.761.729.535.89,1.49,1.677h0l0,0h0l1.362,1.231a2.077,2.077,0,0,0,.361.241l.171.091c.163.086.355.041.323-.076a1.225,1.225,0,0,0-.347-.543l-.581-.564,1.449,1.04a2.436,2.436,0,0,0,.423.238l.2.087c.189.084.4.03.354-.09a1.362,1.362,0,0,0-.432-.551l-1.142-.918,1.3.949a2.7,2.7,0,0,0,.506.283l.237.1c.227.1.478.017.423-.136A1.655,1.655,0,0,0,750.159,555.931Z" transform="translate(-671.746 -486.675)" fill="#ca7f7f"/><path d="M743.541,552.211l1.509-.684a54.443,54.443,0,0,0-4.295-9.546l-.023-.042-1.6-2.878c-2.4-4.318-6.558-8.328-8.5-7.533l-.653.268c-1.951.8.062,5.723,3.4,9.684l2.219,2.635.033.038A65.379,65.379,0,0,0,743.541,552.211Z" transform="translate(-671.736 -486.675)" fill="#ca7f7f"/><path d="M738.294,493.19c1.084,3.3.392,6.5-1.545,7.134s-4.385-1.527-5.468-4.832-.392-6.5,1.545-7.135S737.21,489.885,738.294,493.19Z" transform="translate(-671.737 -486.675)" fill="#f5a8a8"/><path d="M738.6,494.772a9.585,9.585,0,0,0,1.535,1.706c.553.351.261.529-.76.84a7.773,7.773,0,0,1-1.544.347Z" transform="translate(-671.742 -486.675)" fill="#f5a8a8"/><path d="M734.025,502.943l3.163-.377a1.045,1.045,0,0,0,.919-1.018l.905-4.254-2.792-4.677-4.562,1.774-.17,7.016Z" transform="translate(-671.738 -486.675)" fill="#f5a8a8"/><path d="M730.782,507.163l-3.234-2.575,3.608-4.538,3.234,2.576A11.412,11.412,0,0,0,730.782,507.163Z" transform="translate(-671.735 -486.675)" fill="#f5a8a8"/><g transform="translate(41.7 125.836)"><path d="M714.747,612.51l-.266,3.015L720.107,618l-2.693-5.152Z" transform="translate(-713.426 -612.51)" fill="#ca7f7f"/><path d="M723.624,619.919l-5.285-.1a1.767,1.767,0,0,1-1.23-.532l-2.113-2.162-.047,2.632-.793-.014-.669-2.986a2.51,2.51,0,0,1,.348-1.923l.413-.633a.315.315,0,0,1,.466-.07l3,2.5a4,4,0,0,0,2.023.892l.628.086a5.746,5.746,0,0,1,1.315.341l.8.314a2.341,2.341,0,0,1,.371.259,2.877,2.877,0,0,1,.6.669l.308.476A.157.157,0,0,1,723.624,619.919Z" transform="translate(-713.425 -612.51)" fill="#023149"/></g><g transform="translate(0 56.635)"><path d="M683.183,549.848l-1.3-2.733-6.1.72,4.932,3.074Z" transform="translate(-671.697 -543.31)" fill="#f5a8a8"/><path d="M671.774,547.968l4.6-2.6a1.768,1.768,0,0,1,1.33-.167l2.917.792-1.293-2.293.691-.39,2.089,2.233a2.52,2.52,0,0,1,.675,1.834l-.036.756a.315.315,0,0,1-.366.3l-3.853-.634a4,4,0,0,0-2.2.257l-.585.245a5.7,5.7,0,0,1-1.306.373l-.849.137a2.337,2.337,0,0,1-.451-.036,2.849,2.849,0,0,1-.857-.272l-.507-.253A.158.158,0,0,1,671.774,547.968Z" transform="translate(-671.694 -543.31)" fill="#023149"/></g><path d="M725.275,543.53c-2.754-4.813-6.557-7.9-11.773-5.584l-1.48.657c-7.581,3.36-4.679,12.189-1.7,18.626a86,86,0,0,0,8.046,13.847c2.589,3.625,5.79,8.381,9.392,10.842,1.425.974,2.632,1.119,3.377.789s1.476-1.334,1.779-3.074c.947-5.436-.634-12.741-1.76-18.2C730.22,556.9,728.442,549.069,725.275,543.53Z" transform="translate(-671.72 -486.675)" fill="#04567a"/><path d="M718.279,614.364a166.4,166.4,0,0,0,11.667-25.153l.027-.07,1.507-4.293c1.748-4.975,1.349-9.618-.891-10.37l-.751-.252c-2.24-.752-5.473,2.672-7.221,7.647l-1.508,4.292c-.009.024-.015.048-.023.072a159.037,159.037,0,0,0-6.531,26.391S716.842,614.82,718.279,614.364Z" transform="translate(-671.725 -486.675)" fill="#04567a"/><path d="M719.392,549.61c-.047-5.216-.277-12.548-5.128-13.087l-1.377-.152c-7.053-.783-9.89,10.827-10.35,17.477a89.161,89.161,0,0,0,.229,15.066c.421,4.169.825,9.547,2.485,13.236.657,1.46,1.5,2.141,2.189,2.218s1.656-.4,2.607-1.685c2.971-4,4.836-10.712,6.27-15.7C717.509,562.842,719.446,555.613,719.392,549.61Z" transform="translate(-671.716 -486.675)" fill="#047395"/><path d="M679.639,550.846A176.874,176.874,0,0,0,695.621,574.9c.016.021.031.042.048.062l3,3.712c3.48,4.3,7.884,6.668,9.838,5.284l.654-.464c1.954-1.385.716-5.995-2.765-10.3l-3-3.712c-.017-.021-.034-.04-.051-.06a176.79,176.79,0,0,0-20.022-20.6S680.048,549.414,679.639,550.846Z" transform="translate(-671.7 -486.675)" fill="#047395"/><path d="M702.444,561.71a29.275,29.275,0,0,0,7.521-6.535c3.7-4.659,10.493-20.239.457-21.921C698.173,531.2,694.982,547.706,702.444,561.71Z" transform="translate(-671.713 -486.675)" fill="#047395"/><path d="M735.616,511.071c-.242-3.669-2.884-6.574-5.9-6.49l-1.011.028c-3.018.085-5.268,3.128-5.026,6.8l.208,3.166c0,.017,0,.034.006.052.46,8.357,4.391,19.172,5.592,20.951.655.971,1.345,1.371,1.854,1.356s1.143-.451,1.669-1.455c.963-1.84,3.458-12.835,2.82-21.187,0-.017,0-.034,0-.052Z" transform="translate(-671.732 -486.675)" fill="#bf7faf"/><path d="M728.7,504.609l1.011-.028c3.018-.084,5.66,2.821,5.9,6.49l.208,3.166c0,.018,0,.035,0,.052.485,6.334-.833,14.185-1.92,18.413a22.263,22.263,0,0,1,5.221,6.359l.384.69c-1.57,1.147-3.168,2.26-4.8,3.318l-1.339-1.589a22.964,22.964,0,0,1-3.362-5.25,4.678,4.678,0,0,1-.528-.655c-1.2-1.779-5.132-12.594-5.593-20.951,0-.018,0-.035-.005-.052l-.209-3.166C723.435,507.737,725.685,504.694,728.7,504.609Z" transform="translate(-671.732 -486.675)" fill="#f8a131"/><path d="M702.466,530.666a94.6,94.6,0,0,1,14.862-24.583c4.416-4.2,7.916-5.632,12.549-3.52h0c4.634,2.111,7.188,7.235,5.585,11.784,0,0-8.716,8.244-9.62,26.231-.1,1.97,2.209,5.426-1.876,5.143,0,0-14.106-.108-23.686-9.369a1.98,1.98,0,0,1-.033-2.83A9.6,9.6,0,0,0,702.466,530.666Z" transform="translate(-671.714 -486.675)" fill="#fab348"/><path d="M733.5,508.958h-8.31a38.45,38.45,0,0,0-.515,4.422A95.227,95.227,0,0,0,725,528.629c.27,2.833.659,5.651,1.148,8.451,1.755-15.558,9.333-22.733,9.333-22.733a8.348,8.348,0,0,0,.47-2.933Z" transform="translate(-671.732 -486.675)" fill="#dc9d4a"/><path d="M759.064,551.938l-2.019-1.592,0-.021,1.8,1.364a1.357,1.357,0,0,0,.393.2l.179.058a.216.216,0,0,0,.27-.279,1.693,1.693,0,0,0-.465-.684l-1.828-1.616a5.813,5.813,0,0,0-1.443-1.2l.885.241c.18.042.594.069.719-.182.027-.053.05-.108.077-.162-.26-.146-1.3-.565-1.659-.734a14.076,14.076,0,0,0-2.62-.1l-.822-1-1.29,1.4.873.8.623.986,1.716,1.843h0l0,0h0l1.561,1.346a2.258,2.258,0,0,0,.411.262l.194.1c.185.093.4.037.361-.094a1.39,1.39,0,0,0-.4-.6l-.665-.617,1.653,1.129a2.659,2.659,0,0,0,.481.256l.224.093c.215.09.45.024.4-.11a1.529,1.529,0,0,0-.5-.607l-1.306-1,1.482,1.031a3.012,3.012,0,0,0,.576.3l.268.108c.257.1.536.007.471-.163A1.852,1.852,0,0,0,759.064,551.938Z" transform="translate(-671.752 -486.675)" fill="#f5a8a8"/><path d="M735.607,509.193c-.993-3.655-3.893-6.048-6.478-5.345l-.866.235c-2.585.7-3.876,4.236-2.883,7.891l.856,3.154c0,.018.011.034.016.051,2.183,8.344,7.886,18.459,9.3,20.01.773.846,1.454,1.108,1.89.99s.889-.69,1.128-1.811c.438-2.055.24-13.667-2.1-21.969,0-.017-.007-.035-.012-.052Z" transform="translate(-671.733 -486.675)" fill="#da9fc7"/><path d="M752.4,548.636l1.078-1.436a75.216,75.216,0,0,0-7.152-10.2c-.012-.015-.023-.03-.035-.044L743.869,534c-3.637-4.436-8.7-7.807-10.116-6.066l-.476.585c-1.423,1.75,2.088,7.091,6.414,10.72l2.879,2.415.043.035A63.747,63.747,0,0,0,752.4,548.636Z" transform="translate(-671.739 -486.675)" fill="#f5a8a8"/><path d="M728.263,504.083l.866-.235c2.585-.7,5.485,1.69,6.478,5.345l.856,3.154c.005.017.008.035.012.052a69.028,69.028,0,0,1,2.081,13.24,8.369,8.369,0,0,0,2.665,5.549A28.949,28.949,0,0,1,743.863,534l.334.406a32.92,32.92,0,0,1-3.645,5.559l-.865-.726a28.555,28.555,0,0,1-3.414-3.408,4.422,4.422,0,0,1-.718-.642c-1.416-1.551-7.119-11.666-9.3-20.01-.005-.017-.012-.033-.016-.051l-.856-3.154C724.386,508.319,725.677,504.786,728.263,504.083Z" transform="translate(-671.733 -486.675)" fill="#fab348"/><path d="M734.344,491.961a5.051,5.051,0,0,1,2.637-2.053,9.884,9.884,0,0,0-3.3-2.16c-5.239-2.138-8.552,5.035-12.748,10.872-4.016,5.587-10.231,6.386-13.276,7.18-8.335,2.172-7.962,9.992-5.414,13.456s9.475,1.432,13.211-.694,2.653-7.962,4.489-10.441c2.082-2.813,4.3-3.123,7.78-3.674,5.018-.794,4.2-5.021,4.8-7.816a2.668,2.668,0,0,1,1-1.61A5.6,5.6,0,0,1,734.344,491.961Z" transform="translate(-671.715 -486.675)" fill="#22233b"/><path d="M736.883,486.973a3.463,3.463,0,0,1,2.471,2.114,1.713,1.713,0,0,1-.514,2.074,2.561,2.561,0,0,1-2.553.775A2.17,2.17,0,0,0,734.174,493a6.776,6.776,0,0,1-2.947,2.237c-2.1.953-7.061-.738-6.123-2.416a15.433,15.433,0,0,1,3.557-4.258C729.821,487.707,732.3,485.982,736.883,486.973Z" transform="translate(-671.733 -486.675)" fill="#22233b"/><path d="M734.264,494.468c-.25-.734-1.506-.695-2.334,1.028-.458.952-.224,3.774,1.383,2.694,0,0,4.3-4.287,2.631-4.287C735.718,493.9,734.576,495.385,734.264,494.468Z" transform="translate(-671.738 -486.675)" fill="#f5a8a8"/></g><g transform="translate(318.679 400.285)"><path d="M861,615.362s.312-.7.141-.952-.827-1.371-.827-1.371l-.121-.494s-.753-.707-.882-.845-.295-.375.082-.438a1.8,1.8,0,0,1,1.287.442,1.387,1.387,0,0,0,.668.4,12.221,12.221,0,0,1,.658-1.246s.319-1.7.517-2.387.307-1.06.509-1.047.312.452.214,1.211c-.072.571-.184,1.407-.222,1.793a.048.048,0,0,0,.089.028c.261-.481.958-1.765,1.133-2.076.217-.385.57-.988.81-.871s-.234,1.448-.449,2.046c-.142.4-.329.844-.439,1.1a.033.033,0,0,0,.056.034c.341-.415,1.16-1.407,1.431-1.662.345-.324.558-.385.654-.3s-.04.613-.285,1.041c-.194.338-.845,1.315-1.11,1.709a.036.036,0,0,0,.051.049c.294-.216.906-.666,1.167-.874.35-.28.638-.432.772-.267s-.541.945-.8,1.233-.9.873-.9.873a13.815,13.815,0,0,1-.791,1.987,3.7,3.7,0,0,1-1.425,1.4c-.091.3-.2,1.028-.2,1.028l-2.144-.647Z" transform="translate(-798.354 -600.872)" fill="#f5a8a8"/><path d="M863.284,616.2,861,615.268a1.494,1.494,0,0,0-1.962.849,73.582,73.582,0,0,1-3.94,8.623,63.706,63.706,0,0,1-6.1,9.325c-7.38,3.517-21.94,7.623-21.94,7.623-3.87,1.473-6.114,4.77-4.923,7.765l.4,1c1.191,3,5.294,4.229,9.165,2.756l3.34-1.271.054-.023a58.659,58.659,0,0,0,16.464-9.049h0c3.307-2.3,6.851-7.258,8.53-11.925l1.116-3.1c.006-.015.01-.031.016-.046a72.268,72.268,0,0,0,2.939-9.994A1.443,1.443,0,0,0,863.284,616.2Z" transform="translate(-798.326 -600.872)" fill="#04567a"/><g transform="translate(15.119 20.844)"><path d="M826.463,640.432s-2.808,4.692-6.528,2.479l-.122-3.9-.755-2.542,7.106,0S825.361,637.771,826.463,640.432Z" transform="translate(-813.443 -621.716)" fill="#f5a8a8"/><path d="M821.954,638.678c.754.675,1.891,1.968,2.951,2.058a1.885,1.885,0,0,0,1.474-.444,19.282,19.282,0,0,1-.216-3.818l-6.4-.166A12.929,12.929,0,0,0,821.954,638.678Z" transform="translate(-813.443 -621.716)" fill="#ca7f7f"/><path d="M826.5,630.753a4.972,4.972,0,0,0,.927-2.033,2.468,2.468,0,0,0-.525-1.727s1.028-1.176-.006-1.915-5.352.733-5.352.733Z" transform="translate(-813.445 -621.716)" fill="#023149"/><path d="M824.678,627.089c4.177,6.014,2.837,9.909,1.852,10.534-2.072,1.316-7.067.018-8.993-2.507s-1.8-5.86.28-7.45S822.867,624.48,824.678,627.089Z" transform="translate(-813.441 -621.716)" fill="#f5a8a8"/><path d="M826.37,622.345c-.875-.6-2.068-1.427-3.994,1.083-.466.606-1.461-.222-3.318.224-2.87.689-2.438,2.309-4.04,3.224-1.089.623-.734,1.567-1.483,3.568-.482,1.291,1.02,1.905.706,3.112-.369,1.412,2.071,1.23,2.287,2.131.516,2.154,2.569,2.584,3.334,3.28.228.206.1-.923.082-1.229a4.877,4.877,0,0,0-1.2-2.527c-.6.03-2.1-.178-2.105-2.442,0-2.439,2-.15,2-.15a4.355,4.355,0,0,0-.238-1.883c-.7-1.409.746-2.3,2.886-2.493.926-.082.963-1.278,1.728-1.266,1.261.02,2.208-.9,3.1-.528.476.2.9-.6,1.285-.894C828.753,624.536,827.838,623.36,826.37,622.345Z" transform="translate(-813.439 -621.716)" fill="#023149"/><path d="M827.459,633.329a3.142,3.142,0,0,0-1.63-.353c-.675.138-2.572.191-3.282,1.458s-1.188,1.022-1.664.536-2.053-3.651-2.6-3.873.74,2.8.74,2.8a5.824,5.824,0,0,1,.816,1.174,6.67,6.67,0,0,1,.717,1.606,2.955,2.955,0,0,0,1,1.753,3.949,3.949,0,0,0,3.171.056c1.567-.585,2.073-.749,2.456-1.79A4.939,4.939,0,0,0,827.459,633.329Z" transform="translate(-813.442 -621.716)" fill="#023149"/></g><g transform="translate(0 154.435)"><path d="M800.856,755.316l-2.547,5.523A3.993,3.993,0,0,0,801.4,763.4l2.16-5.512A32.362,32.362,0,0,0,800.856,755.316Z" transform="translate(-798.309 -755.307)" fill="#023149"/><path d="M802.706,759.82s-1.128,1.814-.714,2.963,1.385,1.657,2.913,2.461c1.976,1.041,2.951,5.542-.409,2.813-.5-.4-3.2-2.7-3.756-4.774a2.645,2.645,0,0,1,1.205-2.446Z" transform="translate(-798.311 -755.307)" fill="#023149"/></g><g transform="translate(41.446 161.264)"><path d="M839.787,762.155l.725,6.039a3.991,3.991,0,0,0,3.97.556l-1.049-5.828A32.419,32.419,0,0,0,839.787,762.155Z" transform="translate(-839.785 -762.135)" fill="#023149"/><path d="M843.723,765.02s-.01,2.136.945,2.9,2.048.683,3.769.566c2.228-.151,5.417,3.168,1.127,2.609-.636-.083-4.142-.618-5.7-2.093a2.648,2.648,0,0,1-.257-2.715Z" transform="translate(-839.788 -762.135)" fill="#023149"/></g><path d="M804.035,760.872C808.252,757.426,824.7,736.8,824.7,736.8c3.139-3.9,3.352-7.057,1.427-8.607l-.646-.52c-1.925-1.549-7.7-1.641-7.713-1.623A142.371,142.371,0,0,0,799,755.594a1.8,1.8,0,0,0,.087,1.763C799.93,758.694,801.746,761.03,804.035,760.872Z" transform="translate(-798.309 -600.872)" fill="#d73535"/><path d="M845.319,695.119c-1.574-6.157-2.432-11.06-5.866-13.744l-19.022,2.919c-1.829,7.866,5.575,14.165,10.868,28.2.91,2.413,3.362,12.383,4.721,17.9,1.327,5.381,6.047,6.952,8.3,6.085,3.719-1.432,3.858-5.453,3.934-6.228C849.039,722.225,846.693,700.491,845.319,695.119Z" transform="translate(-798.325 -600.872)" fill="#c82f2e"/><path d="M844.5,764.336c3.446-7.722,4.368-30.595,3.723-35,0,0-12.175-.811-12.175-.79-.022,7.559,1.129,27.324,2.368,33.847a1.962,1.962,0,0,0,1.411,1.533C841.263,764.32,843.623,764.844,844.5,764.336Z" transform="translate(-798.337 -600.872)" fill="#c82f2e"/><path d="M832.009,685.288c-1.226-6.266-22.747-12.611-19.253,14.028.8,6.117,3.926,29.163,6.567,33.288,1.045,1.633,5.935,3.5,6.372,2.864a17.115,17.115,0,0,0,2.021-3.365c2.339-5.375,1.9-14.725,2.824-20.9C831.308,706.075,833.419,692.5,832.009,685.288Z" transform="translate(-798.319 -600.872)" fill="#d73535"/><path d="M846.449,609.545s.106-.759-.127-.954-1.174-1.089-1.174-1.089l-.253-.442s-.919-.471-1.081-.567-.386-.28-.042-.445a1.8,1.8,0,0,1,1.359.07,1.4,1.4,0,0,0,.751.2,12.385,12.385,0,0,1,.288-1.379s-.161-1.72-.162-2.437,0-1.1.2-1.147.424.349.541,1.1c.087.569.211,1.4.281,1.785a.047.047,0,0,0,.093,0c.118-.534.435-1.96.517-2.308.1-.429.275-1.107.539-1.061s.175,1.456.133,2.091c-.027.418-.083.9-.117,1.182a.034.034,0,0,0,.064.018c.212-.494.727-1.674.916-1.993.242-.407.43-.524.546-.468s.131.6.013,1.079c-.093.379-.45,1.5-.595,1.949a.036.036,0,0,0,.062.033c.223-.288.688-.89.88-1.163.259-.365.495-.591.669-.469s-.259,1.057-.428,1.405-.621,1.087-.621,1.087a13.769,13.769,0,0,1-.213,2.128,3.685,3.685,0,0,1-.982,1.742c-.005.313.087,1.045.087,1.045l-2.239-.03Z" transform="translate(-798.342 -600.872)" fill="#f5a8a8"/><path d="M831.392,643.55a7.134,7.134,0,0,1-3.326-1.8l.075,1.06,2.33,4.5,2.034-3.678A5.07,5.07,0,0,1,831.392,643.55Z" transform="translate(-798.331 -600.872)" fill="#bf7faf"/><path d="M838.261,651.174c-2.34-8.114-10.54-9.787-11.594-9.793a37.67,37.67,0,0,0-5.5.607,19.019,19.019,0,0,0-3.935,2.251c-3.617,4.519,0,12.256,0,17.8s.39,8.293-1.525,12.444A31.493,31.493,0,0,0,813.8,683c3.165,1.936,13.119,1.713,15.778,1.294,3.474-.548,11.523-1.84,11.452-4.168C840.713,669.836,839.912,656.9,838.261,651.174Z" transform="translate(-798.32 -600.872)" fill="#047395"/><path d="M849.819,610.881a1.441,1.441,0,0,0-1.222-1.355l-2.44-.381a1.5,1.5,0,0,0-1.714,1.278,73.455,73.455,0,0,1-1.85,9.3,63.6,63.6,0,0,1-3.784,10.478c-6.369,5.122-19.6,12.476-19.6,12.476-3.428,2.326-4.852,6.051-3,8.691l.62.885c1.848,2.641,6.125,2.895,9.552.57l2.958-2.006.047-.035a58.656,58.656,0,0,0,13.939-12.6h0c2.688-3.005,5-8.642,5.557-13.57l.372-3.278c0-.017,0-.033,0-.049A72.209,72.209,0,0,0,849.819,610.881Z" transform="translate(-798.322 -600.872)" fill="#047395"/></g><g transform="translate(530.8 439.243)"><path d="M1032.483,657.043s-9.5,9.974-10.438,14.215c-.768,3.459.707,8.168,1.413,12.88s-6.985,17.043-8.868,21.284-3.767,10.131-4,14.372,18.364,2.121,18.364,2.121,8.947.471,10.125-3.534-4.572-61.908-4.572-61.908S1033.031,656.375,1032.483,657.043Z" transform="translate(-1010.585 -639.829)" fill="#d1d1cf"/><g transform="translate(8.376 56.168)"><path d="M1023.518,755.244l8.68.368.125,2.889-8.624-2.385Z" transform="translate(-1018.971 -695.997)" fill="#ca7f7f"/><g transform="translate(0 81.424)"><path d="M1029.238,777.421l.194,3.391-6.4,2.584,3.2-5.687Z" transform="translate(-1018.97 -777.421)" fill="#f5a8a8"/><path d="M1019.15,785.654l5.931-.164a1.978,1.978,0,0,0,1.376-.61l2.348-2.45.081,2.955.891-.025.719-3.358a2.821,2.821,0,0,0-.411-2.155l-.471-.707a.354.354,0,0,0-.524-.073l-3.34,2.841a4.5,4.5,0,0,1-2.262,1.023l-.7.1a6.423,6.423,0,0,0-1.472.4l-.9.36a2.706,2.706,0,0,0-.413.295,3.242,3.242,0,0,0-.668.758l-.341.537A.178.178,0,0,0,1019.15,785.654Z" transform="translate(-1018.967 -777.421)" fill="#00414f"/></g><path d="M1049.07,738.75a23.6,23.6,0,0,1,1.157,3.334l1.306,4.91c.007.027.014.053.02.081,2.139,10.639,4.617,24.716,5.232,31.288,0,0-2.164,1.1-3.674.456-2.73-5.772-12.616-34.275-12.616-34.275a21.592,21.592,0,0,1-.771-5.794Z" transform="translate(-1018.982 -695.997)" fill="#da9fc7"/><path d="M1022.379,724.533a91.439,91.439,0,0,0,0,14.187,22.072,22.072,0,0,0-.128,2.711s2.707,31.212,3.939,37.221c1.3.954,3.05-.449,3.05-.449,1.071-5.963,3.288-21.3,3.086-31.811,0-.026,0-.053,0-.08l-.065-4.871a22.53,22.53,0,0,0-.155-2.352C1033.488,736.534,1022.521,721.748,1022.379,724.533Z" transform="translate(-1018.969 -695.997)" fill="#f5a8a8"/><g transform="translate(28.183 79.362)"><path d="M1056.291,775.359l.744,4.131-4.073,4.731-4.728.071,2.956-2.385a1.748,1.748,0,0,0,.625-1.067l.792-4.646Z" transform="translate(-1047.172 -775.359)" fill="#f5a8a8"/><path d="M1054.386,785.219l.645-.278a2.091,2.091,0,0,0,1.109-1.135l1.344-3.317,1.233,2.862.861-.372-.607-3.57a2.976,2.976,0,0,0-1.242-1.95l-.737-.508a.371.371,0,0,0-.541.133l-.728,2.477c-.416.787-1.141,2.46-1.911,2.906l-1.647.691c-.761.2-1.559-.461-2.054-.408l-1.736.957a2.232,2.232,0,0,0-1.2,1.719Z" transform="translate(-1047.171 -775.359)" fill="#00414f"/></g><path d="M1047.588,697.463c.219.5,4.835,7.26,2.122,17.99-.289,11.373.24,22.28.422,22.962,0,0,6.758,27.145,6.83,36.694,0,0-3.752,3-5.9,1.5-4.182-6.617-11.544-35.264-11.544-35.264-.588-2.2-8.177-43.51-8.149-45.35Z" transform="translate(-1018.976 -695.997)" fill="#1c77b9"/><path d="M1022.091,696.778c-1.072,2.9-1.028,6.479-1.179,9.442-.23,4.522.344,25.63.893,30.543-.1.919,1.656,34.2,2.967,40.593,1.715,1.5,6.11-.107,6.11-.107,2.359-6.3,2.026-39.11,1.931-39.914,1.473-2.718,2.328-22.406,3.859-28.183.127-.477.165-10.377.287-10.872C1030.679,696.911,1028.237,698.625,1022.091,696.778Z" transform="translate(-1018.969 -695.997)" fill="#1c77b9"/></g><path d="M1049.485,669.06s6.554,1.839,9.725-1.77,1.853-9.115.14-10.638-3.3-.6-4.772-2.563-.642-3.3-2.24-5.411-2.622-1.6-4.131-2.447-1.607-4.894-3.27-5.708-.909-.269-4.822-.639c-7.014-.664-7.458,4.9-6.348,6.612s4.23,2.79,3.2,3.7-2.7.492-3.67,3.062a10.836,10.836,0,0,0,.646,8.82C1035.521,665.058,1049.485,669.06,1049.485,669.06Z" transform="translate(-1010.601 -639.829)" fill="#023149"/><path d="M1041.479,654.713l-3.659.1a8.781,8.781,0,0,0-4.033,1.78l-1.068.733-4.535,11.23-6.609,29.61,27.311.314-.282-18.791-2.9-23.485S1043.734,654.182,1041.479,654.713Z" transform="translate(-1010.593 -639.829)" fill="#eb5958"/><path d="M1035.052,655.782a3.784,3.784,0,0,0-1.392.671l-1.149.848-4.322,11.253-.085.382C1030.431,664.772,1033.3,660.227,1035.052,655.782Z" transform="translate(-1010.598 -639.829)" fill="#e3e3e0"/><path d="M1024.644,674.917l.341-4.772.186-.1v-5.341l-6.207,6.932s.243,3.991,2.115,4.843S1024.644,674.917,1024.644,674.917Z" transform="translate(-1010.591 -639.829)" fill="#d1d1cf"/><path d="M1061.114,677.247c-1.524-3.813-15.392-21.045-15.392-21.045s-.2.683-2.944,1.75l-2.511,3.142.314,20.577,8.319,16.807-.282-18.791,2.99,2.632s3.825,3.652,8.476,2.061C1062.766,683.463,1062.638,681.059,1061.114,677.247Z" transform="translate(-1010.607 -639.829)" fill="#e3e3e0"/><path d="M1032.7,655.668l-15.086-2.745,4.8,22.188,12.8,2.745Z" transform="translate(-1010.59 -639.829)" fill="#2e4348"/><path d="M1028.9,657.466l-6.179-1.124a.8.8,0,0,0-.93.956l.473,2.265a.8.8,0,0,0,.626.623l6.425,1.324a.8.8,0,0,0,.962-.869l-.192-1.893A1.452,1.452,0,0,0,1028.9,657.466Z" transform="translate(-1010.593 -639.829)" fill="#e3e3e0"/><path d="M1021.928,672.877l-2.639-1.156s-.992-5.645-.421-7.132,2.972-3.2,3.428-2.516-1.143,3.431-1.143,3.431l-.457.8Z" transform="translate(-1010.591 -639.829)" fill="#f5a8a8"/><path d="M1041.668,654.716a3.062,3.062,0,0,1-.781-2.488,15.283,15.283,0,0,1,.595-2.718s1.643.564,1.236-2.691a3.29,3.29,0,0,1-2.7-1.332,6.7,6.7,0,0,1-1.333-2.949s-3.819.964-4.108,3.893c-.12,1.214-.75,7.3,2.327,6.933a16.756,16.756,0,0,1-.816,2.285,5.164,5.164,0,0,0,.061,3.277C1036.417,659.516,1041.668,654.716,1041.668,654.716Z" transform="translate(-1010.602 -639.829)" fill="#f5a8a8"/><path d="M1042.529,654.646l-2.822,5.375a16.4,16.4,0,0,0-1.178,2.978c-.446,1.621-.8,3.6-1.082,4.96,0,0-1.649,5.95.976,16.375.652,2.586,2.1,8.434,4.439,10.957,3.061,3.3,4,6.832,4,12.723s-.353,9.189-.353,10.956-1.766,4.476,4,4.594,11.184.471,13.538-1.649-2.12-15.551-9.653-30.394c-3.3-6.126-3.532-5.891-3.532-12.252s3.741-14.091-.262-19.275a30.3,30.3,0,0,0-4.1-4C1045.013,655.051,1043.214,654.425,1042.529,654.646Z" transform="translate(-1010.604 -639.829)" fill="#e3e3e0"/><path d="M1047.137,675.015l-.236,3.77a45.781,45.781,0,0,0,3.944,3s-.412,1.885,1.589,6.6c.961,2.264-6.18-5.36-6.592-6.48s.118-5.772.118-5.772l-.942-4.006Z" transform="translate(-1010.61 -639.829)" fill="#d1d1cf"/><path d="M1044.55,668.589a38.255,38.255,0,0,0-1.088-4.017,7.251,7.251,0,0,1-.876,2.39,8.8,8.8,0,0,0-.294,1.406,2.532,2.532,0,0,0,.885,1.949l3.807,6.379.443-5.493Z" transform="translate(-1010.608 -639.829)" fill="#f5a8a8"/><path d="M1044.839,668.964l-1.71,1.261a2.972,2.972,0,0,1-1.3-2.724c.229-1.315,1.125-3.481.409-4.095s-1.227-1.638-.051-1.178a8.124,8.124,0,0,1,2.148,1.331l.1,4.2Z" transform="translate(-1010.607 -639.829)" fill="#f5a8a8"/></g><g transform="translate(489.011 220.551)"><g transform="translate(7.599)"><path d="M985.736,460.127c.888-.005,1.831.014,2.807.067h.041l2.784.136a17.714,17.714,0,0,1,2.864.379,1.668,1.668,0,0,0,1.876-.969c.281-.642.6-1.343.962-2.09a31.085,31.085,0,0,0,4.95,5.3c-.937.8-1.774,1.478-2.456,1.991v.007c-.227,1.965-4.825,2.341-8.915,1.209l-2.721-.754-.04-.012c-.695-.187-1.362-.385-2-.587C985.87,463.751,985.832,461.54,985.736,460.127Z" transform="translate(-976.377 -421.137)" fill="#ca7f7f"/><g transform="translate(20.106 135.039)"><path d="M1006.493,556.192l1.97,7.33a4.22,4.22,0,0,1-4.232.279l-1.394-6.541A37.184,37.184,0,0,1,1006.493,556.192Z" transform="translate(-996.495 -556.177)" fill="#023149"/><path d="M1004.467,560.144s.7,2.035-.37,2.765-2.213.563-4.022.306c-2.339-.332-5.961,2.925-1.39,2.666.677-.038,4.418-.331,6.177-1.767a2.8,2.8,0,0,0,.48-2.845Z" transform="translate(-996.491 -556.177)" fill="#023149"/></g><path d="M999.485,482.632c4.709-4.617,9.933-7.053,14.746-3.164l1.366,1.1c7,5.654-12.256,34.555-16.079,39.583-4.863,6.4-13.645,14.877-16.4,10.568a17.849,17.849,0,0,1-2.779-10.568c0-7.092,3.166-13.484,6.345-19.229C989.33,496.15,994.067,487.947,999.485,482.632Z" transform="translate(-976.373 -421.137)" fill="#0d242b"/><path d="M1003.224,560.783a120.46,120.46,0,0,1-15.191-21.2c-.011-.021-.024-.04-.035-.061L982.37,529.5c-2.055-4.952-.354-7.465,2.208-8.827,0,0,10.2,4.049,10.216,4.069,4.441,8.068,11.34,28.086,12.659,33.3C1007.453,558.045,1004.928,560.822,1003.224,560.783Z" transform="translate(-976.374 -421.137)" fill="#0d242b"/><g transform="translate(37.47 135.467)"><path d="M1023.182,556.617l2.89,7.018a4.222,4.222,0,0,1-4.162.818l-2.218-6.309A37.078,37.078,0,0,1,1023.182,556.617Z" transform="translate(-1013.871 -556.604)" fill="#023149"/><path d="M1022.123,560.512s.577,2.072-.53,2.739-2.242.433-4.033.072c-2.316-.467-6.12,2.573-1.543,2.581.678,0,4.43-.075,6.269-1.406a2.8,2.8,0,0,0,.645-2.812Z" transform="translate(-1013.867 -556.604)" fill="#023149"/></g><path d="M1020.871,562.877a162.829,162.829,0,0,1-18.174-23.729c-.014-.023-.029-.044-.044-.068l-2.553-4.189c-2.959-4.856-3.415-9.977-1.02-11.437l.8-.49c2.4-1.461,8.909-.712,8.924-.689,11.255,18.251,13.916,31.856,15.952,37.65C1024.758,559.925,1022.592,562.952,1020.871,562.877Z" transform="translate(-976.385 -421.137)" fill="#2e4348"/><path d="M1003,478.994c3.022-5.863,10.24-4.481,16.029-2.3l1.644.619c8.417,3.169,5.252,13.718,1.99,21.492-2.471,5.887-12.491,29.68-16.466,32.892-1.573,1.271-5.983,1.285-6.809.974s-1.739-3.43-2.084-5.424c-1.08-6.229-.392-15.159.278-21.692C998.14,500.131,999.526,485.742,1003,478.994Z" transform="translate(-976.385 -421.137)" fill="#2e4348"/><path d="M1002.317,430.143c.037,3.349,2.926,7.935,4.15,7.814,2.575-.254,5.884-4.577,5.847-7.926s-2.306-6.039-5.066-6.008S1002.279,426.793,1002.317,430.143Z" transform="translate(-976.389 -421.137)" fill="#f5a8a8"/><path d="M1011.272,439.858l3.884-2.3-3.494-5.9-4.335,2.908A13.913,13.913,0,0,1,1011.272,439.858Z" transform="translate(-976.393 -421.137)" fill="#f5a8a8"/><path d="M1003.159,430.119a15.219,15.219,0,0,1-1.813,2.334c-.539.4-.685.79.214,1.126a3.637,3.637,0,0,0,1.943.054Z" transform="translate(-976.388 -421.137)" fill="#f5a8a8"/><path d="M998.684,462.06c.8.577,1.615,1.12,2.45,1.638a77.473,77.473,0,0,0,11.195-11.43c-1.561-3.909-3.156-7.8-4.832-11.662a9.222,9.222,0,0,0-.574.725l-1.873,2.652c-.011.015-.02.03-.029.045a96.46,96.46,0,0,0-8.938,15.785A24.444,24.444,0,0,0,998.684,462.06Z" transform="translate(-976.384 -421.137)" fill="#dd6d4b"/><path d="M1015.358,436.69c-.72-.351-.17-.971-.75-.914l-4.794,1.045c-1.516.114-.68.842-.905,1.081-6.021,6.406-5.05,23.669-5.988,38.462a6.694,6.694,0,0,0,0,.825,2.669,2.669,0,0,0-.086,1.481c.693,3.017,6.684,5.23,13.843,4.918,6.387-.279,11.641-2.456,12.8-5.194l.011-.024c.025-.062.049-.125.07-.188a5.324,5.324,0,0,0,.2-2.411c-.682-5.658-.983-11.08-2.241-15.784C1023.024,438.324,1015.6,436.621,1015.358,436.69Z" transform="translate(-976.389 -421.137)" fill="#f38054"/><path d="M1002.921,476.364c.445-7.016.461-14.587,1-21.292q1.847-.471,3.692-.948c3.482-.9,4.5-9.092,8.05-9.8,3.038,10.658-2.575,23.76-8.573,29.687a29.461,29.461,0,0,1-4.247,3.46,2.776,2.776,0,0,1,.076-.278A6.694,6.694,0,0,1,1002.921,476.364Z" transform="translate(-976.389 -421.137)" fill="#dd6d4b"/><path d="M1011.708,431.212s-.637.256-1.225-.789a2.031,2.031,0,0,0-1.877-.989,2.16,2.16,0,0,1-2.581-.813c-.383-.474-.647-1.372-1.282-1.578a1.154,1.154,0,0,0-.6,0c-1.38.289-2.545,1.4-4.011,1.308a1.76,1.76,0,0,1-1.307-2.821c.894-1.015,3.419.114,4.294-.727.446-.429.452-1.036.693-1.565a3.446,3.446,0,0,1,1.482-1.464,3.961,3.961,0,0,1,4.088-.13,3.31,3.31,0,0,0,2.477.813c.5-.116.97-.333,1.466-.464a3.622,3.622,0,0,1,2.633.247c1.826.991,1.679,3.421.672,4.958a1.97,1.97,0,0,0,.235,2.649c.8,1.17.265,3.722-2.545,3.63-.153.7-1.019.938-1.019.938l-1.287-1.066A5.194,5.194,0,0,0,1011.708,431.212Z" transform="translate(-976.386 -421.137)" fill="#023149"/><path d="M1010.482,428.821c.494.846.511,1.756.036,2.033s-1.258-.184-1.752-1.03-.51-1.757-.035-2.033S1009.989,427.975,1010.482,428.821Z" transform="translate(-976.393 -421.137)" fill="#f5a8a8"/><path d="M976.612,466.281c2.787.246,11.961-.8,11.961-.8a27.82,27.82,0,0,1,5.47-.248,4.63,4.63,0,0,0,4.786-3.549,81.019,81.019,0,0,1,5.221-15.646c.009-.018.016-.037.024-.056l1.576-3.362c1.827-3.9,5.536-6,8.285-4.7l.922.436c2.749,1.3,3.5,5.512,1.672,9.409l-1.576,3.361c-.009.019-.019.036-.028.055A87.024,87.024,0,0,1,1001.7,470.69c-.941,2.984-8.756,3.533-14.26,2.112l-3.173-.82-.043-.012a25.879,25.879,0,0,1-7.855-3.856Z" transform="translate(-976.37 -421.137)" fill="#f5a8a8"/><path d="M1007.442,463.594a76.992,76.992,0,0,0,7.5-12.419c.009-.019.019-.036.028-.055l1.576-3.361c1.826-3.9,1.077-8.109-1.672-9.409l-.922-.436c-2.749-1.3-6.458.8-8.285,4.7l-1.576,3.362c-.008.019-.015.038-.024.056a71.512,71.512,0,0,0-4.035,11.062A38.212,38.212,0,0,1,1007.442,463.594Z" transform="translate(-976.387 -421.137)" fill="#f38054"/></g><path d="M977.528,466.407s-.752-.143-.862-.426-.655-1.463-.655-1.463l-.338-.38s-.151-1.023-.19-1.207-.141-.456-.408-.183a1.8,1.8,0,0,0-.369,1.311,1.4,1.4,0,0,1-.055.775,12.34,12.34,0,0,0-1.4-.169s-1.576-.7-2.254-.934-1.046-.351-1.15-.178.194.513.873.866c.51.265,1.259.649,1.6.838a.047.047,0,0,1-.028.089c-.544-.059-2-.216-2.35-.25-.44-.041-1.136-.094-1.177.171s1.322.632,1.937.8c.4.108.879.21,1.156.268a.033.033,0,0,1,0,.066c-.535.043-1.817.152-2.179.229-.463.1-.635.24-.619.368s.527.316,1.017.358c.389.034,1.561.054,2.036.061a.035.035,0,0,1,.011.069c-.344.12-1.062.367-1.382.462-.429.129-.717.28-.659.484s1.083.094,1.467.046,1.228-.24,1.228-.24a13.776,13.776,0,0,0,2.082.48,3.687,3.687,0,0,0,1.964-.373c.3.1.961.417.961.417l.69-2.132Z" transform="translate(-968.765 -421.137)" fill="#f5a8a8"/></g><g transform="translate(401.684 111.767)"><path d="M907.791,361.154c-1.364-.417-7.6-2.773-7.142-4.314.817-2.781,9.65-13.586,9.65-13.586C915.86,329.832,923.275,330,923.275,330c2.377,1.867,2.018,7.576-2.161,14.146Z" transform="translate(-881.388 -312.353)" fill="#016b80"/><g transform="translate(4.952 101.761)"><g transform="translate(6.327)"><path d="M895.795,414.126l.185,6.142a3.312,3.312,0,0,1-3.319.26l.275-5.529A29.184,29.184,0,0,1,895.795,414.126Z" transform="translate(-892.661 -414.114)" fill="#22233b"/></g><g transform="translate(0 3.362)"><path d="M893.183,417.476s.262,1.667-.661,2.087-1.787.134-3.15-.31c-1.763-.575-5,1.45-1.437,1.871.529.063,3.46.345,5.014-.526a2.2,2.2,0,0,0,.757-2.134Z" transform="translate(-886.33 -417.476)" fill="#22233b"/></g></g><g transform="translate(18.149 102.489)"><g transform="translate(6.307)"><path d="M909.339,414.856,909.176,421a3.311,3.311,0,0,1-3.328.071l.588-5.5A29.2,29.2,0,0,1,909.339,414.856Z" transform="translate(-905.848 -414.843)" fill="#22233b"/></g><g transform="translate(0 3.21)"><path d="M906.542,418.053s.167,1.68-.778,2.046-1.792.032-3.128-.488c-1.728-.674-5.078,1.164-1.54,1.787.524.092,3.435.54,5.036-.241a2.2,2.2,0,0,0,.876-2.088Z" transform="translate(-899.536 -418.053)" fill="#22233b"/></g></g><path d="M923.264,329.3c-7.211,5.474-8.038,23.338-10.091,36.261a12.8,12.8,0,0,0,.033,2.483c.58,2.028,5.365,3.92,13.447,3.8,7.211-.106,13.274-1.9,14.763-4.266l.013-.021c.034-.054.064-.108.093-.163a3.784,3.784,0,0,0,.391-2.105c-.387-4.965-.362-9.716-1.461-13.858-3.6-19.052-6.781-21.411-7.061-21.355-1.2-.661-3.787-1.836-5.921-1.5A30.324,30.324,0,0,0,923.264,329.3Z" transform="translate(-881.397 -312.353)" fill="#fff"/><path d="M923.717,329.2a7.235,7.235,0,0,0-2.2,2.015c-1.7,2.391-4.68,9.249-3.08,19.763,1.744,11.46-1.169,17.92-.8,24.132.071,1.2-.229,5.507-3.095,4.012-1.695-.884-3.8-2.042-4.1-4.012.152-.928,3.034-9.911,1.943-17.123-1.257-8.311.346-17.185,3.559-22.6a20.068,20.068,0,0,1,5.591-5.412,16.467,16.467,0,0,1,2.446-1.26A1.082,1.082,0,0,0,923.717,329.2Z" transform="translate(-881.395 -312.353)" fill="#016b80"/><path d="M934.714,369.335c-1.854-4.038-39.291-3.331-44.139-1.313-1.429.6-3.021,2.98-3.228,5.083a24.134,24.134,0,0,0-.308,6.971l.456,5.116.009.084c.926,10.985,2.62,24.31,4.179,30.519.768.564,3,.163,4.527-.2a2.492,2.492,0,0,0,1.652-2.386,226.644,226.644,0,0,0,.132-33.121c7.47.6,17.894.647,21.345.817,6.738.331,15.174-4.443,15.468-7.888Z" transform="translate(-881.378 -312.353)" fill="url(#g)"/><path d="M945.859,369.335c-1.7-4.035-36.179-3.282-40.644-1.258a7.175,7.175,0,0,0-3.53,4.808,22.488,22.488,0,0,0-.76,7.928l.321,5.126c0,.028.005.056.007.084.638,11.006,1.981,24.371,3.377,30.618.752.585,3,.243,4.53-.083a2.494,2.494,0,0,0,1.714-2.342,219.571,219.571,0,0,0,1.019-33.261h26.293c6.269,0,7.836-4.438,7.756-7.941Z" transform="translate(-881.388 -312.353)" fill="#ed3f3b"/><path d="M930.909,360.487c-.935,3.138-4.293,15.471.128,17.25,5.288,2.128,18.44-.2,16.357-5.783-1.41-3.772-.6-9.365-.6-9.365a107.89,107.89,0,0,0-.8-19.125c-1.09-6.8-7.484-13.124-15.71-14.919-.874.266-.366.757.139,1.087a1.655,1.655,0,0,1,.682,1.041c.759,3.112-1.363,5.957-.384,9.787C932.7,348.2,932.394,352.943,930.909,360.487Z" transform="translate(-881.409 -312.353)" fill="#016b80"/><path d="M946.874,361.243a3.5,3.5,0,0,1-1.4,2.664c-.674.527-1.438,1.1-1.9,1.392a22.608,22.608,0,0,1-8.186,3c-1.962.409-3.655.11-5.664.327.507-2.4,1.035-5.507,1.308-7.257,4.253-2.783,9.214-2.892,9.541-3.492,1.127-2.068-2.881-9.151-4.525-12.6-4.418-9.279.638-11.88,2.227-13.222,4.136,2.9,7.011,7.055,7.709,11.413A106.531,106.531,0,0,1,946.874,361.243Z" transform="translate(-881.41 -312.353)" fill="#023149"/><path d="M920.614,321.874s-.555-1.118-.993-2.088-.659-1.631-.659-1.631a5.225,5.225,0,0,1,.78-2.8c.816-1.1,4.319-.185,4.319-.185Z" transform="translate(-881.402 -312.353)" fill="#023149"/><path d="M930.38,320.8s-.393,7.334-.465,9.442a1.967,1.967,0,0,1-.981,1.759,5.751,5.751,0,0,1-3.091.751,4.756,4.756,0,0,1-3.254-.808.406.406,0,0,1-.112-.512,15.745,15.745,0,0,0,1.2-7.7l6.728-2.817" transform="translate(-881.404 -312.353)" fill="#f0a5a7"/><path d="M922.5,331.394a20.2,20.2,0,0,0,1.222-6.144s5.925-.864,5.885-.724C929.467,327.13,927.978,329.689,922.5,331.394Z" transform="translate(-881.404 -312.353)" fill="#d88f92"/><path d="M920.39,317.712c-1.014,8.245,1.259,11.258,3.23,11.452,5.365.526,7.58-3.391,8.165-6.947s-2.186-7.254-4.836-7.69S920.831,314.135,920.39,317.712Z" transform="translate(-881.403 -312.353)" fill="#f0a5a7"/><path d="M933.017,318.391a7.106,7.106,0,0,0-1.921-4.282c-1.253-1.541-2.608-.4-5.656-1.3-7.82-2.3-6.275,4.887-5.854,4.527a1.54,1.54,0,0,1,.949-.323c.455-1.492,2.138-1.456,3.57-1.323,1.808.169,3.256.412,4.377,1.756.01.008.021.013.031.021l-.009.007c.087.1.176.206.26.318a1.355,1.355,0,0,1,.139,1.26c0,.045.007.081,0,.129a4.705,4.705,0,0,0,.378,2.008s1.294-3.007,2.1-.507c.744,2.321-.724,3.03-1.352,3.2a5.259,5.259,0,0,0-.394,2.985c.083.319.324,1.519.489,1.232.555-.965.41-2.124,1.076-3.034A9.463,9.463,0,0,0,933.017,318.391Z" transform="translate(-881.402 -312.353)" fill="#023149"/><path d="M922.724,364.206s-3.353-.246-4.171-.246a13.33,13.33,0,0,0-2.617.042,13.958,13.958,0,0,0-2.944,1.759c-.45.491-.573.682-.436.887a.406.406,0,0,0-.069.354.37.37,0,0,0,.451.178s-.036.208.317.208a.883.883,0,0,0,.685-.215s-.051.082.092.194c.208.164.944,0,1.339-.123a14.183,14.183,0,0,1,1.561-.187c.2-.041.706.259,1.414.3a9.116,9.116,0,0,0,3.371-.614,12.375,12.375,0,0,1,3.462-.477,6.63,6.63,0,0,0-.069-2.046C924.892,363.96,923.965,364.138,922.724,364.206Z" transform="translate(-881.397 -312.353)" fill="#f0a5a7"/><path d="M939.559,331.809a7.488,7.488,0,0,0-4.358-1.074c-4.418.733-4.1,5.3-1.576,9.1,6.8,10.249,9.312,18.534,9.007,19.817-.378,1.594,3.772,2.27,4.592,1.989s4.047-1.142,4.053-2.875a56.642,56.642,0,0,0-1.8-11.9,28.314,28.314,0,0,0-5.759-11.11C942.588,334.419,941.293,332.648,939.559,331.809Z" transform="translate(-881.411 -312.353)" fill="#016b80"/><path d="M922.529,367.735a1.235,1.235,0,0,1-1.034-1.164c.066-1.128.949-3.575,1.739-3.723,2.757-.516,14.481-3.541,22.1-3.522.079.694,5.847-1.422,5.847-1.422,1.308,9.167-3.168,9.361-9.507,10.454C941.671,368.358,928.945,369.575,922.529,367.735Z" transform="translate(-881.404 -312.353)" fill="#016b80"/><g transform="translate(0 33.63)"><path d="M919.112,369.117H889.473a.321.321,0,0,1-.306-.222L881.853,346.4a.32.32,0,0,1,.3-.42h29.13a1.022,1.022,0,0,1,.972.706l7.158,22.007A.322.322,0,0,1,919.112,369.117Z" transform="translate(-881.375 -345.983)" fill="#023149"/><rect width="28.951" height="1.064" rx="0.399" transform="translate(28.093 21.56)" fill="#023149"/><path d="M918.942,369.117H889.684a1.455,1.455,0,0,1-1.383-1.005l-6.891-21.189a.717.717,0,0,1,.682-.94H910.4a1.4,1.4,0,0,1,1.332.967Z" transform="translate(-881.374 -345.983)" fill="#e3e3e0"/><path d="M0,0H28.951a0,0,0,0,1,0,0V.265a.8.8,0,0,1-.8.8H0a0,0,0,0,1,0,0V0A0,0,0,0,1,0,0Z" transform="translate(28.093 22.07)" fill="#e3e3e0"/></g><path d="M903.176,357.523c0,1.085-1.282,1.964-2.863,1.964s-2.862-.879-2.862-1.964,1.281-1.964,2.862-1.964S903.176,356.438,903.176,357.523Z" transform="translate(-881.386 -312.353)" fill="#27a6de"/></g><g transform="translate(638.889 434.933)"><g transform="translate(8.014)"><path d="M1146.847,771.479c1.62.588,2.658.963,3.78.525l-.018-5.576a35.588,35.588,0,0,1,3.645-.282l.407,7.275a4.288,4.288,0,0,1-3.475-.167c-.007,0-.012.01-.019.014-1.936,1-5.509.539-6.151.442C1140.671,773.051,1144.715,770.706,1146.847,771.479Z" transform="translate(-1126.785 -635.519)" fill="#231f20"/><path d="M1196.338,770.213c1.494-.917,2.146-1.464,2.489-2.657.006-.02-.1-.672-.1-.692l-2.719-4.056a26.787,26.787,0,0,1,1.1-2.545l5.618,5.045a4.287,4.287,0,0,1-2.3,2.615.214.214,0,0,1,0,.025c-.424,2.139-3.013,4.646-3.49,5.088C1193.715,776.025,1194.4,771.4,1196.338,770.213Z" transform="translate(-1126.823 -635.519)" fill="#231f20"/><path d="M1188.126,737.73a183.427,183.427,0,0,1,13.259,26.512s-.856,2.873-2.57,2.82c-4.149-4.286-14.445-14.956-20.163-23.735A51.09,51.09,0,0,1,1188.126,737.73Z" transform="translate(-1126.811 -635.519)" fill="#04567a"/><path d="M1154.508,738.608l2.042.136c.11,10.771-.959,27.015-2,32.621,0,0-2.511.925-3.955,0-1.338-5.7-4.55-22.314-5.045-33.006C1148.538,738.368,1151.525,738.414,1154.508,738.608Z" transform="translate(-1126.787 -635.519)" fill="#047395"/><path d="M1190.283,705.472c0,.027-.006.053-.009.08-.422,8.734-3.587,19.106-6.236,25.753q.328.462.641.955l2.618,4.151c.015.023.028.046.042.069.63.985,1.248,2.012,1.86,3.053a69.142,69.142,0,0,0-9.131,5.963c-.715-1.052-1.4-2.1-2.043-3.131l-.045-.067-2.446-3.879a7.154,7.154,0,0,1-.771-1.074,12.03,12.03,0,0,1-.791-1.795,15.886,15.886,0,0,1-1.115-3.481c-1.939-6.8-4.173-18.418-3.494-27.782,0-.027,0-.053,0-.081l.3-4.9c.344-5.679,4.908-10.024,10.2-9.7l1.773.107c5.288.32,9.3,5.183,8.953,10.863Z" transform="translate(-1126.804 -635.519)" fill="#04567a"/><path d="M1159.459,728.752c-.365.286-3.1,1.966-3.084,2.319,0,.1.008.193.011.291l.118,4.907c0,.027,0,.054,0,.081.044,1.432.051,2.9.032,4.391a97.093,97.093,0,0,1-10.931-1.049c-.053-1.042-.095-2.073-.113-3.076,0-.027,0-.054,0-.081l-.119-4.907c-.007-.284-.006-.565,0-.844,0-.028,0-.056,0-.085a7.06,7.06,0,0,1,.041-.872,17.215,17.215,0,0,1,.793-4.309c1.869-5.623,3.241-11.282,5.707-16.716,3.585-7.9,11.505-23.852,22.448-16.373l1.574,1.076a10.408,10.408,0,0,1,4.15,11.134c-1.444,5.56-6.162,10.309-9.972,14.4a89.681,89.681,0,0,1-7.07,6.768Q1161.28,727.319,1159.459,728.752Z" transform="translate(-1126.786 -635.519)" fill="#047395"/><path d="M1131.979,644.957l-.533-.475a1.724,1.724,0,0,1-.222-.146l-2.839-2.177a.143.143,0,0,1,.064-.26l.34-.04a1.31,1.31,0,0,1,.656.089l.986.4.6-.26a.992.992,0,0,0,.513-.69l-.15-.785-.448-2.83a2.3,2.3,0,0,1,.021-.826l.077-.368a.123.123,0,0,1,.234-.024l1.463,3.363,1.407,4.074,1.814.713-1.724.875-1.168-.145A2.01,2.01,0,0,1,1131.979,644.957Z" transform="translate(-1126.774 -635.519)" fill="#f5a8a8"/><path d="M1181.735,654.275c4.186.783,7.13,3.821,6.576,6.785l-.185.994c-.554,2.965-4.4,4.733-8.582,3.95l-3.611-.675-.059-.013c-9.547-1.7-21.4-7.179-23.264-8.628-1.018-.79-1.374-1.53-1.281-2.03s.693-1.061,1.928-1.43c2.262-.677,15.293-1.507,24.807.363l.06.009Z" transform="translate(-1126.791 -635.519)" fill="#d73535"/><path d="M1133.305,645.4l.755-1.4a63.752,63.752,0,0,1,10.457,3.356l.047.018,3.151,1.288c4.73,1.933,9.113,5.466,8.234,7.261l-.3.6c-.883,1.8-6.278.256-10.612-2.538l-2.883-1.859-.042-.028A61.934,61.934,0,0,1,1133.305,645.4Z" transform="translate(-1126.778 -635.519)" fill="#d73535"/><path d="M1174.088,641.817c-1.6,2.79-1.028,6.12,1.271,7.438s5.459.126,7.056-2.664,1.027-6.12-1.272-7.438S1175.685,639.027,1174.088,641.817Z" transform="translate(-1126.807 -635.519)" fill="#f5a8a8"/><rect width="5.268" height="7.392" transform="matrix(-1, 0.003, -0.003, -1, 54.112, 19.087)" fill="#f5a8a8"/><path d="M1175.685,640.526a8.039,8.039,0,0,1-2.177.775c-.646,0-.885.77-.2,1.778a2,2,0,0,0,1.5,1.005Z" transform="translate(-1126.807 -635.519)" fill="#f5a8a8"/><path d="M1176.515,646.461c.009,2.655,1.841,4.8,4.093,4.794s4.07-2.166,4.061-4.821-1.842-4.8-4.093-4.794S1176.506,643.806,1176.515,646.461Z" transform="translate(-1126.809 -635.519)" fill="#023149"/><path d="M1184.957,638.617c.173-.076.225-.167.2-.245s-.084-.335-.339-.315c-5.328.42-8.968-5.74-10.7-.242-.612,2.93,3.25,2.649,5.145,2.5C1182.246,640.073,1183.179,640.056,1184.957,638.617Z" transform="translate(-1126.807 -635.519)" fill="#023149"/><path d="M1178.7,644.407c2.4,1.995,5.3,2.467,6.475,1.054s.173-4.178-2.231-6.174-5.3-2.467-6.475-1.054S1176.292,642.411,1178.7,644.407Z" transform="translate(-1126.809 -635.519)" fill="#023149"/><path d="M1183.276,648.161c1.3-.005,2.349-1.4,2.343-3.114s-1.064-3.1-2.363-3.1-2.349,1.4-2.343,3.114S1181.977,648.165,1183.276,648.161Z" transform="translate(-1126.813 -635.519)" fill="#023149"/><path d="M1178.017,646.738c-.312.887-.968,1.464-1.465,1.289s-.646-1.037-.334-1.924.968-1.463,1.466-1.288S1178.329,645.851,1178.017,646.738Z" transform="translate(-1126.809 -635.519)" fill="#f5a8a8"/><path d="M1165.445,690.034a7.083,7.083,0,0,1,.2-.83,104.6,104.6,0,0,0,4.235-28.794c.7-4.754,5.328-8.083,10.392-7.79h0c5.063.293,7.481,3.185,9.426,8.937a118.133,118.133,0,0,1,.892,29.089,5.542,5.542,0,0,1-.622,2.111q-.045.081-.093.162l-.014.02c-1.474,2.373-6.367,4.127-12.186,4.147-6.994.023-12.672-2.468-12.682-5.564A2.8,2.8,0,0,1,1165.445,690.034Z" transform="translate(-1126.801 -635.519)" fill="#eb5958"/><path d="M1169.885,660.41a8.6,8.6,0,0,1,2.3-4.674c2.444,2.032,4.9,4.054,7.294,6.141q-1.566,2.38-3.185,4.727-3.947,5.739-8,11.407A104.278,104.278,0,0,0,1169.885,660.41Z" transform="translate(-1126.803 -635.519)" fill="#d73535"/><path d="M1173.23,654.274c4.243.355,7.481,3.078,7.23,6.083l-.084,1.008c-.251,3.005-3.893,5.155-8.137,4.8l-3.661-.3-.06-.008c-9.67-.717-22.015-4.97-24.018-6.222-1.092-.684-1.522-1.384-1.479-1.89s.581-1.126,1.772-1.619c2.182-.9,15.061-3.05,24.716-2.155l.061,0Z" transform="translate(-1126.785 -635.519)" fill="#eb5958"/><path d="M1126.773,653.363l.407-1.538a63.766,63.766,0,0,1,10.953.808l.05.006,3.365.513c5.05.769,10.14,3.173,9.706,5.124l-.146.656c-.437,1.961-6.044,1.723-10.911.024l-3.239-1.13-.047-.018A61.972,61.972,0,0,1,1126.773,653.363Z" transform="translate(-1126.773 -635.519)" fill="#eb5958"/></g><path d="M1127.516,651.588s-.753-.143-.862-.426S1126,649.7,1126,649.7l-.337-.381s-.151-1.023-.191-1.207-.141-.456-.407-.183a1.8,1.8,0,0,0-.37,1.311,1.4,1.4,0,0,1-.055.776,12.534,12.534,0,0,0-1.4-.17s-1.576-.7-2.254-.934-1.045-.351-1.15-.178.195.514.873.867c.511.265,1.26.649,1.6.837a.048.048,0,0,1-.028.09c-.544-.06-2-.217-2.35-.25-.44-.041-1.136-.1-1.177.17s1.322.632,1.937.8c.4.108.88.211,1.157.268a.033.033,0,0,1-.005.066c-.535.043-1.817.152-2.179.23-.463.1-.633.239-.617.367s.526.316,1.017.359c.388.033,1.561.053,2.035.06a.036.036,0,0,1,.012.07c-.345.119-1.062.366-1.383.462-.429.128-.718.279-.659.484s1.084.093,1.467.045,1.228-.24,1.228-.24a13.876,13.876,0,0,0,2.082.481,3.69,3.69,0,0,0,1.964-.374c.3.1.961.418.961.418l.689-2.133Z" transform="translate(-1118.753 -635.519)" fill="#f5a8a8"/></g></svg>