<svg xmlns="http://www.w3.org/2000/svg" xmlns:xlink="http://www.w3.org/1999/xlink" width="348.276" height="272.122" viewBox="0 0 348.276 272.122"><defs><linearGradient id="a" y1="0.5" x2="1" y2="0.5" gradientUnits="objectBoundingBox"><stop offset="0.145" stop-color="#f2f1f1"/><stop offset="1" stop-color="#60c3ba"/></linearGradient><linearGradient id="b" x1="-2.514" y1="12.483" x2="-1.226" y2="12.483" xlink:href="#a"/><linearGradient id="c" x1="-0.016" y1="0.721" x2="0.687" y2="-0.11" gradientUnits="objectBoundingBox"><stop offset="0.145" stop-color="#f2f1f1"/><stop offset="1" stop-color="#94d3cd"/></linearGradient><linearGradient id="d" x1="0.081" y1="0.517" x2="1.038" y2="0.517" gradientUnits="objectBoundingBox"><stop offset="0.137" stop-color="#bce2de"/><stop offset="0.358" stop-color="#60c3ba"/><stop offset="0.855" stop-color="#f2f1f1"/></linearGradient><linearGradient id="e" x1="-4.45" y1="1.454" x2="-3.601" y2="0.877" gradientUnits="objectBoundingBox"><stop offset="0" stop-color="#94d3cd"/><stop offset="0.855" stop-color="#f2f1f1"/></linearGradient><linearGradient id="f" x1="69.065" y1="126.788" x2="70.155" y2="126.788" gradientUnits="objectBoundingBox"><stop offset="0" stop-color="#e4e4e4"/><stop offset="0.18" stop-color="#e0e2e2"/><stop offset="0.319" stop-color="#d7dbdd"/><stop offset="0.443" stop-color="#c6d1d6"/><stop offset="0.56" stop-color="#afc2cb"/><stop offset="0.67" stop-color="#91afbd"/><stop offset="0.777" stop-color="#6c98ab"/><stop offset="0.88" stop-color="#417c97"/><stop offset="0.978" stop-color="#105d7f"/><stop offset="1" stop-color="#04567a"/></linearGradient><linearGradient id="g" x1="-0.708" y1="0.552" x2="0.373" y2="0.273" gradientUnits="objectBoundingBox"><stop offset="0.145" stop-color="#ed3f3b"/><stop offset="0.186" stop-color="#dc3a36"/><stop offset="0.266" stop-color="#b02e2b"/><stop offset="0.377" stop-color="#691c1a"/><stop offset="0.516" stop-color="#080202"/><stop offset="0.528"/></linearGradient></defs><g transform="translate(-479.396 -200.212)"><path d="M887.149,573.256s-18.153,8.047-34,11-29.254,2.307-40-5-25.111-34.654-36-40-33.5-10.933-47-15-40.931-17.408-37-57,30.7-53.054,55-46,37.177,13.5,80,1,88.153-14.5,108,22S941.114,543.168,887.149,573.256Z" transform="translate(-125.752 -126.044)" opacity="0.5" fill="url(#a)"/><path d="M710.218,614.834a133.7,133.7,0,0,1,23-9c11.4-3.031,22.517-3.823,32-1s24.779,16.218,34,18,28.05,2.132,39,3,34.514,5.882,39,27-13.341,30.422-33,29-31.046-3.559-61,7-64.157,16.271-86-1S675.169,635.656,710.218,614.834Z" transform="translate(-119.822 -237.622)" opacity="0.5" fill="url(#b)"/><path d="M701.115,384.251s15.632-11.642,31-18,29.63-8.411,42-4,31.9,27.459,44,30,36.53,1.249,51,2,44.678,8.01,49,46-19.012,57.1-45,56-40.418-5.416-81,16-86.339,34.7-114,5S652.976,424.675,701.115,384.251Z" transform="translate(-106.719 -94.039)" fill="#f2f1f1" opacity="0.35"/><ellipse cx="86.792" cy="73.371" rx="86.792" ry="73.371" transform="translate(479.396 393.202) rotate(-57.367)" fill="url(#c)" style="mix-blend-mode:multiply;isolation:isolate"/><path d="M687.186,321.29s18.637-10.378,42-8,30.261,13.371,36,18,10.073,16.4,55,18,53.434,22.824,55,27,6.21,18.322-5,28-18.573,12.1-3,20,17.968,18.83,15,27-13.357,24.029-35,23-20.494-4.169-29,4-12.67,17.356-30,20-30.379-6.675-43-4-22.031,12.163-28,15-34.206,6.593-48-5-15.708-8.179-20-5-20.516,9.676-38-4-18.527-29.175,1-45,14.224-21.122,4-27-28.582-16.1-30-36,12.1-36.135,40-44S647.445,343.492,687.186,321.29Z" transform="translate(-62.789 -66.078)" opacity="0.5" fill="url(#d)"/><ellipse cx="53.809" cy="79.291" rx="53.809" ry="79.291" transform="matrix(0.331, -0.944, 0.944, 0.331, 629.751, 334.136)" opacity="0.65" fill="url(#e)" style="mix-blend-mode:multiply;isolation:isolate"/><g transform="translate(536.27 367.775)"><path d="M619.246,691.454v-1h0c-.011.059-.008.941,0,1h0c.009.072-.051.052,0,0a6.963,6.963,0,0,0,0-1h0a7.2,7.2,0,0,1,0-1h1c.016.073-.113,0,0,0h0c.008-.12,0,.161,0,0s-1-1-1-1l1-1h-1l-1,1v1h0v1c-.014.06,0-.069,0,0h0c0,.083-.041.036,0,0,.063-.057-.034.107,0,0v0c-.01.068,0-.077,0,0h0a9.571,9.571,0,0,0,0,1,9.555,9.555,0,0,0,0-1h0c-.012.082-.006.908,0,1h0c.007.111.95.053,1,0C619.323,691.371,619.213,691.6,619.246,691.454Z" transform="translate(-618.119 -655.018)" fill="#f5a8a8"/><path d="M628.723,644.708v-1c-.991-.8-3.021.616-4,2l-1,1h0a27,27,0,0,0-3,6,8.47,8.47,0,0,0-1,2,6.224,6.224,0,0,0,0,1c-.006.048,0-.045,0,0-.212,1.065-.794,3.521-1,5-.068.486.593.875,1,1l1,1c.337.1-.179-.635,0-1,.742-1.514,2-5,2-5a11.211,11.211,0,0,0,1-3,24.467,24.467,0,0,0,4-4h0l1-1C629.7,647.325,629.714,645.509,628.723,644.708Z" transform="translate(-618.596 -629.272)" fill="#04567a"/><path d="M630.777,645.542h-1a21.994,21.994,0,0,1-1,2c-.6.805-1.551,1.1-2,2a30.884,30.884,0,0,0-1,3c-.361.663-.836,1.718-1,2-.095.164.051.818,0,1-.5,1.781-1.521,3.16-2,5-.228.873.227,2.069,0,3,.305.037-.159-.674,0-1,.742-1.514,2-5,2-5a8.227,8.227,0,0,0,1-2,32.839,32.839,0,0,0,4-5c0-.006,0,.007,0,0l1-1C631.729,648.114,631.789,646.315,630.777,645.542Z" transform="translate(-620.65 -630.105)" fill="#22233b"/><g transform="translate(0.131 61.082)"><path d="M619.434,757.725l-1,2s1.128,1.317,2,1l1-3A18.714,18.714,0,0,0,619.434,757.725Z" transform="translate(-618.438 -757.37)" fill="#231f20"/><path d="M622.132,761.109s-.355.646,0,1,.292.969,1,1c.917.04,2.726,1.425,1,1-.255-.063-2.431-.327-3-1a.884.884,0,0,1,0-1Z" transform="translate(-620.136 -759.754)" fill="#231f20"/></g><path d="M673.255,610.82h-1c-.032-.092.147-.014,0,0h0c.008.156-.026-.208,0,0s1,2,1,2h1v-2h0c-.015-.039.035.023,0,0h0v-1c-.021-.054.057.013,0,0h0c-.037-.008.023.03,0,0h0c-.018-.014.023,0,0,0-.123-.012-1,0-1,0v-1c.006-.078.019.075,0,0h0c-.023-.092.058-.075,0,0-.09.116.024-.145,0,0v1S673.244,610.247,673.255,610.82Z" transform="translate(-650.129 -608.383)" fill="#f5a8a8"/><g transform="translate(8.874 7.494)"><path d="M645.376,631.412c.65,1.125.929,2.464,0,3a2.236,2.236,0,0,1-2-4C644.3,629.876,644.727,630.286,645.376,631.412Z" transform="translate(-641.123 -628.469)" fill="#f5a8a8"/><path d="M643.187,641.417h3a4.1,4.1,0,0,1,0-3h-2S642.833,640.464,643.187,641.417Z" transform="translate(-641.934 -633.474)" fill="#f5a8a8"/><path d="M649.815,631.516h1c.261,0,.278.592,0,1a6.77,6.77,0,0,1-1,1Z" transform="translate(-645.562 -629.573)" fill="#f5a8a8"/><path d="M643.6,634.174c0,1.073-.089,2-1,2a2.163,2.163,0,0,1-2-2c0-1.073,1.089-1,2-1S643.6,633.1,643.6,634.174Z" transform="translate(-640.346 -630.231)" fill="#22233b"/><path d="M640.293,627.605c-.07-.03-.008.031,0,0s-.1-.008,0,0c2.156.162,3.292-2.22,4,0,.251,1.184-1.233,1.059-2,1C641.089,628.512,641.014,628.184,640.293,627.605Z" transform="translate(-640.04 -626.662)" fill="#331c51"/><path d="M643.016,631.714a2.407,2.407,0,0,1-3,0c-.476-.57.03-1.19,1-2s1.524-1.57,2-1S643.985,630.9,643.016,631.714Z" transform="translate(-639.763 -627.771)" fill="#22233b"/><path d="M647.375,637c.128.358-.2.072,0,0s1.128-.642,1-1-.8-.072-1,0S647.247,636.638,647.375,637Z" transform="translate(-644.122 -632.053)" fill="#f5a8a8"/></g><g transform="translate(13.986 62.777)"><path d="M653.374,761.165l-1,3s.093,1.195,1,1l1-3S653.354,761.09,653.374,761.165Z" transform="translate(-652.233 -761.505)" fill="#231f20"/><path d="M655.68,765.033s-1.2.54-1,1a2.844,2.844,0,0,0,2,1c.864.046.946-.3,1,0,.074.414-1.572.21-2,0-.214-.153-.72-.164-1-1-.136-.407-.181-.9,0-1Z" transform="translate(-653.54 -763.373)" fill="#231f20"/></g><path d="M633.548,684.193c.008-2.737-1.486-5.7-4-6h0c-3.655-.431-4.72,4.512-5,8a48.446,48.446,0,0,0,0,8c.108,1.229-.218,2.64,0,4h0l-1,2h0a53.6,53.6,0,0,0-3,11s.318,1.127,1,1c3.6-4.028,8-14,8-14,.2-.462.911-.5,1-1,.479-1.34.648-2.815,1-4C632.192,691.022,633.539,687.342,633.548,684.193Z" transform="translate(-619.422 -649.756)" fill="#00414f"/><path d="M639.454,688.688a25.76,25.76,0,0,0-1,7c-.045,2.154-.1,3.847,0,6,.065,1.433.825,3.578,1,5,1.361-2.12,2.287-5.6,3-8,.644-2.171,1.991-5.851,2-9,0-.552-.93-1.5-1-2C642.08,688.112,640.819,688.233,639.454,688.688Z" transform="translate(-630.327 -655.251)" fill="#03323d"/><path d="M649.792,692.97a38.012,38.012,0,0,0-2-8c-.742-2.355-1.325-3.457-4-3h-1c-3.889.663-3.667,4.923-3,8a28.361,28.361,0,0,0,2,6c.732,1.676,1.784,4.554,3,6,0,.064,0-.062,0,0v2c0,.011,0-.011,0,0a70.525,70.525,0,0,0,0,12,3.737,3.737,0,0,0,2,0,69.4,69.4,0,0,0,2-12c0-.011,0,.011,0,0l1-4a4.942,4.942,0,0,0,0-1A31.263,31.263,0,0,0,649.792,692.97Z" transform="translate(-630.665 -651.533)" fill="#006b80"/><path d="M634.817,642.886c.546-.018,2.456-.026,3,0,.522.025.522-.216,1,0,0,0,2.153,1.276,3,8a47.825,47.825,0,0,0,1,9c.029.143-.011-.136,0,0a2.363,2.363,0,0,1,0,1c-.143,1.6-3.227,2.867-7,3a10.022,10.022,0,0,1-2,0c-.323-.043-.891-2.566-1-3a20.942,20.942,0,0,0-1,2c-1.263-.392-1.67-.287-2-1h0c-.014-.031.012.031,0,0-.136-.342-1.041-1.552-1-2,.255-2.811,1.483-4.819,2-7,.531-5.186,1.029-7.71,4-10C634.948,642.785,634.509,642.9,634.817,642.886Z" transform="translate(-624.69 -628.449)" fill="#04567a"/><path d="M646.1,642.826c-.212-.235-.55-.974-1-1-.567-.033-2.431.977-3,1-.268.011.09-.188,0,0A11.945,11.945,0,0,0,646.1,642.826Z" transform="translate(-631.976 -628.389)" fill="#00b09e"/><path d="M650.831,650.683a8.433,8.433,0,0,0,3,1h0c-.535-3.737-1.222-5.136-2-6-.682.842-1.355,1.128-2,2,.051.065-.032.911,0,1A7.52,7.52,0,0,0,650.831,650.683Z" transform="translate(-636.705 -630.246)" fill="#22233b"/><path d="M659.948,619.868c.014-.276.256-.94,0-1h-1c-.222-.052-.882-.212-1,0a41.216,41.216,0,0,0-2,6c-.272.645-.945,1.38-1,2-1.624.658-3.571.9-5,2h0l-1,1c-1.213.912-.834,2.892,0,4h0c.834,1.108,2.787,1.912,4,1l1-1h0c2.09-1.534,3.979-4.452,5-6,.166-.252-.05-.7,0-1,.059-.346-.032-.661,0-1,0-.021,0,.021,0,0A56.833,56.833,0,0,0,659.948,619.868Z" transform="translate(-635.821 -614.431)" fill="#04567a"/><path d="M657.609,678.993l2-1h0a4.118,4.118,0,0,1,0,1h-2c-.118,0,.022.144,0,0Z" transform="translate(-641.483 -649.556)" fill="#00b09e"/></g><g transform="translate(547.836 312.167)"><g transform="translate(0 10.994)"><path d="M660.544,499.614h-1c-.012.008.44-.355,0,0v1A10.636,10.636,0,0,0,660.544,499.614Z" transform="translate(-653.983 -499.563)" fill="#59b1c7"/><path d="M653.891,540.188h-1c.081-.491.947-1.517,1-2,.012-.111-.011.112,0,0h0c-.01.108.012-.108,0,0C653.833,538.683,653.973,539.687,653.891,540.188Zm0-4c.016-.61.032-1.406,0-2h0c.032.6.016,1.382,0,2Zm0-4c-.083-.6-.866-.418-1-1l1-1c.136.59-.084,1.389,0,2Zm-1-3c-.189-.572-.758-1.449-1-2h0c.245.56.809,1.419,1,2Zm-2-4c-.291-.523-.659-.5-1-1h1c.346.508.7.469,1,1Zm-2-3c-.329-.533-.726-.473-1-1h1c.271.521.675.473,1,1Zm0-17h0a9.216,9.216,0,0,1,1-1h1C650.469,504.624,649.252,504.713,648.891,505.188Zm-1,14c-.24-.578-.828-1.428-1-2h0c.169.562.764,1.43,1,2Zm0-11h-1c.228-.562.69-.462,1-1h0C647.587,507.715,648.114,507.638,647.891,508.188Zm-1,8c-.11-.615-.972-1.4-1-2h1a16.78,16.78,0,0,0,0,2Zm0-4h-1c.059-.619.854-1.4,1-2h0A15.574,15.574,0,0,0,646.891,512.188Z" transform="translate(-646.33 -502.137)" fill="#59b1c7"/></g><g transform="translate(4.914)"><path d="M662.637,485.491l21-10-17,6Z" transform="translate(-660.99 -474.446)" fill="#979796"/><path d="M657.962,472.792s18.566,1.114,23,1c0,0-12.065,10.343-15,14l-2-8-1-2Z" transform="translate(-658.315 -472.747)" fill="#f2f1f1"/><path d="M662.637,485.491l4-4,17-6-18,4Z" transform="translate(-660.99 -474.446)" fill="url(#f)"/></g></g><g transform="translate(738.375 220.293)"><g transform="translate(25.15 42.015)"><path d="M1240.532,352.038l1-1a3.875,3.875,0,0,0,1,2v1A11.4,11.4,0,0,0,1240.532,352.038Z" transform="translate(-1212.661 -351.134)" fill="#59b1c7"/><path d="M1173.3,462.388c.037-.315-.042-.683,0-1l1,1c-.043.327-.961.676-1,1-.168,1.416.095,2.543,0,4h-1C1172.394,465.9,1173.134,463.84,1173.3,462.388Zm1-6c.365-1.776.51-3.3,1-5h1c-.484,1.678-1.64,3.246-2,5Zm3-10c.645-1.69,1.221-3.4,2-5h0c-.767,1.574-1.364,3.335-2,5Zm4-10a49.322,49.322,0,0,1,3-4h1c-1.055,1.414-2.081,3.49-3,5Zm7-9c1.195-1.321,2.673-1.777,4-3h0c-1.307,1.205-2.823,2.7-4,4Zm7-7c1.277-1.289,2.881-2.691,4-4l1,1c-1.132,1.325-2.707,2.7-4,4Zm10-53h1a31.159,31.159,0,0,1,2,4l-1,1C1206.579,370.79,1206.212,368.912,1205.3,367.388Zm-3,45c1.053-1.472,2.144-3.507,3-5l1,1a48.176,48.176,0,0,1-3,4Zm7-35,1-1a49.662,49.662,0,0,1,1,6h-1A35.709,35.709,0,0,0,1209.3,377.388Zm-1,26c.706-1.648.53-3.335,1-5h1a41.918,41.918,0,0,1-2,5Zm3-16h1c.023,1.8-.758,4.194-1,6l-1-1C1210.532,390.626,1211.319,389.146,1211.3,387.388Z" transform="translate(-1172.425 -360.484)" fill="#59b1c7"/></g><g transform="translate(0 0)"><path d="M1163.1,289.573l-52-41,43,27Z" transform="translate(-1111.081 -248.654)" fill="#86bce5"/><path d="M1175.1,259.573s-51.4-7.735-64-11c0,0,26.04,36.605,32,49l11-22,5-5Z" transform="translate(-1111.081 -248.654)" fill="#96c9ec"/><path d="M1163.1,289.573l-9-14-43-27,48,22Z" transform="translate(-1111.081 -248.654)" fill="#6db0e0"/></g></g><path d="M1005.349,393.8a13.388,13.388,0,0,0-13-13h-62v25c.243,3.157,1.493,6.394,7,4,4.07-1.778,5.777-3,8-3s8,1.78,8,14-7.4,11.046-9,11c-3.511-.319-6.86-3.225-8-4-1.077-.732-5.484-2.7-6,3v26h27c.4,0,.638,0,1,0,6.993,0,1.775,4.86,1,6s-3.681,4.489-4,8c-.045,1.6-.182,8.041,12,9,10.319.812,13.079-3.7,14-6,.934-2.335-.567-6.978-4-10-3.821-5.154-2.283-7,1-7h27Z" transform="translate(-265.953 -106.586)" fill="#1c77b9"/><path d="M776.724,536.572v5h3Z" transform="translate(-175.328 -198.36)" fill="#27a6de"/><g transform="translate(812.716 400.916)"><g transform="translate(5.339 0.066)"><path d="M1305.773,691.609a13.494,13.494,0,0,1,2-2v5A14.8,14.8,0,0,1,1305.773,691.609Z" transform="translate(-1305.431 -689.379)" fill="#e65f5c"/></g><g transform="translate(7.217 3.794)"><path d="M1310.476,702.975a21.078,21.078,0,0,0,3-5c.367,1.253-.277,3.126-1,5-1.443,3.74.54,3.358,1,3s1.714-2.916,3-2c.066.047-.057-.059,0,0a48.906,48.906,0,0,1-6,11Z" transform="translate(-1310.012 -698.473)" fill="#e65f5c"/></g><g transform="translate(0.843 2.434)"><path d="M1300.3,711.017c-.614-.354-3.3-2.771-6-9,1.266-.749,2.557,1.642,3,2s2.374.765,1-3c-.934-2.56-.077-4.359,1-6,.831,1.862,1.893,3.844,2,4Z" transform="translate(-1294.465 -695.154)" fill="#e65f5c"/></g><g transform="translate(7.416 0.085)"><path d="M1310.761,697.637v-8a6.307,6.307,0,0,1,2,3C1312.129,694.032,1311.807,696.489,1310.761,697.637Z" transform="translate(-1310.496 -689.426)" fill="#e65f5c"/></g><path d="M1317.332,713.69c.839,1.233-.356,4.274-2,8-.5,1.142-.369,1.952-1,3-.621,1.03-1.32,2.023-2,3-.508.729-1.463,1.3-2,2-.109.142-.8,0-1,0l1-6C1310.971,722.943,1315.992,717.728,1317.332,713.69Z" transform="translate(-1302.651 -703.394)" fill="#e65f5c"/><g transform="translate(0 9.448)"><path d="M1293.089,712.111c2.854,6.585,5.572,8.77,6,9v8h0c-.113-.053.071.118,0,0-.157-.259-.827-.755-1-1-.285-.405.277-.588,0-1-.668-.994-1.391-1.953-2-3a42.226,42.226,0,0,1-2-4h0C1292.378,716.032,1291.894,713.089,1293.089,712.111Z" transform="translate(-1292.408 -712.263)" fill="#e65f5c"/></g><g transform="translate(0.672)"><path d="M1294.056,698.514c.028-.023-.03.021,0,0s-.028.017,0,0c2.7,6.229,5.386,8.646,6,9l1-12c-.107-.156-1.169-2.138-2-4,.044-.067-.048.067,0,0a14.8,14.8,0,0,0,2,3v-5h0c.027-.022-.027-.022,0,0h0v8c1.046-1.148,1.368-3.605,2-5,.035.1.972-.1,1,0a21.087,21.087,0,0,1-3,5v12a48.9,48.9,0,0,0,6-11c.055.057.954.932,1,1-1.34,4.038-6.361,9.253-7,10l-1,6c-.073,0,.055.023,0,0v-8C1299.628,707.285,1296.91,705.1,1294.056,698.514Z" transform="translate(-1294.047 -689.218)" fill="#05567a"/></g></g><g transform="translate(809.961 411.785)"><g transform="translate(3.073 0.039)"><path d="M1293.546,717.213a5.838,5.838,0,0,1,1-1v3A19.291,19.291,0,0,1,1293.546,717.213Z" transform="translate(-1293.183 -715.825)" fill="#f7bc4b"/></g><g transform="translate(4.321 2.213)"><path d="M1296.342,724.341a13.535,13.535,0,0,0,2-3c.226.735-.589.891-1,2-.821,2.214.732,2.214,1,2s1.235-1.53,2-1c.039.027-.034-.034,0,0a32.214,32.214,0,0,1-4,7Z" transform="translate(-1296.226 -721.127)" fill="#f7bc4b"/></g><g transform="translate(0.48 1.451)"><path d="M1290.815,728.244c-.365-.2-2.363-1.352-4-5,.74-.451,1.736.793,2,1s1.838.207,1-2c-.57-1.5-.621-2.025,0-3,.5,1.091.936,1.909,1,2Z" transform="translate(-1286.859 -719.267)" fill="#f7bc4b"/></g><g transform="translate(4.343 0.049)"><path d="M1296.373,720.226v-4a3.717,3.717,0,0,1,1,2A5.94,5.94,0,0,1,1296.373,720.226Z" transform="translate(-1296.28 -715.848)" fill="#f7bc4b"/></g><g transform="translate(4.31 5.748)"><path d="M1300.325,729.429c.5.72-.061,2.792-1,5a18.13,18.13,0,0,1-1,2c-.358.612-.607,1.419-1,2-.293.433-.688.586-1,1-.063.084.119,0,0,0v-3A33.592,33.592,0,0,0,1300.325,729.429Z" transform="translate(-1296.199 -729.75)" fill="#f7bc4b"/></g><g transform="translate(0 5.618)"><path d="M1286.123,729.241c1.732,3.856,3.746,4.868,4,5v5h0c-.067-.03.043.068,0,0-.095-.152-.9.143-1,0-.171-.236.166-.759,0-1-.4-.581-.633-1.387-1-2a17.928,17.928,0,0,1-1-2h0C1286.084,731.851,1285.427,729.826,1286.123,729.241Z" transform="translate(-1285.687 -729.431)" fill="#f7bc4b"/></g><g transform="translate(0.38)"><path d="M1286.671,721.156c.016-.014-.018.013,0,0s-.016.01,0,0c1.637,3.648,3.635,4.8,4,5v-7c-.064-.091-.5-.909-1-2,.025-.04-.027.04,0,0a19.3,19.3,0,0,0,1,2v-3h0c.015-.013-.016-.012,0,0h0v4a5.936,5.936,0,0,0,1-2c.021.056.982-.057,1,0a13.535,13.535,0,0,1-2,3v7a32.214,32.214,0,0,0,4-7c.032.033-.028-.04,0,0a33.594,33.594,0,0,1-4,7v3c-.043,0,.033.013,0,0v-5C1290.417,726.024,1288.4,725.012,1286.671,721.156Z" transform="translate(-1286.615 -715.729)" fill="#05567a"/></g></g><g transform="translate(628.658 200.586)"><g transform="translate(8.333 9.499)"><path d="M869.2,224.882c.263-.139.725.114,1,0,5.493-2.264,12.174.572,14,5,.745,1.808.12,4.109,0,6-.134,2.115.082,3.883,0,6a11.153,11.153,0,0,0,0,3c.036.148-.057-.141,0,0l-9,4a5.631,5.631,0,0,0-1-1c-2.605-2.437-5.294-4.682-8-7C861,236.433,863.646,227.806,869.2,224.882Z" transform="translate(-863.791 -223.755)" fill="#f9be4c" opacity="0.51"/><path d="M882.294,256.678c.876.273,1.318.544,2,0a20.964,20.964,0,0,1,1,2c.165.326-.152-.265,0,0l3,5h1l-3-5c-.146-.254-.838-.68-1-1a18.12,18.12,0,0,0-1-2c.574-.552,1.74-.581,2-1h0c.113-.151-.1-.836,0-1h0c.7.185,2.072,1.059,3,1,.014.066-.015-.065,0,0,.155.665-.172,1.353,0,2l2,6h0l-1-6c-.171-.643-.847-1.342-1-2-.011-.048.011.048,0,0,.34-.057.676-.848,1-1,.481-.223.794.363,1,0a2.578,2.578,0,0,0,0-2c-.362-.516-1.409-.353-2,0-.479.287-.925.338-1,1-.036.327.951.681,1,1a14.1,14.1,0,0,1-3,0h0c.144-.316-.077-.661,0-1,.062-.274,1.115-.6,1-1-.18-.616-1.358-1.029-2-1s-.877.37-1,1c-.115.591-.55,1.554,0,2,.3.247.654-.122,1,0-.082.132.094.878,0,1h0a7.035,7.035,0,0,1-1,1c-.379-.468-.485-.811-1-1-.567-.208-1.558-.38-2,0-.375.323-.087,1.582,0,2C881.345,256.922,881.581,256.456,882.294,256.678Zm7-3a4.248,4.248,0,0,1,0-1c.057-.509.651-.792,1-1,.037-.023-.04.016,0,0,.355-.146.806-.276,1,0a1.045,1.045,0,0,1,0,1,2.939,2.939,0,0,1-1,1C890.007,253.811,889.6,253.628,889.294,253.678Zm-4-1c-.41-.332-1.081-.586-1-1a2.312,2.312,0,0,1,1-1c.094-.039-.1,0,0,0,.414-.018.884.6,1,1a2.521,2.521,0,0,1,0,1c-.075.33.144.7,0,1C885.966,253.569,885.566,252.9,885.294,252.678Zm-4,3c-.05-.239-.236.2,0,0a3.338,3.338,0,0,1,2,0c.425.156.667-.415,1,0-.574.462-1.312,1.214-2,1A2.218,2.218,0,0,1,881.294,255.678Z" transform="translate(-873.888 -239.551)" fill="#00b1cd"/><path d="M891.416,279.711l9-4c.051.146-.061.857,0,1,.542,1.274,2.1,2.586,2,4-.108,1.46-.4,4.342-2,5l-2,1c-1.569.647-4.179-1.713-5-3-.111-.173-.922-.81-1-1C892,281.692,892.038,280.712,891.416,279.711Z" transform="translate(-880.01 -254.584)" fill="#f9be4c"/></g><path d="M928.267,240.837c.114-.071.03.139,0,0-.038-.178-.822-.038-1,0l-5,1c-.176.039-1.038-.178-1,0s.822,1.038,1,1l5-2C927.3,240.828,928.235,240.857,928.267,240.837Z" transform="translate(-889.528 -224.211)" fill="#f9be4c"/><path d="M912.8,216.842c.023-.015-.02.021,0,0l4-4a1.347,1.347,0,0,0,0-1c-.132-.124.125-.133,0,0l-4,5c-.124.132-.132-.124,0,0C912.91,216.947,912.675,216.919,912.8,216.842Z" transform="translate(-884.06 -207.216)" fill="#f9be4c"/><path d="M897.862,207.212c.078-.049-.015.1,0,0l1-6c.028-.18.18-.972,0-1s-.972.821-1,1l-1,6c-.028.179.821-.028,1,0C897.943,207.225,897.8,207.253,897.862,207.212Z" transform="translate(-875.122 -200.586)" fill="#f9be4c"/><path d="M869.8,213.612c.154-.1,1.1.154,1,0l-4-5c-.1-.154.154-1.1,0-1s-.1.846,0,1l3,5C869.9,213.766,869.649,213.709,869.8,213.612Z" transform="translate(-857.064 -204.986)" fill="#f9be4c"/><path d="M851.37,232.633c.064-.04.976.078,1,0,.054-.173-.827-.946-1-1l-6-2c-.173-.054.054.827,0,1s-.173-.054,0,0l6,2C851.465,232.663,851.291,232.681,851.37,232.633Z" transform="translate(-844.631 -218.007)" fill="#f9be4c"/><path d="M849.2,255.436c.136-.084.066.151,0,0-.073-.166.166-.072,0,0l-6,2c-.164.074-.073.834,0,1s.834.072,1,0l5-3C849.219,255.429,849.19,255.444,849.2,255.436Z" transform="translate(-843.465 -232.81)" fill="#f9be4c"/></g><path d="M838.417,406.815c-2.223,0-4.931,1.221-9,3-5.507,2.394-6.758-.843-7-4v-25h-63c-6.891,0-12,6.109-12,13v63h24c2.8-.482,6.1-2.16,4-7-1.778-4.069-4-5.777-4-8s1.78-8,14-8,11.045,7.4,11,9c-.319,3.511-3.225,6.86-4,8-.687,1.01-1.527,5.063,3,6h27v-26c.516-5.7,4.924-3.732,6-3,1.14.775,4.489,3.681,8,4,1.6.046,9,1.22,9-11S840.639,406.815,838.417,406.815Z" transform="translate(-158.02 -106.603)" fill="#27a6de"/><path d="M988.128,577.731h-23c-3.283,0-4.822,1.846-1,7,3.433,3.022,4.934,7.665,4,10-.921,2.3-3.681,6.812-14,6-12.182-.958-11.046-7.4-11-9,.319-3.511,3.225-6.86,4-8s5.993-6-1-6c-.362,0-1.6,0-2,0h-9c-1.212,0-2,0-2,0h-16v27c-.524,2.721-2.277,5.054-7,3-4.069-1.778-6.777-3-9-3s-7,.781-7,13,7.4,12.046,9,12c3.511-.319,6.86-3.225,8-4,1-.678,5-2.318,6,2v26h63c6.891,0,12-6.109,12-13v-63Z" transform="translate(-244.731 -222.518)" fill="#05567a"/><path d="M806.233,559.941c2.223,0,4.931,1.221,9,3,4.723,2.053,6.476-.279,7-3v-27h-28c-4.527-.936-2.686-4.99-2-6,.775-1.14,3.681-4.489,4-8,.046-1.6,1.22-9-11-9s-14,5.777-14,8,1.222,3.931,3,8c2.1,4.84-.2,6.518-3,7h-24v63c0,6.891,5.109,13,12,13h63v-26c-1-4.318-5-2.678-6-2-1.14.775-4.489,3.681-8,4-1.6.045-9,.22-9-12S804.01,559.941,806.233,559.941Z" transform="translate(-157.836 -182.729)" fill="#f7bc4b"/><g transform="translate(559.504 372.568)"><path d="M701.838,681.136l8-59h1l-8,59Z" transform="translate(-690.945 -621.491)" fill="#0f85b0"/><path d="M674.682,681.111l10-59,1,1-10,58Z" transform="translate(-674.789 -621.466)" fill="#0f85b0"/><rect width="10" height="1" transform="translate(6.893 17.645)" fill="#0f85b0"/><rect width="11" height="1" transform="translate(1.893 49.645)" fill="#0f85b0"/><rect width="10.199" height="2.202" transform="translate(17.589 2.202) rotate(180)" fill="#0f85b0"/><path d="M719.362,679.972l-8-59h1l8,59Z" transform="translate(-696.469 -620.327)" fill="#00a9c7"/><path d="M741.955,679.971l-7-59h0l8,59Z" transform="translate(-710.062 -620.326)" fill="#00a9c7"/><rect width="9" height="1" transform="translate(16.893 9.645)" fill="#00a9c7"/><rect width="10" height="1" transform="translate(17.893 19.645)" fill="#00a9c7"/><rect width="10" height="1" transform="translate(18.893 30.645)" fill="#00a9c7"/><rect width="9" height="1" transform="translate(21.893 42.645)" fill="#00a9c7"/><rect width="9" transform="translate(22.893 54.645)" fill="#00a9c7"/><rect width="13.593" height="2.202" transform="translate(27.093 2.202) rotate(180)" fill="#00a9c7"/></g><g transform="translate(558.235 317.877)"><path d="M746.1,552.794l-1-1h0l1,1c.043.033-.051-.018,0,0h0c.062.022.021.062,0,0-.033-.1.075.07,0,0l-1-1h0c.066.017-.048.091,0,0,.01-.019.99.019,1,0-.094-.056-.87-.935-1-1a4.918,4.918,0,0,0-1,0h-1l1,1h0v1h1c.043.036-.055-.029,0,0h0c.067.035.013.048,0,0-.02-.075.073.071,0,0h0c.051.036.936-.028,1,0h0c.077.034.019.049,0,0-.029-.077.087.071,0,0h0c.061.044-.076-.033,0,0h0c.093.04.022.063,0,0C746.061,552.7,746.2,552.88,746.1,552.794Z" transform="translate(-713.934 -524.458)" fill="#ca7f7f"/><path d="M734.794,540.414l1-1a30.389,30.389,0,0,0-2-4h0l-1-1c-.986-1.77-2.2-3.326-3-3h0c-.8.328-.368,2.376,1,4l1,1h0C733.154,538.045,734.226,539.952,734.794,540.414Z" transform="translate(-705.632 -513.079)" fill="#ca7f7f"/><path d="M733.711,489.937c.445,1.355.795,2.74,0,3s-2.556-.645-3-2a2.437,2.437,0,0,1,1-3C732.505,487.677,733.266,488.582,733.711,489.937Z" transform="translate(-706.549 -487.602)" fill="#f5a8a8"/><path d="M737.877,494.787a11.179,11.179,0,0,0,1,1c.227.144.419-.128,0,0a2.378,2.378,0,0,1-1,0Z" transform="translate(-710.715 -491.452)" fill="#f5a8a8"/><path d="M732.136,496.516h2c.212-.025,0,.214,0,0v-2l-1-2-2,1v3Z" transform="translate(-706.974 -490.181)" fill="#f5a8a8"/><path d="M728.811,502.9l-1-1,1-2,2,1A4.894,4.894,0,0,0,728.811,502.9Z" transform="translate(-704.649 -494.566)" fill="#f5a8a8"/><g transform="translate(17.109 51.59)"><path d="M714.1,612.255v1l3,2-1-3Z" transform="translate(-714.048 -612.51)" fill="#ca7f7f"/><path d="M717.478,616.171h-2c-.19,0-.867.136-1,0v0h-1v-1a1.6,1.6,0,0,1,0-1h0c.042-.065-.059-.05,0,0l2,1c.237.2.695-.041,1,0h0c.185.025-.174-.068,0,0l1,1c.034.016-.059-.048,0,0,.1.078-.067-.1,0,0h0C717.507,616.215,717.53,616.172,717.478,616.171Z" transform="translate(-713.425 -613.426)" fill="#023149"/></g><g transform="translate(0 23.219)"><path d="M679.267,548.671l-1-2-2,1,2,1Z" transform="translate(-674.105 -545.555)" fill="#f5a8a8"/><path d="M671.856,545.426l2-1c.166-.093-.184-.05,0,0h2l-1-1h0l1,1c.19.2.013.722,0,1h0c0,.077.076.012,0,0h-1a2,2,0,0,0-1,0h0a7.832,7.832,0,0,1-1,0h0c-.037,0-.925.011-1,0-.122-.018.111.055,0,0h0C671.81,545.4,671.811,545.451,671.856,545.426Z" transform="translate(-671.694 -543.31)" fill="#023149"/></g><path d="M714.8,539.8c-1.13-1.973-2.86-2.947-5-2h-1c-3.111,1.378-1.223,5.361,0,8a27.792,27.792,0,0,0,3,5c1.062,1.486,2.522,3.991,4,5,.585.4.695.135,1,0s.876-.287,1-1c.389-2.229-.538-5.763-1-8C716.42,544.939,716.1,542.069,714.8,539.8Z" transform="translate(-692.643 -516.464)" fill="#04567a"/><path d="M716.145,590.606a61.315,61.315,0,0,0,5-10h0v-2c.717-2.04.919-3.692,0-4h0c-.919-.308-2.283.96-3,3l-1,1c0,.01,0-.01,0,0a72.815,72.815,0,0,0-3,11S715.555,590.793,716.145,590.606Z" transform="translate(-696.983 -538.271)" fill="#04567a"/><path d="M708.927,541.309c-.019-2.138-.01-4.779-2-5h0c-2.894-.321-4.811,4.274-5,7-.143,2.065.795,3.962,1,6,.173,1.709.319,4.488,1,6,.27.6-.284.968,0,1a3.74,3.74,0,0,0,2-1c1.219-1.642,1.412-3.956,2-6A35.938,35.938,0,0,0,708.927,541.309Z" transform="translate(-689.765 -515.974)" fill="#047395"/><path d="M679.544,549.681a82.538,82.538,0,0,0,7,10h0l1,1c1.428,1.764,3.2,3.567,4,3v-1c.8-.568.428-2.236-1-4l-1-1h0a86.607,86.607,0,0,0-8-9S679.711,549.094,679.544,549.681Z" transform="translate(-676.382 -523.346)" fill="#047395"/><path d="M699.644,544.39c1.094-.726,3-.737,4-2,1.517-1.91,4.118-8.31,0-9C698.618,532.549,696.582,538.648,699.644,544.39Z" transform="translate(-687.482 -514.055)" fill="#047395"/><path d="M728.516,507.574c-.1-1.5-.762-3.034-2-3h-1c-1.238.035-2.1,1.5-2,3v1c0,.007,0-.007,0,0,.189,3.426,2.507,8.271,3,9,.269.4-.209.006,0,0s.784.412,1,0a27.709,27.709,0,0,0,1-9c0-.007,0,.007,0,0Z" transform="translate(-702.354 -497.239)" fill="#bf7faf"/><path d="M725.516,504.574h1c1.238-.034,1.9,1.5,2,3v1c0,.007,0-.007,0,0a29.009,29.009,0,0,1-1,8,6.124,6.124,0,0,1,2,2h1c-.644.47-1.331,1.566-2,2l-1-1a6.727,6.727,0,0,1-1-2c-.072-.074.072.106,0,0-.493-.729-2.811-5.574-3-9,0-.007,0,.007,0,0v-1C723.417,506.07,724.278,504.609,725.516,504.574Z" transform="translate(-702.354 -497.239)" fill="#f8a131"/><path d="M700.362,513.815a30.329,30.329,0,0,1,7-10c1.812-1.72,3.1-2.866,5-2h0a4.034,4.034,0,0,1,2,5s-3.629,3.626-4,11c-.041.808.676,2.116-1,2a15.1,15.1,0,0,1-9-4,.634.634,0,0,1,0-1C700.706,514.473,700.193,514.237,700.362,513.815Z" transform="translate(-688.2 -495.48)" fill="#fab348"/><path d="M728.012,509.157h-3a19.142,19.142,0,0,0,0,2,35.933,35.933,0,0,0,0,6c.111,1.161-.2,1.852,0,3,.72-6.378,4-9,4-9,.139-.395.007-.6,0-1Z" transform="translate(-702.851 -499.822)" fill="#dc9d4a"/><path d="M754.794,548.148h0c.049.036-.058-.019,0,0h0c.07.023.025.069,0,0-.039-.108.086.076,0,0l-1-1a1.375,1.375,0,0,1-1,0h1c.074.017-.052.1,0,0h0c-.107-.06-.852.069-1,0a11.6,11.6,0,0,1-1-1h0l-1,1h1l1,1h0v1c.049.04.937-.032,1,0h0c.076.038.016.054,0,0-.025-.083.084.078,0,0l-1-1,1,1c.058.039-.073-.03,0,0h0a3.621,3.621,0,0,0,1,0c-.034-.086-.9.077-1,0v0c.07.048.913-.035,1,0h0c.105.043.027.07,0,0C754.752,549.04,754.914,548.243,754.794,548.148Z" transform="translate(-718.632 -521.813)" fill="#f5a8a8"/><path d="M729.334,506.07a2.675,2.675,0,0,0-3-2h0c-1.061.288-1.407,1.5-1,3v1c0,.007,0-.007,0,0a36.922,36.922,0,0,0,4,9c.317.347.821.048,1,0s-.1-.54,0-1a30.821,30.821,0,0,0-1-9c0-.007,0,.007,0,0Z" transform="translate(-703.172 -496.735)" fill="#da9fc7"/><path d="M741,536.078v-1a35.5,35.5,0,0,0-3-4h0l-1-1c-1.492-1.819-3.419-2.714-4-2h0c-.584.717,1.225,2.512,3,4l1,1h0A31.5,31.5,0,0,0,741,536.078Z" transform="translate(-707.84 -510.743)" fill="#f5a8a8"/><path d="M726.334,504.07h0a2.675,2.675,0,0,1,3,2v1c0,.007,0-.007,0,0a34.672,34.672,0,0,1,1,6,2.718,2.718,0,0,0,1,2,9.414,9.414,0,0,1,1,1h1a23.551,23.551,0,0,1-2,3v-1c-.507-.425-1.587-.511-2-1-.093-.065.1.113,0,0a36.922,36.922,0,0,1-4-9c0-.007,0,.007,0,0v-1C724.927,505.572,725.273,504.358,726.334,504.07Z" transform="translate(-703.172 -496.735)" fill="#fab348"/><path d="M714.933,489.415a2.239,2.239,0,0,1,1-1,8.471,8.471,0,0,0-2-1c-2.15-.877-3.279,2.607-5,5a7.719,7.719,0,0,1-5,3c-3.42.891-4.045,3.58-3,5s4.467.872,6,0,1.247-3.984,2-5c.854-1.153,1.572-.774,3-1,2.059-.326,1.756-1.854,2-3,.064-.3-.193-.852,0-1C713.932,489.977,714.69,489.8,714.933,489.415Z" transform="translate(-688.771 -487.08)" fill="#22233b"/><path d="M730.3,487.01a1.6,1.6,0,0,1,1,1c.1.272-.672.7-1,1s-.466.063-1,0-.867-.148-1,0a1.772,1.772,0,0,1-1,1c-.861.391-2.385-.312-2-1,.339-.607.506-1.637,1-2C726.776,486.66,728.421,486.6,730.3,487.01Z" transform="translate(-703.138 -486.675)" fill="#22233b"/><path d="M732.274,494.275c-.1-.3.34-.706,0,0-.188.39-.659,1.443,0,1,0,0,1.685-1,1-1C733.181,494.275,732.4,494.651,732.274,494.275Z" transform="translate(-707.112 -490.94)" fill="#f5a8a8"/></g><g transform="translate(610.145 364.696)"><path d="M859.464,610.252s1.07.1,1,0-1-1-1-1h0c-.053-.056-.155.026,0,0s-.121-.117,0,0,.966,0,1,0h0a3.939,3.939,0,0,1,0-1c.081-.282-.083-1.005,0-1s.04.689,0,1c-.03.234.016-.158,0,0,0,.021-.01.018,0,0,.107-.2.928.128,1,0,.089-.158-.1-1.048,0-1s.088.755,0,1c-.058.162.045-.107,0,0-.006.015-.01,1.012,0,1,.14-.17-.111-.9,0-1,.141-.133.961-.035,1,0s.1-.176,0,0c-.08.139-.891.839-1,1-.009.014-.013.01,0,0,.12-.089.893-.915,1-1,.143-.115-.055-.068,0,0a2.1,2.1,0,0,1,0,1c-.106.118-1,0-1,0a2.737,2.737,0,0,1,0,1,4.525,4.525,0,0,1-1,1h-1Z" transform="translate(-834.212 -604.736)" fill="#f5a8a8"/><path d="M838.43,615.816l-1-1c-.319-.13.123.679,0,1-.316.829-1.272,1.668-2,3a15.672,15.672,0,0,1-2,4,68.118,68.118,0,0,1-9,3c-1.588.6-2.488,1.772-2,3v1c.489,1.228,1.412,1.6,3,1l2-1h0c2.614-.964,5.388-1.646,7-3h0c1.357-.945,2.311-3.087,3-5l1-1h0a32.047,32.047,0,0,0,1-5C839.482,615.541,838.69,615.923,838.43,615.816Z" transform="translate(-812.178 -609.3)" fill="#04567a"/><g transform="translate(6.203 8.546)"><path d="M821.8,638.393s-.474,1.907-2,1v-2l-1-1h3A2.574,2.574,0,0,0,821.8,638.393Z" transform="translate(-816.754 -630.422)" fill="#f5a8a8"/><path d="M820.221,637.3a6.208,6.208,0,0,0,2,1c.22.018-.168.154,0,0a9.067,9.067,0,0,1,0-2h-2C820.468,636.664,819.888,637,820.221,637.3Z" transform="translate(-817.171 -630.326)" fill="#ca7f7f"/><path d="M823.272,627.548s.954-.6,1-1-1-1-1-1,.424-.7,0-1-2,1-2,1Z" transform="translate(-818.223 -623.577)" fill="#023149"/><path d="M820.1,626.04a3.987,3.987,0,0,1,0,5c-.85.54-2.21.035-3-1s-.854-3.348,0-4S819.356,624.971,820.1,626.04Z" transform="translate(-815.05 -624.07)" fill="#f5a8a8"/><path d="M818.488,621.687c-.359-.248-.21-.029-1,1-.191.248-1.238-.183-2,0-1.177.282-.343.625-1,1-.447.255-.693,1.18-1,2-.2.529.129.505,0,1-.151.579.911.631,1,1,.212.883,1.686.715,2,1,.094.084.007.125,0,0-.034-.563-1-.975-1-1a.917.917,0,0,1-1-1,.979.979,0,0,1,1-1h0c-.287-.578.122-.922,1-1,.38-.034.686-1,1-1,.517.008.634-.152,1,0a1.7,1.7,0,0,0,1,0C820.044,623.269,819.091,622.1,818.488,621.687Z" transform="translate(-813.439 -621.716)" fill="#023149"/><path d="M822.264,632.215a5.692,5.692,0,0,0-1,0c-.277.057-.709-.52-1,0s-.8.2-1,0a6.841,6.841,0,0,0-1-1c-.226-.091,0,1,0,1a7.615,7.615,0,0,1,1,1c.106.228-.052-.262,0,0s-.177.909,0,1a3.978,3.978,0,0,0,2,0,1.475,1.475,0,0,0,1-1A1.1,1.1,0,0,0,822.264,632.215Z" transform="translate(-816.215 -627.244)" fill="#023149"/></g><g transform="translate(0 63.315)"><path d="M799.561,755.508l-1,2a1.108,1.108,0,0,0,1,1l1-2A11.608,11.608,0,0,0,799.561,755.508Z" transform="translate(-798.309 -755.307)" fill="#023149"/><path d="M801.969,760.171s-1.17.529-1,1,.373.67,1,1c.811.427,1.378,2.119,0,1a5.646,5.646,0,0,1-1-2c-.111-.414-.187-.909,0-1Z" transform="translate(-799.716 -757.97)" fill="#023149"/></g><g transform="translate(17.005 66.115)"><path d="M840.033,762.537v2a3.019,3.019,0,0,0,2,0l-1-2A4.938,4.938,0,0,0,840.033,762.537Z" transform="translate(-839.785 -762.135)" fill="#023149"/><path d="M843.136,765.239a11.04,11.04,0,0,0,1,1c.392.312.294.048,1,0,.914-.062,2.76,1.229,1,1a7.856,7.856,0,0,1-3-1c-.311-.294-.111-.824,0-1Z" transform="translate(-841.888 -763.837)" fill="#023149"/></g><path d="M800.856,740.245c1.73-1.413,9-10,9-10,1.288-1.6.79-2.365,0-3v-1c-.79-.635-2.994-.007-3,0a65.146,65.146,0,0,0-8,12,1.367,1.367,0,0,0,0,1A2.189,2.189,0,0,0,800.856,740.245Z" transform="translate(-798.604 -674.728)" fill="#d73535"/><path d="M830.446,686.887c-.646-2.524-.591-4.9-2-6l-8,2c-.75,3.225,1.828,5.248,4,11,.373.989,1.442,5.74,2,8,.544,2.206,3.076,2.355,4,2,1.526-.587.969-1.682,1-2A78.693,78.693,0,0,0,830.446,686.887Z" transform="translate(-811.194 -648.37)" fill="#c82f2e"/><path d="M839.83,743.719c1.414-3.166,1.264-13.195,1-15,0,0-5-.009-5,0a120.246,120.246,0,0,0,1,14c.057.3.7-.081,1,0C838.418,742.88,839.469,743.928,839.83,743.719Z" transform="translate(-820.578 -676.203)" fill="#c82f2e"/><path d="M820.859,681.95c-.5-2.569-9.434-4.922-8,6,.33,2.508.916,11.309,2,13,.429.669,2.82,2.262,3,2a20.329,20.329,0,0,0,1-2c.96-2.2.621-5.468,1-8C820.174,690.848,821.437,684.906,820.859,681.95Z" transform="translate(-806.607 -647.433)" fill="#d73535"/><path d="M844.279,604.388h0a3.493,3.493,0,0,1,0-1h0a8.441,8.441,0,0,1-1,0c-.066-.04-.141.068,0,0a2.3,2.3,0,0,1,1,0c.148.079-.034.007,0,0a7.217,7.217,0,0,1,0-1s0-.706,0-1-.081.018,0,0,.952-.31,1,0c.036.233-.029.843,0,1,0,.021,0,.021,0,0,.048-.219-.034-.857,0-1,.042-.176-.108-1.019,0-1s.017.74,0,1c-.011.171.014.885,0,1,0,.016-.006.014,0,0,.087-.2.922-.869,1-1,.1-.167-.048-.023,0,0s.048-.2,0,0c-.038.155.059.815,0,1,0,.016-.01.013,0,0,.091-.118-.079.112,0,0,.106-.15-.072-1.05,0-1a2.385,2.385,0,0,1,0,1h0a5,5,0,0,1,0,1c-.065.21-.7.662-1,1h-1Z" transform="translate(-825.026 -600.872)" fill="#f5a8a8"/><path d="M829.118,642.507c-.483-.091-.581-.627-1-1v1l1,2,1-2A9.689,9.689,0,0,1,829.118,642.507Z" transform="translate(-815.866 -624.99)" fill="#bf7faf"/><path d="M823.7,645.289c-.96-3.327-4.568-4-5-4a8.457,8.457,0,0,0-2,0,13.822,13.822,0,0,1-1,1c-1.484,1.853,0,5.726,0,8a9.952,9.952,0,0,1-1,5,17.466,17.466,0,0,0-1,3c1.3.794,5.909,1.172,7,1,1.425-.225,4.029-1.046,4-2C824.569,653.07,824.375,647.636,823.7,645.289Z" transform="translate(-807.445 -624.773)" fill="#047395"/><path d="M829.641,610.259c-.013-.281-.722-.957-1-1h-1c-.34-.053.046-.341,0,0-.117.879-.6,2.537-1,4a44.641,44.641,0,0,1-2,5,69.789,69.789,0,0,1-8,5c-1.407.954-1.758,1.918-1,3v1c.758,1.083,2.594.953,4,0l1-1h0a25.562,25.562,0,0,0,6-5h0c1.1-1.232,1.77-3.98,2-6l1-1c0-.007,0,.007,0,0A21.648,21.648,0,0,0,829.641,610.259Z" transform="translate(-808.389 -605.742)" fill="#047395"/></g><g transform="translate(697.174 380.668)"><path d="M1019.808,657.191s-4.613,3.261-5,5c-.315,1.418.71,4.068,1,6s-3.227,6.261-4,8a18.606,18.606,0,0,0-1,6c-.1,1.739,7,1,7,1s3.517.642,4-1-1-26-1-26S1020.033,656.917,1019.808,657.191Z" transform="translate(-1010.585 -649.646)" fill="#d1d1cf"/><g transform="translate(3.437 23.028)"><path d="M1023.438,755.471h4v1l-4-1Z" transform="translate(-1021.652 -730.954)" fill="#ca7f7f"/><g transform="translate(0 33.382)"><path d="M1025.154,777.556l1,1-3,1,1-2Z" transform="translate(-1021.367 -777.421)" fill="#f5a8a8"/><path d="M1018.753,781.477h3c.214-.006-.148.155,0,0l1-1v1h1v-1a1.44,1.44,0,0,0,0-1h0a2.622,2.622,0,0,0-1,0l-1,1c-.264.224-.657-.05-1,0h0a6.957,6.957,0,0,0-1,0h0c-.037.018.066.946,0,1-.107.089-.925-.117-1,0h0C1018.722,781.526,1018.7,781.479,1018.753,781.477Z" transform="translate(-1018.967 -778.343)" fill="#00414f"/></g><path d="M1044,738.739c.182.419-.13.511,0,1l1,2c0,.011,0-.011,0,0,.877,4.362,1.748,10.306,2,13a4.839,4.839,0,0,1-2,0c-1.12-2.366-5-14-5-14a5.648,5.648,0,0,1,0-2Z" transform="translate(-1031.213 -721.222)" fill="#da9fc7"/><path d="M1022.6,724.146a39.866,39.866,0,0,0,0,6,7.527,7.527,0,0,0,0,1s.495,12.536,1,15a.814.814,0,0,0,1,0c.439-2.445,2.083-8.691,2-13h0v-2c0-.332.037-.69,0-1C1027.164,729.1,1022.654,723,1022.6,724.146Z" transform="translate(-1020.81 -712.629)" fill="#f5a8a8"/><g transform="translate(11.563 32.537)"><path d="M1052.022,775.339v2l-2,2h-2l1-1a5.593,5.593,0,0,0,1-1v-2Z" transform="translate(-1047.799 -775.359)" fill="#f5a8a8"/><path d="M1050.394,780.239h0c.207-.089-.084-.791,0-1l1-1,1,1h0v-1c-.055-.324-.729-.813-1-1h0c-.075-.052.043-.081,0,0l-1,1c-.171.323.316.817,0,1h-1a5.7,5.7,0,0,1-1,0h-1c-.392.262.015.8,0,1Z" transform="translate(-1047.171 -776.259)" fill="#00414f"/></g><path d="M1038.073,696.514a8.15,8.15,0,0,1,1,7c-.118,4.663-.075,9.72,0,10,0,0,2.971,11.085,3,15,0,0-2.12,1.616-3,1-1.716-2.713-4-15-4-15-.241-.9-4.011-18.246-4-19Z" transform="translate(-1026.287 -695.997)" fill="#1c77b9"/><path d="M1020.87,696.975c-.44,1.188.062,2.785,0,4-.094,1.854-.226,9.986,0,12-.041.377,1.462,14.379,2,17,.7.616,2,0,2,0,.968-2.581,1.039-16.67,1-17,.6-1.114.372-8.631,1-11,.052-.2.95-4.8,1-5C1025.293,696.413,1023.391,697.732,1020.87,696.975Z" transform="translate(-1020.084 -696.458)" fill="#1c77b9"/></g><path d="M1039.825,651.374s2.7,1.48,4,0,.7-4.376,0-5-1.4-.194-2-1-.344-1.135-1-2-1.381-.654-2-1-.318-1.666-1-2-.395-.848-2-1c-2.878-.272-3.455,2.3-3,3s2.423,1.629,2,2-1.6-.054-2,1a5.3,5.3,0,0,0,0,4C1033.472,650.6,1039.825,651.374,1039.825,651.374Z" transform="translate(-1023.602 -639.829)" fill="#023149"/><path d="M1029.292,655.1h-1c-.545.014-1.55-.308-2,0v1l-2,4-3,12,11,1v-8l-1-10A5.441,5.441,0,0,0,1029.292,655.1Z" transform="translate(-1017.069 -648.558)" fill="#eb5958"/><path d="M1031.145,655.786c-.063-.006-.7-.193-1,0v1l-2,4h0C1029.1,659.079,1030.425,657.608,1031.145,655.786Z" transform="translate(-1020.921 -649.241)" fill="#e3e3e0"/><path d="M1021.751,669.052v-2h0v-2l-3,2s.232,1.651,1,2A3.578,3.578,0,0,0,1021.751,669.052Z" transform="translate(-1015.528 -654.508)" fill="#d1d1cf"/><path d="M1048.321,665.034c-.625-1.563-6-9-6-9s.125.563-1,1l-1,1v9l3,7v-8l2,1a2.632,2.632,0,0,0,3,1C1049.421,667.658,1048.946,666.6,1048.321,665.034Z" transform="translate(-1028.098 -649.49)" fill="#e3e3e0"/><path d="M1023.953,654.1l-6-1,2,9,5,1Z" transform="translate(-1014.73 -647.555)" fill="#2e4348"/><path d="M1024.408,657.109l-2-1c-.23-.042-1.048.771-1,1l1,1c.027.129-.129-.026,0,0h2c.218.045,1.022.222,1,0v-1C1025.381,656.845,1024.669,657.156,1024.408,657.109Z" transform="translate(-1017.185 -649.564)" fill="#e3e3e0"/><path d="M1019.59,666.406h-1a12.542,12.542,0,0,1,0-3c.235-.609,1.813-1.281,2-1s-1,1-1,1h0Z" transform="translate(-1015.367 -652.862)" fill="#f5a8a8"/><path d="M1037.885,647.972s-1.081-.364-1-1a15.577,15.577,0,0,0,0-2s1.167.334,1-1a.623.623,0,0,1-1,0,6,6,0,0,0-1-1s-.882-.2-1,1c-.049.5-.263,3.151,1,3a2.434,2.434,0,0,0-1,1,1.2,1.2,0,0,0,0,1C1034.995,649.214,1037.885,647.972,1037.885,647.972Z" transform="translate(-1024.662 -641.428)" fill="#f5a8a8"/><path d="M1039.355,655.09l-1,2c-.153.235-.925.729-1,1-.183.665.115,1.442,0,2a12.292,12.292,0,0,0,0,7,10.648,10.648,0,0,0,2,4,6.457,6.457,0,0,1,2,5v5c0,.724-1.366,1.952,1,2s5.034-.131,6-1-.909-5.915-4-12c-1.352-2.511-2-2.392-2-5s1.642-5.875,0-8a6.616,6.616,0,0,1-1-2A2.838,2.838,0,0,0,1039.355,655.09Z" transform="translate(-1026.132 -648.545)" fill="#e3e3e0"/><path d="M1046.124,673.431v1s.565,1.758,1,2c0,0,.179.068,1,2,.395.928-2.831-1.541-3-2a17.556,17.556,0,0,1,0-3v-1Z" transform="translate(-1030.901 -658.886)" fill="#d1d1cf"/><path d="M1043.512,665.973s-.919-.938-1-1c-.045.347.163.689,0,1-.053.2.013-.168,0,0a8.076,8.076,0,0,0,0,1l2,3v-3Z" transform="translate(-1029.289 -654.428)" fill="#f5a8a8"/><path d="M1043.041,664.522l-1,1a2.109,2.109,0,0,1,0-1c.094-.539.294-1.748,0-2s-.483-.189,0,0a1.578,1.578,0,0,0,1,0v2Z" transform="translate(-1028.817 -652.977)" fill="#f5a8a8"/></g><g transform="translate(680.028 291.008)"><g transform="translate(3.118)"><path d="M986.146,458.885c.364,0,.6-.022,1,0h1a5.323,5.323,0,0,1,1,0c.318.069.869.3,1,0,.115-.263-.147-.694,0-1a11.57,11.57,0,0,0,2,2c-.385.329-.72.79-1,1h0c-.093.806-1.322.464-3,0h-2c-.285-.077.262.083,0,0C986.14,460.455,986.186,459.465,986.146,458.885Z" transform="translate(-981.896 -442.681)" fill="#ca7f7f"/><g transform="translate(8.249 55.364)"><path d="M1004.237,556.017l1,3a2.518,2.518,0,0,1-2,0v-2S1004.281,555.949,1004.237,556.017Z" transform="translate(-1000.235 -556.177)" fill="#023149"/><path d="M999.492,560.358s.437.7,0,1-1.258.105-2,0c-.96-.136-1.875,1.106,0,1a5.118,5.118,0,0,0,2-1c.351-.287,1.1-.807,1-1Z" transform="translate(-996.491 -558.517)" fill="#023149"/></g><path d="M987.954,479.615c1.932-1.893,4.025-2.594,6-1h1c2.871,2.318-5.431,13.939-7,16-2,2.622-4.871,6.767-6,5a15.181,15.181,0,0,1-2-5c0-2.908,1.7-4.645,3-7C984.038,485.657,985.731,481.794,987.954,479.615Z" transform="translate(-978.703 -454.411)" fill="#0d242b"/><path d="M990.621,537.07a54.127,54.127,0,0,1-6-9h0l-3-4c-.843-2.03-.051-2.442,1-3,0,0,4,.992,4,1a107.4,107.4,0,0,1,6,14A4.946,4.946,0,0,1,990.621,537.07Z" transform="translate(-979.371 -479.866)" fill="#0d242b"/><g transform="translate(15.373 55.539)"><path d="M1021.181,556.269l1,3s-1.1,1.387-2,1v-3S1021.216,556.2,1021.181,556.269Z" transform="translate(-1017.304 -556.604)" fill="#023149"/><path d="M1017.744,560.575a4.865,4.865,0,0,1-1,1c-.454.273-.265.148-1,0-.95-.191-2.878,1-1,1,.278,0,2.245.546,3,0,.367-.266.093-1.8,0-2Z" transform="translate(-1013.867 -558.91)" fill="#023149"/></g><path d="M1007.114,538.889a73.812,73.812,0,0,1-7-10h0l-2-2c-1.214-1.991-.983-3.4,0-4h0a15.475,15.475,0,0,1,4-1,66.929,66.929,0,0,1,7,16S1007.82,538.92,1007.114,538.889Z" transform="translate(-988.863 -480.685)" fill="#2e4348"/><path d="M999.641,477.014c1.24-2.4,3.625-1.894,6-1h1c3.453,1.3,2.339,5.813,1,9-1.014,2.414-5.369,11.683-7,13a6.44,6.44,0,0,1-3,1c-.339-.128-.858-2.182-1-3a37.737,37.737,0,0,1,0-9A36.667,36.667,0,0,1,999.641,477.014Z" transform="translate(-988.391 -452.809)" fill="#2e4348"/><path d="M1001.929,426.044c.015,1.373,1.5,4.05,2,4,1.057-.1,2.015-2.627,2-4a2,2,0,0,0-4,0Z" transform="translate(-991.679 -422.84)" fill="#f5a8a8"/><path d="M1008.886,434.545h2l-2-3-2,1A4.5,4.5,0,0,1,1008.886,434.545Z" transform="translate(-994.635 -427.341)" fill="#f5a8a8"/><path d="M1002.1,429.641s-.769.827-1,1-.369.862,0,1a2.271,2.271,0,0,0,1,0Z" transform="translate(-990.852 -426.437)" fill="#f5a8a8"/><path d="M997.251,449.828c.326.237.657-.212,1,0a23.266,23.266,0,0,0,4-4c-.64-1.6-.312-3.418-1-5-.082.094-.926-.105-1,0v1c0,.006-1-.006-1,0-1.481,2.054-2.262,5.312-3,7A10.112,10.112,0,0,0,997.251,449.828Z" transform="translate(-988.001 -432.624)" fill="#dd6d4b"/><path d="M1008.194,435.977a2.021,2.021,0,0,0-1,0h-2c-.622.047.092.9,0,1-2.47,2.626-1.615,8.935-2,15-.007.116-.007.891,0,1-.068.2-.047-.205,0,0,.285,1.237,2.063,2.128,5,2,2.621-.114,5.525-.877,6-2h0c.01-.025-.009.026,0,0a2.3,2.3,0,0,0,0-1,41.433,41.433,0,0,0-1-6C1011.351,437.1,1008.294,435.948,1008.194,435.977Z" transform="translate(-991.943 -429.772)" fill="#f38054"/><path d="M1003.239,457.02c.182-2.876-.22-5.251,0-8,.505-.129,1.5-.869,2-1,1.429-.37,1.543-3.708,3-4,1.246,4.37-1.539,9.57-4,12-.539.533-.381,1.583-1,2,.009-.038-.013.038,0,0C1003.232,457.911,1003.231,457.136,1003.239,457.02Z" transform="translate(-991.988 -434.815)" fill="#dd6d4b"/><path d="M1003.646,425.341h0c-.178-.316-.831-1.05-1-1s-.565.538-1,0c-.157-.194-.739-.916-1-1-.079-.026.081-.017,0,0-.566.118-1.4,1.036-2,1-.584-.035-.366-.584,0-1s1.641-.655,2-1c.183-.176-.1.217,0,0a3.816,3.816,0,0,1,1-1c.531-.294.466-.328,1,0,.313.192.611.091,1,0,.2-.048.8.054,1,0a1.278,1.278,0,0,1,1,0c.749.406.413,1.37,0,2-.35.535-.182.736,0,1,.33.48.153,2.038-1,2h-1A1.987,1.987,0,0,0,1003.646,425.341Z" transform="translate(-989.396 -421.137)" fill="#023149"/><path d="M1009.51,428.22c.2.347.195.886,0,1s-.8-.653-1-1-.195.113,0,0S1009.308,427.873,1009.51,428.22Z" transform="translate(-995.26 -425.016)" fill="#f5a8a8"/><path d="M976.621,449.013c1.143.1,5,0,5,0a9.108,9.108,0,0,1,2,0c.923.05,1.789-1.1,2-2a29.044,29.044,0,0,1,2-6c0-.007,0,.008,0,0l1-1c.749-1.6,1.872-2.533,3-2h1c1.128.533.749,2.4,0,4v1h0c-1.447,3.16-4.78,6.712-6,8-.386,1.223-3.742,1.583-6,1h-1a7.685,7.685,0,0,1-3-2Z" transform="translate(-976.37 -430.809)" fill="#f5a8a8"/><path d="M1002.582,448.013c1.108-1.527,3.21-3.276,4-5h0v-1c.749-1.6,1.128-3.467,0-4h-1c-1.128-.533-2.25.4-3,2l-1,1c0,.008,0-.007,0,0a36.187,36.187,0,0,0-2,5A12.531,12.531,0,0,1,1002.582,448.013Z" transform="translate(-990.332 -430.809)" fill="#f38054"/></g><path d="M972.133,463.824h0l-1-1h0c-.016-.076.109-.112,0,0s-.028-.166,0,0a7.322,7.322,0,0,1,0,1s-.876-.007-1,0c0,0,.278-.906,0-1a1.987,1.987,0,0,0-1,0c-.043.07-.279.855,0,1,.209.109.861-.077,1,0,.019.01.021,0,0,0-.223-.024-.854.014-1,0-.18-.017.017-.109,0,0s-.252-.067,0,0c.166.044.886-.024,1,0,.016,0,.016,0,0,0-.219.018-.851-.032-1,0-.19.041-.007.948,0,1s-.2-.017,0,0c.159.014.805,0,1,0,.016,0,.016-.005,0,0-.141.049-.869-.039-1,0-.176.053-.024-.084,0,0a3.214,3.214,0,0,0,1,0h0s.78-.006,1,0a1.8,1.8,0,0,0,1,0h0l1-1Z" transform="translate(-968.765 -445.62)" fill="#f5a8a8"/></g><g transform="translate(644.2 246.409)"><g transform="translate(0)"><path d="M903.93,342.566c-.56-.171-3.186-1.368-3-2,.335-1.14,4-5,4-5,2.282-5.5,5-6,5-6,.975.765.714,3.306-1,6Z" transform="translate(-892.733 -322.763)" fill="#016b80"/><g transform="translate(2.032 41.72)"><g transform="translate(2.596)"><path d="M894.23,414.2v2s-1.333,1.383-2,1l1-3A6.163,6.163,0,0,1,894.23,414.2Z" transform="translate(-892.661 -414.114)" fill="#22233b"/></g><g transform="translate(0 1.378)"><path d="M889.495,417.181a4.4,4.4,0,0,1-1,1c-.378.172-.441.182-1,0-.723-.236-2.464.827-1,1,.217.026,2.362.357,3,0,.311-.174.054-.836,0-1Z" transform="translate(-886.33 -417.476)" fill="#22233b"/></g></g><g transform="translate(7.446 42.019)"><g transform="translate(2.588)"><path d="M907.011,414.628v3s-.355.421-1,0v-2S907.048,414.576,907.011,414.628Z" transform="translate(-905.848 -414.843)" fill="#22233b"/></g><g transform="translate(0 1.316)"><path d="M902.287,418.522h0a.974.974,0,0,1-1,0c-.709-.276-2.452.745-1,1a3.694,3.694,0,0,0,2,0c.32-.156.045-.833,0-1Z" transform="translate(-899.536 -418.053)" fill="#22233b"/></g></g><path d="M917.307,328.7c-2.958,2.244-3.158,9.7-4,15a4.983,4.983,0,0,0,0,1c.238.831,1.684,2.048,5,2,2.958-.043,5.389-1.028,6-2h0c.014-.022-.012.023,0,0,.134-.245,1.025-.684,1-1a35.889,35.889,0,0,0-1-6c-1.477-7.811-2.885-9.023-3-9a3.284,3.284,0,0,0-2,0A14.541,14.541,0,0,1,917.307,328.7Z" transform="translate(-900.11 -321.894)" fill="#fff"/><path d="M915.723,328.809a4.57,4.57,0,0,0-1,1c-.7.98-1.656,3.689-1,8,.715,4.7-.152,7.453,0,10,.029.493-.824,2.613-2,2a2.476,2.476,0,0,1-1-2c.062-.38,1.448-4.043,1-7-.516-3.407-.319-6.78,1-9a19.19,19.19,0,0,1,2-3,1.18,1.18,0,0,1,1,0Z" transform="translate(-898.526 -322.005)" fill="#016b80"/><path d="M906.846,368.047c-.761-1.655-16.011-1.827-18-1-.586.244-1.915,1.138-2,2a11.372,11.372,0,0,0,0,3v2h0a102.947,102.947,0,0,0,2,13,3.523,3.523,0,0,0,2,0c.368-.088.964-.5,1-1a101.608,101.608,0,0,0,0-14c3.065.246,6.584-.07,8,0,2.765.136,6.879-1.588,7-3Z" transform="translate(-884.649 -344.243)" fill="url(#g)"/><path d="M919.072,368.063c-.7-1.654-14.168-1.83-16-1a3.56,3.56,0,0,0-2,2,8.652,8.652,0,0,0,0,3v2h0c.262,4.512.427,10.439,1,13a3.59,3.59,0,0,0,2,0,1.374,1.374,0,0,0,1-1,117.845,117.845,0,0,0,0-14h11c2.572,0,3.033-1.564,3-3Z" transform="translate(-892.875 -344.26)" fill="#ed3f3b"/><path d="M929.558,341.71c-.384,1.287-1.814,6.271,0,7,2.17.872,7.855.287,7-2a8.572,8.572,0,0,1,0-4s-.44-4.511-1-8a7.457,7.457,0,0,0-6-6c-.359.109-.207-.135,0,0,.157.1-.041.832,0,1,.312,1.276-.4,2.43,0,4A15.269,15.269,0,0,1,929.558,341.71Z" transform="translate(-909.361 -321.907)" fill="#016b80"/><path d="M937.1,343.779c-.01.418-.643.722-1,1-.277.216-.812.88-1,1a7.309,7.309,0,0,1-3,1,16.948,16.948,0,0,1-2,0c.208-.986-.112-2.283,0-3,1.745-1.141,3.866-.754,4-1,.462-.848-1.326-3.584-2-5-1.813-3.8.348-5.45,1-6a7.75,7.75,0,0,1,3,5A60.289,60.289,0,0,1,937.1,343.779Z" transform="translate(-909.905 -323.975)" fill="#023149"/><path d="M919.748,317.61a4.159,4.159,0,0,1-1-1h0a16.489,16.489,0,0,1,1-2c.335-.451,1,0,1,0Z" transform="translate(-903.551 -313.806)" fill="#023149"/><path d="M925.8,321.141s.03,3.136,0,4c0,.093-.6-.235-1,0-.241.141-.291.983-1,1-.38.009-.5-.64-1-1-.066-.048-.036.073,0,0a3.947,3.947,0,0,0,0-3l3-1" transform="translate(-905.599 -317.337)" fill="#f0a5a7"/><path d="M922.837,327.33a5.449,5.449,0,0,0,0-3s3.016-.057,3,0C925.779,325.4,925.084,326.631,922.837,327.33Z" transform="translate(-905.64 -319.526)" fill="#d88f92"/><path d="M920.444,315.328c-.416,3.38.192,4.92,1,5,2.2.216,2.76-1.542,3-3a2.721,2.721,0,0,0-2-3C921.356,314.149,920.624,313.861,920.444,315.328Z" transform="translate(-904.247 -313.524)" fill="#f0a5a7"/><path d="M924.877,315.157a3.792,3.792,0,0,0-1-2c-.514-.632-.75-.631-2-1-3.208-.945-3.173,2.148-3,2,.109-.093.853.009,1,0,.187-.612.412-.055,1,0,.742.069,1.54-.551,2,0h0c.036.043-.034-.046,0,0a1.985,1.985,0,0,1,0,1c0,.018,0-.02,0,0a6.152,6.152,0,0,0,0,1s.67-1.025,1,0c.305.952.258.931,0,1a1.954,1.954,0,0,0,0,1c.034.131-.068,1.118,0,1,.227-.4-.273-1.627,0-2C924.119,316.827,925.026,316.6,924.877,315.157Z" transform="translate(-903.68 -312.353)" fill="#023149"/><path d="M916.918,363.58h-2a4.908,4.908,0,0,0-1,0,7.012,7.012,0,0,0-1,1c-.184.2-.056-.084,0,0,0,0-.028.927,0,1s-.056.022,0,0h0c.038,0-.159.113,0,0h0a2.846,2.846,0,0,0,1,0c.162-.05-.084.017,0,0a9.689,9.689,0,0,1,1,0c.291.017.553-.81,1-1a6.849,6.849,0,0,1,2,0,3.7,3.7,0,0,0,0-1C917.828,363.474,917.427,363.552,916.918,363.58Z" transform="translate(-899.721 -342.777)" fill="#f0a5a7"/><path d="M935.317,330.97a3.778,3.778,0,0,0-2,0c-1.813.3-2.035,1.44-1,3,2.788,4.2,4.125,8.474,4,9-.155.654,1.664.115,2,0s1-.289,1-1c.006-1.388.316-3.824,0-5-.447-1.663-1.834-2.615-3-4C935.854,332.421,936.028,331.314,935.317,330.97Z" transform="translate(-911.12 -323.167)" fill="#016b80"/><path d="M922.242,362.033c-.257-.074-1.013-.777-1-1,.027-.462.676-.939,1-1,1.131-.212,5.875-2.008,9-2,.032.285,2,0,2,0,.537,3.758-.4,3.552-3,4C930.242,362.033,924.874,362.787,922.242,362.033Z" transform="translate(-905.045 -339.229)" fill="#016b80"/><g transform="translate(0 13.787)"><path d="M896.844,355h-12c-.057,0,.018.054,0,0l-3-9c-.028-.085-.089,0,0,0h12c.182,0-.056-.173,0,0l3,9C896.872,355.084,896.934,355,896.844,355Z" transform="translate(-881.647 -345.983)" fill="#023149"/><rect width="12" transform="translate(11.197 9.016)" fill="#023149"/><path d="M896.571,355h-12c-.258,0,.08.246,0,0l-3-9c-.062-.19-.2,0,0,0h12c.249,0-.077-.237,0,0Z" transform="translate(-881.374 -345.983)" fill="#e3e3e0"/><path d="M0,0H12a0,0,0,0,1,0,0V0a0,0,0,0,1,0,0H0A0,0,0,0,1,0,0V0A0,0,0,0,1,0,0Z" transform="translate(11.197 9.016)" fill="#e3e3e0"/></g></g><path d="M900.057,356.649a1,1,0,0,1-1,1c-.649,0-2-.555-2-1s1.351-1,2-1A1,1,0,0,1,900.057,356.649Z" transform="translate(-890.86 -337.846)" fill="#27a6de"/></g><g transform="translate(741.521 378.901)"><g transform="translate(3.288 0)"><path d="M1144.985,767.887c.665.241.54,1.18,1,1v-3s2.055-.056,2,0v3a3.323,3.323,0,0,1-2,0h0a2.934,2.934,0,0,1-2,0C1142.2,768.617,1144.11,767.57,1144.985,767.887Z" transform="translate(-1136.397 -712.576)" fill="#231f20"/><path d="M1195.442,764.427c.613-.376.859-.511,1-1,0-.008,0,.008,0,0l-1-2s-.009-1.078,0-1l3,2a1.929,1.929,0,0,1-1,1s0,0,0,0c-.174.877-1.8,1.819-2,2C1194.119,766.652,1194.648,764.913,1195.442,764.427Z" transform="translate(-1166.854 -709.115)" fill="#231f20"/><path d="M1182.971,738.137a63.406,63.406,0,0,1,5,10s-.3,2.022-1,2a83.5,83.5,0,0,1-8-10A20.517,20.517,0,0,1,1182.971,738.137Z" transform="translate(-1157.383 -695.826)" fill="#04567a"/><path d="M1149.44,738.508c.28.018.721-.018,1,0a88.394,88.394,0,0,1-1,13s-1.408.379-2,0a87.354,87.354,0,0,1-2-13C1146.666,738.512,1148.216,738.429,1149.44,738.508Z" transform="translate(-1137.852 -696.197)" fill="#047395"/><path d="M1177.414,695.731c0,.011,0-.011,0,0a39.715,39.715,0,0,1-2,11c.09.126-.085-.135,0,0l1,2h0c.258.4.749.573,1,1a35.511,35.511,0,0,0-4,3c-.293-.431-.736-1.576-1-2h0l-1-1c-.109-.123.1-.829,0-1-.091-.153.123.331,0,0a16.564,16.564,0,0,1-1-2,34.987,34.987,0,0,1-1-11h0v-2a3.952,3.952,0,0,1,4-4h1c2.17.131,4.141,1.671,4,4Z" transform="translate(-1151.826 -667.419)" fill="#04567a"/><path d="M1151.328,706.261c-.15.117-1.005.855-1,1,0,.04,0-.04,0,0v2c0,.011,0-.011,0,0,.018.587.008,1.39,0,2-1.507-.053-3.516-.778-5-1-.022-.427.007-.589,0-1,0-.011,0,.011,0,0v-2c0-.116,0,.114,0,0h0c0-.095-.014-.858,0-1,.041-.651-.171-.485,0-1a75.6,75.6,0,0,1,3-7c1.471-3.238,4.511-10.066,9-7h1c1.463,1,1.445,3.287,1,5-.592,2.279-2.437,4.323-4,6a41.134,41.134,0,0,1-3,3C1151.849,705.675,1151.827,705.87,1151.328,706.261Z" transform="translate(-1137.74 -667.95)" fill="#047395"/><path d="M1130.276,640.406l-1-1c-.032-.018.029.022,0,0l-1-1c-.044-.031-.053.006,0,0h0a7.252,7.252,0,0,1,1,0h0c.113-.049-.031.119,0,0h0v-1a8.135,8.135,0,0,1,0-1h0c.01-.048-.02-.045,0,0l1,1v2h1l-1,1h0C1130.111,640.386,1130.4,640.517,1130.276,640.406Z" transform="translate(-1127.688 -636.095)" fill="#f5a8a8"/><path d="M1163.841,652.818c1.717.321,3.227,1.785,3,3v1c-.227,1.216-2.283,1.321-4,1h-1a34.6,34.6,0,0,1-10-4c-.418-.324-1.038.2-1,0a1.834,1.834,0,0,1,1-1,30.546,30.546,0,0,1,10,0h2Z" transform="translate(-1141.253 -645.507)" fill="#d73535"/><path d="M1133.215,644.836v-1c.715.146,3.113,1.219,5,2h1c1.94.792,3.361,2.264,3,3h0c-.363.74-2.222.146-4-1l-1-1h0C1135.43,645.7,1133.721,645.323,1133.215,644.836Z" transform="translate(-1130.627 -640.524)" fill="#d73535"/><path d="M1173.743,639.658c-.656,1.144-.943,2.46,0,3a2.284,2.284,0,0,0,3-1c.655-1.144.943-2.46,0-3A2.284,2.284,0,0,0,1173.743,639.658Z" transform="translate(-1154.155 -637.346)" fill="#f5a8a8"/><rect width="2.161" height="3.031" transform="matrix(-1, 0.003, -0.003, -1, 22.201, 7.825)" fill="#f5a8a8"/><path d="M1173.574,640.785h0c-.265,0-1.283.587-1,1s1,0,1,0Z" transform="translate(-1153.986 -638.473)" fill="#f5a8a8"/><path d="M1176.71,643.442c0,1.089.076,2,1,2a2,2,0,0,0,0-4C1176.786,641.446,1176.706,642.354,1176.71,643.442Z" transform="translate(-1156.122 -639.131)" fill="#023149"/><path d="M1178.261,636.831c.071-.031.009.032,0,0s.1-.008,0,0c-2.186.172-3.29-2.254-4,0-.251,1.2,1.223,1.062,2,1C1177.482,637.733,1177.531,637.421,1178.261,636.831Z" transform="translate(-1154.673 -635.519)" fill="#023149"/><path d="M1177.391,639.951c.986.818,1.519,1.579,2,1s-.014-2.182-1-3-1.519-.579-2,0S1176.4,639.133,1177.391,639.951Z" transform="translate(-1155.803 -636.64)" fill="#023149"/><path d="M1182.3,644.625a.924.924,0,0,0,1-1c0-.7-.467-2-1-2s-1,1.3-1,2A.925.925,0,0,0,1182.3,644.625Z" transform="translate(-1158.717 -639.313)" fill="#023149"/><path d="M1176.438,645.3c-.128.364.2,1.072,0,1s-.128-.636,0-1-.2-1.072,0-1S1176.567,644.933,1176.438,645.3Z" transform="translate(-1155.85 -640.986)" fill="#f5a8a8"/><path d="M1164.914,667.91c.02-.11-.036.116,0,0a51.065,51.065,0,0,0,2-12,3.563,3.563,0,0,1,4-3h0c2.077.12,3.2.642,4,3a35.906,35.906,0,0,1,1,12c-.033.319-.864.756-1,1-.012.022.013-.022,0,0h0c-.6.973-2.613,1.992-5,2-2.87.01-5-.731-5-2C1164.913,668.7,1164.794,668.1,1164.914,667.91Z" transform="translate(-1149.326 -645.599)" fill="#eb5958"/><path d="M1168.861,657.759a3.85,3.85,0,0,1,1-2c1,.833,2.017,1.144,3,2-.428.651-.558,1.358-1,2-1.079,1.569-2.894,3.449-4,5C1168.565,660.712,1168.861,657.759,1168.861,657.759Z" transform="translate(-1151.273 -647.448)" fill="#d73535"/><path d="M1154.945,653.589a3.265,3.265,0,0,1,3,3h0c-.1,1.232-1.259,2.146-3,2h-1c-3.967-.294-9.178-1.487-10-2-.448-.281-1.018-.793-1-1a1.982,1.982,0,0,1,1-1,31.034,31.034,0,0,1,10-1h1Z" transform="translate(-1136.357 -646.277)" fill="#eb5958"/><path d="M1126.361,652.443l1-1c.729-.025,1.983.683,4,1h1c2.072.315,4.178,1.2,4,2h0c-.179.8-2,.7-4,0h-1A44.224,44.224,0,0,1,1126.361,652.443Z" transform="translate(-1126.773 -645.131)" fill="#eb5958"/></g><path d="M1122.629,649.085s-.955.116-1,0h0v-1h0c-.016-.075.109-.112,0,0s-.028-.165,0,0a7.332,7.332,0,0,1,0,1s-.876-.006-1,0c0,0-.722-.906-1-1s.043-.071,0,0-.278-.145,0,0c.209.109.861.923,1,1,.019.011.021,0,0,0-.223-.025-.854.013-1,0-.18-.017-.983-.109-1,0s.748-.067,1,0c.166.044-.114-.023,0,0,.015,0,.016,0,0,0-.219.018-.851-.032-1,0-.19.041-.006.948,0,1a9.35,9.35,0,0,0,1,0c.159.014-.194,0,0,0,.016,0,1.015-.005,1,0-.141.049-.868-.039-1,0-.176.052-.024-.084,0,0s-.157.02,0,0,1,0,1,0,.78-.006,1,0-.417.179,0,0a8.417,8.417,0,0,0,1,0v-1Z" transform="translate(-1118.753 -642.773)" fill="#f5a8a8"/></g></g></svg>