<svg xmlns="http://www.w3.org/2000/svg" width="124.49" height="189.103" viewBox="0 0 124.49 189.103"><g transform="translate(-178.006 -549.847)"><g transform="translate(197.69 549.847)"><g transform="translate(38.143 0.473)"><path d="M109.136,744.45c3.463-4.9,8.235-9.9,14.368-15.482l-.661,40.491A189.212,189.212,0,0,1,109.136,744.45Z" transform="translate(-109.136 -728.968)" fill="#e65f5c"/></g><g transform="translate(51.558 27.126)"><path d="M123.941,789.222c7.718-7.856,15.478-23.119,20.269-33.6,2.617,8.96,1.235,18.727-3.93,32.123-10.307,26.734,6.326,21.715,9.614,19.16s11.579-17.025,20.765-10.475a9.362,9.362,0,0,1,1.307,1.151c-8.523,26.654-42.047,67.547-49.4,76.318Z" transform="translate(-122.561 -755.621)" fill="#e65f5c"/></g><g transform="translate(6.026 17.397)"><path d="M121.407,856.111c-4.387-2.53-25.143-16.4-44.412-60.928,9.045-5.356,16.792,8.674,19.96,11.233,3.239,2.615,19.779,7.94,9.965-18.979-6.671-18.3-6.484-29.815,1.206-41.545a187.431,187.431,0,0,0,14.651,26.218Z" transform="translate(-76.995 -745.892)" fill="#e65f5c"/></g><g transform="translate(52.975 0.608)"><path d="M123.979,786.948l.943-57.845c9.55,9.034,15.7,16.509,18.6,24.456C139.012,763.531,131.448,778.74,123.979,786.948Z" transform="translate(-123.979 -729.103)" fill="#e65f5c"/></g><path d="M173.044,798.912c6,8.817,2.009,30.288-9.732,56.924a208.319,208.319,0,0,1-12.39,23.379c-4.437,7.368-9.138,14.51-14,21.491-3.623,5.207-7.308,10.379-11.15,15.361a5.142,5.142,0,0,1-3.927,1.531l.673-41.289C127.083,870.965,163.47,827.781,173.044,798.912Z" transform="translate(-71.002 -728.495)" fill="#e65f5c"/><g transform="translate(0 67.543)"><path d="M75.764,796.038c20.388,47.072,42.551,60.268,45.609,61.908l-.968,59.4c-.042-.017-.087-.032-.127-.051a4.98,4.98,0,0,1-1.925-2.033c-1.125-1.855-2.39-3.544-3.626-5.3q-3.055-4.341-6.027-8.762c-4.776-7.109-9.391-14.376-13.738-21.865a211.942,211.942,0,0,1-12.182-23.9l-.148-.351C70.415,825.928,67.231,803.028,75.764,796.038Z" transform="translate(-70.965 -796.038)" fill="#e65f5c"/></g><g transform="translate(4.799)"><path d="M75.768,796.038c.2-.166.4-.331.619-.479s.4-.256.608-.376c19.27,44.53,40.026,58.4,44.412,60.928l1.37-84a187.431,187.431,0,0,1-14.651-26.218q.474-.722.986-1.442a189.212,189.212,0,0,0,13.708,25.009l.661-40.491c.133-.121.259-.239.392-.361.191-.156.31-.145.5.01.175.163.339.323.511.486l-.943,57.845c7.469-8.208,15.033-23.417,19.547-33.389.25.684.484,1.371.686,2.062-4.792,10.482-12.551,25.745-20.269,33.6l-1.38,84.676c7.358-8.771,40.882-49.664,49.4-76.318a10.317,10.317,0,0,1,1.078,1.332c-9.574,28.869-45.96,72.053-50.523,77.4l-.673,41.289a4,4,0,0,1-1.406-.249l.968-59.4C118.319,856.306,96.156,843.11,75.768,796.038Z" transform="translate(-75.768 -728.495)" fill="#05567a"/></g></g><g transform="translate(178.006 597.546)"><g transform="translate(21.954 0.283)"><path d="M73.237,815.709a58.545,58.545,0,0,1,8.343-9.232l-.072,23.856A111.467,111.467,0,0,1,73.237,815.709Z" transform="translate(-73.237 -806.477)" fill="#f7bc4b"/></g><g transform="translate(30.867 15.822)"><path d="M82.309,841.966c4.485-4.688,8.936-13.739,11.676-19.95,1.611,5.256.873,11.02-2.064,18.951-5.863,15.828,3.9,12.742,5.813,11.211s6.687-10.119,12.148-6.333a5.5,5.5,0,0,1,.779.668c-4.812,15.767-24.24,40.115-28.505,45.34Z" transform="translate(-82.156 -822.016)" fill="#f7bc4b"/></g><g transform="translate(3.433 10.372)"><path d="M81.339,881.384c-2.6-1.455-14.939-9.462-26.637-35.541,5.286-3.226,9.958,4.978,11.844,6.461,1.929,1.515,11.712,4.522,5.722-11.257-4.072-10.727-4.052-17.511.387-24.481A110.207,110.207,0,0,0,81.489,831.9Z" transform="translate(-54.702 -816.566)" fill="#f7bc4b"/></g><g transform="translate(31.024 0.352)"><path d="M82.313,840.626l.1-34.08c5.7,5.246,9.374,9.6,11.149,14.26C90.985,826.715,86.647,835.733,82.313,840.626Z" transform="translate(-82.313 -806.546)" fill="#f7bc4b"/></g><g transform="translate(30.789 41.095)"><path d="M111.307,847.289c3.6,5.147,1.42,17.825-5.288,33.606A122.925,122.925,0,0,1,98.9,894.763c-2.557,4.374-5.27,8.618-8.077,12.768-2.094,3.1-4.224,6.17-6.448,9.135a3.027,3.027,0,0,1-2.3.932l.074-24.325C84.8,890.089,105.893,864.369,111.307,847.289Z" transform="translate(-82.078 -847.289)" fill="#f7bc4b"/></g><g transform="translate(0 40.162)"><path d="M53.984,846.356c12.376,27.568,25.533,35.167,27.348,36.109l-.107,35c-.025-.01-.052-.018-.076-.03A2.929,2.929,0,0,1,80,916.252c-.677-1.084-1.436-2.07-2.176-3.093q-1.835-2.534-3.619-5.113c-2.868-4.151-5.643-8.4-8.262-12.773a124.993,124.993,0,0,1-7.363-13.981c-.03-.068-.06-.136-.089-.205C51.066,864,49.012,850.54,53.984,846.356Z" transform="translate(-51.267 -846.356)" fill="#f7bc4b"/></g><g transform="translate(2.717)"><path d="M53.986,846.356c.118-.1.235-.2.361-.287s.236-.153.355-.226c11.7,26.079,24.032,34.086,26.636,35.541l.151-49.489a110.207,110.207,0,0,1-8.835-15.329c.182-.285.373-.571.569-.857a111.467,111.467,0,0,0,8.271,14.624l.072-23.856.229-.214c.11-.095.181-.089.3,0s.2.187.3.282l-.1,34.08c4.334-4.893,8.672-13.911,11.253-19.82.153.4.295.8.42,1.21-2.74,6.211-7.192,15.262-11.676,19.95l-.153,49.887c4.265-5.225,23.693-29.573,28.505-45.34a6.045,6.045,0,0,1,.646.776c-5.414,17.08-26.51,42.8-29.155,45.984L82.057,917.6a2.329,2.329,0,0,1-.83-.135l.107-35C79.519,881.523,66.362,873.924,53.986,846.356Z" transform="translate(-53.986 -806.194)" fill="#05567a"/></g></g></g></svg>