<svg xmlns="http://www.w3.org/2000/svg" width="649.424" height="292.001" viewBox="0 0 649.424 292.001"><g transform="translate(0 -107.02)"><g transform="translate(0 -5.042)" opacity="0.7"><path d="M512.3,379.562a10.821,10.821,0,0,0-2.965.422,11.972,11.972,0,0,0,.121-1.605,11.7,11.7,0,0,0-19.5-8.742,17.116,17.116,0,0,0-32.8,6.853c0,.59.031,1.171.088,1.744a12.173,12.173,0,1,0-5.532,23.016h61.655V401.2a10.843,10.843,0,0,0-1.069-21.634Z" fill="#dbf6f4"/></g><g transform="translate(0 -5.042)" opacity="0.6"><path d="M113.465,122.156a5.434,5.434,0,0,0-1.483.211,5.819,5.819,0,0,0-5.8-6.66,5.819,5.819,0,0,0-3.889,1.487,8.559,8.559,0,0,0-16.4,3.426,8.657,8.657,0,0,0,.045.872A6.087,6.087,0,1,0,83.172,133H114v-.027a5.422,5.422,0,0,0-.535-10.817Z" fill="#dbf6f4"/></g><path d="M91.521,353.719a25.1,25.1,0,0,0-6.875.977,27.646,27.646,0,0,0,.282-3.72,27.13,27.13,0,0,0-45.2-20.268A39.683,39.683,0,0,0,3.364,306.915c-1.134,0-2.254.059-3.364.153l.073,96.995H91.4l2.6-.188a25.139,25.139,0,0,0-2.479-50.156Z" transform="translate(0 -5.042)" fill="#dbf6f4" opacity="0.47"/><g transform="translate(0 -5.042)" opacity="0.51"><path d="M635.641,165.435a13.759,13.759,0,0,0-3.77.535,14.865,14.865,0,0,0-24.625-13.151,21.758,21.758,0,0,0-41.578,10.928A15.473,15.473,0,1,0,558.637,193H637v-.069a13.782,13.782,0,0,0-1.359-27.5Z" fill="#dbf6f4"/></g></g></svg>