<svg xmlns="http://www.w3.org/2000/svg" width="370.026" height="293.032" viewBox="0 0 370.026 293.032"><g transform="translate(1596.595 -1574.798)"><g transform="translate(-1689.731 0.103)" opacity="0.3"><path d="M398.962,1649.6l-7.772,9.754,10.158.121Z" fill="#fff"/><rect width="11.583" height="11.582" transform="translate(261.477 1808.49) rotate(-28.437)" fill="#fff"/><path d="M375.461,1784.516l-11.985-16.55,16.553-11.985,11.984,16.551Zm-10.312-16.283,10.578,14.61,14.612-10.58-10.578-14.609Z" fill="#fff"/><path d="M391.43,1766.371a11.354,11.354,0,1,1-9.023,13.283A11.363,11.363,0,0,1,391.43,1766.371Zm.1.538a10.806,10.806,0,1,0,12.643,8.585A10.819,10.819,0,0,0,391.534,1766.909Z" fill="#fff"/><path d="M236.036,1770.213a1.927,1.927,0,1,0,1.925-1.922A1.927,1.927,0,0,0,236.036,1770.213Z" fill="#fff"/><path d="M224.6,1770.213a1.926,1.926,0,1,0,1.925-1.922A1.927,1.927,0,0,0,224.6,1770.213Z" fill="#fff"/><path d="M213.159,1770.213a1.925,1.925,0,1,0,1.924-1.922A1.926,1.926,0,0,0,213.159,1770.213Z" fill="#fff"/><path d="M201.718,1770.213a1.926,1.926,0,1,0,1.929-1.922A1.928,1.928,0,0,0,201.718,1770.213Z" fill="#fff"/><path d="M236.036,1779.746a1.927,1.927,0,1,0,1.925-1.925A1.923,1.923,0,0,0,236.036,1779.746Z" fill="#fff"/><path d="M224.6,1779.746a1.925,1.925,0,1,0,1.925-1.925A1.923,1.923,0,0,0,224.6,1779.746Z" fill="#fff"/><path d="M213.159,1779.746a1.925,1.925,0,1,0,1.924-1.925A1.923,1.923,0,0,0,213.159,1779.746Z" fill="#fff"/><path d="M201.718,1779.746a1.925,1.925,0,1,0,1.929-1.925A1.925,1.925,0,0,0,201.718,1779.746Z" fill="#fff"/><path d="M236.036,1789.284a1.927,1.927,0,1,0,1.925-1.925A1.928,1.928,0,0,0,236.036,1789.284Z" fill="#fff"/><path d="M224.6,1789.284a1.925,1.925,0,1,0,1.925-1.925A1.928,1.928,0,0,0,224.6,1789.284Z" fill="#fff"/><path d="M213.159,1789.284a1.925,1.925,0,1,0,1.924-1.925A1.927,1.927,0,0,0,213.159,1789.284Z" fill="#fff"/><path d="M201.718,1789.284a1.925,1.925,0,1,0,1.929-1.925A1.929,1.929,0,0,0,201.718,1789.284Z" fill="#fff"/><path d="M236.036,1798.814a1.927,1.927,0,1,0,1.925-1.926A1.924,1.924,0,0,0,236.036,1798.814Z" fill="#fff"/><path d="M224.6,1798.814a1.925,1.925,0,1,0,1.925-1.926A1.924,1.924,0,0,0,224.6,1798.814Z" fill="#fff"/><path d="M213.159,1798.814a1.925,1.925,0,1,0,1.924-1.926A1.923,1.923,0,0,0,213.159,1798.814Z" fill="#fff"/><path d="M201.718,1798.814a1.925,1.925,0,1,0,1.929-1.926A1.926,1.926,0,0,0,201.718,1798.814Z" fill="#fff"/><path d="M307.808,1806.689a1.334,1.334,0,1,0-1.316,1.35A1.332,1.332,0,0,0,307.808,1806.689Z" fill="#231f20"/><path d="M313.089,1806.62a1.334,1.334,0,1,0-1.317,1.352A1.332,1.332,0,0,0,313.089,1806.62Z" fill="#231f20"/><path d="M318.371,1806.553a1.335,1.335,0,1,0-1.317,1.351A1.334,1.334,0,0,0,318.371,1806.553Z" fill="#231f20"/><path d="M322.991,1806.495a1.334,1.334,0,1,0-1.316,1.35A1.333,1.333,0,0,0,322.991,1806.495Z" fill="#231f20"/><path d="M328.436,1806.427a1.333,1.333,0,1,0-1.315,1.35A1.33,1.33,0,0,0,328.436,1806.427Z" fill="#231f20"/><path d="M333.718,1806.36a1.335,1.335,0,1,0-1.318,1.35A1.333,1.333,0,0,0,333.718,1806.36Z" fill="#231f20"/><path d="M339,1806.291a1.334,1.334,0,1,0-1.317,1.353A1.333,1.333,0,0,0,339,1806.291Z" fill="#231f20"/><path d="M344.939,1806.219a1.334,1.334,0,1,0-1.316,1.35A1.333,1.333,0,0,0,344.939,1806.219Z" fill="#231f20"/><path d="M313.16,1812.231a1.334,1.334,0,1,0-1.316,1.351A1.333,1.333,0,0,0,313.16,1812.231Z" fill="#231f20"/><path d="M318.441,1812.165a1.334,1.334,0,1,0-1.316,1.35A1.336,1.336,0,0,0,318.441,1812.165Z" fill="#231f20"/><path d="M323.062,1812.108a1.334,1.334,0,1,0-1.316,1.349A1.334,1.334,0,0,0,323.062,1812.108Z" fill="#231f20"/><path d="M328.509,1812.036a1.334,1.334,0,1,0-1.318,1.352A1.339,1.339,0,0,0,328.509,1812.036Z" fill="#231f20"/><path d="M333.788,1811.972a1.334,1.334,0,1,0-1.317,1.349A1.331,1.331,0,0,0,333.788,1811.972Z" fill="#231f20"/><path d="M339.07,1811.9a1.335,1.335,0,1,0-1.319,1.352A1.333,1.333,0,0,0,339.07,1811.9Z" fill="#231f20"/><path d="M318.51,1817.544a1.335,1.335,0,1,0-1.317,1.349A1.331,1.331,0,0,0,318.51,1817.544Z" fill="#231f20"/><path d="M323.128,1817.487a1.333,1.333,0,1,0-1.315,1.348A1.332,1.332,0,0,0,323.128,1817.487Z" fill="#231f20"/><path d="M328.575,1817.416a1.334,1.334,0,1,0-1.315,1.351A1.333,1.333,0,0,0,328.575,1817.416Z" fill="#231f20"/><path d="M333.857,1817.35a1.334,1.334,0,1,0-1.317,1.35A1.332,1.332,0,0,0,333.857,1817.35Z" fill="#231f20"/><path d="M323.189,1822.158a1.334,1.334,0,1,0-1.315,1.352A1.333,1.333,0,0,0,323.189,1822.158Z" fill="#231f20"/><path d="M328.634,1822.091a1.333,1.333,0,1,0-1.315,1.351A1.333,1.333,0,0,0,328.634,1822.091Z" fill="#231f20"/><path d="M325.915,1826.733a1.334,1.334,0,1,0-1.317,1.351A1.331,1.331,0,0,0,325.915,1826.733Z" fill="#231f20"/><path d="M342.52,1609.322c1.757,1.18,3.4.768,4.856.4,1.326-.332,2.377-.6,3.509.165,1.045.7,1.146,1.58,1.226,2.956s.175,3.047,1.956,4.257c1.755,1.178,3.4.765,4.856.4,1.33-.335,2.373-.6,3.508.162,1.043.707,1.143,1.576,1.223,2.959.07,1.357.168,3.049,1.953,4.251,1.757,1.183,3.4.768,4.858.4,1.327-.336,2.373-.6,3.5.166,1.045.7,1.146,1.578,1.223,2.952.077,1.353.165,3.049,1.956,4.252,1.751,1.18,3.4.765,4.847.4,1.333-.335,2.381-.6,3.512.166l.939-1.389c-1.755-1.183-3.4-.768-4.854-.4-1.327.332-2.375.6-3.508-.168-1.04-.7-1.144-1.57-1.217-2.95-.083-1.361-.173-3.049-1.957-4.253-1.755-1.181-3.4-.765-4.851-.4-1.331.333-2.378.6-3.512-.164-1.044-.705-1.143-1.574-1.223-2.959-.077-1.357-.171-3.047-1.959-4.25-1.753-1.183-3.4-.769-4.849-.4-1.329.334-2.378.6-3.511-.166-1.045-.7-1.146-1.587-1.222-2.959s-.173-3.049-1.964-4.251c-1.751-1.181-3.4-.766-4.852-.4-1.326.335-2.377.594-3.51-.167Z" fill="#fff"/><path d="M433.609,1620.868a7.838,7.838,0,1,1-10.487-3.6A7.843,7.843,0,0,1,433.609,1620.868Zm-13.741,6.726a7.462,7.462,0,1,0,3.422-9.983A7.47,7.47,0,0,0,419.868,1627.594Z" fill="#231f20"/><path d="M422.674,1615.638v6.437h-6.439v-6.437Zm-.379,6.058v-5.679h-5.681v5.679Z" fill="#231f20"/><path d="M134.3,1620.036a1.095,1.095,0,1,1-1.094,1.095A1.094,1.094,0,0,1,134.3,1620.036Z" fill="#5d5d5d"/><path d="M134.3,1613.538a1.095,1.095,0,1,1-1.094,1.1A1.094,1.094,0,0,1,134.3,1613.538Z" fill="#5d5d5d"/><path d="M134.3,1607.04a1.094,1.094,0,1,1-1.094,1.093A1.093,1.093,0,0,1,134.3,1607.04Z" fill="#5d5d5d"/><path d="M134.3,1600.54a1.094,1.094,0,1,1-1.094,1.095A1.094,1.094,0,0,1,134.3,1600.54Z" fill="#5d5d5d"/><path d="M139.711,1620.036a1.095,1.095,0,1,1-1.093,1.095A1.094,1.094,0,0,1,139.711,1620.036Z" fill="#5d5d5d"/><path d="M139.711,1613.538a1.095,1.095,0,1,1-1.093,1.1A1.094,1.094,0,0,1,139.711,1613.538Z" fill="#5d5d5d"/><path d="M139.711,1607.04a1.094,1.094,0,1,1-1.093,1.093A1.093,1.093,0,0,1,139.711,1607.04Z" fill="#5d5d5d"/><path d="M139.711,1600.54a1.094,1.094,0,1,1-1.093,1.095A1.094,1.094,0,0,1,139.711,1600.54Z" fill="#5d5d5d"/><path d="M145.127,1620.036a1.095,1.095,0,1,1-1.093,1.095A1.094,1.094,0,0,1,145.127,1620.036Z" fill="#5d5d5d"/><path d="M145.127,1613.538a1.095,1.095,0,1,1-1.093,1.1A1.094,1.094,0,0,1,145.127,1613.538Z" fill="#5d5d5d"/><path d="M145.127,1607.04a1.094,1.094,0,1,1-1.093,1.093A1.093,1.093,0,0,1,145.127,1607.04Z" fill="#5d5d5d"/><path d="M145.127,1600.54a1.094,1.094,0,1,1-1.093,1.095A1.094,1.094,0,0,1,145.127,1600.54Z" fill="#5d5d5d"/><path d="M150.542,1620.036a1.095,1.095,0,1,1-1.1,1.095A1.093,1.093,0,0,1,150.542,1620.036Z" fill="#5d5d5d"/><path d="M150.542,1613.538a1.095,1.095,0,1,1-1.1,1.1A1.093,1.093,0,0,1,150.542,1613.538Z" fill="#5d5d5d"/><path d="M150.542,1607.04a1.094,1.094,0,1,1-1.1,1.093A1.092,1.092,0,0,1,150.542,1607.04Z" fill="#5d5d5d"/><path d="M150.542,1600.54a1.094,1.094,0,1,1-1.1,1.095A1.093,1.093,0,0,1,150.542,1600.54Z" fill="#5d5d5d"/><path d="M439.624,1700.32a1.094,1.094,0,1,1-1.373-.713A1.094,1.094,0,0,1,439.624,1700.32Z"/><path d="M445.82,1698.361a1.094,1.094,0,1,1-1.373-.713A1.094,1.094,0,0,1,445.82,1698.361Z"/><path d="M452.016,1696.4a1.094,1.094,0,1,1-1.373-.714A1.093,1.093,0,0,1,452.016,1696.4Z"/><path d="M458.213,1694.442a1.093,1.093,0,1,1-1.374-.713A1.094,1.094,0,0,1,458.213,1694.442Z"/><path d="M441.256,1705.483a1.094,1.094,0,1,1-1.373-.712A1.095,1.095,0,0,1,441.256,1705.483Z"/><path d="M447.453,1703.524a1.095,1.095,0,1,1-1.374-.712A1.1,1.1,0,0,1,447.453,1703.524Z"/><path d="M453.649,1701.565a1.094,1.094,0,1,1-1.372-.713A1.095,1.095,0,0,1,453.649,1701.565Z"/><path d="M459.845,1699.606a1.093,1.093,0,1,1-1.373-.713A1.093,1.093,0,0,1,459.845,1699.606Z"/><path d="M442.889,1710.647a1.095,1.095,0,1,1-1.373-.712A1.1,1.1,0,0,1,442.889,1710.647Z"/><path d="M449.085,1708.688a1.094,1.094,0,1,1-1.373-.712A1.095,1.095,0,0,1,449.085,1708.688Z"/><path d="M455.281,1706.729a1.094,1.094,0,1,1-1.371-.712A1.093,1.093,0,0,1,455.281,1706.729Z"/><path d="M461.478,1704.77a1.093,1.093,0,1,1-1.373-.712A1.093,1.093,0,0,1,461.478,1704.77Z"/><path d="M444.522,1715.81a1.095,1.095,0,1,1-1.374-.713A1.1,1.1,0,0,1,444.522,1715.81Z"/><path d="M450.717,1713.851a1.094,1.094,0,1,1-1.373-.713A1.093,1.093,0,0,1,450.717,1713.851Z"/><path d="M456.913,1711.892a1.094,1.094,0,1,1-1.371-.714A1.092,1.092,0,0,1,456.913,1711.892Z"/><path d="M463.111,1709.933a1.094,1.094,0,1,1-1.374-.714A1.092,1.092,0,0,1,463.111,1709.933Z"/><path d="M105.9,1687.98c1.732,1.439,1.725,3.222,1.722,4.792-.005,1.455-.006,2.712,1.232,3.741h0c1.24,1.03,2.476.8,3.9.524,1.544-.29,3.294-.62,5.025.818h0c1.731,1.437,1.727,3.218,1.722,4.789-.005,1.454-.006,2.711,1.232,3.739h0c1.239,1.03,2.474.8,3.9.526,1.541-.292,3.294-.625,5.024.812l0,0c1.73,1.437,1.723,3.218,1.719,4.787,0,1.458-.007,2.712,1.23,3.741h0l-.87,1.046h0c-1.73-1.438-1.726-3.218-1.72-4.79.006-1.455.009-2.711-1.229-3.74h0c-1.238-1.028-2.473-.8-3.9-.523-1.545.293-3.294.624-5.027-.815h0c-1.731-1.439-1.726-3.219-1.721-4.791,0-1.453.008-2.711-1.231-3.741h0c-1.241-1.031-2.474-.8-3.9-.525-1.548.291-3.3.622-5.028-.815h0c-1.732-1.438-1.727-3.219-1.722-4.791.006-1.455.008-2.712-1.232-3.742h0c-1.24-1.03-2.475-.8-3.906-.526-1.546.291-3.3.625-5.03-.814s-1.727-3.222-1.725-4.794c.006-1.453.009-2.713-1.231-3.743h0L94,1678.1l0,0c1.732,1.439,1.729,3.22,1.725,4.792,0,1.456-.008,2.712,1.234,3.743s2.475.8,3.907.524c1.544-.291,3.295-.622,5.028.816Z" fill="#fff"/><path d="M190.428,1662.435a4.116,4.116,0,1,1,5.473,1.983A4.12,4.12,0,0,1,190.428,1662.435Z" fill="#fff"/></g><g transform="translate(-1689.731 0.103)"><circle cx="146.516" cy="146.516" r="146.516" transform="translate(138.362 1574.695)" fill="#fc0"/></g></g></svg>