<svg xmlns="http://www.w3.org/2000/svg" xmlns:xlink="http://www.w3.org/1999/xlink" width="315.833" height="293.032" viewBox="0 0 315.833 293.032"><defs><linearGradient id="a" y1="0.5" x2="1" y2="0.5" gradientUnits="objectBoundingBox"><stop offset="0" stop-color="#414042"/><stop offset="1"/></linearGradient><linearGradient id="b" x1="-103.852" y1="51.716" x2="-102.852" y2="51.716" xlink:href="#a"/><linearGradient id="c" x1="-59.326" y1="29.789" x2="-58.326" y2="29.789" xlink:href="#a"/></defs><g transform="translate(781.182 -1576.308)"><g transform="translate(-1689.731 0.103)"><circle cx="146.516" cy="146.516" r="146.516" transform="translate(930.296 1576.205)" fill="#fc0"/></g><g transform="translate(-1689.731 0.103)" opacity="0.3"><path d="M1099.246,1785.464l23.412-10.452-18.423-9.829Z" fill="#fff"/><path d="M1114.688,1803.25a8.289,8.289,0,1,1,4.008-1.037A8.314,8.314,0,0,1,1114.688,1803.25Zm-.024-15.883a7.579,7.579,0,1,0,6.647,3.91A7.576,7.576,0,0,0,1114.664,1787.367Z" fill="#231f20"/><path d="M1064.487,1622.523a3.208,3.208,0,1,1-4.265-1.544A3.21,3.21,0,0,1,1064.487,1622.523Z" fill="#231f20"/><path d="M1101.634,1622.473c1.779-1.667,3.733-1.491,5.457-1.342,1.577.14,2.822.248,3.976-.823,1.061-.993,1.015-2.015.854-3.593s-.354-3.508,1.468-5.2c1.784-1.664,3.738-1.489,5.462-1.341,1.571.141,2.813.252,3.969-.817,1.059-.992,1.011-2.008.857-3.6-.16-1.56-.362-3.507,1.461-5.2,1.783-1.662,3.74-1.489,5.461-1.335,1.573.139,2.817.249,3.971-.825,1.061-.991,1.017-2.013.854-3.591-.164-1.557-.357-3.505,1.46-5.2,1.785-1.661,3.734-1.486,5.457-1.334,1.577.138,2.819.249,3.973-.825l1.319,1.414c-1.786,1.666-3.737,1.492-5.462,1.338-1.573-.141-2.815-.253-3.967.825-1.062.986-1.016,2-.854,3.586.163,1.565.357,3.509-1.464,5.2-1.783,1.663-3.733,1.489-5.458,1.335-1.572-.138-2.818-.246-3.968.827-1.064.995-1.02,2-.862,3.593.161,1.564.358,3.505-1.46,5.2-1.783,1.664-3.736,1.489-5.461,1.335-1.572-.138-2.812-.247-3.969.827-1.063,1-1.02,2.017-.86,3.6.155,1.563.357,3.505-1.467,5.2-1.781,1.663-3.735,1.488-5.46,1.335-1.573-.14-2.817-.248-3.97.827Z" fill="#fff"/><path d="M1201.06,1677.646v-19.088h19.087v19.088Zm1.119-17.968v16.848h16.846v-16.848Z" fill="#fff"/><path d="M1208.526,1658.742a7.928,7.928,0,1,1,7.93,7.928A7.939,7.939,0,0,1,1208.526,1658.742Zm15.17,0a7.241,7.241,0,1,0-7.24,7.244A7.248,7.248,0,0,0,1223.7,1658.742Z" fill="#fff"/><rect width="11.684" height="11.683" transform="matrix(0.879, -0.476, 0.476, 0.879, 940.388, 1797.797)" fill="#231f20"/><path d="M1112.556,1828.494l-5.09-9.007,9.008-5.089,5.089,9.007Zm-4.263-8.776,4.491,7.95,7.952-4.493-4.491-7.95Z" fill="#231f20"/><path d="M915.91,1712.3a6.2,6.2,0,1,1,4.926-7.252A6.2,6.2,0,0,1,915.91,1712.3Zm-.056-.293a5.9,5.9,0,1,0-6.9-4.687A5.906,5.906,0,0,0,915.854,1712Z" fill="#231f20"/><path d="M1220.373,1775.642a1.944,1.944,0,1,0,1.942-1.938A1.943,1.943,0,0,0,1220.373,1775.642Z" fill="#231f20"/><path d="M1208.837,1775.642a1.942,1.942,0,1,0,1.941-1.938A1.943,1.943,0,0,0,1208.837,1775.642Z" fill="#231f20"/><path d="M1197.3,1775.642a1.942,1.942,0,1,0,1.941-1.938A1.943,1.943,0,0,0,1197.3,1775.642Z" fill="#231f20"/><path d="M1185.757,1775.642a1.943,1.943,0,1,0,1.945-1.938A1.944,1.944,0,0,0,1185.757,1775.642Z" fill="#231f20"/><path d="M1220.373,1785.258a1.944,1.944,0,1,0,1.942-1.943A1.939,1.939,0,0,0,1220.373,1785.258Z" fill="#231f20"/><path d="M1208.837,1785.258a1.942,1.942,0,1,0,1.941-1.943A1.94,1.94,0,0,0,1208.837,1785.258Z" fill="#231f20"/><path d="M1197.3,1785.258a1.942,1.942,0,1,0,1.941-1.943A1.939,1.939,0,0,0,1197.3,1785.258Z" fill="#231f20"/><path d="M1185.757,1785.258a1.943,1.943,0,1,0,1.945-1.943A1.941,1.941,0,0,0,1185.757,1785.258Z" fill="#231f20"/><path d="M1220.373,1794.879a1.944,1.944,0,1,0,1.942-1.943A1.944,1.944,0,0,0,1220.373,1794.879Z" fill="#231f20"/><path d="M1208.837,1794.879a1.942,1.942,0,1,0,1.941-1.943A1.944,1.944,0,0,0,1208.837,1794.879Z" fill="#231f20"/><path d="M1197.3,1794.879a1.942,1.942,0,1,0,1.941-1.943A1.944,1.944,0,0,0,1197.3,1794.879Z" fill="#231f20"/><path d="M1185.757,1794.879a1.943,1.943,0,1,0,1.945-1.943A1.945,1.945,0,0,0,1185.757,1794.879Z" fill="#231f20"/><path d="M1220.373,1804.492a1.944,1.944,0,1,0,1.942-1.942A1.94,1.94,0,0,0,1220.373,1804.492Z" fill="#231f20"/><path d="M1208.837,1804.492a1.942,1.942,0,1,0,1.941-1.942A1.941,1.941,0,0,0,1208.837,1804.492Z" fill="#231f20"/><path d="M1197.3,1804.492a1.942,1.942,0,1,0,1.941-1.942A1.94,1.94,0,0,0,1197.3,1804.492Z" fill="#231f20"/><path d="M1185.757,1804.492a1.943,1.943,0,1,0,1.945-1.942A1.941,1.941,0,0,0,1185.757,1804.492Z" fill="#231f20"/><path d="M1009.451,1655.887a1.943,1.943,0,1,0,1.927-1.957A1.942,1.942,0,0,0,1009.451,1655.887Z" fill="#231f20"/><path d="M1001.76,1655.95a1.942,1.942,0,1,0,1.927-1.959A1.939,1.939,0,0,0,1001.76,1655.95Z" fill="#231f20"/><path d="M994.066,1656.011a1.944,1.944,0,1,0,1.928-1.957A1.943,1.943,0,0,0,994.066,1656.011Z" fill="#231f20"/><path d="M987.338,1656.064a1.942,1.942,0,1,0,1.925-1.957A1.939,1.939,0,0,0,987.338,1656.064Z" fill="#231f20"/><path d="M979.406,1656.127a1.942,1.942,0,1,0,1.924-1.96A1.937,1.937,0,0,0,979.406,1656.127Z" fill="#231f20"/><path d="M971.712,1656.187a1.944,1.944,0,1,0,1.93-1.959A1.941,1.941,0,0,0,971.712,1656.187Z" fill="#231f20"/><path d="M964.021,1656.25a1.943,1.943,0,1,0,1.928-1.961A1.943,1.943,0,0,0,964.021,1656.25Z" fill="#231f20"/><path d="M955.367,1656.315a1.943,1.943,0,1,0,1.927-1.959A1.942,1.942,0,0,0,955.367,1656.315Z" fill="#231f20"/><path d="M1001.7,1647.778a1.942,1.942,0,1,0,1.926-1.959A1.937,1.937,0,0,0,1001.7,1647.778Z" fill="#231f20"/><path d="M994,1647.838a1.943,1.943,0,1,0,1.926-1.958A1.943,1.943,0,0,0,994,1647.838Z" fill="#231f20"/><path d="M987.273,1647.888a1.942,1.942,0,1,0,1.926-1.955A1.941,1.941,0,0,0,987.273,1647.888Z" fill="#231f20"/><path d="M979.339,1647.955a1.943,1.943,0,1,0,1.928-1.959A1.951,1.951,0,0,0,979.339,1647.955Z" fill="#231f20"/><path d="M971.648,1648.013a1.944,1.944,0,1,0,1.928-1.957A1.941,1.941,0,0,0,971.648,1648.013Z" fill="#231f20"/><path d="M963.955,1648.076a1.944,1.944,0,1,0,1.93-1.959A1.943,1.943,0,0,0,963.955,1648.076Z" fill="#231f20"/><path d="M993.939,1640a1.944,1.944,0,1,0,1.929-1.956A1.941,1.941,0,0,0,993.939,1640Z" fill="#231f20"/><path d="M987.213,1640.053a1.942,1.942,0,1,0,1.925-1.954A1.941,1.941,0,0,0,987.213,1640.053Z" fill="#231f20"/><path d="M979.279,1640.119a1.943,1.943,0,1,0,1.925-1.957A1.943,1.943,0,0,0,979.279,1640.119Z" fill="#231f20"/><path d="M971.586,1640.179a1.943,1.943,0,1,0,1.928-1.956A1.941,1.941,0,0,0,971.586,1640.179Z" fill="#231f20"/><path d="M987.156,1633.25a1.943,1.943,0,1,0,1.926-1.96A1.944,1.944,0,0,0,987.156,1633.25Z" fill="#231f20"/><path d="M979.226,1633.311a1.941,1.941,0,1,0,1.924-1.96A1.938,1.938,0,0,0,979.226,1633.311Z" fill="#231f20"/><path d="M983.219,1626.568a1.942,1.942,0,1,0,1.927-1.959A1.939,1.939,0,0,0,983.219,1626.568Z" fill="#231f20"/><path d="M1056.971,1779.16a4.179,4.179,0,0,0-3.706-.229,2.984,2.984,0,0,1-2.677-.071c-.782-.536-.9-1.186-.98-2.232a3.623,3.623,0,0,0-1.563-3.212,4.186,4.186,0,0,0-3.706-.229,2.981,2.981,0,0,1-2.675-.068c-.782-.54-.9-1.187-.978-2.234a3.6,3.6,0,0,0-1.564-3.208,4.164,4.164,0,0,0-3.7-.229,3,3,0,0,1-2.678-.068c-.8-.543-.9-1.189-.976-2.234a3.687,3.687,0,0,0-1.56-3.209,4.174,4.174,0,0,0-3.7-.226,2.994,2.994,0,0,1-2.677-.072l-.69,1.076a4.17,4.17,0,0,0,3.7.228,2.987,2.987,0,0,1,2.675.068c.8.543.9,1.188.977,2.234a3.58,3.58,0,0,0,1.56,3.208,4.178,4.178,0,0,0,3.7.227,3.007,3.007,0,0,1,2.677.07c.813.541.9,1.188.978,2.234a3.667,3.667,0,0,0,1.562,3.209,4.174,4.174,0,0,0,3.7.227,2.994,2.994,0,0,1,2.677.071c.792.531.9,1.188.982,2.235a3.582,3.582,0,0,0,1.56,3.208,4.183,4.183,0,0,0,3.707.231,2.99,2.99,0,0,1,2.678.071Z" fill="url(#a)"/><path d="M1204.225,1621.167l-18.18-3.571,11.384-9.9Z" fill="#231f20"/><g opacity="0.55"><path d="M1181.138,1612.447a6.053,6.053,0,1,1,1.005,8.5A6.061,6.061,0,0,1,1181.138,1612.447Zm9.111,7.186a5.549,5.549,0,1,0-7.792.919A5.557,5.557,0,0,0,1190.249,1619.633Z" fill="url(#b)"/><path d="M1166.923,1606.86a10.465,10.465,0,1,1,1.737,14.7A10.478,10.478,0,0,1,1166.923,1606.86Zm16.04,12.644a9.96,9.96,0,1,0-13.989,1.656A9.972,9.972,0,0,0,1182.963,1619.5Z" fill="url(#c)"/></g><path d="M959.6,1655.93a3.131,3.131,0,0,1-2.7.661,2.237,2.237,0,0,0-1.959.407c-.527.491-.5,1-.424,1.774a2.73,2.73,0,0,1-.724,2.571,3.118,3.118,0,0,1-2.7.659,2.241,2.241,0,0,0-1.96.408c-.526.49-.5.995-.423,1.775a2.724,2.724,0,0,1-.723,2.569,3.119,3.119,0,0,1-2.7.661,2.242,2.242,0,0,0-1.962.407c-.524.488-.5.991-.422,1.772a2.724,2.724,0,0,1-.72,2.569,3.131,3.131,0,0,1-2.7.66,2.224,2.224,0,0,0-1.96.408l-.651-.7a3.126,3.126,0,0,1,2.7-.659,2.24,2.24,0,0,0,1.959-.407c.525-.488.5-.99.422-1.772a2.719,2.719,0,0,1,.721-2.57,3.121,3.121,0,0,1,2.7-.66,2.237,2.237,0,0,0,1.961-.407c.522-.49.5-.991.423-1.774a2.728,2.728,0,0,1,.722-2.57,3.118,3.118,0,0,1,2.7-.659,2.23,2.23,0,0,0,1.96-.409c.526-.49.508-.993.425-1.772a2.743,2.743,0,0,1,.723-2.572,3.133,3.133,0,0,1,2.7-.66,2.233,2.233,0,0,0,1.961-.409Z" fill="#fff"/></g></g></svg>