<svg xmlns="http://www.w3.org/2000/svg" width="52.101" height="42.226" viewBox="0 0 52.101 42.226"><g transform="translate(-1252.63 -1701.609)"><path d="M1252.63,1705.8a4.192,4.192,0,0,1,7.157-2.963l19.885,19.884-19.885,19.885a4.192,4.192,0,0,1-5.931-5.927l13.958-13.958-13.957-13.955A4.187,4.187,0,0,1,1252.63,1705.8Z" fill="#061c43"/><path d="M1277.689,1705.8a4.192,4.192,0,0,1,7.157-2.963l19.885,19.884-19.885,19.885a4.192,4.192,0,1,1-5.93-5.928l13.959-13.956-13.96-13.957A4.192,4.192,0,0,1,1277.689,1705.8Z" fill="#061c43"/></g></svg>