<svg xmlns="http://www.w3.org/2000/svg" xmlns:xlink="http://www.w3.org/1999/xlink" width="215" height="177" viewBox="0 0 215 177"><defs><clipPath id="a"><rect width="215" height="177" transform="translate(915 1881)" fill="#fff"/></clipPath></defs><g transform="translate(-915 -1881)" clip-path="url(#a)"><g transform="translate(0.249 0.103)"><path d="M1035.309,2096.12c.173-9.874.46-18.864,1.826-25.007,2.232-10.024,7.307-24.473,10.093-32.4,1.3-3.712,2.2-6.125,2.238-6.24l0,0c3.67,24.769,4.239,36.63,5.553,44.577.593,3.587,3.948,7.465,6.154,10.45,1.391-.81,3.852-1.926,5.306-2.653,1.326-.663,6.632-3.316,7.958-4.643-.717-1.36-3.236-5.107-3.278-6.561-.414-14.247-.517-36.7.287-43.35.215-1.773.373-3.392.491-4.88a87.824,87.824,0,0,0,.088-12.853c-.112-2.042-.226-3.9-.195-5.912.022-1.49-5.521.962-5.683-.807-1.192-12.937-32.794-8.669-32.794-8.669-1.97,14.134-12.264,66.9-13.31,72.266-.75,3.836-.349,15.461.01,28.674C1025.243,2097.321,1030.306,2097.523,1035.309,2096.12Z" fill="#3b3b4d"/><path d="M1052.893,2026.686l-.005.02a.939.939,0,0,1-.109-.071A1.014,1.014,0,0,1,1052.893,2026.686Z" fill="#1f1f3b" opacity="0.46"/><path d="M1049.468,2033.8l0,.005c-.041.114-3.941,11.189-5.243,14.9l3.717-21.359S1047.886,2028.24,1049.468,2033.8Z" fill="#1f1f3b" opacity="0.54"/><path d="M1072.166,2022.851c-.323-.07-16.688-6.81-18.714-14.12,0,0,14.357.837,18.526,1.272C1072.16,2013.338,1072.3,2020.963,1072.166,2022.851Z" fill="#1f1f3b" opacity="0.35"/><path d="M1064.761,2018.4l.006.019a.764.764,0,0,1-.121-.008A.993.993,0,0,1,1064.761,2018.4Z" fill="#1f1f39" opacity="0.46"/><path d="M986.592,1923.541c2.05-9.458-3.811-6.377-4.053-12.172-.039-.95,5.989-5.35,8.858-2.439s3.756,9.027,3.313,11.846-4.066,3.183-4.995,2.846A9.941,9.941,0,0,0,986.592,1923.541Z" fill="#efaea6"/><path d="M1050.452,2022.549l0,.02a.866.866,0,0,1-.1-.065A.9.9,0,0,1,1050.452,2022.549Z" fill="#1f1f39" opacity="0.46"/><path d="M1045.623,1947.55l-7.406,1.28s-7.2,1.144-5.851-.429c1.8-2.1,1.682-4.321,2.4-5.736a12.139,12.139,0,0,0,.941-3.542,38.4,38.4,0,0,0,.346-4.658l-.094-.586.791-1.661,2.317-4.863s4.844,2.563,5.086,5.847C1044.378,1936.2,1046.025,1944.272,1045.623,1947.55Z" fill="#efaea6"/><path d="M1035.71,1939.123a38.4,38.4,0,0,0,.346-4.658l-.094-.586.791-1.661.842-.319a33.115,33.115,0,0,1,3.01,2.961C1041.5,1936.094,1039.264,1940.121,1035.71,1939.123Z" fill="#1f1f39" opacity="0.14"/><path d="M1044.927,1938.839c-3.137-.742-3.224,4.559-6.34,4.942-1.645.2-1.311-.555-2.123-1.308-.5-.464-.972-.987-1.7-.153-14.764,16.972,2.988,57.519,1.141,60.475-1.51,2.417,11.759,7.016,19.877,4.617,11.132-3.291,9.934-15.871,9.51-18.266s-9.342-43.026-9.342-43.026A61.49,61.49,0,0,1,1044.927,1938.839Z" fill="#fff"/><path d="M986.354,1922.233c.062,1.137-1.171,33.814,10.836,37.014,5.311,1.415,23.812,4.154,26.886,6.417,2.339,1.722,4.724,7.218,4.4,10.285-.261,2.467-.586,4.85-.706,6.614-.308,4.53-3.082,23.667,2.554,29.234,3.583,3.538,6.411,3.049,8.382,1.027,3.383-3.469-.751-18.39-.006-33.2.577-11.448-4.838-17.944-4.042-27.418.6-7.168.107-9.888.107-9.888-17.081,7.586-28.49,5.735-32.393,4.522-5.015-1.559-3.084-23.563-4.946-24.893C996.693,1921.426,986.207,1919.511,986.354,1922.233Z" fill="#0267a4"/><path d="M986.354,1922.233c.062,1.137-1.171,33.814,10.836,37.014,5.311,1.415,23.812,4.154,26.886,6.417,2.339,1.722,4.724,7.218,4.4,10.285-.261,2.467-.586,4.85-.706,6.614-.308,4.53-3.082,23.667,2.554,29.234,3.583,3.538,6.411,3.049,8.382,1.027,3.383-3.469-.751-18.39-.006-33.2.577-11.448-4.838-17.944-4.042-27.418.6-7.168.107-9.888.107-9.888-17.081,7.586-28.49,5.735-32.393,4.522-5.015-1.559-3.084-23.563-4.946-24.893C996.693,1921.426,986.207,1919.511,986.354,1922.233Z" fill="#1f1f39" opacity="0.14"/><path d="M1075.134,2014.855c-1.276,5.887-15.932.205-20.452-4.322-3.747-3.754-.323-8.952-3.349-17.941a129.466,129.466,0,0,1-4.837-18.465c-.095-.6-.177-1.184-.245-1.746-.562-4.717-.907-9.825-1.115-14.622-.095-2.18-.162-4.3-.206-6.283-.028-1.274-.047-2.5-.061-3.646-.045-4.256.005-7.544.057-8.991a21.946,21.946,0,0,1,14.521,6.519,11.207,11.207,0,0,1,2.1,3.33c.529,1.176,3.773,6.485,4.3,12.36.638,7.093.748,12.262.995,16.539.271,4.716,1.865,9.078,2.369,16.627C1069.667,2000.992,1075.8,2011.788,1075.134,2014.855Z" fill="#0267a4"/><path d="M1054.2,1953.4c.108,1.871-6.053,21.981-6.723,25.7-.095-.6-1.161-6.151-1.229-6.713-.562-4.717-.907-9.825-1.115-14.622Z" fill="#1f1f39" opacity="0.18"/><path d="M1034.842,1921.025c-1.274,2.587-6.177,6.545-4.369,7.266s-2.7,5.464-.8,6.3c4.594,2.026,11.107,1.231,12.594-.777s3.632-8.425,3.632-8.425Z" fill="#efaea6"/><path d="M1038.625,1925.527c-1.535-.418-1.717-.089-2.55-1s1.5-1.617-.29-2.707-3.852-2.054-3.188-4.333c.96-3.3,3.579-1.669,5.174-.6,1.026.687,2.26-1.637,4.455-.632,1.723.788,1.114,1.731,2.62,2.5.91.466,3.365-.35,4.391,1.381,1.9,3.21-1.4,4.886-.011,8.053,1.617,3.694-6.726,6.831-7.171,5.867-.52-1.125,1.775-3.356,1.186-4.332-.888-1.473-1.472-.455-2.928.12-1.556.614-3.676-.164-1.518-1.691S1040.014,1925.906,1038.625,1925.527Z" fill="#1f1f39"/><path d="M1034.439,1942.457a.3.3,0,0,0,.125-.026l-.005,0-.015.012c-.009.005-.026.021-.04.032a2.294,2.294,0,0,0-.22.226c-.157.181-.317.4-.474.614-.313.44-.618.907-.923,1.376-.608.94-1.216,1.9-1.843,2.841a67.876,67.876,0,0,1-4.028,5.52,44.8,44.8,0,0,1-4.728,4.987,33.5,33.5,0,0,1-5.575,4.083,27.755,27.755,0,0,1-6.39,2.72,27.073,27.073,0,0,1-6.88,1.009,31.373,31.373,0,0,1-6.9-.663c-.566-.113-1.127-.249-1.687-.387l-.418-.111-.209-.055c-.069-.019-.142-.043-.214-.065l-.43-.133c-.142-.046-.288-.086-.426-.143a15.971,15.971,0,0,1-3.2-1.575,21.7,21.7,0,0,1-2.8-2.132,27.692,27.692,0,0,1-2.452-2.479q-1.143-1.306-2.161-2.7t-1.927-2.854c-.6-.973-1.186-1.959-1.737-2.96s-1.081-2.011-1.58-3.035-.989-2.053-1.45-3.093c-.235-.519-.457-1.042-.683-1.564s-.444-1.047-.655-1.574c-1.714-4.211-3.177-8.511-4.469-12.856q-.971-3.259-1.806-6.556-.418-1.647-.8-3.305-.194-.828-.376-1.661c-.121-.557-.239-1.106-.352-1.678a1.042,1.042,0,0,1,2.045-.405l0,.006v.008c.1.534.217,1.087.333,1.631s.236,1.093.36,1.638q.369,1.638.775,3.268.81,3.261,1.746,6.488c1.25,4.3,2.67,8.552,4.33,12.7.205.52.422,1.034.634,1.551s.434,1.028.661,1.537c.446,1.023.916,2.034,1.4,3.036s1,1.99,1.523,2.969,1.089,1.935,1.667,2.879,1.2,1.862,1.838,2.759,1.327,1.757,2.043,2.586a25.729,25.729,0,0,0,2.284,2.338,20.053,20.053,0,0,0,2.558,1.972,14.254,14.254,0,0,0,2.845,1.424c.122.052.249.086.374.127l.377.12c.063.019.124.04.19.059l.2.054.4.107c.533.136,1.067.269,1.605.379a29.685,29.685,0,0,0,6.524.667,25.419,25.419,0,0,0,6.464-.908,26.164,26.164,0,0,0,6.032-2.527,32.039,32.039,0,0,0,5.335-3.86,43.222,43.222,0,0,0,4.591-4.789,65.809,65.809,0,0,0,3.97-5.374c.624-.929,1.232-1.871,1.852-2.818.313-.474.626-.949.969-1.425.174-.238.351-.476.564-.719a3.66,3.66,0,0,1,.374-.375c.041-.033.076-.064.126-.1l.071-.05.085-.051a1.161,1.161,0,0,1,.521-.161.722.722,0,1,1,.069,1.443Z" fill="#252530"/><path d="M1012.947,1921.358a5.092,5.092,0,0,1-.68,2.358,2.661,2.661,0,0,1-2.625,1.022c-2.578-.191-2.767-1.5-6.194-1.452s-10.133,3.467-12.322,3.165c-1.99-.277-51.727,2.65-60.784-.013a4.93,4.93,0,0,1-.785-.294c-.4-.2-.618-.426-.623-.679-.007-.315.006-.786.036-1.387.3-6.25,2.425-26.591,4.526-32.993.419-1.277.838-2,1.241-1.945a14.15,14.15,0,0,1,1.9.527c9.562,3.115,47.957,18.752,54.852,20.526,7.3,1.877,9.9,7.05,11.977,7.482,2.944.609,2.8-.535,7.133.132C1012.938,1918.166,1013.043,1920.441,1012.947,1921.358Z" fill="#454554"/><path d="M1012.267,1923.716a2.661,2.661,0,0,1-2.625,1.022c-2.578-.191-2.767-1.5-6.194-1.452s-10.133,3.467-12.322,3.165c-1.99-.277-51.727,2.65-60.784-.013l.115-.16c.49-.688.98-1.372,1.464-2.05,2.854-3.992,5.55-7.753,7.443-10.4l2.706-3.771a5.128,5.128,0,0,0,2.237,1.774c10.173,5.184,49.624,9.776,56.778,9.508C1007.222,1921.114,1010.9,1922.889,1012.267,1923.716Z" fill="#1f1f39" opacity="0.18"/><path d="M944.574,1910.315c-1.08,7.387-4.969,13.022-9.51,15.111a8.874,8.874,0,0,1-5.269.765c-5.434-.939-8.678-9.676-7.194-19.832s6.282-18.14,11.748-17.41a7.3,7.3,0,0,1,2.29.718h0l.006.005a10.883,10.883,0,0,1,3.3,2.645C943.455,1896.348,945.586,1903.377,944.574,1910.315Z" fill="#1f1f39"/><path d="M940.7,1907.131c-.044.6-.109,1.21-.2,1.811q-.071.477-.157.953a30.488,30.488,0,0,1-1.629,5.746q-.15.381-.309.75a23.149,23.149,0,0,1-2.207,4.067c-1.845,2.662-4.028,4.277-6.128,3.97a4.108,4.108,0,0,1-2.17-1.09,7.169,7.169,0,0,1-1.088-1.286,13.149,13.149,0,0,1-1.525-3.274c-.04-.124-.08-.25-.118-.377a28.382,28.382,0,0,1-.7-11.8c1.2-8.239,5.295-16.128,9.722-15.481C938.3,1891.718,941.25,1899.443,940.7,1907.131Z" fill="#fff"/><path d="M1034.955,1924.024a2.991,2.991,0,0,1-.833,1.449,1.279,1.279,0,0,1-.926.33c-2.58-.155-3.206-1.3-6.633-1.259-3.391.045-10.067,4.5-12.329,4.3-.024,0-.047,0-.071-.008-1.991-.275-51.728,2.651-60.785-.013a4.945,4.945,0,0,1-.782-.292h0c-.4-.2-.618-.426-.623-.678,0-.1,0-.218,0-.351s.006-.261.01-.411c.006-.189.016-.4.026-.626.3-6.25,2.425-26.592,4.527-32.992.419-1.278.838-2,1.241-1.946a13.855,13.855,0,0,1,1.892.523l.011,0c9.562,3.115,47.957,18.752,54.853,20.526,7.3,1.877,10.543,7.984,12.623,8.421,2.757.58,1.416-.1,5.753.569C1035.242,1921.926,1035.194,1923.106,1034.955,1924.024Z" fill="#454554"/><path d="M1034.122,1925.473a1.279,1.279,0,0,1-.926.33c-2.58-.155-3.206-1.3-6.633-1.259-3.391.045-10.067,4.5-12.329,4.3-.024,0-.047,0-.071-.008-1.991-.275-51.728,2.651-60.785-.013.04-.053.078-.106.116-.16q.337-.473.674-.943.4-.556.79-1.106h0l.661-.925,3.119-4.359h0l3.66-5.108v0l2.705-3.77a5.133,5.133,0,0,0,2.237,1.773c10.174,5.185,49.624,9.777,56.78,9.509A21.689,21.689,0,0,1,1034.122,1925.473Z" fill="#1f1f39" opacity="0.18"/><path d="M967.611,1912.7c-1.08,7.386-4.969,13.021-9.51,15.111a8.881,8.881,0,0,1-5.269.765c-5.434-.939-8.678-9.676-7.194-19.832s6.282-18.14,11.748-17.41a7.275,7.275,0,0,1,2.29.718h0l.006,0a10.9,10.9,0,0,1,3.3,2.645C966.492,1898.732,968.623,1905.76,967.611,1912.7Z" fill="#1f1f39"/><path d="M963.54,1911.326a30.362,30.362,0,0,1-1.011,4.482q-.279.914-.609,1.788-.277.74-.588,1.443-.289.663-.608,1.289a16.6,16.6,0,0,1-3.636,4.982c-.018.016-.036.032-.055.047l-.119.1a4.924,4.924,0,0,1-3.8,1.353,3.628,3.628,0,0,1-.886-.251,4.173,4.173,0,0,1-.877-.505,7.282,7.282,0,0,1-1.944-2.358c-.04-.071-.079-.142-.117-.216a18.186,18.186,0,0,1-1.674-5.246,29.764,29.764,0,0,1-.1-9.253c1.2-8.239,5.294-16.128,9.722-15.481S964.744,1903.087,963.54,1911.326Z" fill="#fff"/><path d="M966.015,1907.349c2.984-.646,3.332-1.992,3.637-6.115.631,3.855,1.221,5.3,4.311,5.547-2.6,1.272-3.516,1.732-3.714,6.246C969.309,1908.526,968.7,1908.161,966.015,1907.349Z" fill="#fff"/><path d="M936.825,1929.482c3.908-.481,4.467-1.866,5.192-6.157.507,4.072,1.153,5.616,5.127,6.08-3.466,1.161-4.685,1.582-5.3,6.288C940.987,1930.927,940.226,1930.506,936.825,1929.482Z" fill="#fff"/><path d="M997.545,1920.069c2.068.46,5.544.929,5.664.27s.329-2.937-.51-3-1.049-1.349-2.068-1.468c-.665-.079-1.039.495-1.378.749-.36.269-.989-.21-1.439.389C997.417,1917.542,997.005,1919.949,997.545,1920.069Z" fill="#1f1f39" opacity="0.18"/><path d="M1001.341,1918.527c-.018.466-.024.961-.026,1.451s0,.986.009,1.481q.023,1.484.079,2.971.114,2.973.349,5.943c.313,3.956.778,7.9,1.468,11.8.347,1.948.749,3.883,1.233,5.793.239.956.506,1.9.791,2.842.141.471.295.936.448,1.4l.241.694c.079.231.168.459.251.688a30.4,30.4,0,0,0,2.486,5.242,17.8,17.8,0,0,0,1.663,2.3,11.771,11.771,0,0,0,2.025,1.885,8.993,8.993,0,0,0,2.421,1.223,11.946,11.946,0,0,0,2.721.564,14.784,14.784,0,0,0,2.821-.019,18.554,18.554,0,0,0,2.808-.516,23.267,23.267,0,0,0,5.332-2.192,29.22,29.22,0,0,0,4.764-3.343,35.052,35.052,0,0,0,7.423-9.009,40.383,40.383,0,0,0,4.321-10.912h0a.722.722,0,0,1,1.407.329A41.858,41.858,0,0,1,1042,1950.5a36.681,36.681,0,0,1-7.681,9.492,30.977,30.977,0,0,1-5.009,3.582,25.783,25.783,0,0,1-2.776,1.378,23.458,23.458,0,0,1-2.94,1.029,20.208,20.208,0,0,1-3.081.595,16.5,16.5,0,0,1-3.168.049,13.8,13.8,0,0,1-3.145-.623,11.634,11.634,0,0,1-1.512-.611c-.127-.055-.245-.125-.365-.191l-.36-.2q-.349-.217-.688-.446a13.661,13.661,0,0,1-2.379-2.167,19.557,19.557,0,0,1-1.869-2.538,32.285,32.285,0,0,1-2.7-5.555c-.09-.24-.185-.478-.27-.718l-.258-.721c-.163-.483-.328-.966-.478-1.452-.3-.971-.589-1.947-.844-2.929-.516-1.963-.947-3.942-1.319-5.928-.742-3.974-1.249-7.978-1.6-11.991q-.266-3.01-.409-6.031-.07-1.51-.108-3.025-.018-.758-.023-1.519c0-.51,0-1.014.014-1.548a1.161,1.161,0,0,1,2.32.073v.02Z" fill="#252530"/><path d="M1011.718,1927.735c.05-1.177-3.757-4.415-3.252-5.175.943-1.416,2.739.7,3.992-1.844.976-1.985-2.168-5.941.556-6.19,6.377-.581,8.018,4.464,5.694,9.388-1.806,3.828-.041,7.03-.778,10.53s-7.275-1.515-7.275-1.515A23.9,23.9,0,0,0,1011.718,1927.735Z" fill="#efaea6"/><path d="M1048.581,1941.407c-15.846,9.078-37.381,40.963-29.165-10.369.2-1.234-9.6-4.97-9.991-3.09-16.885,81.213,39.589,32.508,46.561,28.51,2.955-1.694,3.653-12.643-.958-13.431A29.743,29.743,0,0,1,1048.581,1941.407Z" fill="#0267a4"/><path d="M1038.993,1944.753c.328-.193,3.153,6.226,7.332,8.527a10.125,10.125,0,0,0,3.731,1.253,84.85,84.85,0,0,0,14.312.3c-1.027-2.222-1.1-3.283-2.75-5.342-3.608.92-8.891,1.475-10.911,1.138a14.7,14.7,0,0,1-4.182-1.4,24.543,24.543,0,0,1-5.962-4.413c-.774-.754-.834-1.841-1.81-1.935C1037.458,1942.758,1038.572,1945,1038.993,1944.753Z" fill="#1f1f39" opacity="0.18"/><path d="M1037.1,1943.367a1.618,1.618,0,0,1,1.858-1.457c.976.094,1.033.5,1.808,1.251,2.328,2.269,5.835,5.094,10.144,5.814s14.529-4.407,20.865-2.645,7.959,7.627,17.136,9.633,19.361-1.336,22.066-.71,4.326,1.319,4.2,2.4-1.594,2.791-3.558,3.448-18.938.837-23.368-.02c-7.233-1.4-13.122-8.334-17.793-9.02a38.615,38.615,0,0,0-8.009.213c-4.3.4-9.008.964-12.187.6-6.119-.693-10.7-8.129-11.126-7.882a1.666,1.666,0,0,1-1.586.245C1037.011,1945.07,1037.024,1943.979,1037.1,1943.367Z" fill="#f4ad00"/><path d="M997.425,1919.739c2.068.46,5.544.929,5.664.27s.329-2.937-.51-3-1.049-1.348-2.068-1.468c-.665-.078-1.039.495-1.378.749-.36.27-.989-.21-1.439.39C997.3,1917.212,996.885,1919.62,997.425,1919.739Z" fill="#261d1f"/><path d="M938.409,1916.391a23.149,23.149,0,0,1-2.207,4.067c-1.845,2.662-4.028,4.277-6.128,3.97a4.108,4.108,0,0,1-2.17-1.09,5.356,5.356,0,0,0-1.088-1.286,13.149,13.149,0,0,1-1.525-3.274,7.528,7.528,0,0,1,1.238-2.079c1.015-1.319.249-4.99,2.139-5.955l.624-.128,1.977-.4a1.988,1.988,0,0,1,.547.035c.086.013.184.031.294.053h0a11.526,11.526,0,0,1,1.27.353l.06.02a4.322,4.322,0,0,1,1.31.854,14.39,14.39,0,0,1,1.861,2.024A18.042,18.042,0,0,1,938.409,1916.391Z" fill="#8dc9db" opacity="0.9"/><path d="M944.574,1910.315c-1.08,7.387-4.969,13.022-9.51,15.111-4.242-.03-8.95-.22-4.99-1,6.463-1.271,7.438-12.066,7.976-16.295s-1.028-10.619-4.554-17.048l3.143-1.418h0l.006.005c.1.081,1.606,1.265,3.3,2.645C943.455,1896.348,945.586,1903.377,944.574,1910.315Z" fill="#3d3d59" opacity="0.18"/><path d="M936.612,1913.552c-1.568-.6-3.653-1.449-4.408-2.448l.281-.572a3.438,3.438,0,0,1,.955.142A8.956,8.956,0,0,1,936.612,1913.552Z" fill="#1f1f39" opacity="0.1"/><path d="M932.245,1909.52c.988,1.925-2.169,3.645-3,3.776-.5.078-.9-.2.034-1.972.042-.079.19-.279.321-.51h0c.192-.338.351-.741.1-.93a.643.643,0,0,0-.437-.11h0c-.448.029-.962.345-1.154.3-.525-.13-.079-1.142-.253-1.438s0-.231.088-.294c.215-.158.008-.142-.183-.2-.287-.1-.086-.286-.065-.543s-.469-.126-.625-.359.236-.332.608-.887c.47-.7.035-1.1.23-1.838l3.219.41.841,1.914S930.836,1906.772,932.245,1909.52Z" fill="#f5b1b4"/><path d="M929.606,1910.813c.192-.338.351-.741.1-.93a.643.643,0,0,0-.437-.11C930.564,1909.352,931.187,1909.7,929.606,1910.813Z" fill="#1f1f3b" opacity="0.12"/><path d="M940.7,1907.371c-.044.6-.109,1.21-.2,1.811-.047.318-.1.635-.157.953a1.128,1.128,0,0,0-1.046-.209c-1.223.425-1.24,1.812-3.184,2.028-5.74-.542-4.75-3.054-5.432-3.931a.935.935,0,0,1-.143-.886c.168-.358.523-.894.1-1.1-.353-.173-.7-.1-.8.147a.5.5,0,0,1-.687.153c-.3-.281.054-.891-1.764-.891-.33,0,.155-1.29.269-1.537a3.61,3.61,0,0,1,2.892-1.925c2.727-.474,4.206,3.647,4.971,3.931s.855-.284,3.169-.426C940.614,1905.37,940.37,1906.774,940.7,1907.371Z" fill="#f28f00" opacity="0.9"/><path d="M954.317,1915.907l2.526-1.06c-.121-1.207.251-4.109-.068-5.164-.35-1.157-.448-1.081-.448-1.081l-1.682,1.31-.792.616a3.176,3.176,0,0,1,.057,1.3,6.608,6.608,0,0,1-.743,2.236C952.813,1914.733,954.317,1915.907,954.317,1915.907Z" fill="#efaea6"/><path d="M953.853,1910.528a4.385,4.385,0,0,1,.039,1.422c1.715.547,2.525-.81,2.06-1.222a11.959,11.959,0,0,0-1.307-.816Z" fill="#1f1f39" opacity="0.14"/><path d="M953.367,1906.182c-.156,1-1.386,2.856-.7,2.9s-.333,2.119.391,2.2c1.754.182,3.856-.786,4.145-1.619a16.654,16.654,0,0,0,.336-3.211Z" fill="#efaea6"/><path d="M955.01,1907.439c-.47-.3-.487,0-.862-.219s.336-.7-.38-.875-1.117-.364-1.057-1.2a.907.907,0,0,1,1.142-.867c.416.119.4-.642,1.24-.634.665.006.823.492,1.424.751.329.142,1.2-.171,1.721.3.975.87-.09,1.422.708,2.333.93,1.061-1.56,2.867-1.925,2.936-.136.026-.459-.29-.113-.79.179-.259.34-.856.19-.987-.264-.233-.724-.839-.931-.074-.147.543-.037,2.47-.215,2.615-.458.373-3.139.989-3.139.3,0-.855,2.186.036,2.129-.844-.043-.672-1.972-.132-2.11-.677-.16-.63,2.291.322,2.481-.241A2.03,2.03,0,0,0,955.01,1907.439Z" fill="#1f1f39"/><path d="M957.088,1925.31c0,.159,0,.317.007.474-.022-.141-.043-.283-.062-.427l-.119.1a4.924,4.924,0,0,1-3.8,1.353,3.628,3.628,0,0,1-.886-.251,4.173,4.173,0,0,1-.877-.505c.11-1.947.24-3.992.389-5.878h0c.273-3.47.609-6.4.995-7.188a.51.51,0,0,1,.127-.178.127.127,0,0,1,.072-.029,4.924,4.924,0,0,1,.785-.048.291.291,0,0,1,.155.079c.259.268.227.75.808.732.818-.026,1.332-1,2.2-1.092a1.266,1.266,0,0,1,.478.037c.067.017.133.036.2.057l.027.009a7.082,7.082,0,0,1,2.025,1.129s.261,1.543.639,3.784l.162.959c.1.6.209,1.239.32,1.9A16.6,16.6,0,0,1,957.088,1925.31Z" fill="#fff"/><path d="M961.92,1917.6q-.277.74-.588,1.443-.289.663-.608,1.289a16.6,16.6,0,0,1-3.636,4.982c0,.159,0,.317.007.474-.022-.141-.043-.283-.062-.427-.007-.049-.014-.1-.019-.148a13.471,13.471,0,0,1-.107-1.665c0-.163,0-.318-.01-.468-.07-1.444-.438-2.359-.417-3.621,0-.17.008-.34.016-.508.005-.117.011-.233.019-.349.011-.19.027-.379.044-.565.009-.094.018-.187.028-.28s.02-.186.031-.277.021-.184.033-.274c.023-.173.046-.344.071-.513.015-.1.03-.194.045-.289q.039-.244.081-.48c.061-.347.125-.679.19-.992.012-.062.025-.123.037-.183s.031-.146.046-.216.03-.14.046-.208.029-.135.043-.2c.011-.047.021-.093.032-.138.047-.209.091-.4.13-.577.006-.026.011-.052.018-.078.018-.078.034-.152.049-.221.041-.187.074-.346.1-.471.006-.032.011-.061.015-.089l0-.026a16.435,16.435,0,0,1,4.169,2.533,7.275,7.275,0,0,1,.8.754Q962.25,1916.721,961.92,1917.6Z" fill="#4d4d5b"/><path d="M952.129,1920.66c0-.031,0-.062,0-.092.026-.953.1-2.045.261-3.61l.58-4.15h-.006c-.036,0-.071,0-.107,0-2.678.115-4.208,2.616-5.246,5.425a18.186,18.186,0,0,0,1.674,5.246c.038.074.077.145.117.216a7.282,7.282,0,0,0,1.944,2.358,4.173,4.173,0,0,0,.877.505c-.029-.317-.045-.618-.045-.9,0-2.165-.077-3.352-.055-4.776C952.125,1920.811,952.127,1920.736,952.129,1920.66Z" fill="#4d4d5b"/><path d="M960.4,1918.428a3.435,3.435,0,0,1,.928.611q-.289.663-.608,1.289a16.6,16.6,0,0,1-3.636,4.982c0-.106.005-.212.012-.318a6.488,6.488,0,0,1,.292-1.59,13.887,13.887,0,0,0,.586-3.671c.006-.158.01-.315.012-.472h0a1.671,1.671,0,0,1,1.763-1.013A2.321,2.321,0,0,1,960.4,1918.428Z" fill="#1f1f39" opacity="0.16"/><path d="M956.48,1919.455c-.021,1.262.347,2.177.416,3.621.205-.509,1.248-3.157,1.1-3.817a4.163,4.163,0,0,1,.972-3.352c.879-.687-.5-1.954-1.408-3.386A38.131,38.131,0,0,0,956.48,1919.455Z" fill="#1f1f39" opacity="0.77"/><path d="M961.92,1917.6q-.277.74-.588,1.443-.289.663-.608,1.289a16.6,16.6,0,0,1-3.636,4.982c0,.159,0,.317.007.474-.022-.141-.043-.283-.062-.427l-.119.1c.033-.083.067-.166.1-.25s.057-.144.086-.217c.928-2.348,1.858-4.983,2.643-6.724l.01-.023a2.906,2.906,0,0,1,.489-.776C960.794,1916.874,961.392,1917.081,961.92,1917.6Z" fill="#4d4d5b"/><path d="M950.884,1915.4c.382.726,1.186,2.135.648,2.956-.525.8.534,2.443.592,2.533.015-1.041.081-2.2.267-3.968l.574-4.109C952.248,1913.362,950.507,1914.682,950.884,1915.4Z" fill="#1f1f39" opacity="0.77"/><path d="M967.611,1912.7c-1.08,7.386-4.969,13.021-9.51,15.111-4.242-.03-8.95-.22-4.99-1,6.463-1.271,7.438-12.066,7.976-16.3s-1.028-10.619-4.554-17.048l3.143-1.418h0l.006,0c.1.082,1.607,1.266,3.3,2.645C966.492,1898.732,968.623,1905.76,967.611,1912.7Z" fill="#3d3d59" opacity="0.18"/></g></g></svg>