
              <svg xmlns="http://www.w3.org/2000/svg" xmlns:xlink="http://www.w3.org/1999/xlink" width="604.517"
                height="459.47" viewBox="0 0 604.517 459.47">
                <defs>
                  <linearGradient id="linear-gradient" x1="0.333" y1="-0.22" x2="0.375" y2="0.974"
                    gradientUnits="objectBoundingBox">
                    <stop offset="0" stop-color="#758eb7" />
                    <stop offset="1" stop-color="#a6cad1" />
                  </linearGradient>
                  <linearGradient id="linear-gradient-2" x1="0.457" y1="-43.51" x2="1.457" y2="-43.51"
                    gradientUnits="objectBoundingBox">
                    <stop offset="0" stop-color="#758eb7" />
                    <stop offset="0.268" stop-color="#7891b8" />
                    <stop offset="0.52" stop-color="#819dbd" />
                    <stop offset="0.763" stop-color="#90afc5" />
                    <stop offset="1" stop-color="#a6cad1" />
                  </linearGradient>
                  <linearGradient id="linear-gradient-3" x1="0.093" y1="-42.198" x2="1.093" y2="-42.198"
                    xlink:href="#linear-gradient-2" />
                  <linearGradient id="linear-gradient-4" x1="0" y1="-42.029" x2="1" y2="-42.029"
                    xlink:href="#linear-gradient-2" />
                  <linearGradient id="linear-gradient-5" x1="0.653" y1="0.16" x2="0.691" y2="1.262"
                    xlink:href="#linear-gradient" />
                  <linearGradient id="linear-gradient-6" x1="2.08" y1="-37.261" x2="3.08" y2="-37.261"
                    xlink:href="#linear-gradient-2" />
                  <linearGradient id="linear-gradient-7" x1="0.692" y1="-37.009" x2="1.692" y2="-37.009"
                    xlink:href="#linear-gradient-2" />
                  <linearGradient id="linear-gradient-8" x1="0.672" y1="-37.002" x2="1.672" y2="-37.002"
                    xlink:href="#linear-gradient-2" />
                  <linearGradient id="linear-gradient-9" y1="0.5" x2="1" y2="0.5" gradientUnits="objectBoundingBox">
                    <stop offset="0" stop-color="#1e2f97" />
                    <stop offset="1" stop-color="#4adfde" />
                  </linearGradient>
                  <linearGradient id="linear-gradient-11" x1="21.088" y1="9.734" x2="22.087" y2="9.734"
                    gradientUnits="objectBoundingBox">
                    <stop offset="0" stop-color="#a6cad1" />
                    <stop offset="0.09" stop-color="#98baca" />
                    <stop offset="0.239" stop-color="#88a6c1" />
                    <stop offset="0.411" stop-color="#7d98bb" />
                    <stop offset="0.624" stop-color="#7690b8" />
                    <stop offset="1" stop-color="#758eb7" />
                  </linearGradient>
                  <linearGradient id="linear-gradient-12" x1="0" y1="0.5" x2="1" y2="0.5"
                    xlink:href="#linear-gradient-2" />
                </defs>
                <g id="illus-delivering" transform="translate(-90.869 -995.105)">
                  <g id="Group_3965" data-name="Group 3965">
                    <g id="Group_3964" data-name="Group 3964">
                      <path id="Path_5200" data-name="Path 5200"
                        d="M433.319,1053.948l-4.149,2.373-26.65-37.542-42.069,70.269,29.837,52.159,81.9-.645-18.853-42,4.149-2.373-14.146-19.915Z"
                        fill="#d9e0e9" />
                      <path id="Path_5201" data-name="Path 5201"
                        d="M470.9,1060.47a26.809,26.809,0,0,1-7.793,35.171l-26.476-46.282A26.81,26.81,0,0,1,470.9,1060.47Z"
                        fill="#2d87c1" />
                      <path id="Path_5202" data-name="Path 5202"
                        d="M470.9,1060.47a26.809,26.809,0,0,1-7.793,35.171l-5.5-9.621a26.859,26.859,0,0,0,10.054-30.056A26.99,26.99,0,0,1,470.9,1060.47Z"
                        fill="#226b8e" opacity="0.49" />
                      <path id="Path_5203" data-name="Path 5203"
                        d="M348.04,1130.762l43.448,75.952a12.764,12.764,0,1,0,22.159-12.676L370.2,1118.086Z"
                        fill="#d9e0e9" />
                      <path id="Path_5204" data-name="Path 5204"
                        d="M390,1152.706c-10.572,11.389-22.927,11.335-22.927,11.335l-10.741-18.777,23.182-10.888Z"
                        fill="#2d87c1" opacity="0.49" />
                      <path id="Path_5205" data-name="Path 5205"
                        d="M344.791,1098.007a30.045,30.045,0,0,0,29.838,52.159l15.659-8.958-29.837-52.159Z"
                        fill="#2d87c1" />
                      <path id="Path_5206" data-name="Path 5206"
                        d="M456.055,1097.014l-2.718,1.555,18.853,42-81.911.621-15.666,8.961a30.017,30.017,0,0,1-40.988-11.158,17.879,17.879,0,0,1-.936-1.886c19.7,16.6,46.255-15.732,46.255-15.732s33.452,2.8,72.954-28.726C451.9,1092.651,453.427,1094.245,456.055,1097.014Z"
                        fill="#226b8e" opacity="0.49" />
                      <path id="Path_5207" data-name="Path 5207"
                        d="M405.743,1005.743a9.272,9.272,0,0,0-3.444,12.651l70.108,122.556a9.271,9.271,0,1,0,16.1-9.207l-70.108-122.556A9.27,9.27,0,0,0,405.743,1005.743Z"
                        fill="#596584" />
                      <g id="Group_3963" data-name="Group 3963">
                        <g id="Group_3962" data-name="Group 3962">
                          <g id="Group_3959" data-name="Group 3959">
                            <path id="Path_5208" data-name="Path 5208"
                              d="M457.544,1042.652h0a2.7,2.7,0,0,1-1.883-3.319l11.656-42.247a2.7,2.7,0,0,1,3.318-1.883h0a2.7,2.7,0,0,1,1.884,3.318l-11.657,42.247A2.7,2.7,0,0,1,457.544,1042.652Z"
                              fill="#f3a8a5" />
                          </g>
                          <g id="Group_3960" data-name="Group 3960">
                            <path id="Path_5209" data-name="Path 5209"
                              d="M508.577,1038.315l-38.116,21.631a2.7,2.7,0,0,1-3.678-1.014h0a2.7,2.7,0,0,1,1.014-3.678l38.117-21.631a2.7,2.7,0,0,1,3.678,1.014h0A2.7,2.7,0,0,1,508.577,1038.315Z"
                              fill="#f3a8a5" />
                          </g>
                          <g id="Group_3961" data-name="Group 3961">
                            <path id="Path_5210" data-name="Path 5210"
                              d="M519.967,1089.859,477.72,1078.2a2.7,2.7,0,0,1-1.883-3.318h0a2.7,2.7,0,0,1,3.318-1.883l42.247,11.656a2.7,2.7,0,0,1,1.884,3.318h0A2.7,2.7,0,0,1,519.967,1089.859Z"
                              fill="#f3a8a5" />
                          </g>
                        </g>
                      </g>
                    </g>
                  </g>
                  <ellipse id="Ellipse_80" data-name="Ellipse 80" cx="257.467" cy="13.276" rx="257.467" ry="13.276"
                    transform="translate(145.001 1407.356)" fill="#e6e7e8"
                    style="mix-blend-mode: multiply;isolation: isolate" />
                  <ellipse id="Ellipse_81" data-name="Ellipse 81" cx="94.73" cy="10.505" rx="94.73" ry="10.505"
                    transform="translate(90.869 1378.096)" fill="#e6e7e8"
                    style="mix-blend-mode: multiply;isolation: isolate" />
                  <g id="Group_3975" data-name="Group 3975">
                    <g id="Group_3966" data-name="Group 3966">
                      <path id="Path_5211" data-name="Path 5211"
                        d="M212.6,1117.319,198,1154.582a3.349,3.349,0,0,1-4.248,1.941l-37.72-13.367,14.581-37.285a3.349,3.349,0,0,1,4.249-1.94Z"
                        fill="url(#linear-gradient)" />
                      <rect id="Rectangle_971" data-name="Rectangle 971" width="50.299" height="56.603" rx="3.518"
                        transform="matrix(0.91, -0.416, 0.416, 0.91, 153.527, 1123.366)" fill="#fff" />
                      <path id="Path_5212" data-name="Path 5212"
                        d="M212.6,1117.319l14.585,31.926a6.454,6.454,0,0,1-3.188,8.55L179.17,1178.27a6.45,6.45,0,0,1-8.549-3.188l-14.585-31.926,37.72,13.367a3.349,3.349,0,0,0,4.248-1.941Z"
                        fill="#f7b97b" />
                      <rect id="Rectangle_972" data-name="Rectangle 972" width="10.892" height="3.812" rx="0.96"
                        transform="translate(163.942 1128.925) rotate(-24.552)" fill="url(#linear-gradient-2)" />
                      <rect id="Rectangle_973" data-name="Rectangle 973" width="31.865" height="3.812" rx="0.96"
                        transform="matrix(0.91, -0.416, 0.416, 0.91, 166.907, 1135.415)"
                        fill="url(#linear-gradient-3)" />
                      <rect id="Rectangle_974" data-name="Rectangle 974" width="31.865" height="3.812" rx="0.96"
                        transform="translate(169.872 1141.905) rotate(-24.552)" fill="url(#linear-gradient-4)" />
                    </g>
                    <g id="Group_3967" data-name="Group 3967">
                      <path id="Path_5213" data-name="Path 5213"
                        d="M251.332,1080.914l-26.166,30.279a3.347,3.347,0,0,1-4.652.415L189.4,1086.446l26.163-30.3a3.349,3.349,0,0,1,4.653-.415Z"
                        fill="url(#linear-gradient-5)" />
                      <rect id="Rectangle_975" data-name="Rectangle 975" width="50.299" height="56.603" rx="3.518"
                        transform="translate(193.62 1066.95) rotate(-5.104)" fill="#fff" />
                      <path id="Path_5214" data-name="Path 5214"
                        d="M251.332,1080.914l3.122,34.961a6.452,6.452,0,0,1-5.852,7l-49.082,4.384a6.452,6.452,0,0,1-7-5.852l-3.122-34.961,31.117,25.162a3.347,3.347,0,0,0,4.652-.415Z"
                        fill="#f7b97b" />
                      <rect id="Rectangle_976" data-name="Rectangle 976" width="10.892" height="3.812" rx="0.96"
                        transform="matrix(0.996, -0.089, 0.089, 0.996, 201.59, 1075.659)"
                        fill="url(#linear-gradient-6)" />
                      <rect id="Rectangle_977" data-name="Rectangle 977" width="31.865" height="3.812" rx="0.96"
                        transform="translate(202.225 1082.766) rotate(-5.104)" fill="url(#linear-gradient-7)" />
                      <rect id="Rectangle_978" data-name="Rectangle 978" width="31.865" height="3.812" rx="0.96"
                        transform="translate(202.86 1089.873) rotate(-5.104)" fill="url(#linear-gradient-8)" />
                    </g>
                    <g id="Group_3969" data-name="Group 3969">
                      <g id="Group_3968" data-name="Group 3968">
                        <path id="Rectangle_979" data-name="Rectangle 979"
                          d="M29.863,0h139.68a26.888,26.888,0,0,1,26.888,26.888v88.177a27.775,27.775,0,0,1-27.775,27.775H29.863A29.863,29.863,0,0,1,0,112.977V29.863A29.863,29.863,0,0,1,29.863,0Z"
                          transform="translate(259.469 1195.302) rotate(90)" fill="#fff" />
                        <ellipse id="Ellipse_82" data-name="Ellipse 82" cx="6.092" cy="4.31" rx="6.092" ry="4.31"
                          transform="translate(180.848 1377.295)" fill="#8190c7" />
                      </g>
                      <rect id="Rectangle_980" data-name="Rectangle 980" width="126.869" height="171.25" rx="8.71"
                        transform="translate(124.553 1201.74)" fill="#64a5c7" />
                    </g>
                    <rect id="Rectangle_981" data-name="Rectangle 981" width="65.759" height="6.048" rx="0.467"
                      transform="translate(142.791 1227.968)" fill="#fff" />
                    <g id="Group_3970" data-name="Group 3970">
                      <rect id="Rectangle_982" data-name="Rectangle 982" width="17.62" height="16.125" rx="1.245"
                        transform="translate(142.791 1287.961)" fill="#fff" />
                      <rect id="Rectangle_983" data-name="Rectangle 983" width="25.098" height="6.048" rx="0.467"
                        transform="translate(170.832 1287.961)" fill="#fff" />
                      <rect id="Rectangle_984" data-name="Rectangle 984" width="55.275" height="6.048" rx="0.467"
                        transform="translate(170.832 1297.308)" fill="#fff" />
                      <rect id="Rectangle_985" data-name="Rectangle 985" width="55.275" height="6.048" rx="0.467"
                        transform="translate(170.832 1306.655)" fill="#fff" />
                    </g>
                    <g id="Group_3971" data-name="Group 3971">
                      <rect id="Rectangle_986" data-name="Rectangle 986" width="17.62" height="16.125" rx="1.245"
                        transform="translate(142.791 1323.746)" fill="#fff" />
                      <rect id="Rectangle_987" data-name="Rectangle 987" width="25.098" height="6.048" rx="0.467"
                        transform="translate(170.832 1323.746)" fill="#fff" />
                      <rect id="Rectangle_988" data-name="Rectangle 988" width="55.275" height="6.048" rx="0.467"
                        transform="translate(170.832 1333.094)" fill="#fff" />
                      <rect id="Rectangle_989" data-name="Rectangle 989" width="55.275" height="6.048" rx="0.467"
                        transform="translate(170.832 1342.44)" fill="#fff" />
                    </g>
                    <g id="Group_3972" data-name="Group 3972">
                      <path id="Path_5215" data-name="Path 5215"
                        d="M150.264,1302.8a1.66,1.66,0,0,1-1.2-.51l-3.6-3.75a1.662,1.662,0,0,1,2.4-2.3l2.235,2.327,5.106-6.934a1.661,1.661,0,1,1,2.675,1.97l-6.275,8.523a1.665,1.665,0,0,1-1.229.674Z"
                        fill="url(#linear-gradient-9)" />
                    </g>
                    <g id="Group_3974" data-name="Group 3974">
                      <rect id="Rectangle_990" data-name="Rectangle 990" width="17.62" height="16.125" rx="1.245"
                        transform="translate(142.791 1252.175)" fill="#fff" />
                      <rect id="Rectangle_991" data-name="Rectangle 991" width="25.098" height="6.048" rx="0.467"
                        transform="translate(170.832 1252.175)" fill="#fff" />
                      <rect id="Rectangle_992" data-name="Rectangle 992" width="55.275" height="6.048" rx="0.467"
                        transform="translate(170.832 1261.522)" fill="#fff" />
                      <rect id="Rectangle_993" data-name="Rectangle 993" width="55.275" height="6.048" rx="0.467"
                        transform="translate(170.832 1270.869)" fill="#fff" />
                      <g id="Group_3973" data-name="Group 3973">
                        <path id="Path_5216" data-name="Path 5216"
                          d="M150.264,1266.16a1.66,1.66,0,0,1-1.2-.51l-3.6-3.749a1.662,1.662,0,0,1,2.4-2.3l2.235,2.327,5.106-6.935a1.661,1.661,0,1,1,2.675,1.97l-6.275,8.524a1.66,1.66,0,0,1-1.229.673C150.336,1266.16,150.3,1266.16,150.264,1266.16Z"
                          fill="url(#linear-gradient-9)" />
                      </g>
                    </g>
                    <path id="Path_5217" data-name="Path 5217"
                      d="M221.541,1391.733h49.422L240.1,1153.092l-18.557,16.692Z" fill="#e6e7e8"
                      style="mix-blend-mode: multiply;isolation: isolate" />
                  </g>
                  <g id="Group_3978" data-name="Group 3978">
                    <g id="Group_3976" data-name="Group 3976">
                      <path id="Path_5218" data-name="Path 5218"
                        d="M201.742,1353.858l6.742,5.366-5.686-.452c9.979,42.412,38.051,68.66,41.5,39.018a50.487,50.487,0,0,0-1.712-19.162l-3.313,2.917,1.643-8.18c-10.69-29.724-41.125-55.527-41.125-55.527A126.969,126.969,0,0,0,201.742,1353.858Z"
                        fill="#ed8b90" />
                      <path id="Path_5219" data-name="Path 5219"
                        d="M239.5,1410l-15.1-37.458c-2.546-6.231-4.953-12.517-7.671-18.689a75.012,75.012,0,0,0-10.205-17.38,74.789,74.789,0,0,1,9.815,17.549c2.579,6.206,4.857,12.546,7.271,18.829l14.31,37.767Z"
                        fill="#fff" />
                    </g>
                    <g id="Group_3977" data-name="Group 3977">
                      <path id="Path_5220" data-name="Path 5220"
                        d="M232.971,1407.479c-1.708-12.959-1.962-33.25-7.654-33.09s-2.7,9.185-6.912,8.576-4.354-6.773-3.71-17.793-8.136-16.475-13.059-14.83,3.57,17.005-.588,20.3-4.42-15.729-14.56-19.111-13.946-1.054-9.587,5.573,6.82,11.411.956,11.891-15.137-4.826-16.342,3.1,12.873,4.436,13.311,11.762-10.911,9.191-10.792,13.5,9.9,6.137,15.551,1.75,10.168-8.806,13.121-4.17-8.032,5.211-9.1,11.112,17.628,2.949,25.067-1.386,6.82.2,3.068,3.5c-6.48,5.706,2.54,5.539,8.633,2.119C226.572,1406.806,233.993,1415.228,232.971,1407.479Z"
                        fill="#f7b97b" />
                      <path id="Path_5221" data-name="Path 5221"
                        d="M223,1394.767a3.758,3.758,0,0,0,.665-1.539c.027-.127.056-.25.086-.369.221-.866.412-1.738.565-2.592a21.5,21.5,0,0,0,.49-5.9.379.379,0,1,0-.755.076,20.865,20.865,0,0,1-.48,5.688c-.15.836-.338,1.691-.555,2.539-.032.125-.061.256-.092.392a3.347,3.347,0,0,1-.448,1.159,60.066,60.066,0,0,0-4.555-4.3c-.006-.007,0-.016-.009-.022s-.022-.005-.03-.012a63.349,63.349,0,0,0-5.334-4.137,50.307,50.307,0,0,0-6.053-3.468,6.5,6.5,0,0,0,1.824-3.133,31.044,31.044,0,0,0,1.15-13.1.379.379,0,0,0-.752.1,30.294,30.294,0,0,1-1.12,12.782,5.336,5.336,0,0,1-1.835,2.983c-.177-.086-.38-.2-.552-.282a103,103,0,0,0-16.648-6.584,20.971,20.971,0,0,0-.081-6.251,21.238,21.238,0,0,0-.65-2.23l-1.152-3.473a.38.38,0,1,0-.721.24l1.152,3.472a20.1,20.1,0,0,1,.628,2.15,19.873,19.873,0,0,1,.08,5.876,51.938,51.938,0,0,0-12.844-1.929.379.379,0,0,0-.014.758h.007a56.734,56.734,0,0,1,19.394,4.056,4.289,4.289,0,0,1-.578,1.273,26.255,26.255,0,0,1-5.106,6.663,17.329,17.329,0,0,1-2.419,1.676,26.3,26.3,0,0,1-7.9,3.06.379.379,0,0,0,.068.75.342.342,0,0,0,.089-.008,27.062,27.062,0,0,0,8.128-3.148,18.2,18.2,0,0,0,2.524-1.75,26.763,26.763,0,0,0,5.263-6.848,5.334,5.334,0,0,0,.631-1.392c3.443,1.331,6.739,2.831,9.819,4.323a55.347,55.347,0,0,1,7.239,4.066,62.416,62.416,0,0,1,4.967,3.827,41.553,41.553,0,0,1-7.447,6.386,17.11,17.11,0,0,1-9.345,2.85,1.138,1.138,0,0,1-.2-.007.379.379,0,0,0-.028.757c.068,0,.138.006.206.008a17.623,17.623,0,0,0,9.772-2.965,42.506,42.506,0,0,0,7.622-6.534c7.276,6.295,12.649,13.908,15.337,21.987a.379.379,0,1,0,.718-.24A49.336,49.336,0,0,0,223,1394.767Z"
                        fill="#fdfdfd" />
                    </g>
                  </g>
                  <g id="Group_3981" data-name="Group 3981">
                    <g id="Group_3979" data-name="Group 3979">
                      <path id="Path_5222" data-name="Path 5222"
                        d="M627.559,1395.72c.375-13.1-1.453-33.362,4.241-33.786s3.638,8.883,7.772,7.844,3.648-7.2,1.875-18.125,6.425-17.264,11.5-16.129-1.817,17.325,2.668,20.182,2.8-16.14,12.561-20.552,13.8-2.481,10.132,4.575-5.631,12.079.267,11.957,14.6-6.366,16.615,1.418-12.383,5.743-12.069,13.094,11.824,8.047,12.147,12.358-9.242,7.135-15.329,3.34-11.043-7.74-13.513-2.813,8.545,4.373,10.212,10.149-17.278,4.748-25.141,1.188-6.781.9-2.7,3.806c7.047,5.026-1.966,5.784-8.393,3C633.873,1394.392,627.335,1403.552,627.559,1395.72Z"
                        fill="url(#linear-gradient-11)" />
                      <path id="Path_5223" data-name="Path 5223"
                        d="M636.2,1382.02a3.752,3.752,0,0,1-.821-1.467c-.04-.124-.081-.244-.124-.36-.309-.841-.589-1.69-.829-2.527a21.518,21.518,0,0,1-1.093-5.832.38.38,0,0,1,.76,0,20.952,20.952,0,0,0,1.062,5.624c.236.818.511,1.652.814,2.475.045.122.087.249.131.381a3.412,3.412,0,0,0,.566,1.111,60.063,60.063,0,0,1,4.1-4.751c.005-.007,0-.017.007-.023s.021-.007.029-.015a63.27,63.27,0,0,1,4.894-4.673,50.377,50.377,0,0,1,5.681-4.079,6.519,6.519,0,0,1-2.14-2.938,31.133,31.133,0,0,1-2.491-12.95.381.381,0,0,1,.761.019,30.359,30.359,0,0,0,2.427,12.632,5.346,5.346,0,0,0,2.136,2.787c.167-.1.359-.237.522-.338a103.2,103.2,0,0,1,15.927-8.273,21.029,21.029,0,0,1-.56-6.243,21.5,21.5,0,0,1,.419-2.29l.794-3.582a.381.381,0,1,1,.743.165l-.793,3.582a15.1,15.1,0,0,0,.117,8.076,52.094,52.094,0,0,1,12.611-3.241.38.38,0,0,1,.092.755h-.007a56.879,56.879,0,0,0-18.925,6.033,4.285,4.285,0,0,0,.707,1.211,26.322,26.322,0,0,0,5.775,6.121,17.341,17.341,0,0,0,2.584,1.424,26.414,26.414,0,0,0,8.193,2.241.38.38,0,1,1-.08.756,27.14,27.14,0,0,1-8.429-2.306,18.2,18.2,0,0,1-2.7-1.486,26.866,26.866,0,0,1-5.95-6.29,5.367,5.367,0,0,1-.772-1.324c-3.3,1.681-6.43,3.514-9.349,5.318a55.443,55.443,0,0,0-6.8,4.8,62.72,62.72,0,0,0-4.561,4.325,41.692,41.692,0,0,0,8.082,5.6,17.155,17.155,0,0,0,9.612,1.885,1.251,1.251,0,0,0,.2-.028.38.38,0,0,1,.106.752c-.068.011-.137.02-.2.029a17.664,17.664,0,0,1-10.049-1.956,42.608,42.608,0,0,1-8.271-5.734c-6.611,7.024-11.189,15.168-13.041,23.5a.379.379,0,1,1-.74-.165A49.425,49.425,0,0,1,636.2,1382.02Z"
                        fill="#fdfdfd" />
                    </g>
                    <g id="Group_3980" data-name="Group 3980">
                      <path id="Path_5224" data-name="Path 5224"
                        d="M626.166,1396.787c9.493-8.365,33.665-16.151,32.14-24.369s-9.317-10.779-17.913-6.472c0,0,2.179-10.384,10.939-13.819s16.6-7.552,15.937-11.042-9.511-4.731-13.854-1.991c0,0-2.586-11.773,6.087-14.893,10.552-3.794,12.966-9.669,9.55-11.5s-19.479-4.43-22.338,7.953-3.848,13.637-3.848,13.637-4.207,1.179-5.226-7.167-8.547-10.481-11.471.571,6.287,14.761,7.153,21.64-3.356,22.184-7.969,11.73-17.815-10.152-13.122,5.335S626.166,1396.787,626.166,1396.787Z"
                        fill="#ed8b90" />
                      <path id="Path_5225" data-name="Path 5225"
                        d="M654.1,1344.512a.543.543,0,0,0-.642-.425l-5.346,1.083a10.3,10.3,0,0,0-4.233,1.547,11.341,11.341,0,0,0-1.595,1.556,7.8,7.8,0,0,1-1.714,1.561c6.039-14.586,12.764-27.389,17.37-31.357a.545.545,0,0,0-.712-.825c-4.326,3.728-10.5,15.128-16.246,28.513l-.05-.189a24.219,24.219,0,0,0-4.787-9.08l-.261-.307a5.29,5.29,0,0,1-1.606-4.914.544.544,0,1,0-1.088-.044,6.311,6.311,0,0,0,1.868,5.665l.256.3a23.161,23.161,0,0,1,4.57,8.669l.13.486c.085.323.171.646.269.964,0,.015.018.023.023.037a259.2,259.2,0,0,0-12.469,36.473,10.953,10.953,0,0,0-2.71-4.981,18.209,18.209,0,0,1-1.91-2.721,17.056,17.056,0,0,1-1.363-4.377l-1.74-8.061a.544.544,0,0,0-1.064.229l1.74,8.061a17.865,17.865,0,0,0,1.465,4.655,18.859,18.859,0,0,0,2.021,2.893c1.16,1.455,2.256,2.83,2.517,4.635a2.063,2.063,0,0,0,.625,1.418,73.164,73.164,0,0,0-1.8,10.771.544.544,0,0,0,.425.57c.025.005.052.009.079.012a.543.543,0,0,0,.581-.5,84.491,84.491,0,0,1,2.646-14.231.536.536,0,0,0,.326-.346,6.988,6.988,0,0,1,4.364-4.16,26.8,26.8,0,0,1,3.863-1.117c.864-.2,1.728-.407,2.575-.663,2.765-.834,4.711-2.141,5.786-3.884a.544.544,0,0,0-.927-.571c-.929,1.51-2.671,2.658-5.174,3.413-.826.25-1.668.448-2.51.646a27.614,27.614,0,0,0-4.02,1.167,9.86,9.86,0,0,0-3.39,2.211,269.336,269.336,0,0,1,9.764-28.09,5.953,5.953,0,0,0,3.085-2.2,10.236,10.236,0,0,1,1.437-1.411,9.444,9.444,0,0,1,3.8-1.352l5.346-1.084A.543.543,0,0,0,654.1,1344.512Z"
                        fill="#fff" />
                    </g>
                  </g>
                  <g id="Group_3984" data-name="Group 3984">
                    <g id="Group_3982" data-name="Group 3982">
                      <path id="Path_5226" data-name="Path 5226"
                        d="M580.548,1412.948H226.014l12.967-11.33a1.575,1.575,0,0,1,1.074-.4H566.506a1.572,1.572,0,0,1,1.074.4Z"
                        fill="#98a4d2" />
                      <path id="Path_5227" data-name="Path 5227"
                        d="M591.234,1412.948v9.934a1.647,1.647,0,0,1-1.638,1.8H216.966a1.647,1.647,0,0,1-1.638-1.8v-9.934Z"
                        fill="url(#linear-gradient-12)" />
                      <path id="Path_5228" data-name="Path 5228"
                        d="M589.588,1414.844H216.972a1.644,1.644,0,0,1-1.083-2.882l23.087-20.184a1.649,1.649,0,0,1,1.082-.406H566.5a1.649,1.649,0,0,1,1.082.406l23.087,20.184A1.644,1.644,0,0,1,589.588,1414.844Z"
                        fill="#e4e5e9" />
                      <path id="Path_5229" data-name="Path 5229"
                        d="M477.586,1410.017h-139.7a.616.616,0,0,1-.4-1.081l8.655-7.567a.618.618,0,0,1,.406-.152H468.931a.62.62,0,0,1,.406.152l8.655,7.567A.617.617,0,0,1,477.586,1410.017Z"
                        fill="url(#linear-gradient-12)" />
                    </g>
                    <g id="Group_3983" data-name="Group 3983">
                      <rect id="Rectangle_994" data-name="Rectangle 994" width="327.678" height="238.281" rx="2.088"
                        transform="translate(239.441 1153.092)" fill="#fff" />
                      <rect id="Rectangle_995" data-name="Rectangle 995" width="300.829" height="199.483"
                        transform="translate(252.865 1166.517)" fill="#64a5c7" />
                      <path id="Path_5230" data-name="Path 5230"
                        d="M407.4,1377.183c0,3.336-2.7,3.944-6.041,3.944s-6.041-.608-6.041-3.944,2.7-4.224,6.041-4.224S407.4,1373.847,407.4,1377.183Z"
                        fill="#8190c7" />
                    </g>
                    <path id="Path_5231" data-name="Path 5231"
                      d="M299.39,1295.039a2.3,2.3,0,1,0,0-4.6H285.913a2.3,2.3,0,0,0-2.284,2.015l-1.167,9.306h-5.455l2.766-20.69.294.013a115.911,115.911,0,0,0,.188-26.6l11.809-14.048a13.421,13.421,0,0,0,2.666-5.075l3.263-10.787c.676-.654,2.927-3.02,1.573-4.348-1.583-1.552-3.171.766-3.171.766s.4-.718-.507-.947c-.628-.157-.74,2.041-.749,3.421l-4.809,13.161-11.116,10.127-6.5,2.166-.186-1.023c.743-1.3,1.9-4.343-.107-8.594l-.048.369c-.062-.3-.126-.613-.2-.932,0,0-1.071-4.283-1.071-2.855s-8.945.647-8.217,6.615a8.114,8.114,0,0,0,3.841,5.928c.311.213.566.4.8.561l.873,1.624c-3.854,2.174-7.994,4.981-8.862,5.575a3.078,3.078,0,0,0-1.276,1.673l-4.394,13.95-.308,18.715a2.3,2.3,0,0,0-1.66,1.929l-12.364,98.609a.655.655,0,0,0,.557.311h-.041a1.654,1.654,0,0,0-.568.1l-4.164,33.207h4.638l1.344-10.715h27.085l-1.344,10.715h4.638l16.256-129.642Zm-26.941-48.357q-.02.252-.048.495l-.046-.253C272.387,1246.843,272.421,1246.766,272.449,1246.682Zm-2.764,47.522a2.288,2.288,0,0,0,.473-1.961l.456-1.892-.241,11.407h-2.508Zm.723,40.993h0v2.43h-8.856c-.3-.946-1.131-1.979-3.219-2.539H258.1l3.272-10.793h8.968Zm-3.653-28.836h3.521l-.033,1.559.071,11.773h-7.545l3.769-12.432Zm-8.286-36.49,3.492-6.077a156.45,156.45,0,0,1,2.739,16.628l.216.01-1.792,10.005h-6.505Zm-2.325,25.768a3.012,3.012,0,0,0,.282-.6H262.3l-1.2,6.719h-5.721Zm-1.345,10.722h5.425l-2.093,13.332h-5Zm-2.248,17.934h4.857l-1.694,10.793h-.125l-.7,2.539h-4.007Zm16.419,85.068H241.885l1.671-13.332h27.085Zm2.248-17.934H244.133L245.8,1378.1H272.89Zm2.249-17.934H246.382l1.671-13.332h27.086Zm2.249-17.934H248.63l1.672-13.332h27.085Zm2.248-17.934h-1.63c-.326-.915-1.174-1.89-3.18-2.429l1.217-10.9h5.265Zm2.249-17.934h-5.328l1.394-12.485.113-.847h5.493Z"
                      fill="#e6e7e8" style="mix-blend-mode: multiply;isolation: isolate" />
                  </g>
                  <g id="Group_4008" data-name="Group 4008">
                    <path id="Path_5232" data-name="Path 5232"
                      d="M507.724,1370.751l13.67,2.619-25.875,30.56c-7.271-3.534-14.543-7.048-21.578-10.39a230.832,230.832,0,0,0-97.548-22.33c-96.513-.635-123.528-1.982-123.528-5.21,0-3.7,49.732-8.03,167.191-8.03s184.854,1.189,184.854,4.889C604.91,1365.573,581.457,1369.694,507.724,1370.751Z"
                      fill="#e6e7e8" style="mix-blend-mode: multiply;isolation: isolate" />
                    <path id="Path_5233" data-name="Path 5233"
                      d="M286.64,1186.933c-6.927,1.422-4.219,39.833-4.219,39.833s0,45.466,18.33,71.883c20.384,29.376,47.431-54.094,46.255-61.542s-37.631-40.767-46.255-45.471S286.64,1186.933,286.64,1186.933Z"
                      fill="#e6e7e8" style="mix-blend-mode: multiply;isolation: isolate" />
                    <path id="Path_5234" data-name="Path 5234"
                      d="M282.421,1226.766c4.608,85.861,28.911,129.6,81.046,121.6s44.712,16.972,44.712,16.972h86.544L484.71,1279.97l-77.36-29.751-77.723,8.085-13.419-7.687Z"
                      fill="#e6e7e8" style="mix-blend-mode: multiply;isolation: isolate" />
                    <path id="Path_5235" data-name="Path 5235"
                      d="M375.344,1316.832s86.12-1.1,97.1-23.052,7.055-46.377-9.408-38.476-68.139,20.575-70.328,23.057-29.237,28.746-29.237,28.746Z"
                      fill="#bcbec0" />
                    <path id="Path_5236" data-name="Path 5236"
                      d="M286.64,1186.933c15.679,0,11.584,26.594,14.111,54.878,5.241,58.632,43.9,105.837,98,63.5s68.206-59.582,68.206-59.582,7.055-52.527-11.76-58.8-147.388,0-147.388,0Z"
                      fill="#fff" />
                    <g id="Group_3988" data-name="Group 3988">
                      <rect id="Rectangle_996" data-name="Rectangle 996" width="30.648" height="30.648"
                        transform="translate(319.542 1203.026)" fill="#fff" />
                      <rect id="Rectangle_997" data-name="Rectangle 997" width="25.589" height="25.589"
                        transform="translate(322.072 1205.556)" fill="#ed8b90" />
                      <g id="Group_3987" data-name="Group 3987">
                        <g id="Group_3986" data-name="Group 3986">
                          <path id="Path_5237" data-name="Path 5237"
                            d="M330.332,1220.351s.456-.609,2.161-.509c.492.029-.476,1.913-.476,1.913l-.6.316Z"
                            fill="#707faf" opacity="0.47" />
                          <path id="Path_5238" data-name="Path 5238"
                            d="M339.374,1220.351s-.456-.609-2.161-.509c-.492.029.476,1.913.476,1.913l.605.316Z"
                            fill="#707faf" opacity="0.47" />
                          <path id="Path_5239" data-name="Path 5239"
                            d="M331.736,1217.265l.07,4.765,3.195,5.416,2.7-5.424V1216.6Z" fill="#f0e3dd" />
                          <path id="Path_5240" data-name="Path 5240"
                            d="M331.736,1220.127c2.616,2.6,3.806,2.446,5.958.023l.127-2.085-6.085.588Z" fill="#8190c7"
                            opacity="0.47" />
                          <path id="Path_5241" data-name="Path 5241"
                            d="M329.7,1212.858a45.785,45.785,0,0,0,1.019,4.668,4.807,4.807,0,0,0,3.955,3.467c1.325,0,3.221-1.528,3.873-3.509a38.135,38.135,0,0,0,1.1-4.626Z"
                            fill="#f0e3dd" />
                          <g id="Group_3985" data-name="Group 3985">
                            <path id="Path_5242" data-name="Path 5242"
                              d="M338.924,1214.344c1.345-.885,1.59-.169,1.264.8s-1.03,2.428-1.473,1.972S338.924,1214.344,338.924,1214.344Z"
                              fill="#f0e3dd" />
                            <path id="Path_5243" data-name="Path 5243"
                              d="M330.142,1214.344c-1.345-.885-1.59-.169-1.264.8s1.03,2.428,1.473,1.972S330.142,1214.344,330.142,1214.344Z"
                              fill="#f0e3dd" />
                          </g>
                          <path id="Path_5244" data-name="Path 5244"
                            d="M329.7,1212.858a20.816,20.816,0,0,0,9.143,1.465,5.651,5.651,0,0,1-3.578-1.465,20.843,20.843,0,0,0,3.761,1.115v2.214a16.648,16.648,0,0,0,1.071-3.919,4.664,4.664,0,0,0-3.815-4.425c-3.005-.633-5.6.378-6.4,1.769,0,0-1.44.709-.7,4.37a6,6,0,0,1,1.328,2.2Z"
                            fill="#8f676f" />
                          <path id="Path_5245" data-name="Path 5245"
                            d="M346.564,1230.816c-.126.109-.251.219-.392.329H334.428c-.032-.376-.063-.768-.1-1.16-.015-.251-.031-.486-.047-.722h-.015c-.063-.909-.11-1.787-.126-2.493-.015-.235-.015-.439-.015-.627a.47.47,0,0,1,.031-.125c.016-.016.031-.032.031-.047a4.724,4.724,0,0,1,.486-.5,15.824,15.824,0,0,1,1.365-1.035v-.016c.015,0,.015-.015.031-.015l.956-1.035.016-.016.659-.721,1.646-1.051.016-.015.015-.016,4.03,2.117a4.726,4.726,0,0,1,2.477,3.371Z"
                            fill="#8f676f" />
                          <path id="Path_5246" data-name="Path 5246"
                            d="M334.867,1225.861v5.284h-11.3c-.141-.11-.283-.235-.408-.345l.659-3.763a4.766,4.766,0,0,1,2.477-3.371l4.045-2.117.016.016,1.646,1.066.439.47.016.016,1.207,1.3.016.016a7.916,7.916,0,0,1,1,1.035A.866.866,0,0,1,334.867,1225.861Z"
                            fill="#8f676f" />
                          <path id="Path_5247" data-name="Path 5247"
                            d="M330.332,1220.266a12.588,12.588,0,0,0,3.335,2.563,12.867,12.867,0,0,1,0,1.6,6.769,6.769,0,0,1-3.335-2.879S330.122,1220.442,330.332,1220.266Z"
                            fill="#fff" />
                          <path id="Path_5248" data-name="Path 5248" d="M326.337,1231.145h-.329l.282-1.913Z"
                            fill="#515b5c" />
                          <path id="Path_5249" data-name="Path 5249"
                            d="M339.374,1220.266a12.588,12.588,0,0,1-3.335,2.563,14.355,14.355,0,0,0,0,1.6,6.769,6.769,0,0,0,3.335-2.879S339.585,1220.442,339.374,1220.266Z"
                            fill="#fff" />
                          <path id="Path_5250" data-name="Path 5250" d="M343.694,1231.145h-.329l.047-1.913Z"
                            fill="#515b5c" />
                          <circle id="Ellipse_83" data-name="Ellipse 83" cx="0.41" cy="0.41" r="0.41"
                            transform="translate(333.714 1225.947)" fill="#fff" />
                          <circle id="Ellipse_84" data-name="Ellipse 84" cx="0.41" cy="0.41" r="0.41"
                            transform="translate(333.714 1229.235)" fill="#fff" />
                        </g>
                      </g>
                    </g>
                    <path id="Path_5251" data-name="Path 5251"
                      d="M375.344,1316.832c79.456-44.7,52.111-70.162,91.9-70.162H579.584c14.935,0,29.921,4.245,32.482,55.943,3.294,66.493,30.889,101.315,30.889,101.315H495.517s-25.037-21.951-29.869-102.127c-2.241-37.187-11.573-42.43-24.088-31.7S399.7,1311.891,375.344,1316.832Z"
                      fill="#fff" />
                    <g id="Group_3990" data-name="Group 3990">
                      <rect id="Rectangle_998" data-name="Rectangle 998" width="46.213" height="3.167" rx="0.14"
                        transform="translate(525.154 1357.415)" fill="#bbc4de" />
                      <rect id="Rectangle_999" data-name="Rectangle 999" width="63.518" height="3.167" rx="0.14"
                        transform="translate(525.154 1367.215)" fill="#bbc4de" />
                      <g id="Group_3989" data-name="Group 3989">
                        <path id="Path_5252" data-name="Path 5252"
                          d="M517.526,1373.358H498.7v-18.824h18.824Zm-16.422-2.4h14.019v-14.019H501.1Z"
                          fill="#bbc4de" />
                      </g>
                      <rect id="Rectangle_1000" data-name="Rectangle 1000" width="5.916" height="5.916"
                        transform="translate(508.114 1359.762) rotate(45)" fill="#f7b97b" />
                    </g>
                    <g id="Group_3991" data-name="Group 3991">
                      <rect id="Rectangle_1001" data-name="Rectangle 1001" width="92.117" height="4.73" rx="0.209"
                        transform="translate(357.195 1205.556)" fill="#bbc4de" />
                      <rect id="Rectangle_1002" data-name="Rectangle 1002" width="69.395" height="4.73" rx="0.209"
                        transform="translate(426.59 1220.43) rotate(180)" fill="#bbc4de" />
                      <rect id="Rectangle_1003" data-name="Rectangle 1003" width="87.035" height="4.73" rx="0.209"
                        transform="translate(444.23 1231.597) rotate(180)" fill="#bbc4de" />
                    </g>
                    <g id="Group_3994" data-name="Group 3994">
                      <circle id="Ellipse_85" data-name="Ellipse 85" cx="23.308" cy="23.308" r="23.308"
                        transform="translate(443.884 1210.595) rotate(-45)" fill="#ed8b90" />
                      <circle id="Ellipse_86" data-name="Ellipse 86" cx="17.074" cy="17.074" r="17.074"
                        transform="translate(459.772 1193.522)" fill="#fff" />
                      <circle id="Ellipse_87" data-name="Ellipse 87" cx="13.114" cy="13.114" r="13.114"
                        transform="translate(463.732 1197.482)" fill="#ed8b90" />
                      <circle id="Ellipse_88" data-name="Ellipse 88" cx="7.442" cy="7.442" r="7.442"
                        transform="translate(466.322 1210.595) rotate(-45)" fill="#fff" />
                      <circle id="Ellipse_89" data-name="Ellipse 89" cx="4.673" cy="4.673" r="4.673"
                        transform="translate(472.173 1205.923)" fill="#ed8b90" />
                      <path id="Path_5253" data-name="Path 5253"
                        d="M475.573,1210.8a1.415,1.415,0,1,0,1.414-1.414A1.415,1.415,0,0,0,475.573,1210.8Z"
                        fill="#fff" />
                      <g id="Group_3993" data-name="Group 3993">
                        <path id="Path_5254" data-name="Path 5254" d="M499,1190.921l.727-3.857,4.709-3.632-.717,3.4Z"
                          fill="#f7b97b" />
                        <path id="Path_5255" data-name="Path 5255" d="M499.645,1191.131h3.925l4.442-3.955h-3.818Z"
                          fill="#f7b97b" />
                        <g id="Group_3992" data-name="Group 3992">
                          <path id="Path_5256" data-name="Path 5256"
                            d="M480.5,1207.459c.154.177.569.07.923-.237l23.146-20.1c.354-.307.518-.7.364-.88s-.569-.07-.923.237l-23.146,20.1C480.511,1206.885,480.348,1207.282,480.5,1207.459Z"
                            fill="#4893b9" />
                        </g>
                        <path id="Path_5257" data-name="Path 5257" d="M476.987,1210.6l2.856-4.627,2.284,2.448Z"
                          fill="#f7b97b" />
                      </g>
                    </g>
                    <g id="Group_3997" data-name="Group 3997">
                      <path id="Path_5258" data-name="Path 5258"
                        d="M314.594,1219.015a13,13,0,0,1-13,12.986,12.389,12.389,0,0,1-2.167-.186V1206.2a12.389,12.389,0,0,1,2.167-.186A13,13,0,0,1,314.594,1219.015Z"
                        fill="#53659a" opacity="0.47" />
                      <circle id="Ellipse_90" data-name="Ellipse 90" cx="13" cy="13" r="13"
                        transform="translate(288.592 1201.85)" fill="#f7b97b" />
                      <g id="Group_3996" data-name="Group 3996">
                        <g id="Group_3995" data-name="Group 3995">
                          <path id="Path_5259" data-name="Path 5259"
                            d="M300.158,1216.052l1.064.268a3.581,3.581,0,0,1-1.2,2,3.317,3.317,0,0,1-2.126.688,3.818,3.818,0,0,1-2.114-.529,3.3,3.3,0,0,1-1.24-1.533,5.461,5.461,0,0,1-.425-2.156,4.741,4.741,0,0,1,.48-2.192,3.284,3.284,0,0,1,1.366-1.42,3.984,3.984,0,0,1,1.95-.486,3.3,3.3,0,0,1,2.029.614,3.193,3.193,0,0,1,1.147,1.728l-1.048.247a2.481,2.481,0,0,0-.812-1.278,2.161,2.161,0,0,0-1.338-.4,2.6,2.6,0,0,0-1.55.444,2.345,2.345,0,0,0-.875,1.193,4.809,4.809,0,0,0-.252,1.544,4.9,4.9,0,0,0,.3,1.792,2.221,2.221,0,0,0,.93,1.143,2.6,2.6,0,0,0,1.366.379,2.289,2.289,0,0,0,1.514-.516A2.64,2.64,0,0,0,300.158,1216.052Z"
                            fill="#fff" />
                          <path id="Path_5260" data-name="Path 5260"
                            d="M304.832,1218.871l-3.116-8.042h1.152l2.09,5.842c.168.469.309.907.422,1.317q.188-.659.434-1.317l2.172-5.842h1.086l-3.149,8.042Z"
                            fill="#fff" />
                        </g>
                      </g>
                    </g>
                    <g id="Group_3998" data-name="Group 3998">
                      <rect id="Rectangle_1004" data-name="Rectangle 1004" width="92.117" height="4.73" rx="0.209"
                        transform="translate(326.008 1242.795)" fill="#bbc4de" />
                      <rect id="Rectangle_1005" data-name="Rectangle 1005" width="69.395" height="4.73" rx="0.209"
                        transform="translate(400.107 1257.669) rotate(180)" fill="#bbc4de" />
                      <rect id="Rectangle_1006" data-name="Rectangle 1006" width="87.035" height="4.73" rx="0.209"
                        transform="translate(420.882 1268.836) rotate(180)" fill="#bbc4de" />
                    </g>
                    <g id="Group_4005" data-name="Group 4005">
                      <g id="Group_3999" data-name="Group 3999">
                        <rect id="Rectangle_1007" data-name="Rectangle 1007" width="92.117" height="4.73" rx="0.209"
                          transform="translate(484.71 1304.489)" fill="#bbc4de" />
                        <rect id="Rectangle_1008" data-name="Rectangle 1008" width="69.395" height="4.73" rx="0.209"
                          transform="translate(558.809 1319.363) rotate(180)" fill="#bbc4de" />
                        <rect id="Rectangle_1009" data-name="Rectangle 1009" width="87.035" height="4.73" rx="0.209"
                          transform="translate(579.584 1330.53) rotate(180)" fill="#bbc4de" />
                      </g>
                      <g id="Group_4003" data-name="Group 4003">
                        <rect id="Rectangle_1010" data-name="Rectangle 1010" width="30.648" height="30.648"
                          transform="translate(478.245 1264.721)" fill="#fff" />
                        <rect id="Rectangle_1011" data-name="Rectangle 1011" width="25.589" height="25.589"
                          transform="translate(480.775 1267.25)" fill="#ed8b90" />
                        <g id="Group_4002" data-name="Group 4002">
                          <g id="Group_4001" data-name="Group 4001">
                            <path id="Path_5261" data-name="Path 5261"
                              d="M489.035,1282.045s.456-.608,2.161-.509c.492.029-.476,1.914-.476,1.914l-.605.316Z"
                              fill="#707faf" opacity="0.47" />
                            <path id="Path_5262" data-name="Path 5262"
                              d="M498.076,1282.045s-.456-.608-2.16-.509c-.492.029.475,1.914.475,1.914l.605.316Z"
                              fill="#707faf" opacity="0.47" />
                            <path id="Path_5263" data-name="Path 5263"
                              d="M490.439,1278.959l.07,4.765,3.195,5.416,2.7-5.424v-5.424Z" fill="#f0e3dd" />
                            <path id="Path_5264" data-name="Path 5264"
                              d="M490.439,1281.821c2.616,2.6,3.8,2.446,5.957.024l.127-2.086-6.084.588Z" fill="#8190c7"
                              opacity="0.47" />
                            <path id="Path_5265" data-name="Path 5265"
                              d="M488.4,1274.552a45.794,45.794,0,0,0,1.019,4.668,4.807,4.807,0,0,0,3.955,3.467c1.326,0,3.221-1.528,3.874-3.509a38.348,38.348,0,0,0,1.1-4.626Z"
                              fill="#f0e3dd" />
                            <g id="Group_4000" data-name="Group 4000">
                              <path id="Path_5266" data-name="Path 5266"
                                d="M497.626,1276.038c1.346-.885,1.59-.169,1.264.8s-1.029,2.428-1.473,1.973S497.626,1276.038,497.626,1276.038Z"
                                fill="#f0e3dd" />
                              <path id="Path_5267" data-name="Path 5267"
                                d="M488.845,1276.038c-1.346-.885-1.59-.169-1.264.8s1.029,2.428,1.473,1.973S488.845,1276.038,488.845,1276.038Z"
                                fill="#f0e3dd" />
                            </g>
                            <path id="Path_5268" data-name="Path 5268"
                              d="M488.4,1274.552a20.8,20.8,0,0,0,9.143,1.465,5.649,5.649,0,0,1-3.577-1.465,20.884,20.884,0,0,0,3.761,1.116v2.213a16.66,16.66,0,0,0,1.07-3.919,4.664,4.664,0,0,0-3.814-4.425c-3-.632-5.6.379-6.4,1.77,0,0-1.44.709-.7,4.369a6.014,6.014,0,0,1,1.327,2.2Z"
                              fill="#8f676f" />
                            <path id="Path_5269" data-name="Path 5269"
                              d="M505.266,1292.51c-.125.11-.251.219-.392.329H493.13c-.031-.376-.063-.768-.094-1.16-.016-.251-.031-.486-.047-.721h-.016c-.062-.91-.109-1.788-.125-2.493-.016-.236-.016-.439-.016-.628a.476.476,0,0,1,.032-.125c.015-.016.031-.031.031-.047a4.625,4.625,0,0,1,.486-.5,15.868,15.868,0,0,1,1.364-1.035v-.015c.016,0,.016-.016.031-.016l.957-1.035.016-.015.658-.722,1.646-1.05.016-.016.016-.016,4.029,2.117a4.727,4.727,0,0,1,2.478,3.371Z"
                              fill="#8f676f" />
                            <path id="Path_5270" data-name="Path 5270"
                              d="M493.569,1287.555v5.284h-11.3c-.141-.11-.282-.235-.408-.345l.659-3.763a4.77,4.77,0,0,1,2.477-3.371l4.046-2.117.015.016,1.647,1.066.439.471.015.015,1.208,1.3.015.015a7.962,7.962,0,0,1,1,1.035A.862.862,0,0,1,493.569,1287.555Z"
                              fill="#8f676f" />
                            <path id="Path_5271" data-name="Path 5271"
                              d="M489.035,1281.96a12.588,12.588,0,0,0,3.335,2.563,13.148,13.148,0,0,1,0,1.6,6.764,6.764,0,0,1-3.335-2.878S488.824,1282.136,489.035,1281.96Z"
                              fill="#fff" />
                            <path id="Path_5272" data-name="Path 5272" d="M485.039,1292.839h-.329l.282-1.913Z"
                              fill="#515b5c" />
                            <path id="Path_5273" data-name="Path 5273"
                              d="M498.076,1281.96a12.588,12.588,0,0,1-3.335,2.563,14.365,14.365,0,0,0,0,1.6,6.764,6.764,0,0,0,3.335-2.878S498.287,1282.136,498.076,1281.96Z"
                              fill="#fff" />
                            <path id="Path_5274" data-name="Path 5274" d="M502.4,1292.839h-.329l.047-1.913Z"
                              fill="#515b5c" />
                            <circle id="Ellipse_91" data-name="Ellipse 91" cx="0.41" cy="0.41" r="0.41"
                              transform="translate(492.416 1287.642)" fill="#fff" />
                            <circle id="Ellipse_92" data-name="Ellipse 92" cx="0.41" cy="0.41" r="0.41"
                              transform="translate(492.416 1290.93)" fill="#fff" />
                          </g>
                        </g>
                      </g>
                      <g id="Group_4004" data-name="Group 4004">
                        <rect id="Rectangle_1012" data-name="Rectangle 1012" width="75.262" height="4.73" rx="0.209"
                          transform="translate(515.897 1267.25)" fill="#bbc4de" />
                        <rect id="Rectangle_1013" data-name="Rectangle 1013" width="56.697" height="4.73" rx="0.209"
                          transform="translate(572.595 1282.124) rotate(180)" fill="#bbc4de" />
                        <rect id="Rectangle_1014" data-name="Rectangle 1014" width="71.109" height="4.73" rx="0.209"
                          transform="translate(587.007 1293.291) rotate(180)" fill="#bbc4de" />
                      </g>
                    </g>
                    <g id="Group_4007" data-name="Group 4007">
                      <g id="Group_4006" data-name="Group 4006">
                        <path id="Path_5275" data-name="Path 5275" d="M514.905,1203.23" fill="none" stroke="#a7afb9"
                          stroke-miterlimit="10" stroke-width="1" />
                      </g>
                    </g>
                    <path id="Path_5276" data-name="Path 5276"
                      d="M621.179,1382.573a2.5,2.5,0,0,0,.933-1.17c-2.034-7.317-8.528-25.9-12.569-26.742a5.331,5.331,0,0,0-2.778.037l.106-.078a4.678,4.678,0,0,1-1.534-1.054c.327-.091.507-.2.452-.314l.041-.1c.162-.066.331-.14.51-.227,2.412-1.163,4.6-6.8,1.681-9.1-3.07-2.419-9.948-6.976-9.412-2.744a30.29,30.29,0,0,0,.8,4.3c-.818,2.728-.259,7.621.14,8.1a3.284,3.284,0,0,0,1.819.4,7.811,7.811,0,0,1,1.1,2.7q-.245.148-.484.305l-2.7.894-3.663-2.092a1.4,1.4,0,0,0-.137.132l-4.983-3.756-2.819-2.114a3.892,3.892,0,0,0-.449-1.461c-.162-.124-.336-.044-.524.268l-.111.45-.76-1.071a1.132,1.132,0,0,0-1.409.2l-11.646-9.854a.146.146,0,0,0-.206.018l-.752.888-3.594-3.042a25.949,25.949,0,1,0-4.317,5.146l3.574,3.023-.752.888a.147.147,0,0,0,.017.206l12.286,10.394,1.505,2.372,3.492,5.493,3.38,5.518a36.125,36.125,0,0,0,7.426-.014l.637.539a.52.52,0,0,0,.734-.061l.526-.622c.888-.075,1.758-.159,2.575-.249,1.771,5.433,3.645,10.079,4.524,14.417-1.988,7.221-3.919,14.327-3.655,16.93l.612,3.613h7.173l-.016-3.133q1.353-2.91,2.569-5.8c-.1,3.015.034,5.4.609,6.542l.913,2.392h7.51l-.719-3.528A131.091,131.091,0,0,0,621.179,1382.573Zm-59.434-47.17a20.145,20.145,0,1,1-2.368-28.391A20.135,20.135,0,0,1,561.745,1335.4Z"
                      fill="#e6e7e8" style="mix-blend-mode: multiply;isolation: isolate" />
                  </g>
                  <g id="Group_4010" data-name="Group 4010">
                    <ellipse id="Ellipse_93" data-name="Ellipse 93" cx="32.942" cy="3.566" rx="32.942" ry="3.566"
                      transform="translate(214.601 1447.442)" fill="#e6e7e8"
                      style="mix-blend-mode: multiply;isolation: isolate" />
                    <path id="Path_5277" data-name="Path 5277"
                      d="M228.993,1450.062l19.762-157.61a2.3,2.3,0,0,1,2.283-2.015h13.723a2.3,2.3,0,1,1,0,4.6H253.068l-.843,6.719h27.086l1.166-9.306a2.3,2.3,0,0,1,2.284-2.015h13.478a2.3,2.3,0,1,1,0,4.6H284.792l-19.51,155.6a2.3,2.3,0,0,1-2.28,2.015,2.355,2.355,0,0,1-.289-.018,2.3,2.3,0,0,1-2-2.569l2.277-18.162H235.908l-2.349,18.734a2.3,2.3,0,0,1-2.28,2.015,2.355,2.355,0,0,1-.289-.018A2.3,2.3,0,0,1,228.993,1450.062Zm18.735-112.435h27.085l1.672-13.332H249.4Zm-.577,4.6-1.672,13.332h27.086l1.671-13.332Zm-2.249,17.934-1.671,13.332h27.085l1.672-13.332Zm-2.248,17.934-1.672,13.332h27.085l1.672-13.332Zm24.836,17.934H240.4l-1.671,13.332h27.085Zm-15.842-89.67-1.671,13.332h27.085l1.672-13.332ZM263.57,1427.3l1.671-13.331H238.156l-1.671,13.331Z"
                      fill="#d19b3b" />
                    <g id="Group_4009" data-name="Group 4009">
                      <path id="Path_5278" data-name="Path 5278"
                        d="M267.257,1335.2v3.589a1.022,1.022,0,0,0,1.022,1.022h4.9s1.317-3.4-3.183-4.611Z"
                        fill="#4e3654" />
                      <path id="Path_5279" data-name="Path 5279"
                        d="M252.438,1335.088l-.989,3.573a.818.818,0,0,0,.788,1.037h6.128s1.317-3.4-3.183-4.61Z"
                        fill="#4e3654" />
                      <path id="Path_5280" data-name="Path 5280"
                        d="M267.257,1335.2H270l3.125-27.99,4.006-29.967-5.486-.825-3.95,2.8-.606,28.706Z"
                        fill="#29558b" />
                      <path id="Path_5281" data-name="Path 5281"
                        d="M252.545,1335.2l2.305.22,8.537-28.157,6.667-27.663-7.079-5.927-5.619,31.386-.087.062Z"
                        fill="#29558b" />
                      <path id="Path_5282" data-name="Path 5282"
                        d="M269.177,1246.778l.439,2.415-4.061,1.976-1.976-3.677Z" fill="#feac84" />
                      <path id="Path_5283" data-name="Path 5283"
                        d="M267.182,1249.712l8.884-2.961s3.21,17.206.85,34.33l-15.367-.659s-1.949-18.441-5.324-24.121c0,0,5.056-3.495,9.515-5.962A8.615,8.615,0,0,1,267.182,1249.712Z"
                        fill="#7877ed" />
                      <path id="Path_5284" data-name="Path 5284"
                        d="M294.657,1224.744s3.34-2.969,1.757-4.521-3.17.766-3.17.766.4-.718-.507-.947-.736,4.5-.736,4.5Z"
                        fill="#feac84" />
                      <path id="Path_5285" data-name="Path 5285"
                        d="M275.161,1256.792l13.752-16.359a13.421,13.421,0,0,0,2.666-5.075l3.339-11.041-2.881-.988-4.858,13.3-11.116,10.128Z"
                        fill="#7877ed" />
                      <path id="Path_5286" data-name="Path 5286"
                        d="M250.407,1291.564s-1.455,4.226.686,4.8,2.387-2.222,2.387-2.222,0,.823.906.576-1.564-4.281-1.564-4.281Z"
                        fill="#feac84" />
                      <path id="Path_5287" data-name="Path 5287"
                        d="M250.4,1291.673h2.961l1.962-21.8,5.473-9.524a3.116,3.116,0,0,0-.588-3.841h0a3.116,3.116,0,0,0-5.086,1.352l-4.394,13.95Z"
                        fill="#7877ed" />
                      <path id="Path_5288" data-name="Path 5288"
                        d="M269.026,1238.737c1.427,6.14.6,9.907-2.538,10.621-1.38.314-1.787-.162-2.909-.933a8.115,8.115,0,0,1-3.842-5.928c-.728-5.968,8.218-5.187,8.218-6.615S269.026,1238.737,269.026,1238.737Z"
                        fill="#4e3654" />
                      <path id="Path_5289" data-name="Path 5289"
                        d="M268.985,1241.523c-.864-1.976-1.317.288-.658,1.729s1.111,1.564,1.029.658c0,0,.123,3.664-.453,4.693,0,0,3.087-3.54.371-9.3Z"
                        fill="#feac84" />
                    </g>
                  </g>
                  <g id="Group_4018" data-name="Group 4018">
                    <ellipse id="Ellipse_94" data-name="Ellipse 94" cx="18.726" cy="3.17" rx="18.726" ry="3.17"
                      transform="translate(598.997 1427.546)" fill="#e6e7e8"
                      style="mix-blend-mode: multiply;isolation: isolate" />
                    <g id="Group_4012" data-name="Group 4012">
                      <g id="Group_4011" data-name="Group 4011">
                        <path id="Path_5290" data-name="Path 5290"
                          d="M590.367,1351.538l2.456,2.655,8.507,9.185c2.083.129,5.734-1.359,9.276-2.737l1.613-6.131-9.267,3.838-8.355-6.3-2.819-2.114Z"
                          fill="#e8a39c" />
                        <path id="Path_5291" data-name="Path 5291"
                          d="M597.222,1358.943l4.294,4.8c2.083.128,11.355-2.348,14.9-3.726l-3.679-5.346-9.355,3.1-3.663-2.092A27.622,27.622,0,0,0,597.222,1358.943Z"
                          fill="#7877ed" />
                      </g>
                      <path id="Path_5292" data-name="Path 5292"
                        d="M591.778,1349.937a3.893,3.893,0,0,0-.448-1.461c-.162-.124-.336-.044-.525.268l-.11.45-.761-1.071a1.133,1.133,0,0,0-1.443.237,3.6,3.6,0,0,0,.179,2.033c.322.653,1.232.905,1.7,1.145Z"
                        fill="#e8a39c" />
                    </g>
                    <g id="Group_4013" data-name="Group 4013">
                      <path id="Path_5293" data-name="Path 5293"
                        d="M625.227,1427.067a4.656,4.656,0,0,1-.259,2.307l4.415-1.246a3.87,3.87,0,0,1-1.155-1.6Z"
                        fill="#051a2d" />
                      <path id="Path_5294" data-name="Path 5294"
                        d="M628.381,1427.141l-3.026.946-10.128-26.551c-1.446-2.879-.092-13.551.657-22.54l9.482,1.024a121.911,121.911,0,0,1-2.435,20.38Z"
                        fill="#29558b" />
                      <path id="Path_5295" data-name="Path 5295"
                        d="M629.265,1427.6a5.9,5.9,0,0,1,1.015,2.862c-.423.613-8.882.833-8.917.233.059-.884,2.447-1.817,3.552-2.212A7.82,7.82,0,0,0,629.265,1427.6Z"
                        fill="#051a2d" />
                    </g>
                    <path id="Path_5296" data-name="Path 5296"
                      d="M610.968,1354.62a6.57,6.57,0,0,1-3-3.049l-2.749,1.9a6.958,6.958,0,0,1,1.413,4.326Z"
                      fill="#e8a39c" />
                    <path id="Path_5297" data-name="Path 5297"
                      d="M609.885,1353.252c.285.6-5.622.95-6.241.214-.5-.593-1.248-8.074.745-9.628l2.437-.032c3.2-.043,5.578,3.031,4.489,5.806Z"
                      fill="#e8a39c" />
                    <g id="Group_4014" data-name="Group 4014">
                      <path id="Path_5298" data-name="Path 5298"
                        d="M608.936,1427.62a3.515,3.515,0,0,1-.766,2.336l4.853-.282c-.289-.71-.849-1.312-.853-1.931Z"
                        fill="#051a2d" />
                      <path id="Path_5299" data-name="Path 5299"
                        d="M612.187,1428.12l-3.148.3-4.759-28.106c-.327-3.21,2.687-13.269,5.027-21.946l10.528,1.308a118.638,118.638,0,0,1-7.787,21.118Z"
                        fill="#29558b" />
                      <path id="Path_5300" data-name="Path 5300"
                        d="M613.014,1429.1a6.325,6.325,0,0,1,.436,3.2c-.571.54-9.4-1.17-9.309-1.8.252-.905,2.933-1.326,4.166-1.483A8.26,8.26,0,0,0,613.014,1429.1Z"
                        fill="#051a2d" />
                    </g>
                    <path id="Path_5301" data-name="Path 5301"
                      d="M626.209,1381.4c-.727,2.755-14.064,6.763-17.8,5.471-.429-7.118-4.569-14.739-7.091-25.191,1.478-3.415,8.814-8.141,12.322-7.022C617.68,1355.505,624.174,1374.086,626.209,1381.4Z"
                      fill="#7877ed" />
                    <path id="Path_5302" data-name="Path 5302"
                      d="M606.995,1347.445c-2.964,3.076-3.935-3.565-4.29-6.373-.535-4.232,6.343.325,9.413,2.744,2.922,2.3.731,7.942-1.681,9.1-2.734,1.319-3.5.149-3.046-1.107s2.548-1.676,1.438-2.615-2.02,1.006-2.02,1.006l.677-1.724S607.654,1346.761,606.995,1347.445Z"
                      fill="#051a2d" />
                    <g id="Group_4015" data-name="Group 4015">
                      <path id="Path_5303" data-name="Path 5303"
                        d="M533.709,1342.193a25.938,25.938,0,1,0-3.049-36.555A25.944,25.944,0,0,0,533.709,1342.193Zm1.374-32.813a20.145,20.145,0,1,1,2.368,28.39A20.133,20.133,0,0,1,535.083,1309.38Z"
                        fill="#414042" />
                      <path id="Path_5304" data-name="Path 5304"
                        d="M535.06,1330.282a17.4,17.4,0,0,1,32.932-9.795,17.392,17.392,0,1,0-32.932,9.795Z" fill="#fff"
                        opacity="0.25" />
                      <path id="Rectangle_1015" data-name="Rectangle 1015"
                        d="M1.189,0H5.527A1.189,1.189,0,0,1,6.716,1.189v37.1a0,0,0,0,1,0,0H0a0,0,0,0,1,0,0V1.189A1.189,1.189,0,0,1,1.189,0Z"
                        transform="translate(600.682 1360.324) rotate(130.232)" fill="#414042" />
                      <path id="Rectangle_1016" data-name="Rectangle 1016"
                        d="M1.653,0H7.682A1.653,1.653,0,0,1,9.335,1.653V37.83a.464.464,0,0,1-.464.464H.464A.464.464,0,0,1,0,37.83V1.653A1.653,1.653,0,0,1,1.653,0Z"
                        transform="translate(606.002 1363.11) rotate(130.232)" fill="#f37e95" />
                    </g>
                    <g id="Group_4017" data-name="Group 4017">
                      <g id="Group_4016" data-name="Group 4016">
                        <path id="Path_5305" data-name="Path 5305"
                          d="M582.692,1355.294l1.949,3.07,6.751,10.623c2.026.515,5.878-.266,9.6-.959l2.559-6.929-9.683,3.243-7.11-7.753-2.4-2.6Z"
                          fill="#e8a39c" />
                        <path id="Path_5306" data-name="Path 5306"
                          d="M588.133,1363.857l3.379,5.518c2.026.516,11.58-.186,15.306-.88v-8.43l-12.423,3.787-3.234-2.743A27.2,27.2,0,0,0,588.133,1363.857Z"
                          fill="#7877ed" />
                      </g>
                      <path id="Path_5307" data-name="Path 5307"
                        d="M584.362,1353.984a3.93,3.93,0,0,0-.185-1.521c-.137-.152-.323-.106-.563.166l-.187.421-.56-1.2a1.131,1.131,0,0,0-1.461-.037,3.6,3.6,0,0,0-.181,2.033c.2.7,1.052,1.12,1.467,1.443Z"
                        fill="#e8a39c" />
                    </g>
                  </g>
                </g>
              </svg> 
