<svg xmlns="http://www.w3.org/2000/svg" width="197.87" height="79.68" viewBox="0 0 197.87 79.68">
  <g id="logo" transform="translate(-55.935 -9.145)">
    <path id="Path_14524" data-name="Path 14524" d="M84.839,44.564A7.873,7.873,0,0,1,78.72,42.1a10.593,10.593,0,0,1-2.555-6.563q-.039-.543-.039-1.453t.039-1.452a11.889,11.889,0,0,1,1.258-4.705,7.817,7.817,0,0,1,2.943-3.156,9.578,9.578,0,0,1,9.178.1,7.988,7.988,0,0,1,2.962,3.466,12.57,12.57,0,0,1,1.045,5.344V34.3a.8.8,0,0,1-.251.62.905.905,0,0,1-.639.232H79.03v.388a7.937,7.937,0,0,0,.736,3.175,6.061,6.061,0,0,0,1.994,2.439,5.145,5.145,0,0,0,3.079.93,6.386,6.386,0,0,0,2.594-.465A5.964,5.964,0,0,0,89.1,40.576a5.38,5.38,0,0,0,.814-.891,2,2,0,0,1,.542-.562,1.473,1.473,0,0,1,.619-.1h1.084a.9.9,0,0,1,.6.213.607.607,0,0,1,.213.561,2.965,2.965,0,0,1-.6,1.355,7.211,7.211,0,0,1-1.607,1.607,8.787,8.787,0,0,1-2.555,1.3A10.632,10.632,0,0,1,84.839,44.564ZM79.03,32.831H90.725v-.155a7.633,7.633,0,0,0-.717-3.35,5.93,5.93,0,0,0-8.325-2.342,5.4,5.4,0,0,0-1.975,2.342,8,8,0,0,0-.678,3.35Z" fill="#231f20"/>
    <path id="Path_14525" data-name="Path 14525" d="M96.537,44.177a.8.8,0,0,1-.852-.852V24.893a.8.8,0,0,1,.852-.852h1.084a.8.8,0,0,1,.852.852v1.781a8.669,8.669,0,0,1,2.556-2.169,8.01,8.01,0,0,1,3.949-.852,7.86,7.86,0,0,1,4.338,1.123,7.071,7.071,0,0,1,2.633,3.079,10.7,10.7,0,0,1,.89,4.472v11a.8.8,0,0,1-.852.852h-1.123a.8.8,0,0,1-.852-.852v-10.8a6.854,6.854,0,0,0-1.452-4.627,5.243,5.243,0,0,0-4.2-1.685,5.588,5.588,0,0,0-4.24,1.685,6.425,6.425,0,0,0-1.607,4.627v10.8a.8.8,0,0,1-.852.852Z" fill="#231f20"/>
    <path id="Path_14526" data-name="Path 14526" d="M123.705,52.7a10.7,10.7,0,0,1-4.124-.678,7.444,7.444,0,0,1-2.517-1.626,5.783,5.783,0,0,1-1.278-1.917,5.718,5.718,0,0,1-.407-1.549.706.706,0,0,1,.252-.639.954.954,0,0,1,.639-.251h1.007a1.051,1.051,0,0,1,.542.135,1.119,1.119,0,0,1,.387.678,8.683,8.683,0,0,0,.736,1.374A4.118,4.118,0,0,0,120.53,49.6a6.368,6.368,0,0,0,2.981.581,9.545,9.545,0,0,0,3.408-.523,3.9,3.9,0,0,0,2.072-1.839,7.691,7.691,0,0,0,.716-3.64V41.505a7.857,7.857,0,0,1-2.517,2.13,8.061,8.061,0,0,1-3.911.852,8.276,8.276,0,0,1-3.775-.794,6.934,6.934,0,0,1-2.537-2.13,9.643,9.643,0,0,1-1.452-3,13.2,13.2,0,0,1-.523-3.408q-.039-1.083,0-2.168a13.2,13.2,0,0,1,.523-3.408,9.643,9.643,0,0,1,1.452-3,6.944,6.944,0,0,1,2.537-2.13,8.276,8.276,0,0,1,3.775-.794,7.663,7.663,0,0,1,6.467,3.021V24.931a.909.909,0,0,1,.232-.639.8.8,0,0,1,.62-.251h1.045a.861.861,0,0,1,.891.89V43.79a12.524,12.524,0,0,1-.775,4.53,6.365,6.365,0,0,1-2.691,3.195A10.237,10.237,0,0,1,123.705,52.7Zm0-10.765a5.426,5.426,0,0,0,3.408-.988,5.976,5.976,0,0,0,1.9-2.478,9.053,9.053,0,0,0,.7-3.04q.039-.542.039-1.355t-.039-1.355a9.059,9.059,0,0,0-.7-3.04,5.976,5.976,0,0,0-1.9-2.478,5.426,5.426,0,0,0-3.408-.988,5.508,5.508,0,0,0-3.408.968,5.27,5.27,0,0,0-1.82,2.517,11.51,11.51,0,0,0-.619,3.33q-.039,1.047,0,2.092a11.717,11.717,0,0,0,.619,3.349,5.141,5.141,0,0,0,1.82,2.517A5.583,5.583,0,0,0,123.705,41.931Z" fill="#231f20"/>
    <path id="Path_14527" data-name="Path 14527" d="M142.373,44.564a7.746,7.746,0,0,1-4.317-1.123,6.708,6.708,0,0,1-2.556-3.1,11.344,11.344,0,0,1-.833-4.453v-11a.8.8,0,0,1,.852-.852h1.123a.8.8,0,0,1,.852.852V35.7q0,6.313,5.5,6.312a5.529,5.529,0,0,0,4.221-1.684A6.478,6.478,0,0,0,148.8,35.7v-10.8a.8.8,0,0,1,.852-.852h1.123a.8.8,0,0,1,.852.852V43.325a.8.8,0,0,1-.852.852h-1.084a.8.8,0,0,1-.852-.852V41.544a8.328,8.328,0,0,1-2.517,2.188A8.032,8.032,0,0,1,142.373,44.564Z" fill="#231f20"/>
    <path id="Path_14528" data-name="Path 14528" d="M154.226,20.052a.8.8,0,0,1-.619-.252.9.9,0,0,1-.233-.638V17.5a.979.979,0,0,1,.233-.658.776.776,0,0,1,.619-.271h1.82a.837.837,0,0,1,.639.271.933.933,0,0,1,.252.658v1.666a.862.862,0,0,1-.891.89Zm.388,24.125a.8.8,0,0,1-.852-.852V24.893a.8.8,0,0,1,.852-.852H155.7a.8.8,0,0,1,.852.852V43.325a.8.8,0,0,1-.852.852Z" fill="#231f20"/>
    <path id="Path_14529" data-name="Path 14529" d="M159.535,44.177a.8.8,0,0,1-.852-.852V24.893a.8.8,0,0,1,.852-.852h1.084a.8.8,0,0,1,.852.852v1.781a8.669,8.669,0,0,1,2.556-2.169,8.012,8.012,0,0,1,3.95-.852,7.859,7.859,0,0,1,4.337,1.123,7.058,7.058,0,0,1,2.633,3.079,10.68,10.68,0,0,1,.891,4.472v11a.8.8,0,0,1-.852.852h-1.123a.8.8,0,0,1-.852-.852v-10.8a6.854,6.854,0,0,0-1.452-4.627,5.245,5.245,0,0,0-4.2-1.685,5.588,5.588,0,0,0-4.24,1.685,6.425,6.425,0,0,0-1.607,4.627v10.8a.8.8,0,0,1-.852.852Z" fill="#231f20"/>
    <g id="Group_10850" data-name="Group 10850">
      <path id="Path_14530" data-name="Path 14530" d="M77.945,13.533a8.462,8.462,0,0,0-3.774-3.28,13.732,13.732,0,0,0-5.733-1.108H58.682a2.747,2.747,0,0,0-2.747,2.747v.084h2.972v0h7.727a1.515,1.515,0,0,1,1.54,1.382,1.454,1.454,0,0,1-2.553,1.033l-.011.011a6.888,6.888,0,0,1,1.412,4.513,5.846,5.846,0,0,1-1.92,4.635,26.053,26.053,0,0,0-9.167,19.46v.218a.952.952,0,0,0,.952.952h1.068a.952.952,0,0,0,.952-.952V35.508a6.83,6.83,0,0,1,6.83-6.83h2.7a13.716,13.716,0,0,0,5.733-1.109,8.453,8.453,0,0,0,3.774-3.279,10.036,10.036,0,0,0,1.345-5.378A10.04,10.04,0,0,0,77.945,13.533Z"/>
      <path id="Path_14531" data-name="Path 14531" d="M66.717,14.893a1.46,1.46,0,0,0,0-2.92h-7.81v0q4.105,0,6.11,1.792a5.6,5.6,0,0,1,.593.631l.011-.011A1.451,1.451,0,0,0,66.717,14.893Z" fill="#f7941d"/>
      <g id="Group_10849" data-name="Group 10849">
        <path id="Path_14532" data-name="Path 14532" d="M79.279,18.538a2.186,2.186,0,0,0-4.369.1v4.191a5.843,5.843,0,0,1-5.2,5.807,12.861,12.861,0,0,0,4.457-1.061A8.451,8.451,0,0,0,77.945,24.3a10.037,10.037,0,0,0,1.344-5.379C79.289,18.788,79.282,18.664,79.279,18.538Z" fill="#f7941d"/>
      </g>
    </g>
    <g id="Group_10852" data-name="Group 10852">
      <g id="Group_10851" data-name="Group 10851">
        <path id="Path_14533" data-name="Path 14533" d="M65.267,80.306a.8.8,0,0,1-.852-.852V55.91H56.826a.9.9,0,0,1-.639-.232.8.8,0,0,1-.252-.62V54.09a.847.847,0,0,1,.252-.658.9.9,0,0,1,.639-.233H74.871a.96.96,0,0,1,.677.233.85.85,0,0,1,.252.658v.968a.8.8,0,0,1-.252.62.96.96,0,0,1-.677.232H67.32V79.454a.835.835,0,0,1-.233.619.89.89,0,0,1-.658.233Z" fill="#f6921e"/>
        <path id="Path_14534" data-name="Path 14534" d="M80.026,80.693a7.872,7.872,0,0,1-6.118-2.459,10.6,10.6,0,0,1-2.556-6.564q-.039-.542-.038-1.452t.038-1.452a11.89,11.89,0,0,1,1.259-4.705A7.81,7.81,0,0,1,75.554,60.9a9.576,9.576,0,0,1,9.177.1,7.984,7.984,0,0,1,2.963,3.466,12.57,12.57,0,0,1,1.045,5.344v.619a.8.8,0,0,1-.252.62.9.9,0,0,1-.638.232H74.218v.387a7.921,7.921,0,0,0,.736,3.176,6.053,6.053,0,0,0,1.994,2.439,5.144,5.144,0,0,0,3.078.93,6.388,6.388,0,0,0,2.6-.465A5.943,5.943,0,0,0,84.286,76.7a5.281,5.281,0,0,0,.813-.89,2.033,2.033,0,0,1,.542-.562,1.479,1.479,0,0,1,.62-.1h1.084a.9.9,0,0,1,.6.213.6.6,0,0,1,.213.561,2.961,2.961,0,0,1-.6,1.355,7.232,7.232,0,0,1-1.607,1.607,8.78,8.78,0,0,1-2.556,1.3A10.623,10.623,0,0,1,80.026,80.693ZM74.218,68.96H85.912v-.155a7.647,7.647,0,0,0-.716-3.35,5.931,5.931,0,0,0-8.326-2.342A5.406,5.406,0,0,0,74.9,65.455a8,8,0,0,0-.678,3.35Z" fill="#f6921e"/>
        <path id="Path_14535" data-name="Path 14535" d="M99.624,80.693a9.509,9.509,0,0,1-4.647-1.065,7.111,7.111,0,0,1-2.962-3.078,11.075,11.075,0,0,1-1.1-4.763q-.039-.582-.038-1.549t.038-1.549a11.034,11.034,0,0,1,1.1-4.783,7.141,7.141,0,0,1,2.962-3.059,9.52,9.52,0,0,1,4.647-1.065,10.32,10.32,0,0,1,3.659.581,7.511,7.511,0,0,1,2.517,1.51,6.793,6.793,0,0,1,1.511,2.033,5.442,5.442,0,0,1,.561,2.111.729.729,0,0,1-.232.639.885.885,0,0,1-.62.251h-1.045a.77.77,0,0,1-.562-.174,2.069,2.069,0,0,1-.368-.639,5.555,5.555,0,0,0-2.11-2.923,6.149,6.149,0,0,0-3.311-.833,5.823,5.823,0,0,0-4.124,1.53q-1.647,1.53-1.723,5.014a23.57,23.57,0,0,0,0,2.711q.115,3.484,1.742,5.015a5.756,5.756,0,0,0,4.105,1.529,6.149,6.149,0,0,0,3.311-.832,5.558,5.558,0,0,0,2.11-2.924,2.069,2.069,0,0,1,.368-.639.77.77,0,0,1,.562-.174h1.045a.886.886,0,0,1,.62.252.729.729,0,0,1,.232.639,5.672,5.672,0,0,1-.348,1.665,6.112,6.112,0,0,1-.968,1.684,7.043,7.043,0,0,1-1.608,1.472,8.1,8.1,0,0,1-2.284,1.026A10.937,10.937,0,0,1,99.624,80.693Z" fill="#f6921e"/>
        <path id="Path_14536" data-name="Path 14536" d="M110.862,80.306a.8.8,0,0,1-.852-.852V53.664a.8.8,0,0,1,.852-.852h1.123a.8.8,0,0,1,.852.852V62.8a8.246,8.246,0,0,1,2.536-2.188,8.041,8.041,0,0,1,3.931-.833A7.956,7.956,0,0,1,123.66,60.9a7.018,7.018,0,0,1,2.653,3.079,10.7,10.7,0,0,1,.891,4.472v11a.835.835,0,0,1-.233.619.89.89,0,0,1-.658.233H125.19a.8.8,0,0,1-.852-.852V68.65a6.916,6.916,0,0,0-1.433-4.627,5.233,5.233,0,0,0-4.221-1.685,5.588,5.588,0,0,0-4.24,1.685,6.429,6.429,0,0,0-1.607,4.627v10.8a.8.8,0,0,1-.852.852Z" fill="#f6921e"/>
        <path id="Path_14537" data-name="Path 14537" d="M130.189,80.306a.8.8,0,0,1-.852-.852V61.022a.8.8,0,0,1,.852-.852h1.084a.8.8,0,0,1,.852.852V62.8a8.654,8.654,0,0,1,2.556-2.169,8.012,8.012,0,0,1,3.95-.852,7.859,7.859,0,0,1,4.337,1.123,7.064,7.064,0,0,1,2.633,3.079,10.7,10.7,0,0,1,.89,4.472v11a.8.8,0,0,1-.851.852h-1.124a.8.8,0,0,1-.851-.852V68.65a6.854,6.854,0,0,0-1.452-4.627,5.247,5.247,0,0,0-4.2-1.685,5.588,5.588,0,0,0-4.24,1.685,6.425,6.425,0,0,0-1.607,4.627v10.8a.8.8,0,0,1-.852.852Z" fill="#f6921e"/>
        <path id="Path_14538" data-name="Path 14538" d="M157.454,80.693a9.1,9.1,0,0,1-4.763-1.142,7.675,7.675,0,0,1-2.924-3.156,10.574,10.574,0,0,1-1.1-4.531q-.039-.581-.038-1.626t.038-1.627a10.523,10.523,0,0,1,1.1-4.55,7.656,7.656,0,0,1,2.943-3.136,10.414,10.414,0,0,1,9.487,0,7.534,7.534,0,0,1,2.924,3.136,10.7,10.7,0,0,1,1.084,4.55q.039.582.039,1.627t-.039,1.626a10.755,10.755,0,0,1-1.084,4.531,7.514,7.514,0,0,1-2.924,3.156A9.129,9.129,0,0,1,157.454,80.693Zm0-2.517a5.575,5.575,0,0,0,4.2-1.665,7.093,7.093,0,0,0,1.723-4.841q.039-.581.039-1.432t-.039-1.433a7.075,7.075,0,0,0-1.723-4.86,6.185,6.185,0,0,0-8.4,0,7.075,7.075,0,0,0-1.723,4.86q-.039.581-.039,1.433t.039,1.432a7.093,7.093,0,0,0,1.723,4.841A5.576,5.576,0,0,0,157.454,78.176Z" fill="#f6921e"/>
        <path id="Path_14539" data-name="Path 14539" d="M169.229,80.306a.8.8,0,0,1-.852-.852V53.664a.8.8,0,0,1,.852-.852h1.085a.8.8,0,0,1,.851.852v25.79a.8.8,0,0,1-.851.852Z" fill="#f6921e"/>
        <path id="Path_14540" data-name="Path 14540" d="M182.128,80.693a9.1,9.1,0,0,1-4.763-1.142,7.675,7.675,0,0,1-2.924-3.156,10.56,10.56,0,0,1-1.1-4.531q-.039-.581-.039-1.626t.039-1.627a10.509,10.509,0,0,1,1.1-4.55,7.656,7.656,0,0,1,2.943-3.136,10.416,10.416,0,0,1,9.488,0,7.532,7.532,0,0,1,2.923,3.136,10.7,10.7,0,0,1,1.084,4.55q.039.582.039,1.627t-.039,1.626a10.755,10.755,0,0,1-1.084,4.531,7.511,7.511,0,0,1-2.923,3.156A9.132,9.132,0,0,1,182.128,80.693Zm0-2.517a5.575,5.575,0,0,0,4.2-1.665,7.093,7.093,0,0,0,1.723-4.841q.039-.581.039-1.432t-.039-1.433a7.075,7.075,0,0,0-1.723-4.86,6.185,6.185,0,0,0-8.4,0,7.08,7.08,0,0,0-1.723,4.86q-.039.581-.039,1.433t.039,1.432a7.1,7.1,0,0,0,1.723,4.841A5.576,5.576,0,0,0,182.128,78.176Z" fill="#f6921e"/>
        <path id="Path_14541" data-name="Path 14541" d="M201.784,88.825a10.7,10.7,0,0,1-4.124-.678,7.444,7.444,0,0,1-2.517-1.626,5.928,5.928,0,0,1-1.685-3.466.706.706,0,0,1,.252-.639.955.955,0,0,1,.639-.252h1.007a1.051,1.051,0,0,1,.542.136,1.119,1.119,0,0,1,.387.678,8.683,8.683,0,0,0,.736,1.374,4.115,4.115,0,0,0,1.587,1.375,6.375,6.375,0,0,0,2.982.581A9.546,9.546,0,0,0,205,85.785a3.905,3.905,0,0,0,2.072-1.839,7.692,7.692,0,0,0,.716-3.64V77.634a7.857,7.857,0,0,1-2.517,2.13,8.061,8.061,0,0,1-3.911.852,8.283,8.283,0,0,1-3.776-.794,6.939,6.939,0,0,1-2.536-2.13,9.643,9.643,0,0,1-1.452-3,13.159,13.159,0,0,1-.523-3.408q-.039-1.083,0-2.168a13.159,13.159,0,0,1,.523-3.408,9.643,9.643,0,0,1,1.452-3,6.949,6.949,0,0,1,2.536-2.13,8.283,8.283,0,0,1,3.776-.794,7.663,7.663,0,0,1,6.467,3.021V61.06a.905.905,0,0,1,.232-.639.8.8,0,0,1,.619-.251h1.046a.861.861,0,0,1,.891.89V79.919a12.545,12.545,0,0,1-.775,4.53,6.365,6.365,0,0,1-2.691,3.195A10.237,10.237,0,0,1,201.784,88.825Zm0-10.765a5.423,5.423,0,0,0,3.407-.988,5.978,5.978,0,0,0,1.9-2.478,9.054,9.054,0,0,0,.7-3.04c.025-.361.039-.813.039-1.355s-.014-.994-.039-1.355a9.059,9.059,0,0,0-.7-3.04,5.978,5.978,0,0,0-1.9-2.478,5.423,5.423,0,0,0-3.407-.988,5.508,5.508,0,0,0-3.408.968,5.27,5.27,0,0,0-1.82,2.517,11.544,11.544,0,0,0-.62,3.33q-.039,1.045,0,2.091a11.752,11.752,0,0,0,.62,3.35,5.141,5.141,0,0,0,1.82,2.517A5.583,5.583,0,0,0,201.784,78.06Z" fill="#f6921e"/>
        <path id="Path_14542" data-name="Path 14542" d="M213.6,56.181a.8.8,0,0,1-.619-.252.9.9,0,0,1-.233-.639V53.625a.979.979,0,0,1,.233-.658.776.776,0,0,1,.619-.271h1.82a.837.837,0,0,1,.639.271.933.933,0,0,1,.252.658V55.29a.862.862,0,0,1-.891.891Zm.388,24.125a.8.8,0,0,1-.852-.852V61.022a.8.8,0,0,1,.852-.852h1.084a.8.8,0,0,1,.852.852V79.454a.8.8,0,0,1-.852.852Z" fill="#f6921e"/>
        <path id="Path_14543" data-name="Path 14543" d="M227.155,80.693a7.872,7.872,0,0,1-6.118-2.459,10.6,10.6,0,0,1-2.556-6.564q-.039-.542-.039-1.452t.039-1.452a11.873,11.873,0,0,1,1.259-4.705,7.8,7.8,0,0,1,2.943-3.156,9.576,9.576,0,0,1,9.177.1,7.99,7.99,0,0,1,2.963,3.466,12.57,12.57,0,0,1,1.045,5.344v.619a.8.8,0,0,1-.252.62.9.9,0,0,1-.638.232H221.347v.387a7.921,7.921,0,0,0,.736,3.176,6.053,6.053,0,0,0,1.994,2.439,5.142,5.142,0,0,0,3.078.93,6.391,6.391,0,0,0,2.6-.465,5.942,5.942,0,0,0,1.665-1.046,5.28,5.28,0,0,0,.813-.89,2.033,2.033,0,0,1,.542-.562,1.479,1.479,0,0,1,.62-.1h1.084a.9.9,0,0,1,.6.213.6.6,0,0,1,.213.561,2.961,2.961,0,0,1-.6,1.355,7.232,7.232,0,0,1-1.607,1.607,8.78,8.78,0,0,1-2.556,1.3A10.627,10.627,0,0,1,227.155,80.693ZM221.347,68.96h11.694v-.155a7.646,7.646,0,0,0-.716-3.35A5.931,5.931,0,0,0,224,63.113a5.415,5.415,0,0,0-1.975,2.342,8.02,8.02,0,0,0-.677,3.35Z" fill="#f6921e"/>
        <path id="Path_14544" data-name="Path 14544" d="M245.9,80.693a10.392,10.392,0,0,1-3.543-.542,8.627,8.627,0,0,1-2.439-1.3,6.059,6.059,0,0,1-1.414-1.511,3.039,3.039,0,0,1-.5-1.181.646.646,0,0,1,.271-.639,1.047,1.047,0,0,1,.581-.213h1.007a.861.861,0,0,1,.387.078,1.728,1.728,0,0,1,.426.387,11.018,11.018,0,0,0,1.142,1.2,4.491,4.491,0,0,0,1.626.91,7.887,7.887,0,0,0,2.459.329,7.154,7.154,0,0,0,3.64-.833,2.678,2.678,0,0,0,1.433-2.459,2.4,2.4,0,0,0-.581-1.684,4.784,4.784,0,0,0-1.975-1.123,36.624,36.624,0,0,0-3.794-1.026,12.433,12.433,0,0,1-3.718-1.356,4.531,4.531,0,0,1-1.82-1.9,5.533,5.533,0,0,1-.5-2.362,5.178,5.178,0,0,1,.794-2.711,5.894,5.894,0,0,1,2.362-2.149,8.412,8.412,0,0,1,3.969-.833,9.678,9.678,0,0,1,3.311.5,7.419,7.419,0,0,1,2.246,1.239,6,6,0,0,1,1.3,1.452,3.009,3.009,0,0,1,.465,1.142.727.727,0,0,1-.233.639.88.88,0,0,1-.619.252h-.93a.852.852,0,0,1-.5-.136,1.338,1.338,0,0,1-.349-.367,9.59,9.59,0,0,0-.91-1.085,3.541,3.541,0,0,0-1.413-.852,7.388,7.388,0,0,0-2.362-.309,4.949,4.949,0,0,0-3.253.89,2.867,2.867,0,0,0-1.045,2.285,2.391,2.391,0,0,0,.445,1.433,3.792,3.792,0,0,0,1.684,1.123,24.519,24.519,0,0,0,3.679,1.045,14.547,14.547,0,0,1,3.931,1.356,5.047,5.047,0,0,1,2.052,1.916,5.229,5.229,0,0,1,.6,2.537,5.157,5.157,0,0,1-.891,2.923,6.082,6.082,0,0,1-2.652,2.13A10.6,10.6,0,0,1,245.9,80.693Z" fill="#f6921e"/>
      </g>
    </g>
  </g>
</svg>
