<svg xmlns="http://www.w3.org/2000/svg" width="271.943" height="132.634" viewBox="0 0 271.943 132.634"><g transform="translate(-249.058 -857.34)" opacity="0.87"><path d="M520.949,954.44a19.971,19.971,0,0,0-28.512-16.613,30.954,30.954,0,0,0-35.823-40.87c-.008-.115-.008-.229-.016-.344a42.271,42.271,0,0,0-81.288-13.006,34.444,34.444,0,0,0-43.48,29.144A32.978,32.978,0,0,0,291.3,928.559a14.15,14.15,0,0,0-15.429,9.02,23.243,23.243,0,1,0,9.007,42.522,9.971,9.971,0,0,0,12.767-1.2,32.959,32.959,0,0,0,44.131,4.685,25.294,25.294,0,0,0,32.511-2.186,31.145,31.145,0,0,0,38.772-4.84,31.843,31.843,0,0,0,34.69,4.654,31.657,31.657,0,0,0,44.207-7.568,19.975,19.975,0,0,0,29-19.211Z" fill="#fff"/><path d="M520.949,954.44a19.891,19.891,0,0,0-5.438-12.335,20.16,20.16,0,0,1-35.152,6.78,20.184,20.184,0,0,1-17.05,9.332h-.557a20.145,20.145,0,0,1-16.089-7.959,12.97,12.97,0,0,1-21.606,1.071,27.093,27.093,0,0,1-41.784-1.756,11.463,11.463,0,0,1-6.741,2.22,11.65,11.65,0,0,1-9.361-4.83,11.584,11.584,0,0,1-8.439,3.717,11.3,11.3,0,0,1-2.164-.215,11.6,11.6,0,0,1-11.186,14.678h-.557a11.545,11.545,0,0,1-10.324-6.32,21.947,21.947,0,0,1-13.039,4.321h-.556a21.947,21.947,0,0,1-12.244-3.76,12.244,12.244,0,0,1-11.119,7.037h-.556a12.387,12.387,0,0,1-6.773-2.033,15.933,15.933,0,0,1-5.16,4.115c-5.78,2.539-5.556,2.783-11.987,3.231a23.1,23.1,0,0,1-11.715-3.169l-4.7-3.629a23.3,23.3,0,0,1-6.352-11.91,23.25,23.25,0,0,0,34.57,27.075,9.971,9.971,0,0,0,12.767-1.2,32.959,32.959,0,0,0,44.131,4.685,25.294,25.294,0,0,0,32.511-2.186,31.145,31.145,0,0,0,38.772-4.84,31.843,31.843,0,0,0,34.69,4.654,31.657,31.657,0,0,0,44.207-7.568,19.975,19.975,0,0,0,29-19.211Z" fill="#e7f5fe"/></g></svg>