<svg xmlns="http://www.w3.org/2000/svg" width="142.787" height="316.033" viewBox="0 0 142.787 316.033"><g transform="translate(-1116.445 -1623.921)"><path d="M1128.409,1664.043c-.606.109-.689,2.81-.393,3.346,1.095,1.073,1.744,1.086,2.806,2.148a17.185,17.185,0,0,1-1.493-4.25C1129.234,1664.586,1129.332,1663.792,1128.409,1664.043Z" fill="#fecfb3"/><path d="M1119.591,1668.856c.024.028.056.048.072.066,2.712,2.3,6.222,4.788,7.287,5.589,1.993-.715,4.217-4.869,4.171-4.942-1.423-1.007-3.2-2.862-4.426-3.8-1.422-1.118-4.886-3.264-5.131-3.423-.721-.393-2.462-1.514-3.06-1.757a1.557,1.557,0,0,0-1.956.417c-.155.271-.378,1.025,1.363,2.052a35.318,35.318,0,0,1,3.285,2.138s-1.4.329-.917,1.3c0,0-1.257.18-.832,1.294C1119.447,1667.793,1118.822,1668.218,1119.591,1668.856Z" fill="#fecfb3"/><path d="M1166.394,1686.741a24.833,24.833,0,0,1,2.651-.37c5.441-.469,13.538-2.225,21.37-3.921,7.79-1.689,15.148-3.284,18.838-3.334a1.867,1.867,0,0,1,1.5.752c1.644,2.126,1.963,15.911,1.088,18.476-2.617,7.663-37.5,4.47-46.571,2.41-8.767-1.861-31.047-17.874-39.773-25.626l5.958-7.568c3.434,3.174,14.791,8.895,23.916,13.494C1159.547,1683.161,1163.507,1685.156,1166.394,1686.741Z" fill="#cef6fe"/><path d="M1155,1758.8c27.888-2.709,75.6-.454,85.786,4.388,11,5.227,20.86,35.309-.924,34.9-24.8-.465-60.444-4.668-87.252-18.315C1142.576,1774.659,1143.139,1759.948,1155,1758.8Z" fill="#01447a"/><path d="M1169.235,1859.134a25.206,25.206,0,0,0,1.45-3.8l6.917,1.593s.218,1.736.3,3.432c.1,1.964,2.733,4.407.847,6.505-.727.808-4.278.371-6.335.505-1.615.1-6.578.318-9.216.447-2.847.137-6.776-.7-6.852-2.218C1156.19,1862.384,1167.892,1861.558,1169.235,1859.134Z" fill="#801720"/><path d="M1170.455,1855.054l7.2.245s.192,3.36.245,5.056c0,0-6.866.99-7.988.345-1.37-.789-.677-1.566-.677-1.566A13.067,13.067,0,0,0,1170.455,1855.054Z" fill="#fecfb3"/><path d="M1171.934,1776.116c1.937,43.178,6.71,79.657,6.71,79.657-2.449,2.548-6.92,3.766-9.582,2.843,0,0-9.574-39.355-23.021-86.609C1140.554,1752.731,1171.561,1767.83,1171.934,1776.116Z" fill="#01447a"/><path d="M1211.077,1661.032c-.057,3.126,1.912,11.551,3.177,13.025-1.822,5.966-11.052,7.121-12.11,3.872,1.011-3.767-1.37-10.229-1.468-10.857C1202.991,1667.127,1210.38,1661.693,1211.077,1661.032Z" fill="#fecfb3"/><path d="M1256.819,1930.09l-5.161-2.245s-.9,1.678-1.656,2.775c-1.46,2.119-9.241,4.308-8.97,7.084.137,1.4,3.209,2.376,5.624,2.237a16.568,16.568,0,0,0,5.723-1.364c1.373-.6,4.486-2.239,4.916-3.154a4.015,4.015,0,0,0-.128-3.26C1257.27,1930.589,1256.819,1930.09,1256.819,1930.09Z" fill="#801720"/><path d="M1250.229,1927.826a2.407,2.407,0,0,1-.227,2.794s.093,1.038,2.047,1.878c1.106.474,5.118-.335,5.118-.335a21.223,21.223,0,0,0-.249-3.8Z" fill="#fecfb3"/><path d="M1214.254,1754.263c-.143,3.419,9.694,64.786,17.262,106.508a429.013,429.013,0,0,0,18.879,68.136c.091.253,5.1,2.378,7.244-.495,0,0-7.259-35.3-5.738-69.418,1.314-29.454,5.206-73.426,7.328-75.461l-6.377-29.27C1241.132,1756.186,1218.333,1755.595,1214.254,1754.263Z" fill="#015293"/><path d="M1210,1651.292c3.917,2.289,4.609,7.032,2.342,10.911-.022.042-2.354,4.031-2.354,4.031-1.709,2.927-8.913,4.9-11.147,2.868-5.285-4.8-.116-16.6.816-17.726C1202.267,1648.224,1206.356,1649.162,1210,1651.292Z" fill="#fecfb3"/><path d="M1190.8,1754.412c15.141,14.924,40.028,9.013,57.034,16.227l1.866-11.335,3.072,21.067c2.5,2.068,5.409,3.372,6.457,3.161,0-61.013-14.167-102.6-35.3-108.181-2.368-.622-9.68-1.3-9.68-1.3s-4.413,4.944-7.657,5.6c-2.232.449-4.45-1.731-4.45-1.731a64.13,64.13,0,0,0-7.057,3.559c-5.282,4.045-4.54,12.241-3.671,18.541.374,2.668.936,13.059.434,31.189-.015.607-.029,1.221-.052,1.843C1191.6,1739.308,1191.289,1746.426,1190.8,1754.412Z" fill="#336989"/><path d="M1206.593,1679.656c3.248-.657,7.66-5.6,7.66-5.6l4.924.355a21.135,21.135,0,0,1,4.754.94c-8.6,5.609-21.042,19.558-21.042,19.558s-5.153-7.734-6.479-14.3c.78-.471,5.733-2.685,5.733-2.685S1204.361,1680.107,1206.593,1679.656Z" fill="#cef6fe"/><path d="M1202.087,1645.385c7.558-4.184,16.236-.339,17.962,6.451,2.58,10.156-6.241,12.794-10.078,18.352,0,0,3.858-9.5,3.475-13.732-13.079-1.79-16.78-6.547-18.059-11C1195.387,1645.452,1197.511,1647.917,1202.087,1645.385Z" fill="#686868"/><path d="M1213.847,1660.951c.917.727.819,2.647.092,3.563a4.042,4.042,0,0,1-3.825.907,54.556,54.556,0,0,1,1.882-5.2A3.853,3.853,0,0,1,1213.847,1660.951Z" fill="#fecfb3"/><path d="M1191.8,1733.06c5.11-2.637,19.621-10.316,27.615-16.549a63.377,63.377,0,0,0,7.327-6.645c7.754-8.287,6-21.779-3.858-27.383-1.9-1.078-3.335-1.356-3.656-.067-3.05,12.106-21.382,39.924-27.376,48.8C1191.836,1731.824,1191.822,1732.438,1191.8,1733.06Z" fill="#275069"/><path d="M1177.268,1676.292a12.817,12.817,0,0,0-.638,3.807c-.214-1.421-1.063-1.159-1.5-2.613,0-.6,1.361-2.9,1.94-2.711C1177.984,1675,1177.522,1675.639,1177.268,1676.292Z" fill="#fecfb3"/><path d="M1164.725,1688.556a1.124,1.124,0,0,0,.864,1.333,1.357,1.357,0,0,0,1.5-.6l10.847-25.872-7.093-1.125Z" fill="#120d57"/><path d="M1186.484,1644.258l-9.771-1.746L1171.807,1668l9.787,1.748c6.119,1.094,12.177-3.731,13.524-10.774S1192.6,1645.35,1186.484,1644.258Z" fill="#f64c4a"/><path d="M1177.031,1642.555a3.251,3.251,0,0,0-.331-.031l0-.013-33.758-18.1-9.349,48.815,38.209-5.222v-.011c.031.007.058.02.088.027,3.642.7,7.745-4.437,9.163-11.468S1180.673,1643.253,1177.031,1642.555Z" fill="#f64c4a"/><path d="M1141.663,1624.03c-6.653-1.269-14.294,8.722-17.052,22.314-2.774,13.577.379,25.609,7.029,26.884,3.9.737,8.14-2.388,11.532-7.841a40.872,40.872,0,0,0,4.127-9.089,51.169,51.169,0,0,0,2.206-10.878,38.678,38.678,0,0,0-.5-11.35C1147.839,1628.546,1145.267,1624.708,1141.663,1624.03Z" fill="#9c3135"/><path d="M1144.192,1629.418c-5.307-1.012-11.4,6.954-13.607,17.793s.3,20.432,5.611,21.443c2.3.434,4.758-.823,6.976-3.267a40.872,40.872,0,0,0,4.127-9.089,51.169,51.169,0,0,0,2.206-10.878,38.678,38.678,0,0,0-.5-11.35C1147.906,1631.5,1146.261,1629.811,1144.192,1629.418Z" fill="#fff"/><path d="M1143.085,1643.733l6.579-.7a46.18,46.18,0,0,1-3.646,16.756l-5.478-3.5Z" fill="#9c3135"/><path d="M1143.3,1643.81c-1.685-.322-3.621,2.208-4.321,5.65s.1,6.489,1.781,6.81a2.5,2.5,0,0,0,2.216-1.037,12.945,12.945,0,0,0,1.31-2.887,16.313,16.313,0,0,0,.7-3.454,12.238,12.238,0,0,0-.159-3.6A2.233,2.233,0,0,0,1143.3,1643.81Z" fill="#f64c4a"/><path d="M1171.807,1667.991V1668l.062.007C1171.847,1668,1171.828,1668,1171.807,1667.991Z" fill="#004143"/><path d="M1179.886,1642.867c-.111-.021-.222-.02-.332-.031l0-.013-2.853-.312,0,.013a3.251,3.251,0,0,1,.331.031c3.642.7,5.445,6.963,4.027,13.995-1.341,6.647-5.08,11.6-8.562,11.529l2.141.238.022,0,0-.011c.03.006.059.02.088.025,3.641.7,7.745-4.436,9.163-11.466S1183.528,1643.565,1179.886,1642.867Z" fill="#120d57"/><path d="M1172.183,1667.928a22.232,22.232,0,0,1,1.456,3.181c.112.259,1.667,3.979,2.171,5.7a32.148,32.148,0,0,1,1.007,4.363,32.085,32.085,0,0,1-5.824,2.813c-.765-2.415-2.527-10.123-2.6-10.3-1.288-2.881-.649-3.964.2-3.686.208.069,0-2.126.873-2.041a1.027,1.027,0,0,1,.828-.8A3.417,3.417,0,0,1,1172.183,1667.928Z" fill="#fecfb3"/><path d="M1178.289,1680.314c1.166,4.527,7.605,15.493,12.78,24.3,1.119,1.906,2.208,3.761,3.212,5.5,3.3-3.666,7.07-8.344,10.75-12.912,5-6.209,9.72-12.074,12.559-14.431a14.118,14.118,0,0,1,2.67-1.7c3.956-1.2,14.042,3.654,11.423,15.031-1.658,7.2-22.251,23.781-32.182,29.735l-.011.008c-2.533,1.6-7.427,5.056-8.687,3.871a12.164,12.164,0,0,1-2.2-3.293c-6.362-6.488-16.308-31.8-19.42-42.986Z" fill="#cef6fe"/></g></svg>