<svg xmlns="http://www.w3.org/2000/svg" width="508.216" height="877.043" viewBox="0 0 508.216 877.043"><g transform="translate(-25.482 -961.957)"><g transform="translate(0.125 -3)"><path d="M308.649,1254.668c0,3.78-7.434,2.623-7.568,0s-.527-9.542-.458-14.364c.134-9.188.239-207.536.324-275.347h7.568c-.02,13.058-.036,25.612-.053,37.439,0,.685,0,1.365,0,2.042q-.006,2.943-.008,5.825c-.032,21.636-.073,40.531-.113,55.17,0,.68,0,1.345,0,2.006v0q-.012,3.062-.021,5.852c-.04,11.945-.081,164.04-.125,167.111C308.11,1245.681,308.649,1250.884,308.649,1254.668Z" fill="#775155"/><path d="M376.119,1069.735v-.742a4.545,4.545,0,0,0-.881-3.069,1.305,1.305,0,0,0-.183-.175,1.429,1.429,0,0,0-.207-.147,1.166,1.166,0,0,0-.948-.175c-.058,0-.122.006-.191.006H307.3a3.127,3.127,0,0,0-.32.022c-.726.108-.814.579-1.337,1.323-.049.068-.093.139-.137.209a3.793,3.793,0,0,0-.535,1.953v.739c0,1.952.547,3.6,2.332,3.616h66.4c.066,0,.13,0,.191-.008C375.563,1073.18,376.119,1071.625,376.119,1069.735Z" fill="#6b3e45"/><path d="M375.325,1065.9c-.087-.053-.177-.1-.27-.149a2.991,2.991,0,0,0-1.155-.311c-.064,0-.128-.005-.191-.005H307.3a3.127,3.127,0,0,0-.32.022c-.726.108-.814.579-1.337,1.323-.049.068-.093.139-.137.209.573.107,1.172.209,1.794.3,2.256.347,4.83.621,7.627.832,2.75.209,5.718.356,8.812.449,18.82.573,42.309-.815,50.159-2.344.515-.1.963-.2,1.338-.3C375.267,1065.912,375.3,1065.907,375.325,1065.9Z" fill="#1f1f3b" opacity="0.24"/><path d="M375.989,1006.7v-.742a4.541,4.541,0,0,0-.881-3.07,1.3,1.3,0,0,0-.183-.175,1.671,1.671,0,0,0-.206-.147,1.167,1.167,0,0,0-.948-.174c-.058,0-.122.005-.192.005H307.173a3.056,3.056,0,0,0-.32.023c-.727.107-.814.578-1.337,1.323-.05.068-.093.138-.137.209a3.79,3.79,0,0,0-.535,1.952v.739c0,1.952.547,3.6,2.332,3.617h66.4q.1,0,.192-.009C375.434,1010.145,375.989,1008.591,375.989,1006.7Z" fill="#6b3e45"/><path d="M375.2,1002.864c-.088-.054-.178-.105-.271-.15a2.963,2.963,0,0,0-1.154-.31c-.064,0-.128-.006-.192-.006H307.173a3.056,3.056,0,0,0-.32.023c-.727.107-.814.578-1.337,1.323-.05.068-.093.138-.137.209q.859.16,1.794.3c2.256.347,4.829.62,7.626.832,2.751.209,5.719.355,8.813.448,18.82.573,42.309-.815,50.159-2.344.515-.1.962-.2,1.337-.3C375.137,1002.878,375.167,1002.872,375.2,1002.864Z" fill="#1f1f3b" opacity="0.24"/><path d="M380.268,1254.668c.223,3.78-7.158,3.559-7.563,0a113.333,113.333,0,0,1-.349-12.917c.045-3.079.122-155.665.215-168.456q.024-3.245.049-6.844c0-.338.008-.676.008-1.018.105-14.706.235-33.558.377-55.17.012-2.282.032-4.6.044-6.938,0-.311,0-.618.008-.929.077-11.815.155-24.365.236-37.439h7.567c-.442,69.38-.81,268-.94,276.893C379.851,1246.53,380.046,1250.884,380.268,1254.668Z" fill="#775155"/><path d="M375.612,1133.522v-.742a4.548,4.548,0,0,0-.881-3.07,1.362,1.362,0,0,0-.183-.175,1.512,1.512,0,0,0-.207-.146,1.163,1.163,0,0,0-.948-.175c-.058,0-.122.005-.191.005H306.8a3.086,3.086,0,0,0-.319.023c-.727.107-.815.578-1.338,1.323-.049.068-.093.138-.137.209a3.789,3.789,0,0,0-.535,1.952v.739c0,1.953.547,3.6,2.332,3.617h66.4c.066,0,.13,0,.191-.008C375.056,1136.966,375.612,1135.412,375.612,1133.522Z" fill="#6b3e45"/><path d="M374.818,1129.685q-.131-.081-.27-.15a3.008,3.008,0,0,0-1.155-.31c-.064,0-.127-.006-.191-.006H306.8a3.086,3.086,0,0,0-.319.023c-.727.107-.815.578-1.338,1.323-.049.068-.093.138-.137.209.573.107,1.172.209,1.794.3,2.256.347,4.83.62,7.627.832,2.75.209,5.719.356,8.812.449,18.82.572,42.309-.816,50.159-2.345.515-.1.963-.2,1.338-.3C374.76,1129.7,374.789,1129.693,374.818,1129.685Z" fill="#1f1f3b" opacity="0.24"/><path d="M376.612,1194.522v-.742a4.548,4.548,0,0,0-.881-3.07,1.362,1.362,0,0,0-.183-.175,1.512,1.512,0,0,0-.207-.146,1.163,1.163,0,0,0-.948-.175c-.058,0-.122.005-.191.005H307.8a3.086,3.086,0,0,0-.319.023c-.727.107-.815.578-1.338,1.323-.049.068-.093.138-.137.209a3.789,3.789,0,0,0-.535,1.952v.739c0,1.953.547,3.6,2.332,3.617h66.4c.066,0,.13,0,.191-.008C376.056,1197.966,376.612,1196.412,376.612,1194.522Z" fill="#6b3e45"/><path d="M375.818,1190.685q-.131-.081-.27-.15a3.008,3.008,0,0,0-1.155-.31c-.064,0-.127-.006-.191-.006H307.8a3.086,3.086,0,0,0-.319.023c-.727.107-.815.578-1.338,1.323-.049.068-.093.138-.137.209.573.107,1.172.209,1.794.3,2.256.347,4.83.62,7.627.832,2.75.209,5.719.356,8.812.449,18.82.572,42.309-.816,50.159-2.345.515-.1.963-.2,1.338-.3C375.76,1190.7,375.789,1190.693,375.818,1190.685Z" fill="#1f1f3b" opacity="0.24"/></g><g transform="translate(0.125 -3)" opacity="0.77"><path d="M310.44,1128.377a16.415,16.415,0,0,0-10.2-23.116,22.853,22.853,0,0,0-22.594-26.244,22.746,22.746,0,0,0-14.242,4.988,16.711,16.711,0,0,0-24-4.37,21.064,21.064,0,0,0-38.952,9.679,24.039,24.039,0,0,0-32.707,31.74l-.08,0a17.7,17.7,0,1,0,10.922,31.632,24.122,24.122,0,0,0,37.706,4,33.624,33.624,0,0,0,47.515,2.2,24.458,24.458,0,0,0,38.171-2.495,14.635,14.635,0,1,0,8.462-28.019Z" fill="#fff"/><path d="M316.406,1131.794a14.37,14.37,0,0,1-24.9,1.171A19.465,19.465,0,0,1,265.658,1134a14.493,14.493,0,0,1-5.253,1h-.559a14.662,14.662,0,0,1-8.3-2.6,27.57,27.57,0,0,1-15.258,4.643c-.2,0-.387-.011-.581-.015a14.273,14.273,0,0,1-13.488,9.516,19.161,19.161,0,0,1-4.15-.532,14.435,14.435,0,0,1-6.358-3.7c-.02-.019-.037-.041-.057-.06a26.945,26.945,0,0,1-30.25-2.813,18.151,18.151,0,0,1-9.43,2.658,18.652,18.652,0,0,1-18.011-14.552,17.7,17.7,0,0,0,24.624,25.138,24.122,24.122,0,0,0,37.706,4,33.624,33.624,0,0,0,47.515,2.2,24.458,24.458,0,0,0,38.171-2.495,14.631,14.631,0,0,0,14.428-24.6Z" fill="#e7f5fe"/></g><g transform="translate(0.125 -3)" opacity="0.3"><path d="M163.4,1342.029a21.339,21.339,0,0,0-10.324,2.646,23.169,23.169,0,0,0-22.477-28.761c-.38,0-.759.011-1.135.028a30.623,30.623,0,0,0-61.2,1.681c0,.161.01.32.012.48a24.424,24.424,0,0,0-28.146,31.163,20.052,20.052,0,1,0,17.446,35.284,22.769,22.769,0,0,0,38.962-3.144,27.51,27.51,0,0,0,43.582,3.644,12.565,12.565,0,0,0,18.3-.705,21.451,21.451,0,1,0,4.98-42.316Z" fill="#fff"/><path d="M174.046,1364.867a17.21,17.21,0,0,1-13.757-7.016,17.044,17.044,0,0,1-13.5,6.584h-.432a17.213,17.213,0,0,1-9.439-2.839,10.62,10.62,0,0,1-20.581-2.183,10.687,10.687,0,0,1-6.751,2.416h-.432a10.687,10.687,0,0,1-7.527-3.117c-.218-.218-.422-.449-.619-.684a27.528,27.528,0,0,1-21.271,10.249,27.041,27.041,0,0,1-13.953-3.9,19.128,19.128,0,0,1-37.206-6.267c0-.139.008-.277.011-.416a20.05,20.05,0,0,0,28.981,26.859,22.769,22.769,0,0,0,38.962-3.144,27.51,27.51,0,0,0,43.582,3.644,12.565,12.565,0,0,0,18.3-.705,21.428,21.428,0,0,0,26.292-23.281A16.987,16.987,0,0,1,174.046,1364.867Z" fill="#e7f5fe"/></g><g transform="translate(0.125 -3)" opacity="0.4"><path d="M519.9,1232.923a17.569,17.569,0,0,0-24.158-21.386,25.676,25.676,0,0,0-50.025.393,17.211,17.211,0,0,0-23.378,19.934,16.714,16.714,0,1,0,3.459,27.463,14.857,14.857,0,0,0,22.608,3.877,23.142,23.142,0,0,0,36.851-4.4,17.379,17.379,0,0,0,16.464-.4,17.119,17.119,0,1,0,18.179-25.485Z" fill="#fff"/><path d="M521.924,1257.009a15.23,15.23,0,0,1-15.078-14.7,7.024,7.024,0,0,1-8.341-1.2,7.135,7.135,0,0,1-1.947-3.663,12.954,12.954,0,0,1-13.172.694c1.29,3.627-.569,8.51-5.578,8.51a5.607,5.607,0,0,1-5.212-3.016c-.327.375-.662.743-1.015,1.1-.061.06-.125.117-.186.176s-.116.125-.176.186a21.859,21.859,0,0,1-28.184,2.323,8.339,8.339,0,0,1-7.175,4.021H435.5a8.346,8.346,0,0,1-7.121-3.933,15.782,15.782,0,0,1-10.6,4.138,16.022,16.022,0,0,1-15.864-15.546,16.709,16.709,0,0,0,23.882,23.228,14.857,14.857,0,0,0,22.608,3.877,23.142,23.142,0,0,0,36.851-4.4,17.379,17.379,0,0,0,16.464-.4,17.116,17.116,0,0,0,31.751-6.865A15.107,15.107,0,0,1,521.924,1257.009Z" fill="#e7f5fe"/></g><g transform="translate(0.125 -3)"><path d="M392.961,1829.962c.238-4.461-.642-15.7-.642-15.7l-12.426.112,1.483,16.868,8.459,5.016Z" fill="#fff"/><path d="M393.843,1828.052c1.3-.3.762.881,1.252,2.746,1.121,4.27,17.49,4.322,19.959,4.7,1.275.194,3.358,6.468-2.983,6.468-5.482,0-23.044.062-29.043.025a2.736,2.736,0,0,1-2.662-1.967c-1.1-4.124-.83-10.531.843-10.674C383.736,1828.568,388.423,1829.305,393.843,1828.052Z" fill="#1f1f39"/><path d="M275.744,1815.31c3.731-2.719,12.169-10.64,12.169-10.64l-8.144-8.917-12.561,12.006,1.462,9.371Z" fill="#fff"/><path d="M277.847,1814.71c1.083.746-.212,1.122-1.39,2.686-2.7,3.578,7.871,15.453,9.171,17.483.671,1.048-3.009,6.621-7.118,2.034-3.554-3.966-14.985-16.631-18.844-20.994a2.517,2.517,0,0,1-.148-3.2c2.594-3.467,7.9-7.426,9.1-6.308C270.883,1807.733,273.33,1811.6,277.847,1814.71Z" fill="#1f1f39"/><path d="M393.823,1820.834c-.358.072-.713.141-1.06.21a105.268,105.268,0,0,1-12.129,1.743,29,29,0,0,1-3.929.11c-1.4-8.151-5.474-51.069-11.435-64.926-5.771-13.426-22.546-52.015-23.58-54.4-.034-.076-.053-.114-.053-.114-3.918,17.935-5.893,39.169-13.335,58.026-7.171,15.189-22.13,30.434-32.467,39.833-2.506,2.277-4.737,4.211-6.523,5.713-2.742,2.312-4.428,3.62-4.428,3.62-.721-.431-1.419-.854-2.094-1.282a66.036,66.036,0,0,1-9.78-7.151c-1.274-1.213-1.747-2.01-1.216-2.163,1.93-2.468,5.629-6.232,10.012-10.615,1.69-1.69,3.482-3.475,5.313-5.313,10.657-10.688,22.611-23.168,23.481-29.721.881-6.648,0-29.709.225-52.339q.022-2.4.065-4.783c.023-1.209.046-2.415.076-3.612.019-.794.038-1.587.065-2.373.011-.465.027-.931.042-1.388.015-.489.03-.977.049-1.461.042-1.148.088-2.289.142-3.41,0-.065.007-.126.007-.191.042-.942.092-1.876.141-2.8.107-1.868.225-3.692.363-5.458.015-.225.034-.446.053-.667.1-1.167.2-2.312.309-3.422.031-.3.061-.595.092-.888.061-.588.125-1.168.194-1.736.168-1.442.359-2.826.565-4.142.419-2.666,39.5-7.972,39.5-7.972l4-.976c7.015,18.747,26.586,85.39,27.99,95.173S394.292,1817.573,393.823,1820.834Z" fill="#3b3b4c"/><path d="M348.066,1716.808c-3.7-7.721-6.429-13.353-6.429-13.353,1.065-5.391,1.841-11.711,1.841-11.711S347.339,1707.594,348.066,1716.808Z" fill="#1f1f39" opacity="0.43"/><path d="M310.825,1702.063c4.806-3.8,17.864-17.69,22.218-32.025l-20.621-.164A317.319,317.319,0,0,0,310.825,1702.063Z" fill="#1f1f39" opacity="0.43"/><path d="M422.847,1539.906a22.01,22.01,0,0,0-1.4,3.863c-.3,1.268-1.1,2.236-1.158,3.828-.014.395-.024.8-.032,1.232-.011.471-.028.907-.051,1.315a54.444,54.444,0,0,1-.961,6.49s-8.17-.1-8.456-1.619c-.177-.933-.464,1.072-.011-.926.187-.837,1.139-5.436,1.268-6.34a10.717,10.717,0,0,0,.15-1.358c-.871,5.089-.054-.584-.329-1.595-.829-3.054-4.116-3.76-3.568-5.745.728-2.638,6.067,3.989,7.037-9.276.251-3.427,7.159-3.505,8.979,1.3C424.662,1532.009,424.018,1537.678,422.847,1539.906Z" fill="#efaea6"/><path d="M339.729,1574.071c.246,4.14-2.182,14.469-1.057,18.915l10.078.8s9.784.634,7.7-1.348c-2.777-2.65-1.68-1.313-2.9-3.168a24.678,24.678,0,0,1-2.2-5.731c-.935-3.255-1.73-6.874-2.1-8.648-.146-.693-.227-1.106-.227-1.106l.021-.814-5.309-8.555S339.46,1569.529,339.729,1574.071Z" fill="#efaea6"/><path d="M351.359,1583.537c-.935-3.255-1.73-6.874-2.1-8.648l-2.429-.676s-3.072.012-3.749,1.275C342.059,1577.4,346.494,1586.277,351.359,1583.537Z" fill="#1f1f3b" opacity="0.14"/><path d="M339.213,1582.011c3.8-1.136,4.171,5.78,8,6.114,2.023.177,1.576-.8,2.531-1.821.588-.632,1.14-1.341,2.07-.29,18.909,21.368-.781,75.244,1.626,79,1.968,3.075-14.034,9.786-24.085,7.086-13.784-3.7-12.946-20.187-12.546-23.335s9.278-56.664,9.278-56.664A75.489,75.489,0,0,0,339.213,1582.011Z" fill="#fff"/><path d="M402.511,1600.934c-12.755,7.748-29.211,5.573-33.636,10.124-2.793,2.871-6.482,13.86-5.4,19.26.633,3.175,1.38,16.791,1.62,19.084.547,5.353,1.782,16.35-2.781,24.665-.287.519-.593,1.03-.928,1.53a8.314,8.314,0,0,1-.665.873c-4.208,4.81-7.689,4.323-10.206,1.79-1.4-1.412-1.888-4.453-1.971-8.567v0c-.062-3.229.126-7.123.327-11.422.071-1.455.138-2.957.2-4.495a152.459,152.459,0,0,0-.2-18.852c-1.278-14.91,5.023-23.677,3.575-36-.228-1.919-.385-3.591-.491-5.038a.585.585,0,0,1-.008-.083c-.193-2.513-.236-4.342-.224-5.6a19.082,19.082,0,0,1,.1-2.182l.346.082a99,99,0,0,0,12.5,2.144,92.077,92.077,0,0,0,28.413-1.22,2.3,2.3,0,0,0,.739-.314c5.754-3.587,13.707-33.55,15.013-38.612,0,0,1.239.11,2.954.307.011,0,.027,0,.039,0l.11.012a64.244,64.244,0,0,1,8.295,1.372c.877.248,1.467.516,1.565.791C422.043,1551.294,414.578,1593.6,402.511,1600.934Z" fill="#0069a8"/><path d="M333.547,1568.546s1.166,1.23,2.7,2.723a37.619,37.619,0,0,0,5.8,4.9,2.921,2.921,0,0,0,.357.168c2.984,1.186,10.21-.951,14.1-5.141,1.671-1.8-5.857-4.956-4.222-6.59.941-.942-1.159-2.036-3.644-3.226a32.143,32.143,0,0,1-4.877-2.628c-.066-.051-.13-.1-.19-.151Z" fill="#efaea6"/><path d="M331.311,1573.182a2.794,2.794,0,0,0,.361,1.317c1.909,3.422,10.748,2.988,10.734,1.846v0c-.018-1.484-3.751-2.885-3.61-4.235.212-2.039,1.4-1.186,3.331-1.225,2.057-.042,4.011-1.882.8-2.57a5.254,5.254,0,0,1-1.8-.655c-1.008-.677-.385-1.548.6-2.325,1.491-1.174,1.867-.9,2.315-2.288s-2.532-1.089-1.1-3.124c.269-.388.554-.772.822-1.163,1.072-1.542,1.9-3.1.718-4.755q-.123-.171-.276-.346a4.11,4.11,0,0,0-1.788-1.3,2.22,2.22,0,0,0-.631-.1h0c-1.486-.016-2.655,1.565-3.481,2.843l-.185.291a.919.919,0,0,1-.672.412c-1.127.187-3.1-.748-4.63.952-1.5,1.667-.327,2.43-1.6,3.979-.768.934-3.936,1.17-4.164,3.557a4.889,4.889,0,0,0,.194,2.018C328.1,1568.952,331.208,1569.777,331.311,1573.182Z" fill="#191939"/><path d="M389.289,1566.335" fill="#efaea6"/><path d="M281.508,1557.63c-.869-2.092-4.566,5.581-5.137,4.437-.267-.539-4.924-10.8-8.4-18.541-2.029-4.512-3.662-8.169-3.791-8.543-.142-.4-.272-.794-.4-1.176a38.633,38.633,0,0,1-1.357-5.282c-.373-2.152-.314-3.505-.047-3.984,1.652-2.978,6.82-3.178,7.548-1.385,1.243,3.064,2.175,4.519,2.993,5.239a3.251,3.251,0,0,0,1.994.783c.24.031.488.063.747.122,1.825.413-.617,2.662-.747,5.848a9.423,9.423,0,0,0,.311,3.1q.082.276.177.554c.082.24.173.484.267.72.327.842.7,1.652,1.066,2.411.881,1.813,1.723,3.331,1.758,4.287C278.546,1547.746,281.421,1557.331,281.508,1557.63Z" fill="#efaea6"/><path d="M339.212,1582.01c-29.868,1.777-38.921-3.741-43.511-7.283-4.414-3.634-18.357-36.91-18.357-36.91s-9.779,4.7-9.941,6.657,10.879,33.521,18.862,42.073c6.773,6.888,21.235,10,26.156,17.128,2.446,3.544,3.346,22.541,3.655,28.529.415,5.826-.184,10.042-1.844,17.7h0c-2.453,11.7-5.946,25.868-2.714,28.089,6.025,4.152,14.041,4.275,19.345-1.875,4.4-5.1-.052-11.7,3.2-23.6a197.363,197.363,0,0,0,4.473-20.464C340.653,1618.759,339.851,1591.658,339.212,1582.01Z" fill="#0069a8"/></g><g transform="translate(0.125 -3)"><path d="M361.763,1289.856c-.086-5.371-2.079-13.07-3.719-14.51s-2.212-5.537-.112-4,5.361,2.236,3.7-2.617c-1.006-2.934-2.183-4.6-1.612-6.365.68-2.1,11.457-5.215,11.525,1.3s-2.081,11.387-.738,22.626C371.608,1293.005,361.763,1289.856,361.763,1289.856Z" fill="#efaea6"/><path d="M377.276,1578c.058-4.409-1.211-15.465-1.211-15.465l-11.851.564,2.058,16.588,8.262,4.64Z" fill="#fff"/><path d="M377.06,1576.824c1.094-.306.677.748,1.156,2.368,1.1,3.71,14.985,3.224,17.094,3.473,1.088.129,3.067,5.566-2.312,5.772-4.651.178-19.549.8-24.641.965a2.335,2.335,0,0,1-2.325-1.64c-1.071-3.582-1.061-9.212.353-9.392C368.5,1577.6,372.505,1578.1,377.06,1576.824Z" fill="#1f1f39"/><path d="M259.283,1530.025c4.139-.278,14.4-2.29,14.4-2.29l-1.539-11-15.376,3.164-3.645,8.049Z" fill="#fff"/><path d="M261.146,1530.6c.427,1.12-.724.773-2.387,1.412-3.805,1.461-1.962,15.977-2.023,18.208-.031,1.151-5.574,3.685-6.306-1.935-.633-4.861-2.719-20.422-3.378-25.744a2.425,2.425,0,0,1,1.506-2.575c3.674-1.426,9.61-1.891,9.935-.423C259.5,1521.695,259.365,1525.93,261.146,1530.6Z" fill="#1f1f39"/><path d="M344.222,1420.439c7.406,18.241,20.271,71.308,21.982,80.908s12.379,67.253,12.427,69-15.611,6.263-17.676,3.483-6.9-50.514-13.118-63.968-24.349-54.8-24.349-54.8c2.844,20.942,8.93,52.244,6.072,59.2-5.253,15.5-63.893,18.587-63.893,18.587-4.44-3.086-4.807-17.255-3.837-16.248,11.418-1.482,46.061-5.48,47.105-10.249,2.257-10.3-19.7-68.709-14.987-87.445,1.313-5.226,40.329-3.721,40.329-3.721Z" fill="#4b4b5b"/><path d="M323.488,1455.059c.6,6.023,1.918,12.333,2.817,19.3l-8.492-31.514A60.017,60.017,0,0,0,323.488,1455.059Z" fill="#1f1f39" opacity="0.62"/><path d="M315.393,1323.987c4.69,5.565,6.568,6.269,7.04,6.985-.743,1.339-1.511-.242.558,2.844,3.007,4.484,4.9,8.256-2.475,7.553l2.964,4.487,2.183,7.351-9.238,3.69c-1.15-6.816-15.059-22.339-13.667-27.764S314.023,1322.361,315.393,1323.987Z" fill="#efaea6"/><path d="M314.421,1337.41c-3.164-.326-3.639-5.06-.11-4.041,1.941-1.387,1.69-1.522.423-3.3s.614-2,1.269-4.218,1.91-4.084-.744-5.312a3.057,3.057,0,0,0-1.148-2.5c-1.2-.7-4.443-1.362-5.333.918s.268,3.475-3.2,2.694-6,.817-5.017,4.469c1.14,4.219-1.865,1.964-1.124,6.184,1.329,7.568,5.061,4.982,6.847,8.663s5.194,6.531,7.646,4.8S315.6,1339.193,314.421,1337.41Z" fill="#6d3522"/><path d="M320.516,1341.369c-2.481-.849-3.127-.172-3.3.476-1.533,5.825,2.637,4.283,5.368,5.931s.231-2.842.231-2.842Z" fill="#1f1f39" opacity="0.16"/><path d="M343.7,1370.9a27.708,27.708,0,0,0-2.731,5.775c.2,10.138-1.91,16.594.993,33.126l.011.055c.305,1.742.668,3.6,1.1,5.577,0,.022.011.044.014.066q.507,2.347,1.137,4.946c-13.419,12.84-50.454,9.932-51.642,2.328s2.394-52.181,4.176-57.658c2.318-7.135,6.787-13.144,14.321-16.294,10.743-4.488,15.641-.319,22.428-2.464,8.15-2.577,16.572-16.488,20.11-24.4,2.845-6.364,6.259-38.746,6.259-38.746,1.386-1.573,11.359-4.748,12.928-4.151,1.026,11.982-1.338,30.952-6.1,48.17-3.157,11.406-17.02,32.924-23,43.671Z" fill="#0069a8"/><path d="M343.711,1370.866c-.007,0-.011.011-.011.026v0a27.708,27.708,0,0,0-2.731,5.775c.2,10.138-1.91,16.594.993,33.126l.011.055c.253,1.749.613,3.6,1.1,5.577,0,.022.011.044.014.066-.531.007-1.675-2.886-2.449-4.1-3.186-4.953-7.428-28.546-6.5-30.567C335.051,1378.855,338.439,1373.095,343.711,1370.866Z" fill="#1f1f39" opacity="0.28"/></g><g transform="translate(0.125 -3)"><path d="M82.273,1688.188a60.4,60.4,0,0,1,10.65-5.881c4.13-1.87,8.689-3.683,13.228-5.527s20.624-9.839,23.236-12.18c-20.116,19.931-33.489,54.585-50.837,40.565C72.065,1699.923,76.634,1692.348,82.273,1688.188Z" fill="#ffde91"/><path d="M101.624,1711.067a47.162,47.162,0,0,1,14.584-.049,54.087,54.087,0,0,1,11.965,3.056c-2.292-.691-5.43-.212-9.037.886-8.676,1.7-15.018,8.043-21.361,13.592-3.964,2.378-7.135,7.135-12.684,4.756-5.55-1.585-.793-11.891,4.169-16.762A24.683,24.683,0,0,1,101.624,1711.067Z" fill="#ffde91"/><path d="M128.173,1714.074a5.717,5.717,0,0,1,.949.379C128.814,1714.323,128.492,1714.2,128.173,1714.074Z" fill="#71d794"/><path d="M46.772,1723.718c5.168-2.5,13.214-2.5,16.12-1.5,9.073,3.1,12.678,10.87,7.921,16.42-4.757,7.135-22.984-7.971-38.047,6.96C31.974,1738.159,35.389,1729.231,46.772,1723.718Z" fill="#ffde91"/><path d="M105.7,1739.651c6.343-1.585,13.478-1.585,19.382,1.994-6.273-3.078-12.235.978-17.3,6.349-5.256,5.927-10.013,20.2-16.355,12.27S96.983,1742.029,105.7,1739.651Z" fill="#ffbc5a"/><path d="M62.13,1765.114c3.823-.609,7.138-.136,9.678,1.475,7.5,4.754,8.972,13.5,1.4,15.62-3.626,1.016-7.512-2.057-11.33-4.237s-7.7-3.812-11.668-1.041C51.354,1769.966,54.548,1766.321,62.13,1765.114Z" fill="#ffde91"/><path d="M121.114,1760.342c-1.111-.237-3.727,5.877-6.927,12.851-2.934,4.512-2.934,10.061-6.9,14.026-3.171,3.17-8.72,3.17-8.72-.793C97.775,1774.534,105.7,1756.3,121.114,1760.342Z" fill="#ffbc5a"/><path d="M65.568,1800.829a37.208,37.208,0,0,0,10.7-2.016c4.856-1.793,11.253,1,9.107,7.036-3.1,8.727-13.489,8.871-20.9,5.946-7.531-2.973-10.306,2.18-10.306,2.18S52.586,1801.768,65.568,1800.829Z" fill="#ffbc5a"/><path d="M80.334,1753.723c-.6-3.555-1.139-9.316-1.573-12.888-1.3-10.72-3.68-26.454-.211-35.67,2.276-6.05,12.883-16.748,19.225-18.143-5.252,2.537-16.873,13.833-18.134,18.6-2.641,8.813-1.357,16.741-.629,25.684.364,4.471.892,8.936,1.33,13.373s3.262,15.686,3.262,15.686c-3.27-29.532,11.034-40.593,19.444-44.1,3.112-1.3,6.124-1.4,9.4-1.73.16-.026.282.13.122.16a26.728,26.728,0,0,0-13.13,4.432,36.833,36.833,0,0,0-8.455,9.036,42.187,42.187,0,0,0-5.074,10.9c-5.573,15.654,2.486,31.647,6.449,47.5-.923-11.038-.593-21.256,2.613-31.552,1.275-4.093,6.808-12.05,11.527-13.774-20.613,14.27-12.09,44.495-9.712,65.9,3.238-11.33,8.234-32.267,13.676-39.738-5.55,18.234-17.937,43.008-7.928,58.666-3.963-6.342-6.634-2.081-6.634-2.081s-.122-13.057-1.743-13.774c-6.045-2.676-19.37-7.928-26.506-3.172,7.928-6.342,27.32.694,27.32.694s-13.842-24.478-24.136-31.943a48.29,48.29,0,0,0-11.112-6.012c6.425,1.267,9.743,2.772,12.947,6.086,5.318,5.011,12.522,13.643,19.855,21.959-2.379-15.063-10.424-38.039-18.234-50.7-2-3.361-12.685-26.6-24.874-16.989C65.013,1716.066,77.946,1751.754,80.334,1753.723Z" fill="#5c5e67"/><path d="M170.505,1695.239c-3.244.933-5.429,3.882-8.9,10.838-5.229,10.471-16.288,19.9-29.071,20.068C142.7,1710.359,133.981,1702.9,170.505,1695.239Z" fill="#ffde91"/><path d="M141.663,1729.97c8.723-1.575,18.657.355,24.926,6.721-1.429-1.646-6.85-1.888-9.876-1.466-11.351.822-16.73,20.169-26.763,9.97C123.65,1738.792,135.351,1731.109,141.663,1729.97Z" fill="#ffbc5a"/><path d="M107.817,1722.985c10.225,1.421,10.436,13.926,7.711,15.733-5.378,3.57-7.7-5.07-15.1-6.449-2.464-.459-8.516,1.112-10.763,2.223C95.623,1731.267,94.829,1721.18,107.817,1722.985Z" fill="#ffbc5a"/><path d="M126.987,1756.289a32.856,32.856,0,0,1,13.494-5.131c6.509.242,10.7,4.328,13.78,9.016-3.038-4.281-9.139-2.844-15.336-.3-5.519,2.33-12.526,8.1-15.762,5.143C120.814,1762.259,123.1,1758.963,126.987,1756.289Z" fill="#ffde91"/><path d="M154.261,1760.174c.116.162.228.331.334.51C154.487,1760.513,154.373,1760.344,154.261,1760.174Z" fill="#71d794"/><path d="M102.829,1748.1c4.79,2.068,7.737,7.475,7.732,12.051s-2.991,9.793-8.508,6.767c-3.64-2-1.641-5.161-4.206-9.335s-5.971-7.64-8.462-4.636C92.9,1747.612,97.389,1746.1,102.829,1748.1Z" fill="#ff3b00"/><path d="M143.025,1774.728c-5.9.221-7.007,2.252-10.112,8.479-3.756,7.535-9.324,12.786-15,9.09-3.006-1.958-.709-9.726,2.245-13.1C125.379,1773.23,135.256,1769.005,143.025,1774.728Z" fill="#ffde91"/><path d="M101.682,1796.168c-4.146,4.246-9.83,2.376-13.287-.339s-4.783-14.682-4.783-14.682,9.2,4.565,15.082,5.661C102.634,1788.049,105.589,1792.165,101.682,1796.168Z" fill="#ff3b00"/><path d="M104.409,1799.634c2.97,5.434,3.272.68,3.348-3.284.19-9.964,1.414-35.837-10.2-45.341,12.08,6.333,9.7,23.132,11.846,35.51,1.1-16.158,17.72-53.205-6.357-59.48,12.106.728,15.059,13.708,13.811,25.413,5.438-12.757,14.569-28.536,26.266-36.556-12.157,10.485-21.776,30.632-27,44.959,7.031-13.053,25.135-28.431,38.67-26.957.115.014.175.145.059.153-23.478,1.076-43.184,28.345-43.962,51.663,4.056-5.324,11.572-32.068,31.16-31.254-19.85,1.144-32.134,33.375-33.672,51.2,5.292-8.521,11.314-16.09,16.728-23.241,2.031-2.683,4.846-5.473,7.879-6.693-12.616,12.95-27.641,37.09-27.011,47.754l-2.633-.679s8.286-22.138-12.572-34.034C97.944,1788.57,102.119,1795.443,104.409,1799.634Z" fill="#5c5e67"/><path d="M84.756,1811.919h30.312a1.724,1.724,0,0,1,1.681,2.106l-1.123,4.935a1.724,1.724,0,0,1-1.681,1.342H85.879a1.724,1.724,0,0,1-1.681-1.342l-1.124-4.935A1.725,1.725,0,0,1,84.756,1811.919Z" fill="#b54a60"/><path d="M111.092,1837.221a2.332,2.332,0,0,1-2.308,2H91.04a2.333,2.333,0,0,1-2.309-2L86.292,1820.3h27.24Z" fill="#ff5f85"/></g></g></svg>