<svg xmlns="http://www.w3.org/2000/svg" width="1301.375" height="585.655" viewBox="0 0 1301.375 585.655"><g transform="translate(-35.067 -238.997)"><path d="M381.987,767.981c-15.364.807-27.177,12.865-27.164,27.451a26.78,26.78,0,0,0,8.441,19.5,28.842,28.842,0,0,0,20.066,7.947l280.462-.1-.051-54.9Z" fill="#ff5f85"/><path d="M852.106,817.3c-12.83.015-23.232-9.931-23.248-22.2-.009-11.11,8.526-20.32,19.668-21.964l-200.8.1c-12.233.643-21.926,10.332-21.914,22.191,0,12.269,10.418,22.214,23.248,22.2l203.708-.087V817.3Z" fill="#d9e2ff" fill-rule="evenodd"/><path d="M649.056,812.381a18.409,18.409,0,0,1-12.808-5.041,16.4,16.4,0,0,1-5.193-11.912c-.006-9.006,7.44-16.454,16.956-16.96l214.069-.1-.013-10.495-214.341.109c-15.364.807-27.178,12.865-27.167,27.451a26.789,26.789,0,0,0,8.442,19.5,28.845,28.845,0,0,0,20.066,7.947l213.05-.1-.011-10.495Z" fill="#b54a60"/><path d="M578.378,795.374l13.2,10.137,13.2-10.137-13.2-10.138Z" fill="#b54a60"/><path d="M750.517,723.482c12.456.655,22.036,10.431,22.025,22.258a21.709,21.709,0,0,1-6.844,15.806,23.394,23.394,0,0,1-16.27,6.444L522.034,767.9l.04-44.51Z" fill="#71d794"/><path d="M369.35,763.473c10.4.011,18.838-8.053,18.85-18,.007-9.008-6.913-16.474-15.947-17.808l162.806.079c9.917.521,17.776,8.377,17.766,17.993,0,9.947-8.446,18.01-18.849,18l-165.163-.071v-.193Z" fill="#d9e2ff" fill-rule="evenodd"/><path d="M533.982,759.482a14.928,14.928,0,0,0,10.384-4.088,13.3,13.3,0,0,0,4.211-9.659c0-7.3-6.033-13.34-13.749-13.75L361.265,731.9l.01-8.509,173.785.088c12.457.655,22.036,10.431,22.026,22.258a21.716,21.716,0,0,1-6.844,15.806,23.4,23.4,0,0,1-16.269,6.444L361.234,767.9l.01-8.509Z" fill="#17cb6f"/><path d="M491.125,781.473l-7.375-6.407-7.38,6.2V739.922h14.755Z" fill="#4b6dff" fill-rule="evenodd"/><path d="M591.287,745.693l-10.7,8.219-10.7-8.219,10.7-8.22Z" fill="#17cb6f"/><path d="M570.057,676.147c-11.352-1.235-75.723,15.871-101.481,27.748-10.957,5.054-6.6,19.3,4.7,20.847,30.174,4.118,65.648-3.736,89.509-11.549C583.745,706.327,582.313,677.48,570.057,676.147Z" fill="#ffbc5a"/><path d="M486.8,812.6l-6.914-1.949a25.6,25.6,0,0,1-1.653,3.775c-1.477,2.386-13.35,2.646-13.35,5.9,0,1.537,3.933,2.578,6.816,2.578,2.676,0,7.7.027,9.341,0,2.089-.034,5.657.583,6.433-.2,2.011-2.028-.537-4.626-.537-6.617C486.936,814.369,486.8,812.6,486.8,812.6Z" fill="#505159"/><path d="M479.666,810.363a13.211,13.211,0,0,1-1.433,4.064s-.739.752.607,1.616c1.1.708,8.1.045,8.1.045.029-1.719,0-5.125,0-5.125Z" fill="#ff8eaa"/><path d="M579.8,676.534c-11.418,0-73.554,23.992-97.871,38.594-10.344,6.212-4.462,19.905,6.934,20.213,30.442.822,70.544-4.791,93.418-15.148C602.369,711.095,592.127,676.531,579.8,676.534Z" fill="#ffde91"/><path d="M475.819,727.68c1.155,49.722,2.019,86.734,2.019,86.734,2.375,1.582,6.477,1.62,9.842,1.082,0,0,7.213-37.956,13.959-81.187C506.088,705.8,475.347,707.4,475.819,727.68Z" fill="#ffde91"/><path d="M465.915,674.066c-.212.621,2.257,2.1,2.909,2.1,1.565-.465,1.286-1.379,2.818-1.6a13.779,13.779,0,0,1-4.093-.706C466.846,673.58,466.16,673.079,465.915,674.066Z" fill="#fd5b88"/><path d="M468.1,675.428c-1.857.533-5.866,2.189-6.146,2.307a24.018,24.018,0,0,0-3.428,1.553,3.677,3.677,0,0,0-.829,2.029,1.1,1.1,0,0,0,.855.893c-.1.939,2.266.725,2.192.948-.3.917.857,1.611,3.965.239.186-.082,8.486-1.942,11.089-2.754a34.42,34.42,0,0,0-3-6.278A34.37,34.37,0,0,0,468.1,675.428Z" fill="#fd5b88"/><path d="M515.679,651.888a5.032,5.032,0,0,0-1.522.349c-7.558,3.239-33.445,20.084-41.856,22.206a27.285,27.285,0,0,1,2.449,6.49c13.764-3.767,46.976-17.009,47.081-22.71C521.928,653,518.252,651.68,515.679,651.888Z" fill="#fd5b88"/><path d="M529.519,608.971a1.952,1.952,0,0,0-1.5.9c-2.021,3.3-4.723,10.716-7.583,18.567-2.876,7.893-5.848,16.055-8.475,21.142a25.6,25.6,0,0,0-1.157,2.556c-3.02,1.674-7,4.069-11.21,6.6-9.181,5.519-20.607,12.388-25.34,13.655l3.377,9.517c11.752-3.4,38.41-14.2,44.967-20.929,6.9-6.89,29.244-36.032,23.914-42.639C544.724,616.13,532.324,608.7,529.519,608.971Z" fill="#acb7d0"/><path d="M552.77,580.58c-.851.72-8.129,6.879-10.812,6.659.073.734.729,8.031-.7,12.332,1.007,3.841,11.791,3.129,14.313-3.667C554.2,594.11,552.491,584.2,552.77,580.58Z" fill="#ff8eaa"/><path d="M566.7,598.067c-2.8-.473-11.135-2.163-11.135-2.163s-5.456,5.433-9.269,5.973c-2.619.37-5.044-2.306-5.044-2.306a48.794,48.794,0,0,0-6.868,2.973c-6.4,4.329-7.35,11.022-6.087,16.321,4.407,18.469-1.4,65.653-1.4,65.653,7.8,3.078,53.385,27.557,66.827,14.961,0,0,3.643-51.99-11.869-85.943C578.854,606.96,575.11,599.486,566.7,598.067Z" fill="#c7cfe4"/><path d="M541.286,567.554c-4.909,0-8.717,2.244-9.482,6.933-.274,1.68,1.458,16.547,9.573,18.261,3.43.725,9.5-5.473,9.5-9.411,0,0,0-5.37,0-5.424C550.875,572.692,546.559,567.552,541.286,567.554Z" fill="#ff8eaa"/><path d="M453,800.92l-7.061-1.325a25.569,25.569,0,0,1-1.31,3.908c-1.258,2.507-13.061,3.824-12.77,7.066.136,1.529,4.147,2.216,7.019,1.96,2.664-.239,7.677-.661,9.3-.833,2.077-.221,5.687.075,6.39-.773,1.819-2.2-.949-4.561-1.126-6.543C453.289,802.667,453,800.92,453,800.92Z" fill="#505159"/><path d="M445.693,799.325a13.258,13.258,0,0,1-1.067,4.178s-.67.814.75,1.555c1.162.605,8.067-.678,8.067-.678-.125-1.715-.457-5.1-.457-5.1Z" fill="#ff8eaa"/><path d="M460.906,714.789c-9.254,48.866-16.137,85.243-16.137,85.243,1.989,2.043,6.586,2.967,9.96,1.773,0,0,14.418-34.272,30.045-75.14C495.077,699.717,464.681,694.857,460.906,714.789Z" fill="#ffbc5a"/><path d="M501.845,699.173l0,.013a2.256,2.256,0,0,0,2.25,2.249h52.912a2.256,2.256,0,0,0,2.25-2.249v-.013Z" fill="#b1bfd9"/><path d="M496.132,652.518a4.105,4.105,0,0,0-4.06-3.015l-32.466-.014v51.382l44.83.564c2.747,0,2.907-2.122,2.725-2.857Z" fill="#b1bfd9"/><path d="M493.8,650.447a1.319,1.319,0,0,0-1.271-.967H435.22a1.319,1.319,0,0,0-1.272,1.672L444.7,696.665a6.508,6.508,0,0,0,6.271,4.77H504.33a1.32,1.32,0,0,0,1.272-1.672Z" fill="#e2e8f1"/><path d="M569.486,612.367c-3.647,9.318-10.362,17.01-15.471,26.163-7.1,12.716-14.753,31.32-26.257,40.086,12.409-2.367,24.525-6.5,30.108-11.812,8.016-7.622,25.72-38.976,13.178-51.311A9.769,9.769,0,0,1,569.486,612.367Z" fill="#5a5d71" opacity="0.41"/><path d="M502.563,679.782c-.727-.2-1.465-.624-1.6.384-.143.64,2.469,1.84,3.118,1.773,1.506-.631,1.131-1.51,2.629-1.9A13.839,13.839,0,0,1,502.563,679.782Z" fill="#ff8eaa"/><path d="M507.837,679.723a34.523,34.523,0,0,0-4.558,1.562c-1.788.73-5.6,2.808-5.862,2.954a24.15,24.15,0,0,0-3.24,1.913,3.666,3.666,0,0,0-.606,2.107,1.105,1.105,0,0,0,.946.8c.005.942,2.331.477,2.28.707-.2.943,1.026,1.508,3.969-.189.176-.1,8.228-2.843,10.728-3.93A34.461,34.461,0,0,0,507.837,679.723Z" fill="#ff8eaa"/><path d="M557.27,609.985c-3.352,6.825-8.093,30.9-12.568,41.994-5.488,13.6,5.962,12.576,8.955,8.994,7.878-9.437,25.01-39.071,20.543-43.661C572.262,615.322,557.878,608.749,557.27,609.985Z" fill="#fd5b88"/><path d="M548.054,652.768a4.955,4.955,0,0,0-1.475.512c-7.167,4.032-31.094,23.561-39.229,26.575a27.218,27.218,0,0,1,3.133,6.189c13.279-5.224,44.876-21.96,44.368-27.639C554.387,653.2,550.59,652.284,548.054,652.768Z" fill="#ff8eaa"/><path d="M557.994,608.461a1.953,1.953,0,0,0-1.4,1.061c-1.654,3.5-9.633,35.865-11.7,41.205a25.749,25.749,0,0,0-.875,2.665c-2.823,1.989-6.527,4.8-10.435,7.763-8.535,6.473-19.157,14.531-23.727,16.3l4.38,9.1c11.32-4.644,36.663-18.244,42.459-25.64,6.119-7.594,25.2-38.968,19.193-44.963C573.879,613.944,560.753,607.893,557.994,608.461Z" fill="#c7cfe4"/><path d="M553.273,564.251c-7.173-6.507-18.292.38-18.292.38-8.461,1.613-6.624,14-2.741,15.8-1.835-9.109,4.344-12.055,4.344-12.055,11.471-.165,15.46,13.508,14.689,17.049C551.273,585.425,564.075,574.044,553.273,564.251Z" fill="#688bff"/><path d="M591.674,579.7c-3.635-2.24-6.181-2.451-9.612-11.917-11.386-31.4-33.612-10.525-30.622-2.276.735,2.029,2.212,2.923,3.285.261,1.81-4.494,11.135-10.678,10.7,10.535-.115,5.6-4.946,14.138,12.268,19.325,15.572,4.692,5.607,11,7.436,14.682C589.826,619.769,609.619,590.77,591.674,579.7Z" fill="#688bff"/><path d="M553.36,561.179a3.271,3.271,0,0,0-1.955-.5,4.211,4.211,0,0,0-2.511,1.226,17.3,17.3,0,0,1,6.376,4.374C556.04,564.592,555.981,562.769,553.36,561.179Z"/><path d="M1167.055,534.7c5.412-3.992,12.516-7.7,20.445-11.29s16.683-7.071,25.4-10.611,39.595-18.889,44.61-23.384c-38.619,38.264-64.292,104.792-97.6,77.876C1147.457,557.228,1156.23,542.686,1167.055,534.7Z" fill="#1e94fe"/><path d="M1204.206,578.623a90.559,90.559,0,0,1,28-.094,103.759,103.759,0,0,1,22.969,5.867c-4.4-1.328-10.424-.407-17.349,1.7-16.656,3.263-28.831,15.439-41.008,26.093-7.61,4.566-13.7,13.7-24.352,9.132-10.653-3.045-1.522-22.83,8.005-32.181C1186.869,583.452,1195.184,580.187,1204.206,578.623Z" fill="#1e94fe"/><path d="M1255.173,584.4a10.812,10.812,0,0,1,1.823.727C1256.405,584.874,1255.787,584.637,1255.173,584.4Z" fill="#71d794"/><path d="M1098.9,602.909c9.921-4.8,25.367-4.791,30.947-2.882,17.418,5.962,24.339,20.87,15.207,31.525-9.133,13.7-44.125-15.3-73.043,13.361C1070.491,630.635,1077.048,613.494,1098.9,602.909Z" fill="#1e94fe"/><path d="M1212.036,633.5c12.177-3.044,25.875-3.044,37.209,3.828-12.043-5.909-23.488,1.876-33.2,12.188-10.091,11.379-19.224,38.775-31.4,23.556S1195.3,638.064,1212.036,633.5Z" fill="#4b6dff"/><path d="M1128.385,682.381c7.339-1.168,13.7-.26,18.579,2.833,14.4,9.126,17.224,25.918,2.689,29.988-6.959,1.949-14.42-3.95-21.751-8.134s-14.785-7.319-22.4-2C1107.7,691.7,1113.829,684.7,1128.385,682.381Z" fill="#1e94fe"/><path d="M1241.622,673.221c-2.133-.455-7.155,11.281-13.3,24.671-5.633,8.662-5.633,19.316-13.244,26.926-6.087,6.088-16.741,6.088-16.741-1.522C1196.816,700.466,1212.036,665.46,1241.622,673.221Z" fill="#4b6dff"/><path d="M1134.985,750.948c7.149-.517,13.592-1.3,20.547-3.87,9.323-3.442,21.6,1.922,17.484,13.508-5.961,16.754-25.9,17.03-40.124,11.414-14.458-5.707-19.785,4.185-19.785,4.185S1110.063,752.75,1134.985,750.948Z" fill="#4b6dff"/><path d="M1163.333,660.514c-1.16-6.825-2.187-17.885-3.021-24.744-2.5-20.58-7.064-50.786-.405-68.479,4.371-11.614,24.734-32.152,36.909-34.83-10.083,4.869-32.394,26.557-34.815,35.7-5.069,16.92-2.6,32.14-1.207,49.308.7,8.583,1.713,17.155,2.554,25.674s6.263,30.114,6.263,30.114c-6.278-56.7,21.182-77.93,37.329-84.662,5.973-2.49,11.756-2.678,18.038-3.32.306-.05.54.249.234.307-8.873.368-17.492,3.593-25.208,8.508a70.75,70.75,0,0,0-16.232,17.348,81.007,81.007,0,0,0-9.74,20.922c-10.7,30.053,4.772,60.755,12.38,91.2-1.771-21.192-1.139-40.807,5.017-60.573,2.447-7.858,13.069-23.134,22.129-26.445-39.571,27.4-23.21,85.423-18.644,126.516,6.215-21.752,15.806-61.947,26.254-76.289-10.654,35.005-34.435,82.567-15.219,112.627-7.61-12.175-12.736-3.995-12.736-3.995s-.235-25.067-3.347-26.444c-11.6-5.137-37.187-15.22-50.885-6.09,15.219-12.175,52.448,1.334,52.448,1.334s-26.574-46.993-46.337-61.326a92.728,92.728,0,0,0-21.331-11.54c12.334,2.431,18.7,5.32,24.854,11.683,10.21,9.62,24.04,26.191,38.118,42.156-4.566-28.918-20.011-73.026-35.006-97.323-3.833-6.453-24.351-51.072-47.753-32.617C1133.92,588.219,1158.747,656.733,1163.333,660.514Z" fill="#5c5e67"/><path d="M1336.442,548.236c-6.227,1.792-10.422,7.452-17.093,20.807-10.038,20.1-31.27,38.206-55.81,38.526C1283.055,577.264,1266.325,562.944,1336.442,548.236Z" fill="#1e94fe"/><path d="M1281.073,614.912c16.745-3.024,35.816.681,47.853,12.9-2.745-3.161-13.152-3.626-18.961-2.815-21.792,1.578-32.118,38.72-51.38,19.14C1246.492,631.849,1268.955,617.1,1281.073,614.912Z" fill="#688bff"/><path d="M1216.094,601.5c19.63,2.729,20.035,26.735,14.8,30.205-10.325,6.852-14.79-9.735-28.985-12.381-4.731-.883-16.349,2.133-20.664,4.266C1192.685,617.4,1191.16,598.037,1216.094,601.5Z" fill="#4b6dff"/><path d="M1252.9,665.439a63.1,63.1,0,0,1,25.906-9.849c12.5.464,20.542,8.309,26.457,17.308-5.834-8.219-17.547-5.461-29.444-.57-10.594,4.474-24.047,15.549-30.259,9.874C1241.046,676.9,1245.435,670.573,1252.9,665.439Z" fill="#1e94fe"/><path d="M1305.259,672.9c.221.312.437.635.641.979C1305.691,673.548,1305.473,673.224,1305.259,672.9Z" fill="#71d794"/><path d="M1206.518,649.714c9.2,3.972,14.855,14.35,14.845,23.136s-5.743,18.8-16.335,12.991c-6.987-3.833-3.151-9.907-8.074-17.921s-11.463-14.668-16.246-8.9C1187.458,648.783,1196.074,645.874,1206.518,649.714Z" fill="#1e94fe"/><path d="M1283.687,700.84c-11.321.423-13.453,4.321-19.413,16.278-7.21,14.464-17.9,24.545-28.8,17.449-5.771-3.759-1.361-18.672,4.31-25.151C1249.811,697.964,1268.772,689.852,1283.687,700.84Z" fill="#4b6dff"/><path d="M1204.317,742c-7.96,8.15-18.873,4.562-25.509-.652s-9.182-28.185-9.182-28.185,17.66,8.764,28.954,10.866C1206.145,726.413,1211.818,734.315,1204.317,742Z" fill="#4b6dff"/><path d="M1209.553,748.654c5.7,10.432,6.281,1.3,6.426-6.3.365-19.129,2.715-68.8-19.59-87.048,23.192,12.159,18.629,44.409,22.742,68.174,2.114-31.022,34.02-102.143-12.2-114.19,23.24,1.4,28.909,26.316,26.513,48.788,10.441-24.491,27.97-54.784,50.426-70.181-23.338,20.129-41.8,58.807-51.831,86.313,13.5-25.059,48.255-54.582,74.24-51.752.221.026.335.278.112.292-45.072,2.068-82.9,54.418-84.4,99.183,7.786-10.22,22.216-61.563,59.82-60-38.108,2.2-61.69,64.074-64.642,98.285,10.157-16.361,21.72-30.892,32.114-44.62,3.9-5.15,9.3-10.506,15.125-12.848-24.22,24.861-53.065,71.2-51.856,91.677l-5.054-1.3s15.907-42.5-24.135-65.339C1197.141,727.413,1205.155,740.608,1209.553,748.654Z" fill="#5c5e67"/><path d="M1171.821,772.239h58.194a3.309,3.309,0,0,1,3.227,4.043l-2.156,9.474a3.309,3.309,0,0,1-3.226,2.576h-53.882a3.311,3.311,0,0,1-3.228-2.576l-2.156-9.474A3.31,3.31,0,0,1,1171.821,772.239Z" fill="#b54a60"/><path d="M1222.382,820.813a4.477,4.477,0,0,1-4.432,3.839h-34.065a4.478,4.478,0,0,1-4.431-3.839l-4.684-32.481h52.3Z" fill="#ff5f85"/><path d="M946.538,815.132c.043,4.266,3.158,7.725,6.962,7.725h79.76l-.274-15.8-79.649.335C949.537,807.406,946.5,810.872,946.538,815.132Z" fill="#e2e8f1"/><path d="M1072.693,728.784l-81.6,1.873-2.171,36.222a16.027,16.027,0,0,0,4.086,12.038l26.1,28.2,80.71-.338-27.433-34.506Z" fill="#e0e5eb"/><path d="M990.146,743.567l82.436-1.607.111-13.176-81.6,1.872Z" fill="#5a5d71" opacity="0.28"/><path d="M1081.3,766.637l2.292-38.1-14.692.337-2.074,36.838a16.233,16.233,0,0,0,4.335,12.286l27.448,28.786-68.617.288c-3.961.017-7.107,3.553-7.036,7.9s3.338,7.885,7.3,7.885h69.806c6.772,0,12.612-5.037,13.922-12.479a17.224,17.224,0,0,0-4.746-14.648Z" fill="#b1bfd9"/><path d="M1235.678,415.076,871.913,458.507c-10.568,1.262-19.287,11.2-20.168,22.918L834.828,706.3c-1.024,13.612,8.367,25.329,20.429,25.324l368.288-.183c14.542-.007,26.38-10.966,27.12-25.218l13.818-265.734C1265.3,424.867,1251.891,413.14,1235.678,415.076Z" fill="#b1bfd9"/><path d="M1224.727,416.376,863.591,459.5c-10.448,1.247-19.078,11.127-19.966,22.752L826.654,706.5a25.9,25.9,0,0,0,.324,6.673c1.868,10.441,9.95,18.453,19.863,18.447l365.569-.182a26.524,26.524,0,0,0,26.815-25l13.938-264.829C1253.967,426.124,1240.731,414.466,1224.727,416.376Z" fill="#e2e8f1"/><path d="M1236.657,442.045l-.764,14.171-13.34,248.957a10.6,10.6,0,0,1-10.72,10.035L846.8,717.636a7.619,7.619,0,0,1-6.023-2.979,9.971,9.971,0,0,1-2.124-7.09l16.036-213.851.865-11.621a10.214,10.214,0,0,1,4.854-8.045,7.811,7.811,0,0,1,2.956-.945l362-41.1a10.441,10.441,0,0,1,8.226,2.461c.079.067.158.145.236.225s.169.156.247.246c.169.18.349.371.529.6A9.464,9.464,0,0,1,1236.657,442.045Z" fill="#518bf1"/><path d="M1236.758,442.18l-.753,14.024-.112.012L854.568,495.457l.123-1.741.9-13.363a10,10,0,0,1,4.821-6.3,7.811,7.811,0,0,1,2.956-.945l362-41.1a10.441,10.441,0,0,1,8.226,2.461c.079.067.158.145.236.225s.169.156.247.246c.169.18.349.371.529.6A9.48,9.48,0,0,1,1236.758,442.18Z" fill="#5c5e67"/><path d="M1204.3,441.366l7.953,9.034a1.138,1.138,0,0,1-.062,1.407.763.763,0,0,1-1.189.126l-7.942-9.033a1.142,1.142,0,0,1,.062-1.4A.757.757,0,0,1,1204.3,441.366Z" fill="#fff"/><path d="M1211.5,440.571a.765.765,0,0,1,1.19-.132,1.141,1.141,0,0,1-.062,1.408l-8.821,10.843a.758.758,0,0,1-1.181.124,1.142,1.142,0,0,1,.062-1.4Z" fill="#fff"/><path d="M1184.941,449.041c-.164,3.717,2.264,6.463,5.426,6.131s5.891-3.632,6.055-7.369-2.285-6.485-5.46-6.131S1185.1,445.322,1184.941,449.041Zm1.292-.14c.128-2.874,2.215-5.433,4.661-5.7s4.349,1.859,4.222,4.745-2.229,5.443-4.679,5.7S1186.107,451.776,1186.233,448.9Z" fill="#fff"/><path d="M1168.528,455.06l10.523-1.114a.607.607,0,0,1,.63.7.875.875,0,0,1-.7.845l-10.52,1.1a.6.6,0,0,1-.623-.7A.861.861,0,0,1,1168.528,455.06Z" fill="#fff"/><path d="M1078.666,636.246l79.308-1.387a3.757,3.757,0,0,1,3.85,3.925,4.267,4.267,0,0,1-4.13,4.064l-79.307,1.386a3.76,3.76,0,0,1-3.852-3.924A4.268,4.268,0,0,1,1078.666,636.246Z" fill="#ffde91"/><path d="M1141.982,655.91l16.149-.282a2.931,2.931,0,0,1,3,3.058,3.326,3.326,0,0,1-3.218,3.166l-16.147.283a2.929,2.929,0,0,1-3-3.057A3.328,3.328,0,0,1,1141.982,655.91Z" fill="#ffde91"/><path d="M1097.269,676.093l58.754-1.027a1.822,1.822,0,0,1,1.865,1.9,2.067,2.067,0,0,1-2,1.968l-58.754,1.028a1.82,1.82,0,0,1-1.862-1.9A2.063,2.063,0,0,1,1097.269,676.093Z" fill="#fff"/><path d="M1096.72,691.848l58.754-1.027a1.821,1.821,0,0,1,1.865,1.9,2.065,2.065,0,0,1-2,1.968l-58.753,1.028a1.82,1.82,0,0,1-1.865-1.9A2.068,2.068,0,0,1,1096.72,691.848Z" fill="#fff"/><path d="M902.64,640.8l58.751-1.027a1.823,1.823,0,0,1,1.865,1.9,2.068,2.068,0,0,1-2,1.968L902.5,644.671a1.822,1.822,0,0,1-1.863-1.9A2.069,2.069,0,0,1,902.64,640.8Z" fill="#fff"/><path d="M941.087,655.875l19.755-.345a1.822,1.822,0,0,1,1.866,1.9,2.071,2.071,0,0,1-2,1.969l-19.755.344a1.819,1.819,0,0,1-1.865-1.9A2.067,2.067,0,0,1,941.087,655.875Z" fill="#ffde91"/><path d="M921.759,656.212l4.6-.08a1.822,1.822,0,0,1,1.865,1.9,2.069,2.069,0,0,1-2,1.967l-4.6.081a1.819,1.819,0,0,1-1.863-1.9A2.066,2.066,0,0,1,921.759,656.212Z" fill="#fff"/><path d="M901.539,672.311l58.751-1.027a1.819,1.819,0,0,1,1.866,1.9,2.066,2.066,0,0,1-2,1.968L901.4,676.18a1.82,1.82,0,0,1-1.863-1.9A2.062,2.062,0,0,1,901.539,672.311Z" fill="#fff"/><path d="M1033.005,676.529l17.829-.312a2.535,2.535,0,0,1,2.6,2.646,2.879,2.879,0,0,1-2.787,2.746l-17.829.311a2.536,2.536,0,0,1-2.6-2.651A2.878,2.878,0,0,1,1033.005,676.529Z" fill="#ffde91"/><path d="M1033.455,663.662l17.826-.311a2.537,2.537,0,0,1,2.6,2.649,2.881,2.881,0,0,1-2.787,2.743l-17.829.311a2.54,2.54,0,0,1-2.6-2.648A2.884,2.884,0,0,1,1033.455,663.662Z" fill="#ffde91"/><path d="M1033.9,650.8l17.829-.311a2.538,2.538,0,0,1,2.6,2.648,2.881,2.881,0,0,1-2.789,2.743l-17.827.312a2.539,2.539,0,0,1-2.6-2.649A2.878,2.878,0,0,1,1033.9,650.8Z" fill="#ffde91"/><path d="M1034.351,637.93l17.829-.312a2.537,2.537,0,0,1,2.6,2.649,2.88,2.88,0,0,1-2.786,2.742l-17.829.312a2.537,2.537,0,0,1-2.6-2.648A2.878,2.878,0,0,1,1034.351,637.93Z" fill="#ffde91"/><path d="M1003.48,638.47l11.552-.2a2.538,2.538,0,0,1,2.6,2.649,2.88,2.88,0,0,1-2.787,2.743l-11.552.2a2.542,2.542,0,0,1-2.6-2.648A2.883,2.883,0,0,1,1003.48,638.47Z" fill="#ffde91"/><path d="M1002.488,666.919l11.549-.2a2.535,2.535,0,0,1,2.6,2.648,2.879,2.879,0,0,1-2.79,2.743l-11.549.2a2.536,2.536,0,0,1-2.6-2.649A2.882,2.882,0,0,1,1002.488,666.919Z" fill="#ffde91"/><path d="M1128.569,463,937.4,482.231l1.091-14.395,190.916-21.016Z" fill="#5c5e67"/><path d="M886.087,486.5l16.547-1.74a.862.862,0,0,1,.982.936,1.26,1.26,0,0,1-1.09,1.152l-16.548,1.739a.86.86,0,0,1-.981-.935A1.261,1.261,0,0,1,886.087,486.5Z" fill="#fff"/><path d="M886.409,480.371l16.543-1.739a.86.86,0,0,1,.982.935,1.255,1.255,0,0,1-1.09,1.152L886.3,482.458a.865.865,0,0,1-.986-.935A1.258,1.258,0,0,1,886.409,480.371Z" fill="#fff"/><path d="M886.728,474.246l16.542-1.739a.866.866,0,0,1,.987.935,1.269,1.269,0,0,1-1.1,1.157l-16.543,1.739a.868.868,0,0,1-.986-.938A1.264,1.264,0,0,1,886.728,474.246Z" fill="#fff"/><path d="M926.168,512.08l-59.444,5.957a1.237,1.237,0,0,0-1,1.11c-.062.565.29.983.785.933l59.417-5.882a1.319,1.319,0,0,0,1.083-1.155A.786.786,0,0,0,926.168,512.08Z" fill="#fff"/><path d="M942.187,510.475l-10.139,1.015a1.33,1.33,0,0,0-1.091,1.16.789.789,0,0,0,.843.966l10.133-1a1.346,1.346,0,0,0,1.108-1.168A.8.8,0,0,0,942.187,510.475Z" fill="#fff"/><path d="M999.807,504.7l-46.3,4.64a1.357,1.357,0,0,0-1.121,1.175.8.8,0,0,0,.861.979l46.276-4.58a1.427,1.427,0,0,0,1.186-1.212A.825.825,0,0,0,999.807,504.7Z" fill="#fff"/><path d="M938.321,517.791l-72.308,6.957a1.23,1.23,0,0,0-1,1.1.759.759,0,0,0,.783.936l72.276-6.866a1.329,1.329,0,0,0,1.1-1.16A.8.8,0,0,0,938.321,517.791Z" fill="#fff"/><path d="M977.477,512.734l-31.511,3.055a1.34,1.34,0,0,0-1.109,1.165.8.8,0,0,0,.856.974l31.495-3.015a1.379,1.379,0,0,0,1.153-1.187A.814.814,0,0,0,977.477,512.734Z" fill="#fff"/><path d="M1000.047,510.547l-16.6,1.609a1.391,1.391,0,0,0-1.16,1.193.816.816,0,0,0,.888.994l16.588-1.588a1.414,1.414,0,0,0,1.185-1.205A.824.824,0,0,0,1000.047,510.547Z" fill="#fff"/><path d="M954.455,524.888l-86.322,7.878a1.223,1.223,0,0,0-1,1.1.764.764,0,0,0,.786.938l86.281-7.768a1.342,1.342,0,0,0,1.12-1.165A.806.806,0,0,0,954.455,524.888Z" fill="#fff"/><path d="M990.415,521.607l-25.219,2.3a1.354,1.354,0,0,0-1.133,1.17.812.812,0,0,0,.869.99l25.208-2.27a1.4,1.4,0,0,0,1.171-1.189A.826.826,0,0,0,990.415,521.607Z" fill="#fff"/><path d="M997.706,528.891l-70.787,6.146a1.292,1.292,0,0,0-1.08,1.136.794.794,0,0,0,.835.97l70.754-6.057a1.392,1.392,0,0,0,1.179-1.186A.833.833,0,0,0,997.706,528.891Z" fill="#fff"/><path d="M955.309,543.086l-92.03,7.437a1.2,1.2,0,0,0-.994,1.083.766.766,0,0,0,.781.938l91.985-7.32a1.323,1.323,0,0,0,1.12-1.148A.816.816,0,0,0,955.309,543.086Z" fill="#fff"/><path d="M997.188,546.447l-72.242,5.565a1.269,1.269,0,0,0-1.075,1.119.8.8,0,0,0,.834.975l72.2-5.475a1.371,1.371,0,0,0,1.177-1.171A.839.839,0,0,0,997.188,546.447Z" fill="#fff"/><path d="M917.213,571.593l-54.6,3.6a1.173,1.173,0,0,0-.992,1.063.776.776,0,0,0,.777.946l54.577-3.533a1.239,1.239,0,0,0,1.065-1.1A.8.8,0,0,0,917.213,571.593Z" fill="#fff"/><path d="M887.86,538.428l-23.514,2.041a1.215,1.215,0,0,0-1,1.091.764.764,0,0,0,.784.936l23.5-2.011a1.241,1.241,0,0,0,1.028-1.108A.775.775,0,0,0,887.86,538.428Z" fill="#fff"/><path d="M1090.716,496.189l-22.178,2.216a1.653,1.653,0,0,0-1.392,1.367.932.932,0,0,0,1.047,1.124l22.166-2.185a1.687,1.687,0,0,0,1.43-1.385A.947.947,0,0,0,1090.716,496.189Z" fill="#fff"/><path d="M1087.213,506.34l-50.155,4.749a1.591,1.591,0,0,0-1.34,1.332.917.917,0,0,0,1.013,1.11l50.128-4.68a1.667,1.667,0,0,0,1.421-1.371A.948.948,0,0,0,1087.213,506.34Z" fill="#fff"/><path d="M1123.6,492.9l-9.554.955a1.729,1.729,0,0,0-1.465,1.4.957.957,0,0,0,1.091,1.15l9.552-.941a1.742,1.742,0,0,0,1.482-1.411A.965.965,0,0,0,1123.6,492.9Z" fill="#fff"/><path d="M1141.264,491.14l-9.731.972a1.763,1.763,0,0,0-1.495,1.419.967.967,0,0,0,1.111,1.159l9.727-.959a1.776,1.776,0,0,0,1.512-1.425A.976.976,0,0,0,1141.264,491.14Z" fill="#fff"/><path d="M1159.257,489.344l-9.913.989a1.8,1.8,0,0,0-1.526,1.434.98.98,0,0,0,1.131,1.169l9.906-.976a1.81,1.81,0,0,0,1.543-1.442A.985.985,0,0,0,1159.257,489.344Z" fill="#fff"/><path d="M1177.586,487.512l-10.1,1.009a1.821,1.821,0,0,0-1.554,1.448.99.99,0,0,0,1.149,1.179l10.091-.995a1.839,1.839,0,0,0,1.574-1.456A1,1,0,0,0,1177.586,487.512Z" fill="#fff"/><path d="M1196.266,485.647l-10.291,1.028a1.856,1.856,0,0,0-1.586,1.463,1,1,0,0,0,1.168,1.189l10.287-1.014a1.875,1.875,0,0,0,1.6-1.472A1.008,1.008,0,0,0,1196.266,485.647Z" fill="#fff"/><path d="M1215.3,483.745l-10.491,1.048a1.9,1.9,0,0,0-1.619,1.479,1.012,1.012,0,0,0,1.19,1.2l10.482-1.032a1.917,1.917,0,0,0,1.641-1.488A1.02,1.02,0,0,0,1215.3,483.745Z" fill="#fff"/><path d="M1119.114,500.633l-6.144.59a1.722,1.722,0,0,0-1.465,1.4.961.961,0,0,0,1.092,1.151l6.143-.581a1.733,1.733,0,0,0,1.475-1.4A.965.965,0,0,0,1119.114,500.633Z" fill="#fff"/><path d="M1133.55,499.246l-6.236.6a1.741,1.741,0,0,0-1.486,1.408.969.969,0,0,0,1.107,1.159l6.232-.591a1.757,1.757,0,0,0,1.5-1.412A.974.974,0,0,0,1133.55,499.246Z" fill="#fff"/><path d="M1148.206,497.838l-6.331.608a1.765,1.765,0,0,0-1.51,1.42.978.978,0,0,0,1.122,1.167l6.327-.6a1.782,1.782,0,0,0,1.523-1.424A.982.982,0,0,0,1148.206,497.838Z" fill="#fff"/><path d="M1163.086,496.408l-6.428.618a1.794,1.794,0,0,0-1.535,1.431.988.988,0,0,0,1.138,1.176l6.423-.609a1.806,1.806,0,0,0,1.549-1.437A.991.991,0,0,0,1163.086,496.408Z" fill="#fff"/><path d="M1178.2,494.956l-6.531.627a1.82,1.82,0,0,0-1.561,1.444,1,1,0,0,0,1.154,1.185l6.524-.619a1.83,1.83,0,0,0,1.573-1.449A1,1,0,0,0,1178.2,494.956Z" fill="#fff"/><path d="M1193.547,493.481l-6.63.638a1.846,1.846,0,0,0-1.587,1.456,1,1,0,0,0,1.168,1.193l6.625-.628a1.859,1.859,0,0,0,1.6-1.462A1.008,1.008,0,0,0,1193.547,493.481Z" fill="#fff"/><path d="M1209.133,491.984l-6.733.646a1.873,1.873,0,0,0-1.613,1.47,1.013,1.013,0,0,0,1.183,1.2l6.73-.637a1.891,1.891,0,0,0,1.627-1.475A1.018,1.018,0,0,0,1209.133,491.984Z" fill="#fff"/><path d="M1034.911,544.489l6.114-5.954a1.274,1.274,0,0,0,.232-1.719,1.167,1.167,0,0,0-1.669.134l-7.044,6.874a1.27,1.27,0,0,0-.229,1.71l5.114,5.68a.943.943,0,0,0,.783.294,1.44,1.44,0,0,0,.881-.415,1.264,1.264,0,0,0,.229-1.711Z" fill="#fff"/><path d="M1041.11,544.014l6.159-5.976a1.275,1.275,0,0,0,.235-1.725,1.179,1.179,0,0,0-1.68.135l-7.1,6.9a1.271,1.271,0,0,0-.232,1.715l5.145,5.7a.957.957,0,0,0,.789.295,1.459,1.459,0,0,0,.887-.417,1.266,1.266,0,0,0,.232-1.717Z" fill="#fff"/><path d="M896.907,598.243l11.63-11.972a1.124,1.124,0,0,0,.165-1.456.876.876,0,0,0-1.32.077l-12.345,12.73a1.118,1.118,0,0,0-.16,1.44l9.2,11.107a.758.758,0,0,0,.621.271,1.058,1.058,0,0,0,.691-.328,1.111,1.111,0,0,0,.165-1.443Z" fill="#fff"/><path d="M907.889,597.683l11.8-12.054a1.127,1.127,0,0,0,.17-1.466.89.89,0,0,0-1.336.078L906,597.06a1.119,1.119,0,0,0-.166,1.449l9.309,11.177a.766.766,0,0,0,.63.272,1.079,1.079,0,0,0,.7-.33,1.114,1.114,0,0,0,.167-1.453Z" fill="#fff"/><path d="M958.425,581.907a.793.793,0,0,0-.663-.268,1.151,1.151,0,0,0-.736.35,1.137,1.137,0,0,0-.183,1.5l9.217,10.746-12.481,12.3a1.122,1.122,0,0,0-.18,1.484.941.941,0,0,0,1.388-.061l13.3-13.077a1.134,1.134,0,0,0,.188-1.5Z" fill="#fff"/><path d="M946.766,582.589a.774.774,0,0,0-.652-.267,1.212,1.212,0,0,0-.906,1.837l9.107,10.675-12.3,12.21a1.119,1.119,0,0,0-.177,1.475.926.926,0,0,0,1.371-.059l13.105-12.986a1.128,1.128,0,0,0,.183-1.491Z" fill="#fff"/><path d="M1208.953,522.943l-146.594,11.819a1.594,1.594,0,0,0-1.377,1.329.941.941,0,0,0,1.038,1.131l146.5-11.619a1.844,1.844,0,0,0,1.623-1.44A1.03,1.03,0,0,0,1208.953,522.943Z" fill="#fff"/><path d="M1147.495,534.474l-86.014,6.644a1.584,1.584,0,0,0-1.377,1.319.945.945,0,0,0,1.035,1.135l85.963-6.526a1.729,1.729,0,0,0,1.516-1.387A.994.994,0,0,0,1147.495,534.474Z" fill="#fff"/><path d="M1146.069,543.822l-85.825,6.219a1.577,1.577,0,0,0-1.372,1.31.949.949,0,0,0,1.035,1.137l85.773-6.1a1.715,1.715,0,0,0,1.514-1.376A1,1,0,0,0,1146.069,543.822Z" fill="#fff"/><path d="M985.126,610.271l-19.47.81a1.262,1.262,0,0,0-1.127,1.1.846.846,0,0,0,.865,1.015l19.461-.787a1.283,1.283,0,0,0,1.153-1.11A.855.855,0,0,0,985.126,610.271Z" fill="#fff"/><path d="M1181.371,252.35l-.977,18.284L1162.976,595.66a13.842,13.842,0,0,1-14,13.091l-476.26,3.169a9.925,9.925,0,0,1-7.856-3.888,13.074,13.074,0,0,1-2.786-9.249L684.13,304.594a13.735,13.735,0,0,1,.416-2.484c1.326-5.022,5.349-8.911,10.136-9.45L1166.515,239.1a13.556,13.556,0,0,1,10.721,3.214A12.4,12.4,0,0,1,1181.371,252.35Z" fill="#8fafff" opacity="0.89"/><path d="M1117.874,294.123,1112.53,413.1,855.448,430.42l5.692-110.81Z" fill="#518bf1"/><path d="M1111.529,435.352l-1.666,37.1-59.624,3.068,1.7-36.506Z" fill="#518bf1"/><path d="M1025.625,440.627l-1.706,36.245-171.311,8.813,1.774-34.541Z" fill="#518bf1"/><path d="M829.43,321.425l-2.6,47.684L689.761,380.292l3-45.948Z" fill="#518bf1"/><path d="M1108.86,494.772l-2.452,51.943L677.972,560.227l3.065-46.7Z" fill="#518bf1"/><path d="M826.149,381.591l-5.931,109.024L682.07,497.762l6.9-105.441Z" fill="#518bf1"/><path d="M1181.371,252.35l-.977,18.284L683.209,321.8l1.337-19.688c1.326-5.022,5.349-8.911,10.136-9.45L1166.515,239.1a13.556,13.556,0,0,1,10.721,3.214A12.4,12.4,0,0,1,1181.371,252.35Z" fill="#5c5e67"/><path d="M1148.526,282.21a8.687,8.687,0,0,1,9.734,9.364l-12.329,268.01a10.991,10.991,0,0,1-10.631,10.44,9.575,9.575,0,0,1-9.616-10.211l12.223-266.266A12.273,12.273,0,0,1,1148.526,282.21Z" fill="#fff"/><path d="M1145.793,319.467l2.049-.181a3.926,3.926,0,0,1,4.347,4.23l-4.349,94.577a5.215,5.215,0,0,1-4.762,4.883l-2.046.112a4.066,4.066,0,0,1-4.321-4.365l4.33-94.238A5.414,5.414,0,0,1,1145.793,319.467Z" fill="#5c5e67"/><path d="M1012.774,318.677l91.887-8.507a1.82,1.82,0,0,1,2.011,1.981,2.539,2.539,0,0,1-2.213,2.372l-91.878,8.377a1.744,1.744,0,0,1-1.888-1.93A2.424,2.424,0,0,1,1012.774,318.677Z" fill="#fff"/><path d="M980.31,321.683l20.4-1.889a1.73,1.73,0,0,1,1.875,1.921,2.413,2.413,0,0,1-2.067,2.286l-20.392,1.859a1.717,1.717,0,0,1-1.847-1.912A2.38,2.38,0,0,1,980.31,321.683Z" fill="#fff"/><path d="M876.146,331.888l84.52-8.056a1.682,1.682,0,0,1,1.8,1.9,2.382,2.382,0,0,1-2.006,2.264l-84.523,7.958a1.627,1.627,0,0,1-1.709-1.863A2.3,2.3,0,0,1,876.146,331.888Z" fill="#fff"/><path d="M988.015,334.96l116.329-10.642a1.8,1.8,0,0,1,1.962,1.977,2.5,2.5,0,0,1-2.161,2.358L987.811,339.159a1.712,1.712,0,0,1-1.829-1.926A2.392,2.392,0,0,1,988.015,334.96Z" fill="#fff"/><path d="M913.972,339.285l59.408-5.477a1.7,1.7,0,0,1,1.818,1.912,2.381,2.381,0,0,1-2.02,2.265l-59.413,5.408a1.656,1.656,0,0,1-1.749-1.885A2.33,2.33,0,0,1,913.972,339.285Z" fill="#fff"/><path d="M873.854,342.983l29.314-2.7a1.649,1.649,0,0,1,1.739,1.88,2.32,2.32,0,0,1-1.947,2.216l-29.315,2.668a1.629,1.629,0,0,1-1.707-1.864A2.3,2.3,0,0,1,873.854,342.983Z" fill="#ffde91"/><path d="M953.7,354.963l142.939-12.4a1.8,1.8,0,0,1,1.956,1.986,2.477,2.477,0,0,1-2.154,2.341L953.5,359.123a1.7,1.7,0,0,1-1.793-1.917A2.348,2.348,0,0,1,953.7,354.963Z" fill="#fff"/><path d="M887.484,360.707l45.888-3.98a1.683,1.683,0,0,1,1.777,1.906,2.333,2.333,0,0,1-1.98,2.23l-45.894,3.928a1.649,1.649,0,0,1-1.723-1.884A2.3,2.3,0,0,1,887.484,360.707Z" fill="#fff"/><path d="M872.124,376.861l133.412-11a1.746,1.746,0,0,1,1.859,1.952,2.394,2.394,0,0,1-2.058,2.277l-133.42,10.848a1.653,1.653,0,0,1-1.707-1.89A2.268,2.268,0,0,1,872.124,376.861Z" fill="#fff"/><path d="M946.045,391.338l155.807-11.947a1.83,1.83,0,0,1,1.963,2.014,2.456,2.456,0,0,1-2.162,2.332L945.838,395.5a1.717,1.717,0,0,1-1.788-1.94A2.322,2.322,0,0,1,946.045,391.338Z" fill="#fff"/><path d="M875.359,405.351l137.12-10.175a1.77,1.77,0,0,1,1.864,1.976,2.373,2.373,0,0,1-2.067,2.265L875.15,409.433a1.672,1.672,0,0,1-1.712-1.908A2.256,2.256,0,0,1,875.359,405.351Z" fill="#fff"/><path d="M988.565,407.693l80.2-5.711a1.823,1.823,0,0,1,1.927,2.015,2.41,2.41,0,0,1-2.128,2.3l-80.2,5.617a1.76,1.76,0,0,1-1.839-1.971A2.348,2.348,0,0,1,988.565,407.693Z" fill="#fff"/><path d="M1049.926,362.2l52.9-4.363a1.818,1.818,0,0,1,1.963,2,2.471,2.471,0,0,1-2.158,2.342l-52.905,4.3a1.783,1.783,0,0,1-1.9-1.978A2.427,2.427,0,0,1,1049.926,362.2Z" fill="#fff"/><path d="M1062.647,446.768l36.707-2.169a1.872,1.872,0,0,1,1.966,2.056,2.409,2.409,0,0,1-2.166,2.3l-36.707,2.127a1.845,1.845,0,0,1-1.922-2.039A2.377,2.377,0,0,1,1062.647,446.768Z" fill="#fff"/><path d="M1063.049,457.98l36.731-2.059a1.881,1.881,0,0,1,1.966,2.066,2.4,2.4,0,0,1-2.166,2.3l-36.732,2.016a1.854,1.854,0,0,1-1.922-2.047A2.369,2.369,0,0,1,1063.049,457.98Z" fill="#fff"/><path d="M1001.608,448.257l14.578-.87a1.813,1.813,0,0,1,1.876,2.017,2.34,2.34,0,0,1-2.076,2.245l-14.579.854a1.8,1.8,0,0,1-1.854-2.005A2.334,2.334,0,0,1,1001.608,448.257Z" fill="#fff"/><path d="M975.331,449.827l14.37-.858a1.791,1.791,0,0,1,1.843,2A2.314,2.314,0,0,1,989.5,453.2l-14.374.842a1.782,1.782,0,0,1-1.824-1.992A2.309,2.309,0,0,1,975.331,449.827Z" fill="#fff"/><path d="M949.435,451.373l14.165-.846a1.772,1.772,0,0,1,1.814,1.988,2.3,2.3,0,0,1-2.019,2.213l-14.164.829a1.757,1.757,0,0,1-1.8-1.978A2.279,2.279,0,0,1,949.435,451.373Z" fill="#fff"/><path d="M923.91,452.9l13.96-.833a1.752,1.752,0,0,1,1.785,1.976,2.272,2.272,0,0,1-1.993,2.2l-13.959.816a1.739,1.739,0,0,1-1.768-1.964A2.266,2.266,0,0,1,923.91,452.9Z" fill="#fff"/><path d="M898.751,454.4l13.76-.822a1.737,1.737,0,0,1,1.761,1.962,2.253,2.253,0,0,1-1.967,2.179l-13.759.806a1.725,1.725,0,0,1-1.745-1.951A2.244,2.244,0,0,1,898.751,454.4Z" fill="#fff"/><path d="M873.952,455.879l13.565-.81a1.715,1.715,0,0,1,1.73,1.949,2.232,2.232,0,0,1-1.941,2.163l-13.565.8a1.7,1.7,0,0,1-1.714-1.939A2.222,2.222,0,0,1,873.952,455.879Z" fill="#ffde91"/><path d="M1006.185,460.219l9.423-.53a1.816,1.816,0,0,1,1.871,2.02,2.335,2.335,0,0,1-2.075,2.246l-9.423.519a1.814,1.814,0,0,1-1.86-2.02A2.325,2.325,0,0,1,1006.185,460.219Z" fill="#ff5b7c"/><path d="M984.466,461.443l9.308-.525a1.8,1.8,0,0,1,1.848,2.01,2.31,2.31,0,0,1-2.049,2.23l-9.309.513a1.8,1.8,0,0,1-1.836-2.008A2.3,2.3,0,0,1,984.466,461.443Z" fill="#fff"/><path d="M963.011,462.651l9.2-.518a1.785,1.785,0,0,1,1.824,2A2.3,2.3,0,0,1,972,466.347l-9.2.507a1.779,1.779,0,0,1-1.812-2A2.287,2.287,0,0,1,963.011,462.651Z" fill="#fff"/><path d="M941.8,463.845l9.092-.512a1.767,1.767,0,0,1,1.8,1.987,2.275,2.275,0,0,1-2,2.2l-9.1.5a1.769,1.769,0,0,1-1.789-1.986A2.271,2.271,0,0,1,941.8,463.845Z" fill="#fff"/><path d="M920.85,465.025l8.981-.506a1.752,1.752,0,0,1,1.778,1.975,2.258,2.258,0,0,1-1.983,2.19l-8.982.495a1.749,1.749,0,0,1-1.765-1.975A2.247,2.247,0,0,1,920.85,465.025Z" fill="#ffde91"/><path d="M900.146,466.19l8.876-.5a1.736,1.736,0,0,1,1.755,1.964,2.248,2.248,0,0,1-1.964,2.177l-8.876.489a1.736,1.736,0,0,1-1.744-1.964A2.237,2.237,0,0,1,900.146,466.19Z" fill="#fff"/><path d="M879.681,467.343l8.773-.494a1.722,1.722,0,0,1,1.733,1.954,2.226,2.226,0,0,1-1.94,2.162l-8.772.484a1.722,1.722,0,0,1-1.725-1.953A2.219,2.219,0,0,1,879.681,467.343Z" fill="#fff"/><path d="M1093.968,520.129l-8.942-9.592a2.284,2.284,0,0,1,.14-3.085,1.976,1.976,0,0,1,2.907-.122l10.351,11.08a2.287,2.287,0,0,1-.145,3.1l-10.95,11.465a2.182,2.182,0,0,1-1.484.693,1.842,1.842,0,0,1-1.425-.59,2.293,2.293,0,0,1,.141-3.088Z" fill="#fff"/><path d="M1083.122,520.55l-8.886-9.566a2.282,2.282,0,0,1,.141-3.075,1.956,1.956,0,0,1,2.886-.122l10.285,11.05a2.288,2.288,0,0,1-.139,3.088l-10.9,11.431a2.161,2.161,0,0,1-1.473.69,1.83,1.83,0,0,1-1.419-.588,2.29,2.29,0,0,1,.141-3.079Z" fill="#fff"/><path d="M809.333,348.419l-7.472-8.351a2.21,2.21,0,0,1,.148-2.811,1.6,1.6,0,0,1,2.459-.234l8.645,9.642a1.894,1.894,0,0,1,.438,1.365,2.483,2.483,0,0,1-.586,1.459L803.594,360.4a1.922,1.922,0,0,1-1.263.7,1.407,1.407,0,0,1-1.2-.476,2.216,2.216,0,0,1,.149-2.815Z" fill="#fff"/><path d="M742.026,398.8,814.4,393.1a1.631,1.631,0,0,1,1.667,1.877,2.233,2.233,0,0,1-1.877,2.155L741.81,402.75a1.579,1.579,0,0,1-1.589-1.841A2.178,2.178,0,0,1,742.026,398.8Z" fill="#fff"/><path d="M775.9,425.214l28.38-2a1.631,1.631,0,0,1,1.641,1.879,2.192,2.192,0,0,1-1.854,2.125l-28.378,1.969a1.617,1.617,0,0,1-1.612-1.868A2.165,2.165,0,0,1,775.9,425.214Z" fill="#fff"/><path d="M775.047,441.138l28.383-1.867a1.64,1.64,0,0,1,1.641,1.891,2.178,2.178,0,0,1-1.854,2.116l-28.384,1.835a1.618,1.618,0,0,1-1.608-1.873A2.154,2.154,0,0,1,775.047,441.138Z" fill="#fff"/><path d="M774.2,457.081l28.387-1.735a1.652,1.652,0,0,1,1.644,1.9,2.168,2.168,0,0,1-1.854,2.11l-28.391,1.7a1.63,1.63,0,0,1-1.609-1.884A2.143,2.143,0,0,1,774.2,457.081Z" fill="#fff"/><path d="M773.344,473.031l28.39-1.6a1.657,1.657,0,0,1,1.644,1.91,2.156,2.156,0,0,1-1.853,2.1l-28.4,1.568a1.642,1.642,0,0,1-1.61-1.894A2.134,2.134,0,0,1,773.344,473.031Z" fill="#fff"/><path d="M716.495,421.021l18.51-1.353a1.58,1.58,0,0,1,1.57,1.842,2.136,2.136,0,0,1-1.783,2.079l-18.508,1.331a1.562,1.562,0,0,1-1.549-1.829A2.125,2.125,0,0,1,716.495,421.021Z" fill="#fff"/><path d="M716.008,429.919l18.509-1.3a1.583,1.583,0,0,1,1.572,1.842,2.133,2.133,0,0,1-1.783,2.078l-18.514,1.281a1.573,1.573,0,0,1-1.547-1.835A2.119,2.119,0,0,1,716.008,429.919Z" fill="#fff"/><path d="M715.52,438.815l18.511-1.253a1.589,1.589,0,0,1,1.569,1.851,2.122,2.122,0,0,1-1.781,2.074l-18.512,1.232a1.577,1.577,0,0,1-1.551-1.84A2.12,2.12,0,0,1,715.52,438.815Z" fill="#fff"/><path d="M715.033,447.722l18.512-1.2a1.592,1.592,0,0,1,1.568,1.854,2.115,2.115,0,0,1-1.781,2.069l-18.515,1.182a1.58,1.58,0,0,1-1.549-1.844A2.107,2.107,0,0,1,715.033,447.722Z" fill="#fff"/><path d="M714.543,456.625l18.515-1.154a1.6,1.6,0,0,1,1.568,1.859,2.112,2.112,0,0,1-1.781,2.069l-18.517,1.133a1.588,1.588,0,0,1-1.548-1.852A2.1,2.1,0,0,1,714.543,456.625Z" fill="#fff"/><path d="M714.055,465.536l18.516-1.1a1.6,1.6,0,0,1,1.568,1.865,2.108,2.108,0,0,1-1.781,2.065l-18.519,1.083a1.593,1.593,0,0,1-1.548-1.858A2.094,2.094,0,0,1,714.055,465.536Z" fill="#fff"/><path d="M713.567,474.452l18.516-1.055a1.607,1.607,0,0,1,1.568,1.87,2.1,2.1,0,0,1-1.78,2.059L713.35,478.36a1.6,1.6,0,0,1-1.548-1.86A2.087,2.087,0,0,1,713.567,474.452Z" fill="#fff"/><path d="M713.075,483.371l18.52-1.006a1.616,1.616,0,0,1,1.569,1.876,2.1,2.1,0,0,1-1.781,2.058l-18.522.985a1.606,1.606,0,0,1-1.549-1.869A2.08,2.08,0,0,1,713.075,483.371Z" fill="#fff"/><path d="M870.9,515.917l178.469-7.579a1.879,1.879,0,0,1,1.917,2.072,2.325,2.325,0,0,1-2.115,2.243l-178.479,7.369a1.742,1.742,0,0,1-1.715-1.977A2.174,2.174,0,0,1,870.9,515.917Z" fill="#fff"/><path d="M952.971,523.281l95.877-3.779a1.887,1.887,0,0,1,1.914,2.081,2.317,2.317,0,0,1-2.117,2.236l-95.878,3.666a1.81,1.81,0,0,1-1.808-2.028A2.24,2.24,0,0,1,952.971,523.281Z" fill="#fff"/><path d="M952.223,538.594l95.894-3.368a1.9,1.9,0,0,1,1.913,2.095,2.3,2.3,0,0,1-2.112,2.23l-95.9,3.253a1.818,1.818,0,0,1-1.8-2.037A2.224,2.224,0,0,1,952.223,538.594Z" fill="#fff"/><path d="M1139.068,251.3l10.365,11.772a1.486,1.486,0,0,1-.082,1.837.993.993,0,0,1-1.548.162l-10.352-11.773a1.488,1.488,0,0,1,.08-1.829A.986.986,0,0,1,1139.068,251.3Z" fill="#fff"/><path d="M1148.451,250.259a1,1,0,0,1,1.551-.172,1.486,1.486,0,0,1-.081,1.836l-11.5,14.132a.985.985,0,0,1-1.538.161,1.486,1.486,0,0,1,.08-1.827Z" fill="#fff"/><path d="M1113.832,261.3c-.211,4.843,2.952,8.423,7.075,7.991,4.14-.433,7.678-4.734,7.892-9.606s-2.98-8.451-7.117-7.991S1114.045,256.452,1113.832,261.3Zm1.687-.183c.165-3.745,2.886-7.081,6.074-7.433s5.668,2.422,5.5,6.184-2.9,7.094-6.1,7.431S1115.355,264.864,1115.519,261.117Z" fill="#fff"/><path d="M1092.44,269.146l13.717-1.453a.79.79,0,0,1,.82.914,1.134,1.134,0,0,1-.911,1.1l-13.712,1.442a.788.788,0,0,1-.813-.914A1.121,1.121,0,0,1,1092.44,269.146Z" fill="#fff"/><path d="M764.48,651.032l45.68,172.005h4.207L768.688,651.032Z" fill="#42434a"/><path d="M818.7,651.032l45.679,172.005h4.208L822.911,651.032Z" fill="#42434a"/><path d="M773.174,674.12l.542,3.453h53.7l-.542-3.453Z" fill="#42434a"/><path d="M780.807,702.979l.542,3.452h53.7l-.543-3.452Z" fill="#42434a"/><path d="M788.439,731.838l.542,3.452h53.7l-.543-3.452Z" fill="#42434a"/><path d="M796.072,760.7l.542,3.451h53.7l-.542-3.451Z" fill="#42434a"/><path d="M803.7,789.555l.542,3.452h53.7l-.542-3.452Z" fill="#42434a"/><path d="M676.706,822.876h4.208l45.767-171.844h-4.207Z" fill="#505159"/><path d="M730.93,822.876h4.208L780.9,651.032H776.7Z" fill="#505159"/><path d="M686.8,794.97h53.7l.542-3.453h-53.7Z" fill="#505159"/><path d="M694.432,766.111h53.7l.542-3.452h-53.7Z" fill="#505159"/><path d="M702.063,737.252h53.7l.542-3.453h-53.7Z" fill="#505159"/><path d="M709.7,708.393h53.7l.542-3.451h-53.7Z" fill="#505159"/><path d="M717.329,679.534h53.7l.542-3.452h-53.7Z" fill="#505159"/><rect width="49.856" height="8.616" transform="translate(785.196 642.416)" fill="#42434a"/><rect width="78.988" height="8.616" transform="translate(706.208 642.416)" fill="#505159"/><path d="M1118.982,579.837a10.95,10.95,0,0,1-1.669-1.666c-2.14-2.9,2.957-4.41,4.694-5.652,4.015-2.868,5.028-7.488,3.431-12.225-1.558-4.613-4.693-6.786-4.485-11.953.311-7.717,6.984-9.064,6.642-16.951-.151-3.468-3.773-5.505-5.274-8.108-.937-1.627-.514-4.341-.894-6.174-1.374-6.615-8.4-11.009-14.76-11.72-4.069-.455-8.055,3.036-11.963.845-2.526-1.416-6.018-2.508-8.454-.312-1.874,1.69-1.8,4.288-3.057,6.316a9.872,9.872,0,0,1-5.2,4.156c-3.286,1.106-6.55-.237-9.653,1.737a12.938,12.938,0,0,0-3.926,4.159,18.992,18.992,0,0,0-2.822,9.466c-.084,3.155.6,6.274.175,9.434-.649,4.836-6.016,7.225-8.332,11.193-9.49,16.257-4.215,34.7,6.432,47.142,7.18,8.385,23.462,14.637,34.466,16.143,13.731,1.88,31.785-2.255,32.759-18.886C1127.47,590.274,1123.914,583.9,1118.982,579.837Z" fill="#42434a"/><path d="M1062.3,634.119c-.962,6.9,13.706,176.893,13.706,176.893.073.285,4.306,2.952,7.936.231,0,0,2.747-39.189,8.025-76.164,4.555-31.919,5.866-61.01,6.4-64.181,1.592-9.407,0-33.827,0-33.827C1085.411,637.919,1066.6,636,1062.3,634.119Z" fill="#42434a"/><path d="M1084.77,807.364a22.587,22.587,0,0,1-5.694.109,5.754,5.754,0,0,0-.278-2.163c-.912-.238-2.655-1.462-3.6-1.562.353,1.836.842,11.36-1.01,12.74-2.258,1.683-6.549,1.734-7.224,1.734-3.409,0-4.145,1.941-4.145,2.692a1.6,1.6,0,0,0,1.758,1.74c4.133,0,13.679-.043,16.553-.043,1.758,0,3.54.223,5.009-1.487a2.86,2.86,0,0,0,.228-2.66A83.511,83.511,0,0,1,1084.77,807.364Z" fill="#ffbc5a"/><path d="M1016.11,505.357c-.659-.008-3.233,2.779-3.379,3.415.111,1.635.687,1.249,1.632,2.081a12.5,12.5,0,0,1,1.593-3.852C1016.358,506.363,1016.966,505.368,1016.11,505.357Z" fill="#ff8eaa"/><path d="M1011.606,503.882a31,31,0,0,0-1.492-2.748,2.053,2.053,0,0,0-2.019-.641,1.045,1.045,0,0,0-.91.7c-.939-.065-.768,1.84-.99,1.784-.913-.235-1.629.713-.311,3.2.078.15,1.791,6.829,2.56,8.919a40.058,40.058,0,0,0,6.343-2.5,22.528,22.528,0,0,0-.98-3.781C1013.307,507.323,1011.72,504.107,1011.606,503.882Z" fill="#ff8eaa"/><path d="M1080.5,559.114c-7.153-2.65-31.667-4.933-43.191-8.273-14.138-4.1-11.947,7.23-8.066,9.853,10.219,6.9,41.539,20.989,45.666,16.064C1076.695,574.621,1081.794,559.6,1080.5,559.114Z" fill="#ff8eaa"/><path d="M1080.5,559.114c-5.048-1.871-18.849-4.052-30.143-7.2a91.6,91.6,0,0,0-4.612,12.448c-.434,1.535-1.895,6.144-2.195,7.7,12.621,5.861,28.6,7.984,31.359,4.7C1076.695,574.621,1081.794,559.6,1080.5,559.114Z" fill="#ffbc5a"/><path d="M1036.6,553.487c-3.228-7.591-20.056-33.61-22.161-42.055-2.545,1.245-4.321,3.064-6.093,3.4,3.741,13.818,16.51,46.221,22.228,46.343,5.239.111,6.575-3.573,6.372-6.155A4.96,4.96,0,0,0,1036.6,553.487Z" fill="#ff8eaa"/><path d="M1126.435,634.119c-4.3,1.883-34.84,7.594-47.8,6.745,0,0,3.3,18.5,6.921,37.255,3.154,16.356,7.1,33.443,9.123,47.63,5.279,36.976,20.406,83.908,20.406,83.908,3.63,2.066,8.045-1.189,8.117-1.475,0,0-5.107-66.441-3.656-77.089C1121.267,718.448,1126.956,637.863,1126.435,634.119Z" fill="#505159"/><path d="M1061.307,631.331s-4.123,19.8-2.142,21.517c4.482,3.892,21.3.3,34.095-1.274s36.368,1.023,36.985-1.59c1.665-7.053-1.471-22.639-1.471-22.639Z" fill="#ffbc5a"/><path d="M1094.579,539.062c-.9.661-10.25,5.85-12.919,5.446.021.74,1.819,8.564.091,12.77.745,3.914,11.586,3.944,14.576-2.686C1095.084,552.7,1094.051,542.669,1094.579,539.062Z" fill="#ff8eaa"/><path d="M1093.059,525.831c-4.106-2.721-8.8-4.082-12.042-.584-1.161,1.252-7.953,14.644-2.12,20.578,2.468,2.506,10.981.69,13.163-2.6,0,0,2.977-4.492,3.006-4.537C1097.959,534.317,1097.469,528.752,1093.059,525.831Z" fill="#ff8eaa"/><path d="M1122.109,572.155c-3-8.259-6.468-12.636-14.784-14.634-2.771-.665-11-2.929-11-2.929s-5.833,5.062-9.686,5.341c-2.648.191-4.89-2.655-4.89-2.655s-9.515,2.891-11.246,3.893c-6.709,3.894-6.82,10.468-7.213,15.919-3.917,54.351-6.368,62.307-4.665,65.31,4.173,7.369,73.427,2.5,72.14-6.609C1126.48,605.456,1123.035,574.7,1122.109,572.155Z" fill="#ffde91"/><path d="M1095.757,535.767a4.443,4.443,0,0,0-2.312-.2,63.586,63.586,0,0,0-.347,6.443,4.719,4.719,0,0,0,3.962-2.3C1097.563,538.442,1097.025,536.268,1095.757,535.767Z" fill="#ff8eaa"/><path d="M1017.524,554.586c-.234-.719-.286-1.572-1.205-1.13-.616.233-.18,3.083.232,3.59,1.36.915,1.891.114,3.04,1.158A13.948,13.948,0,0,1,1017.524,554.586Z" fill="#fe5d89"/><path d="M1020.482,558.973a34.363,34.363,0,0,0-3.823-2.956c-1.6-1.1-5.439-3.141-5.71-3.283a23.913,23.913,0,0,0-3.39-1.661,3.672,3.672,0,0,0-2.1.655,1.1,1.1,0,0,0-.146,1.23c-.787.527.886,2.217.666,2.3-.9.35-.7,1.693,2.347,3.22.183.093,6.921,5.328,9.212,6.824A34.409,34.409,0,0,0,1020.482,558.973Z" fill="#ff8eaa"/><path d="M1107.535,569.67c-.015-2.787-5.841-17.545-7.142-17.073-7.168,2.6-27.345,16.709-38.3,21.615-13.431,6.018-4.438,13.238.218,12.73C1074.574,585.6,1107.572,576.1,1107.535,569.67Z" fill="#ff8eaa"/><path d="M1100.393,552.6c-5.382-.007-17,9.1-27.651,13.995.287,5.448,3.356,14.149,7.836,19.771,13.416-3.688,24.4-9.568,27.287-12.741C1115.284,565.461,1107.356,552.6,1100.393,552.6Z" fill="#ffbc5a"/><path d="M1065.255,577.8a4.973,4.973,0,0,0-1.241-.955c-7.331-3.781-36.9-13.056-43.909-18.211a27.366,27.366,0,0,1-3.459,6.039c11.7,8.246,43.159,25.489,47.636,21.931C1068.386,583.349,1067.061,579.66,1065.255,577.8Z" fill="#ff8eaa"/><path d="M1122.933,806.2a22.67,22.67,0,0,1-5.678.442,5.763,5.763,0,0,0-.4-2.142c-.925-.184-2.738-1.3-3.685-1.348.461,1.812,1.509,11.291-.259,12.777-2.155,1.812-6.436,2.116-7.11,2.155-3.4.2-4.024,2.182-3.98,2.931a1.6,1.6,0,0,0,1.859,1.634c4.125-.242,13.652-.847,16.522-1.016,1.754-.1,3.545.014,4.912-1.779a2.861,2.861,0,0,0,.071-2.668A83.73,83.73,0,0,1,1122.933,806.2Z" fill="#ffde91"/><path d="M783.74,632.783l5.585-3.1s1.2,1.795,2.177,2.953c1.883,2.232,10.916,3.849,10.916,7.016,0,1.6-3.363,3.037-6.108,3.146a18.825,18.825,0,0,1-6.617-.911c-1.618-.53-5.315-2.035-5.9-3.021a4.56,4.56,0,0,1-.214-3.7C783.287,633.4,783.74,632.783,783.74,632.783Z" fill="#42434a"/><path d="M790.938,629.5s-.856,1.349.564,3.133c0,0,.009,1.182-2.106,2.346-1.2.658-5.819.185-5.819.185a23.942,23.942,0,0,1-.139-4.321Z" fill="#fd5b88"/><path d="M805.1,447.1c.538,3.848,3.55,56.6-.405,104.575-3.4,41.3-13.825,79.068-13.825,79.068-.075.3-5.506,3.249-8.239.238,0,0,4.312-40.684-1.166-79.069-4.73-33.136-11.189-64.563-13.812-66.629v-35.12C781.107,451.042,800.637,449.051,805.1,447.1Z" fill="#acb7d0"/><path d="M892.912,349.594c.171-.766.138-1.652,1.134-1.29.659.18.493,3.171.118,3.734-1.314,1.081-1.942.309-3.026,1.5A14.334,14.334,0,0,0,892.912,349.594Z" fill="#ff8eaa"/><path d="M890.295,354.424a35.891,35.891,0,0,1,3.655-3.44c1.54-1.291,5.306-3.789,5.57-3.963a25.164,25.164,0,0,1,3.338-2.057,3.819,3.819,0,0,1,2.234.468,1.149,1.149,0,0,1,.274,1.257c.866.465-.7,2.379-.459,2.445.969.271.893,1.679-2.1,3.563-.18.113-6.617,6.2-8.836,7.973A35.807,35.807,0,0,1,890.295,354.424Z" fill="#ff8eaa"/><path d="M845.918,378.367a5.249,5.249,0,0,1,1.187-1.111c7.2-4.642,36.819-17.187,43.548-23.217a28.245,28.245,0,0,0,4.178,5.893c-11.266,9.7-42.04,30.666-47.025,27.436C843.239,384.413,844.239,380.468,845.918,378.367Z" fill="#fd5b88"/><path d="M802.029,366.06c7.915.231,32.4,7.568,44.791,8.837,15.2,1.556,8.686,11.6,3.932,12.619-12.522,2.671-48.147,4.047-50.2-2.3C799.657,382.465,800.594,366.019,802.029,366.06Z" fill="#fd5b88"/><path d="M800.393,365.087a2.082,2.082,0,0,1,1.688-.817c4.133.121,12.345,2.037,21.04,4.068,8.748,2.042,25.918,5.037,26.844,5.237,3.265-1.726,35.591-17.376,39.492-20.869L896,361.29c-9.921,8.534-35.173,26.08-45,28-10.226,2.153-49.361,5.108-52.16-3.523C797.91,382.879,798.511,367.44,800.393,365.087Z" fill="#42434a"/><path d="M741.458,631.837l5.811-2.658s1.053,1.885,1.938,3.115c1.7,2.374,10.583,4.694,10.333,7.851-.124,1.595-3.592,2.764-6.337,2.658s-5.129-.448-6.525-1.427c-1.741-1.219-5.138-2.445-5.645-3.473a4.556,4.556,0,0,1,.074-3.705C740.956,632.414,741.458,631.837,741.458,631.837Z" fill="#42434a"/><path d="M748.461,628.94a3.947,3.947,0,0,0,.746,3.356s.383,1.536-1.817,2.532c-1.243.563-6.283-.63-6.283-.63-.152-1.784-.063-4.453-.063-4.453Z" fill="#ff8eaa"/><path d="M740.975,447.961c13.344,1.934,49.234,8.963,53.837,7.364.234,3.888-18.453,50.064-26.173,97.692-6.6,40.751-19.914,77.341-19.914,77.341-.1.29-5.744,2.809-8.231-.408,0,0,9.668-40.419,5.032-78.918C742.142,522.947,739.046,504.458,740.975,447.961Z" fill="#c7cfe4"/><path d="M807.122,350.6c-.12.759-3,8.58-1.775,13.139-1.282,3.932-12.45,2.532-14.657-4.686,1.53-1.783,3.914-11.981,3.846-15.763C795.377,344.089,804.321,350.665,807.122,350.6Z" fill="#ff8eaa"/><path d="M806.348,331.212c5.1.3,9.852,2.1,10.359,7.024.184,1.762-2.527,17.115-11.069,18.4-3.612.543-9.545-6.273-9.3-10.367,0,0,.329-5.584.334-5.639C796.988,335.2,800.865,330.889,806.348,331.212Z" fill="#ff8eaa"/><path d="M778.979,360.618c2.86-.756,11.711-1.566,11.711-1.566s5.339,5.981,9.271,6.775c2.7.545,5.386-2.089,5.386-2.089s9.417,4.23,11.065,5.491c6.4,4.893,2.966,13.633,1.911,21.251-.612,4.419-11.678,44.756-9.261,84.239-6.874,7.715-35.111,14.076-59.013,1.21l1.859-27.446-7.834,26.011c-1.586-.4-4.964-.694-6.227-.949C737.847,399.7,753.405,367.369,778.979,360.618Z" fill="#505159"/><path d="M780.713,387.88c3.572,17.758,31.571,39.592,31.571,39.592s-7.21,2.228-16.95-2.26c-14.22-6.553-25.189-17.648-28.185-29.72C764.85,386.228,779.562,382.152,780.713,387.88Z" fill="#42434a"/><path d="M790.69,359.052s5.339,5.981,9.271,6.775c2.7.545,5.386-2.089,5.386-2.089s8.806,3.957,10.866,5.355c-1.605,7.94-11.769,15.2-11.769,15.2s-15.053-16.882-25.465-23.671a25.6,25.6,0,0,1,5.753-1.136C786.147,359.377,790.69,359.052,790.69,359.052Z" fill="#42434a"/><path d="M795.632,321.839c10.747-8.462,28.186,1.254,27.871,12.1-.067,2.4-2.72,8.05-24.853,1.743-2.973,3.693-4.607,12.23-4.607,12.23C787.763,341.547,787.415,328.308,795.632,321.839Z" fill="#ffde91"/><path d="M796,338.363a4.646,4.646,0,0,1,2.356.5,65.87,65.87,0,0,1-1.594,6.506,4.9,4.9,0,0,1-3.245-3.481C793.4,340.478,794.585,338.48,796,338.363Z" fill="#ff8eaa"/><path d="M861.406,424.081c.347.587-1.86,2.612-2.522,2.753-1.7-.143-1.606-1.135-3.214-1.04a14.3,14.3,0,0,0,4.025-1.583C860.352,423.78,860.948,423.125,861.406,424.081Z" fill="#ff8eaa"/><path d="M859.465,425.93c2.006.153,6.445,1,6.756,1.056a25.018,25.018,0,0,1,3.824.86,3.824,3.824,0,0,1,1.274,1.895,1.151,1.151,0,0,1-.683,1.092c.3.936-2.158,1.216-2.035,1.429.5.87-.535,1.825-3.994,1.081-.209-.045-9.065-.188-11.891-.468a35.826,35.826,0,0,1,1.733-7.036A35.985,35.985,0,0,1,859.465,425.93Z" fill="#ff8eaa"/><path d="M782.67,370.667a2.086,2.086,0,0,1,1.778.6c2.874,2.974,7.413,10.084,12.217,17.615,4.833,7.568,9.829,15.394,13.749,20.094a27.658,27.658,0,0,1,1.8,2.4c3.539,1.047,8.251,2.62,13.227,4.283,10.859,3.629,24.376,8.146,29.608,8.37l-1.317,10.713c-13.051-.82-43.373-5.9-51.775-11.406-8.8-5.591-38.87-30.816-34.843-38.946C768.465,381.662,779.681,371.036,782.67,370.667Z" fill="#505159"/><path d="M916.388,265.03H788.746a18.771,18.771,0,0,0,0,37.541h100.11l-3.545,17.485L907,302.571h9.385a18.771,18.771,0,0,0,0-37.541Z" fill="#ffde91"/><path d="M910.012,281.458h-53.98a1.35,1.35,0,0,0,0,2.7h53.98a1.35,1.35,0,0,0,0-2.7Z" fill="#5c5e68"/><path d="M865.9,273.592h-53.98a1.349,1.349,0,0,0,0,2.7H865.9a1.349,1.349,0,1,0,0-2.7Z" fill="#5c5e68"/><path d="M910.012,274.036H872.9a1.349,1.349,0,0,0,0,2.7h37.112a1.349,1.349,0,0,0,0-2.7Z" fill="#5c5e68"/><path d="M839.5,289.7h-53.98a1.349,1.349,0,1,0,0,2.7H839.5a1.349,1.349,0,1,0,0-2.7Z" fill="#5c5e68"/><path d="M883.6,290.143H846.492a1.349,1.349,0,1,0,0,2.7H883.6a1.349,1.349,0,1,0,0-2.7Z" fill="#5c5e68"/><path d="M850.733,281.34H813.622a1.35,1.35,0,0,0,0,2.7h37.111a1.35,1.35,0,1,0,0-2.7Z" fill="#5c5e68"/><path d="M807.36,281.34H782.722c-.494,0-.9.6-.9,1.349s.4,1.35.9,1.35H807.36c.495,0,.9-.605.9-1.35S807.855,281.34,807.36,281.34Z" fill="#5c5e68"/><path d="M1055.574,395.409H955a16.856,16.856,0,0,0-16.856,16.856V463.4A16.857,16.857,0,0,0,955,480.253h74.836l21.626,17.431-3.535-17.431h7.65A16.857,16.857,0,0,0,1072.43,463.4V412.265A16.856,16.856,0,0,0,1055.574,395.409Z" fill="#ffde91"/><path d="M961.307,437.394l27.628-14.235v4.111l-23.282,11.67v.116l23.282,11.675v4.106l-27.628-14.229Z" fill="#5c5e68"/><path d="M997.212,457.11l16.614-43.168h4.05L1001.2,457.11Z" fill="#5c5e68"/><path d="M1049.263,440.559l-27.627,14.171v-4.107l23.459-11.674v-.116l-23.459-11.67v-4.111l27.627,14.171Z" fill="#5c5e68"/><path d="M132.48,644.366a14.342,14.342,0,0,0-8.55-.6c-8.013,1.792-13.514,7.878-20.108,12.181-2.129,1.389-5,2.6-7.044.817a4.106,4.106,0,0,1-1.046-4.322c.831-2.686,3.231-4.206,5.525-5.592,7.383-4.461,14.952-8.823,21.075-14.872s10.742-14.119,10.642-22.681c-.044-3.888-1.527-8.441-6.813-8.136a8.951,8.951,0,0,0-4.483,1.61l-14.353,9.755a2.21,2.21,0,0,1-3.408-2.311l4.886-20.51c.891-3.747,1.793-7.591.644-11.434a8.644,8.644,0,0,0-2.651-4.165c-5-4.2-12.026-.33-16.134,4.255a43.427,43.427,0,0,0-10.907,31c.1,1.792.271,3.759-1.278,5.062a4.431,4.431,0,0,1-5.423-.072c-2.539-1.837-3.179-5-3.689-7.942-.612-3.526-1.343-7.359-5.3-8.962a8.6,8.6,0,0,0-9.327,2.241c-4.624,4.817-4.044,11.728-2.37,17.724a58.352,58.352,0,0,0,14.757,25.318c2.658,2.677,5.663,5.217,7.108,8.686,1.724,4.141.219,10.146-5.151,10.262a7.265,7.265,0,0,1-4.11-1.268c-3.2-2.107-4.691-5.567-6.523-8.733-2.378-4.111-6.6-8.326-11.385-6.451a7.039,7.039,0,0,0-3.49,3.112c-1.857,3.266-1.515,6.979-.771,10.464a46.891,46.891,0,0,0,9,18.913c5.919,7.546,14.126,14.7,23.494,17.554,16,4.89,32.652-10.239,44.621-18.609,5.961-4.168,12.242-8.118,16.466-14.161C140.391,656.773,140.869,647.808,132.48,644.366Z" fill="#004a6c"/><path d="M92.338,602.045a.42.42,0,0,0-.491.329,428.8,428.8,0,0,0-6.9,113.879.418.418,0,0,0,.416.389h.031a.418.418,0,0,0,.387-.447,427.942,427.942,0,0,1,6.891-113.659A.416.416,0,0,0,92.338,602.045Z" fill="#00879b"/><path d="M121.672,611.391c-5.017,6.883-10.2,14-17.32,19-7.775,5.46-17.069,7.136-24.255,4.373-5.783-2.222-9.745-6.917-12.05-10.464-3.023-4.653-5.057-10.043-6.852-14.8a.417.417,0,1,0-.781.295c1.809,4.795,3.86,10.228,6.933,14.956,2.372,3.651,6.457,8.486,12.449,10.789a21.367,21.367,0,0,0,7.58,1.365,30.681,30.681,0,0,0,17.455-5.834c7.231-5.078,12.46-12.253,17.517-19.19a.418.418,0,0,0-.676-.492Z" fill="#00879b"/><path d="M126.7,655.712c-7.55,7.68-14.748,12.866-22.369,18.357l-1.719,1.241c-8.99,6.495-19.44,8.651-27.952,5.765-9.974-3.378-16.308-13.092-20.2-20.105a.418.418,0,1,0-.731.406c3.963,7.133,10.418,17.019,20.667,20.492a25.246,25.246,0,0,0,8,1.3c6.835.031,14.156-2.447,20.705-7.177l1.718-1.239c7.65-5.515,14.876-10.721,22.475-18.451a.418.418,0,1,0-.6-.586Z" fill="#00879b"/><path d="M95.259,659.425a4.331,4.331,0,0,0-2.679-1.035c-3.146-.035-4.631,3.32-5.086,6.211-.35,2.226-.443,4.551-1.805,6.465a4.408,4.408,0,0,1-2.07,1.628c-3.094,1.108-5.274-2.028-5.2-4.795.063-2.318,1.221-4.441,2.15-6.565A36.16,36.16,0,0,0,83.429,643.5c-.365-3.826-2.688-8.7-5.255-9.71-1.365-.538-4.681-.176-5.824.744-1.25,1.006-1.484,4.162-1.058,6.331.356,1.811.686,3.773-.36,5.388a2.686,2.686,0,0,1-3.083,1.226c-1.171-.414-1.507-1.585-1.844-2.641a26.946,26.946,0,0,0-13.056-15.506c-3.355-1.751-8.219-2.446-10.156,1.068a5.357,5.357,0,0,0-.6,2.981c.189,2.47,1.55,4.489,2.885,6.458l7.306,10.767a1.355,1.355,0,0,1-1.44,2.078L40.6,650.192a5.446,5.446,0,0,0-2.916.051c-3.088.978-2.933,3.93-2.1,6.182,1.828,4.962,6.243,8.611,11.072,10.763s10.115,3.017,15.315,3.978c1.615.3,3.322.65,4.388,2.019a2.553,2.553,0,0,1,.352,2.723c-.772,1.474-2.681,1.4-4.2,1.066-4.714-1.041-9.2-3.351-14.17-2.634a8.688,8.688,0,0,0-4.753,2.212c-4.037,3.818-1.79,8.886,1.762,11.319,3.743,2.565,8.4,5.416,12.721,6.519,8.681,2.216,21.332,5.363,29.4-.954,4.724-3.692,7.839-9.614,9.561-15.261A29.135,29.135,0,0,0,98,665.294C97.661,663.12,97.039,660.9,95.259,659.425Z" fill="#ffc343"/><path d="M57.79,643.3a.53.53,0,1,0-.9.56,266.516,266.516,0,0,1,28.922,64.014.53.53,0,0,0,1.014-.306A267.454,267.454,0,0,0,57.79,643.3Z" fill="#f7b63b"/><path d="M76.893,640.332a.525.525,0,0,0-.528.533,47.361,47.361,0,0,1-.654,9.977,15.9,15.9,0,0,1-4.5,8.525c-3.43,3.1-9.013,4.141-14.566,2.712-5.124-1.317-9.635-4.279-14-7.144a.53.53,0,0,0-.582.887c4.435,2.912,9.022,5.922,14.313,7.283a20.177,20.177,0,0,0,7.551.512,14.615,14.615,0,0,0,7.993-3.465,16.955,16.955,0,0,0,4.823-9.092,48.289,48.289,0,0,0,.675-10.2A.527.527,0,0,0,76.893,640.332Z" fill="#ffb100"/><path d="M92.142,668.6a.531.531,0,0,0-.6.452c-.677,4.852-2.142,11.774-7.024,15.842-4.158,3.465-10.511,4.487-16.991,2.725l-1.247-.336A98.468,98.468,0,0,1,49.5,681.59a.53.53,0,1,0-.446.961A99.088,99.088,0,0,0,66,688.306l1.246.339a23.659,23.659,0,0,0,9.185.708,16.955,16.955,0,0,0,8.763-3.644c5.165-4.3,6.692-11.483,7.394-16.51A.53.53,0,0,0,92.142,668.6Z" fill="#f7b63b"/><path d="M111.718,674.965a3.1,3.1,0,0,0-1.641-.214l-6,.752a.769.769,0,0,1-.679-1.264l4.8-5.612a7.676,7.676,0,0,0,2.036-3.459,3.039,3.039,0,0,0-.146-1.72c-.87-2.1-3.658-2.021-5.662-1.247a15.293,15.293,0,0,0-8.347,7.921c-.258.573-.521,1.213-1.207,1.373a1.525,1.525,0,0,1-1.661-.889,4.034,4.034,0,0,1,.138-3.06c.377-1.2.768-2.509-.2-3.64a2.966,2.966,0,0,0-3.238-.788c-2.2.764-3.133,3.008-3.579,5.144a20.521,20.521,0,0,0,.482,10.241,10.311,10.311,0,0,1,.8,3.839c-.134,1.565-1.564,3.2-3.238,2.375a2.52,2.52,0,0,1-1.065-1.05,8.166,8.166,0,0,1-.608-3.76c-.073-1.661-.7-3.647-2.476-3.827a2.454,2.454,0,0,0-1.575.414,5.135,5.135,0,0,0-1.92,3.138,16.528,16.528,0,0,0-.263,7.327,17.5,17.5,0,0,0,4.425,9.216c4.149,4.073,11.718,2.016,16.756,1.317,2.507-.348,5.081-.578,7.354-1.787,2.158-1.147,3.747-3.864,1.713-6.273a4.945,4.945,0,0,0-2.542-1.549c-2.76-.72-5.435.3-8.16.588-.881.094-1.962.011-2.305-.869a1.454,1.454,0,0,1,.372-1.513,3.8,3.8,0,0,1,2.6-.862,38.107,38.107,0,0,0,8.891-1.272,11.434,11.434,0,0,0,6.93-5.368C113.125,677.368,113.4,675.712,111.718,674.965Z" fill="#5ccdfc"/><path d="M100.716,669.694a152.044,152.044,0,0,0-20.473,34.442.431.431,0,0,0,.793.338,151.056,151.056,0,0,1,20.356-34.247.43.43,0,0,0-.676-.533Z" fill="#0080ef"/><path d="M108.561,677.181a27.273,27.273,0,0,1-8.308,3.131c-3.182.449-6.22-.476-7.93-2.412a8.9,8.9,0,0,1-1.964-5.021,26.731,26.731,0,0,1,.264-5.64.431.431,0,0,0-.855-.1,27.539,27.539,0,0,0-.267,5.825,9.757,9.757,0,0,0,2.177,5.509,9.065,9.065,0,0,0,6.7,2.814,12.49,12.49,0,0,0,2-.12,27.841,27.841,0,0,0,8.577-3.215.43.43,0,0,0-.389-.768Z" fill="#0080ef"/><path d="M103.028,691.775a55.694,55.694,0,0,1-9.8,2.142l-.734.112c-3.726.576-7.2-.385-9.3-2.575-2.464-2.573-2.848-6.538-2.92-9.3a.431.431,0,0,0-.861.023c.077,2.9.489,7.082,3.16,9.869a10.636,10.636,0,0,0,7.531,3,14.368,14.368,0,0,0,2.52-.172l.733-.112a56.3,56.3,0,0,0,9.942-2.174.431.431,0,0,0-.272-.818Z" fill="#0080ef"/><path d="M97.3,696.82l-30.758-.14a1.748,1.748,0,0,0-1.715,2.129l1.116,5.014a1.751,1.751,0,0,0,1.7,1.368l28.477.129a1.752,1.752,0,0,0,1.714-1.353l1.161-5A1.748,1.748,0,0,0,97.3,696.82Z" fill="#003f78"/><path d="M70.459,722.372a2.371,2.371,0,0,0,2.334,2.041l18,.081a2.365,2.365,0,0,0,2.35-2.019L95.7,705.319l-27.642-.126Z" fill="#0070be"/><path d="M75.437,722.4l-2.4-17.18-.418,0a1.75,1.75,0,0,1-1.7-1.369l-1.115-5.012A1.748,1.748,0,0,1,71.52,696.7l-4.978-.023a1.748,1.748,0,0,0-1.715,2.129l1.116,5.012a1.75,1.75,0,0,0,1.7,1.37l.418,0,2.4,17.179a2.371,2.371,0,0,0,2.334,2.041l4.978.021A2.368,2.368,0,0,1,75.437,722.4Z" fill="#061233" opacity="0.33"/><path d="M291.372,713.6a10.437,10.437,0,0,1-3.293,7.6,11.142,11.142,0,0,1-5.723,2.912,11.7,11.7,0,0,1-2.1.188l-102.727-.037-6.668,0,0-2.011V720.21l.014-13.225v-2.04l0-2.048v-.043l44.624.017h.014l5.806,0,5.9,0h6.756l6.044,0,22.47.01,18.286.006A10.9,10.9,0,0,1,291.372,713.6Z" fill="#0069ba"/><path d="M97.412,722.135a8.646,8.646,0,0,0,1.4-17.226l78.32.037a8.663,8.663,0,1,1-.52,17.315l-79.455-.035v-.092Z" fill="#e2eff4" fill-rule="evenodd"/><path d="M176.61,720.214a7.179,7.179,0,0,0,5-1.966,6.4,6.4,0,0,0,2.025-4.647,6.8,6.8,0,0,0-6.613-6.615l-83.5-.039,0-4.093,83.6.043a10.908,10.908,0,0,1,10.6,10.707,10.445,10.445,0,0,1-3.292,7.6,11.256,11.256,0,0,1-7.826,3.1l-83.1-.041,0-4.092Z" fill="#004880"/><path d="M155.993,728l-3.548-3.082-3.551,2.983V710.806h7.1Z" fill="#ffcb00" fill-rule="evenodd"/><path d="M204.178,713.58l-5.149,3.954-5.149-3.954,5.149-3.953Z" fill="#004880"/><path d="M127.784,684.691a9.284,9.284,0,0,0-9.017,9.113,8.89,8.89,0,0,0,2.8,6.472,9.582,9.582,0,0,0,6.661,2.638l93.1-.036-.016-18.222Z" fill="#ff3a00"/><path d="M284.056,701.063v.078l-44.033.021-6.044,0h-.722l-11.932,0-4.888,0a7.371,7.371,0,1,1-.442-14.734l5.314,0,11.7,0,49.634-.024a7.822,7.822,0,0,0-3.891,1.737,7.166,7.166,0,0,0,.192,11.256,7.869,7.869,0,0,0,4.888,1.665Z" fill="#b6d1e3" fill-rule="evenodd"/><path d="M287.16,702.878l-24.667.013-22.47.01-6.044,0-6.732,0-10.81.008c-.27,0-.54-.011-.807-.034a1.01,1.01,0,0,1-.111-.01h-.014a9.562,9.562,0,0,1-5.726-2.594,8.893,8.893,0,0,1-2.8-6.473,9.2,9.2,0,0,1,7.641-8.942,9.59,9.59,0,0,1,1.378-.168l5.314,0,11.7-.006,21.681-.01,15.41-.008h.007l17.032-.01v.008l0,3.475-8.391,0-45.743.024-11.7,0-5.222,0a5.79,5.79,0,0,0-5.632,5.631,5.453,5.453,0,0,0,1.726,3.952,6.115,6.115,0,0,0,4.25,1.675l4.888,0,12.657-.007h3.594l2.45,0,38.925-.021,8.209,0Z" fill="#cc2500"/><path d="M233.981,708.433,237,705.811l3.021,2.539V691.422h-6.041Z" fill="#ffc442" fill-rule="evenodd"/><path d="M192.974,693.785l4.382,3.365,4.382-3.365-4.382-3.365Z" fill="#cc2500"/><path d="M253.173,667.354a8.928,8.928,0,0,1,8.67,8.762,8.545,8.545,0,0,1-2.695,6.222,9.2,9.2,0,0,1-6.4,2.536l-89.518-.033.016-17.523Z" fill="#ffc442"/><path d="M103.12,683.1a7.075,7.075,0,0,0,1.143-14.1l64.09.03a7.089,7.089,0,1,1-.426,14.169l-65.019-.028V683.1Z" fill="#e2eff4" fill-rule="evenodd"/><path d="M167.929,681.525a5.87,5.87,0,0,0,4.088-1.608,5.236,5.236,0,0,0,1.658-3.8,5.56,5.56,0,0,0-5.412-5.413l-68.326-.033,0-3.351,68.413.036a8.928,8.928,0,0,1,8.671,8.762,8.545,8.545,0,0,1-2.695,6.222,9.2,9.2,0,0,1-6.4,2.536l-68-.033,0-3.349Z" fill="#f7b63b"/><path d="M151.058,690.183l-2.9-2.522-2.906,2.441V673.826h5.809Z" fill="#0069ba" fill-rule="evenodd"/><path d="M190.489,676.1l-4.214,3.236-4.213-3.236,4.213-3.236Z" fill="#f7b63b"/><path d="M279.856,657.854a10.18,10.18,0,0,1-2.593,6.9,8.3,8.3,0,0,1-5.895,2.8c-.088.007-.182.007-.274.007h-1.02l-15.4-.007-34.347-.014-30.2-.014-5.256,0V665.7l0-1.858.011-11.992,0-1.848v-1.9l9.131,0,6.4,0,12.653.007h6.041l8.5,0,38.641.017,5.249,0C276.229,648.434,279.86,652.7,279.856,657.854Z" fill="#0069ba"/><path d="M126.981,665.59c3.944,0,7.143-3.512,7.147-7.85a7.667,7.667,0,0,0-6.046-7.768l61.73.035c3.76.227,6.74,3.653,6.736,7.847,0,4.338-3.2,7.855-7.147,7.85l-62.624-.031v-.085Z" fill="#e2eff4" fill-rule="evenodd"/><path d="M189.4,663.849a5.283,5.283,0,0,0,3.938-1.782,6.248,6.248,0,0,0,1.6-4.214,5.815,5.815,0,0,0-5.213-6l-65.809-.035,0-3.711,65.894.038c4.722.286,8.354,4.55,8.35,9.708a10.189,10.189,0,0,1-2.594,6.893,8.286,8.286,0,0,1-6.169,2.811l-65.5-.037,0-3.712Z" fill="#004880"/><path d="M173.153,673.44l-2.8-2.794-2.8,2.705V655.318h5.595Z" fill="#ffcb00" fill-rule="evenodd"/><path d="M184.08,542.828c1.038,8.339-.775,9.461-2.629,12.5-9.147,15.035,16.563,29.094,16.469,20.281-.036-3.434-9.836-4.343-.036-13.736,10.833-10.381,4.005-14.9,1.8-19.02-8.365-15.61.913-14.546,3.963-11.889,1.8,1.572,2.564.346,2.343-1.44C205.085,522.261,180.644,515.162,184.08,542.828Z" fill="#003f5c"/><path d="M194.691,619.362c8.272-1.763,56.987,6,76.858,12.816,8.453,2.9,6.31,13.727-1.9,15.711-21.922,5.3-48.649,2.186-66.818-1.779C186.875,642.628,185.762,621.267,194.691,619.362Z" fill="#c0d2e2"/><path d="M259.706,712.313l5.285.628a18.891,18.891,0,0,0,.059,3.052c.334,2.05,8.383,5.6,7.46,7.823-.436,1.051-3.422.647-5.4-.17-1.83-.759-5.278-2.167-6.39-2.65-1.419-.617-4.035-1.206-4.344-1.963-.8-1.957,1.682-3.012,2.245-4.374C259.113,713.483,259.706,712.313,259.706,712.313Z" fill="#00265a"/><path d="M265.223,712.8a9.826,9.826,0,0,0-.173,3.189s.293.724-.873.932c-.956.171-5.552-2.266-5.552-2.266.469-1.184,1.454-3.506,1.454-3.506Z" fill="#fecfb3"/><path d="M189.86,611.973c8.458,0,54.476,17.767,72.486,28.582,7.662,4.6,3.3,14.743-5.135,14.97-22.546.609-52.248-3.548-69.188-11.218C173.143,637.568,180.73,611.969,189.86,611.973Z" fill="#e3eff4"/><path d="M266.87,649.852c-.855,36.824-1.5,64.237-1.5,64.237-1.757,1.17-4.8,1.2-7.289.8,0,0-5.341-28.111-10.339-60.128C244.453,633.65,267.219,634.83,266.87,649.852Z" fill="#e3eff4"/><path d="M271.766,612.336c.53-.173,1.06-.513,1.2.227.129.47-1.761,1.45-2.243,1.423-1.137-.413-.891-1.076-2.012-1.309A10.218,10.218,0,0,0,271.766,612.336Z" fill="#fecfb3"/><path d="M271.289,613.475c1.349.476,4.24,1.877,4.442,1.976a17.71,17.71,0,0,1,2.466,1.3,2.71,2.71,0,0,1,.522,1.537.816.816,0,0,1-.671.622c.03.7-1.706.436-1.662.6.185.691-.7,1.153-2.941,0-.135-.07-6.19-1.81-8.077-2.525a25.56,25.56,0,0,1,2.494-4.511A25.578,25.578,0,0,1,271.289,613.475Z" fill="#fecfb3"/><path d="M228.806,562.654c2.723,4.93,7.089,22.573,10.795,30.619,4.546,9.869-3.962,9.515-6.3,6.972-6.166-6.7-19.9-28.011-16.755-31.567C217.9,567.137,228.313,561.762,228.806,562.654Z" fill="#fecfb3"/><path d="M237.149,593.976a3.647,3.647,0,0,1,1.11.326c5.445,2.726,23.842,16.32,29.967,18.258a20.216,20.216,0,0,0-2.1,4.691c-10.011-3.391-33.982-14.645-33.807-18.863C232.48,594.522,235.257,593.707,237.149,593.976Z" fill="#fecfb3"/><path d="M228.808,561.637a1.445,1.445,0,0,1,1.071.734c1.348,2.529,3.019,8.131,4.787,14.061a156.575,156.575,0,0,0,5.335,16,19.262,19.262,0,0,1,.744,1.94c2.158,1.371,5,3.318,8,5.372,6.545,4.483,14.69,10.065,18.134,11.212l-2.915,6.887c-8.54-3.032-27.774-12.189-32.324-17.454-4.8-5.4-20.032-27.927-15.8-32.577C217.252,566.26,226.746,561.314,228.808,561.637Z" fill="#cc2500"/><path d="M228.665,614.946l5.657,8.093s-4.872,4.918-9.268,4.593l-1.875-3.872-.518,4.717c-22.6,7.008-42.841-1.387-42.841-1.387-.884-7.276.64-18.968.64-18.968Z" fill="#ccdae8"/><path d="M199.557,553.857c2.076-.35,8.249-1.6,8.249-1.6s4.04,4.023,6.865,4.423c1.939.274,3.735-1.709,3.735-1.709s6.862,2.61,8.085,3.437A10.954,10.954,0,0,1,231,570.495c-3.263,13.678,1.875,46.072-2.36,47.743-5.779,2.28-40.114,9.475-50.07.147,0,0,5.106-39.857,9.765-53.071C190.115,560.264,193.332,554.908,199.557,553.857Z" fill="#ff3b00"/><path d="M283.773,704.094l5.229-.981a18.988,18.988,0,0,0,.97,2.9c.932,1.857,9.672,2.833,9.458,5.233-.1,1.133-3.072,1.642-5.2,1.452-1.973-.177-5.685-.491-6.891-.617-1.537-.164-4.21.055-4.73-.573-1.35-1.629.7-3.378.832-4.846C283.557,705.389,283.773,704.094,283.773,704.094Z" fill="#00265a"/><path d="M289.183,702.914a9.8,9.8,0,0,0,.789,3.094s.5.6-.555,1.151c-.86.449-5.975-.5-5.975-.5.093-1.269.339-3.779.339-3.779Z" fill="#fecfb3"/><path d="M277.915,640.3c6.854,36.191,11.952,63.133,11.952,63.133-1.473,1.512-4.879,2.2-7.377,1.313,0,0-10.679-25.384-22.252-55.651C252.608,629.143,275.118,625.541,277.915,640.3Z" fill="#c0d2e2"/><path d="M209.811,628.4v.009a1.491,1.491,0,0,0,1.486,1.486h34.957a1.491,1.491,0,0,0,1.486-1.486V628.4Z" fill="#97b3bb"/><path d="M251.512,597.573,244.226,628c-.121.486-.015,1.887,1.8,1.887l29.618-.373V595.573l-21.448.008A2.713,2.713,0,0,0,251.512,597.573Z" fill="#97b3bb"/><path d="M291.754,595.566H253.893a.87.87,0,0,0-.839.64l-7.8,32.58a.871.871,0,0,0,.839,1.1h35.254a4.3,4.3,0,0,0,4.144-3.152l7.1-30.068A.871.871,0,0,0,291.754,595.566Z" fill="#d5e0e3"/><path d="M257.165,628.015h-9.642l1.948-8.831Z" fill="#fff" opacity="0.42"/><path d="M252.47,605.588l1.927-8.737h2.737q13.575,15.582,27.153,31.164H272.011Z" fill="#fff" opacity="0.42"/><path d="M197.5,564.448c2.7,6.9,7.674,12.6,11.459,19.376,5.258,9.42,10.925,23.2,19.446,29.69-9.191-1.753-18.164-4.817-22.3-8.748-5.938-5.646-19.05-28.867-9.762-38A7.2,7.2,0,0,0,197.5,564.448Z" fill="#cc2500"/><path d="M247.063,614.377c.538-.147,1.084-.462,1.186.285.106.473-1.829,1.362-2.308,1.312-1.116-.466-.838-1.117-1.949-1.4A10.241,10.241,0,0,0,247.063,614.377Z" fill="#fecfb3"/><path d="M243.157,614.334a25.1,25.1,0,0,1,3.375,1.158c1.324.539,4.144,2.078,4.341,2.187a17.807,17.807,0,0,1,2.4,1.415,2.728,2.728,0,0,1,.449,1.562.819.819,0,0,1-.7.589c-.005.7-1.726.353-1.69.523.151.7-.759,1.119-2.938-.14-.13-.074-6.094-2.1-7.946-2.911A25.457,25.457,0,0,1,243.157,614.334Z" fill="#fecfb3"/><path d="M206.546,562.684c2.482,5.055,5.993,22.888,9.307,31.1,4.064,10.077-4.416,9.314-6.631,6.661-5.836-6.988-18.524-28.937-15.215-32.338C195.442,566.637,206.1,561.768,206.546,562.684Z" fill="#fecfb3"/><path d="M213.371,594.37a3.635,3.635,0,0,1,1.093.38c5.307,2.984,23.027,17.449,29.053,19.68a20.162,20.162,0,0,0-2.32,4.585c-9.835-3.869-33.237-16.264-32.86-20.471C208.68,594.693,211.492,594.012,213.371,594.37Z" fill="#fecfb3"/><path d="M206.01,561.556a1.44,1.44,0,0,1,1.034.785c1.225,2.591,7.134,26.562,8.664,30.517a19.633,19.633,0,0,1,.649,1.974c2.089,1.473,4.832,3.555,7.727,5.75,6.321,4.794,14.188,10.761,17.572,12.071l-3.243,6.74c-8.384-3.441-27.155-13.511-31.446-18.99-4.533-5.624-18.664-28.861-14.215-33.3C194.243,565.616,203.966,561.134,206.01,561.556Z" fill="#ff3b00"/><path d="M209.508,540.794c.722.481,7.884,5.145,9.893,4.765.023.564-2.289,6.415-.749,9.574-.358,3-8.607,3.312-11.235-1.658C208.263,552,210.1,543.528,209.508,540.794Z" fill="#fecfb3"/><path d="M213.1,529.791c-4.276,1.1-6.183,5.355-5.093,9.589.01.044.857,4.53.857,4.53.822,3.194,7.313,6.82,9.943,5.516,6.223-3.084,4.524-15.5,3.95-16.806C221.155,528.976,217.079,528.765,213.1,529.791Z" fill="#fecfb3"/><path d="M218.723,526.982s-10.175-3.957-15.07,2.474c-7.372,9.682,4.866,17.073,4.866,17.073.745-3.338.019-14.618,9.457-16.23,0,0,5.52,1.478,5.4,9.232C226.29,537.462,225.911,527.017,218.723,526.982Z" fill="#003f5c"/><path d="M206.521,540.791a3.94,3.94,0,0,0,2.775,2.636,53.493,53.493,0,0,0,.962-5.3,3.736,3.736,0,0,0-1.916-.288C207.215,538,206.359,539.665,206.521,540.791Z" fill="#fecfb3"/><path d="M204.642,526.242a2.707,2.707,0,0,0-1.528.708c-1.909,1.7-1.68,3.208-.79,4.474a14.422,14.422,0,0,1,4.565-4.559A3.5,3.5,0,0,0,204.642,526.242Z" fill="#f17548"/><path d="M504.387,508.135H425.379a13.242,13.242,0,0,0-13.241,13.242v22.51a13.242,13.242,0,0,0,13.241,13.242h58.788l16.989,13.693-2.777-13.693h6.008a13.242,13.242,0,0,0,13.242-13.242v-22.51A13.242,13.242,0,0,0,504.387,508.135Z" fill="#ffde91"/><path d="M452.232,523.229h42.449a1.475,1.475,0,0,0,1.475-1.475h0a1.475,1.475,0,0,0-1.475-1.476H452.232a1.476,1.476,0,0,0-1.476,1.476h0A1.475,1.475,0,0,0,452.232,523.229Z" fill="#5c5e68"/><path d="M440.847,528.354h41.721a1.475,1.475,0,0,0,1.475-1.475h0a1.476,1.476,0,0,0-1.475-1.476H440.847a1.476,1.476,0,0,0-1.476,1.476h0A1.475,1.475,0,0,0,440.847,528.354Z" fill="#5c5e68"/><path d="M430.033,544.465h41.721a1.475,1.475,0,0,0,1.475-1.475h0a1.475,1.475,0,0,0-1.475-1.476H430.033a1.476,1.476,0,0,0-1.476,1.476h0A1.475,1.475,0,0,0,430.033,544.465Z" fill="#5c5e68"/><path d="M462.3,533.247h32.386a1.475,1.475,0,0,0,1.475-1.475h0a1.475,1.475,0,0,0-1.475-1.476H462.3a1.476,1.476,0,0,0-1.476,1.476h0A1.476,1.476,0,0,0,462.3,533.247Z" fill="#5c5e68"/><path d="M478.658,544.5h16.023a1.475,1.475,0,0,0,1.475-1.475h0a1.475,1.475,0,0,0-1.475-1.476H478.658a1.475,1.475,0,0,0-1.475,1.476h0A1.475,1.475,0,0,0,478.658,544.5Z" fill="#5c5e68"/><path d="M428.408,533.247H455.7a1.475,1.475,0,0,0,1.476-1.475h0A1.475,1.475,0,0,0,455.7,530.3H428.408a1.475,1.475,0,0,0-1.475,1.476h0A1.475,1.475,0,0,0,428.408,533.247Z" fill="#5c5e68"/><path d="M441.438,538.372H479.38a1.476,1.476,0,0,0,1.476-1.475h0a1.475,1.475,0,0,0-1.476-1.475H441.438a1.474,1.474,0,0,0-1.475,1.475h0A1.475,1.475,0,0,0,441.438,538.372Z" fill="#5c5e68"/><path d="M422.21,548.678a3.242,3.242,0,0,1-.924-2.574v-3.32a1.964,1.964,0,0,0-.477-1.571,2.6,2.6,0,0,0-1.59-.377v-1.273a2.6,2.6,0,0,0,1.59-.377,1.964,1.964,0,0,0,.477-1.571v-3.321a3.248,3.248,0,0,1,.924-2.574,3.426,3.426,0,0,1,2.655-.646v1.273a2.43,2.43,0,0,0-1.73.3,2.015,2.015,0,0,0-.537,1.649v3.321q0,2.127-1.551,2.584,1.553.458,1.551,2.585v3.32a2.019,2.019,0,0,0,.537,1.65,2.43,2.43,0,0,0,1.73.3v1.272A3.421,3.421,0,0,1,422.21,548.678Z" fill="#5c5e68"/><path d="M501.036,534.722v-1.273a2.435,2.435,0,0,0,1.73-.3,2.02,2.02,0,0,0,.537-1.651v-3.32q0-2.125,1.55-2.584-1.551-.459-1.55-2.584v-3.321a2.015,2.015,0,0,0-.537-1.649,2.43,2.43,0,0,0-1.73-.3v-1.273a3.415,3.415,0,0,1,2.654.646,3.245,3.245,0,0,1,.925,2.574v3.321a1.959,1.959,0,0,0,.477,1.57,2.6,2.6,0,0,0,1.59.378v1.272a2.6,2.6,0,0,0-1.59.377,1.96,1.96,0,0,0-.477,1.571v3.32a3.246,3.246,0,0,1-.925,2.575A3.427,3.427,0,0,1,501.036,534.722Z" fill="#5c5e68"/></g></svg>