<svg xmlns="http://www.w3.org/2000/svg" xmlns:xlink="http://www.w3.org/1999/xlink" width="178.108" height="317.359" viewBox="0 0 178.108 317.359">
  <defs>
    <linearGradient id="linear-gradient" x1="-107.512" y1="0.5" x2="-106.512" y2="0.5" gradientUnits="objectBoundingBox">
      <stop offset="0" stop-color="#fcd528"/>
      <stop offset="1" stop-color="#ffb800"/>
    </linearGradient>
    <linearGradient id="linear-gradient-2" x1="63.47" y1="0.5" x2="64.47" y2="0.5" xlink:href="#linear-gradient"/>
    <linearGradient id="linear-gradient-3" x1="-165.115" y1="0.5" x2="-164.115" y2="0.5" xlink:href="#linear-gradient"/>
  </defs>
  <g id="Group_10856" data-name="Group 10856" transform="translate(-1142.248 -1623.921)">
    <g id="Group_4325" data-name="Group 4325" transform="translate(61.125)">
      <path id="Path_5755" data-name="Path 5755" d="M1128.409,1664.043c-.606.109-.689,2.81-.393,3.346,1.095,1.073,1.744,1.086,2.806,2.148a17.185,17.185,0,0,1-1.493-4.25C1129.234,1664.586,1129.332,1663.792,1128.409,1664.043Z" fill="#fecfb3"/>
      <path id="Path_5756" data-name="Path 5756" d="M1119.591,1668.856c.024.028.056.048.072.066,2.712,2.3,6.222,4.788,7.287,5.589,1.993-.715,4.217-4.869,4.171-4.942-1.423-1.007-3.2-2.862-4.426-3.8-1.422-1.118-4.886-3.264-5.131-3.423-.721-.393-2.462-1.514-3.06-1.757a1.557,1.557,0,0,0-1.956.417c-.155.271-.378,1.025,1.363,2.052a35.318,35.318,0,0,1,3.285,2.138s-1.4.329-.917,1.3c0,0-1.257.18-.832,1.294C1119.447,1667.793,1118.822,1668.218,1119.591,1668.856Z" fill="#fecfb3"/>
      <path id="Path_5757" data-name="Path 5757" d="M1166.394,1686.741a24.833,24.833,0,0,1,2.651-.37c5.441-.469,13.538-2.225,21.37-3.921,7.79-1.689,15.148-3.284,18.838-3.334a1.867,1.867,0,0,1,1.5.752c1.644,2.126,1.963,15.911,1.088,18.476-2.617,7.663-37.5,4.47-46.571,2.41-8.767-1.861-31.047-17.874-39.773-25.626l5.958-7.568c3.434,3.174,14.791,8.895,23.916,13.494C1159.547,1683.161,1163.507,1685.156,1166.394,1686.741Z" fill="#cef6fe"/>
      <path id="Path_5758" data-name="Path 5758" d="M1155,1758.8c27.888-2.709,75.6-.454,85.786,4.388,11,5.227,20.86,35.309-.924,34.9-24.8-.465-60.444-4.668-87.252-18.315C1142.576,1774.659,1143.139,1759.948,1155,1758.8Z" fill="#01447a"/>
      <path id="Path_5759" data-name="Path 5759" d="M1169.235,1859.134a25.206,25.206,0,0,0,1.45-3.8l6.917,1.593s.218,1.736.3,3.432c.1,1.964,2.733,4.407.847,6.505-.727.808-4.278.371-6.335.505-1.615.1-6.578.318-9.216.447-2.847.137-6.776-.7-6.852-2.218C1156.19,1862.384,1167.892,1861.558,1169.235,1859.134Z" fill="#801720"/>
      <path id="Path_5760" data-name="Path 5760" d="M1170.455,1855.054l7.2.245s.192,3.36.245,5.056c0,0-6.866.99-7.988.345-1.37-.789-.677-1.566-.677-1.566A13.067,13.067,0,0,0,1170.455,1855.054Z" fill="#fecfb3"/>
      <path id="Path_5761" data-name="Path 5761" d="M1171.934,1776.116c1.937,43.178,6.71,79.657,6.71,79.657-2.449,2.548-6.92,3.766-9.582,2.843,0,0-9.574-39.355-23.021-86.609C1140.554,1752.731,1171.561,1767.83,1171.934,1776.116Z" fill="#01447a"/>
      <path id="Path_5762" data-name="Path 5762" d="M1211.077,1661.032c-.057,3.126,1.912,11.551,3.177,13.025-1.822,5.966-11.052,7.121-12.11,3.872,1.011-3.767-1.37-10.229-1.468-10.857C1202.991,1667.127,1210.38,1661.693,1211.077,1661.032Z" fill="#fecfb3"/>
      <path id="Path_5763" data-name="Path 5763" d="M1256.819,1930.09l-5.161-2.245s-.9,1.678-1.656,2.775c-1.46,2.119-9.241,4.308-8.97,7.084.137,1.4,3.209,2.376,5.624,2.237a16.568,16.568,0,0,0,5.723-1.364c1.373-.6,4.486-2.239,4.916-3.154a4.015,4.015,0,0,0-.128-3.26C1257.27,1930.589,1256.819,1930.09,1256.819,1930.09Z" fill="#801720"/>
      <path id="Path_5764" data-name="Path 5764" d="M1250.229,1927.826a2.407,2.407,0,0,1-.227,2.794s.093,1.038,2.047,1.878c1.106.474,5.118-.335,5.118-.335a21.223,21.223,0,0,0-.249-3.8Z" fill="#fecfb3"/>
      <path id="Path_5765" data-name="Path 5765" d="M1214.254,1754.263c-.143,3.419,9.694,64.786,17.262,106.508a429.013,429.013,0,0,0,18.879,68.136c.091.253,5.1,2.378,7.244-.495,0,0-7.259-35.3-5.738-69.418,1.314-29.454,5.206-73.426,7.328-75.461l-6.377-29.27C1241.132,1756.186,1218.333,1755.595,1214.254,1754.263Z" fill="#015293"/>
      <path id="Path_5766" data-name="Path 5766" d="M1210,1651.292c3.917,2.289,4.609,7.032,2.342,10.911-.022.042-2.354,4.031-2.354,4.031-1.709,2.927-8.913,4.9-11.147,2.868-5.285-4.8-.116-16.6.816-17.726C1202.267,1648.224,1206.356,1649.162,1210,1651.292Z" fill="#fecfb3"/>
      <path id="Path_5767" data-name="Path 5767" d="M1190.8,1754.412c15.141,14.924,40.028,9.013,57.034,16.227l1.866-11.335,3.072,21.067c2.5,2.068,5.409,3.372,6.457,3.161,0-61.013-14.167-102.6-35.3-108.181-2.368-.622-9.68-1.3-9.68-1.3s-4.413,4.944-7.657,5.6c-2.232.449-4.45-1.731-4.45-1.731a64.13,64.13,0,0,0-7.057,3.559c-5.282,4.045-4.54,12.241-3.671,18.541.374,2.668.936,13.059.434,31.189-.015.607-.029,1.221-.052,1.843C1191.6,1739.308,1191.289,1746.426,1190.8,1754.412Z" fill="#336989"/>
      <path id="Path_5768" data-name="Path 5768" d="M1206.593,1679.656c3.248-.657,7.66-5.6,7.66-5.6l4.924.355a21.135,21.135,0,0,1,4.754.94c-8.6,5.609-21.042,19.558-21.042,19.558s-5.153-7.734-6.479-14.3c.78-.471,5.733-2.685,5.733-2.685S1204.361,1680.107,1206.593,1679.656Z" fill="#cef6fe"/>
      <path id="Path_5769" data-name="Path 5769" d="M1202.087,1645.385c7.558-4.184,16.236-.339,17.962,6.451,2.58,10.156-6.241,12.794-10.078,18.352,0,0,3.858-9.5,3.475-13.732-13.079-1.79-16.78-6.547-18.059-11C1195.387,1645.452,1197.511,1647.917,1202.087,1645.385Z" fill="#686868"/>
      <path id="Path_5770" data-name="Path 5770" d="M1213.847,1660.951c.917.727.819,2.647.092,3.563a4.042,4.042,0,0,1-3.825.907,54.556,54.556,0,0,1,1.882-5.2A3.853,3.853,0,0,1,1213.847,1660.951Z" fill="#fecfb3"/>
      <path id="Path_5771" data-name="Path 5771" d="M1191.8,1733.06c5.11-2.637,19.621-10.316,27.615-16.549a63.377,63.377,0,0,0,7.327-6.645c7.754-8.287,6-21.779-3.858-27.383-1.9-1.078-3.335-1.356-3.656-.067-3.05,12.106-21.382,39.924-27.376,48.8C1191.836,1731.824,1191.822,1732.438,1191.8,1733.06Z" fill="#275069"/>
      <path id="Path_5772" data-name="Path 5772" d="M1177.268,1676.292a12.817,12.817,0,0,0-.638,3.807c-.214-1.421-1.063-1.159-1.5-2.613,0-.6,1.361-2.9,1.94-2.711C1177.984,1675,1177.522,1675.639,1177.268,1676.292Z" fill="#fecfb3"/>
      <g id="Group_4324" data-name="Group 4324">
        <g id="Group_4317" data-name="Group 4317">
          <path id="Path_5773" data-name="Path 5773" d="M1164.725,1688.556a1.124,1.124,0,0,0,.864,1.333,1.357,1.357,0,0,0,1.5-.6l10.847-25.872-7.093-1.125Z" fill="#120d57"/>
        </g>
        <g id="Group_4318" data-name="Group 4318">
          <path id="Path_5774" data-name="Path 5774" d="M1186.484,1644.258l-9.771-1.746L1171.807,1668l9.787,1.748c6.119,1.094,12.177-3.731,13.524-10.774S1192.6,1645.35,1186.484,1644.258Z" fill="#f64c4a"/>
        </g>
        <g id="Group_4319" data-name="Group 4319">
          <path id="Path_5775" data-name="Path 5775" d="M1177.031,1642.555a3.251,3.251,0,0,0-.331-.031l0-.013-33.758-18.1-9.349,48.815,38.209-5.222v-.011c.031.007.058.02.088.027,3.642.7,7.745-4.437,9.163-11.468S1180.673,1643.253,1177.031,1642.555Z" fill="#f64c4a"/>
        </g>
        <g id="Group_4320" data-name="Group 4320">
          <path id="Path_5776" data-name="Path 5776" d="M1141.663,1624.03c-6.653-1.269-14.294,8.722-17.052,22.314-2.774,13.577.379,25.609,7.029,26.884,3.9.737,8.14-2.388,11.532-7.841a40.872,40.872,0,0,0,4.127-9.089,51.169,51.169,0,0,0,2.206-10.878,38.678,38.678,0,0,0-.5-11.35C1147.839,1628.546,1145.267,1624.708,1141.663,1624.03Z" fill="#9c3135"/>
        </g>
        <g id="Group_4321" data-name="Group 4321">
          <path id="Path_5777" data-name="Path 5777" d="M1144.192,1629.418c-5.307-1.012-11.4,6.954-13.607,17.793s.3,20.432,5.611,21.443c2.3.434,4.758-.823,6.976-3.267a40.872,40.872,0,0,0,4.127-9.089,51.169,51.169,0,0,0,2.206-10.878,38.678,38.678,0,0,0-.5-11.35C1147.906,1631.5,1146.261,1629.811,1144.192,1629.418Z" fill="#fff"/>
        </g>
        <path id="Path_5778" data-name="Path 5778" d="M1143.085,1643.733l6.579-.7a46.18,46.18,0,0,1-3.646,16.756l-5.478-3.5Z" fill="#9c3135"/>
        <g id="Group_4322" data-name="Group 4322">
          <path id="Path_5779" data-name="Path 5779" d="M1143.3,1643.81c-1.685-.322-3.621,2.208-4.321,5.65s.1,6.489,1.781,6.81a2.5,2.5,0,0,0,2.216-1.037,12.945,12.945,0,0,0,1.31-2.887,16.313,16.313,0,0,0,.7-3.454,12.238,12.238,0,0,0-.159-3.6A2.233,2.233,0,0,0,1143.3,1643.81Z" fill="#f64c4a"/>
        </g>
        <g id="Group_4323" data-name="Group 4323">
          <path id="Path_5780" data-name="Path 5780" d="M1171.807,1667.991V1668l.062.007C1171.847,1668,1171.828,1668,1171.807,1667.991Z" fill="#004143"/>
          <path id="Path_5781" data-name="Path 5781" d="M1179.886,1642.867c-.111-.021-.222-.02-.332-.031l0-.013-2.853-.312,0,.013a3.251,3.251,0,0,1,.331.031c3.642.7,5.445,6.963,4.027,13.995-1.341,6.647-5.08,11.6-8.562,11.529l2.141.238.022,0,0-.011c.03.006.059.02.088.025,3.641.7,7.745-4.436,9.163-11.466S1183.528,1643.565,1179.886,1642.867Z" fill="#120d57"/>
        </g>
      </g>
      <path id="Path_5782" data-name="Path 5782" d="M1172.183,1667.928a22.232,22.232,0,0,1,1.456,3.181c.112.259,1.667,3.979,2.171,5.7a32.148,32.148,0,0,1,1.007,4.363,32.085,32.085,0,0,1-5.824,2.813c-.765-2.415-2.527-10.123-2.6-10.3-1.288-2.881-.649-3.964.2-3.686.208.069,0-2.126.873-2.041a1.027,1.027,0,0,1,.828-.8A3.417,3.417,0,0,1,1172.183,1667.928Z" fill="#fecfb3"/>
      <path id="Path_5783" data-name="Path 5783" d="M1178.289,1680.314c1.166,4.527,7.605,15.493,12.78,24.3,1.119,1.906,2.208,3.761,3.212,5.5,3.3-3.666,7.07-8.344,10.75-12.912,5-6.209,9.72-12.074,12.559-14.431a14.118,14.118,0,0,1,2.67-1.7c3.956-1.2,14.042,3.654,11.423,15.031-1.658,7.2-22.251,23.781-32.182,29.735l-.011.008c-2.533,1.6-7.427,5.056-8.687,3.871a12.164,12.164,0,0,1-2.2-3.293c-6.362-6.488-16.308-31.8-19.42-42.986Z" fill="#cef6fe"/>
    </g>
    <g id="Group_4452" data-name="Group 4452" transform="translate(45.474 -0.5)">
      <g id="Group_4346" data-name="Group 4346">
        <g id="Group_4330" data-name="Group 4330">
          <g id="Group_4329" data-name="Group 4329">
            <g id="Group_4328" data-name="Group 4328">
              <g id="Group_4327" data-name="Group 4327">
                <g id="Group_4326" data-name="Group 4326">
                  <path id="Path_5784" data-name="Path 5784" d="M1096.774,1934.72a6.879,6.879,0,0,0,2.171,5.014,7.327,7.327,0,0,0,3.775,1.921,7.756,7.756,0,0,0,1.386.125l67.744-.025,4.4,0,0-1.326v-1.35l-.009-8.721v-1.345l0-1.351v-.029l-29.428.012h-.008l-3.83,0-3.89,0h-4.455l-3.985,0-14.819.006-12.059,0A7.191,7.191,0,0,0,1096.774,1934.72Z" fill="#6eacbb"/>
                </g>
              </g>
            </g>
          </g>
        </g>
        <g id="Group_4334" data-name="Group 4334">
          <g id="Group_4333" data-name="Group 4333">
            <g id="Group_4332" data-name="Group 4332">
              <g id="Group_4331" data-name="Group 4331">
                <path id="Path_5785" data-name="Path 5785" d="M1224.685,1940.347a5.7,5.7,0,0,1-.92-11.36l-51.651.025a5.712,5.712,0,1,0,.344,11.418l52.4-.022v-.061Z" fill="#f3f0fc" fill-rule="evenodd"/>
              </g>
            </g>
          </g>
        </g>
        <g id="Group_4339" data-name="Group 4339">
          <g id="Group_4338" data-name="Group 4338">
            <g id="Group_4337" data-name="Group 4337">
              <g id="Group_4336" data-name="Group 4336">
                <g id="Group_4335" data-name="Group 4335">
                  <path id="Path_5786" data-name="Path 5786" d="M1172.456,1939.081a4.74,4.74,0,0,1-3.3-1.3,4.217,4.217,0,0,1-1.335-3.064,4.483,4.483,0,0,1,4.361-4.363l55.064-.026,0-2.7-55.134.028a7.2,7.2,0,0,0-6.988,7.061,6.886,6.886,0,0,0,2.173,5.015,7.417,7.417,0,0,0,5.16,2.044l54.8-.027,0-2.7Z" fill="#bfe1ea"/>
                </g>
              </g>
            </g>
          </g>
        </g>
        <g id="Group_4345" data-name="Group 4345" transform="translate(0 -5)">
          <g id="Group_4344" data-name="Group 4344">
            <g id="Group_4343" data-name="Group 4343">
              <g id="Group_4342" data-name="Group 4342">
                <g id="Group_4341" data-name="Group 4341">
                  <g id="Group_4340" data-name="Group 4340">
                    <path id="Path_5787" data-name="Path 5787" d="M1186.052,1944.215l2.341-2.033,2.341,1.967v-11.274h-4.682Z" fill="#ffcb00" fill-rule="evenodd"/>
                  </g>
                </g>
              </g>
            </g>
          </g>
        </g>
        <path id="Path_5788" data-name="Path 5788" d="M1154.277,1934.706l3.4,2.607,3.4-2.607-3.4-2.608Z" fill="#bfe1ea"/>
      </g>
      <g id="Group_4361" data-name="Group 4361">
        <g id="Group_4351" data-name="Group 4351">
          <g id="Group_4350" data-name="Group 4350">
            <g id="Group_4349" data-name="Group 4349">
              <g id="Group_4348" data-name="Group 4348">
                <g id="Group_4347" data-name="Group 4347">
                  <path id="Path_5789" data-name="Path 5789" d="M1129.415,1873.52a6.4,6.4,0,0,0,1.552,4.257,4.895,4.895,0,0,0,3.527,1.733c.056,0,.108,0,.164,0l51.61-.023-.01-11.993-48.017.023-3.83,0C1131.584,1867.7,1129.41,1870.332,1129.415,1873.52Z" fill="#015578"/>
                </g>
              </g>
            </g>
          </g>
        </g>
        <g id="Group_4355" data-name="Group 4355">
          <g id="Group_4354" data-name="Group 4354">
            <g id="Group_4353" data-name="Group 4353">
              <g id="Group_4352" data-name="Group 4352">
                <path id="Path_5790" data-name="Path 5790" d="M1220.922,1878.3a4.591,4.591,0,0,1-4.277-4.85,4.705,4.705,0,0,1,3.619-4.8l-36.95.021a4.908,4.908,0,0,0,.245,9.7l37.486-.018v-.053Z" fill="#f3f0fc" fill-rule="evenodd"/>
              </g>
            </g>
          </g>
        </g>
        <g id="Group_4360" data-name="Group 4360">
          <g id="Group_4359" data-name="Group 4359">
            <g id="Group_4358" data-name="Group 4358">
              <g id="Group_4357" data-name="Group 4357">
                <g id="Group_4356" data-name="Group 4356">
                  <path id="Path_5791" data-name="Path 5791" d="M1183.557,1877.221a3.118,3.118,0,0,1-2.356-1.1,3.935,3.935,0,0,1-.957-2.6,3.555,3.555,0,0,1,3.121-3.7l39.393-.022,0-2.293-39.443.024c-2.826.176-5,2.81-5,6a6.408,6.408,0,0,0,1.554,4.259,4.893,4.893,0,0,0,3.693,1.736l39.2-.023,0-2.293Z" fill="#01648d"/>
                </g>
              </g>
            </g>
          </g>
        </g>
        <path id="Path_5792" data-name="Path 5792" d="M1170.551,1873.506l2.43,2.215,2.43-2.215-2.43-2.215Z" fill="#01648d"/>
      </g>
      <g id="Group_4382" data-name="Group 4382">
        <g id="Group_4366" data-name="Group 4366">
          <g id="Group_4365" data-name="Group 4365">
            <g id="Group_4364" data-name="Group 4364">
              <g id="Group_4363" data-name="Group 4363">
                <g id="Group_4362" data-name="Group 4362">
                  <path id="Path_5793" data-name="Path 5793" d="M1204.656,1915.654a6.122,6.122,0,0,1,5.946,6.01,5.858,5.858,0,0,1-1.847,4.267,6.311,6.311,0,0,1-4.393,1.74l-61.4-.023.012-12.017Z" fill="#01648d"/>
                </g>
              </g>
            </g>
          </g>
        </g>
        <g id="Group_4370" data-name="Group 4370">
          <g id="Group_4369" data-name="Group 4369">
            <g id="Group_4368" data-name="Group 4368">
              <g id="Group_4367" data-name="Group 4367">
                <path id="Path_5794" data-name="Path 5794" d="M1101.6,1926.451v.051l29.039.014,3.985,0h.477l7.868,0,3.223,0a4.861,4.861,0,1,0,.292-9.717l-3.5,0h-7.72l-32.731-.016a5.144,5.144,0,0,1,2.566,1.145,4.726,4.726,0,0,1-.127,7.422,5.192,5.192,0,0,1-3.224,1.1Z" fill="#e9e9e9" fill-rule="evenodd"/>
              </g>
            </g>
          </g>
        </g>
        <g id="Group_4375" data-name="Group 4375">
          <g id="Group_4374" data-name="Group 4374">
            <g id="Group_4373" data-name="Group 4373">
              <g id="Group_4372" data-name="Group 4372">
                <g id="Group_4371" data-name="Group 4371">
                  <path id="Path_5795" data-name="Path 5795" d="M1099.551,1927.647l16.268.009,14.819.006,3.985,0,4.44,0,7.128.005c.179,0,.356-.007.532-.022.026,0,.05,0,.075-.007h.008a6.3,6.3,0,0,0,3.776-1.711,5.872,5.872,0,0,0,1.85-4.268,6.07,6.07,0,0,0-5.039-5.9,6.5,6.5,0,0,0-.91-.112l-3.5,0-7.72,0-14.3-.007-10.164,0h-.005l-11.232-.007v2.3l5.533,0,30.165.015,7.719,0,3.443,0a3.819,3.819,0,0,1,3.714,3.714,3.594,3.594,0,0,1-1.139,2.605,4.031,4.031,0,0,1-2.8,1.106l-3.224,0-8.347,0h-2.371l-1.614,0-25.671-.014-5.413,0Z" fill="#015578"/>
                </g>
              </g>
            </g>
          </g>
        </g>
        <g id="Group_4381" data-name="Group 4381">
          <g id="Group_4380" data-name="Group 4380">
            <g id="Group_4379" data-name="Group 4379">
              <g id="Group_4378" data-name="Group 4378">
                <g id="Group_4377" data-name="Group 4377">
                  <g id="Group_4376" data-name="Group 4376">
                    <path id="Path_5796" data-name="Path 5796" d="M1134.622,1931.311l-1.992-1.73-1.992,1.675v-11.163h3.984Z" fill-rule="evenodd" fill="url(#linear-gradient)"/>
                  </g>
                </g>
              </g>
            </g>
          </g>
        </g>
        <path id="Path_5797" data-name="Path 5797" d="M1161.665,1921.651l-2.89,2.219-2.89-2.219,2.89-2.22Z" fill="#015578"/>
      </g>
      <g id="Group_4403" data-name="Group 4403">
        <g id="Group_4387" data-name="Group 4387">
          <g id="Group_4386" data-name="Group 4386">
            <g id="Group_4385" data-name="Group 4385">
              <g id="Group_4384" data-name="Group 4384">
                <g id="Group_4383" data-name="Group 4383">
                  <path id="Path_5798" data-name="Path 5798" d="M1121.965,1904.22a5.888,5.888,0,0,0-5.718,5.778,5.642,5.642,0,0,0,1.778,4.1,6.065,6.065,0,0,0,4.223,1.673l59.034-.022-.01-11.556Z" fill="#6eacbb"/>
                </g>
              </g>
            </g>
          </g>
        </g>
        <g id="Group_4391" data-name="Group 4391">
          <g id="Group_4390" data-name="Group 4390">
            <g id="Group_4389" data-name="Group 4389">
              <g id="Group_4388" data-name="Group 4388">
                <path id="Path_5799" data-name="Path 5799" d="M1220.922,1914.6a4.666,4.666,0,0,1-.754-9.3l-42.267.02a4.675,4.675,0,1,0,.281,9.345l42.879-.019v-.05Z" fill="#f3f0fc" fill-rule="evenodd"/>
              </g>
            </g>
          </g>
        </g>
        <g id="Group_4396" data-name="Group 4396">
          <g id="Group_4395" data-name="Group 4395">
            <g id="Group_4394" data-name="Group 4394">
              <g id="Group_4393" data-name="Group 4393">
                <g id="Group_4392" data-name="Group 4392">
                  <path id="Path_5800" data-name="Path 5800" d="M1178.181,1913.566a3.873,3.873,0,0,1-2.7-1.061,3.451,3.451,0,0,1-1.094-2.507,3.667,3.667,0,0,1,3.57-3.57l45.058-.022,0-2.209-45.117.023a5.888,5.888,0,0,0-5.718,5.778,5.635,5.635,0,0,0,1.776,4.1,6.073,6.073,0,0,0,4.225,1.673l44.845-.022,0-2.209Z" fill="#bfe1ea"/>
                </g>
              </g>
            </g>
          </g>
        </g>
        <g id="Group_4402" data-name="Group 4402">
          <g id="Group_4401" data-name="Group 4401">
            <g id="Group_4400" data-name="Group 4400">
              <g id="Group_4399" data-name="Group 4399">
                <g id="Group_4398" data-name="Group 4398">
                  <g id="Group_4397" data-name="Group 4397">
                    <path id="Path_5801" data-name="Path 5801" d="M1189.307,1919.275l1.915-1.663,1.915,1.611v-10.734h-3.83Z" fill-rule="evenodd" fill="url(#linear-gradient-2)"/>
                  </g>
                </g>
              </g>
            </g>
          </g>
        </g>
        <path id="Path_5802" data-name="Path 5802" d="M1163.3,1909.986l2.778,2.133,2.778-2.133-2.778-2.134Z" fill="#bfe1ea"/>
      </g>
      <g id="Group_4424" data-name="Group 4424">
        <g id="Group_4408" data-name="Group 4408">
          <g id="Group_4407" data-name="Group 4407">
            <g id="Group_4406" data-name="Group 4406">
              <g id="Group_4405" data-name="Group 4405">
                <g id="Group_4404" data-name="Group 4404">
                  <path id="Path_5803" data-name="Path 5803" d="M1104.368,1897.956a6.713,6.713,0,0,0,1.71,4.547,5.47,5.47,0,0,0,3.888,1.848c.058.005.12.005.181.005h.673l10.156-.005,22.651-.008,19.914-.009,3.465,0v-2.425L1167,1894l0-1.219v-1.249l-6.02,0-4.224,0-8.346.005h-3.982l-5.6,0-25.484.011-3.461,0A6.161,6.161,0,0,0,1104.368,1897.956Z" fill="#015578"/>
                </g>
              </g>
            </g>
          </g>
        </g>
        <g id="Group_4412" data-name="Group 4412">
          <g id="Group_4411" data-name="Group 4411">
            <g id="Group_4410" data-name="Group 4410">
              <g id="Group_4409" data-name="Group 4409">
                <path id="Path_5804" data-name="Path 5804" d="M1205.185,1903.056a4.96,4.96,0,0,1-4.713-5.177,5.057,5.057,0,0,1,3.988-5.122l-40.71.024a5.217,5.217,0,0,0,.27,10.351l41.3-.02v-.056Z" fill="#f3f0fc" fill-rule="evenodd"/>
              </g>
            </g>
          </g>
        </g>
        <g id="Group_4417" data-name="Group 4417">
          <g id="Group_4416" data-name="Group 4416">
            <g id="Group_4415" data-name="Group 4415">
              <g id="Group_4414" data-name="Group 4414">
                <g id="Group_4413" data-name="Group 4413">
                  <path id="Path_5805" data-name="Path 5805" d="M1164.019,1901.909a3.491,3.491,0,0,1-2.6-1.175,4.119,4.119,0,0,1-1.052-2.779,3.834,3.834,0,0,1,3.438-3.955l43.4-.024,0-2.446-43.454.024a6.16,6.16,0,0,0-5.507,6.4,6.714,6.714,0,0,0,1.71,4.546,5.46,5.46,0,0,0,4.069,1.853l43.193-.025,0-2.447Z" fill="#01648d"/>
                </g>
              </g>
            </g>
          </g>
        </g>
        <g id="Group_4423" data-name="Group 4423">
          <g id="Group_4422" data-name="Group 4422">
            <g id="Group_4421" data-name="Group 4421">
              <g id="Group_4420" data-name="Group 4420">
                <g id="Group_4419" data-name="Group 4419">
                  <g id="Group_4418" data-name="Group 4418">
                    <path id="Path_5806" data-name="Path 5806" d="M1174.736,1908.234l1.843-1.843,1.846,1.784v-11.892h-3.69Z" fill="#ffcb00" fill-rule="evenodd"/>
                  </g>
                </g>
              </g>
            </g>
          </g>
        </g>
      </g>
      <g id="Group_4445" data-name="Group 4445">
        <g id="Group_4429" data-name="Group 4429">
          <g id="Group_4428" data-name="Group 4428">
            <g id="Group_4427" data-name="Group 4427">
              <g id="Group_4426" data-name="Group 4426">
                <g id="Group_4425" data-name="Group 4425">
                  <path id="Path_5807" data-name="Path 5807" d="M1218.44,1879.591a6.123,6.123,0,0,1,5.946,6.01,5.857,5.857,0,0,1-1.848,4.268,6.311,6.311,0,0,1-4.392,1.739l-61.4-.022.01-12.019Z" fill="#bfe1ea"/>
                </g>
              </g>
            </g>
          </g>
        </g>
        <g id="Group_4433" data-name="Group 4433">
          <g id="Group_4432" data-name="Group 4432">
            <g id="Group_4431" data-name="Group 4431">
              <g id="Group_4430" data-name="Group 4430">
                <path id="Path_5808" data-name="Path 5808" d="M1115.382,1890.388v.051l27.02.012,2.021,0,3.982,0,8.346,0h3.223a4.861,4.861,0,1,0,.294-9.717l-3.506,0-14.5-.007-25.95-.013a5.162,5.162,0,0,1,2.566,1.147,4.721,4.721,0,0,1-.127,7.423,5.191,5.191,0,0,1-3.224,1.1Z" fill="#e9e9e9" fill-rule="evenodd"/>
              </g>
            </g>
          </g>
        </g>
        <g id="Group_4438" data-name="Group 4438">
          <g id="Group_4437" data-name="Group 4437">
            <g id="Group_4436" data-name="Group 4436">
              <g id="Group_4435" data-name="Group 4435">
                <g id="Group_4434" data-name="Group 4434">
                  <path id="Path_5809" data-name="Path 5809" d="M1113.336,1891.551v.034l25.456.013,5.631,0,3.982,0,11.569.007c.181,0,.36-.007.534-.023.157-.01.312-.031.467-.055a6.275,6.275,0,0,0,3.392-1.662,5.862,5.862,0,0,0,1.847-4.268,6.127,6.127,0,0,0-5.946-6.011l-3.506,0-43.415-.02v.005l0,2.292,5.533,0,23.384.012,14.5.006,3.447,0a3.818,3.818,0,0,1,3.712,3.712,3.6,3.6,0,0,1-1.137,2.609,4.028,4.028,0,0,1-2.805,1.1l-3.223,0-8.348,0h-3.982l-3.453,0-22.22-.011-5.411,0Z" fill="#6eacbb"/>
                </g>
              </g>
            </g>
          </g>
        </g>
        <g id="Group_4444" data-name="Group 4444">
          <g id="Group_4443" data-name="Group 4443">
            <g id="Group_4442" data-name="Group 4442">
              <g id="Group_4441" data-name="Group 4441">
                <g id="Group_4440" data-name="Group 4440">
                  <g id="Group_4439" data-name="Group 4439">
                    <path id="Path_5810" data-name="Path 5810" d="M1148.405,1895.248l-1.99-1.729-1.992,1.674v-11.162h3.982Z" fill="#ffcb00" fill-rule="evenodd"/>
                  </g>
                </g>
              </g>
            </g>
          </g>
        </g>
        <path id="Path_5811" data-name="Path 5811" d="M1175.449,1885.588l-2.89,2.219-2.89-2.219,2.89-2.22Z" fill="#6eacbb"/>
      </g>
      <g id="Group_4451" data-name="Group 4451">
        <g id="Group_4450" data-name="Group 4450">
          <g id="Group_4449" data-name="Group 4449">
            <g id="Group_4448" data-name="Group 4448">
              <g id="Group_4447" data-name="Group 4447">
                <g id="Group_4446" data-name="Group 4446">
                  <path id="Path_5812" data-name="Path 5812" d="M1193.285,1883.147l1.674-1.726,1.675,1.671v-11.14h-3.349Z" fill-rule="evenodd" fill="url(#linear-gradient-3)"/>
                </g>
              </g>
            </g>
          </g>
        </g>
      </g>
    </g>
  </g>
</svg>
