<svg xmlns="http://www.w3.org/2000/svg" xmlns:xlink="http://www.w3.org/1999/xlink" width="319.443" height="237.884" viewBox="0 0 319.443 237.884"><defs><linearGradient id="a" y1="0.5" x2="1" y2="0.5" gradientUnits="objectBoundingBox"><stop offset="0" stop-color="#0085f2"/><stop offset="1" stop-color="#003286"/></linearGradient><linearGradient id="b" x1="0.003" y1="0.486" x2="1.003" y2="0.486" xlink:href="#a"/><linearGradient id="d" y1="0.5" x2="1" y2="0.5" gradientUnits="objectBoundingBox"><stop offset="0" stop-color="#4affc7"/><stop offset="1" stop-color="#3badea"/></linearGradient><linearGradient id="e" x1="0" y1="0.5" x2="1" y2="0.5" xlink:href="#a"/><linearGradient id="g" x1="-0.001" y1="0.501" x2="1.001" y2="0.501" xlink:href="#a"/><linearGradient id="m" y1="0.5" x2="1" y2="0.5" gradientUnits="objectBoundingBox"><stop offset="0" stop-color="#cacced"/><stop offset="1" stop-color="#fff"/></linearGradient><linearGradient id="p" x1="0.5" y1="1" x2="0.5" gradientUnits="objectBoundingBox"><stop offset="0" stop-color="#ffdfb9"/><stop offset="1" stop-color="#e83155"/></linearGradient><linearGradient id="q" y1="0.5" x2="1" y2="0.5" gradientUnits="objectBoundingBox"><stop offset="0" stop-color="#e83155"/><stop offset="1" stop-color="#ffdfb9"/></linearGradient><linearGradient id="r" y1="0.5" x2="1" y2="0.5" gradientUnits="objectBoundingBox"><stop offset="0" stop-color="#00d0ff"/><stop offset="1" stop-color="#007fd9"/></linearGradient><linearGradient id="s" x1="0" y1="0.5" x2="1" y2="0.5" xlink:href="#q"/><linearGradient id="t" x1="0" y1="0.5" x2="1" y2="0.5" xlink:href="#m"/><linearGradient id="u" x1="0" y1="0.5" x2="1" y2="0.5" xlink:href="#m"/><linearGradient id="aa" x1="0" y1="0.5" x2="1" y2="0.5" xlink:href="#r"/><linearGradient id="ac" x1="0" y1="0.5" x2="1" y2="0.5" xlink:href="#m"/><linearGradient id="af" x1="0" y1="0.5" x2="1.015" y2="0.5" xlink:href="#a"/><linearGradient id="ak" x1="0" y1="0.5" x2="1" y2="0.5" xlink:href="#q"/><linearGradient id="al" x1="0" y1="0.5" x2="1" y2="0.5" xlink:href="#m"/><linearGradient id="am" x1="0" y1="0.5" x2="1" y2="0.5" xlink:href="#m"/><linearGradient id="ao" x1="0" y1="0.5" x2="1.011" y2="0.5" xlink:href="#a"/><linearGradient id="aw" x1="0" y1="0.5" x2="1" y2="0.5" xlink:href="#a"/><linearGradient id="ax" x1="0.002" y1="0.459" x2="0.995" y2="0.459" xlink:href="#a"/><linearGradient id="ba" x1="0" y1="0.5" x2="1" y2="0.5" xlink:href="#a"/><linearGradient id="bc" x1="0.002" y1="0.499" x2="1.003" y2="0.499" xlink:href="#a"/><linearGradient id="bk" x1="0" y1="0.5" x2="1" y2="0.5" xlink:href="#d"/><linearGradient id="bn" x1="0" y1="0.5" x2="1" y2="0.5" xlink:href="#r"/><linearGradient id="bo" x1="0" y1="0.5" x2="1" y2="0.5" xlink:href="#q"/><linearGradient id="bp" x1="0" y1="0.5" x2="1" y2="0.5" xlink:href="#m"/><linearGradient id="bq" x1="0" y1="0.5" x2="1" y2="0.5" xlink:href="#m"/><linearGradient id="bs" x1="0" y1="0.5" x2="1" y2="0.5" xlink:href="#a"/><linearGradient id="bt" x1="0" y1="0.5" x2="1" y2="0.5" xlink:href="#d"/><linearGradient id="bw" x1="0" y1="0.5" x2="1" y2="0.5" xlink:href="#r"/><linearGradient id="cb" x1="0" y1="0.5" x2="1.015" y2="0.5" xlink:href="#a"/><linearGradient id="cf" x1="0" y1="0.5" x2="1" y2="0.5" xlink:href="#r"/><linearGradient id="cg" x1="0" y1="0.5" x2="1" y2="0.5" xlink:href="#q"/><linearGradient id="ci" x1="0" y1="0.5" x2="1" y2="0.5" xlink:href="#m"/><linearGradient id="ck" x1="0" y1="0.5" x2="1.011" y2="0.5" xlink:href="#a"/><linearGradient id="cl" x1="0" y1="0.5" x2="1" y2="0.5" xlink:href="#d"/><linearGradient id="cq" x1="0" y1="0.5" x2="1" y2="0.5" xlink:href="#m"/><linearGradient id="cr" x1="0" y1="0.5" x2="1" y2="0.5" xlink:href="#m"/></defs><g transform="translate(-128.128 -1550.936)"><g transform="translate(0.768)"><path d="M355.04,1751.855s-.109-.8-.11-1.151l-.023-8.208,1.1-.636-3.28-1.905-1.1.635.024,8.208c.005,1.927.688,3.282,1.788,3.921l3.28,1.906A3.772,3.772,0,0,1,355.04,1751.855Z" fill="url(#a)"/><path d="M355.794,1751.693c.023,0,.046.006.071.005s.045-.013.066-.015h-.161C355.778,1751.683,355.785,1751.694,355.794,1751.693Z" fill="url(#b)"/><path d="M373.778,1727.8l-1.1.636.023,8.207a7.836,7.836,0,0,1-.093,1.148c-.009.06-.022.122-.031.182a9.958,9.958,0,0,1-.254,1.093c-.01.034-.02.068-.031.1a11.528,11.528,0,0,1-.437,1.185c0,.007-.007.015-.011.022a12.252,12.252,0,0,1-.591,1.172l-.02.035a12.7,12.7,0,0,1-.7,1.074l-.07.093a11.132,11.132,0,0,1-.735.886c-.052.059-.109.119-.165.177-.2.213-.419.4-.635.594-.1.084-.19.175-.29.255a7.626,7.626,0,0,1-.944.655l-9.906,5.72a5.777,5.777,0,0,1-.923.425l-.176.059a4.059,4.059,0,0,1-.758.164h.147v.584l1.586,1.017c.009.006-.146.011-.138.016a2.311,2.311,0,0,0,.521.218c.058.017.117.029.177.042l.041.009c.022,0,.044.011.065.015a2.548,2.548,0,0,0,.305.035c.108.007.22.007.333,0,.034,0,.071-.008.106-.011l.072-.007c.066-.005.129-.01.2-.02a3.7,3.7,0,0,0,.441-.094c.062-.017.125-.044.187-.065s.117-.038.175-.06c.076-.026.15-.046.228-.079a5.611,5.611,0,0,0,.7-.346l9.908-5.72a7.38,7.38,0,0,0,.944-.655c.1-.078.19-.168.286-.252.149-.128.3-.249.442-.389.067-.066.13-.138.2-.206s.111-.117.165-.176.127-.132.188-.2c.142-.162.276-.327.408-.5.049-.062.093-.128.139-.189.025-.032.047-.062.069-.094.043-.057.087-.114.128-.172.1-.144.2-.289.292-.436s.176-.282.259-.426l.022-.041c.008-.011.013-.022.021-.035.066-.115.131-.23.194-.349.075-.141.149-.284.217-.428s.123-.262.181-.394l.008-.023a.078.078,0,0,0,.011-.019c.066-.152.128-.3.185-.453s.118-.317.17-.476c.026-.078.049-.157.073-.236.011-.035.021-.068.032-.1.016-.059.036-.116.052-.174.053-.192.1-.383.141-.576.024-.116.039-.23.06-.346.011-.06.021-.12.031-.18s.022-.113.028-.169a7.43,7.43,0,0,0,.064-.978l-.023-8.208,1.1-.634Z" fill="url(#a)"/><path d="M375.959,1730.341l.023,8.208a11.048,11.048,0,0,1-5.005,8.672l-9.908,5.72c-2.765,1.6-5.03.3-5.04-2.872l-.023-8.207-1.1.634.023,8.207c.012,3.882,2.774,5.447,6.143,3.5l9.906-5.719a13.464,13.464,0,0,0,6.1-10.571l-.024-8.207Z" fill="url(#d)"/><path d="M324.66,1740.142s-.109-.8-.109-1.152l-.023-8.207,1.1-.635-3.281-1.907h0l-1.1.636.023,8.207c.006,1.928.69,3.283,1.787,3.921l3.282,1.907A3.777,3.777,0,0,1,324.66,1740.142Z" fill="url(#e)"/><path d="M343.4,1716.085l-1.1.637.023,8.207a7.428,7.428,0,0,1-.093,1.147c-.009.06-.019.121-.03.182a10.268,10.268,0,0,1-.253,1.094c-.012.034-.021.068-.032.1a11.075,11.075,0,0,1-.437,1.185l-.011.022a12.133,12.133,0,0,1-.591,1.172l-.02.034a11.863,11.863,0,0,1-.7,1.075c-.023.031-.045.061-.07.093a10.954,10.954,0,0,1-.734.885c-.055.061-.11.119-.166.178-.2.212-.418.405-.635.594-.1.083-.19.175-.29.253a7.726,7.726,0,0,1-.943.657l-9.907,5.718a5.494,5.494,0,0,1-.924.425c-.058.021-.117.042-.175.061a4.045,4.045,0,0,1-.684.148v.6l1.623,1.017c.008.005-.047.011-.038.016a1.878,1.878,0,0,0,.223.126,2.4,2.4,0,0,0,.25.093c.057.017.109.028.17.04a.206.206,0,0,0,.036.01c.022,0,.042.012.063.016a2.984,2.984,0,0,0,.3.034,2.868,2.868,0,0,0,.334,0c.034,0,.07-.007.105-.009l.073-.009c.064-.005.129-.009.2-.019a3.989,3.989,0,0,0,.441-.093c.061-.017.124-.046.185-.065s.119-.04.177-.061c.075-.028.149-.046.226-.078a6.264,6.264,0,0,0,.7-.347l9.907-5.72a7.5,7.5,0,0,0,.945-.655c.1-.078.19-.17.288-.252.147-.13.3-.249.441-.389.067-.066.129-.138.193-.207s.111-.118.166-.177.127-.13.188-.2c.141-.16.277-.327.409-.5l.138-.188.069-.095c.043-.057.087-.113.129-.173.1-.142.2-.286.29-.434s.177-.283.261-.427c.007-.012.015-.027.022-.041a.375.375,0,0,0,.019-.035c.066-.114.132-.23.2-.348.076-.142.149-.285.217-.428s.124-.263.181-.394l.01-.022.01-.022c.065-.149.126-.3.184-.451s.119-.317.171-.476c.026-.078.048-.159.071-.237.011-.035.023-.067.033-.1.016-.058.036-.115.052-.173.053-.193.1-.384.141-.576.025-.116.039-.231.06-.346.011-.06.022-.121.032-.181s.022-.113.028-.169a7.6,7.6,0,0,0,.063-.977l-.023-8.208,1.1-.635Z" fill="url(#a)"/><path d="M325.415,1739.855c.024,0,.046.132.07.128.045,0,.1-.023.141-.029v-.235h-.239C325.4,1739.719,325.406,1739.856,325.415,1739.855Z" fill="url(#g)"/><path d="M345.58,1718.628l.024,8.208a11.055,11.055,0,0,1-5.007,8.671l-9.907,5.72c-2.765,1.6-5.03.3-5.039-2.872l-.024-8.207-1.1.635.023,8.207c.011,3.881,2.775,5.446,6.143,3.5l9.908-5.72a13.461,13.461,0,0,0,6.1-10.57l-.023-8.208Z" fill="url(#d)"/><path d="M325.673,1749.71l8.767,5.061.024-8.255-8.767-5.061Z" fill="url(#d)"/><path d="M325.7,1741.471l8.767,5.062,3.483-2.025-8.768-5.062Z" fill="#002e8a"/><path d="M334.44,1754.772l3.484-2.026.024-8.255-3.484,2.024Z" fill="url(#a)"/><path d="M377.436,1726.7a8.7,8.7,0,0,1-.886.955,10.379,10.379,0,0,1-.93.782c-.036.027-.081.052-.119.08a12.842,12.842,0,0,1-1.093.716l-17.748,10.314a15.751,15.751,0,0,1-1.5.756c-.171.075-.349.139-.523.21-.361.146-.727.288-1.105.414-.3.1-.6.191-.9.278-.152.043-.3.09-.455.13-.485.127-.978.242-1.479.338l-.018,6.1c.5-.1.995-.213,1.48-.339.153-.04.3-.086.455-.13.224-.065.452-.122.671-.192.08-.025.152-.059.231-.086.378-.126.741-.269,1.1-.415.174-.07.352-.134.522-.209a15.2,15.2,0,0,0,1.5-.756l17.749-10.313.215-.129c.315-.189.6-.389.881-.591.036-.026.08-.051.115-.076a10.367,10.367,0,0,0,.881-.729c.018-.017.031-.036.051-.054a8.68,8.68,0,0,0,.884-.955l0,0a7.135,7.135,0,0,0,.614-.911l.006-.013,36.19,0c4.475,0,8.1-2.731,8.118-6.1l-44.29,0A7.28,7.28,0,0,1,377.436,1726.7Z" fill="#002e8a"/><path d="M341.7,1741.788c-.653-.108-1.3-.244-1.924-.4-.141-.034-.286-.065-.426-.1a19.931,19.931,0,0,1-2.132-.7c-.044-.017-.084-.037-.128-.055a16.489,16.489,0,0,1-2-.968l-9.355-5.472c-2.623-1.514-4.2-3.434-4.525-5.565l-43.548.005-.051,2.64c.016,2,2.171,3.615,4.824,3.615l38.758,0c.328,1.978,1.8,3.91,4.422,5.424l9.458,5.46a16.405,16.405,0,0,0,2,.969c.045.017.085.038.129.055.024.009.048.022.073.032q.887.349,1.833.618c.074.022.152.035.226.055.14.039.285.069.427.1.315.08.623.166.945.232s.65.116.977.17c.114.019.225.042.339.06.066.009.13.023.2.033.492.069.989.125,1.488.166.247.02.493.036.74.051h0l.016-6.105c-.816-.042-1.626-.13-2.424-.249C341.928,1741.828,341.816,1741.806,341.7,1741.788Z" fill="#002e8a"/><path d="M378.768,1722.163c-.328-1.978-1.809-3.906-4.43-5.419l-9.459-5.46a21.32,21.32,0,0,0-9.369-2.55l-.084-28.773-6.181-.059h-.054l.078,29.2a18.981,18.981,0,0,0-5.952,2.157l-17.749,10.046a10.793,10.793,0,0,0-3.658,3.186H277.634l.027,3.9,43.548.136c.329,1.977,1.8,3.981,4.422,5.494l9.458,5.5a21.378,21.378,0,0,0,9.377,2.562l.085,26.308,6.235,0-.086-26.709a19.108,19.108,0,0,0,5.96-2.125l17.749-10.313a9.59,9.59,0,0,0,3.649-3.459l44.29-.005-.026-3.607Z" fill="url(#a)"/><path d="M364,1719.554l-2.919-1.686a13.989,13.989,0,0,0-5.979-1.541l-2.208-.118-2.2.419a11.441,11.441,0,0,0-3.553,1.234l-11.17,6.491a4.006,4.006,0,0,0,.011,6.933l2.913,1.683a14,14,0,0,0,5.984,1.535l2.234.12,2.155-.413a11.654,11.654,0,0,0,3.575-1.232l11.168-6.491A4.007,4.007,0,0,0,364,1719.554Z" fill="url(#d)"/><path d="M350.262,1753.234c-25.694,0-29.526,16.4-29.526,16.4l0,1.984c-.542,9.392,10.446,17.2,25.734,17.2,16.222,0,29.444-8.778,29.529-18.916a20.854,20.854,0,0,0-.013-3.492C374.386,1759.366,369.751,1753.234,350.262,1753.234Zm-3.794,32.207c-8.694,0-16.414-2.839-20.14-7.41a8.659,8.659,0,0,1-2.045-7.451c1.58-7.7,13.23-13.966,25.979-13.966,8.018,0,15.242,2.45,19.314,6.548a9.365,9.365,0,0,1,3.041,6.708C372.549,1778.166,360.333,1785.441,346.468,1785.441Z" fill="url(#m)"/><path d="M348.028,1773.215c-3.051,0-5.413-1.514-5.467-3.43l-.029,5.277c-.005,1.95,2.365,3.5,5.458,3.5,3.253,0,6.078-1.722,6.258-3.816.01-.115.1-5.337.1-5.349C354.351,1771.495,351.282,1773.215,348.028,1773.215Z" fill="url(#a)"/><path d="M354.467,1769.8h0Z" fill="#fff"/><path d="M348.845,1766.091c-3.166,0-5.945,1.651-6.209,3.713-.267,2.1,2.149,3.814,5.4,3.814s6.041-1.719,6.22-3.814C354.436,1767.742,352.012,1766.091,348.845,1766.091Z" fill="url(#d)"/><path d="M350.673,1766.014a4.261,4.261,0,0,0-4.191,0,1.8,1.8,0,0,0-1.023,1.477v1.778a1.5,1.5,0,0,0,.733,1.194,4.247,4.247,0,0,0,4.231,0,1.779,1.779,0,0,0,1-1.483v-1.759A1.515,1.515,0,0,0,350.673,1766.014Z" fill="#002e8a"/><path d="M364.146,1758.536l-.006,0a1.351,1.351,0,0,0-1.291.007l-15.639,9.368L345,1769.233a1.423,1.423,0,0,1-1.156.1l-1.842-.7a1.422,1.422,0,0,0-1.155.1l-12.8,7.1a1.121,1.121,0,0,0,.123,1.086,15.353,15.353,0,0,0,2.163,1.922l0,0a1.361,1.361,0,0,0,1.388-.006l16.738-10.085,2.19-1.319a1.4,1.4,0,0,1,1.147-.1l1.858.69a1.4,1.4,0,0,0,1.147-.1l11.451-6.972c.494-.337.29-1.166.29-1.166S364.981,1759.067,364.146,1758.536Z" fill="url(#p)"/><path d="M364.146,1757.745l-.006,0a1.2,1.2,0,0,0-.629-.162,1.32,1.32,0,0,0-.663.168l-15.637,9.368L345,1768.44a1.414,1.414,0,0,1-1.156.1l-1.842-.694a1.42,1.42,0,0,0-1.154.1l-12.426,7.367c-.372.22-.484.569-.249.823a15.412,15.412,0,0,0,2.162,1.923l.007,0a1.361,1.361,0,0,0,1.387-.007l16.737-10.085,2.191-1.319a1.414,1.414,0,0,1,1.146-.1l1.858.689a1.4,1.4,0,0,0,1.147-.1l11.452-6.972c.325-.2.388-.51.135-.737A17.049,17.049,0,0,0,364.146,1757.745Z" fill="url(#q)"/><path d="M350.672,1766.014a3.694,3.694,0,0,0-2.039-.551,4.277,4.277,0,0,0-2.151.551c-1.239.738-1.373,1.943-.289,2.691a4.245,4.245,0,0,0,4.23,0C351.658,1767.957,351.765,1766.752,350.672,1766.014Z" fill="url(#r)"/><path d="M350.262,1750.417c-14.294,0-27.348,7.207-29.283,16.669C318.9,1777.224,330.255,1786,346.468,1786s29.444-8.778,29.529-18.916C376.072,1757.624,364.549,1750.417,350.262,1750.417Zm-3.794,32.207c-8.694,0-16.414-2.84-20.14-7.41a8.659,8.659,0,0,1-2.045-7.451c1.58-7.707,13.23-13.967,25.979-13.967,8.018,0,15.242,2.452,19.314,6.548a9.371,9.371,0,0,1,3.041,6.708C372.549,1775.348,360.333,1782.624,346.468,1782.624Z" fill="#fff"/><path d="M325.452,1759.351l-1.954-.536a16.754,16.754,0,0,0-3.884,7.414,12.9,12.9,0,0,0,.706,7.828l2.3-.595a11.919,11.919,0,0,1-.712-7.233A15.409,15.409,0,0,1,325.452,1759.351Z" fill="#d3d3d3"/><path d="M325.454,1759.351l-1.956-.537a16.773,16.773,0,0,0-3.884,7.415,12.9,12.9,0,0,0,.706,7.828l2.3-.595a11.933,11.933,0,0,1-.71-7.233A15.393,15.393,0,0,1,325.454,1759.351Z" fill="url(#s)"/><path d="M319.312,1768.976l-.007.007v2.652a13.262,13.262,0,0,0,1.015,5.077l1.157-.307v-2.074l1.141-.3v-.573l-2.3.595A12.91,12.91,0,0,1,319.312,1768.976Z" fill="url(#t)"/><path d="M321.65,1769.084a12.3,12.3,0,0,1,.256-2.282,15.4,15.4,0,0,1,3.546-6.878v-.573a15.409,15.409,0,0,0-3.546,6.878A12.266,12.266,0,0,0,321.65,1769.084Z" fill="url(#u)"/><path d="M421.068,1700.13c-25.694,0-29.526,16.4-29.526,16.4v1.985c-.543,9.392,10.444,17.2,25.734,17.2,16.221,0,29.443-8.778,29.528-18.916,0-.212-.013-3.492-.013-3.492S440.557,1700.13,421.068,1700.13Zm-3.793,32.2c-8.694,0-16.416-2.838-20.141-7.409a8.656,8.656,0,0,1-2.044-7.452c1.578-7.7,13.23-13.964,25.978-13.964,8.018,0,15.241,2.449,19.314,6.547a9.362,9.362,0,0,1,3.041,6.708C443.355,1725.062,431.139,1732.335,417.275,1732.335Z" fill="url(#m)"/><path d="M418.948,1720.514c-3.05,0-5.411-1.514-5.466-3.43l-.029,5.276c-.005,1.95,2.364,3.505,5.457,3.505,3.254,0,6.078-1.722,6.259-3.815.009-.116.1-5.351.1-5.351C425.273,1718.794,422.2,1720.514,418.948,1720.514Z" fill="url(#a)"/><path d="M419.651,1712.987c-3.167,0-5.944,1.65-6.208,3.712-.268,2.095,2.148,3.815,5.4,3.815s6.039-1.72,6.22-3.815C425.242,1714.637,422.818,1712.987,419.651,1712.987Z" fill="url(#d)"/><path d="M421.479,1712.91a4.251,4.251,0,0,0-4.191,0,1.809,1.809,0,0,0-1.024,1.476l0,1.778a1.5,1.5,0,0,0,.733,1.2,4.252,4.252,0,0,0,4.231,0,1.782,1.782,0,0,0,1-1.484v-1.759A1.514,1.514,0,0,0,421.479,1712.91Z" fill="#002e8a"/><path d="M434.953,1705.433l-.008-.005a1.346,1.346,0,0,0-1.29.006l-15.638,9.368-2.211,1.326a1.422,1.422,0,0,1-1.157.1l-1.842-.7a1.415,1.415,0,0,0-1.154.1l-12.8,7.1a1.124,1.124,0,0,0,.122,1.087,15.488,15.488,0,0,0,2.164,1.922l.007,0a1.355,1.355,0,0,0,1.385-.007l16.739-10.084,2.19-1.32a1.411,1.411,0,0,1,1.147-.1l1.858.691a1.407,1.407,0,0,0,1.147-.1l11.452-6.972c.493-.337.29-1.166.29-1.166S435.787,1705.962,434.953,1705.433Z" fill="url(#p)"/><path d="M434.952,1704.64l-.007,0a1.18,1.18,0,0,0-.626-.162h0a1.325,1.325,0,0,0-.663.168l-15.638,9.368-2.212,1.325a1.407,1.407,0,0,1-1.156.1l-1.842-.694a1.429,1.429,0,0,0-1.156.1l-12.426,7.369c-.371.219-.482.568-.249.822a15.415,15.415,0,0,0,2.163,1.923l.008,0a1.36,1.36,0,0,0,1.385-.006l16.738-10.085,2.192-1.32a1.409,1.409,0,0,1,1.146-.1l1.857.691a1.4,1.4,0,0,0,1.147-.1l11.453-6.971c.323-.2.387-.51.134-.736A17.207,17.207,0,0,0,434.952,1704.64Z" fill="url(#q)"/><path d="M421.478,1712.91a3.689,3.689,0,0,0-2.039-.552,4.268,4.268,0,0,0-2.151.552c-1.239.737-1.373,1.943-.289,2.691a4.247,4.247,0,0,0,4.231,0C422.464,1714.853,422.571,1713.647,421.478,1712.91Z" fill="url(#aa)"/><path d="M421.068,1697.313c-14.295,0-27.348,7.206-29.283,16.668-2.079,10.138,9.277,18.917,25.49,18.917s29.443-8.779,29.528-18.917C446.878,1704.519,435.355,1697.313,421.068,1697.313Zm-3.793,32.206c-8.694,0-16.416-2.839-20.141-7.41a8.655,8.655,0,0,1-2.044-7.451c1.578-7.706,13.23-13.967,25.978-13.967,8.018,0,15.241,2.451,19.314,6.549a9.361,9.361,0,0,1,3.041,6.708C443.355,1722.243,431.139,1729.519,417.275,1729.519Z" fill="#fff"/><path d="M396.259,1706.246l-1.955-.537a16.761,16.761,0,0,0-3.883,7.415,12.884,12.884,0,0,0,.705,7.828l2.3-.595a11.926,11.926,0,0,1-.712-7.233A15.406,15.406,0,0,1,396.259,1706.246Z" fill="#d3d3d3"/><path d="M396.259,1706.246l-1.955-.537a16.771,16.771,0,0,0-3.883,7.415,12.888,12.888,0,0,0,.705,7.829l2.3-.6a11.94,11.94,0,0,1-.711-7.233A15.406,15.406,0,0,1,396.259,1706.246Z" fill="url(#q)"/><path d="M390.119,1715.871l-.008.008v2.651a13.256,13.256,0,0,0,1.015,5.077l1.157-.306v-2.075l1.141-.295v-.573l-2.3.595A12.914,12.914,0,0,1,390.119,1715.871Z" fill="url(#ac)"/><path d="M392.455,1715.98a12.3,12.3,0,0,1,.258-2.282,15.383,15.383,0,0,1,3.546-6.878v-.574a15.393,15.393,0,0,0-3.546,6.878A12.228,12.228,0,0,0,392.455,1715.98Z" fill="url(#t)"/><path d="M354.476,1656.3c-25.693,0-29.526,16.4-29.526,16.4v1.983c-.543,9.394,10.445,17.2,25.734,17.2,16.222,0,29.443-8.777,29.528-18.916,0-.212-.013-3.492-.013-3.492S373.965,1656.3,354.476,1656.3Zm-3.793,32.206c-8.694,0-16.415-2.839-20.141-7.41a8.658,8.658,0,0,1-2.044-7.451c1.579-7.706,13.23-13.966,25.978-13.966,8.019,0,15.242,2.451,19.315,6.548a9.368,9.368,0,0,1,3.041,6.708C376.763,1681.229,364.548,1688.5,350.683,1688.5Z" fill="url(#m)"/><path d="M358.682,1672.867h0Z" fill="#fff"/><path d="M352.356,1676.681c-3.05,0-5.41-1.514-5.466-3.429l-.029,5.275c-.005,1.95,2.366,3.505,5.458,3.505,3.032,0,5.692-1.5,6.184-3.4v-4.916C357.812,1675.408,355.155,1676.681,352.356,1676.681Z" fill="url(#af)"/><path d="M353.06,1669.155c-3.166,0-5.945,1.649-6.209,3.712-.268,2.093,2.148,3.814,5.4,3.814s6.068-1.164,6.249-3.257C358.68,1671.36,356.226,1669.155,353.06,1669.155Z" fill="url(#d)"/><path d="M354.887,1669.077a4.254,4.254,0,0,0-4.19,0,1.8,1.8,0,0,0-1.024,1.476v1.779a1.5,1.5,0,0,0,.734,1.195,4.245,4.245,0,0,0,4.23,0,1.785,1.785,0,0,0,1-1.485v-1.758A1.517,1.517,0,0,0,354.887,1669.077Z" fill="#002e8a"/><path d="M368.362,1661.6l-.008,0a1.349,1.349,0,0,0-1.29.006l-15.639,9.369-2.211,1.325a1.422,1.422,0,0,1-1.157.1l-1.841-.7a1.422,1.422,0,0,0-1.155.1l-12.8,7.1a1.117,1.117,0,0,0,.122,1.086,15.23,15.23,0,0,0,2.162,1.922l.007.005a1.362,1.362,0,0,0,1.386-.007l16.739-10.084,2.19-1.321a1.419,1.419,0,0,1,1.147-.1l1.857.69a1.405,1.405,0,0,0,1.148-.1l11.451-6.972c.494-.336.29-1.166.29-1.166S369.2,1662.13,368.362,1661.6Z" fill="url(#p)"/><path d="M368.361,1660.807l-.007,0a1.18,1.18,0,0,0-.626-.163h0a1.318,1.318,0,0,0-.662.168l-15.639,9.369-2.211,1.325a1.418,1.418,0,0,1-1.157.1l-1.841-.7a1.42,1.42,0,0,0-1.156.1l-12.427,7.368c-.37.218-.482.568-.248.822a15.362,15.362,0,0,0,2.163,1.922l.007,0a1.361,1.361,0,0,0,1.387-.006l16.736-10.084,2.192-1.321a1.411,1.411,0,0,1,1.145-.1l1.858.69a1.4,1.4,0,0,0,1.147-.1l11.453-6.972c.325-.2.387-.509.135-.735A17.266,17.266,0,0,0,368.361,1660.807Z" fill="url(#q)"/><path d="M354.887,1669.077a3.687,3.687,0,0,0-2.04-.551,4.266,4.266,0,0,0-2.15.551c-1.24.738-1.374,1.943-.289,2.691a4.245,4.245,0,0,0,4.23,0C355.872,1671.02,355.98,1669.815,354.887,1669.077Z" fill="url(#aa)"/><path d="M354.476,1653.481c-14.294,0-27.348,7.205-29.281,16.668-2.08,10.138,9.275,18.916,25.488,18.916s29.443-8.778,29.528-18.916C380.287,1660.686,368.763,1653.481,354.476,1653.481Zm-3.793,32.205c-8.694,0-16.415-2.839-20.141-7.409a8.66,8.66,0,0,1-2.044-7.452c1.579-7.7,13.23-13.966,25.978-13.966,8.019,0,15.242,2.45,19.315,6.548a9.368,9.368,0,0,1,3.041,6.708C376.763,1678.412,364.548,1685.686,350.683,1685.686Z" fill="#fff"/><path d="M323.829,1669.291a12.894,12.894,0,0,0,.7,7.829l2.3-.595a11.921,11.921,0,0,1-.71-7.234,15.394,15.394,0,0,1,3.546-6.878l-1.955-.535A16.756,16.756,0,0,0,323.829,1669.291Z" fill="#d3d3d3"/><path d="M323.829,1669.291a12.9,12.9,0,0,0,.7,7.83l2.3-.6a11.923,11.923,0,0,1-.709-7.233,15.375,15.375,0,0,1,3.546-6.877l-1.955-.537A16.776,16.776,0,0,0,323.829,1669.291Z" fill="url(#ak)"/><path d="M323.527,1672.038l-.006.008v2.651a13.278,13.278,0,0,0,1.013,5.077l1.158-.306v-2.074l1.14-.3v-.572l-2.3.595A12.936,12.936,0,0,1,323.527,1672.038Z" fill="url(#al)"/><path d="M325.865,1672.147a12.135,12.135,0,0,1,.257-2.282,15.368,15.368,0,0,1,3.546-6.878v-.574a15.384,15.384,0,0,0-3.546,6.878A12.125,12.125,0,0,0,325.865,1672.147Z" fill="url(#am)"/><path d="M281.984,1705.188c-25.694,0-29.525,16.4-29.525,16.4l0,1.985c-.541,9.393,10.446,17.2,25.735,17.2,16.222,0,29.444-8.778,29.527-18.916,0-.213-.012-3.493-.012-3.493S301.473,1705.188,281.984,1705.188Zm-3.793,32.2c-8.693,0-16.415-2.838-20.14-7.409a8.663,8.663,0,0,1-2.046-7.452c1.58-7.7,13.23-13.966,25.979-13.966,8.018,0,15.242,2.451,19.314,6.549a9.367,9.367,0,0,1,3.042,6.708C304.272,1730.119,292.056,1737.393,278.191,1737.393Z" fill="url(#m)"/><path d="M279.865,1725.572c-3.051,0-5.412-1.515-5.467-3.431l-.028,5.277c-.006,1.95,2.364,3.505,5.456,3.505,3.183,0,5.947-1.648,6.237-3.679v-4.766C285.46,1724.232,282.736,1725.572,279.865,1725.572Z" fill="url(#ao)"/><path d="M280.568,1718.045c-3.167,0-5.945,1.649-6.209,3.712-.269,2.094,2.149,3.815,5.4,3.815s6.04-1.721,6.221-3.815C286.159,1719.694,283.734,1718.045,280.568,1718.045Z" fill="url(#d)"/><path d="M282.4,1717.966a4.264,4.264,0,0,0-4.192,0,1.807,1.807,0,0,0-1.023,1.478v1.778a1.5,1.5,0,0,0,.733,1.194,4.247,4.247,0,0,0,4.231,0,1.777,1.777,0,0,0,1-1.483v-1.759A1.521,1.521,0,0,0,282.4,1717.966Z" fill="#002e8a"/><path d="M295.869,1710.49l-.007,0a1.343,1.343,0,0,0-1.29.005l-15.639,9.369-2.21,1.325a1.423,1.423,0,0,1-1.157.1l-1.843-.7a1.422,1.422,0,0,0-1.155.1l-12.8,7.105a1.115,1.115,0,0,0,.122,1.085,15.325,15.325,0,0,0,2.164,1.924l.005,0a1.363,1.363,0,0,0,1.387-.007l16.738-10.085,2.191-1.319a1.4,1.4,0,0,1,1.146-.1l1.859.691a1.407,1.407,0,0,0,1.147-.1l11.45-6.972c.494-.337.292-1.166.292-1.166S296.7,1711.019,295.869,1710.49Z" fill="url(#p)"/><path d="M295.869,1709.7l-.007,0a1.176,1.176,0,0,0-.627-.162,1.321,1.321,0,0,0-.664.168l-15.637,9.368-2.212,1.325a1.412,1.412,0,0,1-1.158.1l-1.841-.7a1.425,1.425,0,0,0-1.155.1l-12.426,7.369c-.371.219-.483.567-.249.822a15.473,15.473,0,0,0,2.163,1.923l.007,0a1.36,1.36,0,0,0,1.386-.008l16.738-10.083,2.191-1.32a1.409,1.409,0,0,1,1.146-.1l1.858.69a1.4,1.4,0,0,0,1.147-.1l11.451-6.971c.325-.2.389-.51.135-.737A17.188,17.188,0,0,0,295.869,1709.7Z" fill="url(#q)"/><path d="M282.395,1717.966a3.707,3.707,0,0,0-2.04-.55,4.284,4.284,0,0,0-2.15.55c-1.24.738-1.374,1.945-.289,2.693a4.253,4.253,0,0,0,4.229,0C283.381,1719.911,283.488,1718.7,282.395,1717.966Z" fill="url(#aa)"/><path d="M281.984,1702.37c-14.294,0-27.347,7.207-29.282,16.669-2.079,10.138,9.276,18.917,25.489,18.917s29.444-8.779,29.527-18.917C307.8,1709.577,296.271,1702.37,281.984,1702.37Zm-3.793,32.206c-8.693,0-16.415-2.839-20.14-7.409a8.663,8.663,0,0,1-2.046-7.451c1.58-7.706,13.23-13.967,25.979-13.967,8.018,0,15.242,2.451,19.314,6.549a9.366,9.366,0,0,1,3.042,6.708C304.272,1727.3,292.056,1734.576,278.191,1734.576Z" fill="#fff"/><path d="M257.176,1711.3l-1.956-.537a16.768,16.768,0,0,0-3.884,7.415,12.907,12.907,0,0,0,.706,7.828l2.3-.595a11.934,11.934,0,0,1-.711-7.233A15.386,15.386,0,0,1,257.176,1711.3Z" fill="#d3d3d3"/><path d="M257.176,1711.3l-1.956-.538a16.776,16.776,0,0,0-3.884,7.416,12.91,12.91,0,0,0,.706,7.829l2.3-.6a11.933,11.933,0,0,1-.711-7.233A15.371,15.371,0,0,1,257.176,1711.3Z" fill="url(#q)"/><path d="M251.035,1720.928l-.007.008v2.652a13.267,13.267,0,0,0,1.014,5.077l1.157-.307v-2.074l1.141-.3v-.573l-2.3.6A12.918,12.918,0,0,1,251.035,1720.928Z" fill="url(#t)"/><path d="M253.372,1721.037a12.3,12.3,0,0,1,.257-2.282,15.391,15.391,0,0,1,3.547-6.878v-.573a15.4,15.4,0,0,0-3.547,6.878A12.224,12.224,0,0,0,253.372,1721.037Z" fill="url(#t)"/></g><g transform="translate(0.768)"><path d="M178.658,1599.453s-.054-.4-.054-.567l-.012-4.049.542-.313-1.617-.939-.543.313.012,4.048a2.108,2.108,0,0,0,.882,1.934l1.618.939A1.857,1.857,0,0,1,178.658,1599.453Z" fill="url(#aw)"/><path d="M179.03,1599.374c.011,0,.023,0,.035,0s.022-.006.033-.007h-.08S179.026,1599.374,179.03,1599.374Z" fill="url(#ax)"/><path d="M187.9,1587.589l-.542.314.012,4.048a3.947,3.947,0,0,1-.046.566c-.005.029-.011.06-.015.09a4.864,4.864,0,0,1-.126.538l-.015.051a5.422,5.422,0,0,1-.216.584l-.005.011a6.242,6.242,0,0,1-.291.578l-.01.017c-.107.184-.223.36-.346.53l-.034.046a5.342,5.342,0,0,1-.363.437c-.026.029-.054.059-.082.087-.1.1-.206.2-.312.293-.048.042-.094.087-.143.126a3.818,3.818,0,0,1-.466.323l-4.886,2.821a2.856,2.856,0,0,1-.455.21l-.087.029a2.051,2.051,0,0,1-.373.081h.072v.288l.782.5c.005,0-.072.006-.068.008a1.138,1.138,0,0,0,.125.062c.043.017.087.033.132.046.028.008.058.014.087.02l.021.005.031.007a1.272,1.272,0,0,0,.151.017,1.462,1.462,0,0,0,.164,0l.053-.005.035,0c.032,0,.064-.005.1-.01a1.79,1.79,0,0,0,.217-.046c.031-.008.062-.022.092-.032l.087-.03c.037-.013.074-.023.112-.039a2.957,2.957,0,0,0,.344-.17l4.886-2.822a3.517,3.517,0,0,0,.465-.322c.049-.039.094-.083.142-.125.073-.063.148-.123.217-.192.033-.032.065-.068.1-.1s.055-.058.081-.087.063-.065.093-.1c.07-.08.136-.161.2-.245.024-.03.046-.063.069-.093s.023-.03.034-.046.043-.057.063-.085c.049-.071.1-.143.144-.215s.087-.139.128-.21l.011-.02.01-.018c.032-.057.064-.113.1-.172s.074-.14.108-.211.06-.129.089-.194l0-.011.005-.01c.033-.075.063-.149.091-.223s.058-.157.084-.235c.013-.039.024-.078.036-.116l.016-.051c.008-.029.018-.057.026-.086.026-.094.049-.189.069-.284.012-.057.02-.113.03-.17l.015-.089c0-.028.011-.056.014-.084a3.6,3.6,0,0,0,.031-.482l-.011-4.048.542-.313Z" fill="url(#a)"/><path d="M188.975,1588.843l.011,4.048a5.45,5.45,0,0,1-2.468,4.277l-4.886,2.821c-1.364.787-2.481.151-2.486-1.416l-.012-4.048-.542.313.012,4.048c0,1.914,1.368,2.686,3.029,1.726l4.886-2.821a6.634,6.634,0,0,0,3.01-5.213l-.012-4.048Z" fill="url(#d)"/><path d="M163.675,1593.677s-.054-.4-.054-.568l-.011-4.048.542-.313-1.618-.941h0l-.542.314.011,4.048a2.114,2.114,0,0,0,.881,1.934l1.619.94A1.862,1.862,0,0,1,163.675,1593.677Z" fill="url(#ba)"/><path d="M172.917,1581.812l-.543.314.011,4.048a3.652,3.652,0,0,1-.045.565l-.015.09a5.117,5.117,0,0,1-.125.54c-.006.017-.01.033-.016.05a5.579,5.579,0,0,1-.215.585l0,.01a6.027,6.027,0,0,1-.292.579l-.01.016a5.756,5.756,0,0,1-.346.53l-.034.046a5.521,5.521,0,0,1-.362.437c-.027.03-.054.059-.082.087-.1.1-.206.2-.313.294-.048.04-.094.086-.143.124a3.774,3.774,0,0,1-.465.324l-4.886,2.82a2.691,2.691,0,0,1-.456.21l-.086.03a1.975,1.975,0,0,1-.338.073v.3l.8.5s-.023.005-.019.008a.929.929,0,0,0,.11.062,1.112,1.112,0,0,0,.123.046c.028.008.054.014.084.02l.018.005.031.007a1.564,1.564,0,0,0,.314.019l.052-.005.036,0c.032,0,.063,0,.1-.01a1.846,1.846,0,0,0,.218-.046c.03-.008.061-.022.091-.032s.059-.019.088-.029.073-.023.111-.039a3.048,3.048,0,0,0,.344-.171l4.886-2.821a3.818,3.818,0,0,0,.466-.323c.048-.039.094-.084.142-.125.072-.064.147-.122.218-.191.033-.033.063-.068.1-.1s.055-.058.082-.087.062-.064.092-.1c.07-.08.137-.162.2-.245l.068-.093.034-.046c.021-.029.043-.057.063-.086.049-.07.1-.141.144-.214s.087-.139.128-.211l.011-.02.01-.017c.032-.056.065-.113.1-.172s.073-.14.107-.211.061-.13.089-.194l.005-.011,0-.011c.032-.073.062-.148.09-.222s.059-.156.085-.235c.013-.039.024-.078.035-.117.005-.017.011-.033.016-.05s.018-.057.026-.085c.026-.1.049-.19.07-.285.012-.057.019-.113.029-.17.005-.03.011-.06.016-.089s.011-.056.014-.084a3.964,3.964,0,0,0,.031-.482l-.012-4.048.543-.313Z" fill="url(#a)"/><path d="M164.047,1593.535c.012,0,.023.065.035.064s.047-.012.069-.015v-.116h-.118S164.043,1593.536,164.047,1593.535Z" fill="url(#bc)"/><path d="M173.993,1583.066l.011,4.048a5.452,5.452,0,0,1-2.469,4.277l-4.886,2.821c-1.364.787-2.481.15-2.486-1.417l-.011-4.047-.542.313.011,4.048c.006,1.914,1.369,2.686,3.03,1.726l4.886-2.821a6.64,6.64,0,0,0,3.01-5.213l-.012-4.048Z" fill="url(#d)"/><path d="M164.175,1598.4l4.324,2.5.012-4.071-4.324-2.5Z" fill="url(#d)"/><path d="M164.186,1594.332l4.324,2.5,1.718-1-4.324-2.5Z" fill="#002e8a"/><path d="M168.5,1600.892l1.718-1,.012-4.071-1.718,1Z" fill="url(#a)"/><path d="M189.7,1587.05a4.322,4.322,0,0,1-.437.471,5.107,5.107,0,0,1-.459.385c-.018.014-.04.026-.059.04a6.426,6.426,0,0,1-.539.353l-8.753,5.087a7.735,7.735,0,0,1-.739.372c-.084.038-.172.069-.258.1-.178.072-.359.142-.545.2-.146.049-.293.095-.444.138-.074.021-.148.044-.224.063-.239.063-.483.12-.73.167l-.009,3.011c.248-.048.491-.1.731-.167.075-.02.149-.043.224-.064.111-.032.223-.06.331-.095.039-.012.075-.029.114-.042.186-.063.365-.133.544-.205.085-.035.173-.066.257-.1a7.408,7.408,0,0,0,.739-.373l8.754-5.086.106-.064c.155-.093.3-.192.434-.291.018-.013.039-.025.057-.038a5.115,5.115,0,0,0,.435-.359c.008-.009.015-.018.024-.027a4.234,4.234,0,0,0,.437-.471h0a3.494,3.494,0,0,0,.3-.449l0-.007,17.849,0c2.207,0,4-1.346,4-3.01l-21.844,0A3.572,3.572,0,0,1,189.7,1587.05Z" fill="#002e8a"/><path d="M172.08,1594.489c-.322-.054-.638-.121-.948-.2-.07-.017-.141-.032-.211-.051a9.943,9.943,0,0,1-1.051-.348l-.063-.027a8.009,8.009,0,0,1-.989-.478l-4.613-2.7a4.06,4.06,0,0,1-2.232-2.744l-21.478,0-.025,1.3a2.154,2.154,0,0,0,2.379,1.783l19.115,0a4.032,4.032,0,0,0,2.181,2.675l4.665,2.693a7.906,7.906,0,0,0,.988.478c.022.008.042.019.063.027l.036.016q.438.172.9.305c.037.01.075.017.112.027.069.019.141.034.211.051.155.04.307.082.465.115s.321.057.482.084l.167.029.1.017q.363.051.734.081c.121.01.243.018.365.025h0l.008-3.011c-.4-.021-.8-.064-1.2-.123C172.191,1594.508,172.136,1594.5,172.08,1594.489Z" fill="#002e8a"/><path d="M190.36,1584.81a4.035,4.035,0,0,0-2.184-2.673l-4.666-2.693a10.511,10.511,0,0,0-4.62-1.257L178.848,1564l-3.048-.029h-.027l.039,14.4a9.364,9.364,0,0,0-2.936,1.064l-8.753,4.954a5.315,5.315,0,0,0-1.8,1.572H140.482l.013,1.922,21.478.067a4.084,4.084,0,0,0,2.181,2.71l4.664,2.711a10.553,10.553,0,0,0,4.625,1.263l.042,12.975h3.075l-.043-13.173a9.394,9.394,0,0,0,2.94-1.048l8.754-5.086a4.725,4.725,0,0,0,1.8-1.706l21.844,0-.013-1.778Z" fill="url(#a)"/><path d="M183.076,1583.523l-1.44-.831a6.868,6.868,0,0,0-2.948-.76l-1.089-.059-1.086.207a5.621,5.621,0,0,0-1.752.609l-5.509,3.2a1.975,1.975,0,0,0,.005,3.419l1.437.83a6.9,6.9,0,0,0,2.951.757l1.1.059,1.063-.2a5.758,5.758,0,0,0,1.763-.608l5.508-3.2A1.976,1.976,0,0,0,183.076,1583.523Z" fill="url(#d)"/><path d="M176.3,1600.134c-12.673,0-14.563,8.09-14.563,8.09v.979c-.268,4.631,5.151,8.481,12.691,8.481,8,0,14.522-4.329,14.564-9.329a10.347,10.347,0,0,0-.006-1.722C188.2,1603.158,185.913,1600.134,176.3,1600.134Zm-1.872,15.884c-4.288,0-8.095-1.4-9.933-3.655a4.271,4.271,0,0,1-1.008-3.675c.779-3.8,6.525-6.887,12.813-6.887,3.954,0,7.517,1.208,9.525,3.229a4.619,4.619,0,0,1,1.5,3.308C187.293,1612.43,181.268,1616.018,174.43,1616.018Z" fill="url(#m)"/><path d="M175.2,1609.988c-1.5,0-2.67-.747-2.7-1.692l-.015,2.6c0,.962,1.166,1.728,2.692,1.728,1.6,0,3-.849,3.087-1.882,0-.057.05-2.632.051-2.638C178.318,1609.14,176.8,1609.988,175.2,1609.988Z" fill="url(#a)"/><path d="M178.375,1608.306h0Z" fill="#fff"/><path d="M175.6,1606.475c-1.562,0-2.932.814-3.062,1.831-.132,1.033,1.059,1.881,2.664,1.881s2.979-.848,3.068-1.881C178.36,1607.289,177.164,1606.475,175.6,1606.475Z" fill="url(#bk)"/><path d="M176.5,1606.436a2.106,2.106,0,0,0-2.067,0,.892.892,0,0,0-.5.729v.877a.744.744,0,0,0,.361.589,2.1,2.1,0,0,0,2.087,0,.879.879,0,0,0,.5-.732v-.867A.749.749,0,0,0,176.5,1606.436Z" fill="#002e8a"/><path d="M183.149,1602.749l0,0a.664.664,0,0,0-.637,0l-7.713,4.62-1.09.654a.7.7,0,0,1-.571.049l-.908-.342a.7.7,0,0,0-.57.049l-6.311,3.5a.55.55,0,0,0,.06.535,7.521,7.521,0,0,0,1.067.948l0,0a.668.668,0,0,0,.684,0l8.255-4.973,1.08-.651a.694.694,0,0,1,.566-.049l.916.34a.694.694,0,0,0,.566-.049l5.647-3.438c.244-.167.144-.576.144-.576S183.561,1603.01,183.149,1602.749Z" fill="url(#p)"/><path d="M183.149,1602.358l0,0a.591.591,0,0,0-.31-.079.648.648,0,0,0-.327.082l-7.712,4.621-1.092.653a.7.7,0,0,1-.57.049l-.908-.342a.705.705,0,0,0-.57.049l-6.128,3.634c-.183.108-.238.28-.123.406a7.582,7.582,0,0,0,1.067.948l0,0a.668.668,0,0,0,.684,0l8.255-4.973,1.08-.651a.7.7,0,0,1,.566-.049l.916.34a.689.689,0,0,0,.566-.049l5.648-3.438c.16-.1.191-.252.066-.364A8.452,8.452,0,0,0,183.149,1602.358Z" fill="url(#q)"/><path d="M176.5,1606.436a1.834,1.834,0,0,0-1.006-.271,2.12,2.12,0,0,0-1.061.271c-.611.364-.677.959-.142,1.328a2.093,2.093,0,0,0,2.086,0C176.99,1607.4,177.043,1606.8,176.5,1606.436Z" fill="url(#bn)"/><path d="M176.3,1598.744c-7.05,0-13.488,3.555-14.443,8.221-1.025,5,4.575,9.33,12.571,9.33s14.522-4.33,14.564-9.33C189.031,1602.3,183.348,1598.744,176.3,1598.744Zm-1.872,15.884c-4.288,0-8.095-1.4-9.933-3.654a4.271,4.271,0,0,1-1.008-3.675c.779-3.8,6.525-6.888,12.813-6.888,3.954,0,7.517,1.209,9.525,3.229a4.623,4.623,0,0,1,1.5,3.309C187.293,1611.04,181.268,1614.628,174.43,1614.628Z" fill="#fff"/><path d="M164.066,1603.151l-.964-.265a8.255,8.255,0,0,0-1.916,3.657,6.359,6.359,0,0,0,.348,3.86l1.134-.293a5.876,5.876,0,0,1-.351-3.567A7.589,7.589,0,0,1,164.066,1603.151Z" fill="#d3d3d3"/><path d="M164.066,1603.151l-.964-.266a8.274,8.274,0,0,0-1.916,3.658,6.359,6.359,0,0,0,.348,3.86l1.133-.293a5.883,5.883,0,0,1-.35-3.567A7.584,7.584,0,0,1,164.066,1603.151Z" fill="url(#bo)"/><path d="M161.037,1607.9l0,0v1.308a6.55,6.55,0,0,0,.5,2.5l.571-.152v-1.023l.563-.146v-.282l-1.134.293A6.388,6.388,0,0,1,161.037,1607.9Z" fill="url(#bp)"/><path d="M162.19,1607.951a6.035,6.035,0,0,1,.127-1.126,7.589,7.589,0,0,1,1.749-3.392v-.282a7.584,7.584,0,0,0-1.749,3.392A6.022,6.022,0,0,0,162.19,1607.951Z" fill="url(#bq)"/><path d="M211.222,1573.943c-12.672,0-14.562,8.09-14.562,8.09v.979c-.268,4.632,5.151,8.481,12.691,8.481,8,0,14.522-4.329,14.564-9.329,0-.1-.007-1.722-.007-1.722S220.834,1573.943,211.222,1573.943Zm-1.871,15.884c-4.287,0-8.1-1.4-9.933-3.655a4.27,4.27,0,0,1-1.008-3.675c.779-3.8,6.525-6.887,12.812-6.887,3.955,0,7.517,1.208,9.526,3.229a4.621,4.621,0,0,1,1.5,3.308C222.214,1586.24,216.189,1589.827,209.351,1589.827Z" fill="url(#m)"/><path d="M210.177,1584c-1.505,0-2.669-.748-2.7-1.692l-.014,2.6c0,.962,1.166,1.728,2.691,1.728,1.6,0,3-.849,3.087-1.881.005-.057.051-2.639.051-2.639C213.3,1583.148,211.782,1584,210.177,1584Z" fill="url(#bs)"/><path d="M210.524,1580.284c-1.562,0-2.932.814-3.062,1.831-.132,1.033,1.059,1.882,2.664,1.882s2.979-.849,3.068-1.882C213.281,1581.1,212.085,1580.284,210.524,1580.284Z" fill="url(#bt)"/><path d="M211.425,1580.246a2.1,2.1,0,0,0-2.067,0,.893.893,0,0,0-.505.728v.877a.74.74,0,0,0,.362.589,2.092,2.092,0,0,0,2.086,0,.879.879,0,0,0,.495-.732v-.867A.749.749,0,0,0,211.425,1580.246Z" fill="#002e8a"/><path d="M218.071,1576.558l0,0a.667.667,0,0,0-.637,0l-7.712,4.62-1.091.654a.7.7,0,0,1-.57.049l-.909-.342a.7.7,0,0,0-.569.049l-6.312,3.5a.552.552,0,0,0,.06.536,7.66,7.66,0,0,0,1.067.948l0,0a.67.67,0,0,0,.684,0l8.255-4.973,1.08-.651a.694.694,0,0,1,.566-.049l.916.34a.694.694,0,0,0,.566-.049l5.648-3.438c.243-.166.143-.576.143-.576S218.482,1576.82,218.071,1576.558Z" fill="url(#p)"/><path d="M218.07,1576.168l0,0a.59.59,0,0,0-.309-.079h0a.65.65,0,0,0-.327.083l-7.712,4.62-1.091.653a.693.693,0,0,1-.57.05l-.909-.343a.7.7,0,0,0-.57.049l-6.128,3.635c-.183.107-.238.279-.123.405a7.644,7.644,0,0,0,1.066.948l0,0a.67.67,0,0,0,.684,0l8.255-4.974,1.081-.651a.7.7,0,0,1,.565-.049l.916.341a.691.691,0,0,0,.565-.05l5.649-3.438c.159-.1.191-.252.066-.363A8.432,8.432,0,0,0,218.07,1576.168Z" fill="url(#q)"/><path d="M211.425,1580.246a1.826,1.826,0,0,0-1.006-.272,2.113,2.113,0,0,0-1.061.272c-.611.363-.677.959-.142,1.327a2.093,2.093,0,0,0,2.086,0C211.911,1581.2,211.964,1580.609,211.425,1580.246Z" fill="url(#bw)"/><path d="M211.222,1572.554c-7.05,0-13.487,3.554-14.442,8.221-1.025,5,4.575,9.329,12.571,9.329s14.522-4.33,14.564-9.329C223.952,1576.108,218.268,1572.554,211.222,1572.554Zm-1.871,15.883c-4.287,0-8.1-1.4-9.933-3.654a4.27,4.27,0,0,1-1.008-3.675c.779-3.8,6.525-6.888,12.812-6.888,3.955,0,7.517,1.209,9.526,3.23a4.619,4.619,0,0,1,1.5,3.308C222.214,1584.849,216.189,1588.437,209.351,1588.437Z" fill="#fff"/><path d="M198.987,1576.96l-.964-.265a8.255,8.255,0,0,0-1.916,3.657,6.359,6.359,0,0,0,.348,3.86l1.134-.293a5.875,5.875,0,0,1-.351-3.567A7.588,7.588,0,0,1,198.987,1576.96Z" fill="#d3d3d3"/><path d="M198.987,1576.96l-.964-.265a8.265,8.265,0,0,0-1.916,3.657,6.363,6.363,0,0,0,.348,3.861l1.133-.294a5.882,5.882,0,0,1-.35-3.567A7.588,7.588,0,0,1,198.987,1576.96Z" fill="url(#q)"/><path d="M195.958,1581.706l0,.005v1.307a6.544,6.544,0,0,0,.5,2.5l.571-.151v-1.023l.563-.146v-.283l-1.134.294A6.393,6.393,0,0,1,195.958,1581.706Z" fill="url(#bp)"/><path d="M197.111,1581.76a6.021,6.021,0,0,1,.127-1.125,7.592,7.592,0,0,1,1.749-3.393v-.282a7.588,7.588,0,0,0-1.749,3.392A6.022,6.022,0,0,0,197.111,1581.76Z" fill="url(#bp)"/><path d="M178.38,1552.325c-12.672,0-14.562,8.09-14.562,8.09v.979c-.267,4.632,5.152,8.481,12.692,8.481,8,0,14.521-4.328,14.563-9.329,0-.1-.006-1.722-.006-1.722S187.992,1552.325,178.38,1552.325Zm-1.871,15.884c-4.288,0-8.1-1.4-9.933-3.654a4.267,4.267,0,0,1-1.008-3.675c.778-3.8,6.525-6.888,12.812-6.888,3.954,0,7.517,1.209,9.526,3.229a4.616,4.616,0,0,1,1.5,3.309C189.372,1564.621,183.347,1568.209,176.509,1568.209Z" fill="url(#m)"/><path d="M180.454,1560.5h0Z" fill="#fff"/><path d="M177.334,1562.378c-1.5,0-2.668-.746-2.695-1.691l-.015,2.6c0,.962,1.167,1.728,2.692,1.728,1.5,0,2.807-.737,3.05-1.674v-2.425C180.025,1561.75,178.715,1562.378,177.334,1562.378Z" fill="url(#cb)"/><path d="M177.681,1558.667c-1.561,0-2.931.813-3.062,1.831s1.06,1.88,2.665,1.88,2.993-.574,3.082-1.606S179.243,1558.667,177.681,1558.667Z" fill="url(#d)"/><path d="M178.583,1558.628a2.1,2.1,0,0,0-2.067,0,.889.889,0,0,0-.505.728v.877a.741.741,0,0,0,.361.59,2.1,2.1,0,0,0,2.087,0,.879.879,0,0,0,.494-.733v-.866A.749.749,0,0,0,178.583,1558.628Z" fill="#002e8a"/><path d="M185.228,1554.94l0,0a.667.667,0,0,0-.637,0l-7.713,4.621-1.09.653a.7.7,0,0,1-.571.05l-.908-.343a.7.7,0,0,0-.57.049l-6.311,3.5a.552.552,0,0,0,.06.536,7.582,7.582,0,0,0,1.067.948l0,0a.671.671,0,0,0,.683,0l8.256-4.973,1.08-.652a.7.7,0,0,1,.566-.049l.916.34a.694.694,0,0,0,.566-.049l5.647-3.438c.244-.166.143-.576.143-.576S185.639,1555.2,185.228,1554.94Z" fill="url(#p)"/><path d="M185.228,1554.55l0,0a.587.587,0,0,0-.31-.08h0a.643.643,0,0,0-.327.083l-7.713,4.62-1.09.653a.7.7,0,0,1-.571.05l-.908-.343a.7.7,0,0,0-.57.05l-6.129,3.634c-.182.107-.238.28-.122.405a7.589,7.589,0,0,0,1.067.948l0,0a.67.67,0,0,0,.684,0l8.254-4.973,1.081-.652a.7.7,0,0,1,.565-.048l.916.34a.688.688,0,0,0,.566-.05l5.648-3.438c.161-.1.191-.251.067-.363A8.488,8.488,0,0,0,185.228,1554.55Z" fill="url(#q)"/><path d="M178.582,1558.628a1.82,1.82,0,0,0-1.005-.272,2.11,2.11,0,0,0-1.061.272c-.612.364-.678.959-.143,1.327a2.094,2.094,0,0,0,2.087,0C179.068,1559.587,179.121,1558.992,178.582,1558.628Z" fill="url(#cf)"/><path d="M178.38,1550.936c-7.05,0-13.488,3.554-14.441,8.221-1.026,5,4.574,9.329,12.57,9.329s14.521-4.329,14.563-9.329C191.11,1554.49,185.426,1550.936,178.38,1550.936Zm-1.871,15.883c-4.288,0-8.1-1.4-9.933-3.654a4.268,4.268,0,0,1-1.008-3.675c.778-3.8,6.525-6.888,12.812-6.888,3.954,0,7.517,1.209,9.526,3.23a4.614,4.614,0,0,1,1.5,3.308C189.372,1563.232,183.347,1566.819,176.509,1566.819Z" fill="#fff"/><path d="M163.265,1558.734a6.362,6.362,0,0,0,.348,3.861l1.133-.293a5.886,5.886,0,0,1-.35-3.568,7.593,7.593,0,0,1,1.749-3.393l-.965-.264A8.268,8.268,0,0,0,163.265,1558.734Z" fill="#d3d3d3"/><path d="M163.265,1558.734a6.363,6.363,0,0,0,.348,3.861l1.133-.294a5.882,5.882,0,0,1-.35-3.567,7.574,7.574,0,0,1,1.749-3.392l-.965-.265A8.278,8.278,0,0,0,163.265,1558.734Z" fill="url(#cg)"/><path d="M163.116,1560.088l0,0v1.308a6.544,6.544,0,0,0,.5,2.5l.571-.151v-1.023l.562-.146v-.282l-1.133.293A6.375,6.375,0,0,1,163.116,1560.088Z" fill="url(#al)"/><path d="M164.269,1560.142a6.025,6.025,0,0,1,.127-1.125,7.572,7.572,0,0,1,1.749-3.393v-.283a7.583,7.583,0,0,0-1.749,3.393A5.974,5.974,0,0,0,164.269,1560.142Z" fill="url(#ci)"/><path d="M142.628,1576.438c-12.673,0-14.562,8.089-14.562,8.089v.979c-.267,4.632,5.151,8.482,12.692,8.482,8,0,14.521-4.329,14.562-9.329,0-.105-.006-1.723-.006-1.723S152.239,1576.438,142.628,1576.438Zm-1.871,15.883c-4.288,0-8.1-1.4-9.933-3.654a4.271,4.271,0,0,1-1.009-3.675c.779-3.8,6.525-6.888,12.813-6.888,3.954,0,7.517,1.209,9.525,3.229a4.621,4.621,0,0,1,1.5,3.309C153.62,1588.733,147.6,1592.321,140.757,1592.321Z" fill="url(#m)"/><path d="M141.582,1586.491c-1.505,0-2.669-.747-2.7-1.692l-.014,2.6c0,.962,1.166,1.729,2.691,1.729,1.57,0,2.933-.813,3.076-1.814v-2.351C144.342,1585.83,143,1586.491,141.582,1586.491Z" fill="url(#ck)"/><path d="M141.929,1582.779c-1.562,0-2.932.813-3.062,1.83-.133,1.033,1.06,1.882,2.664,1.882s2.979-.849,3.068-1.882C144.686,1583.592,143.491,1582.779,141.929,1582.779Z" fill="url(#cl)"/><path d="M142.831,1582.74a2.1,2.1,0,0,0-2.068,0,.889.889,0,0,0-.5.728v.877a.743.743,0,0,0,.362.59,2.1,2.1,0,0,0,2.087,0,.881.881,0,0,0,.494-.732v-.867A.752.752,0,0,0,142.831,1582.74Z" fill="#002e8a"/><path d="M149.475,1579.053l0,0a.662.662,0,0,0-.636,0l-7.714,4.621-1.089.654a.7.7,0,0,1-.571.049l-.909-.343a.7.7,0,0,0-.569.049l-6.312,3.5a.552.552,0,0,0,.06.536,7.552,7.552,0,0,0,1.068.948l0,0a.672.672,0,0,0,.684,0l8.255-4.974,1.081-.651a.7.7,0,0,1,.565-.049l.917.341a.692.692,0,0,0,.565-.049l5.648-3.439c.243-.166.143-.575.143-.575S149.887,1579.313,149.475,1579.053Z" fill="url(#p)"/><path d="M149.475,1578.662l0,0a.58.58,0,0,0-.309-.08.651.651,0,0,0-.328.083l-7.712,4.62-1.091.654a.7.7,0,0,1-.571.049l-.908-.343a.7.7,0,0,0-.569.05l-6.129,3.634c-.183.108-.238.28-.123.405a7.717,7.717,0,0,0,1.067.949l0,0a.671.671,0,0,0,.683,0l8.255-4.973,1.081-.651a.7.7,0,0,1,.565-.05l.916.341a.693.693,0,0,0,.566-.049l5.648-3.439c.16-.1.191-.251.066-.363A8.366,8.366,0,0,0,149.475,1578.662Z" fill="url(#q)"/><path d="M142.83,1582.74a1.821,1.821,0,0,0-1.006-.271,2.106,2.106,0,0,0-1.06.271c-.612.364-.678.959-.143,1.328a2.1,2.1,0,0,0,2.086,0C143.316,1583.7,143.369,1583.1,142.83,1582.74Z" fill="url(#r)"/><path d="M142.628,1575.048c-7.05,0-13.488,3.554-14.442,8.221-1.025,5,4.575,9.33,12.571,9.33s14.521-4.33,14.562-9.33C155.357,1578.6,149.674,1575.048,142.628,1575.048Zm-1.871,15.884c-4.288,0-8.1-1.4-9.933-3.654a4.272,4.272,0,0,1-1.009-3.675c.779-3.8,6.525-6.889,12.813-6.889,3.954,0,7.517,1.209,9.525,3.23a4.62,4.62,0,0,1,1.5,3.309C153.62,1587.344,147.6,1590.932,140.757,1590.932Z" fill="#fff"/><path d="M130.392,1579.454l-.964-.265a8.275,8.275,0,0,0-1.916,3.657,6.37,6.37,0,0,0,.348,3.861l1.133-.294a5.89,5.89,0,0,1-.35-3.567A7.594,7.594,0,0,1,130.392,1579.454Z" fill="#d3d3d3"/><path d="M130.392,1579.454l-.964-.265a8.275,8.275,0,0,0-1.916,3.657,6.37,6.37,0,0,0,.348,3.861l1.133-.294a5.89,5.89,0,0,1-.35-3.567A7.594,7.594,0,0,1,130.392,1579.454Z" fill="url(#ak)"/><path d="M127.363,1584.2l0,0v1.308a6.544,6.544,0,0,0,.5,2.5l.571-.151v-1.023l.562-.146v-.283l-1.133.294A6.37,6.37,0,0,1,127.363,1584.2Z" fill="url(#cq)"/><path d="M128.516,1584.254a6.105,6.105,0,0,1,.127-1.125,7.582,7.582,0,0,1,1.749-3.392v-.283a7.594,7.594,0,0,0-1.749,3.392A6.032,6.032,0,0,0,128.516,1584.254Z" fill="url(#cr)"/></g></g></svg>