<svg xmlns="http://www.w3.org/2000/svg" xmlns:xlink="http://www.w3.org/1999/xlink" width="375" height="3239" viewBox="0 0 375 3239"><defs><clipPath id="a"><rect width="375" height="3239" transform="translate(0 68)" fill="#fff"/></clipPath></defs><g transform="translate(0 -68)" clip-path="url(#a)"><g transform="translate(-575.226 2386.58)"><rect width="1366" height="2318" transform="translate(0.226 0.42)" fill="#7ec3c9"/><path d="M803.3,1289.654c104.3-251.742-77.157-544.166-6-807,43.981-162.535,183.841-290.066,344-346,72.3-25.274,148.554-37.2,225-39v1209h-570C799.011,1300.879,800.842,1295.582,803.3,1289.654Z" transform="translate(-0.073 1011.767)" fill="#7ec3c9" style="mix-blend-mode:soft-light;isolation:isolate"/><path d="M1246.3,617.829h120v-516c-42.206-13.5-96.212,10.235-121,51-19.141,31.424-26.192,68.413-28,105C1211.362,377.458,1250.512,500.577,1246.3,617.829Z" transform="translate(-0.073 1700.591)" fill="#7ec3c9" style="mix-blend-mode:soft-light;isolation:isolate"/><path d="M1134.3,264.058H.3v2146a383.56,383.56,0,0,0,98,5c101.013-7.61,197.567-61.581,256-144,156.417-220.565,15.121-547.874,143-786,42.268-78.727,112.513-143.648,131-231,21.346-100.995-32.609-206.3-15-308,19.336-111.734,117.484-189.937,201-267C943.509,559.826,1052.226,419.256,1134.3,264.058Z" transform="translate(-0.073 -263.638)" fill="#7ec3c9" style="mix-blend-mode:soft-light;isolation:isolate"/><path d="M717.3,586.748H.3v1830c85.356-12.417,165.379-41.718,222-100,96.709-99.558,98.739-255.151,86-393-12.74-137.878-32.257-286.325,36-407,44.731-79.061,125.524-140.775,142-230,14.863-80.5-26.96-165.418-4-244,19.364-66.194,79.137-111.279,125-163,56.508-63.745,94.75-144.04,108-228A263.633,263.633,0,0,0,717.3,586.748Z" transform="translate(-0.073 -586.328)" fill="#7ec3c9" style="mix-blend-mode:soft-light;isolation:isolate"/><path d="M328.3,1253.743H.3v1163c31.113-15.419,57.741-33.808,70-47,41.815-44.93,56.291-108.862,60-170,5.266-86.7-8.378-173.127-6-260,2.35-86.845,22.99-178.875,84-241,31.764-32.33,72.1-54.236,108-82,35.869-27.736,68.885-64.182,75-109,10.7-78.3-62.33-145.991-64-225C327.1,1273.3,328.467,1263.383,328.3,1253.743Z" transform="translate(-0.073 -1253.323)" fill="#7ec3c9" style="mix-blend-mode:soft-light;isolation:isolate"/></g><g transform="translate(-575.299 -29.917)"><rect width="1366" height="2319" transform="translate(0.299 97.917)" fill="#7ec3c9"/><path d="M803.3,115.917c104.3,251.742-77.157,543.166-6,806,43.981,162.535,183.841,290.066,344,346,72.3,25.274,148.554,37.2,225,39v-1209h-570C799.011,103.692,800.842,109.989,803.3,115.917Z" fill="#7ec3c9" style="mix-blend-mode:soft-light;isolation:isolate"/><path d="M1246.3,97.917h120v516c-42.206,13.5-96.212-10.235-121-51-19.141-31.424-26.192-68.413-28-105C1211.362,338.288,1250.512,215.169,1246.3,97.917Z" fill="#7ec3c9" style="mix-blend-mode:soft-light;isolation:isolate"/><path d="M1134.3,2416.917H.3v-2147a383.566,383.566,0,0,1,98-5c101.013,7.61,197.567,61.581,256,144,156.417,220.565,15.121,547.874,143,786,42.268,78.727,112.513,144.648,131,232,21.346,100.995-32.609,205.3-15,307,19.336,111.734,117.484,189.937,201,267A1559.736,1559.736,0,0,1,1134.3,2416.917Z" fill="#7ec3c9" style="mix-blend-mode:soft-light;isolation:isolate"/><path d="M717.3,2416.917H.3v-1831c85.356,12.417,165.379,42.718,222,101,96.709,99.558,98.739,254.151,86,392-12.74,137.878-32.257,286.325,36,407,44.731,79.061,125.524,141.775,142,231,14.863,80.5-26.96,164.418-4,243,19.364,66.194,79.137,111.279,125,163,56.508,63.745,94.75,144.04,108,228A271.779,271.779,0,0,1,717.3,2416.917Z" fill="#7ec3c9" style="mix-blend-mode:soft-light;isolation:isolate"/><path d="M328.3,2416.917H.3v-1164c31.113,15.419,57.741,33.808,70,47,41.815,44.93,56.291,108.862,60,170,5.266,86.7-8.378,173.127-6,260,2.35,86.845,22.99,178.875,84,241,31.764,32.33,72.1,54.236,108,82,35.869,27.736,68.885,64.182,75,109,10.7,78.3-62.33,146.991-64,226C327.1,2397.36,328.467,2407.277,328.3,2416.917Z" fill="#7ec3c9" style="mix-blend-mode:soft-light;isolation:isolate"/></g></g></svg>