<svg xmlns="http://www.w3.org/2000/svg" xmlns:xlink="http://www.w3.org/1999/xlink" width="375" height="2494" viewBox="0 0 375 2494"><defs><clipPath id="a"><rect width="375" height="2494" transform="translate(0 58)" fill="#fff"/></clipPath></defs><g transform="translate(0 -58)" clip-path="url(#a)"><g transform="translate(-0.84 -30)"><rect width="1365" height="1844" transform="translate(0.84 98)" fill="#99c5ff"/><path d="M795.84,98c2.71,5.78,5.54,11.07,8,17,104.24,251.74-77.11,544.17-6,807,43.95,162.54,183.94,290.07,344,346,72.26,25.28,147.6,37.2,224,39V98Z" fill="#99c5ff" style="mix-blend-mode:soft-light;isolation:isolate"/><path d="M1246.84,98h119V614c-42.179,13.5-96.227-10.235-121-51-19.129-31.423-25.193-68.414-27-105C1211.907,338.37,1251.051,215.252,1246.84,98Z" fill="#99c5ff" style="mix-blend-mode:soft-light;isolation:isolate"/><path d="M749.84,1942H.84V270a383.7,383.7,0,0,1,98-5c100.95,7.61,197.61,61.58,256,144,156.32,220.57,15.21,547.87,143,786,42.24,78.72,112.53,144.65,131,232,21.33,101-32.6,205.3-15,307C628.27,1817.47,686.45,1882.52,749.84,1942Z" fill="#99c5ff" style="mix-blend-mode:soft-light;isolation:isolate"/><path d="M478.84,1942H.84V586c85.31,12.42,165.42,42.72,222,101,96.65,99.56,98.73,254.15,86,392-12.73,137.87-32.21,286.33,36,407,44.7,79.06,125.53,141.77,142,231C500.51,1791.13,466.43,1868.8,478.84,1942Z" fill="#99c5ff" style="mix-blend-mode:soft-light;isolation:isolate"/><path d="M184.84,1942H.84V1253c31.1,15.42,57.75,33.81,70,47,41.79,44.93,56.29,108.86,60,170,5.26,86.7-8.38,173.13-6,260C126.84,1804.12,142.49,1882.28,184.84,1942Z" fill="#99c5ff" style="mix-blend-mode:soft-light;isolation:isolate"/></g><g transform="translate(0 1911.58)"><rect width="1365" height="1843" transform="translate(0 0.42)" fill="#99c5ff"/><path d="M795.84,1306.58c2.71-5.78,5.54-11.07,8-17,104.24-251.74-77.11-544.17-6-807,43.95-162.54,183.94-290.07,344-346,72.26-25.28,147.6-37.2,224-39v1209Z" transform="translate(-0.84 536.84)" fill="#99c5ff" style="mix-blend-mode:soft-light;isolation:isolate"/><path d="M1246.84,617.757h119v-516c-42.179-13.5-96.227,10.235-121,51-19.129,31.423-25.193,68.414-27,105C1211.907,377.387,1251.051,500.505,1246.84,617.757Z" transform="translate(-0.84 1225.663)" fill="#99c5ff" style="mix-blend-mode:soft-light;isolation:isolate"/><path d="M749.84,264.062H.84v1671c33.05,6.17,66.96,8.34,98,6,100.95-7.61,197.61-62.58,256-145,156.32-220.57,15.21-546.87,143-785,42.24-78.72,112.53-144.65,131-232,21.33-101-32.6-206.3-15-308C628.27,387.592,686.45,323.542,749.84,264.062Z" transform="translate(-0.84 -263.642)" fill="#99c5ff" style="mix-blend-mode:soft-light;isolation:isolate"/><path d="M478.84,586.75H.84v1355c85.31-12.42,165.42-41.72,222-100,96.65-99.56,98.73-255.15,86-393-12.73-137.87-32.21-286.33,36-407,44.7-79.06,125.53-140.77,142-230C500.51,737.62,466.43,659.95,478.84,586.75Z" transform="translate(-0.84 -586.33)" fill="#99c5ff" style="mix-blend-mode:soft-light;isolation:isolate"/><path d="M184.84,1253.75H.84v688c31.1-15.42,57.75-33.81,70-47,41.79-44.93,56.29-108.86,60-170,5.26-86.7-8.38-173.13-6-260C126.84,1390.63,142.49,1313.47,184.84,1253.75Z" transform="translate(-0.84 -1253.33)" fill="#99c5ff" style="mix-blend-mode:soft-light;isolation:isolate"/></g></g></svg>