<svg xmlns="http://www.w3.org/2000/svg" xmlns:xlink="http://www.w3.org/1999/xlink" width="375" height="1552" viewBox="0 0 375 1552"><defs><clipPath id="a"><rect width="375" height="1552" transform="translate(0 68)" fill="#fff"/></clipPath></defs><g transform="translate(0 -68)"><g clip-path="url(#a)"><g transform="translate(-364.25 -29.92)"><rect width="1366" height="1706" transform="translate(0.25 97.92)" fill="#48c78b"/><path d="M796.25,97.92c2.71,5.78,5.54,12.07,8,18,104.24,251.74-78.11,543.17-7,806,43.95,162.54,183.94,290.07,344,346,72.26,25.28,148.6,37.2,225,39V97.92Z" fill="#48c78b" style="mix-blend-mode:soft-light;isolation:isolate"/><path d="M1246.25,97.92h120v516c-42.18,13.5-97.228-10.234-122-51-19.129-31.423-25.193-68.413-27-105C1211.317,338.291,1250.461,215.171,1246.25,97.92Z" fill="#48c78b" style="mix-blend-mode:soft-light;isolation:isolate"/><path d="M637.25,1803.92H.25v-1534a383.7,383.7,0,0,1,98-5c100.95,7.61,197.61,61.58,256,144,156.32,220.57,16.21,547.87,144,786,42.24,78.72,112.53,144.65,131,232,16.66,78.88-12.77,159.77-18,240-1.47,22.49-.85,44.73,3,67A248.237,248.237,0,0,0,637.25,1803.92Z" fill="#48c78b" style="mix-blend-mode:soft-light;isolation:isolate"/><path d="M486.25,1803.92H.25v-1218c85.31,12.42,166.42,42.72,223,101,96.65,99.56,98.73,254.15,86,392-12.73,137.87-32.21,286.33,36,407,35.94,63.56,94.73,116.49,125,181a205.349,205.349,0,0,1,16,50C491.54,1745.62,489.84,1774.6,486.25,1803.92Z" fill="#48c78b" style="mix-blend-mode:soft-light;isolation:isolate"/><path d="M125.25,1729.92a549.09,549.09,0,0,0,7,74H.25v-551c31.1,15.42,57.75,33.81,70,47,41.79,44.93,56.29,108.86,60,170,3.98,65.58-2.58,131.29-5,197C124.48,1688.08,124.67,1708.76,125.25,1729.92Z" fill="#48c78b" style="mix-blend-mode:soft-light;isolation:isolate"/></g></g></g></svg>