<svg xmlns="http://www.w3.org/2000/svg" xmlns:xlink="http://www.w3.org/1999/xlink" width="375" height="3920" viewBox="0 0 375 3920"><defs><clipPath id="a"><rect width="375" height="1960" transform="translate(0 68)" fill="#beebf2"/></clipPath><clipPath id="b"><rect width="375" height="1960" fill="#beebf2"/></clipPath></defs><g transform="translate(-3591 -9528)"><g transform="translate(3591 9460)" clip-path="url(#a)"><g transform="translate(-220 -29.923)"><rect width="1366" height="2319" transform="translate(0 97.923)" fill="#40c5ae"/><path d="M804,115.923c104.3,251.742-78.156,543.166-7,806,43.98,162.535,183.844,290.066,344,346,72.3,25.274,148.556,37.2,225,39v-1209H796C798.712,103.7,801.543,109.995,804,115.923Z" fill="#40c5ae" style="mix-blend-mode:soft-light;isolation:isolate"/><path d="M1247,97.923h119v516c-42.206,13.5-96.212-10.235-121-51-19.141-31.423-26.191-68.414-28-105C1211.063,338.293,1251.214,215.175,1247,97.923Z" fill="#40c5ae" style="mix-blend-mode:soft-light;isolation:isolate"/><path d="M1134,2416.923H0v-2147a383.568,383.568,0,0,1,98-5c101.01,7.611,197.568,61.58,256,144,156.413,220.564,15.123,547.875,143,786,42.267,78.727,113.514,144.648,132,232,21.346,100.995-32.609,205.3-15,307,19.336,111.734,117.485,189.937,201,267C944.207,2120.155,1051.929,2261.724,1134,2416.923Z" fill="#40c5ae" style="mix-blend-mode:soft-light;isolation:isolate"/><path d="M717,2416.923H0v-1831c85.355,12.417,166.38,42.718,223,101,96.707,99.558,98.739,254.15,86,392-12.74,137.877-32.256,286.325,36,407,44.73,79.061,124.524,141.775,141,231,14.863,80.5-26.96,164.418-4,243,19.364,66.194,79.137,111.279,125,163,56.507,63.745,94.751,144.04,108,228A271.778,271.778,0,0,1,717,2416.923Z" fill="#40c5ae" style="mix-blend-mode:soft-light;isolation:isolate"/><path d="M328,2416.923H0v-1164c31.113,15.419,57.742,33.808,70,47,41.814,44.93,56.292,108.862,60,170,5.266,86.7-7.378,173.127-5,260,2.35,86.845,22.991,178.875,84,241,31.764,32.33,72.1,54.236,108,82,35.869,27.736,68.885,64.183,75,109,10.7,78.3-62.33,146.991-64,226C327.8,2397.366,328.17,2407.282,328,2416.923Z" fill="#40c5ae" style="mix-blend-mode:soft-light;isolation:isolate"/></g></g><g transform="translate(3591 11488)" clip-path="url(#b)"><g transform="translate(-220 -359)"><rect width="1366" height="2319" fill="#40c5ae"/><path d="M804,1288.923c104.3-251.742-78.156-543.166-7-806,43.98-162.535,183.844-290.066,344-346,72.3-25.274,148.556-37.2,225-39v1209H796C798.712,1301.147,801.543,1294.851,804,1288.923Z" transform="translate(0 1012.077)" fill="#40c5ae" style="mix-blend-mode:soft-light;isolation:isolate"/><path d="M1247,617.726h119v-516c-42.206-13.5-96.212,10.235-121,51-19.141,31.423-26.191,68.414-28,105C1211.063,377.356,1251.214,500.474,1247,617.726Z" transform="translate(0 1701.274)" fill="#40c5ae" style="mix-blend-mode:soft-light;isolation:isolate"/><path d="M1134,263.8H0v2147a383.56,383.56,0,0,0,98,5c101.01-7.611,197.568-61.58,256-144,156.413-220.564,15.123-547.875,143-786,42.267-78.727,113.514-144.648,132-232,21.346-100.995-32.609-205.3-15-307,19.336-111.734,117.485-189.937,201-267C944.207,560.571,1051.929,419,1134,263.8Z" transform="translate(0 -263.803)" fill="#40c5ae" style="mix-blend-mode:soft-light;isolation:isolate"/><path d="M717,585.923H0v1831c85.355-12.417,166.38-42.718,223-101,96.707-99.558,98.739-254.15,86-392-12.74-137.877-32.256-286.325,36-407,44.73-79.061,124.524-141.775,141-231,14.863-80.5-26.96-164.418-4-243,19.364-66.194,79.137-111.279,125-163,56.507-63.745,94.751-144.04,108-228A271.778,271.778,0,0,0,717,585.923Z" transform="translate(0 -585.923)" fill="#40c5ae" style="mix-blend-mode:soft-light;isolation:isolate"/><path d="M328,1252.923H0v1164c31.113-15.419,57.742-33.808,70-47,41.814-44.93,56.292-108.862,60-170,5.266-86.7-7.378-173.127-5-260,2.35-86.845,22.991-178.875,84-241,31.764-32.33,72.1-54.236,108-82,35.869-27.736,68.885-64.183,75-109,10.7-78.3-62.33-146.991-64-226C327.8,1272.48,328.17,1262.564,328,1252.923Z" transform="translate(0 -1252.923)" fill="#40c5ae" style="mix-blend-mode:soft-light;isolation:isolate"/></g></g></g></svg>