<svg xmlns="http://www.w3.org/2000/svg" xmlns:xlink="http://www.w3.org/1999/xlink" width="278.442" height="261" viewBox="0 0 278.442 261"><defs><clipPath id="a"><ellipse cx="66.5" cy="66" rx="66.5" ry="66" transform="translate(-0.381 0.374)" fill="none"/></clipPath></defs><g transform="translate(-72.558 -413)"><g transform="translate(-897.374 28.448)"><path d="M1060.824,618.157c.416,4.465-1.866,7.5-6,6-3.922-1.422-4.756,1.658-8,2-3.459.365-4.581-3.862-7-2-4.668,3.593-9.568.849-8-4,1.269-3.922,3.967-4.931,6-5,3.688-.125,2.712-3.767,7-4,5.473-.3,4.106,5.155,9,4C1056.859,614.441,1060.6,615.8,1060.824,618.157Z" transform="translate(-14.451 -39.605)" fill="#fff" fill-rule="evenodd"/><path d="M1177.893,630.227h0c-.015,1.029.069,2.818,0,4-.054.937.084,1.956,0,3-.138,1.727-.747,2.95-1,5-.768,6.342-1.269,25.369-1,41h-20c-.929-8.737-2.4-20.472-5-38,0,.008.015-.023,0,0s.008-.031,0,0,.008-.031,0,0,.015-.031,0,0,.015-.038,0,0,.015-.046,0,0h0c-.054.131.061.831,0,1-.445,1.221-1.033,3.259-2,6-.837,2.365-1.917,4.837-3,8h0c-.13.384.13,1.6,0,2-.046.13-.954-.13-1,0h0c-2.242,6.572-4.142,14.2-6,21h-21c2.273-11.708,8.345-41.516,12-62h0c1.321-7.424,2.47-13.184,3-17a8.5,8.5,0,0,0,2,0h0c1.213-.123,2.981-.885,5-1a90.987,90.987,0,0,1,15,1h0c5.213.66,10.036,1.328,13,4a9.539,9.539,0,0,1,3,6c.192,2.05,6.023-.727,6,1-.023,1.321-.054,2.718,0,4h0c.046.975.946,1.979,1,3,.046.952-.038,1.956,0,3,.008.054,0-.061,0,0,0,.046-.008-.046,0,0-.008.046-.008-.046,0,0,.023.645-.008,1.3,0,2C1177.908,628.079,1177.9,629.275,1177.893,630.227Z" transform="translate(-34.519 -37.675)" fill="#3b3b4d"/><path d="M1166.084,648.782h0c-.082-.05.01.009,0,0Z" transform="translate(-45.711 -48.23)" fill="#1f1f3b" opacity="0.46"/><path d="M1159.089,655.566h0c-.048.133-4.493,12.7-6,17l5-25S1157.257,649.133,1159.089,655.566Z" transform="translate(-42.715 -48.014)" fill="#1f1f3b" opacity="0.54"/><path d="M1189.32,638.513c-.373-.081-19.654-8.539-22-17,0,0,17.173,1.5,22,2C1189.531,627.374,1189.471,636.328,1189.32,638.513Z" transform="translate(-45.946 -41.961)" fill="#1f1f3b" opacity="0.35"/><path d="M1184.24,635.9h0c-.089,0,.012,0,0,0Z" transform="translate(-49.866 -45.347)" fill="#1f1f39" opacity="0.46"/><path d="M1065.488,488.222c2.374-10.948-4.721-7.291-5-14-.046-1.1,6.679-6.37,10-3s4.513,9.737,4,13-4.925,4.39-6,4A7.22,7.22,0,0,0,1065.488,488.222Z" transform="translate(-21.115 -6.669)" fill="#efaea6"/><path d="M1163.232,642.336h0c-.077-.046.009.008,0,0Z" transform="translate(-44.859 -46.784)" fill="#1f1f39" opacity="0.46"/><path d="M1150.877,522.017l-9,2s-7.561.821-6-1c2.089-2.431,1.166-4.362,2-6,.531-1.04,1.781-2.468,2-4a27.477,27.477,0,0,0,0-6h0l1-2,2-6s5.72,3.2,6,7C1149.135,509.484,1151.342,518.222,1150.877,522.017Z" transform="translate(-38.504 -13.465)" fill="#efaea6"/><path d="M1141.107,514.608a27.469,27.469,0,0,0,0-6h0l1-2,1-1s2.275,3.006,3,4C1147.144,511.037,1145.222,515.764,1141.107,514.608Z" transform="translate(-39.734 -15.056)" fill="#1f1f39" opacity="0.14"/><path d="M1148.705,516.014c-3.631-.859-3.392,5.556-7,6-1.9.234-2.06-.128-3-1-.579-.537-1.159-1.966-2-1-17.091,19.648,4.137,66.579,2,70-1.748,2.8,13.6,8.778,23,6,12.888-3.81,11.491-18.228,11-21s-11-50-11-50A94.093,94.093,0,0,1,1148.705,516.014Z" transform="translate(-37.332 -17.461)" fill="#fff"/><path d="M1065.821,490.724c.071,1.317-.9,39.3,13,43,6.147,1.638,27.441,4.38,31,7,2.708,1.994,5.373,8.449,5,12-.3,2.855-.861,5.958-1,8-.356,5.244-3.525,27.555,3,34,4.147,4.1,7.718,3.34,10,1,3.917-4.017-.863-20.859,0-38,.668-13.252-5.921-21.033-5-32,.7-8.3,0-12,0-12-19.774,8.782-32.481,7.405-37,6-5.805-1.805-3.844-27.461-6-29C1077.972,490.117,1065.651,487.573,1065.821,490.724Z" transform="translate(-22.447 -11.172)" fill="#0267a4"/><path d="M1065.821,490.724c.071,1.317-.9,39.3,13,43,6.147,1.638,27.441,4.38,31,7,2.708,1.994,5.373,8.449,5,12-.3,2.855-.861,5.958-1,8-.356,5.244-3.525,27.555,3,34,4.147,4.1,7.718,3.34,10,1,3.917-4.017-.863-20.859,0-38,.668-13.252-5.921-21.033-5-32,.7-8.3,0-12,0-12-19.774,8.782-32.481,7.405-37,6-5.805-1.805-3.844-27.461-6-29C1077.972,490.117,1065.651,487.573,1065.821,490.724Z" transform="translate(-22.447 -11.172)" fill="#1f1f39" opacity="0.14"/><path d="M1189.308,604.038c-1.478,6.814-17.767.24-23-5-4.338-4.346-.5-9.594-4-20-1.772-5.258-4.878-14.947-6-22-.109-.695.078-1.35,0-2-.652-5.461-1.76-11.448-2-17-.11-2.524.051-4.7,0-7-.033-1.475.016-2.669,0-4-.052-4.927-.061-9.326,0-11a27.737,27.737,0,0,1,17,8c.883.874,1.266,2.362,2,4,.612,1.361,4.388,7.2,5,14,.739,8.21,1.715,14.048,2,19,.314,5.458,1.417,10.261,2,19C1182.833,587.886,1190.078,600.487,1189.308,604.038Z" transform="translate(-42.935 -17.486)" fill="#0267a4"/><path d="M1165.408,538.136c.124,2.165-7.224,25.7-8,30-.109-.694-.922-7.35-1-8-.652-5.461-1.76-11.448-2-17Z" transform="translate(-43.035 -22.584)" fill="#1f1f39" opacity="0.18"/><path d="M1137.826,489.8c-1.475,3-7.092,7.165-5,8s-3.2,6.033-1,7c5.318,2.346,12.279,2.325,14,0s4-10,4-10Z" transform="translate(-37.453 -11.248)" fill="#efaea6"/><path d="M1142.973,492.876c-1.777-.484-2.036.056-3-1s2.076-1.739,0-3-4.768-2.362-4-5c1.112-3.817,4.155-2.235,6-1,1.188.8,2.458-2.162,5-1,1.994.912,1.256,2.108,3,3,1.053.539,3.813,0,5,2,2.2,3.716-1.6,5.334,0,9,1.872,4.276-7.484,8.116-8,7-.6-1.3,1.682-3.869,1-5-1.029-1.7-1.314-.665-3,0-1.8.711-4.5-.233-2-2S1144.581,493.314,1142.973,492.876Z" transform="translate(-38.599 -9.323)" fill="#1f1f39"/><path d="M1114.936,512c.127-.01,0,0,0,0h0c-.01.005.016-.012,0,0-.072.061.09-.1,0,0-.183.21-.82.748-1,1-.362.51-.648.457-1,1-.7,1.089-1.274,1.906-2,3-1.45,2.19-2.324,4.952-4,7a59.109,59.109,0,0,1-6,6,31.562,31.562,0,0,1-6,4,36.321,36.321,0,0,1-8,3c-2.59.736-5.313,1.949-8,2a36.652,36.652,0,0,1-8-1c-.656-.13-1.352-.84-2-1h0c-.081-.022-.918.025-1,0h0c-.166-.053-.84.066-1,0-1.306-.467-1.845-1.265-3-2s-2.99-1.1-4-2-1.12-1.99-2-3-2.214-1.924-3-3-1.294-2.877-2-4-1.363-1.841-2-3-1.422-2.815-2-4-1.466-1.8-2-3c-.272-.6-.738-1.4-1-2s.244-1.39,0-2c-1.985-4.875-3.5-9.97-5-15-.749-2.515-2.352-4.457-3-7-.323-1.272.3-2.721,0-4-.148-.64-.86-1.357-1-2s.131-1.338,0-2,.347-1.87,1-2,.871.346,1,1h0c.118.618-.134,1.37,0,2s.857,1.368,1,2c.285,1.263.688,2.742,1,4,.625,2.516,1.275,5.511,2,8a145.614,145.614,0,0,0,5,14c.236.6.755,1.4,1,2s-.263,1.41,0,2c.516,1.184,1.438,1.84,2,3s1.391,2.868,2,4,1.33,1.906,2,3,1.258,1.961,2,3,1.171,2.041,2,3a37.462,37.462,0,0,0,3,3,21.44,21.44,0,0,0,3,2,16.051,16.051,0,0,0,3,2c.141.061-.144-.047,0,0h1c.074.023-.076-.021,0,0h1c.617.157,1.377.873,2,1a29.865,29.865,0,0,0,7,1,33.487,33.487,0,0,0,8-1,30.605,30.605,0,0,0,7-3c2.2-1.258,4.09-3.306,6-5a42.413,42.413,0,0,0,5-5c1.64-1.98,3.558-4.849,5-7,.722-1.075,1.281-1.9,2-3,.361-.549.6-.449,1-1,.2-.276.754-.718,1-1,.125-.141-.177-.85,0-1,.048-.039-.057.04,0,0h0a6.042,6.042,0,0,1,1,0,1,1,0,0,1,0,2Z" transform="translate(-15.562 -8.447)" fill="#252530"/><path d="M1255.538,454.22c2.458,0,7.218,4.3,0,5s-17.626-.015-22,0c-7.141.024-9.057-.083-9-3,.033-1.688,1.236-2.558,5-3,3.917-.461,1.22-5.132,6-5,4.071.113,4.275,5.4,8,4s3.275,3.3,6,4C1252.532,456.988,1253.081,454.22,1255.538,454.22Z" transform="translate(-59.164 -1.668)" fill="#fff"/><path d="M1076.717,478.634a7.335,7.335,0,0,1-1,3c-.53.77-1.4,1.118-3,1-2.984-.221-3.033-2.054-7-2s-11.467,4.35-14,4c-2.3-.32-59.515,3.083-70,0-.359-.106-.756.121-1,0-.467-.232-.995-.707-1-1-.008-.365-.035-1.3,0-2,.351-7.235,2.567-30.59,5-38,.485-1.479,1.533-2.063,2-2a4.315,4.315,0,0,1,2,0c11.07,3.606,55.018,21.946,63,24,8.451,2.173,11.591,8.5,14,9,3.408.7,2.98-.772,8,0A3.58,3.58,0,0,1,1076.717,478.634Z" transform="translate(-2.343 -0.082)" fill="#454554"/><path d="M1076.21,488.962c-.53.77-1.4,1.118-3,1-2.984-.221-3.033-2.054-7-2s-11.467,4.35-14,4c-2.3-.32-59.515,3.083-70,0,.045-.062-.044.062,0,0,.567-.8.44-2.215,1-3,3.3-4.622,6.807-8.941,9-12,1.922-2.679,3-4,3-4,.362.688,1.671,1.321,3,2,11.777,6,56.718,11.31,65,11C1070.315,485.695,1074.63,488.005,1076.21,488.962Z" transform="translate(-2.837 -7.409)" fill="#1f1f39" opacity="0.18"/><path d="M995.374,465.552c-1.25,8.55-5.743,15.581-11,18a10.04,10.04,0,0,1-6,1c-6.292-1.087-9.718-11.243-8-23s6.671-20.845,13-20c.908.121,2.145-.427,3,0h0a13,13,0,0,1,4,3C994.436,449.219,996.546,457.52,995.374,465.552Z" transform="translate(0)" fill="#1f1f39"/><path d="M992.045,463.315c-.05.7-.9,1.3-1,2-.055.368.067.633,0,1a29.3,29.3,0,0,1-2,6c-.116.294.122.714,0,1a30.985,30.985,0,0,1-3,5c-2.135,3.081-4.569,5.355-7,5-.916-.134-1.245-1.314-2-2a4.188,4.188,0,0,1-1-1,17.028,17.028,0,0,1-2-4c-.048-.144.044.147,0,0a34.379,34.379,0,0,1-1-14c1.394-9.537,5.875-18.75,11-18C988.8,445.009,992.681,454.415,992.045,463.315Z" transform="translate(-0.671 -0.763)" fill="#fff"/><path d="M1110.784,482.469a4.535,4.535,0,0,1-1,2c-.292.25-.578.025-1,0-2.987-.179-4.033-1.054-8-1-3.925.052-11.382,5.229-14,5-.028,0,.027,0,0,0-2.3-.319-60.516,3.083-71,0-.359-.105-.756-.879-1-1h0c-.467-.233.005.293,0,0,0-.117,0-.846,0-1s-.005.173,0,0c.007-.219-.012-.736,0-1,.352-7.235,2.568-30.59,5-38,.485-1.479.533-2.062,1-2a10.076,10.076,0,0,1,3,0h0c11.069,3.606,55.017,21.946,63,24,8.45,2.174,12.592,9.494,15,10,3.192.671.98-.772,6,0C1110.488,479.884,1111.061,481.406,1110.784,482.469Z" transform="translate(-10.41 -0.917)" fill="#454554"/><path d="M1110.277,491.8c-.292.25-.578.025-1,0-2.987-.179-4.033-1.054-8-1-3.925.052-11.382,5.229-14,5-.028,0,.027,0,0,0-2.3-.319-60.515,3.083-71,0,.046-.061-.044.062,0,0,.26-.365.74-1.637,1-2,.306-.428.7-.575,1-1h0c.256-.359.746-.645,1-1,1.252-1.753,1.861-3.407,3-5h0c1.605-2.24,3.818-4.352,5-6h0c1.922-2.679,3-4,3-4a3.883,3.883,0,0,0,2,2c11.777,6,57.717,11.311,66,11A27.3,27.3,0,0,1,1110.277,491.8Z" transform="translate(-10.904 -8.244)" fill="#1f1f39" opacity="0.18"/><path d="M1030.441,469.387c-1.25,8.551-5.743,15.581-11,18-1.971.908-3.949.355-6,0-6.292-1.086-10.718-10.243-9-22s7.671-21.845,14-21a10.963,10.963,0,0,1,3,1h0c1.371.683,1.84,1.668,3,3A27.712,27.712,0,0,1,1030.441,469.387Z" transform="translate(-8.067 -0.835)" fill="#1f1f39"/><path d="M1026.112,468.15a46.366,46.366,0,0,1-1,6c-.216.7-.746,1.326-1,2-.214.57-.76.458-1,1-.223.513.245,1.517,0,2-1.221,2.41-2.461,4.66-4,6-.021.019-.978-.018-1,0h0a4.393,4.393,0,0,1-4,1c-.354-.051-.67.14-1,0-.352-.147-.676.242-1,0a9.3,9.3,0,0,1-2-3c-.046-.083.044.085,0,0a28.11,28.11,0,0,1-2-7c-.58-3.3-1.532-6.355-1-10,1.393-9.539,6.874-18.749,12-18S1027.506,458.611,1026.112,468.15Z" transform="translate(-8.739 -1.597)" fill="#fff"/><path d="M1035.7,466.87c3.453-.748,3.648-2.227,4-7,.732,4.463,1.423,5.708,5,6-3.013,1.473-3.771,1.775-4,7C1039.614,467.661,1038.806,467.811,1035.7,466.87Z" transform="translate(-15.329 -4.318)" fill="#fff"/><path d="M991.48,500.606c4.524-.557,5.16-3.033,6-8,.586,4.713,1.4,6.463,6,7-4.013,1.344-5.284,2.552-6,8C996.492,502.088,995.418,501.79,991.48,500.606Z" transform="translate(-5.107 -12.054)" fill="#fff"/><path d="M1082.652,486.994c2.395.532,6.861.763,7,0s-.029-3.931-1-4-.821-.861-2-1c-.771-.091-1.608.705-2,1-.416.312-.479-.694-1,0C1083.193,483.608,1082.027,486.855,1082.652,486.994Z" transform="translate(-26.279 -9.442)" fill="#1f1f39" opacity="0.18"/><path d="M1088.255,485.5c-.022.54,0,1.433,0,2s-.009.428,0,1c.016,1.145-.043,2.853,0,4,.088,2.295-.18,4.71,0,7a130.706,130.706,0,0,0,2,13c.4,2.254.439,4.789,1,7,.276,1.106.67,1.913,1,3,.163.545.823,1.461,1,2v1c.091.268-.1-.266,0,0a34.945,34.945,0,0,0,3,6,24.774,24.774,0,0,0,2,3c.708.822,2.144,1.384,3,2s.98,1.654,2,2,1.921-.1,3,0a25.389,25.389,0,0,0,4,0c1.092-.11,1.928.279,3,0,2.141-.573,4.045-1.9,6-3a38.79,38.79,0,0,0,6-4,36.488,36.488,0,0,0,8-10,49.106,49.106,0,0,0,5-13h0c.107-.45.551-.108,1,0s1.1.553,1,1a47.385,47.385,0,0,1-5,13,42.926,42.926,0,0,1-9,11,36.726,36.726,0,0,1-6,4,30.447,30.447,0,0,1-3,2,21.165,21.165,0,0,1-3,1c-1.165.315-2.789-.133-4,0s-2.771,1.108-4,1a11.786,11.786,0,0,1-3-1,19.66,19.66,0,0,1-2-1c-.147-.065-.861.077-1,0h0c-.269-.167-.738-.824-1-1a9.136,9.136,0,0,1-2-2c-.811-.924-2.36-1.977-3-3a42.237,42.237,0,0,1-3-7c-.1-.277.1-.722,0-1h0c-.188-.559-.826-1.437-1-2-.352-1.125-.705-1.864-1-3-.6-2.272-.568-4.7-1-7-.858-4.6-1.589-9.354-2-14-.2-2.323-.89-4.669-1-7-.054-1.165.027-2.831,0-4-.014-.585,0-.412,0-1s-.019-1.383,0-2c.024-.742.258-2.023,1-2s2.023,1.258,2,2Z" transform="translate(-26.881 -9.947)" fill="#252530"/><path d="M1103.551,494.509c.058-1.363-4.585-4.12-4-5,1.091-1.638,3.55-.05,5-3,1.13-2.3-3.154-6.712,0-7,7.381-.673,9.69,5.3,7,11-2.091,4.431-.148,7.949-1,12s-8-1-8-1A60.169,60.169,0,0,0,1103.551,494.509Z" transform="translate(-30.178 -8.957)" fill="#efaea6"/><path d="M1144.8,515.043c-18.344,10.509-42.511,47.423-33-12,.229-1.428-11.548-5.177-12-3-19.546,94.012,45.928,37.629,54,33,3.42-1.961,4.337-15.087-1-16A42.091,42.091,0,0,1,1144.8,515.043Z" transform="translate(-29.431 -13.491)" fill="#0267a4"/><g transform="translate(1102.502 502.443)"><path d="M1144.96,524.453c.379-.224,4.162,7.337,9,10,1.336.736,2.467,1.826,4,2a106.381,106.381,0,0,0,17,0c-1.19-2.573-1.087-3.616-3-6a42.935,42.935,0,0,1-13,1,18.805,18.805,0,0,1-5-2,28.879,28.879,0,0,1-7-5c-.9-.874-.87-1.892-2-2C1143.461,522.307,1144.473,524.739,1144.96,524.453Z" transform="translate(-1143.089 -521.344)" fill="#1f1f39" opacity="0.18"/><path d="M1142.58,523.11c.086-.709.5-2.145,2-2,1.129.109,1.1.125,2,1,2.695,2.626,7.012,6.166,12,7s16.666-5.039,24-3,9.377,8.677,20,11,22.868-1.724,26-1,5.151,1.752,5,3-2.727,3.239-5,4-21.871.991-27,0c-8.372-1.618-14.592-9.206-20-10a39.768,39.768,0,0,0-9,0c-4.982.466-11.321,1.417-15,1-7.083-.8-11.513-10.286-12-10s-1.1,1.282-2,1A2.1,2.1,0,0,1,1142.58,523.11Z" transform="translate(-1142.709 -521)" fill="#f4ad00"/></g><path d="M1082.61,485.879c2.395.532,6.861,1.763,7,1s-.029-3.931-1-4-.821-1.861-2-2c-.77-.091-1.608.705-2,1a3.3,3.3,0,0,0-1,1C1083.151,483.492,1081.986,485.74,1082.61,485.879Z" transform="translate(-26.237 -9.326)" fill="#261d1f"/><path d="M989.442,480.013a30.985,30.985,0,0,1-3,5c-2.135,3.081-4.569,5.355-7,5-.916-.134-1.245-1.314-2-2-.362-.61-.524-.572-1-1a17.023,17.023,0,0,1-2-4,5,5,0,0,1,1-2c1.175-1.527.812-5.882,3-7h0l3-1h0c.1.015.873-.026,1,0h0c.365.077.377.792,1,1,.022.007-.024-.008,0,0a6.616,6.616,0,0,1,2,1,12.542,12.542,0,0,1,2,2A17.971,17.971,0,0,1,989.442,480.013Z" transform="translate(-1.068 -7.46)" fill="#8dc9db" opacity="0.9"/><path d="M997.594,465.82c-1.25,8.55-5.743,15.581-11,18-4.911-.035-10.585-.1-6-1,7.482-1.472,9.377-14.1,10-19s-1.919-12.558-6-20l4-2h0c.119.094,2.04,1.4,4,3C996.656,449.487,998.766,457.787,997.594,465.82Z" transform="translate(-2.22 -0.268)" fill="#3d3d59" opacity="0.18"/><path d="M989.862,477.126c-1.814-.691-4.125-1.844-5-3h0c.378.078.343-.222,1,0A9.306,9.306,0,0,1,989.862,477.126Z" transform="translate(-3.489 -7.574)" fill="#1f1f39" opacity="0.1"/><path d="M983.053,470.016c1.142,2.228-3.042,4.848-4,5-.574.091-1.085-.952,0-3,.049-.092.847.267,1,0h0c.223-.391.293-.781,0-1-.144-.108-.814-.012-1,0h0a3.579,3.579,0,0,1-1,0c-.607-.151.2-1.658,0-2s-.1.073,0,0c.248-.183.221.073,0,0-.332-.111-.025-.7,0-1s-.819.269-1,0,.569-.357,1-1c.544-.811-.226-1.148,0-2h4v2S981.422,466.834,983.053,470.016Z" transform="translate(-1.68 -5.464)" fill="#f5b1b4"/><path d="M980.834,473.8c.223-.391.293-.781,0-1-.144-.108-.814-.012-1,0C981.335,472.312,982.665,472.513,980.834,473.8Z" transform="translate(-2.46 -7.248)" fill="#1f1f3b" opacity="0.12"/><path d="M993.137,467.119c-.05.7-.9,1.3-1,2-.055.368.067.633,0,1-.366-.247-.549-.157-1,0-1.416.493-1.749,1.749-4,2-6.644-.629-5.211-2.985-6-4a1.013,1.013,0,0,1,0-1c.194-.414.49-1.76,0-2-.408-.2-.876.719-1,1-.111.251-.8.183-1,0-.346-.326.1-1-2-1-.382,0-.132-1.713,0-2,.314-.681,1.814-1.62,4-2,3.156-.549,5.115,3.671,6,4s.321.165,3,0C992.362,464.983,992.756,466.427,993.137,467.119Z" transform="translate(-1.764 -4.567)" fill="#f28f00" opacity="0.9"/><g transform="translate(1004.566 458.162)"><path d="M1017.184,479.45l3-1c-.14-1.4.37-4.779,0-6a2.589,2.589,0,0,1,0-2l-2,2-1,1s.118.04,0,1a10.279,10.279,0,0,1-1,3C1015.776,478.229,1017.184,479.45,1017.184,479.45Z" transform="translate(-1015.377 -465.06)" fill="#efaea6"/><path d="M1017.443,473.909s.118.04,0,1c1.985.633,2.539-.524,2-1-.337-.3-1-1-1-1Z" transform="translate(-1015.636 -465.519)" fill="#1f1f39" opacity="0.14"/><path d="M1015.955,467.6c-.181,1.161-1.79,2.946-1,3s.161,1.913,1,2c2.031.212,4.666-.036,5-1a15.475,15.475,0,0,0,0-4Z" transform="translate(-1015.148 -464.213)" fill="#efaea6"/><path d="M1018.041,467.715c-.545-.35-.566.25-1,0s.828-.8,0-1-2.07-1.036-2-2c.044-.612,1.251-1.214,2-1,.481.138.026-.009,1,0,.77.008,1.3-.3,2,0a6.971,6.971,0,0,1,2,1c1.128,1.006.077,1.947,1,3,1.077,1.229-2.578,2.919-3,3-.157.03-.4-.421,0-1,.207-.3,1.174-.848,1-1-.306-.269-1.761-.885-2,0-.17.63.206,2.832,0,3-.53.432-3,.8-3,0,0-.99,2.066.019,2-1-.051-.778-1.84-.369-2-1-.185-.729,1.78.652,2,0C1018.31,468.92,1018.352,467.916,1018.041,467.715Z" transform="translate(-1015.234 -463.325)" fill="#1f1f39"/></g><path d="M1020.566,491.8c0,.185-.008-.18,0,0-.026-.163-.978.166-1,0h0a4.393,4.393,0,0,1-4,1c-.354-.051-.67.14-1,0-.352-.147-.676.242-1,0,.126-2.253-.173-4.817,0-7h0a33.348,33.348,0,0,1,2-9c.048-.1-.051.038,0,0,.027-.022-.028,0,0,0a5.458,5.458,0,0,1,1,0c.072.015-.047-.049,0,0,.3.311.327,1.02,1,1,.946-.031,1-.893,2-1a4.679,4.679,0,0,1,1,0c.078.02-.076-.025,0,0,.011,0-.01,0,0,0a6.839,6.839,0,0,1,2,1s.562,2.406,1,5c.059.355-.065.616,0,1,.118.7.871,1.235,1,2C1023.344,488.206,1022.105,490.456,1020.566,491.8Z" transform="translate(-10.192 -8.244)" fill="#fff"/><path d="M1027.363,482.823c-.214.57-.76.458-1,1-.223.513.245,1.517,0,2-1.221,2.41-2.461,4.66-4,6,0,.185-.008-.18,0,0-.026-.163-.978.166-1,0-.008-.058.006.058,0,0a17.212,17.212,0,0,1,0-2c0-.188.008-.826,0-1-.08-1.672-.025-2.539,0-4,0-.2-.008-.8,0-1,.006-.134-.008.134,0,0,.014-.22-.02-.784,0-1,.011-.107-.012.107,0,0s-.013.106,0,0-.014-.895,0-1c.026-.2-.029.2,0,0,.016-.113-.016-.889,0-1,.031-.188-.032.182,0,0,.071-.4-.074-.638,0-1,.015-.072.985-.93,1-1s-.018.081,0,0-.018.078,0,0h0c.012-.055-.013.052,0,0,.055-.242-.045-.8,0-1h0c.021-.091-.018.081,0,0,.047-.217-.026-.854,0-1,.007-.036,0,.031,0,0,0-.011,0,.01,0,0a19.8,19.8,0,0,1,5,3,10.332,10.332,0,0,1,1,1C1028.147,481.527,1027.617,482.149,1027.363,482.823Z" transform="translate(-11.989 -8.27)" fill="#4d4d5b"/><path d="M1014.258,476.921c-.046.008.038,0,0,0h0c-1.244.046-2.132,1.209-3,2a9.172,9.172,0,0,0-3,4c.031.177-.038.831,0,1s-.038.831,0,1h0c.092.422-.107.6,0,1h0c.038.131-.046.87,0,1,.1.346.885.678,1,1,.069.207-.077-.2,0,0,.069.154-.069.846,0,1,.069.169-.084-.161,0,0s.916.846,1,1h0c.077.146-.077-.138,0,0,.092.138-.084.869,0,1,.107.169-.115-.154,0,0,.046.054.954-.054,1,0,.115.146-.123.869,0,1,.1.107-.1-.092,0,0s.892-.084,1,0c.054.054-.061-.038,0,0,.046.038-.046.969,0,1h0c.131.092-.13-.084,0,0,.115.069.877-.061,1,0h0c-.031-.368,0-.67,0-1,0-.706.008-1.44,0-2h0c-.023-1.374-.015-1.841,0-3v-1c.008-.43-.031-.493,0-1v-1c.023-.422-.046-.493,0-1,.023-.223-.023-.754,0-1,.015-.108-.015.115,0,0v-3l1-2Z" transform="translate(-8.884 -8.369)" fill="#4d4d5b"/><path d="M1025.576,485.822c.365.157.655-.31,1,0-.223.513.245,1.517,0,2-1.221,2.41-2.461,4.66-4,6,0-.122-.008-.876,0-1a8.336,8.336,0,0,1,0-2,14.779,14.779,0,0,0,1-4c.007-.183,0,.182,0,0h0a1.756,1.756,0,0,1,2-1C1025.824,485.853,1025.323,485.711,1025.576,485.822Z" transform="translate(-12.203 -10.27)" fill="#1f1f39" opacity="0.16"/><path d="M1021.363,484.823c-.024,1.46-.08,2.329,0,4,.237-.59,2.178-3.236,2-4-.2-.847-.018-3.2,1-4s-.945-2.342-2-4A51.457,51.457,0,0,0,1021.363,484.823Z" transform="translate(-11.989 -8.27)" fill="#1f1f39" opacity="0.77"/><g transform="translate(1009.724 473.743)"><path d="M1027.515,484.428c-.214.57-.76.458-1,1-.223.513.245,1.517,0,2-1.221,2.41-2.461,4.66-4,6,0,.185-.008-.18,0,0-.026-.163-.978.166-1,0h0c.039-.1-.039.1,0,0s.966-.916,1-1c1.075-2.717,2.091-4.985,3-7h0c.18-.395-.2-.79,0-1A1.279,1.279,0,0,1,1027.515,484.428Z" transform="translate(-1021.865 -483.62)" fill="#4d4d5b"/></g><path d="M1012.385,479.923c.442.841,1.623,3.05,1,4-.607.924.932,2.9,1,3a41.45,41.45,0,0,1,0-5l1-5C1014.555,477.565,1011.949,479.1,1012.385,479.923Z" transform="translate(-10.012 -8.371)" fill="#1f1f39" opacity="0.77"/><path d="M1032.661,469.655c-1.25,8.551-5.743,15.581-11,18-4.911-.035-10.585-1.1-6-2,7.482-1.472,8.377-13.1,9-18s-.919-12.557-5-20l4-2h0a20.842,20.842,0,0,0,3,3A27.713,27.713,0,0,1,1032.661,469.655Z" transform="translate(-10.287 -1.102)" fill="#3d3d59" opacity="0.18"/></g><g transform="translate(-561.115 149.746)" opacity="0.35" style="mix-blend-mode:overlay;isolation:isolate"><g transform="translate(779.497 262.881)" clip-path="url(#a)"><rect width="3.536" height="221.422" transform="translate(94.147 -62.748) rotate(45)" fill="#fff"/><rect width="3.537" height="221.423" transform="matrix(0.707, 0.707, -0.707, 0.707, 101.207, -55.689)" fill="#fff"/><rect width="3.537" height="221.422" transform="translate(108.213 -48.682) rotate(45)" fill="#fff"/><rect width="3.537" height="221.423" transform="matrix(0.707, 0.707, -0.707, 0.707, 115.22, -41.674)" fill="#fff"/><rect width="3.536" height="221.422" transform="translate(122.28 -34.615) rotate(45)" fill="#fff"/><rect width="3.536" height="221.422" transform="translate(129.313 -27.582) rotate(45)" fill="#fff"/><rect width="3.537" height="221.422" transform="translate(136.346 -20.549) rotate(45)" fill="#fff"/><rect width="3.537" height="221.422" transform="translate(143.379 -13.516) rotate(45)" fill="#fff"/><rect width="3.536" height="221.422" transform="translate(150.413 -6.482) rotate(45)" fill="#fff"/><rect width="3.536" height="221.422" transform="translate(157.446 0.551) rotate(45)" fill="#fff"/><rect width="3.537" height="221.423" transform="matrix(0.707, 0.707, -0.707, 0.707, 164.506, 7.61)" fill="#fff"/><rect width="3.537" height="221.422" transform="translate(171.512 14.618) rotate(45)" fill="#fff"/><rect width="3.537" height="221.423" transform="matrix(0.707, 0.707, -0.707, 0.707, 178.519, 21.625)" fill="#fff"/><rect width="3.536" height="221.422" transform="translate(185.579 28.685) rotate(45)" fill="#fff"/><rect width="3.536" height="221.422" transform="translate(192.612 35.718) rotate(45)" fill="#fff"/></g></g></g></svg>