<svg xmlns="http://www.w3.org/2000/svg" xmlns:xlink="http://www.w3.org/1999/xlink" width="91" height="177.086" viewBox="0 0 91 177.086"><defs><linearGradient id="a" x1="16.375" y1="0.5" x2="17.375" y2="0.5" gradientUnits="objectBoundingBox"><stop offset="0" stop-color="#ff4d4c"/><stop offset="1" stop-color="#c74cff"/></linearGradient><linearGradient id="b" x1="54.658" y1="0.5" x2="55.658" y2="0.5" xlink:href="#a"/><linearGradient id="c" x1="23.6" y1="0.5" x2="24.6" y2="0.5" xlink:href="#a"/><linearGradient id="d" x1="-30.37" y1="0.5" x2="-29.37" y2="0.5" gradientUnits="objectBoundingBox"><stop offset="0" stop-color="#fcd528"/><stop offset="1" stop-color="#ffb800"/></linearGradient><linearGradient id="e" x1="472.028" y1="0.5" x2="473.028" y2="0.5" xlink:href="#d"/><linearGradient id="f" x1="-36.126" y1="0.5" x2="-35.126" y2="0.5" xlink:href="#d"/></defs><g transform="translate(0.341 -0.151)"><path d="M484.746,1296.5c.34.061.166,1.7,0,2-.613.6-1.405.406-2,1a7.577,7.577,0,0,0,1-2C483.8,1297.105,484.23,1296.357,484.746,1296.5Z" transform="translate(-411.087 -1274.281)" fill="#fecfb3"/><path d="M488.7,1298.954h0c-1.517,1.287-3.4,2.551-4,3-1.115-.4-2.026-2.959-2-3,.8-.563,1.315-1.476,2-2,.8-.626,2.863-1.91,3-2,.4-.219,1.665-.863,2-1,.432-.178.715.656,1,1,.087.152-.026.425-1,1-1.2.7-1,1-1,1a1.1,1.1,0,0,1,0,1s1.237-.624,1,0A11.787,11.787,0,0,1,488.7,1298.954Z" transform="translate(-411.042 -1273.737)" fill="#fecfb3"/><path d="M450.365,1310.039c-.469-.092-.475.047-1,0a106.936,106.936,0,0,1-12-2c-4.357-.944-8.936-1.972-11-2-.322,0-.79-.271-1,0-.92,1.189-.489,8.565,0,10,1.465,4.287,20.924,3.152,26,2,4.9-1.041,17.119-10.663,22-15l-3-4c-1.92,1.775-8.9,5.428-14,8C454.026,1308.217,451.979,1309.153,450.365,1310.039Z" transform="translate(-398.706 -1274.822)" fill="url(#a)"/><path d="M451.207,1363.725c-15.6-1.516-42.3.292-48,3-6.154,2.924-12.186,19.228,0,19,13.873-.26,34-2.366,49-10C457.822,1372.866,457.844,1364.37,451.207,1363.725Z" transform="translate(-392.548 -1288.508)" fill="#01447a"/><path d="M454.362,1434.569c-.391-.7-1-2-1-2l-4,1s.046,1.051,0,2c-.053,1.1-2.055,2.826-1,4,.407.452,2.849-.075,4,0,.9.058,3.525-.072,5,0,1.592.077,3.958-.152,4-1C461.448,1436.773,455.113,1435.924,454.362,1434.569Z" transform="translate(-403.703 -1303.352)" fill="#801720"/><path d="M453.593,1432.527h-4s.03,2.051,0,3c0,0,3.372.361,4,0a2.373,2.373,0,0,0,1-1C454.039,1433.452,453.593,1432.527,453.593,1432.527Z" transform="translate(-403.934 -1303.31)" fill="#fecfb3"/><path d="M452.48,1374.484c-1.084,24.154-4,44-4,44,1.37,1.425,4.511,2.516,6,2,0,0,5.477-21.566,13-48C470.55,1361.7,452.689,1369.849,452.48,1374.484Z" transform="translate(-403.822 -1289.268)" fill="#01447a"/><path d="M425.07,1295.047c.032,1.749-.293,6.176-1,7,1.018,3.338,5.408,3.818,6,2-.566-2.108.945-5.649,1-6C429.776,1298.077,425.46,1295.417,425.07,1295.047Z" transform="translate(-398.411 -1273.83)" fill="#fecfb3"/><path d="M393.484,1485.587l3-1a4.27,4.27,0,0,1,1,1c.817,1.186,5.151,2.447,5,4-.077.785-2.649,2.077-4,2a7.746,7.746,0,0,1-3-1,9.946,9.946,0,0,1-3-2,2.931,2.931,0,0,1,0-2C392.427,1485.707,393.484,1485.587,393.484,1485.587Z" transform="translate(-391.825 -1314.37)" fill="#801720"/><path d="M396.547,1484.584s.389.058,1,1a20.663,20.663,0,0,1-2,1,11.071,11.071,0,0,1-3,0c-.058-.879,1-2,1-2Z" transform="translate(-391.888 -1314.367)" fill="#fecfb3"/><path d="M417.236,1361.213c.079,1.913-5.766,35.659-10,59a213.471,213.471,0,0,1-11,38c-.051.142-2.8,1.607-4,0,0,0,3.851-19.912,3-39-.735-16.477-2.813-40.861-4-42l4-16C401.793,1362.289,414.953,1361.958,417.236,1361.213Z" transform="translate(-391.577 -1287.996)" fill="#015293"/><path d="M426.164,1287.271c-2.192,1.28-2.268,3.83-1,6,.013.024,1,2,1,2,.956,1.637,4.75,3.135,6,2,2.957-2.685.521-9.369,0-10C430.706,1285.508,428.2,1286.079,426.164,1287.271Z" transform="translate(-398.505 -1272.054)" fill="#fecfb3"/><path d="M430.236,1349.026c-8.47,8.349-22.487,4.964-32,9l-1-6-2,11c-1.4,1.157-3.413,2.117-4,2,0-34.132,8.177-56.878,20-60,1.324-.348,6-1,6-1s2.185,2.631,4,3a2.068,2.068,0,0,0,2-1,36.127,36.127,0,0,1,4,2c2.955,2.263,2.487,6.476,2,10-.209,1.492-.282,7.858,0,18,.008.34-.013.652,0,1C429.344,1340.521,429.964,1344.559,430.236,1349.026Z" transform="translate(-391.577 -1275.809)" fill="#336989"/><path d="M426.6,1307.026c-1.817-.368-4-3-4-3s-2.347-.048-3,0a8.434,8.434,0,0,0-3,1c4.812,3.138,12,10,12,10a36.769,36.769,0,0,0,3-8,29.4,29.4,0,0,0-3-1A2.067,2.067,0,0,1,426.6,1307.026Z" transform="translate(-396.941 -1275.809)" fill="url(#b)"/><path d="M429.119,1283.406c-4.229-2.341-9.034-.8-10,3-1.443,5.681,3.854,7.891,6,11,0,0-2.215-5.633-2-8,7.317-1,9.284-3.506,10-6C433.119,1283.406,431.678,1284.822,429.119,1283.406Z" transform="translate(-397.46 -1271.189)" fill="#686868"/><path d="M424.031,1293.924a1.62,1.62,0,0,0,0,2c.385.484,1.416,1.249,2,1a30.4,30.4,0,0,0-1-3C424.609,1293.961,424.226,1293.768,424.031,1293.924Z" transform="translate(-398.372 -1273.707)" fill="#fecfb3"/><path d="M433.437,1338.166c-2.859-1.475-10.529-5.513-15-9a34.515,34.515,0,0,1-4-4c-4.338-4.635-3.515-11.865,2-15,1.065-.6,1.82-.721,2,0,1.706,6.772,11.647,22.035,15,27C433.445,1337.506,433.424,1337.818,433.437,1338.166Z" transform="translate(-395.778 -1276.949)" fill="#275069"/><path d="M449.637,1305.134c.212.679,1,1.294,1,2,.12-.8-.245-.187,0-1,0-.338-.677-2.109-1-2C449.124,1304.259,449.5,1304.769,449.637,1305.134Z" transform="translate(-403.978 -1275.917)" fill="#fecfb3"/><g transform="translate(35.716)"><g transform="translate(9.763 21.466)"><path d="M456.588,1310.239c.087.245.374.94,0,1s-.913-.754-1-1l-6-14,4-1Z" transform="translate(-449.409 -1295.488)" fill="#120d57"/></g><g transform="translate(0 10.4)"><path d="M441.937,1282.234l6-1,2,14-5,1c-3.423.612-7.247-2.059-8-6S438.514,1282.844,441.937,1282.234Z" transform="translate(-436.994 -1281.417)" fill="#f64c4a"/></g><g transform="translate(7.744 0.273)"><path d="M449.04,1278.483c.061-.012.939.006,1,0h0l18-10,6,27-22-3h0c-2.038.391-4.207-2.067-5-6S447,1278.874,449.04,1278.483Z" transform="translate(-446.842 -1268.539)" fill="#f64c4a"/></g><g transform="translate(25.557)"><path d="M473.878,1268.409c3.722-.709,8.458,4.4,10,12s-.279,14.287-4,15c-2.181.412-5.1-.949-7-4a22,22,0,0,1-2-5,27.947,27.947,0,0,1-1-3,24.794,24.794,0,0,1,0-3,27.149,27.149,0,0,1,0-7C470.531,1270.318,471.862,1268.789,473.878,1268.409Z" transform="translate(-469.492 -1268.192)" fill="#9c3135"/></g><g transform="translate(25.557 3.027)"><path d="M472.878,1272.231c2.969-.565,5.765,3.937,7,10s-.031,11.435-3,12c-1.287.243-2.759-.632-4-2a22,22,0,0,1-2-5,27.947,27.947,0,0,1-1-3,24.794,24.794,0,0,1,0-3,27.149,27.149,0,0,1,0-7A3.542,3.542,0,0,1,472.878,1272.231Z" transform="translate(-469.492 -1272.041)" fill="#fff"/></g><path d="M472.883,1282.313l-3-1a27.359,27.359,0,0,0,2,10l3-2Z" transform="translate(-443.941 -1271.097)" fill="#9c3135"/><g transform="translate(28.161 11.111)"><path d="M473.585,1282.427c.942-.18,2.608,1.075,3,3s-.058,3.82-1,4a3.66,3.66,0,0,1-2-1c-.285-.456.2-.39,0-1-.1-.305-.933-.666-1-1a8.487,8.487,0,0,1,0-1,6.988,6.988,0,0,1,0-2A1.751,1.751,0,0,1,473.585,1282.427Z" transform="translate(-472.804 -1282.32)" fill="#f64c4a"/></g><g transform="translate(6.148 10.4)"><path d="M453.51,1299.1Z" transform="translate(-446.715 -1285.288)" fill="#004143"/><path d="M447.606,1281.233c.062-.013-.061.006,0,0h2c-.061.006-.939-.012-1,0-2.038.391-2.793,4.067-2,8,.75,3.718,3.052,6.038,5,6l-1,1h0c-2.038.391-5.207-3.067-6-7S445.569,1281.624,447.606,1281.233Z" transform="translate(-444.812 -1281.416)" fill="#120d57"/></g></g><path d="M452.758,1298.979a15.583,15.583,0,0,0-1,2c-.063.145-.718,2.037-1,3a30.014,30.014,0,0,0-1,3c0,.047,3.148.8,4,1,.429-1.351.957-4.9,1-5,.72-1.611.477-2.156,0-2-.116.038.488-2.047,0-2a8.117,8.117,0,0,1-1,0C453.476,1298.95,452.914,1298.808,452.758,1298.979Z" transform="translate(-404.099 -1274.762)" fill="#fecfb3"/><path d="M441.357,1307.977c-.652,2.532-5.105,9.072-8,14-.626,1.066-.438,2.029-1,3-1.846-2.051-3.941-4.445-6-7a71.743,71.743,0,0,0-7-8,12.755,12.755,0,0,0-2-1c-2.213-.67-7.465,1.636-6,8,.928,4.03,12.444,13.67,18,17h0c1.417.893,4.3,2.662,5,2a4.6,4.6,0,0,0,1-2c3.559-3.629,9.26-17.744,11-24Z" transform="translate(-395.698 -1276.76)" fill="url(#c)"/><g transform="translate(17.885 135.24)"><g transform="translate(0 33.639)"><g transform="translate(28.537)"><path d="M494.844,1488.576c0,1.063-.218,1.254-1,2-.586.561-1.206,1.856-2,2a7.194,7.194,0,0,1-1,0h-40v-8h40A4.15,4.15,0,0,1,494.844,1488.576Z" transform="translate(-450.608 -1484.238)" fill="#6eacbb"/></g><g transform="translate(1.345 0.758)"><path d="M416.459,1491.781a2.828,2.828,0,0,0,3-3c0-1.6-1.4-3.763-3-4h29c1.76.093,3,2.294,3,4a2.827,2.827,0,0,1-3,3Z" transform="translate(-416.03 -1485.202)" fill="#f3f0fc" fill-rule="evenodd"/></g><g transform="translate(0 0.001)"><path d="M445.094,1490.576a3.35,3.35,0,0,0,2-1c.481-.461,0-.354,0-1,0-1.3-.631-2.927-2-3h-31v-1h31a4.151,4.151,0,0,1,4,4c0,1.063-.217,1.253-1,2s-1.911,2-3,2h-31v-2Z" transform="translate(-414.32 -1484.239)" fill="#bfe1ea"/></g><g transform="translate(20.434 0.758)"><path d="M442.643,1494.548l-1-1-1,1v-7h2Z" transform="translate(-440.303 -1487.969)" fill="#ffcb00" fill-rule="evenodd"/></g><path d="M465.151,1489.254l-2,1-2-1,2-2Z" transform="translate(-424.377 -1484.917)" fill="#bfe1ea"/></g><g transform="translate(2.515)"><g transform="translate(20.417)"><path d="M475.322,1444.439a5.526,5.526,0,0,1-1,3,2.833,2.833,0,0,1-2,1c-.031,0,.031,0,0,0h-29v-7h29A3.029,3.029,0,0,1,475.322,1444.439Z" transform="translate(-443.48 -1441.462)" fill="#015578"/></g><g transform="translate(0.963 0.643)"><path d="M419.038,1447.614c1.32,0,2-1.5,2-3,0-1.358-.853-1.8-2-2h21c1.259.079,2,.551,2,2,0,1.5-.68,3-2,3Z" transform="translate(-418.742 -1442.28)" fill="#f3f0fc" fill-rule="evenodd"/></g><path d="M439.777,1446.439c.5,0,.648.4,1,0a4.483,4.483,0,0,0,1-2,2.134,2.134,0,0,0-2-2h-22v-1h22a3.031,3.031,0,0,1,3,3,5.527,5.527,0,0,1-1,3,2.636,2.636,0,0,1-2,1h-22v-2Z" transform="translate(-417.518 -1441.462)" fill="#01648d"/><path d="M453.971,1445.015l-1,2-2-2,2-1Z" transform="translate(-424.713 -1442.038)" fill="#01648d"/></g><g transform="translate(9.319 26.926)"><path d="M429.625,1475.752a2.849,2.849,0,0,0-3,3,4.788,4.788,0,0,0,1,3,2.569,2.569,0,0,0,2,1h34v-7Z" transform="translate(-426.17 -1475.701)" fill="#01648d"/><g transform="translate(33.186 0.646)"><path d="M496.638,1481.927h-25a3.166,3.166,0,0,1-3-3c0-1.453.5-1.921,2-2h25c-.545.08-.6-.333-1,0a2.586,2.586,0,0,0-1,2,2.436,2.436,0,0,0,1,2c.491.385.315,1,1,1Z" transform="translate(-468.37 -1476.522)" fill="#e9e9e9" fill-rule="evenodd"/></g><g transform="translate(32.542)"><path d="M497.463,1482.752h-26c-.1,0-.9.009-1,0-.015,0,.014,0,0,0h0a3.282,3.282,0,0,1-2-1,4.788,4.788,0,0,1-1-3c0-1.622,1.374-2.69,3-3,.167-.033-.172.009,0,0h27v1h-27a2,2,0,0,0-2,2,3.908,3.908,0,0,0,1,2c.418.4,1.407,0,2,0h26Z" transform="translate(-467.55 -1475.701)" fill="#015578"/></g><g transform="translate(42.505 2.497)"><path d="M480.169,1485.43l1-1,1,1v-7h-2Z" transform="translate(-480.219 -1478.876)" fill-rule="evenodd" fill="url(#d)"/></g><path d="M461.06,1479.329l2,2,1-2-1-1Z" transform="translate(-433.605 -1476.278)" fill="#015578"/></g><g transform="translate(2.367 20.53)"><g transform="translate(23.354)"><path d="M480.079,1468.015a2.926,2.926,0,0,1,3,3,2.553,2.553,0,0,1-1,2,2.657,2.657,0,0,1-2,1h-33v-6Z" transform="translate(-447.027 -1467.568)" fill="#6eacbb"/></g><g transform="translate(1.101 0.621)"><path d="M419.035,1473.183c1.511,0,3-.555,3-2,0-1.309-1.688-2.806-3-3h24c1.441.076,2,1.6,2,3,0,1.446-.489,2-2,2Z" transform="translate(-418.73 -1468.357)" fill="#f3f0fc" fill-rule="evenodd"/></g><path d="M442.736,1473.015c.571,0,.6-.617,1-1s1-.472,1-1a2.057,2.057,0,0,0-2-2h-25v-1h25a2.926,2.926,0,0,1,3,3,2.551,2.551,0,0,1-1,2,2.658,2.658,0,0,1-2,1h-25v-1Z" transform="translate(-417.33 -1467.568)" fill="#bfe1ea"/><g transform="translate(16.722 2.401)"><path d="M440.278,1476.667l-1-1-1,1v-6h2Z" transform="translate(-438.594 -1470.621)" fill-rule="evenodd" fill="url(#e)"/></g><path d="M458.967,1471.57l-2,1-1-1,1-1Z" transform="translate(-425.56 -1468.123)" fill="#bfe1ea"/></g><g transform="translate(11.214 13.444)"><g transform="translate(22.493)"><path d="M492.248,1462.09a5.057,5.057,0,0,1-1,3,2.66,2.66,0,0,1-2,1c-.032,0,.034,0,0,0h-32v-8h32C490.991,1458.2,492.249,1460.187,492.248,1462.09Z" transform="translate(-457.182 -1458.557)" fill="#015578"/></g><g transform="translate(1.06 0.687)"><path d="M430.427,1465.277c1.456,0,2-1.4,2-3a2.812,2.812,0,0,0-2-3h23c1.386.083,2,1.453,2,3,0,1.6-.544,3-2,3Z" transform="translate(-429.928 -1459.43)" fill="#f3f0fc" fill-rule="evenodd"/></g><path d="M453.139,1464.09c.549,0,.613.425,1,0a4.094,4.094,0,0,0,1-2,2.013,2.013,0,0,0-2-2h-25v-2h25c1.743.1,3,2.1,3,4a5.057,5.057,0,0,1-1,3,2.475,2.475,0,0,1-2,1h-25v-2Z" transform="translate(-428.58 -1458.557)" fill="#01648d"/><g transform="translate(16.105 2.659)"><path d="M451.513,1468.813l-1-1-1,1v-7h2Z" transform="translate(-449.059 -1461.938)" fill="#ffcb00" fill-rule="evenodd"/></g></g><g transform="translate(1.608 6.751)"><path d="M419.53,1450.273a2.849,2.849,0,0,0-3,3,4.785,4.785,0,0,0,1,3,2.57,2.57,0,0,0,2,1l35-1v-6Z" transform="translate(-416.365 -1450.047)" fill="#bfe1ea"/><g transform="translate(33.186 0.645)"><path d="M486.543,1456.448h-25a3.168,3.168,0,0,1-3-3,3.333,3.333,0,0,1,3-3h24c-.545.081-.6.667-1,1a2.587,2.587,0,0,0-1,2,2.44,2.44,0,0,0,1,2,3.942,3.942,0,0,0,2,1Z" transform="translate(-458.564 -1450.867)" fill="#e9e9e9" fill-rule="evenodd"/></g><g transform="translate(32.542 0.001)"><path d="M487.369,1456.273h0l-14,1h-12c-.1,0,.1-.99,0-1s-.913.013-1,0c-.714-.11-1.477.5-2,0a4.791,4.791,0,0,1-1-3c0-1.786,2.119-2.9,4-3h26v1h-26a2,2,0,0,0-2,2c0,.55-.409,1.608,0,2s1.406,0,2,0h26Z" transform="translate(-457.746 -1450.048)" fill="#6eacbb"/></g><g transform="translate(42.505 2.497)"><path d="M470.075,1459.951l1-1,2,1v-7h-3Z" transform="translate(-470.414 -1453.223)" fill="#ffcb00" fill-rule="evenodd"/></g><path d="M450.966,1453.85l2,1,1-1-1-1Z" transform="translate(-423.8 -1450.625)" fill="#6eacbb"/></g><g transform="translate(17.133 2.491)"><path d="M437.747,1451.116l-1-1-1,1v-6h2Z" transform="translate(-436.107 -1444.63)" fill-rule="evenodd" fill="url(#f)"/></g></g></g></svg>