<svg xmlns="http://www.w3.org/2000/svg" width="449" height="276" viewBox="0 0 449 276"><g transform="translate(21 -91)"><g transform="translate(-69.084 -20.75)"><path d="M113.084,121.75c-.513,0-.527.866-1,1a9.267,9.267,0,0,0,0-1,6.1,6.1,0,0,0-6-6c-1.495,0-2.966.077-4,1a8.67,8.67,0,0,0-8-5c-4.726,0-8,4.273-8,9,0,.295-.029.713,0,1a7.4,7.4,0,0,0-3-1,6,6,0,0,0,0,12h31c2.744-.268,5-2.186,5-5A6.461,6.461,0,0,0,113.084,121.75Z" fill="#dbf6f4"/></g><g transform="translate(-221.292 -49)" opacity="0.51"><path d="M635.292,165c-1.308,0-1.8.659-3,1a14.5,14.5,0,0,0,0-2,15.077,15.077,0,0,0-15-15,15.3,15.3,0,0,0-10,4,21.811,21.811,0,0,0-20-13,22.175,22.175,0,0,0-22,22,18.022,18.022,0,0,0,0,2,15.506,15.506,0,0,0-7-2c-8.549,0-15,7.453-15,16a14.674,14.674,0,0,0,15,15h79c6.974-.683,12-6.847,12-14A14.157,14.157,0,0,0,635.292,165Z" fill="#dbf6f4"/></g><g transform="translate(-460.122 -34)"><path d="M512.122,380a11.239,11.239,0,0,0-3,0,18.8,18.8,0,0,0,0-2c0-6.471-4.53-11-11-11a12.245,12.245,0,0,0-8,3c-2.643-6.041-8.985-11-16-11a16.919,16.919,0,0,0-17,17c0,.59-.057,1.427,0,2a9.816,9.816,0,0,0-5-1c-6.725,0-13,5.275-13,12s6.275,12,13,12h61a11.245,11.245,0,0,0,10-11C523.122,384.011,518.112,380,512.122,380Z" fill="#dbf6f4"/></g></g></svg>