<svg xmlns="http://www.w3.org/2000/svg" width="343.68" height="293.032" viewBox="0 0 343.68 293.032"><g transform="translate(1177.988 -1580.119)"><g transform="translate(-1689.731 0.103)"><circle cx="146.516" cy="146.516" r="146.516" transform="translate(534.443 1580.016)" fill="#fc0"/></g><g transform="translate(-1689.731 0.103)" opacity="0.3"><path d="M555.747,1685.095l27.054,16.5-3.482-26.627Z" fill="#fff"/><path d="M564.835,1677.31a11.827,11.827,0,0,1,5.256,15.332,10.683,10.683,0,0,1-14.511,5.555,11.834,11.834,0,0,1-5.259-15.334A10.686,10.686,0,0,1,564.835,1677.31Zm-.222.5A10.171,10.171,0,0,0,550.8,1683.1a11.263,11.263,0,0,0,5,14.595,10.171,10.171,0,0,0,13.816-5.286A11.264,11.264,0,0,0,564.613,1677.812Z" fill="#fff"/><path d="M754.973,1624.378a10.624,10.624,0,0,1,14.834,4.505,11.894,11.894,0,0,1-4.263,15.674,10.627,10.627,0,0,1-14.836-4.5A11.9,11.9,0,0,1,754.973,1624.378Zm.255.485a11.323,11.323,0,0,0-4.061,14.92,10.117,10.117,0,0,0,14.121,4.289,11.325,11.325,0,0,0,4.06-14.921A10.117,10.117,0,0,0,755.228,1624.863Z" fill="#231f20"/><path d="M855.135,1723.534a3.313,3.313,0,0,1-1.473,4.294,2.991,2.991,0,0,1-4.065-1.555,3.315,3.315,0,0,1,1.473-4.294A2.992,2.992,0,0,1,855.135,1723.534Z" fill="#231f20"/><path d="M822.93,1795.707a3.883,3.883,0,0,1,3.492-.907,2.8,2.8,0,0,0,2.545-.557c.679-.67.649-1.361.547-2.428a3.6,3.6,0,0,1,4.434-4.426,2.788,2.788,0,0,0,2.54-.554c.678-.67.647-1.357.549-2.431a3.591,3.591,0,0,1,4.428-4.421,2.787,2.787,0,0,0,2.542-.557c.679-.67.651-1.361.547-2.427a3.588,3.588,0,0,1,4.426-4.42,2.794,2.794,0,0,0,2.543-.558l.844.956a3.885,3.885,0,0,1-3.495.9,2.774,2.774,0,0,0-2.539.557c-.679.667-.651,1.352-.547,2.425a3.593,3.593,0,0,1-4.429,4.421,2.785,2.785,0,0,0-2.54.559c-.681.672-.652,1.354-.551,2.429a3.59,3.59,0,0,1-4.429,4.42,2.784,2.784,0,0,0-2.54.558c-.681.675-.653,1.364-.55,2.433a3.593,3.593,0,0,1-4.433,4.419,2.78,2.78,0,0,0-2.54.559Z" fill="#231f20"/><path d="M736.407,1601.727l-7.583-8.016,7.583-8.011,7.584,8.011Zm-6.249-8.016,6.249,6.6,6.249-6.6-6.249-6.6Z" fill="#231f20"/><path d="M682.26,1783.249l5.433-5.737-5.433-5.74-5.43,5.74Z" fill="#fff"/><path d="M544.9,1745.487a1.864,1.864,0,1,0,1.863-1.965A1.917,1.917,0,0,0,544.9,1745.487Z" fill="#231f20"/><path d="M533.849,1745.487a1.864,1.864,0,1,0,1.859-1.965A1.916,1.916,0,0,0,533.849,1745.487Z" fill="#231f20"/><path d="M522.8,1745.487a1.864,1.864,0,1,0,1.859-1.965A1.915,1.915,0,0,0,522.8,1745.487Z" fill="#231f20"/><path d="M511.743,1745.487a1.863,1.863,0,1,0,1.861-1.965A1.915,1.915,0,0,0,511.743,1745.487Z" fill="#231f20"/><path d="M544.9,1755.218a1.864,1.864,0,1,0,1.863-1.965A1.915,1.915,0,0,0,544.9,1755.218Z" fill="#231f20"/><path d="M533.849,1755.218a1.864,1.864,0,1,0,1.859-1.965A1.914,1.914,0,0,0,533.849,1755.218Z" fill="#231f20"/><path d="M522.8,1755.218a1.864,1.864,0,1,0,1.859-1.965A1.913,1.913,0,0,0,522.8,1755.218Z" fill="#231f20"/><path d="M511.743,1755.218a1.863,1.863,0,1,0,1.861-1.965A1.913,1.913,0,0,0,511.743,1755.218Z" fill="#231f20"/><path d="M544.9,1764.952a1.864,1.864,0,1,0,1.863-1.965A1.916,1.916,0,0,0,544.9,1764.952Z" fill="#231f20"/><path d="M533.849,1764.952a1.864,1.864,0,1,0,1.859-1.965A1.916,1.916,0,0,0,533.849,1764.952Z" fill="#231f20"/><path d="M522.8,1764.952a1.864,1.864,0,1,0,1.859-1.965A1.914,1.914,0,0,0,522.8,1764.952Z" fill="#231f20"/><path d="M511.743,1764.952a1.863,1.863,0,1,0,1.861-1.965A1.915,1.915,0,0,0,511.743,1764.952Z" fill="#231f20"/><path d="M544.9,1774.682a1.864,1.864,0,1,0,1.863-1.967A1.915,1.915,0,0,0,544.9,1774.682Z" fill="#231f20"/><path d="M533.849,1774.682a1.864,1.864,0,1,0,1.859-1.967A1.915,1.915,0,0,0,533.849,1774.682Z" fill="#231f20"/><path d="M522.8,1774.682a1.864,1.864,0,1,0,1.859-1.967A1.913,1.913,0,0,0,522.8,1774.682Z" fill="#231f20"/><path d="M511.743,1774.682a1.863,1.863,0,1,0,1.861-1.967A1.914,1.914,0,0,0,511.743,1774.682Z" fill="#231f20"/><path d="M661.993,1634.316a1.085,1.085,0,1,0,1.082-1.142A1.114,1.114,0,0,0,661.993,1634.316Z" fill="#231f20"/><path d="M655.565,1634.316a1.084,1.084,0,1,0,1.081-1.142A1.115,1.115,0,0,0,655.565,1634.316Z" fill="#231f20"/><path d="M649.134,1634.316a1.084,1.084,0,1,0,1.082-1.142A1.116,1.116,0,0,0,649.134,1634.316Z" fill="#231f20"/><path d="M642.7,1634.316a1.084,1.084,0,1,0,1.085-1.142A1.115,1.115,0,0,0,642.7,1634.316Z" fill="#231f20"/><path d="M661.993,1639.977a1.085,1.085,0,1,0,1.082-1.144A1.112,1.112,0,0,0,661.993,1639.977Z" fill="#231f20"/><path d="M655.565,1639.977a1.084,1.084,0,1,0,1.081-1.144A1.113,1.113,0,0,0,655.565,1639.977Z" fill="#231f20"/><path d="M649.134,1639.977a1.084,1.084,0,1,0,1.082-1.144A1.114,1.114,0,0,0,649.134,1639.977Z" fill="#231f20"/><path d="M642.7,1639.977a1.084,1.084,0,1,0,1.085-1.144A1.114,1.114,0,0,0,642.7,1639.977Z" fill="#231f20"/><path d="M661.993,1645.64a1.085,1.085,0,1,0,1.082-1.142A1.117,1.117,0,0,0,661.993,1645.64Z" fill="#231f20"/><path d="M655.565,1645.64a1.084,1.084,0,1,0,1.081-1.142A1.117,1.117,0,0,0,655.565,1645.64Z" fill="#231f20"/><path d="M649.134,1645.64a1.084,1.084,0,1,0,1.082-1.142A1.118,1.118,0,0,0,649.134,1645.64Z" fill="#231f20"/><path d="M642.7,1645.64a1.084,1.084,0,1,0,1.085-1.142A1.118,1.118,0,0,0,642.7,1645.64Z" fill="#231f20"/><path d="M661.993,1651.3a1.085,1.085,0,1,0,1.082-1.145A1.112,1.112,0,0,0,661.993,1651.3Z" fill="#231f20"/><path d="M655.565,1651.3a1.084,1.084,0,1,0,1.081-1.145A1.112,1.112,0,0,0,655.565,1651.3Z" fill="#231f20"/><path d="M649.134,1651.3a1.084,1.084,0,1,0,1.082-1.145A1.113,1.113,0,0,0,649.134,1651.3Z" fill="#231f20"/><path d="M642.7,1651.3a1.084,1.084,0,1,0,1.085-1.145A1.113,1.113,0,0,0,642.7,1651.3Z" fill="#231f20"/><path d="M694.947,1817.516a1.607,1.607,0,1,0-1.583,1.716A1.646,1.646,0,0,0,694.947,1817.516Z" fill="#fff"/><path d="M701.3,1817.428a1.607,1.607,0,1,0-1.584,1.719A1.646,1.646,0,0,0,701.3,1817.428Z" fill="#fff"/><path d="M707.654,1817.343a1.607,1.607,0,1,0-1.585,1.716A1.649,1.649,0,0,0,707.654,1817.343Z" fill="#fff"/><path d="M713.211,1817.269a1.607,1.607,0,1,0-1.582,1.716A1.646,1.646,0,0,0,713.211,1817.269Z" fill="#fff"/><path d="M719.762,1817.183a1.606,1.606,0,1,0-1.582,1.716A1.645,1.645,0,0,0,719.762,1817.183Z" fill="#fff"/><path d="M726.116,1817.1a1.608,1.608,0,1,0-1.586,1.716A1.648,1.648,0,0,0,726.116,1817.1Z" fill="#fff"/><path d="M732.468,1817.01a1.607,1.607,0,1,0-1.585,1.72A1.649,1.649,0,0,0,732.468,1817.01Z" fill="#fff"/><path d="M739.615,1816.918a1.607,1.607,0,1,0-1.583,1.716A1.649,1.649,0,0,0,739.615,1816.918Z" fill="#fff"/><path d="M701.386,1824.561a1.607,1.607,0,1,0-1.584,1.716A1.648,1.648,0,0,0,701.386,1824.561Z" fill="#fff"/><path d="M707.739,1824.476a1.608,1.608,0,1,0-1.584,1.716A1.652,1.652,0,0,0,707.739,1824.476Z" fill="#fff"/><path d="M713.3,1824.4a1.607,1.607,0,1,0-1.584,1.715A1.649,1.649,0,0,0,713.3,1824.4Z" fill="#fff"/><path d="M719.849,1824.312a1.607,1.607,0,1,0-1.585,1.718A1.654,1.654,0,0,0,719.849,1824.312Z" fill="#fff"/><path d="M726.2,1824.231a1.607,1.607,0,1,0-1.585,1.715A1.647,1.647,0,0,0,726.2,1824.231Z" fill="#fff"/><path d="M732.555,1824.143a1.608,1.608,0,1,0-1.587,1.718A1.65,1.65,0,0,0,732.555,1824.143Z" fill="#fff"/><path d="M707.822,1831.313a1.607,1.607,0,1,0-1.585,1.715A1.646,1.646,0,0,0,707.822,1831.313Z" fill="#fff"/><path d="M713.377,1831.24a1.606,1.606,0,1,0-1.582,1.713A1.647,1.647,0,0,0,713.377,1831.24Z" fill="#fff"/><path d="M719.929,1831.151a1.607,1.607,0,1,0-1.582,1.716A1.648,1.648,0,0,0,719.929,1831.151Z" fill="#fff"/><path d="M726.284,1831.066a1.608,1.608,0,1,0-1.585,1.717A1.649,1.649,0,0,0,726.284,1831.066Z" fill="#fff"/><path d="M713.45,1837.178a1.607,1.607,0,1,0-1.582,1.718A1.648,1.648,0,0,0,713.45,1837.178Z" fill="#fff"/><path d="M720,1837.092a1.606,1.606,0,1,0-1.581,1.718A1.646,1.646,0,0,0,720,1837.092Z" fill="#fff"/><path d="M716.728,1842.993a1.607,1.607,0,1,0-1.583,1.716A1.644,1.644,0,0,0,716.728,1842.993Z" fill="#fff"/><path d="M598.925,1641.454a3.8,3.8,0,0,0-3.533-.23,2.711,2.711,0,0,1-2.551-.071c-.744-.54-.854-1.195-.934-2.249a3.73,3.73,0,0,0-1.489-3.233,3.8,3.8,0,0,0-3.533-.23,2.707,2.707,0,0,1-2.549-.069c-.744-.544-.856-1.2-.932-2.25a3.7,3.7,0,0,0-1.49-3.23,3.78,3.78,0,0,0-3.529-.23,2.722,2.722,0,0,1-2.551-.069c-.767-.547-.855-1.2-.931-2.25a3.465,3.465,0,0,0-5.017-3.459,2.715,2.715,0,0,1-2.55-.071l-.658,1.083a3.783,3.783,0,0,0,3.531.229,2.716,2.716,0,0,1,2.549.068c.766.547.854,1.2.931,2.25a3.686,3.686,0,0,0,1.487,3.231,3.792,3.792,0,0,0,3.53.228,2.728,2.728,0,0,1,2.551.07c.775.546.855,1.2.932,2.25a3.465,3.465,0,0,0,5.018,3.459,2.721,2.721,0,0,1,2.552.072c.756.535.857,1.2.936,2.251a3.692,3.692,0,0,0,1.486,3.231,3.8,3.8,0,0,0,3.533.231,2.716,2.716,0,0,1,2.553.072Z" fill="#fff"/><path d="M633.794,1818.9a7.216,7.216,0,1,1-7.206-7.612A7.424,7.424,0,0,1,633.794,1818.9Zm-13.787,0a6.592,6.592,0,1,0,6.581-6.954A6.782,6.782,0,0,0,620.007,1818.9Z" fill="#231f20"/><path d="M631.716,1818.9a5.135,5.135,0,1,1-5.128-5.417A5.284,5.284,0,0,1,631.716,1818.9Zm-9.629,0a4.509,4.509,0,1,0,4.5-4.758A4.641,4.641,0,0,0,622.087,1818.9Z" fill="#231f20"/><path d="M838.681,1660.649l-.69.73-13.675-14.448,13.129-13.87.691.728L825.7,1646.93Z" fill="#231f20"/></g></g></svg>