<svg xmlns="http://www.w3.org/2000/svg" width="52.1" height="42.226" viewBox="0 0 52.1 42.226"><g transform="translate(-58.601 -1701.609)"><path d="M110.7,1705.8a4.191,4.191,0,0,0-7.157-2.963L83.66,1722.721l19.885,19.885a4.192,4.192,0,0,0,5.93-5.927l-13.957-13.958,13.957-13.955A4.186,4.186,0,0,0,110.7,1705.8Z" fill="#061c43"/><path d="M85.642,1705.8a4.191,4.191,0,0,0-7.157-2.963L58.6,1722.721l19.885,19.885a4.192,4.192,0,0,0,5.93-5.928l-13.959-13.956,13.959-13.957A4.188,4.188,0,0,0,85.642,1705.8Z" fill="#061c43"/></g></svg>