<svg xmlns="http://www.w3.org/2000/svg" xmlns:xlink="http://www.w3.org/1999/xlink" width="185" height="165" viewBox="0 0 185 165"><defs><clipPath id="a"><rect width="185" height="165" transform="translate(108 2337)" fill="#fff"/></clipPath></defs><g transform="translate(-108 -2337)" clip-path="url(#a)"><g transform="translate(112.339 2339.692)"><path d="M1147.369,2185.318c.162-9.223.724-17.262,2-23a308.367,308.367,0,0,1,9-30c1.216-3.467,1.961-5.893,2-6h0c3.428,23.137,3.772,33.578,5,41,.554,3.351,3.94,7.212,6,10,1.3-.756,3.642-1.321,5-2,1.239-.62,6.761-3.761,8-5-.67-1.27-3.96-4.642-4-6-.387-13.308.249-33.788,1-40,.2-1.656-.111-3.61,0-5a79.847,79.847,0,0,0,0-12c-.1-1.907-.029-3.123,0-5,.021-1.392-4.848.652-5-1-1.114-12.084-31-8-31-8-1.841,13.2-11.023,61.986-12,67-.7,3.583-.335,14.658,0,27C1138.215,2186.582,1142.7,2186.629,1147.369,2185.318Z" transform="translate(-1041.708 -1992.011)" fill="#3b3b4d"/><path d="M1182.391,2137.609h0c-.066-.04.007.007,0,0Z" transform="translate(-1060.73 -2009.302)" fill="#1f1f3b" opacity="0.46"/><path d="M1174.483,2145.016h0c-.039.107-3.784,10.532-5,14l4-20S1173,2139.825,1174.483,2145.016Z" transform="translate(-1055.822 -2009.709)" fill="#1f1f3b" opacity="0.54"/><path d="M1200.777,2124.338c-.3-.065-15.107-6.172-17-13,0,0,13.105.594,17,1C1200.947,2115.454,1200.9,2122.574,1200.777,2124.338Z" transform="translate(-1061.116 -1999.03)" fill="#1f1f3b" opacity="0.35"/><path d="M1200.2,2125.886h0c-.072,0,.009,0,0,0Z" transform="translate(-1067.538 -2004.579)" fill="#1f1f39" opacity="0.46"/><path d="M1080.1,1973.521c1.915-8.835-2.775-5.586-3-11-.037-.887,5.32-5.719,8-3s3.414,8.367,3,11-4.133,3.315-5,3A9.163,9.163,0,0,0,1080.1,1973.521Z" transform="translate(-1020.434 -1941.213)" fill="#efaea6"/><path d="M1179,2132.239h0a6.062,6.062,0,0,1,0-1C1179.011,2131.241,1179,2132.239,1179,2132.239Z" transform="translate(-1059.334 -2006.932)" fill="#1f1f39" opacity="0.46"/><path d="M1164.584,2006.654l-7,2s-7.26.469-6-1c1.686-1.962,1.327-3.678,2-5a9.148,9.148,0,0,0,1-3c.314-2.175,1-5,1-5h0v-2l2-4s4.774,1.932,5,5C1162.792,1996.452,1164.959,2003.592,1164.584,2006.654Z" transform="translate(-1048.923 -1952.346)" fill="#efaea6"/><path d="M1156.6,2002.26c.314-2.175,1-5,1-5h0v-2h1a37.908,37.908,0,0,1,3,3C1162.435,1999.414,1159.92,2003.193,1156.6,2002.26Z" transform="translate(-1050.938 -1954.953)" fill="#1f1f39" opacity="0.14"/><path d="M1161.664,2005.2c-2.93-.693-3.089,4.642-6,5-1.537.189-1.242-.3-2-1a1.323,1.323,0,0,0-2,0c-13.791,15.853,3.725,53.239,2,56-1.411,2.259,10.417,6.241,18,4,10.4-3.074,9.4-14.763,9-17s-9-40-9-40A72.264,72.264,0,0,1,1161.664,2005.2Z" transform="translate(-1047.003 -1958.894)" fill="#fff"/><path d="M1082.278,1979.9c.057,1.062-1.216,31.011,10,34,4.96,1.322,22.128,3.886,25,6,2.185,1.61,5.3,7.134,5,10-.244,2.3-.888,4.352-1,6-.288,4.231-3.265,21.8,2,27,3.347,3.3,6.159,2.888,8,1,3.16-3.241-.7-17.169,0-31,.538-10.694-4.743-16.15-4-25,.563-6.7,0-9,0-9-15.956,7.085-26.354,5.133-30,4-4.684-1.456-2.261-21.757-4-23C1092.593,1979.408,1082.141,1977.354,1082.278,1979.9Z" transform="translate(-1022.617 -1948.589)" fill="#0267a4"/><path d="M1082.278,1979.9c.057,1.062-1.216,31.011,10,34,4.96,1.322,22.128,3.886,25,6,2.185,1.61,5.3,7.134,5,10-.244,2.3-.888,4.352-1,6-.288,4.231-3.265,21.8,2,27,3.347,3.3,6.159,2.888,8,1,3.16-3.241-.7-17.169,0-31,.538-10.694-4.743-16.15-4-25,.563-6.7,0-9,0-9-15.956,7.085-26.354,5.133-30,4-4.684-1.456-2.261-21.757-4-23C1092.593,1979.408,1082.141,1977.354,1082.278,1979.9Z" transform="translate(-1022.617 -1948.589)" fill="#1f1f39" opacity="0.14"/><path d="M1198.843,2076.242c-1.193,5.5-14.777.229-19-4-3.5-3.506-.173-7.6-3-16-1.43-4.243-4.094-12.308-5-18-.088-.56.064-.475,0-1-.525-4.406-.806-9.52-1-14-.089-2.037.041-4.145,0-6-.027-1.189.013-1.926,0-3-.042-3.975-.048-7.649,0-9a20.846,20.846,0,0,1,14,6c.712.706.408,2.678,1,4,.494,1.1,3.506,5.512,4,11,.6,6.625.77,12,1,16,.253,4.4,2.53,7.949,3,15C1194.266,2063.574,1199.465,2073.376,1198.843,2076.242Z" transform="translate(-1056.182 -1958.934)" fill="#0267a4"/><path d="M1180.006,2027.594c.1,1.747-6.374,20.528-7,24-.089-.561-.936-5.475-1-6-.525-4.406-.806-9.52-1-14Z" transform="translate(-1056.345 -1967.286)" fill="#1f1f39" opacity="0.18"/><path d="M1152.862,1979.022c-1.19,2.417-6.688,5.327-5,6s-1.771,5.219,0,6c4.291,1.893,9.611,1.875,11,0s4-8,4-8Z" transform="translate(-1047.201 -1948.715)" fill="#efaea6"/><path d="M1157.74,1979.869c-1.434-.39-1.223-.148-2-1s.675-1.982-1-3-3.62-1.872-3-4c.9-3.08,3.511-1,5,0,.958.642,1.949-1.939,4-1,1.609.736,1.593,2.279,3,3,.849.435,3.042-.616,4,1,1.776,3-1.3,4.042,0,7,1.51,3.45-6.584,6.9-7,6-.485-1.051,1.55-3.088,1-4-.83-1.376-.64-.537-2,0-1.453.574-4.016-.574-2-2S1159.038,1980.223,1157.74,1979.869Z" transform="translate(-1049.078 -1945.561)" fill="#1f1f39"/><path d="M1116,1994.433c.1-.008,0,0,0,0h0c-.009,0,.013-.01,0,0-.058.05.073-.084,0,0-.147.169.146.8,0,1-.292.411-.716.562-1,1-.568.878-1.415,1.117-2,2-1.17,1.768-2.648,4.348-4,6a32.5,32.5,0,0,1-4,4,30.835,30.835,0,0,1-5,4,27.783,27.783,0,0,1-6,3,29.926,29.926,0,0,1-7,1,25.859,25.859,0,0,1-6-1c-.529-.105-1.477.13-2,0v-1h0c-.065-.017-.934.02-1,0h0c-.133-.043.129.053,0,0a13.742,13.742,0,0,1-3-1,24.684,24.684,0,0,1-3-2c-.814-.727-1.29-2.184-2-3s-1.366-1.132-2-2-1.43-2.094-2-3-1.486-2.065-2-3-.533-1.043-1-2-1.569-2.028-2-3c-.22-.484.211-1.512,0-2s-.8-.507-1-1c-1.6-3.933-2.793-7.941-4-12-.6-2.03-1.477-3.948-2-6-.261-1.026.239-1.967,0-3-.12-.516-.887-1.481-1-2s.106-1.466,0-2,.472-.9,1-1,.9.472,1,1h0c.1.5-.108,1.492,0,2s-.115.49,0,1c.23,1.02.748,1.984,1,3,.5,2.031,1.415,3.991,2,6,1.168,4.017,2.449,8.125,4,12,.191.486-.2,1.518,0,2s.788.524,1,1c.417.955.547,2.064,1,3s1.508,2.086,2,3,.46,1.118,1,2,1.4,2.162,2,3,1.331,1.226,2,2a20.648,20.648,0,0,0,2,2,16.674,16.674,0,0,0,2,2,19.926,19.926,0,0,0,3,2c.114.048-.117-.039,0,0h1c.059.018-.062-.017,0,0h1c.5.126.5-.1,1,0a27.454,27.454,0,0,0,6,1,23.6,23.6,0,0,0,6-1,26.2,26.2,0,0,0,6-2,32.379,32.379,0,0,0,5-4,33.613,33.613,0,0,0,4-4c1.324-1.6,2.837-3.265,4-5,.583-.868,1.42-2.115,2-3,.291-.442-.32-.555,0-1,.162-.222.8-.772,1-1,.1-.113-.143.121,0,0,.038-.031-.047.032,0,0h1c.113-.06-.235-.985,0-1,.372-.018.982.628,1,1S1116.371,1994.415,1116,1994.433Z" transform="translate(-1011.338 -1944.126)" fill="#252530"/><path d="M1074.342,1960.729a4.748,4.748,0,0,1-1,2,1.785,1.785,0,0,1-2,1c-2.408-.179-2.8-1.043-6-1s-8.956,3.283-11,3c-1.86-.258-48.539,2.488-57,0-.291-.085-.8-.9-1-1-.376-.187.005.236,0,0a9.576,9.576,0,0,1,0-1c.283-5.838,2.037-25.021,4-31,.391-1.192.624-2.051,1-2a5.442,5.442,0,0,1,2,0c8.932,2.91,44.559,18.344,51,20,6.819,1.754,9.056,6.6,11,7,2.75.569,2.949-.623,7,0C1074.525,1958.064,1074.431,1959.872,1074.342,1960.729Z" transform="translate(-989.681 -1930.422)" fill="#454554"/><path d="M1074.151,1974.734a1.785,1.785,0,0,1-2,1c-2.408-.179-2.8-1.043-6-1s-8.956,3.282-11,3c-1.86-.258-48.539,2.488-57,0h0c.458-.643.548-1.367,1-2,2.666-3.729,5.231-7.532,7-10,1.551-2.163,3-4,3-4a4.8,4.8,0,0,0,2,2c9.5,4.843,46.317,9.25,53,9C1069.883,1972.519,1072.876,1973.962,1074.151,1974.734Z" transform="translate(-990.49 -1942.426)" fill="#1f1f39" opacity="0.18"/><path d="M1006.5,1950.594c-1.009,6.9-4.758,12.048-9,14a8.758,8.758,0,0,1-5,1c-5.077-.877-7.386-9.513-6-19s5.893-16.683,11-16c.732.1,1.31-.344,2,0h0c1.107.55,2.064,1.925,3,3C1005.781,1937.36,1007.45,1944.114,1006.5,1950.594Z" transform="translate(-985.842 -1930.287)" fill="#1f1f39"/><path d="M1004.6,1948.844c-.04.565-.918.439-1,1-.043.3.054.7,0,1-.335,1.862-.338,4.32-1,6-.094.237-.9-.23-1,0a23.773,23.773,0,0,1-2,4c-1.723,2.486-3.039,4.287-5,4a3.727,3.727,0,0,1-2-1,5.162,5.162,0,0,1-1-1,12.743,12.743,0,0,1-2-3c-.038-.115.035-.881,0-1a26.206,26.206,0,0,1-1-11c1.124-7.7,5.864-14.6,10-14C1002.438,1934.4,1005.117,1941.663,1004.6,1948.844Z" transform="translate(-986.942 -1931.537)" fill="#fff"/><path d="M1108.558,1964.1a5.591,5.591,0,0,1-1,2c-.236.2-.659.02-1,0-2.41-.144-2.8-1.043-6-1-3.167.042-9.887,4.185-12,4-.023,0,.022,0,0,0-1.86-.257-48.539,2.488-57,0-.289-.086.2.1,0,0h0c-.376-.187-1-.764-1-1,0-.095,0,.124,0,0s0-.86,0-1c.006-.177-.01.212,0,0,.283-5.839,2.037-25.021,4-31,.391-1.193,1.624-2.051,2-2,.31.042.148.724,1,1h0c8.932,2.91,45.559,17.344,52,19,6.819,1.754,9.057,7.592,11,8,2.575.541,1.949-.624,6,0C1108.74,1962.431,1108.782,1963.239,1108.558,1964.1Z" transform="translate(-1002.897 -1931.789)" fill="#454554"/><path d="M1108.366,1978.1c-.236.2-.659.02-1,0-2.411-.144-2.8-1.043-6-1-3.167.042-9.887,4.185-12,4-.023,0,.022,0,0,0-1.86-.257-48.539,2.488-57,0,.037-.049.965.05,1,0,.21-.294-.21-.708,0-1,.247-.346.755-.657,1-1h0c.206-.29.8-.713,1-1,1.011-1.414,1.08-2.715,2-4h0c1.3-1.807,3.047-3.67,4-5h0a33.07,33.07,0,0,0,2-3c.292.554.928.452,2,1,9.5,4.842,47.317,9.25,54,9A17.766,17.766,0,0,1,1108.366,1978.1Z" transform="translate(-1003.705 -1943.794)" fill="#1f1f39" opacity="0.18"/><path d="M1041.719,1953.962c-1.009,6.9-4.758,12.048-9,14a8.754,8.754,0,0,1-5,1c-5.076-.877-8.386-9.513-7-19s5.893-16.682,11-16a6.989,6.989,0,0,1,2,1h0a8.258,8.258,0,0,1,3,2A22.555,22.555,0,0,1,1041.719,1953.962Z" transform="translate(-999.058 -1931.654)" fill="#1f1f39"/><path d="M1038.82,1954.211a26.152,26.152,0,0,1-1,4c-.174.569-.795.456-1,1-.173.459.193,1.562,0,2-.18.413-.8.61-1,1-.986,1.944-1.758,3.918-3,5-.017.015.018-.014,0,0h0a5.337,5.337,0,0,1-4,1c-.286-.042-.734.113-1,0-.285-.119.261-.805,0-1a6.382,6.382,0,0,1-2-2c-.037-.066.035.068,0,0a17.737,17.737,0,0,1-2-5,30.233,30.233,0,0,1,0-9c1.124-7.7,4.864-14.6,9-14S1039.944,1946.515,1038.82,1954.211Z" transform="translate(-1000.159 -1932.904)" fill="#fff"/><path d="M1051.616,1954.668c2.787-.6,3.716-2.148,4-6,.59,3.6,1.114,4.765,4,5-2.431,1.188-3.815,1.784-4,6C1054.738,1955.464,1054.121,1955.427,1051.616,1954.668Z" transform="translate(-1010.955 -1937.361)" fill="#fff"/><path d="M1007.87,1988.341c3.651-.45,4.323-1.991,5-6,.473,3.8,1.288,5.566,5,6-3.238,1.084-4.423.6-5,5C1012.073,1988.89,1011.047,1989.3,1007.87,1988.341Z" transform="translate(-994.209 -1950.034)" fill="#fff"/><path d="M1099.556,1975.063c1.932.43,4.889.616,5,0s-.216-2.944-1-3-.049-.888-1-1c-.622-.073-1.683.763-2,1-.336.252-.58-.56-1,0C1099.185,1972.557,1099.051,1974.952,1099.556,1975.063Z" transform="translate(-1028.895 -1945.756)" fill="#1f1f39" opacity="0.18"/><path d="M1103.543,1973.891c-.017.435,0,1.542,0,2s-.006.538,0,1c.014.924-.036,2.074,0,3,.07,1.852.854,3.152,1,5,.293,3.7.356,7.36,1,11,.324,1.82.548,4.216,1,6,.224.893.733,2.123,1,3,.131.439-.142.565,0,1h1c.074.217-.078.785,0,1a28.235,28.235,0,0,0,2,5c.467.761,1.429,1.337,2,2a13.211,13.211,0,0,0,2,2,6.566,6.566,0,0,0,2,1c.817.271,1.13.923,2,1a17.866,17.866,0,0,0,3,0,24.753,24.753,0,0,0,3-1,21.722,21.722,0,0,0,5-2,23.165,23.165,0,0,0,4-3,31.15,31.15,0,0,0,7-8,42.986,42.986,0,0,0,4-11h0c.087-.362.637-.086,1,0s.082.639,0,1a35.129,35.129,0,0,1-4,10,34.237,34.237,0,0,1-7,9,29.93,29.93,0,0,1-5,3c-.836.478-1.109,1.623-2,2a26.041,26.041,0,0,1-3,1c-.941.255-2.023-.107-3,0a15.789,15.789,0,0,1-3,0c-.991-.078-2.042.309-3,0-.48-.156-.532-.772-1-1-.119-.051-.887.062-1,0h0c-.217-.135.211-.858,0-1a18.8,18.8,0,0,1-3-2c-.654-.746-.483-1.175-1-2a31.1,31.1,0,0,1-3-5c-.084-.223.079-.775,0-1v-1c-.153-.451-.859-.546-1-1-.285-.907-.761-2.083-1-3-.482-1.833-.652-3.145-1-5-.693-3.712-.669-7.251-1-11-.165-1.875-.911-4.119-1-6-.045-.94.022-2.056,0-3-.01-.472,0-.525,0-1s-.015-1.5,0-2a1,1,0,0,1,2,0Z" transform="translate(-1029.881 -1946.584)" fill="#252530"/><path d="M1118.943,1981.268c.047-1.1-3.472-4.29-3-5,.88-1.323,2.83.38,4-2,.912-1.854-2.545-4.768,0-5,5.956-.543,7.171,3.4,5,8-1.687,3.575.688,6.731,0,10s-7-1-7-1A24.5,24.5,0,0,0,1118.943,1981.268Z" transform="translate(-1035.282 -1944.96)" fill="#efaea6"/><path d="M1151.721,2001.7c-14.8,8.48-34.675,37.949-27-10,.184-1.152-8.635-4.756-9-3-15.772,75.861,36.486,30.735,43,27,2.76-1.583,3.308-12.264-1-13S1151.721,2001.7,1151.721,2001.7Z" transform="translate(-1034.059 -1952.389)" fill="#0267a4"/><g transform="translate(107.252 49.503)"><path d="M1161,2013.559c.306-.181,3.1,5.851,7,8a11.9,11.9,0,0,0,4,1,76.961,76.961,0,0,0,13,0c-.96-2.075-.455-3.077-2-5-3.37.859-9.114,1.315-11,1a14.017,14.017,0,0,1-4-1,19.054,19.054,0,0,1-5-4c-.724-.706-1.088-1.912-2-2C1159.787,2011.442,1160.6,2013.791,1161,2013.559Z" transform="translate(-1159.587 -2010.755)" fill="#1f1f39" opacity="0.18"/><path d="M1159.374,2012c.069-.572-.209-2.117,1-2a2.738,2.738,0,0,1,2,1c2.174,2.119,5.975,5.327,10,6s13.081-4.646,19-3,7.427,7.126,16,9,18.473-.585,21,0,4.122.993,4,2-2.166,2.386-4,3-17.862.8-22,0c-6.756-1.306-11.636-7.359-16-8a39.023,39.023,0,0,0-8,0,56.46,56.46,0,0,1-11,0c-5.716-.648-9.608-7.231-10-7a2.957,2.957,0,0,1-2,0C1158.876,2012.841,1159.3,2012.57,1159.374,2012Z" transform="translate(-1158.965 -2010.193)" fill="#f4ad00"/></g><path d="M1099.487,1973.874c1.932.43,4.888,1.616,5,1s-.216-2.944-1-3-1.048-.888-2-1c-.622-.073-.683-.237-1,0a4.151,4.151,0,0,0-1,1C1099.117,1972.368,1098.984,1973.762,1099.487,1973.874Z" transform="translate(-1028.826 -1945.567)" fill="#261d1f"/><path d="M1002.253,1967.817a23.773,23.773,0,0,1-2,4c-1.723,2.486-3.039,4.287-5,4a3.728,3.728,0,0,1-2-1,3.969,3.969,0,0,0-1-1,12.738,12.738,0,0,1-2-3,6.224,6.224,0,0,1,1-2c.948-1.233.234-5.1,2-6h3c.08.012.9-.021,1,0h0c.295.061.5-.168,1,0h0c.341.116.54.6,1,1a15.461,15.461,0,0,1,2,2A8.727,8.727,0,0,1,1002.253,1967.817Z" transform="translate(-987.592 -1942.509)" fill="#8dc9db" opacity="0.9"/><path d="M1010.141,1951.033c-1.009,6.9-4.758,12.048-9,14-3.962-.028-7.7-.273-4-1,6.037-1.187,6.5-11.049,7-15s-.707-9.994-4-16l3-2h0a27.636,27.636,0,0,0,3,3C1009.419,1937.8,1011.087,1944.552,1010.141,1951.033Z" transform="translate(-989.48 -1930.725)" fill="#3d3d59" opacity="0.18"/><path d="M1005.219,1966a11.135,11.135,0,0,1-4-3h0c.3.063.47-.178,1,0C1002.972,1963.256,1004.155,1964.621,1005.219,1966Z" transform="translate(-991.558 -1942.695)" fill="#1f1f39" opacity="0.1"/><path d="M998.256,1958.546c.922,1.8-2.227,2.877-3,3-.463.072-.875.654,0-1,.04-.074-.123-.784,0-1h0c.18-.315.237-.823,0-1-.117-.087.15-.01,0,0h0a4.5,4.5,0,0,1-1,0c-.489-.122.162-.723,0-1s-.08.058,0,0c.2-.147-.822.059-1,0-.268-.089-.019-.76,0-1s.146.217,0,0a.741.741,0,0,1,0-1,6.873,6.873,0,0,0,1-2l3,1v1S996.939,1955.978,998.256,1958.546Z" transform="translate(-988.594 -1939.238)" fill="#f5b1b4"/><path d="M996.534,1962.468c.18-.315.237-.823,0-1-.117-.087.15-.01,0,0C997.745,1961.074,998.011,1961.429,996.534,1962.468Z" transform="translate(-989.873 -1942.161)" fill="#1f1f3b" opacity="0.12"/><path d="M1006.393,1955.077c-.04.566-.918,1.439-1,2-.043.3.054.7,0,1-.3-.2-.636-1.127-1-1-1.142.4-1.184,1.8-3,2-5.361-.507-4.363-2.18-5-3a1.226,1.226,0,0,1,0-1c.157-.334.395-.807,0-1-.329-.161-.9-.227-1,0-.089.2.159.147,0,0-.279-.263-.3-1-2-1-.308,0-.106-.769,0-1a4.153,4.153,0,0,1,3-2c2.547-.443,4.286,3.735,5,4s.839-.867,3-1C1006.188,1952.967,1006.085,1954.519,1006.393,1955.077Z" transform="translate(-988.732 -1937.769)" fill="#f28f00" opacity="0.9"/><g transform="translate(28.226 13.772)"><path d="M1033.214,1966.895l3-1c-.113-1.128.3-4.014,0-5-.327-1.081-1-1-1-1l-1,1-1,1a2.349,2.349,0,0,1,0,1,8.182,8.182,0,0,1-1,2C1031.885,1965.524,1033.214,1966.895,1033.214,1966.895Z" transform="translate(-1031.779 -1955.359)" fill="#efaea6"/><path d="M1033.639,1962.647a2.335,2.335,0,0,1,0,1c1.6.511,2.435-.615,2-1-.272-.24-1-1-1-1Z" transform="translate(-1032.203 -1956.111)" fill="#1f1f39" opacity="0.14"/><path d="M1031.839,1956.507c-.146.938-.637,2.957,0,3s-.676,1.929,0,2c1.638.17,3.73-1.222,4-2a10.769,10.769,0,0,0,0-3Z" transform="translate(-1031.403 -1953.971)" fill="#efaea6"/><path d="M1033.981,1956.053c-.439-.283-.65.2-1,0s.669-.84,0-1-1.057-.222-1-1c.035-.493.4-1.174,1-1,.389.112.214-1.007,1-1,.621.006.439.759,1,1,.307.133,1.509-.437,2,0,.911.812.255,2.149,1,3,.868.992-1.659,1.936-2,2-.127.024-.323.467,0,0a1.132,1.132,0,0,0,0-1c-.247-.217-.807-.714-1,0-.137.508.166,1.864,0,2-.427.349-3,.644-3,0,0-.8,2.053.822,2,0-.041-.628-1.871-.49-2-1-.149-.588,1.822.526,2,0C1034.2,1957.41,1034.232,1956.214,1033.981,1956.053Z" transform="translate(-1031.545 -1952.517)" fill="#1f1f39"/></g><path d="M1035.2,1978.1c0,.149-.007-.146,0,0-.021-.132.018.135,0,0h0a5.339,5.339,0,0,1-4,1c-.286-.042-.734.113-1,0-.284-.119.261-.805,0-1,.1-1.818-.139-3.238,0-5h0a33.841,33.841,0,0,1,1-7c.038-.079-.041.031,0,0,.022-.017-.023,0,0,0a6.917,6.917,0,0,1,1,0c.058.012-.038-.04,0,0,.242.25.457,1.016,1,1,.763-.024,1.193-.913,2-1,.139-.016-.161-.041,0,0,.062.016-.061-.02,0,0h0a9.139,9.139,0,0,1,2,1,7.777,7.777,0,0,1,1,3c.048.287-.052.69,0,1,.095.562-.1,1.382,0,2C1037.216,1975.044,1036.443,1977.018,1035.2,1978.1Z" transform="translate(-1002.54 -1943.793)" fill="#fff"/><path d="M1042.146,1970.144c-.173.46.193,1.562,0,2-.18.413-.8.61-1,1-.986,1.944-1.758,3.918-3,5,0,.149-.007-.146,0,0-.021-.132.018.135,0,0-.007-.046.006.046,0,0-.062-.5,0-1.467,0-2,0-.152.006.14,0,0-.065-1.349-1.019-2.822-1-4,0-.158-.007.158,0,0,.005-.109-.007-.892,0-1,.011-.177-.016.174,0,0,.009-.087-.009.086,0,0s-.01-.915,0-1-.011.084,0,0c.021-.161.976.157,1,0,.014-.091-.014-.911,0-1,.025-.152-.026.146,0,0,.057-.324-.06-.708,0-1,.012-.058-.012.057,0,0s-.014.066,0,0-.014-.937,0-1h0c.01-.044-.011.043,0,0h0c.006-.025-.006.025,0,0,.017-.073-.014-.935,0-1,.038-.174-.021.117,0,0,.006-.03,0,.025,0,0,0-.008,0,.007,0,0a9.216,9.216,0,0,1,4,2,12.588,12.588,0,0,1,1,1C1042.971,1969.712,1042.351,1969.6,1042.146,1970.144Z" transform="translate(-1005.484 -1943.836)" fill="#4d4d5b"/><path d="M1028.058,1973.308c0-.029,0,.029,0,0,.024-.89.846-1.538,1-3v-4h0c-.033,0,.033,0,0,0-2.5.107-4.031,2.376-5,5a17.737,17.737,0,0,0,2,5c.035.068-.037-.066,0,0a6.381,6.381,0,0,0,2,2c.261.195-.284.881,0,1-.027-.3,0-.737,0-1,0-2.023-.02-2.669,0-4C1028.06,1974.239,1028.057,1973.38,1028.058,1973.308Z" transform="translate(-1000.397 -1944.001)" fill="#4d4d5b"/><path d="M1041.495,1974.419c.294.128.722.749,1,1-.18.413-.8.61-1,1-.986,1.944-1.758,3.918-3,5,0-.1-.006-.9,0-1,.029-.489-.159-.5,0-1a18.252,18.252,0,0,0,1-4c.006-.147,0,.147,0,0h0c.375-.742.339-1.081,1-1A5.126,5.126,0,0,1,1041.495,1974.419Z" transform="translate(-1005.833 -1947.112)" fill="#1f1f39" opacity="0.16"/><path d="M1037.146,1972.144c-.019,1.179.936,2.651,1,4,.191-.477,1.144-3.383,1-4a3.7,3.7,0,0,1,1-3c.821-.642-1.15-1.663-2-3A28.628,28.628,0,0,0,1037.146,1972.144Z" transform="translate(-1005.484 -1943.836)" fill="#1f1f39" opacity="0.77"/><g transform="translate(32.388 26.345)"><path d="M1042.395,1972.775c-.173.46.193,1.562,0,2-.18.413-.8.61-1,1-.986,1.944-1.758,3.918-3,5,0,.149-.007-.146,0,0-.021-.132.018.134,0,0h0c.032-.077-.031.078,0,0s-.027-.932,0-1c.867-2.193,1.267-4.374,2-6h0c.146-.319.843-.832,1-1C1041.911,1972.219,1041.9,1972.294,1042.395,1972.775Z" transform="translate(-1038.121 -1972.813)" fill="#4d4d5b"/></g><path d="M1028.905,1968.308c.358.678,1.5,2.233,1,3-.49.745-.055,2.916,0,3,.014-.973.827-2.351,1-4v-4C1030.236,1966.826,1028.553,1967.641,1028.905,1968.308Z" transform="translate(-1002.244 -1944.001)" fill="#1f1f39" opacity="0.77"/><path d="M1045.357,1954.4c-1.009,6.9-4.758,12.048-9,14-3.963-.028-8.7-.272-5-1,6.037-1.187,7.5-11.05,8-15s-1.707-10-5-16l3-1h0a19.79,19.79,0,0,1,3,2A22.555,22.555,0,0,1,1045.357,1954.4Z" transform="translate(-1002.696 -1932.093)" fill="#3d3d59" opacity="0.18"/></g></g></svg>