<?xml version="1.0" encoding="utf-8"?>
<!-- Generator: Adobe Illustrator 25.4.1, SVG Export Plug-In . SVG Version: 6.00 Build 0)  -->
<svg version="1.1" id="Layer_1" xmlns="http://www.w3.org/2000/svg" xmlns:xlink="http://www.w3.org/1999/xlink" x="0px" y="0px"
	 viewBox="0 0 359.1 285.2" style="enable-background:new 0 0 359.1 285.2;" xml:space="preserve">
<style type="text/css">
	.st0{fill:#D9E0E9;}
	.st1{fill:#2D87C1;}
	.st2{opacity:0.49;fill:#226B8E;enable-background:new    ;}
	.st3{opacity:0.49;fill:#2D87C1;enable-background:new    ;}
	.st4{fill:#596584;}
	.st5{fill:#F3A8A5;}
	.st6{fill:#E6E7E8;}
	.st7{fill:url(#SVGID_1_);}
	.st8{fill:#FFFFFF;}
	.st9{fill:#F7B97B;}
	.st10{fill:url(#SVGID_00000087393594282523359560000003376944636935870905_);}
	.st11{fill:url(#SVGID_00000129928004337877102450000008875264751285946045_);}
	.st12{fill:url(#SVGID_00000123442457278918373870000017363402748613827456_);}
	.st13{fill:url(#SVGID_00000054956766153983683880000012268348085643019705_);}
	.st14{fill:url(#SVGID_00000055684685398140896350000011525852491605357463_);}
	.st15{fill:url(#SVGID_00000005967180244201997550000005000375781832018066_);}
	.st16{fill:url(#SVGID_00000183943427410455122180000009541656240321732004_);}
	.st17{fill:#8190C7;}
	.st18{fill:#64A5C7;}
	.st19{fill:url(#SVGID_00000156555269921689575770000018174335466566814854_);}
	.st20{fill:url(#SVGID_00000109727819250684095620000007703650588328256645_);}
	.st21{fill:#ED8B90;}
	.st22{fill:#FDFDFD;}
	.st23{fill:url(#SVGID_00000131355150137937627180000014404602330703655079_);}
	.st24{fill:#98A4D2;}
	.st25{fill:url(#SVGID_00000043434803342886094560000004916155701104995004_);}
	.st26{fill:#E4E5E9;}
	.st27{fill:url(#SVGID_00000046300476347387085870000005322394110289360566_);}
	.st28{fill:#BCBEC0;}
	.st29{opacity:0.47;fill:#707FAF;enable-background:new    ;}
	.st30{fill:#F0E3DD;}
	.st31{opacity:0.47;fill:#8190C7;enable-background:new    ;}
	.st32{fill:#8F676F;}
	.st33{fill:#515B5C;}
	.st34{fill:#BBC4DE;}
	.st35{fill:#4893B9;}
	.st36{opacity:0.47;fill:#53659A;enable-background:new    ;}
	.st37{fill:#D19B3B;}
	.st38{fill:#4E3654;}
	.st39{fill:#29558B;}
	.st40{fill:#FEAC84;}
	.st41{fill:#7877ED;}
	.st42{fill:#E8A39C;}
	.st43{fill:#051A2D;}
	.st44{fill:#414042;}
	.st45{opacity:0.25;fill:#FFFFFF;enable-background:new    ;}
	.st46{fill:#F37E95;}
</style>
<g transform="translate(222.819 995.105)">
	<path class="st0" d="M-8.8-930.9l-2,1l-15-20l-23,39l16,28h46l-11-23l3-2l-8-11L-8.8-930.9z"/>
	<path class="st1" d="M12.2-926.9c3.9,6.4,2.1,14.7-4,19l-15-25C0.1-936.1,8.4-933.5,12.2-926.9z"/>
	<path class="st2" d="M12.2-926.9c3.9,6.4,2.1,14.7-4,19l-3-5c5.3-3.7,7-10.9,5-17C11-929,11.6-928,12.2-926.9z"/>
	<path class="st0" d="M-55.8-887.9l24,42c1.9,3.4,6.6,3.9,10,2s3.9-5.6,2-9l-24-42L-55.8-887.9z"/>
	<path class="st3" d="M-32.8-875.9c-5.8,6.3-12,6-12,6l-6-10l13-6L-32.8-875.9z"/>
	<path class="st1" d="M-57.8-906.9c-20.7,14.7,0.6,44.7,25,24l-16-28L-57.8-906.9z"/>
	<path class="st2" d="M4.2-906.9l-2,1l11,23h-46l-8,5c-7.7,4.6-20.3,1.9-23-7c10.9,9.2,25-9,25-9s18.2,2.4,40-15
		C2.3-908.5,3.4-907.8,4.2-906.9z"/>
	<path class="st4" d="M-23.8-957.9c-2.5,1.4-3.4,4.5-2,7l39,68c1.4,2.5,4.5,3.4,7,2.1c2.5-1.4,3.4-4.6,2-7.1c0,0-39-68-39-68
		C-18.2-958.4-21.3-959.3-23.8-957.9z"/>
	<g transform="translate(69.571)">
		<path class="st5" d="M-64.4-936.9c-0.9-0.2-1.2-1.7-1-2c0.2-0.6,6-23,6-23.1c0.3-0.7,1.2-1.1,2-0.9c0.8,0.2,1.2,0.2,1,1l-7,24
			C-63.6-937.1-63.6-936.7-64.4-936.9z"/>
		<g transform="translate(6.005 21.089)">
			<path class="st5" d="M-42.4-961c-1.1,0-22.5,14.2-23,12l0,0c-0.4-0.7-0.7-1.6,0-2c1.1,0,22.5-14.2,23-12l0,0
				C-42-962.3-41.7-961.4-42.4-961z"/>
		</g>
		<g transform="translate(11.149 42.99)">
			<path class="st5" d="M-41.5-953.9l-23-6c-0.8-0.3-1.2-1.2-1-2l0,0c-0.3-3.2,23.9,5.4,25,5c0.8,0.3,1.2,1.2,1,2l0,0
				C-39.8-954.1-40.7-953.7-41.5-953.9z"/>
		</g>
	</g>
</g>
<path class="st6" d="M197,259.2c183.5-0.2,183.5,15.2,0,15C13.5,274.4,13.5,258.9,197,259.2z"/>
<path class="st6" d="M77.5,243.2c68.1-0.1,68.1,12.1,0,12C9.5,255.3,9.5,243,77.5,243.2z"/>
<g transform="translate(105.103 1028.189)">
	<g transform="translate(20.389 26.242)">
		
			<linearGradient id="SVGID_1_" gradientUnits="userSpaceOnUse" x1="-469.6159" y1="-1126.9672" x2="-469.5749" y2="-1128.1326" gradientTransform="matrix(31 0 0 -29.245 14508.3701 -33926.6094)">
			<stop  offset="0" style="stop-color:#758EB7"/>
			<stop  offset="1" style="stop-color:#A6CAD1"/>
		</linearGradient>
		<path class="st7" d="M-33.5-955.2c-12,28.7-1.6,24.1-31,14C-52.4-969.2-62.3-963.6-33.5-955.2z"/>
		<path class="st8" d="M-62.6-953.2l18.9-8.6c1.8-0.8,3.9,0,4.7,1.7l10.1,22.1c0.8,1.8,0,3.9-1.7,4.7l-18.9,8.6
			c-1.8,0.8-3.9,0-4.7-1.7l-10.1-22.1C-65.2-950.3-64.4-952.4-62.6-953.2z"/>
		<path class="st9" d="M-33.5-955.2l8,18c0.8,1.8,0.8,4.2-1,5c-31.7,11.9-25.1,21-38-9C-35-931-45.5-926.7-33.5-955.2z"/>
		
			<linearGradient id="SVGID_00000160901266797145360600000005671906488406048689_" gradientUnits="userSpaceOnUse" x1="-433.081" y1="-998.278" x2="-432.0814" y2="-998.278" gradientTransform="matrix(5.4739 -2.5006 -0.8751 -1.9156 1439.9071 -3944.1213)">
			<stop  offset="0" style="stop-color:#758EB7"/>
			<stop  offset="0.268" style="stop-color:#7891B8"/>
			<stop  offset="0.52" style="stop-color:#819DBD"/>
			<stop  offset="0.763" style="stop-color:#90AFC5"/>
			<stop  offset="1" style="stop-color:#A6CAD1"/>
		</linearGradient>
		<path style="fill:url(#SVGID_00000160901266797145360600000005671906488406048689_);" d="M-59.2-949.1l3.7-1.7
			c1.2-0.5,2,1.4,0.9,1.9c0,0-3.7,1.7-3.7,1.7C-59.5-946.6-60.4-948.6-59.2-949.1z"/>
		
			<linearGradient id="SVGID_00000050625975936409175750000014485510205459752621_" gradientUnits="userSpaceOnUse" x1="-459.4619" y1="-998.4198" x2="-458.4599" y2="-998.4198" gradientTransform="matrix(16.0233 -7.3249 -0.8761 -1.9165 6430.8823 -6223.7285)">
			<stop  offset="0" style="stop-color:#758EB7"/>
			<stop  offset="0.268" style="stop-color:#7891B8"/>
			<stop  offset="0.52" style="stop-color:#819DBD"/>
			<stop  offset="0.763" style="stop-color:#90AFC5"/>
			<stop  offset="1" style="stop-color:#A6CAD1"/>
		</linearGradient>
		<path style="fill:url(#SVGID_00000050625975936409175750000014485510205459752621_);" d="M-57.6-945.5l14.3-6.5
			c0.6-0.3,1.2,0.1,1.4,0.6c1.7,1.4-14.5,7.2-14.8,7.8C-57.9-943-58.8-945-57.6-945.5z"/>
		
			<linearGradient id="SVGID_00000105390085942041692750000007707696885904188826_" gradientUnits="userSpaceOnUse" x1="-459.5518" y1="-998.3078" x2="-458.5498" y2="-998.3078" gradientTransform="matrix(16.016 -7.3165 -0.8751 -1.9156 6430.2153 -6215.1377)">
			<stop  offset="0" style="stop-color:#758EB7"/>
			<stop  offset="0.268" style="stop-color:#7891B8"/>
			<stop  offset="0.52" style="stop-color:#819DBD"/>
			<stop  offset="0.763" style="stop-color:#90AFC5"/>
			<stop  offset="1" style="stop-color:#A6CAD1"/>
		</linearGradient>
		<path style="fill:url(#SVGID_00000105390085942041692750000007707696885904188826_);" d="M-55.9-941.9l14.3-6.5
			c0.6-0.3,1.2,0.1,1.3,0.6c1.7,1.4-14.5,7.2-14.7,7.8C-56.2-939.5-57.1-941.4-55.9-941.9z"/>
	</g>
	<g transform="translate(40.21)">
		
			<linearGradient id="SVGID_00000147933731069072892030000006595383515213869208_" gradientUnits="userSpaceOnUse" x1="-489.7629" y1="-1102.2194" x2="-489.7261" y2="-1103.2858" gradientTransform="matrix(35 0 0 -32.047 17092.5215 -36280.6836)">
			<stop  offset="0" style="stop-color:#758EB7"/>
			<stop  offset="1" style="stop-color:#A6CAD1"/>
		</linearGradient>
		<path style="fill:url(#SVGID_00000147933731069072892030000006595383515213869208_);" d="M-31.3-949c-21.7,23.1-9.4,21.3-35,3
			C-44.5-969.1-56.9-967.3-31.3-949z"/>
		<path class="st8" d="M-60-957l20.7-1.8c1.9-0.2,3.6,1.3,3.8,3.2l2.2,24.1c0.2,1.9-1.3,3.6-3.2,3.8l-20.7,1.8
			c-1.9,0.2-3.6-1.3-3.8-3.2l-2.2-24.1C-63.4-955.1-61.9-956.8-60-957z"/>
		<path class="st9" d="M-31.3-949c1.8,31.5,4.7,20.4-29,26c-2,0.2-3.8-2-4-4l-2-19C-40.7-927.7-53-926-31.3-949z"/>
		
			<linearGradient id="SVGID_00000129193542784270601760000011016054776595489691_" gradientUnits="userSpaceOnUse" x1="-470.0867" y1="-942.5381" x2="-469.0871" y2="-942.5381" gradientTransform="matrix(5.9939 -0.5356 -0.1874 -2.0976 2594.4526 -3180.7722)">
			<stop  offset="0" style="stop-color:#758EB7"/>
			<stop  offset="0.268" style="stop-color:#7891B8"/>
			<stop  offset="0.52" style="stop-color:#819DBD"/>
			<stop  offset="0.763" style="stop-color:#90AFC5"/>
			<stop  offset="1" style="stop-color:#A6CAD1"/>
		</linearGradient>
		<path style="fill:url(#SVGID_00000129193542784270601760000011016054776595489691_);" d="M-58.2-952l4.1-0.4
			c1.3-0.1,1.5,2,0.2,2.1c0,0-4.1,0.4-4.1,0.4C-59.2-949.7-59.4-951.9-58.2-952z"/>
		
			<linearGradient id="SVGID_00000168816189613013547370000015332703993774720159_" gradientUnits="userSpaceOnUse" x1="-485.1082" y1="-942.571" x2="-484.1062" y2="-942.571" gradientTransform="matrix(17.5382 -1.5665 -0.1874 -2.0976 8284.8232 -3685.0229)">
			<stop  offset="0" style="stop-color:#758EB7"/>
			<stop  offset="0.268" style="stop-color:#7891B8"/>
			<stop  offset="0.52" style="stop-color:#819DBD"/>
			<stop  offset="0.763" style="stop-color:#90AFC5"/>
			<stop  offset="1" style="stop-color:#A6CAD1"/>
		</linearGradient>
		<path style="fill:url(#SVGID_00000168816189613013547370000015332703993774720159_);" d="M-57.8-948l15.6-1.4
			c0.6-0.1,1.1,0.5,1.1,1.1c1.1,1.9-16,2-16.5,2.4C-58.9-945.8-59.1-947.9-57.8-948z"/>
		
			<linearGradient id="SVGID_00000176733519767428249210000012660876235055360403_" gradientUnits="userSpaceOnUse" x1="-485.1282" y1="-942.571" x2="-484.1263" y2="-942.571" gradientTransform="matrix(17.5382 -1.5665 -0.1874 -2.0976 8285.1738 -3681.0959)">
			<stop  offset="0" style="stop-color:#758EB7"/>
			<stop  offset="0.268" style="stop-color:#7891B8"/>
			<stop  offset="0.52" style="stop-color:#819DBD"/>
			<stop  offset="0.763" style="stop-color:#90AFC5"/>
			<stop  offset="1" style="stop-color:#A6CAD1"/>
		</linearGradient>
		<path style="fill:url(#SVGID_00000176733519767428249210000012660876235055360403_);" d="M-57.4-944.1l15.6-1.4
			c0.6-0.1,1.1,0.5,1.1,1.1c1.1,1.9-16,2-16.5,2.4C-58.5-941.9-58.7-944-57.4-944.1z"/>
	</g>
	<g transform="translate(0 77.541)">
		<path class="st8" d="M13.1-959.5c-2.1,2.1,4.8,108.7-3.9,104.7c0,0-71.2,0-71.2,0c-2.1,0-3.9-1.7-3.9-3.9
			c2.1-2.1-4.8-108.7,3.9-104.7c0,0,71.2,0,71.2,0C11.4-963.3,13.1-961.6,13.1-959.5z"/>
		<path class="st17" d="M-27.1-862.5c3.9,0,3.9,5,0,5C-31-857.5-31-862.6-27.1-862.5z"/>
		<path class="st18" d="M-52.4-959.5H0.2c4.8,0,8.7,3.9,8.7,8.7v76.6c0,4.8-3.9,8.7-8.7,8.7h-52.6c-4.8,0-8.7-3.9-8.7-8.7v-76.6
			C-61.1-955.6-57.2-959.5-52.4-959.5z"/>
	</g>
	<path class="st8" d="M-50.6-868h35.1c0.9-0.1,0.3,3.1,0.5,3.5c0.1,1.3-35,0-35.5,0.5c-0.9,0.1-0.3-3.1-0.5-3.5
		C-51.1-867.8-50.9-868-50.6-868z"/>
	<g transform="translate(14.456 128.742)">
		<path class="st8" d="M-64.3-963.7c1.1,0.4,7.9-1.1,7.8,1.2c-0.4,1.1,1.1,7.9-1.2,7.8c-1.1-0.4-7.9,1.1-7.8-1.2
			C-65.1-957.1-66.6-963.9-64.3-963.7z"/>
		<path class="st8" d="M-50.1-963.7H-37c0.9-0.1,0.3,3.1,0.5,3.5c0,0.3-0.2,0.5-0.5,0.5h-13.1c-0.9,0.1-0.3-3.1-0.5-3.5
			C-50.5-963.5-50.3-963.7-50.1-963.7z"/>
		<path class="st8" d="M-50.1-957.7c0.5,0.4,30.6-0.8,30.5,0.5c-0.2,0.4,0.4,2.6-0.5,2.5c0,0-30.1,0-30.1,0
			c-0.9,0.1-0.3-2.1-0.5-2.5C-50.5-957.5-50.3-957.7-50.1-957.7z"/>
		<path class="st8" d="M-50.1-952.7c0.5,0.4,30.6-0.8,30.5,0.5c-0.2,0.4,0.4,2.6-0.5,2.5c0,0-30.1,0-30.1,0
			c-0.9,0.1-0.3-2.1-0.5-2.5C-50.5-952.5-50.3-952.7-50.1-952.7z"/>
	</g>
	<g transform="translate(14.456 148.516)">
		<path class="st8" d="M-64.3-963.5c1.1,0.4,7.9-1.1,7.8,1.2c-0.4,1.1,1.1,7.9-1.2,7.8c-1.1-0.4-7.9,1.1-7.8-1.2
			C-65.1-956.9-66.6-963.7-64.3-963.5z"/>
		<path class="st8" d="M-50.1-963.5H-37c0.9-0.1,0.3,3.1,0.5,3.5c0,0.3-0.2,0.5-0.5,0.5h-13.1c-0.9,0.1-0.3-3.1-0.5-3.5
			C-50.5-963.3-50.3-963.5-50.1-963.5z"/>
		<path class="st8" d="M-50.1-958.5H-20c0.9-0.1,0.3,3.1,0.5,3.5c0.1,1.3-30,0-30.5,0.5c-0.9,0.1-0.3-3.1-0.5-3.5
			C-50.5-958.3-50.3-958.5-50.1-958.5z"/>
		<path class="st8" d="M-50.1-952.5c0.5,0.4,30.6-0.8,30.5,0.5c-0.2,0.4,0.4,2.6-0.5,2.5c0,0-30.1,0-30.1,0
			c-0.9,0.1-0.3-2.1-0.5-2.5C-50.5-952.3-50.3-952.5-50.1-952.5z"/>
	</g>
	<g transform="translate(15.678 130.395)">
		
			<linearGradient id="SVGID_00000181784310809703025380000010052190208838777986_" gradientUnits="userSpaceOnUse" x1="-456.1375" y1="-1193.4626" x2="-455.1394" y2="-1193.4626" gradientTransform="matrix(7.5356 0 0 -7.2671 3371.2458 -9633.0244)">
			<stop  offset="0" style="stop-color:#1E2F97"/>
			<stop  offset="1" style="stop-color:#4ADFDE"/>
		</linearGradient>
		<path style="fill:url(#SVGID_00000181784310809703025380000010052190208838777986_);" d="M-62.8-956.4c-0.7-0.5-2.3-2.4-3-3
			c-0.8-0.6,0.4-1.8,1-1c0,0,2,1,2,1l3-4c1.1-1,1.6,1.3,1,2C-59.5-960.6-61.9-956.8-62.8-956.4z"/>
	</g>
	<g transform="translate(14.456 108.967)">
		<path class="st8" d="M-64.3-963c1.1,0.4,7.9-1.1,7.8,1.2c-0.4,1.1,1.1,7.9-1.2,7.8c-1.1-0.4-7.9,1.1-7.8-1.2
			C-65.1-956.3-66.6-963.1-64.3-963z"/>
		<path class="st8" d="M-50.1-963c0.2,0.2,14.1-0.5,13.5,0.5c-0.2,0.4,0.4,2.6-0.5,2.5c0,0-13.1,0-13.1,0c-0.9,0.1-0.3-2.1-0.5-2.5
			C-50.5-962.8-50.3-963-50.1-963z"/>
		<path class="st8" d="M-50.1-958c0.5,0.4,30.6-0.8,30.5,0.5c-0.2,0.4,0.4,2.6-0.5,2.5c0,0-30.1,0-30.1,0c-0.9,0.1-0.3-2.1-0.5-2.5
			C-50.5-957.8-50.3-958-50.1-958z"/>
		<path class="st8" d="M-50.1-953c0.5,0.4,30.6-0.8,30.5,0.5c-0.2,0.4,0.4,2.6-0.5,2.5c0,0-30.1,0-30.1,0c-0.9,0.1-0.3-2.1-0.5-2.5
			C-50.5-952.8-50.3-953-50.1-953z"/>
		<g transform="translate(1.221 1.182)">
			
				<linearGradient id="SVGID_00000047738894520299147240000002342125834936136613_" gradientUnits="userSpaceOnUse" x1="-456.1365" y1="-1165.9386" x2="-455.1408" y2="-1165.9386" gradientTransform="matrix(7.5356 0 0 -6.3601 3371.2383 -8375.7129)">
				<stop  offset="0" style="stop-color:#1E2F97"/>
				<stop  offset="1" style="stop-color:#4ADFDE"/>
			</linearGradient>
			<path style="fill:url(#SVGID_00000047738894520299147240000002342125834936136613_);" d="M-62.8-957.1c-1,0.6-2.4-1.5-3-2
				c-0.8-0.6,0.4-1.8,1-1c0,0,2,1,2,1l3-4c0.5-0.7,1.8,0.3,1,1c0,0-3,5-3,5C-61.9-956.9-62.5-957.2-62.8-957.1z"/>
		</g>
	</g>
	<path class="st6" d="M-8.1-777h28l-18-132l-10,9V-777z"/>
</g>
<g transform="translate(129.866 1173.44)">
	<g transform="translate(20.912)">
		<path class="st21" d="M-64.8-943.2l4,3h-3c7.2,32.1,28.4,36.5,22,11l-2,1l1-4c-5.9-16.4-23-31-23-31
			C-66.4-956.6-66-949.8-64.8-943.2z"/>
		<path class="st8" d="M-43.8-912.2c-5.2-12.1-9.9-30.6-18-41c6.7,10.8,12,29.1,17,41H-43.8z"/>
	</g>
	<g transform="translate(0 17.765)">
		<path class="st9" d="M-25.8-932c-0.9-7.2-1.9-18.1-5-18s-1.7,5.3-4,5s-2.4-3.9-2-10s-4.3-8.9-7-8s2.3,9.2,0,11s-2.4-8.1-8-10
			s-7.4-0.7-5,3c7.8,11.5-8.1,1.3-9,8c-0.7,4.4,6.8,2,7,6s-6.1,5.6-6,8s5.9,3.4,9,1s5.4-4.6,7-2s-4.4,2.7-5,6s9.9,1.4,14-1
			s4.1,0.2,2,2c-3.6,3.2,1.6,2.9,5,1C-29.4-931.9-25.3-927.7-25.8-932z"/>
		<path class="st22" d="M-31.8-939C-31.7-939.1-31.8-939.1-31.8-939c-0.1,0.3,0-0.9,0-1c1.4-0.8,1.2-2.9,1-4c0.2,0.6-0.8,2-1,3
			C-31.8-940.4-31.8-939.7-31.8-939C-31.9-938.8-31.7-939.2-31.8-939c-0.8-0.8-2.1-1.2-3-2l0,0c-1.6-1.9-3.5-3.7-6-4
			c1.7-2.6,2.1-6,2-9c-0.3-0.4-0.6-0.7-1-1c-0.3,2.9,2.2,8.2-2,9c-2.9-1.3-5.9-2.3-9-3c0.4-2.2,0.1-5.7-1-7c0,0,0,2,0,2
			c1.4,0.9,1.2,2.5,1,4c-1.8-0.1-8.5-2.3-8,0c3.8,0,7.5,0.7,11,2c-0.5,3.7-5.9,6.2-9,7c5.7,0.1,6.8-3,10-7c4,2.5,8.2,4.3,12,7
			c-2.5,2.6-7,5-10,5c4,0.8,7.8-1.8,10-5c4,3.4,7.7,7.8,9,12C-27-932.3-29.2-936.2-31.8-939z"/>
	</g>
</g>
<g transform="translate(378.413 1169.741)">
	<g transform="translate(8.884 11.966)">
		
			<linearGradient id="SVGID_00000108300722882163830310000018124051288521043608_" gradientUnits="userSpaceOnUse" x1="-711.3046" y1="-1257.4187" x2="-710.3046" y2="-1257.4187" gradientTransform="matrix(37.2196 0 0 -36.3053 27193.9688 -46595.7891)">
			<stop  offset="0" style="stop-color:#A6CAD1"/>
			<stop  offset="9.000000e-02" style="stop-color:#98BACA"/>
			<stop  offset="0.239" style="stop-color:#88A6C1"/>
			<stop  offset="0.411" style="stop-color:#7D98BB"/>
			<stop  offset="0.624" style="stop-color:#7690B8"/>
			<stop  offset="1" style="stop-color:#758EB7"/>
		</linearGradient>
		<path style="fill:url(#SVGID_00000108300722882163830310000018124051288521043608_);" d="M-65.3-928.5c0.2-7.2-1.1-18.8,2-19
			c3.1-0.2,1.7,5.6,4,5s2-4,1-10s4.2-9.6,7-9s-1.5,9.4,1,11s1.6-8.6,7-11s8-1.9,6,2c-7.3,14.8,7.7,0.5,9,7c1.1,4.3-7.2,3.9-7,8
			s6.8,3.6,7,6s-4.6,4.1-8,2s-6.6-3.7-8-1s5.1,1.8,6,5s-9.7,3-14,1s-4.3,0.4-2,2c3.9,2.8-0.4,3.5-4,2
			C-61.9-929.1-65.4-924.2-65.3-928.5z"/>
		<path class="st22" d="M-61.3-936.5C-61.5-936.7-61.2-936.2-61.3-936.5c0-0.1,0-0.9,0-1c-1.4-0.8-1.2-2.9-1-4c-0.1,0.9,1.2,2.7,1,4
			c0,0.1,0.9,0.9,1,1c0.6-1,1.3-2,2-3l0,0l0,0c1.9-1.4,4-2.7,6-4c-0.8-0.9-4.8-10.2-2-9c0.1,2.6-0.2,6.3,2,8c2.9-1.6,5.9-2.9,9-4
			c-0.4-2.2-0.1-5.7,1-7c0.4,4.4-2.4,0.8,0,6c2-0.8,5.4-0.8,7-1c-3.8,0.4-7.5,1.4-11,3c6.1,8.3,10.6,4.4,10,7c-3.9,0.3-8.8-2.6-10-6
			c-4.1,2.7-8.8,4-12,8c2.8,2,6.7,4.5,10,4c-3.3,0.6-7.2-2-10-4c-3.4,3.5-6,8.5-7,13C-68.1-925.3-62.4-935-61.3-936.5z"/>
	</g>
	<path class="st21" d="M-57.4-915.5c5.2-4.6,18.8-9.5,18-14s-5.2-5.4-10-3c0.7-9.1,14.2-9,15-14c-0.4-1.9-5.6-2.5-8-1
		c0,0-1.8-7.3,3-9c15.3-5.5-4.2-11.9-7-2c-1.6,6.8-2,8-2,8s-2.4,0.6-3-4s-4.4-6.1-6,0s3.5,8.2,4,12s-2.5,12.8-5,7s-9.6-5.6-7,3
		C-63.4-926.6-60.7-920.9-57.4-915.5z"/>
	<path class="st8" d="M-42.4-944.5c0-0.2,0.2-1,0-1c-2.6,0.7-5.3,1.8-7,4c3.3-8.1,6.7-16.1,9-18c-2.1,1.7-5.9,8.6-9,16
		c0.1-2.3-1.6-4.3-3-6l0,0c-1.6-1-0.8-1.6-1-3c-0.2,0,0,0.8,0,1c-0.3,1.1,0.5,2.1,1,3l0,0c1.2,1.4,1.5,3.3,2,5l0,0c0,0.2,1-0.2,1,0
		c-2.8,6.8-5.2,13.8-7,21c-1-2.4-3.2-4.4-4-7c0,0-1.1-5.4-1-5c0,2.3,1.2,5.8,2,8c1.5,1.3,2.1,3.1,2,5c0,1.5-2.2,6.4,0,6
		c0-1.6,1.2-5,2-8c0.3-1.8,1.6-3.6,4-3c1.6-0.8,4.3-1.6,5-3c-1.7-0.5-1.1,1.7-3,2c-2.2-0.2-4.2,0.9-6,2c1.4-5.4,3-10.8,5-16
		c1.3-0.1,2.1-1.2,3-2c0.6-0.4,1.3,0.1,2,0C-45.4-943.6-42-944.6-42.4-944.5z"/>
</g>
<g transform="translate(159.639 1082.405)">
	<g transform="translate(0 131.668)">
		<path class="st24" d="M136.4-951.9h-196c0,0,7-6,7-6c-0.6,0,181,0,181,0C128-958.2,136.4-951.9,136.4-951.9z"/>
		
			<linearGradient id="SVGID_00000135651725379730346530000016019144442005493670_" gradientUnits="userSpaceOnUse" x1="-506.763" y1="-1247.004" x2="-505.7625" y2="-1247.004" gradientTransform="matrix(207.2676 0 0 -7 104969.8281 -9677.4062)">
			<stop  offset="0" style="stop-color:#758EB7"/>
			<stop  offset="0.268" style="stop-color:#7891B8"/>
			<stop  offset="0.52" style="stop-color:#819DBD"/>
			<stop  offset="0.763" style="stop-color:#90AFC5"/>
			<stop  offset="1" style="stop-color:#A6CAD1"/>
		</linearGradient>
		<path style="fill:url(#SVGID_00000135651725379730346530000016019144442005493670_);" d="M141.4-951.9c0,0,0,6,0,6
			c0,0.5,0.6,1,0,1h-206c-2,0.2-0.6-6.1-1-7H141.4z"/>
		<path class="st26" d="M141.4-949.9c-1-1.9-209.4,3.7-207-2c0,0,13-11,13-11c-0.6,0,181,0,181,0c-0.4-0.4,13,11,13,11
			C142-951.3,142.2-949.9,141.4-949.9z"/>
		
			<linearGradient id="SVGID_00000018232771524337020270000017993866034013653146_" gradientUnits="userSpaceOnUse" x1="-506.0311" y1="-1226.1863" x2="-505.0329" y2="-1226.1863" gradientTransform="matrix(78.4156 0 0 -5.024 39682.0898 -7115.6724)">
			<stop  offset="0" style="stop-color:#758EB7"/>
			<stop  offset="0.268" style="stop-color:#7891B8"/>
			<stop  offset="0.52" style="stop-color:#819DBD"/>
			<stop  offset="0.763" style="stop-color:#90AFC5"/>
			<stop  offset="1" style="stop-color:#A6CAD1"/>
		</linearGradient>
		<path style="fill:url(#SVGID_00000018232771524337020270000017993866034013653146_);" d="M79.4-952.9c-0.2-0.8-80.3,1.6-78-1
			c0,0,5-4,5-4c-0.2,0,68,0,68,0C74.3-957.6,80.9-953.6,79.4-952.9z"/>
	</g>
	<g transform="translate(13.328 0)">
		<path class="st8" d="M-63.9-963.2c2.1,2,179.3-3.9,178.9,2.1c0,0,0,127.8,0,127.8c0,1.2-0.9,2.1-2.1,2.1
			c-2.1-2-179.3,3.9-178.9-2.1c0,0,0-127.8,0-127.8C-65.9-962.3-65-963.2-63.9-963.2z"/>
		<rect x="-57.9" y="-956.2" class="st18" width="166" height="111"/>
		<path class="st17" d="M27.1-839.2c0.3,3.1-7.1,2.6-7,0C20.2-842.8,27.4-843.5,27.1-839.2z"/>
	</g>
	<path class="st6" d="M-19.6-885.2c1.4,0.2,1.4-2.2,0-2c0,0-7,0-7,0c-1.6-0.2-1.5,5.2-2,6h-3l1-11h1c0.6-5,0.6-10,0-15
		c1.5-2.3,6.9-8.7,8-11c0,0,1-6,1-6c0.4-0.4,1.7-1.3,1-2c-0.9-0.9-1,0-1,0c-1.6,0-1.1,0.2-1,2c0,0-3,7-3,7l-6,6l-4,1
		c-0.2-1.9,1.5-1.9,0-5l0,0c0-0.5,0-1.5,0-2c0,0.8-5.4-0.3-5,3c0.2,1.6,1.1,4.3,3,4v1c-2.5,1.8-5.4,2.3-5,4c0,0-3,8-3,8v10
		c-0.5,0.1-0.9,0.5-1,1l-7,54c0,0.2-0.1,1.2,0,1l-2,18h2l1-6h15l-1,6h3l9-72H-19.6z M-34.6-911.2C-34.6-911.1-34.6-911.3-34.6-911.2
		L-34.6-911.2C-34.6-911.3-34.6-911.2-34.6-911.2z M-35.6-885.2c0.2-0.2,0-0.9,0-1v5h-1L-35.6-885.2z M-35.6-862.2L-35.6-862.2v1h-5
		c0-1.1-0.3-2.3-2-2l2-5h5V-862.2z M-37.6-878.2h2v7h-4L-37.6-878.2z M-41.6-899.2l2-3c0.6,3,1,6,1,9l0,0l-1,6h-3L-41.6-899.2z
		 M-43.6-884.2c0.1-0.1,0-0.9,0-1h4l-1,4h-3V-884.2z M-43.6-878.2h3l-2,7h-2L-43.6-878.2z M-45.6-868.2h3l-1,5l0,0v2h-3L-45.6-868.2
		z M-36.6-821.2h-15l1-8h15L-36.6-821.2z M-34.6-831.2h-15l1-8h15L-34.6-831.2z M-33.6-841.2h-15l1-8h15L-33.6-841.2z M-32.6-851.2
		h-15l1-8h15L-32.6-851.2z M-31.6-861.2h-1c-0.2-0.5,0.1-0.7-1-1v-6h3L-31.6-861.2z M-29.6-871.2h-3v-7h4L-29.6-871.2z"/>
</g>
<path class="st6" d="M255,239.2l8,2l-14,17c-20.4-11-42.7-19-66-19c-110.5,1-79-6.5,24-7C298.9,231.5,360.1,235.8,255,239.2z"/>
<path class="st6" d="M133,138.2c-5.3,4.9-2.7,46.4,8,61c11.3,16.2,26.7-29.9,26-34C164.3,159.2,141.4,136.3,133,138.2z"/>
<path class="st6" d="M131,160.2c5.1,108.2,64.3,44.5,69,76h48l-5-47c-47-17.6-35.6-17.5-86-12C152.1,174.9,135.7,163.4,131,160.2z"
	/>
<path class="st28" d="M182,209.2c0,0,47.9,0.1,54-12s4.1-26.4-5-22s-37.8,11.6-39,13s-16,16-16,16L182,209.2z"/>
<path class="st8" d="M133,138.2c8.7,0,6.6,14.4,8,30c11.9,86.4,74.7,19.4,92,2c0,0,3.4-28.5-7-32C205.7,134.2,142.5,139.1,133,138.2
	z"/>
<g transform="translate(36.844 14.032)">
	<rect x="114.2" y="132.2" class="st8" width="17" height="17"/>
	<rect x="116.2" y="134.2" class="st21" width="14" height="14"/>
	<g transform="translate(1.996 2.555)">
		<path class="st29" d="M118.2,139.6c0,0,1.1-0.1,2,0c0.3,0-1,1-1,1l0,0L118.2,139.6z"/>
		<path class="st29" d="M123.2,139.6c-0.9-0.2-1.4,0.1-1,1h1V139.6z"/>
		<path class="st30" d="M119.2,137.6v3l2,3l1-3v-3H119.2z"/>
		<path class="st31" d="M119.2,139.6c1.4,1.4,1.8,1.3,3,0v-1h-3V139.6z"/>
		<path class="st30" d="M118.2,135.6c0,0,0.6,1.7,1,3c1.5,3,5.1-0.6,4-3H118.2z"/>
		<g transform="translate(3.092 3.477)">
			<path class="st30" d="M120.1,133.1c1.9-1.4,0.6,1.4,0,1C119.8,133.9,120.1,133.1,120.1,133.1z"/>
			<path class="st30" d="M115.1,133.1C114.3,132.6,114.9,132.6,115.1,133.1s-0.2,1.3,0,1S115.1,133.1,115.1,133.1z"/>
		</g>
		<path class="st32" d="M118.2,135.6c1.6,0.6,3.3,1,5,1c-0.7-0.1-1.4-0.5-2-1c0.6,0.4,1.3,0.8,2,1v1c4.5-5.4-7.2-7.6-5-1
			c0,0-0.3,0.2,0,1V135.6z"/>
		<path class="st32" d="M127.2,145.6C127.1,145.7,127.3,145.5,127.2,145.6h-6c0-0.2,0-1.1,0-1h-1c0-0.7,0-1.5,0-2c1,0.1,1.4,0,1-1h1
			v-1c0.7-0.2,3.3,0.8,4,1C127.4,142.3,127.2,144.4,127.2,145.6z"/>
		<path class="st32" d="M121.2,142.6v3h-6c-0.1-0.1-0.9,0.1-1,0c0.8-1.1,0.9-3.3,2-4c0.6-0.3,2.3-1.3,3-1v1h1
			C120.5,141.9,121,142.4,121.2,142.6z"/>
		<path class="st8" d="M118.2,139.6c0.5,0.5,1.2,0.9,2,1c0,0.3,0,0.7,0,1c-0.7-0.3-1.4-0.6-2-1C118.2,140.6,118.1,139.7,118.2,139.6
			z"/>
		<path class="st33" d="M116.2,145.6L116.2,145.6L116.2,145.6z"/>
		<path class="st8" d="M123.2,139.6c-0.5,0.5-1.2,0.9-2,1c0,0,0,0.4,0,1c0.7-0.3,1.4-0.6,2-1C123.2,140.6,123.3,139.7,123.2,139.6z"
			/>
		<path class="st33" d="M126.2,145.6L126.2,145.6L126.2,145.6z"/>
		<path class="st8" d="M120.7,142.6c0.6,0,0.6,1,0,1C120,143.6,120,142.6,120.7,142.6z"/>
		<path class="st8" d="M120.7,144.6c0.3,0,0.5,0,0.5,0c0,0-1,0-1,0C120.2,144.6,120.4,144.6,120.7,144.6z"/>
	</g>
</g>
<path class="st8" d="M182,209.2c43.9-24.7,29-38,51-38h62c8.3,0,16.6,2.4,18,31c1.8,36.7,17,56,17,56h-81c0,0-14.3-12.7-17-57
	c-1.2-20.5-6.1-22.9-13-17S195.5,206.5,182,209.2z"/>
<g transform="translate(135.844 97.752)">
	<path class="st34" d="M129.3,134.4H155c0.3-0.1,0.1,1.8,0.1,1.9c0,0.4-25.7,0-25.9,0.1C129,136.5,129.1,134.4,129.3,134.4z"/>
	<path class="st34" d="M129.3,139.4H164c0.3-0.1,0.1,1.8,0.1,1.9c0,0.4-34.7,0-34.9,0.1C129,141.5,129.2,139.3,129.3,139.4z"/>
	<path class="st34" d="M125.2,143.4h-11v-11h11V143.4z M116.2,141.4h7v-7h-7V141.4z"/>
	
		<rect x="118.1" y="136.2" transform="matrix(0.7071 -0.7071 0.7071 0.7071 -62.4075 125.0465)" class="st9" width="3.3" height="3.3"/>
</g>
<g transform="translate(57.65 15.43)">
	<path class="st34" d="M114.6,132.8h50.6c0.5-0.1,0.1,2.6,0.2,2.8c0.1,0.6-50.6,0-50.8,0.2c-0.5,0.1-0.1-2.6-0.2-2.8
		C114.4,132.9,114.5,132.8,114.6,132.8z"/>
	<path class="st34" d="M152.7,140.9h-37.9c-0.5,0.1-0.1-2.2-0.2-2.4c-0.1-0.6,37.9,0,38.1-0.2c0.5-0.1,0.1,2.2,0.2,2.4
		C152.9,140.8,152.8,140.9,152.7,140.9z"/>
	<path class="st34" d="M162.4,147h-47.7c-0.5,0.1-0.1-2.2-0.2-2.4c-0.1-0.6,47.7,0,47.9-0.2c0.5-0.1,0.1,2.2,0.2,2.4
		C162.6,147,162.5,147,162.4,147z"/>
</g>
<g transform="translate(105.553 0)">
	<path class="st21" d="M123.6,141.8c12-11.9,30.1,6.3,18.2,18.2C129.9,171.8,111.8,153.7,123.6,141.8z"/>
	<path class="st8" d="M133,141.2c12.3-0.2,12.3,19.2,0,19C120.6,160.4,120.6,141,133,141.2z"/>
	<path class="st21" d="M133,143.2c9.7-0.1,9.7,15.1,0,15C123.2,158.3,123.2,143,133,143.2z"/>
	<path class="st8" d="M129.8,148c3.7-3.8,9.6,2.1,5.8,5.8C131.9,157.6,126,151.7,129.8,148z"/>
	<path class="st21" d="M133,148.2c3.2,0,3.2,5,0,5C129.7,153.2,129.7,148.1,133,148.2z"/>
	<path class="st8" d="M132.5,151.2c-0.7,1.6,1,1,1,0C133.4,150.2,131.8,149.6,132.5,151.2z"/>
	<g transform="translate(18.292 3.204)">
		<path class="st9" d="M127.2,137v-2l3-2l-1,2L127.2,137z"/>
		<path class="st9" d="M127.2,137h2l3-2h-3L127.2,137z"/>
		<g transform="translate(1.91 1.506)">
			<path class="st35" d="M114.3,144.5c0.4,1.3,13.6-11,14-11c0.4-0.8-0.2-1.4-1-1C127,132.8,114,144.6,114.3,144.5z"/>
		</g>
		<path class="st9" d="M114.2,148l2-3l1,1L114.2,148z"/>
	</g>
</g>
<g transform="translate(19.742 13.382)">
	<path class="st36" d="M129.3,141.8c0.3,3.7-5.7,10.3-9,7v-14C124.5,134.4,129.3,137.4,129.3,141.8z"/>
	<path class="st9" d="M121.8,132.8c9.7-0.1,9.7,14.1,0,14C112,146.9,112,132.7,121.8,132.8z"/>
	<g transform="translate(3.051 4.886)">
		<path class="st8" d="M118.2,135.9L118.2,135.9c-0.1,0.5,0.3,0.7,0,1c-0.7,0.2-2.3,0-3,0c-0.3-0.2,0.2-0.6,0-1s-1-0.6-1-1
			c0-0.5,0.8-0.7,1-1s-0.3-0.8,0-1c0.8,0,2.3-0.2,3,0c0.3,0.2-0.1,0.6,0,1l0,0c-1.6-2.4-3.6-0.4-3,2c0.3,0.4,0.6,0.7,1,1
			c0.2,0.1-0.3,0,0,0C117.1,137.2,117.8,136.7,118.2,135.9z"/>
		<path class="st8" d="M120.2,136.9l-1-4l0,0c0.4,1.1,0.9,3.4,2,4c-0.2-0.7,0.8-3.3,1-4h1l-2,4H120.2z"/>
	</g>
</g>
<g transform="translate(40.417 36.007)">
	<path class="st34" d="M114.8,132.2h50.6c0.5-0.1,0.1,2.6,0.2,2.8c0.1,0.6-50.6,0-50.8,0.2c-0.5,0.1-0.1-2.6-0.2-2.8
		C114.6,132.3,114.7,132.2,114.8,132.2z"/>
	<path class="st34" d="M155.3,140.9h-37.9c-0.5,0.1-0.1-2.2-0.2-2.4c-0.1-0.6,37.9,0,38.1-0.2c0.5-0.1,0.1,2.2,0.2,2.4
		C155.5,140.8,155.4,140.9,155.3,140.9z"/>
	<path class="st34" d="M166.8,147h-47.7c-0.5,0.1-0.1-2.2-0.2-2.4c-0.1-0.6,47.7,0,47.9-0.2c0.5-0.1,0.1,2.2,0.2,2.4
		C167,147,166.9,147,166.8,147z"/>
</g>
<g transform="translate(124.54 48.123)">
	<g transform="translate(3.573 21.975)">
		<path class="st34" d="M115.1,133.1c0.3,0.2,50.8-0.4,50.8,0.2c-0.2,0.2,0.3,1.8-0.2,1.8c0,0-50.6,0-50.6,0
			c-0.5,0.1-0.1-1.6-0.2-1.8C114.9,133.2,115,133.1,115.1,133.1z"/>
		<path class="st34" d="M155.3,140.9h-37.9c-0.5,0.1-0.1-2.2-0.2-2.4c-0.1-0.6,37.9,0,38.1-0.2c0.5-0.1,0.1,2.2,0.2,2.4
			C155.5,140.8,155.4,140.9,155.3,140.9z"/>
		<path class="st34" d="M166.8,147h-47.7c-0.5,0.1-0.1-2.2-0.2-2.4c-0.1-0.6,47.7,0,47.9-0.2c0.5-0.1,0.1,2.2,0.2,2.4
			C167,147,166.9,147,166.8,147z"/>
	</g>
	<rect x="114.5" y="133.1" class="st8" width="17" height="17"/>
	<rect x="115.5" y="134.1" class="st21" width="15" height="14"/>
	<g transform="translate(1.995 2.555)">
		<path class="st29" d="M118.5,139.5c0.9-0.2,1.4,0.1,1,1l0,0L118.5,139.5z"/>
		<path class="st29" d="M123.5,139.5c-0.9-0.2-1.4,0.1-1,1l0,0L123.5,139.5z"/>
		<path class="st30" d="M119.5,137.5v3l2,3l1-3v-3H119.5z"/>
		<path class="st31" d="M119.5,139.5c1.4,1.4,1.8,1.3,3,0v-1h-3V139.5z"/>
		<path class="st30" d="M118.5,135.5c-1.7,6.6,6.5,6.3,5,0H118.5z"/>
		<g transform="translate(3.092 3.477)">
			<path class="st30" d="M120.4,133C121.1,132.6,120.6,132.5,120.4,133s0.2,1.3,0,1S120.4,133,120.4,133z"/>
			<path class="st30" d="M115.4,133c-1.9-1.4-0.6,1.4,0,1C115.6,133.8,115.4,133,115.4,133z"/>
		</g>
		<path class="st32" d="M118.5,135.5c1.6,0.6,3.3,1,5,1c-0.7-0.1-1.4-0.5-2-1c0.6,0.4,1.3,0.8,2,1c0.8-5.6-6.6-5.2-6,0
			c0.5,0.2,0.8,0.5,1,1V135.5z"/>
		<path class="st32" d="M127.5,145.5C127.4,145.6,127.6,145.5,127.5,145.5h-7c0-0.2,0-1.1,0-1l0,0c0-0.7,0-1.5,0-2c0,0,1.1-1.1,1-1
			h1v-1c0.7-0.3,2.4,0.7,3,1C127.3,142.2,127.7,143.8,127.5,145.5z"/>
		<path class="st32" d="M121.5,142.5v3h-7c-0.1-0.1,0.1,0.1,0,0c-0.2-1.7,0.2-3.3,2-4c0.6-0.3,2.3-1.3,3-1v1h1
			C120.2,142.5,120.5,142.6,121.5,142.5z"/>
		<path class="st8" d="M118.5,139.5c0.7,0.9,2,2,2,2c-0.7-0.3-1.4-0.6-2-1C118.5,140.5,118.4,139.6,118.5,139.5z"/>
		<path class="st33" d="M116.5,145.5L116.5,145.5L116.5,145.5z"/>
		<path class="st8" d="M123.5,139.5c-0.7,0.9-2,2-2,2l0,0c0.7-0.3,1.4-0.6,2-1C123.5,140.5,123.6,139.6,123.5,139.5z"/>
		<path class="st33" d="M125.5,145.5L125.5,145.5L125.5,145.5z"/>
		<path class="st8" d="M120.5,142.5c0,0,0,1,0,1C120.5,143.5,120.5,142.5,120.5,142.5z"/>
		<path class="st8" d="M120.5,144.5c0,0,0,1,0,1C120.5,145.5,120.5,144.5,120.5,144.5z"/>
	</g>
	<g transform="translate(20.806 1.398)">
		<path class="st34" d="M114.9,132.7h40.6c0.5-0.1,0.1,2.6,0.2,2.8c0.1,0.6-40.6,0-40.8,0.2c-0.5,0.1-0.1-2.6-0.2-2.8
			C114.7,132.8,114.8,132.7,114.9,132.7z"/>
		<path class="st34" d="M145.7,140.9h-30.9c-0.5,0.1-0.1-2.2-0.2-2.4c0-0.6,30.9,0,31.1-0.2c0.5-0.1,0.1,2.2,0.2,2.4
			C145.9,140.8,145.8,140.9,145.7,140.9z"/>
		<path class="st34" d="M153.6,147h-38.9c-0.5,0.1-0.1-2.2-0.2-2.4c-0.1-0.6,38.9,0,39.1-0.2c0.5-0.1,0.1,2.2,0.2,2.4
			C153.8,147,153.7,147,153.6,147z"/>
	</g>
</g>
<path class="st6" d="M318,246.2c0.4-0.3,0.7-0.6,1-1c-1.8-4.8-4.2-16.5-9-15c-0.3-0.1-0.8,0.2-1,0c1.2,0,1,0.1,1-1
	c5.8-4.3-4.5-9.2-4-6c0.4,1.7-1.6,7.2,1,7c0.3,0.5,0.9,0.5,1,1c-0.1,0.1-0.9,0.9-1,1c-0.7,0.3-2.4-0.7-3-1c0,0,0,0,0,0
	c-0.8-0.6-3.4-2.2-4-3c-0.1-0.3-0.9-0.8-1-1c-0.1-0.1,0.1-0.2,0,0l0,0c-0.1-0.1-0.8-0.2-1,0c0,0-7.1-6.1-7-6v1l-2-2
	c9.5-13.8-12.6-29.9-23-17c-12,13.5,7.1,31.5,20,20l2,2l0,0c3.8,3.4,10,7.4,11,13c1.3,0.1,2.7,0.1,4,0c0.1,0,1.2,1.3,1,1
	c0,0,1-1,1-1c0.5,0,0.5,0.1,1,0c4.5,9.2-2,14.6,1,20h4c-0.2-1.7,0.4-3.4,1-5c-0.4,2.7,0,3.2,1,5h4C317,254.2,318.1,250.2,318,246.2z
	 M285,220.2c-9.1,11.2-25.8-4.8-17-15C277.8,194.3,294.7,208.8,285,220.2z"/>
<g transform="translate(159.24 1119.204)">
	<path class="st6" d="M-47.7-837c23.9-0.1,23.9,3.1,0,3C-71.6-833.9-71.6-837.1-47.7-837z"/>
	<path class="st37" d="M-58.2-836l11-87c0.7-1.9,7.5-0.7,9-1c1.4-0.2,1.4,2.2,0,2c0,0-6,0-6,0l-1,4h15c0.5-0.9,0.4-6.2,2-6
		c0,0,7,0,7,0c2.5,0,2.6,2,0,2c0,0-6,0-6,0c0.1-2.1-14.7,123.7-12,76h-15c-0.5,0.8-0.2,11.5-2,11C-57-835-58.4-834.9-58.2-836z
		 M-47.2-898h15l1-7h-15L-47.2-898z M-48.2-896l-1,8h15l1-8H-48.2z M-49.2-886l-1,8h15l1-8H-49.2z M-50.2-876l-1,8h15l1-8H-50.2z
		 M-36.2-866h-15l-1,8h15L-36.2-866z M-45.2-915l-1,7h15l1-7H-45.2z M-39.2-849l1-7h-15l-1,7H-39.2z"/>
	<g transform="translate(19.519)">
		<path class="st38" d="M-56.7-899v2c0,0.3,0.7,0,1,0h3C-52.2-898.3-54.7-899.3-56.7-899z"/>
		<path class="st38" d="M-64.7-900v2c-0.1,0.3-0.3,1,0,1h4C-60.3-899.4-62.8-900.3-64.7-900z"/>
		<path class="st39" d="M-56.7-899h2c1-8,3-24,4-32l-3-1l-2,2C-56.5-922.3-57-906.8-56.7-899z"/>
		<path class="st39" d="M-64.7-899h2c1.9-7.8,5.9-23.3,8-31l-4-3l-3,17l0,0L-64.7-899z"/>
		<path class="st40" d="M-54.7-948v1l-2,1l-2-2H-54.7z"/>
		<path class="st41" d="M-56.7-947l5-1c1.4,6.2,1.7,12.7,1,19l-9-1c0,0-1.1-9.9-3-13c0,0,3.5-1.6,6-3C-56.5-946.2-57-946.9-56.7-947
			z"/>
		<path class="st40" d="M-40.7-961c1.8-0.7,1.4-3.3-1-2c-0.5-0.1-1,2-1,2H-40.7z"/>
		<path class="st41" d="M-51.7-943c3.8-4.9,10-11.6,11-18h-2l-3,7l-6,6V-943z"/>
		<path class="st40" d="M-65.7-924c0,0-0.2,2.7,1,3s1-1,1-1l0,0c0.5-0.1-1-2-1-2H-65.7z"/>
		<path class="st41" d="M-65.7-924h2l1-12c0.4-1.3,4.5-5.7,3-7l0,0c-3.6-2.4-4.8,7.4-6,9C-65.7-934-65.7-924-65.7-924z"/>
		<path class="st38" d="M-55.7-953c2.5,7.5-4.4,8.1-5,2c-0.4-3.3,5-2.2,5-3V-953z"/>
		<path class="st40" d="M-55.7-951c-0.9-1.8,0.3,3.2,1,1c-0.3,1-0.6,2-1,3c1.5-1.2,1.9-3.3,1-5L-55.7-951z"/>
	</g>
</g>
<g transform="translate(330.495 1161.618)">
	<path class="st6" d="M-14.5-890.4c12.9-0.1,12.9,3.1,0,3C-27.4-887.4-27.4-890.5-14.5-890.4z"/>
	<g transform="translate(35.312 28.465)">
		<g transform="translate(1.074 1.094)">
			<path class="st42" d="M-65.9-962c0.6,0.6,5.3,5.3,6,6c1.7,0,3.4-0.3,5-1l1-4l-5,2c-0.9-0.6-5.5-3.1-6-4L-65.9-962z"/>
			<path class="st41" d="M-61.9-958l2,2c1.2,0.1,6-1.2,8-2l-2-3l-5,2l-2-1C-61-959.8-61.4-958.7-61.9-958z"/>
		</g>
		<path class="st42" d="M-63.8-961.9c0.1-1,0-1.3-1-1l0,0c-1.7-0.8-1.1,1.6,0,2L-63.8-961.9z"/>
	</g>
	<g transform="translate(49.769 45.616)">
		<path class="st43" d="M-60.2-937c0.1,0.7,0.1,1.3,0,2l3-1c-0.3-0.3-0.9-0.7-1-1H-60.2z"/>
		<path class="st39" d="M-58.2-937l-2,1c-2.7-8.6-7-16.5-5-27h5c0,4-0.3,8-1,12L-58.2-937z"/>
		<path class="st43" d="M-57.2-936c1.2,2-4.7,1.2-5,1C-61.4-936.6-58.4-935.6-57.2-936z"/>
	</g>
	<path class="st42" d="M-18.5-931.4c-0.7-0.3-0.6-0.2-1-1l-2,1c0.5,0.8,1.1,1.2,1,2L-18.5-931.4z"/>
	<path class="st42" d="M-18.5-931.4c0.2,0.3-3.7,0.4-4,0c-0.3-0.3-0.1-5.1,1-6C-16.6-937.6-17-934.7-18.5-931.4z"/>
	<g transform="translate(43.996 45.27)">
		<path class="st43" d="M-63.5-935.7c0.1,0.4,0.3,0.5,0,1h3c-0.2-0.4-1-0.7-1-1H-63.5z"/>
		<path class="st39" d="M-61.5-935.7h-2c-1.2-9.1-3.3-17.7,0-28l6,1c-1,4.1-2.3,8.1-4,12V-935.7z"/>
		<path class="st43" d="M-60.5-935.7c0.2,0.7,0.2,1.3,0,2C-66.5-933.9-67.4-935.7-60.5-935.7z"/>
	</g>
	<path class="st41" d="M-9.5-916.4c-0.4,1.5-7.9,3.7-10,3c-0.2-3.9-2.6-8.2-4-14C-15.1-938.2-12.3-924.8-9.5-916.4z"/>
	<path class="st43" d="M-20.5-935.4c-1.6,1.7-1.8-1.4-2-3c-0.3-2.3,3.3-0.3,5,1c1.6,1.3,0.3,4.4-1,5c-4.4,1.7-0.3-1.2-1-2
		c-0.6-0.5-1,1-1,1v-1C-20.5-934.4-20.1-935.8-20.5-935.4z"/>
	<g transform="translate(0 0)">
		<path class="st44" d="M-60.5-938.4c14.4,12.6,32.4-9,18-21C-56.9-972-74.9-950.5-60.5-938.4z M-60.5-956.4
			c9.8-10.9,26.7,3.6,17,15C-52.5-930.2-69.3-946.2-60.5-956.4z"/>
		<path class="st45" d="M-60.5-944.4c-0.4-10.8,13.1-15.6,19-6C-45.5-964.9-65.3-958.2-60.5-944.4z"/>
		<path class="st44" d="M-24.5-927.1c-0.6,0.7-1.5,2-2.5,1.2c0,0-15.2-12.9-15.2-12.9l0,0l2.4-2.8l0,0
			C-39.7-940.8-22.1-928.3-24.5-927.1C-24.5-927.1-24.5-927.1-24.5-927.1z"/>
		<path class="st46" d="M-21.9-925.2c-0.8,1-2.1,2.9-3.5,1.6c0,0-14.5-12.3-14.5-12.3c-0.8-0.5,2.6-3.5,2.7-3.9
			c0.2-0.2,0.5-0.2,0.7-0.1c0,0,0,0,0,0l14.5,12.3C-21.4-927-21.3-925.9-21.9-925.2z"/>
	</g>
	<g transform="translate(31.291 30.462)">
		<g transform="translate(0.854 1.334)">
			<path class="st42" d="M-65.6-962.2c0.8,0.4,4.4,6.2,5,7c1.6,0.3,3.4,0.3,5,0l1-4l-5,2c-0.7-0.8-4.3-5.4-5-6L-65.6-962.2z"/>
			<path class="st41" d="M-62.6-958.2l2,3c2.7,0.3,5.3,0.3,8,0v-5l-7,2l-2-1C-62-958.9-62.3-958.6-62.6-958.2z"/>
		</g>
		<path class="st42" d="M-63.8-961.9c0-0.3,0-0.7,0-1c-0.1-0.1-0.9-0.2-1,0l0,0c-0.3-0.2-0.7-0.2-1,0c-0.4,0.8,0.4,1.6,1,2
			L-63.8-961.9z"/>
	</g>
</g>
</svg>
