<svg xmlns="http://www.w3.org/2000/svg" xmlns:xlink="http://www.w3.org/1999/xlink" width="136.154" height="83" viewBox="0 0 136.154 83"><defs><linearGradient id="a" y1="0.5" x2="1" y2="0.5" gradientUnits="objectBoundingBox"><stop offset="0" stop-color="#0085f2"/><stop offset="1" stop-color="#003286"/></linearGradient><linearGradient id="b" x1="0.003" y1="0.486" x2="1.003" y2="0.486" xlink:href="#a"/><linearGradient id="d" y1="0.5" x2="1" y2="0.5" gradientUnits="objectBoundingBox"><stop offset="0" stop-color="#4affc7"/><stop offset="1" stop-color="#3badea"/></linearGradient><linearGradient id="e" x1="0" y1="0.5" x2="1" y2="0.5" xlink:href="#a"/><linearGradient id="g" x1="-0.001" y1="0.501" x2="1.001" y2="0.501" xlink:href="#a"/><linearGradient id="m" y1="0.5" x2="1" y2="0.5" gradientUnits="objectBoundingBox"><stop offset="0" stop-color="#cacced"/><stop offset="1" stop-color="#fff"/></linearGradient><linearGradient id="p" x1="0.5" y1="1" x2="0.5" gradientUnits="objectBoundingBox"><stop offset="0" stop-color="#ffdfb9"/><stop offset="1" stop-color="#e83155"/></linearGradient><linearGradient id="q" y1="0.5" x2="1" y2="0.5" gradientUnits="objectBoundingBox"><stop offset="0" stop-color="#e83155"/><stop offset="1" stop-color="#ffdfb9"/></linearGradient><linearGradient id="r" y1="0.5" x2="1" y2="0.5" gradientUnits="objectBoundingBox"><stop offset="0" stop-color="#00d0ff"/><stop offset="1" stop-color="#007fd9"/></linearGradient><linearGradient id="s" x1="0" y1="0.5" x2="1" y2="0.5" xlink:href="#q"/><linearGradient id="t" x1="0" y1="0.5" x2="1" y2="0.5" xlink:href="#m"/><linearGradient id="u" x1="0" y1="0.5" x2="1" y2="0.5" xlink:href="#m"/><linearGradient id="aa" x1="0" y1="0.5" x2="1" y2="0.5" xlink:href="#r"/><linearGradient id="ac" x1="0" y1="0.5" x2="1" y2="0.5" xlink:href="#m"/><linearGradient id="af" x1="0" y1="0.5" x2="1.015" y2="0.5" xlink:href="#a"/><linearGradient id="ak" x1="0" y1="0.5" x2="1" y2="0.5" xlink:href="#q"/><linearGradient id="al" x1="0" y1="0.5" x2="1" y2="0.5" xlink:href="#m"/><linearGradient id="am" x1="0" y1="0.5" x2="1" y2="0.5" xlink:href="#m"/><linearGradient id="ao" x1="0" y1="0.5" x2="1.011" y2="0.5" xlink:href="#a"/></defs><g transform="translate(-203.846 -2159)"><g transform="translate(-6.438 523.057)"><path d="M353.2,1745.437h0v-4l1-1h-3v4a2.326,2.326,0,0,0,1,2l2,1A3.739,3.739,0,0,1,353.2,1745.437Z" transform="translate(-51.761 -44.493)" fill="url(#a)"/><path d="M355.331,1751.471h0c.01,0,.99,0,1,0Z" transform="translate(-53.893 -50.528)" fill="url(#b)"/><path d="M364.413,1728.182h0v4c0,.182.028-.19,0,0,0,.029,0,.971,0,1-.031.176-.948-.177-1,0,0,.016.005-.017,0,0-.059.193.082.81,0,1h0c-.084.193.106-.185,0,0h0c-.1.18.121.833,0,1h0c-.112.151-.875-.136-1,0-.025.029.027-.028,0,0-.1.1.1.908,0,1-.047.041.049-.039,0,0-.148.118-.843-.091-1,0l-5,3c-.153.088.146-.053,0,0h0c-.127.04.119-.014,0,0h0v1h0c.04.022-.042-.018,0,0s.956-.013,1,0c.028.008-.029-.006,0,0h0c.049.008-.05,0,0,0s-.055,0,0,0h0c.032,0-.033,0,0,0,.069-.01-.072.02,0,0,.03-.008-.03.01,0,0s.972.011,1,0-.038.016,0,0c.111-.045-.115.066,0,0l5-3c.157-.09-.149.12,0,0,.048-.038-.047.041,0,0,.072-.062.932-.932,1-1,.033-.032-.032.033,0,0h0c.031-.033-.03.034,0,0,.069-.079-.064.082,0,0,.024-.03-.022.03,0,0s-.011.015,0,0-.02.028,0,0c.048-.07-.046-.929,0-1s.96.07,1,0h0c.032-.056-.031.058,0,0s-.033.07,0,0-.028.064,0,0h0s0,0,0,0c.032-.074-.028-.927,0-1s-.025.077,0,0c.013-.038-.012.038,0,0h0c.026-.093-.02.094,0,0,.012-.056-.01-.944,0-1,.005-.029,0,.029,0,0s0,.027,0,0c.021-.161,0,.155,0,0v-4h1Z" transform="translate(-53.976 -38.239)" fill="url(#a)"/><path d="M364.886,1730.164v4a4.589,4.589,0,0,1-2,4l-5,3c-1.342.775-2-.458-2-2v-4l-1,1v4c.006,1.885,1.364,1.945,3,1l5-2a6.341,6.341,0,0,0,3-5v-4Z" transform="translate(-53.449 -39.221)" fill="url(#d)"/><path d="M322.567,1734.41v-5h1l-2-1h0v4a2.329,2.329,0,0,0,1,2l1,1C323.149,1735.166,322.676,1735.047,322.567,1734.41Z" transform="translate(-36.13 -38.466)" fill="url(#e)"/><path d="M333.821,1716.155h0v4c0,.181.029.811,0,1,0,.029.005-.03,0,0-.031.176.052-.178,0,0-.006.016.005-.016,0,0-.059.193.083.81,0,1h-1c-.084.193.106.814,0,1h0c-.1.181.122-.167,0,0h0c-.112.151-.876.865-1,1-.027.03.027-.029,0,0-.1.1.105-.092,0,0-.047.04.049-.038,0,0-.148.118-.843-.091-1,0l-4,3c-.153.089-.854-.052-1,0h0c-.114.036.108.985,0,1h1c.04.023-.043-.018,0,0s-.044-.013,0,0c.028.008-.03-.006,0,0,.006,0-.007,0,0,0h0c.049.008-.05,0,0,0s-.055,0,0,0h0c.031,0-.033,0,0,0,.069-.01.927.02,1,0,.03-.008-.03.009,0,0s-.028.01,0,0-.037.016,0,0c.111-.047-.115.066,0,0l5-3c.158-.09.851.119,1,0,.048-.038-.048.04,0,0,.071-.063-.069.068,0,0,.033-.032-.031.033,0,0s-.027.029,0,0-.03-.966,0-1c.068-.078-.064.082,0,0h0c.021-.028.98.029,1,0,.048-.069-.046.072,0,0s-.041.07,0,0h0s0,.006,0,0c.032-.055-.031-.943,0-1s-.033.069,0,0-.028.064,0,0h0c.032-.072-.028.073,0,0s-.025-.923,0-1c.013-.038-.011.038,0,0,.005-.017,0,.017,0,0h0c.026-.094-.02.093,0,0,.012-.056-.01.056,0,0,.005-.029,0,.029,0,0s0,.027,0,0c.02-.161,1-.845,1-1l-1-4h1Z" transform="translate(-38.383 -32.212)" fill="url(#a)"/><path d="M325.7,1739.315c.012,0-.012,1,0,1h0v-1Z" transform="translate(-38.26 -44.372)" fill="url(#g)"/><path d="M334.256,1718.137l1,4c0,1.542-1.653,3.222-3,4l-5,3c-1.342.775-2,.542-2-1v-4h-1v4c.005,1.884,1.365,2.944,3,2l5-3a6.341,6.341,0,0,0,3-5v-4Z" transform="translate(-37.818 -33.193)" fill="url(#d)"/><path d="M325.845,1745.209l4,3v-4l-4-3Z" transform="translate(-38.408 -45.266)" fill="url(#d)"/><path d="M325.857,1740.175l4,3,2-1-4-3Z" transform="translate(-38.42 -44.232)" fill="#002e8a"/><path d="M334.356,1749.771l2-1v-4l-2,1Z" transform="translate(-42.918 -46.828)" fill="url(#a)"/><path d="M363.713,1726.141c-.125.159.16.849,0,1-.138.13-.835-.123-1,0h0c-.165.119-.809-.111-1,0l-8,5c-.23.134-.748.887-1,1-.083.036.084-.034,0,0-.175.071-.817-.061-1,0-.144.048.148-.042,0,0-.074.021.075-.019,0,0-.235.062-.757-.047-1,0v3c.244-.047.765.061,1,0,.074-.019-.074.021,0,0,.109-.032-.106.034,0,0,.039-.012-.038.013,0,0,.184-.061.824.071,1,0,.084-.034-.083.036,0,0,.252-.112.77-.865,1-1l8-5c.035-.021.966.02,1,0,.153-.092-.135.1,0,0h0c.154-.115-.131.121,0,0,.009-.008.99.009,1,0,.16-.151-.124-.841,0-1h0c.115-.145-.084.15,0,0h18c2.172,0,3.994-1.363,4-3h-22C363.627,1726.293,363.828,1725.994,363.713,1726.141Z" transform="translate(-51.275 -37.197)" fill="#002e8a"/><path d="M309.115,1734.551c-.317-.052-.695.077-1,0-.068-.016-.932.019-1,0-.356-.1-.669.132-1,0h0c-.341-.139-.695-.824-1-1l-4-2a4.149,4.149,0,0,1-2-3h-21l-1,1c.008.971,1.712,2,3,2h19a4.289,4.289,0,0,0,2,3l4,2c.305.177.66.861,1,1h0c.287.113.694-.087,1,0,.036.011-.036-.01,0,0,.068.019.931-.017,1,0,.153.039-.156-.032,0,0s.841-.026,1,0h0c.239.034.758-.02,1,0,.12.01-.12.993,0,1h0v-3c-.4-.02-.613-.942-1-1Z" transform="translate(-13.677 -38.608)" fill="#002e8a"/><path d="M327.127,1700.538c-.159-.96-1.728-2.265-3-3l-4-2c-1.272-.735-3.342-1.911-5-2v-14h-3v15a9.836,9.836,0,0,0-3,1l-8,4a7.116,7.116,0,0,0-2,2h-21v2h21a4.29,4.29,0,0,0,2,3l4,2c1.272.735,3.342,1.91,5,2v12h3v-13a9.9,9.9,0,0,0,3-1l8-5c.841-.489,1.656-.388,2-1h22v-2Z" transform="translate(-13.69 -13.594)" fill="url(#a)"/><path d="M348.117,1718.219l-1-1a7.238,7.238,0,0,0-3-1h-2a7.594,7.594,0,0,0-2,1l-5,3a1.645,1.645,0,0,0,0,3l1,1a7.22,7.22,0,0,0,3,1h2a7.531,7.531,0,0,0,2-1l5-3A1.645,1.645,0,0,0,348.117,1718.219Z" transform="translate(-42.679 -32.275)" fill="url(#d)"/><g transform="translate(284.174 1700.541)"><path d="M335.294,1753.269c-12.474,0-15,8-15,8v1c-.263,4.56,5.578,8,13,8,7.875,0,13.959-4.078,14-9a13.989,13.989,0,0,0,0-2C346.518,1755.849,344.755,1753.269,335.294,1753.269Zm-2,16c-4.221,0-8.191-1.781-10-4a5.022,5.022,0,0,1-1-4c.767-3.741,6.811-6,13-6,3.892,0,7.023,1.01,9,3,.988,1,2.008,1.839,2,3C346.261,1765.3,340.025,1769.269,333.294,1769.269Z" transform="translate(-320.03 -1751.866)" fill="url(#m)"/><path d="M345.519,1771.588c-1.481,0-2.974-1.07-3-2v3c0,.947,1.5,1,3,1,1.579,0,2.913-.983,3-2,0-.056,0-1.994,0-2C348.519,1770.6,347.1,1771.588,345.519,1771.588Z" transform="translate(-331.256 -1760.185)" fill="url(#a)"/><path d="M354.66,1769.794Z" transform="translate(-337.397 -1760.392)" fill="#fff"/><path d="M345.562,1765.884c-1.537,0-2.872,1-3,2-.13,1.017,1.421,2,3,2s2.913-.983,3-2C348.649,1766.883,347.1,1765.884,345.562,1765.884Z" transform="translate(-331.299 -1758.482)" fill="url(#d)"/><path d="M348.025,1765.562a2,2,0,0,0-2,0c-.329.2-1,.742-1,1v1c0,.211.765-.162,1,0a1.962,1.962,0,0,0,2,0c.328-.2,0,.257,0,0v-1C348.021,1766.348,348.265,1765.724,348.025,1765.562Z" transform="translate(-332.762 -1758.159)" fill="#002e8a"/><path d="M346.02,1758.912h0a1.607,1.607,0,0,0-1,0l-8,4-1,1c-.158.094.174.065,0,0l-1-1a2.122,2.122,0,0,0-1,0l-6,4h0a7.307,7.307,0,0,0,1,1h0a1.4,1.4,0,0,0,1,0l8-4,1-1a2.13,2.13,0,0,1,1,0h0a2.123,2.123,0,0,0,1,0l6-3c.24-.164,0-1,0-1A1.231,1.231,0,0,1,346.02,1758.912Z" transform="translate(-323.757 -1754.51)" fill="url(#p)"/><path d="M346.067,1757.5h0a6.357,6.357,0,0,0-1,0c-.115,0,.09-.054,0,0l-8,5h-1c-.157.095.175.066,0,0h-1a2.124,2.124,0,0,0-1,0l-6,4c-.181.107-.114-.123,0,0a7.342,7.342,0,0,0,1,1h0a1.4,1.4,0,0,0,1,0l8-5,1-1a2.149,2.149,0,0,1,1,0v1a2.12,2.12,0,0,0,1,0l6-4c.158-.1.123.11,0,0A8.248,8.248,0,0,0,346.067,1757.5Z" transform="translate(-323.804 -1754.102)" fill="url(#q)"/><path d="M348.025,1765.561c-.263-.178-.632,0-1,0s-.7-.178-1,0c-.6.358-.526.637,0,1a1.962,1.962,0,0,0,2,0C348.625,1766.2,348.556,1765.92,348.025,1765.561Z" transform="translate(-332.762 -1758.159)" fill="url(#r)"/><path d="M335.3,1750.82c-6.939,0-13.061,3.406-14,8-1.009,4.922,4.129,9,12,9s13.959-4.078,14-9C347.34,1754.226,342.239,1750.82,335.3,1750.82Zm-2,15c-4.221,0-8.191-.781-10-3a5.022,5.022,0,0,1-1-4c.767-3.741,6.811-7,13-7,3.892,0,7.023,1.011,9,3a7.092,7.092,0,0,1,2,4C346.27,1762.847,340.035,1765.82,333.3,1765.82Z" transform="translate(-320.04 -1750.417)" fill="#fff"/><path d="M322.568,1759.141h-1c-.973,1.121-1.725,1.731-2,3a6.887,6.887,0,0,0,0,4h1a7.421,7.421,0,0,1,0-4C320.814,1760.965,321.674,1760.182,322.568,1759.141Z" transform="translate(-319.305 -1754.738)" fill="#d3d3d3"/><path d="M322.568,1759.14h-1c-.973,1.122-1.725,1.731-2,3a6.887,6.887,0,0,0,0,4h1a7.431,7.431,0,0,1,0-4C320.814,1760.965,321.673,1760.181,322.568,1759.14Z" transform="translate(-319.305 -1754.737)" fill="url(#s)"/><path d="M319.568,1769.369h0v3h1v-1h-1C319.234,1770.565,319.563,1770.206,319.568,1769.369Z" transform="translate(-319.305 -1759.966)" fill="url(#t)"/><path d="M321.772,1764.417a4.752,4.752,0,0,1,0-1,10.514,10.514,0,0,1,2-4h0c-.894,1.041-1.755,1.825-2,3A12.174,12.174,0,0,0,321.772,1764.417Z" transform="translate(-320.509 -1755.014)" fill="url(#u)"/></g><g transform="translate(318.548 1674.76)"><path d="M405.726,1699.945c-12.474,0-14,8-14,8v1c-.264,4.56,4.577,8,12,8,7.875,0,14.959-4.078,15-9,0-.1,0-1,0-1S415.187,1699.945,405.726,1699.945Zm-2,16a11.22,11.22,0,0,1-9-4c-.919-1.123-1.259-1.724-1-3,.766-3.74,5.811-7,12-7,3.893,0,8.023,1.01,10,3a3.528,3.528,0,0,1,1,3C416.693,1711.973,410.456,1715.945,403.726,1715.945Z" transform="translate(-390.837 -1698.762)" fill="url(#m)"/><path d="M416.01,1718.471c-1.481,0-2.973-1.07-3-2v3c0,.947,1.5,2,3,2,1.58,0,2.912-.984,3-2,0-.056,0-3,0-3C419.01,1717.488,417.59,1718.471,416.01,1718.471Z" transform="translate(-402.121 -1707.288)" fill="url(#a)"/><path d="M415.995,1712.561c-1.537,0-2.872,1-3,2-.13,1.017,1.42,2,3,2s2.912-.983,3-2C419.081,1713.56,417.532,1712.561,415.995,1712.561Z" transform="translate(-402.106 -1705.378)" fill="url(#d)"/><path d="M418.457,1712.237a2,2,0,0,0-2,0c-.328.2,0,.742,0,1v1c0,.211-.235.837,0,1a1.964,1.964,0,0,0,2,0c.327-.2,1-.742,1-1v-1C419.452,1713.024,418.7,1712.4,418.457,1712.237Z" transform="translate(-403.568 -1705.054)" fill="#002e8a"/><path d="M416.452,1705.588h0a1.606,1.606,0,0,0-1,0l-7,4-1,1a2.116,2.116,0,0,1-1,0h-1c-.173-.066.158-.094,0,0l-7,3s-.19.794,0,1a7.363,7.363,0,0,0,1,1h0a1.4,1.4,0,0,0,1,0l8-5,1-1a2.139,2.139,0,0,1,1,0h1c.175.064-.154.094,0,0l6-3c.239-.164,0-1,0-1A1.236,1.236,0,0,1,416.452,1705.588Z" transform="translate(-394.563 -1701.405)" fill="url(#p)"/><path d="M416.5,1704.181h0c-.083-.053.111,0,0,0h0a6.256,6.256,0,0,0-1,0l-7,5-1,1a2.1,2.1,0,0,1-1,0l-1-1c-.173-.065.159-.094,0,0l-6,4c-.18.106-1.113-.123-1,0a7.344,7.344,0,0,0,1,1h0a1.4,1.4,0,0,0,1,0l8-5h1a2.143,2.143,0,0,1,1,0h1c.176.065-.153.094,0,0l6-3c.157-.1.123-.89,0-1A8.317,8.317,0,0,0,416.5,1704.181Z" transform="translate(-394.61 -1700.998)" fill="url(#q)"/><path d="M418.457,1712.237c-.264-.179-.633,0-1,0s-.7-.179-1,0a1.394,1.394,0,0,0,0,2,1.962,1.962,0,0,0,2,0A1.392,1.392,0,0,0,418.457,1712.237Z" transform="translate(-403.568 -1705.054)" fill="url(#aa)"/><path d="M405.735,1697.5c-6.94,0-13.061,3.406-14,8-1.009,4.922,4.129,9,12,9s14.959-4.078,15-9C418.772,1700.9,412.671,1697.5,405.735,1697.5Zm-2,15c-4.221,0-7.192-.781-9-3a5.019,5.019,0,0,1-1-4c.766-3.741,5.811-7,12-7a15.519,15.519,0,0,1,10,4,3.527,3.527,0,0,1,1,3C416.7,1709.523,410.466,1712.5,403.735,1712.5Z" transform="translate(-390.846 -1697.313)" fill="#fff"/><path d="M393,1705.816h-1c-.973,1.122-1.725,1.731-2,3-.281,1.292.489,2.772,1,4h1c-.482-1.133-1.25-2.8-1-4C391.246,1707.64,392.105,1706.857,393,1705.816Z" transform="translate(-390.111 -1701.633)" fill="#d3d3d3"/><path d="M393,1705.816h-1c-.973,1.122-1.725,1.731-2,3-.281,1.292.489,2.771,1,4h1c-.481-1.133-1.25-2.8-1-4C391.246,1707.64,392.105,1706.857,393,1705.816Z" transform="translate(-390.111 -1701.633)" fill="url(#q)"/><path d="M390,1716.045h0v1a6.863,6.863,0,0,0,1,3v-2h0C390.666,1717.241,389.995,1716.882,390,1716.045Z" transform="translate(-390.111 -1706.862)" fill="url(#ac)"/><path d="M392.2,1711.092a4.75,4.75,0,0,1,0-1,10.5,10.5,0,0,1,2-4h0c-.895,1.042-1.755,1.824-2,3A12.12,12.12,0,0,0,392.2,1711.092Z" transform="translate(-391.315 -1701.909)" fill="url(#t)"/></g><g transform="translate(286.22 1653.481)"><path d="M339.462,1656.393c-12.473,0-15,8-15,8v1c-.264,4.561,5.578,8,13,8,7.875,0,13.959-4.078,14-9,0-.1,0-2,0-2S348.924,1656.393,339.462,1656.393Zm-2,16c-4.221,0-8.191-1.781-10-4a5.021,5.021,0,0,1-1-4c.767-3.741,6.811-6,13-6,3.893,0,7.023,1.011,9,3,.988,1,2.008,1.839,2,3C350.429,1668.42,344.193,1672.393,337.462,1672.393Z" transform="translate(-324.245 -1654.93)" fill="url(#m)"/><path d="M358.829,1672.917Z" transform="translate(-341.611 -1663.455)" fill="#fff"/><path d="M349.747,1675.116c-1.481,0-2.973-1.07-3-2v3c0,.947,1.5,1,3,1,1.472,0,2.761-.078,3-1v-3A3.682,3.682,0,0,1,349.747,1675.116Z" transform="translate(-335.529 -1663.654)" fill="url(#af)"/><path d="M349.731,1669.008c-1.537,0-2.872,1-3,2s1.42,2,3,2,2.912-.984,3-2S351.268,1669.008,349.731,1669.008Z" transform="translate(-335.514 -1661.546)" fill="url(#d)"/><path d="M352.194,1668.684a2,2,0,0,0-2,0c-.329.2-1,.742-1,1v1c0,.211.764-.163,1,0a1.962,1.962,0,0,0,2,0c.328-.2,0,.258,0,0v-1C352.189,1669.47,352.434,1668.847,352.194,1668.684Z" transform="translate(-336.976 -1661.222)" fill="#002e8a"/><path d="M350.189,1661.035h0a1.607,1.607,0,0,0-1,0l-8,5-1,1c-.158.094.174.065,0,0l-1-1a2.12,2.12,0,0,0-1,0l-6,4h0a7.256,7.256,0,0,0,1,1h0a1.4,1.4,0,0,0,1,0l8-5h1a2.154,2.154,0,0,1,1,0h0a2.131,2.131,0,0,0,1,0l6-3c.24-.163,0-1,0-1A6.058,6.058,0,0,0,350.189,1661.035Z" transform="translate(-327.972 -1657.573)" fill="url(#p)"/><path d="M350.235,1660.627h0a6.313,6.313,0,0,0-1,0h0c-.116,0,.089-.053,0,0l-8,5h-1c-.158.095.174.066,0,0h-1a2.117,2.117,0,0,0-1,0l-6,4c-.18.106-.114-.123,0,0a7.316,7.316,0,0,0,1,1h0a1.4,1.4,0,0,0,1,0l8-5,1-1a2.149,2.149,0,0,1,1,0v1a2.128,2.128,0,0,0,1,0l6-4c.158-.1.122.11,0,0A8.344,8.344,0,0,0,350.235,1660.627Z" transform="translate(-328.018 -1657.165)" fill="url(#q)"/><path d="M352.194,1668.684c-.263-.179-.632,0-1,0s-.7-.179-1,0c-.6.358-.527.637,0,1a1.962,1.962,0,0,0,2,0C352.793,1669.321,352.724,1669.043,352.194,1668.684Z" transform="translate(-336.977 -1661.222)" fill="url(#aa)"/><path d="M339.472,1653.943c-6.939,0-13.062,3.406-14,8-1.01,4.922,4.129,9,12,9s13.959-4.078,14-9C351.509,1657.349,346.408,1653.943,339.472,1653.943Zm-2,15c-4.221,0-8.191-.781-10-3a5.021,5.021,0,0,1-1-4c.767-3.74,6.811-7,13-7,3.893,0,7.023,1.01,9,3a7.088,7.088,0,0,1,2,4C350.439,1665.971,344.2,1668.943,337.472,1668.943Z" transform="translate(-324.255 -1653.481)" fill="#fff"/><path d="M323.737,1665.264a6.883,6.883,0,0,0,0,4h1a7.421,7.421,0,0,1,0-4c.245-1.175,1.105-1.959,2-3h-1C324.764,1663.385,324.012,1664,323.737,1665.264Z" transform="translate(-323.52 -1657.802)" fill="#d3d3d3"/><path d="M323.737,1665.263a6.883,6.883,0,0,0,0,4h1a7.426,7.426,0,0,1,0-4c.245-1.175,1.1-1.959,2-3h-1C324.764,1663.385,324.012,1664,323.737,1665.263Z" transform="translate(-323.52 -1657.801)" fill="url(#ak)"/><path d="M323.738,1672.491h0v3h1v-1h-1C323.4,1673.687,323.732,1673.329,323.738,1672.491Z" transform="translate(-323.52 -1663.029)" fill="url(#al)"/><path d="M325.941,1667.539a18.693,18.693,0,0,1,0-2c.245-1.176,1.1-1.959,2-3h0c-.9,1.042-1.755,1.825-2,3A12.011,12.011,0,0,0,325.941,1667.539Z" transform="translate(-324.724 -1658.077)" fill="url(#am)"/></g><g transform="translate(251.028 1677.215)"><path d="M267.163,1705.548c-12.474,0-15,8-15,8v1c-.263,4.56,5.578,8,13,8,7.875,0,13.96-4.078,14-9,0-.1,0-2,0-2S276.624,1705.548,267.163,1705.548Zm-2,15c-4.22,0-8.192-.781-10-3a5.023,5.023,0,0,1-1-4c.767-3.74,6.811-7,13-7,3.892,0,7.023,1.01,9,3,.988,1,1.008,2.839,1,4C277.13,1717.576,271.894,1720.548,265.163,1720.548Z" transform="translate(-251.753 -1703.82)" fill="url(#m)"/><path d="M277.448,1724.271c-1.481,0-2.973-1.07-3-2v2c0,.947,1.5,2,3,2,1.545,0,2.859-1.014,3-2v-2A3.508,3.508,0,0,1,277.448,1724.271Z" transform="translate(-263.038 -1712.543)" fill="url(#ao)"/><path d="M277.432,1718.163c-1.537,0-2.872,1-3,2s1.421,2,3,2,2.912-.984,3-2S278.969,1718.163,277.432,1718.163Z" transform="translate(-263.022 -1710.435)" fill="url(#d)"/><path d="M279.894,1717.839a2,2,0,0,0-2,0c-.329.2-1,.742-1,1h0c0,.211.765.838,1,1a1.962,1.962,0,0,0,2,0c.328-.2.005-.743,0-1v-1C279.89,1717.626,280.134,1718,279.894,1717.839Z" transform="translate(-264.484 -1710.111)" fill="#002e8a"/><path d="M276.889,1710.19h0c-.167-.107.177-.107,0,0l-8,5h-1c-.158.094.173.065,0,0h-1a2.125,2.125,0,0,0-1,0l-6,4h0a7.283,7.283,0,0,0,1,1h0a1.4,1.4,0,0,0,1,0l8-5h1c.154-.094-.174-1.065,0-1l1,1a2.136,2.136,0,0,0,1,0l5-4c.24-.164,1,0,1,0S277.294,1710.447,276.889,1710.19Z" transform="translate(-255.479 -1706.462)" fill="url(#p)"/><path d="M276.936,1709.783h0c-.082-.053.112,0,0,0s.09-.054,0,0l-8,4-1,1c-.158.1.174.066,0,0h-1a2.128,2.128,0,0,0-1,0l-6,3c-.18.106-.114.876,0,1a7.366,7.366,0,0,0,1,1h0a1.4,1.4,0,0,0,1,0l8-5,1-1c.154-.094-.174-.064,0,0h1a2.13,2.13,0,0,0,1,0l5-3c.158-.1.123.11,0,0A8.306,8.306,0,0,0,276.936,1709.783Z" transform="translate(-255.526 -1706.055)" fill="url(#q)"/><path d="M279.894,1717.84c-.264-.178-.632,0-1,0s-.7-.178-1,0c-.6.358-.527.637,0,1a1.967,1.967,0,0,0,2,0C280.494,1718.476,280.425,1718.2,279.894,1717.84Z" transform="translate(-264.484 -1710.112)" fill="url(#aa)"/><path d="M267.173,1702.1c-6.939,0-14.061,3.406-15,8-1.009,4.922,5.129,10,13,10s13.96-5.078,14-10C279.21,1705.5,274.108,1702.1,267.173,1702.1Zm-2,16c-4.22,0-8.192-1.781-10-4-.919-1.124-1.258-1.725-1-3,.767-3.741,6.811-7,13-7,3.892,0,7.023,1.01,9,3a3.529,3.529,0,0,1,1,3C277.14,1714.125,271.9,1718.1,265.173,1718.1Z" transform="translate(-251.763 -1702.37)" fill="#fff"/><path d="M254.438,1711.419l-1-1a9.786,9.786,0,0,0-2,4,6.891,6.891,0,0,0,0,4l1-1a4.24,4.24,0,0,1,0-3C252.682,1713.243,253.543,1712.46,254.438,1711.419Z" transform="translate(-251.028 -1706.69)" fill="#d3d3d3"/><path d="M254.438,1711.418l-1-1a9.79,9.79,0,0,0-2,4,6.891,6.891,0,0,0,0,4l1-1a4.239,4.239,0,0,1,0-3C252.682,1713.242,253.542,1712.459,254.438,1711.418Z" transform="translate(-251.028 -1706.69)" fill="url(#q)"/><path d="M251.438,1720.647h0v4h1v-1h0v-1l-1,1C251.1,1722.843,251.432,1721.484,251.438,1720.647Z" transform="translate(-251.028 -1711.919)" fill="url(#t)"/><path d="M253.641,1715.695a4.748,4.748,0,0,1,0-1c.246-1.176,1.1-1.959,2-3h0c-.9,1.041-1.754,1.824-2,3A3.045,3.045,0,0,0,253.641,1715.695Z" transform="translate(-252.231 -1706.967)" fill="url(#t)"/></g></g><g transform="translate(-47.028 505.24)"><path d="M352.847,1742.934h0v-3h-1v2c0,.475-.271.843,0,1l1,1C352.634,1743.81,352.9,1743.257,352.847,1742.934Z" transform="translate(-75.819 -65.174)" fill="url(#a)"/><path d="M355.97,1751.773Z" transform="translate(-78.942 -74.013)" fill="url(#b)"/><path d="M360.091,1727.772h0v2c0,.092.014-.1,0,0,0,.015,0,.985,0,1-.016.089.027-.09,0,0h0c-.03.1.042-.1,0,0h0c-.043.1.054-.094,0,0h0c-.053.092-.938.915-1,1h0c-.057.077.063-.069,0,0-.013.014.014-.014,0,0-.05.052.053-.047,0,0-.024.021.025-.02,0,0-.075.06.08-.046,0,0l-3,2c-.078.045.074-.027,0,0h0c-.064.02.06-.007,0,0h0c.02.011-.021-.009,0,0s-.022-.006,0,0h0c.025,0,.974,0,1,0s-.028,0,0,0h0c.016,0-.017,0,0,0,.035-.005-.037.01,0,0h0c.019-.007-.019.008,0,0,.056-.023-.058.034,0,0l3-1c.08-.046-.075.061,0,0,.024-.019-.024.021,0,0s-.035-.966,0-1h0c.035-.04-.033.042,0,0h0c.006-.008-.005.008,0,0h0c.024-.036-.023.036,0,0s-.02.035,0,0h0c.016-.028-.016.029,0,0s.983.036,1,0-.014.032,0,0h0s0,0,0,0c.016-.038-.014-.963,0-1s-.013.039,0,0c.006-.019-.006.02,0,0h0c.013-.047-.01.047,0,0,.006-.029-.005.029,0,0s0,.015,0,0,0,.014,0,0c.011-.082,0,.079,0,0v-3Z" transform="translate(-79.064 -56.012)" fill="url(#a)"/><path d="M360.319,1730.21v2a2.266,2.266,0,0,1-1,2l-3,1c-.681.393-1,.782-1,0v0c0,.956.17,1.479,1,1l3-2a1.917,1.917,0,0,0,1-2v-2Z" transform="translate(-78.292 -57.45)" fill="url(#d)"/><path d="M321.95,1731.105h0v-2h0v-1h-1v2c0,.475.73.843,1,1l1,1C322.738,1731.982,322.006,1731.428,321.95,1731.105Z" transform="translate(-52.923 -56.345)" fill="url(#e)"/><path d="M330.251,1715.943h-1v2c0,.092.015.9,0,1,0,.015,0-.015,0,0-.016.089.026-.09,0,0h0c-.03.1.042-.1,0,0h0c-.043.1.054.906,0,1h0c-.053.092.062-.085,0,0h0c-.057.077.063-.069,0,0h0c-.05.052.053-.046,0,0-.024.021-.975-.019-1,0-.075.06.08-.046,0,0l-2,2c-.078.045.074-.027,0,0h0c-.058.019-.945-.008-1,0h1c.02.011-.022-.009,0,0s-.022-.006,0,0-.015,0,0,0h0c.025,0-.026,1,0,1s-.028,0,0,0h0c.006,0-.006-1,0-1s-.016,0,0,0c.035-.005-.037.01,0,0h0c.056-.024.942.033,1,0l2-1c.08-.046-.076.06,0,0,.024-.019-.024.02,0,0s-.035.034,0,0c.017-.016.984.017,1,0s-.014.014,0,0-.015-.983,0-1c.035-.04-.033.042,0,0h0c.011-.014-.01.015,0,0,.024-.035-.023.037,0,0s-.021.036,0,0h0c.016-.028-.016.029,0,0s-.017.035,0,0-.014.032,0,0h0c.016-.037-.014.037,0,0s-.013-.961,0-1c.006-.019-.006.019,0,0h0c.013-.047-.01.047,0,0,.006-.029-.005.028,0,0s0,.015,0,0,0,.014,0,0c.01-.082,0,.079,0,0v-2h1Z" transform="translate(-56.223 -47.183)" fill="url(#a)"/><path d="M325.071,1739.756Z" transform="translate(-56.043 -64.996)" fill="url(#g)"/><path d="M329.423,1718.382v2a2.267,2.267,0,0,1-1,2l-2,1c-.681.393-2,.782-2,0v-2h0v2a1.317,1.317,0,0,0,2,1l2-2c.832-.48,2-1.043,2-2v-2Z" transform="translate(-55.396 -48.622)" fill="url(#d)"/><path d="M325.287,1743.065l3,2v-2l-3-2Z" transform="translate(-56.259 -66.305)" fill="url(#d)"/><path d="M325.3,1739.551l3,2v-1l-2-1Z" transform="translate(-56.277 -64.791)" fill="#002e8a"/><path d="M334.894,1747.353v0Z" transform="translate(-62.866 -68.593)" fill="url(#a)"/><path d="M357.135,1726.247c-.063.081.081-.077,0,0s.084-.062,0,0h0c-.083.061-.9-.057-1,0l-4,3c-.117.068.128-.057,0,0-.042.019.043-.018,0,0-.089.036-.907-.031-1,0-.073.024.075-.021,0,0h0c-.119.031.123-.024,0,0v2c.124-.024-.119.031,0,0,.038-.01-.037.011,0,0,.055-.016-.054.017,0,0h0c.093-.031.911.036,1,0,.043-.017-.042.018,0,0,.128-.057-.117-.932,0-1l4-2h0c.078-.047.932.05,1,0h0c.078-.058-.066.062,0,0,0,0,0-1,0-1,.081-.076-.063.081,0,0h0c.058-.074-.043.076,0,0h9c1.1,0,2-.169,2-1h-11C357.092,1726.324,357.194,1726.172,357.135,1726.247Z" transform="translate(-75.108 -54.487)" fill="#002e8a"/><path d="M293.062,1731.313c-.161-.027.155.039,0,0-.035-.008.035.01,0,0-.181-.049-.832.067-1,0h0c-.173-.071.155.089,0,0l-3-1a3.01,3.01,0,0,1-1-2h-10v1a.975.975,0,0,0,1,1h9c.081.487.354.627,1,1l3,1c.155.09-.173.929,0,1h0c.146.057.845-.044,1,0h0c.034.01-.035-.009,0,0,.078.02-.079-.016,0,0s-.081-.013,0,0h0c.121.017.877-.01,1,0,.061,0-.061,0,0,0h0v-1c-.2-.01-.8-.971-1-1Z" transform="translate(-20.035 -56.552)" fill="#002e8a"/><path d="M302.08,1690.673a3.093,3.093,0,0,0-1-2l-2-1c-.646-.373-1.159-.955-2-1v-7h-2v7c-.535.1-.573.752-1,1l-5,2a3.509,3.509,0,0,0-1,1h-10v1h10a3.094,3.094,0,0,0,1,2l3,1c.646.373,1.159.955,2,1v6h2v-7c.537-.1.575.247,1,0l4-3c.427-.248.826.311,1,0h11v-1Z" transform="translate(-20.053 -19.913)" fill="url(#a)"/><path d="M341.544,1717.037h-1c-.365-.21-.429-.969-1-1h-1c-.343.065-.77.866-1,1l-3,1a1.262,1.262,0,0,0,0,2h1c.363.209.426.969,1,1h1c.35-.067.774-.869,1-1l3-1A1.262,1.262,0,0,0,341.544,1717.037Z" transform="translate(-62.516 -47.277)" fill="url(#d)"/><g transform="translate(267.846 1677.358)"><path d="M327.549,1752.942c-6.329,0-7,4-7,4v1c-.133,2.313,3.234,4,7,4,4,0,6.979-2.5,7-5,0-.052.048.21,0,0C334.156,1755.206,332.35,1752.942,327.549,1752.942Zm0,8a6.668,6.668,0,0,1-5-2c-.467-.57-1.131-.353-1-1,.389-1.9,2.86-4,6-4a7.651,7.651,0,0,1,5,2c.5.507,1,.411,1,1C333.533,1758.985,330.965,1760.942,327.549,1760.942Z" transform="translate(-320.368 -1752.54)" fill="url(#m)"/><path d="M343.993,1770.127a.934.934,0,0,1-1-1v2a.918.918,0,0,0,1,1c.8,0,.956-.484,1-1,0-.028,0-2,0-2A.886.886,0,0,1,343.993,1770.127Z" transform="translate(-336.811 -1764.725)" fill="url(#a)"/><path d="M353.988,1769.43Z" transform="translate(-345.806 -1765.028)" fill="#fff"/><path d="M344.056,1765.632c-.78,0-.935.492-1,1s.2,1,1,1,.956-.484,1-1A.879.879,0,0,0,344.056,1765.632Z" transform="translate(-336.874 -1762.23)" fill="url(#d)"/><path d="M347.2,1765.159a.99.99,0,0,0-1,0,4.761,4.761,0,0,0-1,1h0c0,.107-.119.918,0,1a.968.968,0,0,0,1,0,4.752,4.752,0,0,0,1-1h0C347.2,1766.051,347.321,1765.242,347.2,1765.159Z" transform="translate(-339.017 -1761.757)" fill="#002e8a"/><path d="M337.008,1758.814h0c-.085-.054.09-.054,0,0l-4,2h-1c-.08.047.088.033,0,0h-1c-.088-.033.081-.047,0,0l-3,2h0c.153.165.8.851,1,1h0c.085.063-.1.062,0,0l4-3h1c.079-.047-.089-.033,0,0h0a4.14,4.14,0,0,0,1,0l2-2Z" transform="translate(-325.826 -1756.412)" fill="url(#p)"/><path d="M337.076,1757.217h0c-.042-.027.057,0,0,0s.046-.027,0,0l-4,3h-1c-.08.048.089.033,0,0h-1c-.088-.033.08-.048,0,0l-3,2c-.092.054-.058-.063,0,0,.153.166.8-.15,1,0h0c.084.062-.1.062,0,0l4-2h1c.079-.047-.088-.032,0,0h0a4.134,4.134,0,0,0,1,0l2-2c.08-.049.062.056,0,0C336.913,1758.071,337.282,1757.347,337.076,1757.217Z" transform="translate(-325.894 -1755.815)" fill="url(#q)"/><path d="M347.2,1765.159a3.7,3.7,0,0,0-1,0c-.187,0,.152-.09,0,0-.305.182-1.267.816-1,1a.968.968,0,0,0,1,0C346.5,1765.975,347.468,1765.341,347.2,1765.159Z" transform="translate(-339.017 -1761.757)" fill="url(#r)"/><path d="M327.564,1750.819c-3.521,0-6.523,1.669-7,4-.512,2.5,3.006,4,7,4s6.979-1.5,7-4C334.582,1752.488,331.083,1750.819,327.564,1750.819Zm0,8a6.668,6.668,0,0,1-5-2c-.467-.57-1.131-1.353-1-2,.389-1.9,2.86-4,6-4a7.654,7.654,0,0,1,5,2,3.5,3.5,0,0,1,1,2C333.547,1756.862,330.979,1758.819,327.564,1758.819Z" transform="translate(-320.382 -1750.417)" fill="#fff"/><path d="M320.487,1759.148h0c-.494.569-.861.356-1,1a3.4,3.4,0,0,0,0,2h1c-.245-.575-1.127-1.394-1-2S320.033,1759.677,320.487,1759.148Z" transform="translate(-319.305 -1756.746)" fill="#d3d3d3"/><path d="M320.487,1759.147h0c-.494.569-.86.356-1,1a3.4,3.4,0,0,0,0,2h1c-.244-.575-1.127-1.393-1-2S320.033,1759.676,320.487,1759.147Z" transform="translate(-319.305 -1756.746)" fill="url(#s)"/><path d="M319.487,1768.807h0v2h0v-1h0C319.317,1769.4,319.484,1769.231,319.487,1768.807Z" transform="translate(-319.305 -1764.405)" fill="url(#t)"/><path d="M321.25,1761.552c0-.186-.039.188,0,0a5.183,5.183,0,0,1,1-2h0c-.454.528-.876.4-1,1A6,6,0,0,0,321.25,1761.552Z" transform="translate(-321.069 -1757.151)" fill="url(#u)"/></g><g transform="translate(285.286 1664.278)"><path d="M398.915,1699.918c-6.329,0-7,4-7,4v1c-.134,2.313,2.234,4,6,4,4,0,6.979-2.5,7-5,0-.052,0-1,0-1S403.716,1699.918,398.915,1699.918Zm-1,8a6.668,6.668,0,0,1-5-2c-.467-.57-1.132-1.353-1-2,.389-1.9,3.86-3,7-3a7.652,7.652,0,0,1,5,2c.5.508,0,.411,0,1C403.9,1705.962,401.33,1707.918,397.915,1707.918Z" transform="translate(-391.174 -1699.436)" fill="url(#m)"/><path d="M414.444,1717.406a.935.935,0,0,1-1-1v2a.918.918,0,0,0,1,1c.8,0,1.955-.484,2-1,0-.029,0-2,0-2C416.444,1716.922,415.246,1717.406,414.444,1717.406Z" transform="translate(-407.703 -1711.924)" fill="url(#a)"/><path d="M415.422,1712.609c-.78,0-1.935.492-2,1s.2,1,1,1,1.955-.484,2-1A.879.879,0,0,0,415.422,1712.609Z" transform="translate(-407.681 -1709.126)" fill="url(#d)"/><path d="M417.563,1712.134a.987.987,0,0,0-1,0c-.167.1,0,.869,0,1h0c0,.107-.119-.083,0,0a.969.969,0,0,0,1,0c.166-.1,0,.131,0,0h0C417.561,1713.026,417.685,1712.217,417.563,1712.134Z" transform="translate(-409.822 -1708.652)" fill="#002e8a"/><path d="M407.373,1705.79h0c-.085-.054.09-.054,0,0l-4,2h0a4.134,4.134,0,0,1-1,0h0c-.088-.033.08-.048,0,0l-4,2h0c.153.165.8.85,1,1h0c.085.062-.1.063,0,0l4-3h1c.079-.047-.088-.033,0,0h1c.089.033-.078.048,0,0l3-2h0A2.522,2.522,0,0,1,407.373,1705.79Z" transform="translate(-396.632 -1703.307)" fill="url(#p)"/><path d="M407.442,1704.193h0c-.042-.027.056,0,0,0h0c-.059,0,.046-.027,0,0l-4,3h0a4.1,4.1,0,0,1-1,0h0c-.088-.033.081-.047,0,0l-3,2c-.091.054-1.057-.063-1,0,.153.165.8-.15,1,0h0c.084.062-.1.062,0,0l4-2h1c.078-.048-.088-1.032,0-1l1,1c.089.033-.078.048,0,0l3-2c.08-.049.062.056,0,0C408.278,1705.046,407.647,1704.323,407.442,1704.193Z" transform="translate(-396.701 -1702.71)" fill="url(#q)"/><path d="M417.564,1712.134a3.691,3.691,0,0,0-1,0c-.187,0,.152-.091,0,0a.69.69,0,0,0,0,1,.968.968,0,0,0,1,0A.689.689,0,0,0,417.564,1712.134Z" transform="translate(-409.823 -1708.652)" fill="url(#aa)"/><path d="M398.929,1697.8c-3.521,0-6.523,1.669-7,4-.512,2.5,2.006,4,6,4s6.979-1.5,7-4C404.947,1699.465,402.448,1697.8,398.929,1697.8Zm-1,7c-2.141,0-4.082.126-5-1-.467-.57-1.132-1.353-1-2,.389-1.9,3.86-4,7-4a7.652,7.652,0,0,1,5,2c.5.507,0,1.411,0,2C403.912,1703.839,401.344,1704.8,397.929,1704.8Z" transform="translate(-391.188 -1697.313)" fill="#fff"/><path d="M391.852,1706.123h-1c-.494.569-.861.356-1,1s.741,1.377,1,2h0a3.661,3.661,0,0,1,0-2C390.977,1706.527,391.4,1706.651,391.852,1706.123Z" transform="translate(-390.111 -1703.641)" fill="#d3d3d3"/><path d="M391.852,1706.123h-1c-.494.569-.86.356-1,1s.741,1.377,1,2h0a3.666,3.666,0,0,1,0-2C390.977,1706.527,391.4,1706.651,391.852,1706.123Z" transform="translate(-390.111 -1703.641)" fill="url(#q)"/><path d="M389.852,1715.782h0v1c0,.712,1,1,1,1h0v-1h0C390.682,1716.374,389.849,1716.207,389.852,1715.782Z" transform="translate(-390.111 -1711.3)" fill="url(#ac)"/><path d="M392.615,1708.528c0-.186-.039.188,0,0a5.175,5.175,0,0,1,1-2h0c-.454.528-.876.4-1,1A5.969,5.969,0,0,0,392.615,1708.528Z" transform="translate(-391.874 -1704.046)" fill="url(#t)"/></g><g transform="translate(268.884 1653.481)"><path d="M331.726,1655.883c-6.329,0-7,4-7,4v1c-.134,2.314,3.234,4,7,4,4,0,6.979-1.5,7-4,0-.052,0-1,0-1A8.324,8.324,0,0,0,331.726,1655.883Zm0,8c-2.141,0-4.082.126-5-1-.466-.57-1.132-1.353-1-2,.389-1.9,2.86-4,6-4a7.654,7.654,0,0,1,5,2,3.5,3.5,0,0,1,1,2C337.709,1662.927,335.141,1663.883,331.726,1663.883Z" transform="translate(-324.582 -1655.604)" fill="url(#m)"/><path d="M359.164,1672.37Z" transform="translate(-350.02 -1668.091)" fill="#fff"/><path d="M348.255,1673.661c-.751,0-.986.472-1,0v1a.918.918,0,0,0,1,1c.747,0,.879-.532,1-1v-1C349.085,1674.077,348.945,1673.661,348.255,1673.661Z" transform="translate(-341.112 -1668.382)" fill="url(#af)"/><path d="M348.232,1669.573c-.78,0-.935-.508-1,0s.2,1,1,1,.955.516,1,0A.879.879,0,0,0,348.232,1669.573Z" transform="translate(-341.089 -1665.294)" fill="url(#d)"/><path d="M351.375,1669.1a.987.987,0,0,0-1,0c-.167.1-1-.131-1,0h0c0,.107-.12.917,0,1a3.669,3.669,0,0,0,2,0c.166-.1,0-.869,0-1h0C351.373,1668.99,351.5,1669.182,351.375,1669.1Z" transform="translate(-343.231 -1664.82)" fill="#002e8a"/><path d="M341.185,1661.754h0c-.085-.054.09-.054,0,0l-4,2h-1c-.08.048.088.033,0,0h-1c-.088-.033.08-.047,0,0l-3,2h0c.152.165.8.85,1,1h0c.084.062-.1.062,0,0l4-3h1c.078-.047-.088-.032,0,0h0a4.152,4.152,0,0,0,1,0l2-2Z" transform="translate(-330.041 -1659.475)" fill="url(#p)"/><path d="M341.253,1661.156h0c-.042-.027.056-1,0-1h0c-.059,0,.045.973,0,1l-4,2h-1c-.08.048.088.033,0,0h-1c-.088-.033.08-.048,0,0l-3,2c-.091.054-.058-.062,0,0,.153.165.8.85,1,1h0c.084.062-.1.062,0,0l4-3h1c.079-.047-.088-.033,0,0h0a4.152,4.152,0,0,0,1,0l2-2c.08-.049.062.056,0,0C341.089,1661.01,341.458,1661.287,341.253,1661.156Z" transform="translate(-330.109 -1658.877)" fill="url(#q)"/><path d="M351.375,1669.1c-.133-.091-.813-1-1-1s.152.909,0,1c-.305.182-1.267-.184-1,0a3.669,3.669,0,0,0,2,0C351.679,1668.915,351.644,1669.281,351.375,1669.1Z" transform="translate(-343.231 -1664.82)" fill="url(#aa)"/><path d="M331.741,1653.76c-3.521,0-6.524,1.669-7,4-.512,2.5,3.006,4,7,4s6.979-1.5,7-4C338.76,1655.429,335.26,1653.76,331.741,1653.76Zm0,8a6.668,6.668,0,0,1-5-2c-.466-.57-1.132-1.353-1-2,.389-1.9,2.86-3,6-3,1.975,0,4-.01,5,1a3.5,3.5,0,0,1,1,2C337.724,1659.8,335.156,1661.76,331.741,1661.76Z" transform="translate(-324.597 -1653.481)" fill="#fff"/><path d="M323.663,1664.089a3.394,3.394,0,0,0,0,2l1-1c-.244-.575-1.127-.393-1-1a5.18,5.18,0,0,1,1-2h0A4.821,4.821,0,0,0,323.663,1664.089Z" transform="translate(-323.52 -1659.81)" fill="#d3d3d3"/><path d="M323.663,1664.088a3.394,3.394,0,0,0,0,2l1-1c-.244-.575-1.127-.393-1-1a5.175,5.175,0,0,1,1-2h0A4.827,4.827,0,0,0,323.663,1664.088Z" transform="translate(-323.52 -1659.809)" fill="url(#ak)"/><path d="M323.664,1671.746h0v2h1v-1l-1,1A7.777,7.777,0,0,1,323.664,1671.746Z" transform="translate(-323.521 -1667.467)" fill="url(#al)"/><path d="M325.427,1664.492c0-.186-.039.188,0,0a5.171,5.171,0,0,1,1-2h0a5.178,5.178,0,0,0-1,2C325.377,1664.728,325.42,1664.259,325.427,1664.492Z" transform="translate(-325.283 -1660.213)" fill="url(#am)"/></g><g transform="translate(251.028 1665.523)"><path d="M260.09,1704.731c-6.329,0-8,4-8,4v1c-.133,2.314,3.234,4,7,4,4,0,6.98-1.5,7-4,0-.052,0-1,0-1A6.073,6.073,0,0,0,260.09,1704.731Zm-1,8c-2.141,0-4.082.126-5-1-.467-.57-1.131-1.353-1-2,.389-1.9,3.86-4,7-4a5.213,5.213,0,0,1,4,2,3.494,3.494,0,0,1,1,2C265.073,1711.774,262.5,1712.731,259.09,1712.731Z" transform="translate(-252.09 -1704.494)" fill="url(#m)"/><path d="M275.62,1722.508c-.752,0-.986.472-1,0v1a.918.918,0,0,0,1,1c.784,0,1.929-.5,2-1v-1C277.472,1722.94,276.327,1722.508,275.62,1722.508Z" transform="translate(-268.62 -1717.271)" fill="url(#ao)"/><path d="M275.6,1718.421c-.78,0-.935.492-1,1s.2,0,1,0,1.955.516,2,0S276.376,1718.421,275.6,1718.421Z" transform="translate(-268.597 -1714.184)" fill="url(#d)"/><path d="M278.739,1717.946a.99.99,0,0,0-1,0c-.167.1-1-.131-1,0h0a6.642,6.642,0,0,0,1,1,.968.968,0,0,0,1,0c.166-.1,0-.87,0-1h0C278.737,1717.838,278.861,1718.029,278.739,1717.946Z" transform="translate(-270.739 -1713.709)" fill="#002e8a"/><path d="M268.548,1710.6h0c-.085-.054.09-.054,0,0l-4,2h-1c-.08.048.088.033,0,0h0a4.146,4.146,0,0,0-1,0l-3,2h0c.153.166.8.85,1,1h0c.085.062-.1.062,0,0l4-3h1c.078-.048-.088-.033,0,0h0a4.165,4.165,0,0,0,1,0l3-2h0A2.522,2.522,0,0,1,268.548,1710.6Z" transform="translate(-257.548 -1708.364)" fill="url(#p)"/><path d="M268.617,1710h0c-.042-.027.057,0,0,0s.046-.027,0,0l-4,2h-1c-.08.048.088.033,0,0h0a4.146,4.146,0,0,0-1,0l-3,2c-.091.054-.058-.063,0,0,.153.165.8.85,1,1h0c.084.062-.1.063,0,0l4-3h1c.078-.047-.088-.033,0,0h0a4.158,4.158,0,0,0,1,0l3-2c.08-.049.063.056,0,0C269.453,1709.858,268.822,1710.135,268.617,1710Z" transform="translate(-257.617 -1707.768)" fill="url(#q)"/><path d="M278.739,1717.947c-.134-.09-.813-1-1-1s.152.91,0,1c-.305.182-.267-.184,0,0a.971.971,0,0,0,1,0C279.044,1717.762,279.008,1718.128,278.739,1717.947Z" transform="translate(-270.739 -1713.71)" fill="url(#aa)"/><path d="M260.1,1702.607c-3.521,0-7.523,1.669-8,4-.512,2.5,3.006,5,7,5s6.98-2.5,7-5C266.123,1704.276,263.624,1702.607,260.1,1702.607Zm-1,8a6.668,6.668,0,0,1-5-2c-.467-.57-1.131-1.353-1-2,.389-1.9,3.86-3,7-3,1.975,0,3-.009,4,1a3.5,3.5,0,0,1,1,2C265.088,1708.65,262.52,1710.607,259.1,1710.607Z" transform="translate(-252.105 -1702.37)" fill="#fff"/><path d="M253.028,1710.935h-1a4.822,4.822,0,0,0-1,2,3.4,3.4,0,0,0,0,2l1-1c-.244-.575-.127-.393,0-1A5.177,5.177,0,0,1,253.028,1710.935Z" transform="translate(-251.028 -1708.699)" fill="#d3d3d3"/><path d="M253.028,1710.934h-1a4.824,4.824,0,0,0-1,2,3.4,3.4,0,0,0,0,2l1-1c-.244-.575-.127-.393,0-1A5.171,5.171,0,0,1,253.028,1710.934Z" transform="translate(-251.028 -1708.698)" fill="url(#q)"/><path d="M251.028,1720.594h0v2h1v-1l-1,1A7.765,7.765,0,0,1,251.028,1720.594Z" transform="translate(-251.028 -1716.357)" fill="url(#t)"/><path d="M253.791,1713.34c0-.186-.039.188,0,0a5.179,5.179,0,0,1,1-2h0a5.18,5.18,0,0,0-1,2C253.742,1713.576,253.785,1713.108,253.791,1713.34Z" transform="translate(-252.791 -1709.103)" fill="url(#t)"/></g></g></g></svg>