<svg xmlns="http://www.w3.org/2000/svg" width="125.264" height="153.68" viewBox="0 0 125.264 153.68"><g transform="translate(-385.503 -151.07)"><path d="M428.536,197.7a48.461,48.461,0,0,1,13.273-6.432c28.116-8.327,51.765-1.011,59.775,29.638l2.027,38.561-63.067,1.708-10.132-26.848" transform="translate(-11.888 -10.22)" fill="#fff"/><path d="M440.375,261.428l-.062-.165-10.132-26.848.463-.175,10.07,26.684,62.637-1.7-2.013-38.283c-3.446-13.165-9.905-22.5-19.2-27.741a39.837,39.837,0,0,0-18.405-4.85,69.24,69.24,0,0,0-21.854,3.152,48.072,48.072,0,0,0-13.2,6.4l-.277-.409a48.564,48.564,0,0,1,13.341-6.465,69.733,69.733,0,0,1,22.011-3.172,40.325,40.325,0,0,1,18.631,4.913c9.422,5.315,15.963,14.759,19.442,28.071l.006.024v.025l2.04,38.815-.253.007Z" transform="translate(-11.888 -10.22)"/><path d="M477.975,328.93l-4.053,19.542c10.257,4.085,24.674,4.917,37.992,3.594V332.729S490.385,334.034,477.975,328.93Z" transform="translate(-24.497 -49.352)" fill="#f4b45c"/><path d="M477.811,328.62l.249.1a54.007,54.007,0,0,0,14.144,3.225,121.613,121.613,0,0,0,13.507.706c3.69,0,6.165-.147,6.189-.149l.237-.014v19.777l-.2.02c-3.887.386-7.791.582-11.6.582-10.45,0-19.612-1.449-26.494-4.19l-.174-.069Zm27.9,4.482a124.5,124.5,0,0,1-13.557-.709,55.188,55.188,0,0,1-14.014-3.155l-3.96,19.095c6.811,2.676,15.848,4.089,26.154,4.089,3.732,0,7.551-.188,11.357-.56v-18.9C510.985,333,508.76,333.1,505.711,333.1Z" transform="translate(-24.497 -49.352)" fill="#fff"/><path d="M494.013,343.09l-16.456-8.818,1.127-5.435.886.184-.99,4.773,15.548,8.331,18.486-4.8v-4.6h.905v5.3Z" transform="translate(-25.649 -49.352)"/><path d="M435.7,174.989c-4.278-1.33-3.141,5.728,2.116,6S435.7,174.989,435.7,174.989Z" transform="translate(-13.15 -6.537)" fill="#f96557"/><path d="M463.011,171.792c3.87-2.257,4.348,4.875-.714,6.324S463.011,171.792,463.011,171.792Z" transform="translate(-20.69 -5.574)" fill="#f96557"/><path d="M442.256,184.373l4.886,13.213s10.979,7.37,13.871-5.065l-4.094-16.36Z" transform="translate(-15.699 -6.909)" fill="#f96557"/><path d="M437.259,169.781s2.153,15.83,14.31,15.83a7.266,7.266,0,0,0,2.66-3.8v2.153s3.926-5.825,3.04-11.017,1.294-12.664-1.569-16.463-7.549-1.012-7.549-1.012l3.292-3.547s-4.939-.76-7.345,3.42l1.773-4.052s-10.638,2.659-8.611,9.624C437.259,160.916,433.08,164.589,437.259,169.781Z" transform="translate(-13.795)" fill="#09103c"/><path d="M451.617,185.763h-.048a11.872,11.872,0,0,1-7.458-2.505,16.434,16.434,0,0,1-4.391-5.491,27.688,27.688,0,0,1-2.606-7.922,8.216,8.216,0,0,1-1.768-3.611,5.745,5.745,0,0,1,.2-2.879,6.385,6.385,0,0,1,1.54-2.485,5.619,5.619,0,0,1,.518-4.449,11.228,11.228,0,0,1,4.93-4.051,19.982,19.982,0,0,1,3.3-1.224l.3-.075-1.321,3.02a6.718,6.718,0,0,1,2.53-1.773,8.6,8.6,0,0,1,3.19-.6,6.725,6.725,0,0,1,.935.056l.282.043-2.931,3.157a7.69,7.69,0,0,1,2.935-.641,4.877,4.877,0,0,1,4.068,2.058c1.814,2.407,1.639,6.276,1.471,10.017a32.23,32.23,0,0,0,.127,6.512,14.37,14.37,0,0,1-1.2,7.539,22.6,22.6,0,0,1-1.866,3.588l-.277.411v-1.7a7.816,7.816,0,0,1-2.421,2.97ZM445.6,151.523c-1.24.363-5.938,1.917-7.736,5.048a5.343,5.343,0,0,0-.464,4.3l.027.092-.072.064a6.089,6.089,0,0,0-1.528,2.432,5.446,5.446,0,0,0-.185,2.725,7.953,7.953,0,0,0,1.731,3.5l.026.033.006.042a27.275,27.275,0,0,0,2.584,7.873,16.127,16.127,0,0,0,4.307,5.387,11.569,11.569,0,0,0,7.219,2.439,7.1,7.1,0,0,0,2.562-3.681l.3-1.347v3.007a23.463,23.463,0,0,0,1.563-3.1,14.07,14.07,0,0,0,1.176-7.367,32.434,32.434,0,0,1-.131-6.576c.166-3.688.338-7.5-1.41-9.822a4.588,4.588,0,0,0-3.826-1.937,7.791,7.791,0,0,0-3.525.964l-.9.537,3.8-4.095c-.15-.011-.353-.022-.595-.022a7.007,7.007,0,0,0-6.3,3.4l-.27-.136Z" transform="translate(-13.795)" fill="#fff"/><path d="M441.711,175.2c-1.558-8.583,2.772-9.706,10.638-9.878,4.179-.091,4.442,3.478,4.306,9.118-.039,1.626-4.42.638-6.827,1.14C446.414,176.288,442.471,179.386,441.711,175.2Z" transform="translate(-15.46 -3.897)" fill="#f96557"/><path d="M446.917,183.09s8.612-.76,10.258-1.646S453.629,190.435,446.917,183.09Z" transform="translate(-16.994 -8.361)" fill="#f96557"/><path d="M433.079,244l44.127-12.917s9.926,11.651,18.036,13.93l9.63,26.4-63.066,1.709-6.586-17.983Z" transform="translate(-13.15 -22.167)" fill="#09103c"/><path d="M477.258,230.907l.064.075a77.372,77.372,0,0,0,5.967,6.1c3.176,2.905,7.836,6.614,12,7.783l.075.021,9.729,26.675-.21.006L441.7,273.279l-6.629-18.109L432.9,243.89Zm17.869,14.227A22.432,22.432,0,0,1,488.918,242a53.325,53.325,0,0,1-5.837-4.695,78.613,78.613,0,0,1-5.926-6.049l-43.9,12.851,2.114,11,6.544,17.869,62.747-1.7Z" transform="translate(-13.15 -22.167)" fill="#fff"/><path d="M478.007,230.433l6.676-1.773s-6.508-21.407-5.173-33.687c.633-5.825,3.31-6.429,3.31-6.429l-6.762-.667s-4.559-.268-4.652,14.947C471.331,214.729,478.007,230.433,478.007,230.433Z" transform="translate(-23.797 -10.164)" fill="#09103c"/><path d="M477.919,230.613l-.051-.121c-.017-.039-1.691-4-3.334-9.355-1.517-4.95-3.318-12.145-3.28-18.313s.8-10.558,2.264-13.061c1.135-1.939,2.3-2.037,2.524-2.037h.03l7.7.759-.915.206a2.922,2.922,0,0,0-1.356,1,9.7,9.7,0,0,0-1.836,5.293c-.687,6.323.754,15.128,2.084,21.4,1.442,6.8,3.067,12.173,3.084,12.226l.046.15Zm-1.877-42.584c-.179,0-4.4.168-4.485,14.8-.038,6.129,1.755,13.291,3.266,18.22,1.478,4.823,2.982,8.505,3.274,9.207l6.4-1.7c-.273-.917-1.735-5.921-3.045-12.1-.849-4-1.469-7.71-1.843-11.019a48.979,48.979,0,0,1-.245-10.477,10.1,10.1,0,0,1,1.927-5.481,3.962,3.962,0,0,1,.958-.836Z" transform="translate(-23.797 -10.164)" fill="#fff"/><path d="M487.448,193.468c10.385,3.861,62.067,49.705,33.687,69.207-11.9,8.179-66.9,0-66.9,0V246.993l46.887-2.3s-12.174-16.517-19.728-27.677C475.093,207.708,477.317,193.407,487.448,193.468Z" transform="translate(-19.027 -11.717)" fill="#fff"/><path d="M487.383,193.221h.11l.041.015c2.037.757,5.521,3.039,9.557,6.261a132.64,132.64,0,0,1,13.449,12.472,101.9,101.9,0,0,1,12.477,15.95c3.76,6.089,5.979,11.711,6.6,16.708.947,7.657-1.859,13.8-8.339,18.251-3.553,2.441-11.216,3.679-22.776,3.679a286.117,286.117,0,0,1-29.593-1.819c-8.5-.9-14.649-1.81-14.71-1.819l-.211-.031V246.757l46.662-2.29c-1.847-2.513-12.615-17.2-19.461-27.314a21.3,21.3,0,0,1-3.475-9.8,16.513,16.513,0,0,1,1.556-9.161,9.47,9.47,0,0,1,3.221-3.6A8.89,8.89,0,0,1,487.383,193.221Zm.02.494h-.02a8.4,8.4,0,0,0-4.628,1.292,8.983,8.983,0,0,0-3.052,3.421,16.017,16.017,0,0,0-1.5,8.883,20.8,20.8,0,0,0,3.393,9.565c7.465,11.029,19.6,27.5,19.723,27.669l.273.371-47.112,2.312v15.233c2.441.353,25.412,3.6,44.019,3.6,11.458,0,19.027-1.208,22.5-3.592a18.928,18.928,0,0,0,6.951-8.1,18.6,18.6,0,0,0,1.178-9.687c-.609-4.926-2.805-10.481-6.527-16.509a101.4,101.4,0,0,0-12.417-15.871C503.168,204.845,492.484,195.632,487.4,193.715Z" transform="translate(-19.027 -11.717)"/><path d="M445.184,269.659s-20.986.253-23.518,11.9a3.9,3.9,0,0,0,3.292,2.28c2.533.253,9.8-5.319,20.479-3.8Z" transform="translate(-9.979 -32.885)" fill="#f96557"/><path d="M424.152,286.281l-.724-.543a21.267,21.267,0,0,1,3.055-3.145,14.33,14.33,0,0,1,7.62-3.559l.079.9C428.6,280.423,424.2,286.223,424.152,286.281Z" transform="translate(-10.569 -35.615)"/><path d="M422.1,283.378l-.865-.267a9.046,9.046,0,0,1,1.938-3.056,17.217,17.217,0,0,1,8.291-4.777l.246.871C423.722,278.4,422.114,283.329,422.1,283.378Z" transform="translate(-9.979 -34.567)"/><circle cx="2.548" cy="2.548" r="2.548" transform="translate(454.246 213.203)" fill="#09103c"/><path d="M2.548-.151a2.7,2.7,0,1,1-2.7,2.7A2.7,2.7,0,0,1,2.548-.151Zm0,5.1a2.4,2.4,0,1,0-2.4-2.4A2.4,2.4,0,0,0,2.548,4.946Z" transform="translate(454.246 213.203)" fill="#fff"/><path d="M454.087,331.866a25.322,25.322,0,0,0,16.97,0c5.691-2.057,0,5.879-8.485,5.879,9.751,3.5,16.336.99,18.109,3.5,2.28,2.537,2.533,10.483-11.4,7.95a76.574,76.574,0,0,1,8.1,2.668s4.052,6.031-13.51-.11c-7.852-2.746-14.857-5.993-14.857-5.993Z" transform="translate(-17.579 -50.073)" fill="#f96557"/><path d="M482.943,352.205c-4.3,0-8.788-.491-9.071-.523l.1-.9c.1.012,10.424,1.141,14.688.012l.232.875A25.488,25.488,0,0,1,482.943,352.205Z" transform="translate(-24.497 -55.549)"/><path d="M436.508,295.714,428.4,318.357s-37.232-13.3-42.042-48.839c-3.916-28.9,11.509-55.407,30.288-68.114l1.876,36.627s-10.05,15.785-5.3,32.495C418.019,287.422,436.508,295.714,436.508,295.714Z" transform="translate(0 -13.922)" fill="#fff"/><path d="M428.552,318.673l-.233-.083a58.183,58.183,0,0,1-5.921-2.646,82.012,82.012,0,0,1-13.366-8.485,65.914,65.914,0,0,1-14.28-15.18,53.593,53.593,0,0,1-8.638-22.728,70.628,70.628,0,0,1,6.656-40.271A71.91,71.91,0,0,1,416.51,201.2l.363-.246,1.9,37.143-.042.067a46.957,46.957,0,0,0-4.409,9.937,44.759,44.759,0,0,0-2.031,10.325,34.833,34.833,0,0,0,1.165,12.033,32.964,32.964,0,0,0,5.617,10.975,45.514,45.514,0,0,0,7.733,7.821,51.218,51.218,0,0,0,9.8,6.234l.209.094-.077.215ZM416.424,201.856A71.548,71.548,0,0,0,393.217,229.5a70.135,70.135,0,0,0-6.611,39.99A53.1,53.1,0,0,0,395.159,292a65.409,65.409,0,0,0,14.166,15.063,81.509,81.509,0,0,0,13.283,8.436,61.491,61.491,0,0,0,5.646,2.542l7.945-22.2a52.858,52.858,0,0,1-9.69-6.193,46.021,46.021,0,0,1-7.822-7.909,33.458,33.458,0,0,1-5.7-11.146,35.326,35.326,0,0,1-1.182-12.212,45.263,45.263,0,0,1,2.057-10.444,48.076,48.076,0,0,1,4.416-9.971Z" transform="translate(0 -13.922)"/><path d="M482.8,348.2c-4.223,0-8.628-.3-8.9-.315l.062-.9c.1.007,10.265.69,14.529,0l.144.894A40.6,40.6,0,0,1,482.8,348.2Z" transform="translate(-24.497 -54.494)"/><path d="M437.126,241.365l8.649-2.279A42.624,42.624,0,0,1,430.5,198.814l-5.973,3.529S419.216,224.648,437.126,241.365Z" transform="translate(-10.569 -13.203)" fill="#09103c"/><path d="M437.083,241.532l-.061-.057a41.546,41.546,0,0,1-9.559-13.2,42.738,42.738,0,0,1-3.5-12.675,42.215,42.215,0,0,1,.419-13.3l.015-.063,6.306-3.725-.051.318a43.383,43.383,0,0,0,.623,17.3,41.992,41.992,0,0,0,5.427,12.568,40.726,40.726,0,0,0,9.165,10.253l.26.187ZM424.658,202.44a43.8,43.8,0,0,0,3.084,25.72,41.234,41.234,0,0,0,9.426,13.038l8.268-2.179a43.233,43.233,0,0,1-14.459-22.8,43.6,43.6,0,0,1-.677-17.107Z" transform="translate(-10.569 -13.203)" fill="#fff"/><circle cx="2.548" cy="2.548" r="2.548" transform="translate(425.372 221.645)" fill="#09103c"/><path d="M2.548-.151a2.7,2.7,0,1,1-2.7,2.7A2.7,2.7,0,0,1,2.548-.151Zm0,5.1a2.4,2.4,0,1,0-2.4-2.4A2.4,2.4,0,0,0,2.548,4.946Z" transform="translate(425.372 221.645)" fill="#fff"/></g></svg>