<svg xmlns="http://www.w3.org/2000/svg" width="173.263" height="212.595" viewBox="0 0 173.263 212.595"><g transform="translate(-385.504 -151.07)"><path d="M428.536,201.4a67.1,67.1,0,0,1,18.379-8.907c38.933-11.531,71.679-1.4,82.771,41.04l2.807,53.4L445.164,289.3l-14.03-37.177" fill="#fff"/><path d="M444.995,289.55l-.062-.165L430.9,252.208l.463-.175,13.968,37.012,86.9-2.353-2.792-53.118c-4.777-18.26-13.738-31.207-26.635-38.482a55.257,55.257,0,0,0-25.529-6.728,95.968,95.968,0,0,0-30.291,4.368,66.659,66.659,0,0,0-18.311,8.875l-.277-.409a67.151,67.151,0,0,1,18.447-8.939,96.46,96.46,0,0,1,30.448-4.388,55.745,55.745,0,0,1,25.755,6.791,49.754,49.754,0,0,1,16.225,14.85,73.682,73.682,0,0,1,10.651,23.962l.006.024v.025l2.82,53.649Z"/><path d="M479.534,328.93l-5.612,27.06c14.2,5.657,34.166,6.808,52.608,4.976V334.191S496.719,336,479.534,328.93Z" fill="#f4b45c"/><path d="M479.37,328.62l.249.1c5.017,2.063,11.614,3.568,19.609,4.472a168.49,168.49,0,0,0,18.713.979c5.111,0,8.542-.2,8.576-.206l.237-.014v27.215l-.2.02c-5.379.534-10.782.805-16.058.805-14.46,0-27.135-2-36.655-5.8l-.174-.069.038-.184Zm38.571,6a172.321,172.321,0,0,1-18.763-.981,76.052,76.052,0,0,1-19.479-4.4l-5.519,26.613c9.448,3.726,22,5.7,36.315,5.7,5.2,0,10.514-.263,15.812-.783V334.427C525.444,334.473,522.3,334.621,517.941,334.621Z" fill="#fff"/><path d="M500.169,348.352l-22.612-12.116,1.534-7.4.886.184-1.4,6.736,21.7,11.63,25.793-6.691v-6.506h.905V341.4Z"/><path d="M436.708,175.053c-5.924-1.842-4.349,7.931,2.93,8.312S436.708,175.053,436.708,175.053Z" fill="#f96557"/><path d="M464.085,171.96c5.359-3.125,6.02,6.751-.988,8.757S464.085,171.96,464.085,171.96Z" fill="#f96557"/><path d="M442.256,187.532l6.766,18.3s15.2,10.205,19.207-7.014L462.56,176.16Z" fill="#f96557"/><path d="M437.974,176.894s2.981,21.92,19.815,21.92a10.06,10.06,0,0,0,3.683-5.261v2.981s5.436-8.066,4.209-15.256,1.792-17.536-2.173-22.8-10.453-1.4-10.453-1.4l4.559-4.911s-6.839-1.052-10.171,4.735l2.455-5.611s-14.73,3.682-11.924,13.327C437.974,164.619,432.187,169.7,437.974,176.894Z" fill="#09103c"/><path d="M457.837,198.965h-.048a16.383,16.383,0,0,1-10.291-3.457,22.7,22.7,0,0,1-6.064-7.585,38.25,38.25,0,0,1-3.6-10.967,11.328,11.328,0,0,1-2.446-4.987,7.9,7.9,0,0,1,.277-3.958,8.752,8.752,0,0,1,2.143-3.441,7.731,7.731,0,0,1,.7-6.149c1.54-2.682,4.549-4.518,6.8-5.586a27.6,27.6,0,0,1,4.555-1.69l.3-.075-1.941,4.435a9.226,9.226,0,0,1,3.736-2.739,11.857,11.857,0,0,1,4.4-.824,9.249,9.249,0,0,1,1.285.077l.282.043-4.175,4.5a10.724,10.724,0,0,1,4.3-1,6.7,6.7,0,0,1,5.586,2.826c2.5,3.316,2.258,8.663,2.025,13.834a44.667,44.667,0,0,0,.176,9.029c.64,3.75-.546,7.729-1.654,10.408a31.224,31.224,0,0,1-2.579,4.958l-.277.411v-2.455a10.623,10.623,0,0,1-3.444,4.363Zm-8.2-47.444a28.23,28.23,0,0,0-4.2,1.59c-2.212,1.049-5.163,2.849-6.663,5.461a7.455,7.455,0,0,0-.648,6l.027.092-.072.064a8.488,8.488,0,0,0-2.131,3.388,7.6,7.6,0,0,0-.26,3.8,11.067,11.067,0,0,0,2.409,4.875l.026.033.006.042a37.828,37.828,0,0,0,3.583,10.918,22.392,22.392,0,0,0,5.981,7.481,16.08,16.08,0,0,0,10.052,3.391,9.909,9.909,0,0,0,3.585-5.142l.3-1.347v3.841a32.351,32.351,0,0,0,2.276-4.475c1.091-2.64,2.26-6.558,1.633-10.235a44.874,44.874,0,0,1-.18-9.094c.231-5.117.469-10.409-1.964-13.638a6.409,6.409,0,0,0-5.344-2.706,10.854,10.854,0,0,0-4.91,1.343l-.9.537,5.07-5.461a11.706,11.706,0,0,0-5.229.762,8.977,8.977,0,0,0-4.5,3.932l-.27-.136Z" fill="#fff"/><path d="M441.832,179c-2.157-11.885,3.838-13.44,14.73-13.678,5.787-.126,6.151,4.816,5.962,12.626-.054,2.251-6.12.884-9.453,1.578C448.345,180.508,442.884,184.8,441.832,179Z" fill="#f96557"/><path d="M446.917,183.745s11.925-1.052,14.2-2.279S456.211,193.916,446.917,183.745Z" fill="#f96557"/><path d="M433.079,248.966l61.1-17.886s13.745,16.133,24.975,19.289l13.335,36.563L445.164,289.3l-9.119-24.9Z" fill="#09103c"/><path d="M494.234,230.907l.064.075a107.2,107.2,0,0,0,8.266,8.45A73.463,73.463,0,0,0,510.6,245.9a30.48,30.48,0,0,0,8.594,4.324l.075.021.027.073,13.407,36.76-.21.006-87.437,2.37-.037-.1L435.9,264.427,432.9,248.859Zm24.808,19.586a30.943,30.943,0,0,1-8.61-4.345,73.781,73.781,0,0,1-8.076-6.5,108.568,108.568,0,0,1-8.225-8.4l-60.877,17.82,2.938,15.285,9.077,24.787,87.009-2.358Z" fill="#fff"/><path d="M480.547,246.8l9.244-2.455s-9.011-29.643-7.163-46.646c.876-8.066,4.583-8.9,4.583-8.9l-9.364-.923s-6.313-.371-6.442,20.7C471.3,225.059,480.547,246.8,480.547,246.8Z" fill="#09103c"/><path d="M480.459,246.984l-.051-.121c-.023-.054-2.34-5.529-4.615-12.948a123.587,123.587,0,0,1-3.151-12.384,66.5,66.5,0,0,1-1.388-12.957,64.212,64.212,0,0,1,1-11.848,20.365,20.365,0,0,1,2.125-6.208,6.405,6.405,0,0,1,2.214-2.4,2.584,2.584,0,0,1,1.23-.392h.036l10.3,1.015-.915.206a4.081,4.081,0,0,0-1.9,1.4c-1.673,1.985-2.318,5.1-2.564,7.37a67.466,67.466,0,0,0,.339,14.427c.517,4.569,1.374,9.69,2.546,15.222,2,9.421,4.249,16.863,4.272,16.937l.046.15Zm-2.633-58.955c-.168,0-1.68.074-3.183,2.642a20.073,20.073,0,0,0-2.089,6.114,63.914,63.914,0,0,0-1,11.791,66.193,66.193,0,0,0,1.383,12.9,123.278,123.278,0,0,0,3.143,12.353c2.083,6.8,4.2,11.954,4.553,12.8l8.966-2.381c-.329-1.1-2.389-8.113-4.233-16.809-1.175-5.541-2.033-10.673-2.551-15.252a67.762,67.762,0,0,1-.34-14.495c.252-2.321.917-5.516,2.655-7.558a5.25,5.25,0,0,1,1.469-1.236l-8.765-.864Z" fill="#fff"/><path d="M500.226,193.468c14.38,5.346,85.945,68.827,46.646,95.831-16.484,11.326-92.64,0-92.64,0V267.584l64.925-3.186s-16.858-22.871-27.318-38.325C483.118,213.186,486.2,193.383,500.226,193.468Z" fill="#fff"/><path d="M500.136,193.221h.135l.041.015c2.812,1.045,7.626,4.2,13.207,8.655a183.563,183.563,0,0,1,18.612,17.261A140.993,140.993,0,0,1,549.4,241.223c5.2,8.42,8.268,16.191,9.122,23.1,1.307,10.565-2.565,19.038-11.507,25.182-4.9,3.369-15.5,5.077-31.484,5.077a396.1,396.1,0,0,1-40.968-2.518c-11.762-1.245-20.28-2.506-20.365-2.518l-.211-.031V267.349l64.7-3.175c-2.222-3.022-17.433-23.752-27.051-37.962a28.363,28.363,0,0,1-3.275-6.559,29.533,29.533,0,0,1-1.521-6.961,22.77,22.77,0,0,1,2.144-12.632,13.02,13.02,0,0,1,4.427-4.956A12.216,12.216,0,0,1,500.136,193.221Zm.045.495h-.045a11.73,11.73,0,0,0-6.46,1.8,12.533,12.533,0,0,0-4.258,4.772,22.274,22.274,0,0,0-2.088,12.354,29.04,29.04,0,0,0,1.5,6.845,27.87,27.87,0,0,0,3.218,6.445c10.338,15.273,27.144,38.088,27.312,38.317l.273.371-65.15,3.2v21.266c1.383.2,9.409,1.35,20.136,2.485,10.844,1.147,26.745,2.515,40.913,2.515,15.886,0,26.385-1.679,31.2-4.99a26.3,26.3,0,0,0,9.659-11.252,25.845,25.845,0,0,0,1.638-13.463c-.845-6.835-3.891-14.539-9.052-22.9a140.509,140.509,0,0,0-17.205-21.992C522.049,209.141,507.224,196.362,500.181,193.715Z"/><path d="M454.232,269.659s-29.059.35-32.566,16.483a5.4,5.4,0,0,0,4.559,3.157c3.507.351,13.577-7.365,28.358-5.261Z" fill="#f96557"/><path d="M424.152,288.791l-.724-.543a29.255,29.255,0,0,1,4.2-4.327,24.621,24.621,0,0,1,4.634-3.13,15.871,15.871,0,0,1,5.82-1.758l.079.9a14.973,14.973,0,0,0-5.487,1.662,23.718,23.718,0,0,0-4.462,3.015A28.832,28.832,0,0,0,424.152,288.791Z"/><path d="M422.1,286.277l-.864-.268a12.34,12.34,0,0,1,2.647-4.166,19.813,19.813,0,0,1,4.279-3.514,27.965,27.965,0,0,1,7.119-3.051l.246.871a27.1,27.1,0,0,0-6.853,2.927,18.966,18.966,0,0,0-4.081,3.331A11.774,11.774,0,0,0,422.1,286.277Z"/><circle cx="3.529" cy="3.529" r="3.529" transform="translate(480.598 237.02)" fill="#09103c"/><path d="M3.529-.151a3.68,3.68,0,1,1-3.68,3.68A3.684,3.684,0,0,1,3.529-.151Zm0,7.058A3.377,3.377,0,1,0,.151,3.529,3.381,3.381,0,0,0,3.529,6.906Z" transform="translate(480.598 237.02)" fill="#fff"/><path d="M456.036,332a35.064,35.064,0,0,0,23.5,0c7.88-2.849,0,8.141-11.749,8.141,13.5,4.843,22.621,1.371,25.076,4.843,3.157,3.513,3.507,14.516-15.782,11.009a106.032,106.032,0,0,1,11.223,3.694s5.611,8.351-18.707-.153c-10.873-3.8-20.573-8.3-20.573-8.3Z" fill="#f96557"/><path d="M486.487,352.4q-2.1,0-4.584-.114c-4.346-.2-7.994-.6-8.031-.606l.1-.9c.144.016,14.467,1.583,20.4.012l.232.875A33.945,33.945,0,0,1,486.487,352.4Z"/><path d="M456.036,331.995,444.812,363.35s-51.555-18.417-58.216-67.628C381.174,255.7,402.533,219,428.536,201.4l2.6,50.717s-13.916,21.858-7.345,45C430.434,320.514,456.036,331.995,456.036,331.995Z" fill="#fff"/><path d="M444.961,363.666l-.233-.083a80.434,80.434,0,0,1-8.188-3.659,113.462,113.462,0,0,1-18.492-11.739,91.176,91.176,0,0,1-19.753-21,74.116,74.116,0,0,1-11.946-31.432,97.7,97.7,0,0,1,9.208-55.709c7.7-15.929,19.358-29.725,32.838-38.846l.363-.246,2.624,51.233-.042.067a65.106,65.106,0,0,0-6.114,13.777,62.079,62.079,0,0,0-2.818,14.32,48.327,48.327,0,0,0,1.616,16.7,45.74,45.74,0,0,0,7.8,15.231,63.122,63.122,0,0,0,10.726,10.848,71.006,71.006,0,0,0,13.589,8.641l.209.094-.077.215Zm-16.65-161.81c-13.256,9.075-24.718,22.7-32.307,38.4a97.211,97.211,0,0,0-9.163,55.428A73.624,73.624,0,0,0,398.7,326.9a90.672,90.672,0,0,0,19.639,20.881,112.964,112.964,0,0,0,18.409,11.69,84.266,84.266,0,0,0,7.913,3.555l11.064-30.907a72.8,72.8,0,0,1-13.477-8.6,63.63,63.63,0,0,1-10.815-10.935,46.235,46.235,0,0,1-7.883-15.4,48.824,48.824,0,0,1-1.633-16.877,62.583,62.583,0,0,1,2.844-14.44,66.3,66.3,0,0,1,6.121-13.811Z"/><path d="M486.212,348.326c-5.84,0-11.938-.41-12.321-.436l.062-.9c.142.01,14.234.957,20.157,0l.144.894A56.029,56.029,0,0,1,486.212,348.326Z"/><path d="M442.256,257.734l11.976-3.156a59.022,59.022,0,0,1-21.153-55.764l-8.271,4.886S417.457,234.587,442.256,257.734Z" fill="#09103c"/><path d="M442.214,257.9l-.061-.057a57.472,57.472,0,0,1-13.223-18.256,59.121,59.121,0,0,1-4.848-17.534,63.632,63.632,0,0,1-.186-13.181,41.751,41.751,0,0,1,.765-5.209l.015-.063,8.6-5.082-.051.318a60.13,60.13,0,0,0,.863,23.984,58.205,58.205,0,0,0,7.523,17.42,61.542,61.542,0,0,0,8.605,10.625,40.415,40.415,0,0,0,4.1,3.588l.26.187Zm-17.273-54.1a42.883,42.883,0,0,0-.744,5.115,63.331,63.331,0,0,0,.187,13.118,58.814,58.814,0,0,0,4.824,17.439,57.157,57.157,0,0,0,13.09,18.1l11.593-3.055a44.253,44.253,0,0,1-3.884-3.428A61.849,61.849,0,0,1,441.36,240.4a58.506,58.506,0,0,1-7.562-17.511,60.354,60.354,0,0,1-.918-23.786Z" fill="#fff"/><circle cx="3.529" cy="3.529" r="3.529" transform="translate(440.616 248.711)" fill="#09103c"/><path d="M3.529-.151a3.68,3.68,0,1,1-3.68,3.68A3.684,3.684,0,0,1,3.529-.151Zm0,7.058A3.377,3.377,0,1,0,.151,3.529,3.381,3.381,0,0,0,3.529,6.906Z" transform="translate(440.616 248.711)" fill="#fff"/></g></svg>