<svg xmlns="http://www.w3.org/2000/svg" xmlns:xlink="http://www.w3.org/1999/xlink" width="234.036" height="391.986" viewBox="0 0 234.036 391.986"><defs><clipPath id="a"><rect width="65.611" height="152.638" transform="translate(328.787 891.323)" fill="none"/></clipPath><clipPath id="b"><rect width="53.901" height="61.435" transform="translate(262.797 886.006)" fill="none"/></clipPath></defs><g transform="translate(-228.994 -729.552)"><path d="M378.864,738.9c0-8.145-8.278-12.53-18.835-6.618-12.727,7.127-18.836,40.216-36.653,43.27s-64.651,6.109-84,23.926c-18.012,16.59-7.127,40.725-7.127,40.725s-8.576-24.488,11.709-40.216c14.77-11.452,40.724-6.109,40.724-6.109s-64.884,34.218-21.431,82.09c14.855,16.365,82.763,21.243,94.515,10.042,32.58-31.052-1.4-68.869,21.347-88.823,29.017-25.453,9.418-60.833-.254-58.287" fill="#0a3a36"/><path d="M441.949,1047.363l-8.57-20.089a24.658,24.658,0,0,0-19.725-14.8l-12.714-11.4-19.292,14.438,28.5,18.471c.063.041.129.074.192.112l24.118,21.625Z" fill="#f99"/><path d="M434.479,1056.137l-24.367-21.831c-.043-.024-.085-.048-.127-.076l-28.853-18.7,19.825-14.836,12.825,11.5a25.02,25.02,0,0,1,19.869,14.969l8.643,20.262Zm-52.315-40.642,28.143,18.24c.032.021.064.039.1.056l.09.052,23.941,21.46,7.17-8-8.5-19.916a24.424,24.424,0,0,0-19.489-14.624l-.092-.011-12.6-11.3Z"/><path d="M423.995,1046.34s18.829,27.587,23.519,18.708c7.963-15.076-9.546-27.287-12.583-34.134s-7.052-25.208-20.438-18.326c0,0,27.478,16.547,9.5,33.752" fill="#0a3a36"/><path d="M299.732,849.44l55.38-66.514,11.224,46.667-44,32.277Z" fill="#fff"/><path d="M322.355,862.117l-.117-.064L299.409,849.5l55.81-67.029,11.353,47.207-.112.082Zm-22.3-12.738,22.267,12.243L366.1,829.506,355.007,783.38Z"/><path d="M345.482,883.978h-62.9c-24.115,0-34.962,30.21-16.356,45.55l126.693,104.453,11.814-34.262-76.2-58.481h30.717Z" fill="#0a7968"/><path d="M393.059,1034.479,266.038,929.756a26.007,26.007,0,0,1,16.544-46.073h63.133l.055.226,13.853,57.625H329.4l75.681,58.08-.07.2ZM282.582,884.273A25.416,25.416,0,0,0,266.414,929.3l126.364,104.182,11.607-33.658-76.724-58.881h31.212l-13.623-56.67Z" fill="#03003e"/><path d="M355.113,782.926c2.953-4.135,44.3-10.633,49.62-4.726,8.8,9.783-3.544,40.76,4.135,73.249H355.113V842s-9.452-4.135-10.633-17.722,4.918-33.35,10.633-41.35" fill="#fff"/><path d="M409.132,851.658H354.9v-9.529c-1.133-.56-9.528-5.135-10.632-17.835-1.16-13.33,4.784-33.248,10.671-41.489h0c2.037-2.852,20.13-6.307,32.964-7.03,6.479-.364,14.686-.265,16.981,2.286,4.389,4.876,3.6,14.908,2.6,27.61-1.029,13.029-2.308,29.244,1.588,45.73Zm-53.81-.418H408.6c-3.838-16.461-2.564-32.611-1.539-45.6.995-12.6,1.78-22.555-2.488-27.3-1.7-1.894-7.616-2.656-16.646-2.148-13.782.777-30.869,4.365-32.648,6.856-5.845,8.182-11.746,27.967-10.6,41.21,1.158,13.309,10.415,17.507,10.509,17.548l.125.055Z"/><path d="M404.733,778.2l49.308,30.886L443.72,837.272l-42.531-21.856S393.262,800,404.733,778.2" fill="#fff"/><path d="M443.835,837.566l-.21-.108-42.592-21.887-.03-.06c-.08-.155-7.845-15.758,3.545-37.408l.105-.2L454.3,809Zm-42.489-22.3,42.259,21.716,10.181-27.805L404.813,778.5C394.031,799.173,400.838,814.2,401.346,815.262Z"/><path d="M367.235,796.423c1.243.845.894,3.1-.645,4.162l-6.57,4.552a.561.561,0,0,1-.785-.767l4.878-6.952a2.372,2.372,0,0,1,3.122-1" fill="#ff6aa9"/><path d="M359.711,805.53a.866.866,0,0,1-.614-.262.814.814,0,0,1-.1-1.067l4.879-6.952c.924-1.318,2.473-1.788,3.529-1.07a2.112,2.112,0,0,1,.883,1.81,3.553,3.553,0,0,1-1.526,2.839l-6.569,4.551A.83.83,0,0,1,359.711,805.53Zm6.584-9.091a2.509,2.509,0,0,0-1.94,1.149l-4.879,6.952a.237.237,0,0,0,.039.311.261.261,0,0,0,.337.043l6.57-4.552a2.951,2.951,0,0,0,1.272-2.351,1.544,1.544,0,0,0-.625-1.324h0A1.362,1.362,0,0,0,366.3,796.439Z"/><path d="M362.529,795.155c1.28.787,1.035,3.051-.453,4.187l-6.354,4.849a.561.561,0,0,1-.82-.729l4.554-7.17a2.372,2.372,0,0,1,3.073-1.137" fill="#ff6aa9"/><path d="M355.394,804.6a.871.871,0,0,1-.589-.235.812.812,0,0,1-.152-1.06l4.554-7.17c.863-1.358,2.39-1.9,3.477-1.231h0a2.115,2.115,0,0,1,.965,1.768,3.555,3.555,0,0,1-1.394,2.9l-6.353,4.85A.834.834,0,0,1,355.394,804.6Zm6.269-9.387a2.476,2.476,0,0,0-1.958,1.239l-4.554,7.169a.235.235,0,0,0,.053.309.26.26,0,0,0,.339.027l6.353-4.849a2.951,2.951,0,0,0,1.163-2.407,1.542,1.542,0,0,0-.685-1.294h0A1.352,1.352,0,0,0,361.663,795.212Z"/><path d="M437.184,837.78l-60.737-39.187a4.268,4.268,0,0,1,3.305-7.738l70.306,16.782a16.626,16.626,0,1,1-12.874,30.143" fill="#fff"/><path d="M446.156,840.669a16.7,16.7,0,0,1-9.085-2.713l-60.737-39.188a4.477,4.477,0,0,1,3.467-8.116l70.3,16.782a16.9,16.9,0,0,1,12.519,20.057,16.629,16.629,0,0,1-10.048,11.9A16.929,16.929,0,0,1,446.156,840.669ZM437.3,837.6a16.416,16.416,0,0,0,24.919-10.2,16.482,16.482,0,0,0-12.208-19.559l-70.3-16.783a4.059,4.059,0,0,0-3.143,7.359Z"/><path d="M381.978,793.929c1.294,3.938-1.431,7.671-5.039,6.9l-15.4-3.273c-1.162-.247-1.645-2.623-.6-2.941l14.829-4.517c2.5-.762,5.263.941,6.211,3.827" fill="#f99"/><path d="M377.878,801.229a4.864,4.864,0,0,1-1-.107l-15.4-3.273a2.176,2.176,0,0,1-1.408-2.092,1.287,1.287,0,0,1,.784-1.421l14.829-4.517c2.635-.8,5.586,1,6.578,4.018h0a5.991,5.991,0,0,1-1.042,5.876A4.433,4.433,0,0,1,377.878,801.229Zm-.9-11.011a3.821,3.821,0,0,0-1.121.167L361.024,794.9c-.368.112-.373.664-.366.831.028.652.413,1.427.94,1.539l15.4,3.273a3.875,3.875,0,0,0,3.777-1.225,5.4,5.4,0,0,0,.921-5.3h0A5.254,5.254,0,0,0,376.974,790.218Z"/><path d="M368.995,819.39H345.88L336.219,782.5h23.114Z"/><path d="M369.282,819.612H345.709l-9.777-37.338H359.5Zm-23.231-.443h22.657l-9.546-36.452H336.506Z" fill="#fff"/><path d="M366.327,819.39H343.213L333.551,782.5h23.114Z"/><path d="M366.614,819.612H343.042l-9.777-37.338h23.572Zm-23.23-.443H366.04l-9.545-36.452H333.839Z" fill="#fff"/><path d="M301.643,845.889l32.541-39.227c2.16-2.6,7.1-.263,6.109,2.9l-14.849,47.624c-1.867,5.991-9.027,9.14-16.07,7.067-8.957-2.634-12.937-12.087-7.731-18.363" fill="#fff"/><path d="M313.7,865.09a15.537,15.537,0,0,1-4.383-.637,14.005,14.005,0,0,1-9.72-9.066,10.182,10.182,0,0,1,1.887-9.631l.161.133-.161-.133,32.541-39.228a3.739,3.739,0,0,1,4.7-.659,3.173,3.173,0,0,1,1.769,3.755l-14.849,47.623C324.143,862.061,319.22,865.09,313.7,865.09ZM301.8,846.023a9.772,9.772,0,0,0-1.809,9.242,13.593,13.593,0,0,0,9.438,8.787c6.894,2.029,13.988-1.08,15.812-6.929L340.094,809.5a2.8,2.8,0,0,0-1.569-3.262,3.329,3.329,0,0,0-4.181.558Z"/><path d="M378.741,1061.1v-17.075l-23.628-4.726,5.272,33.55c.011.074.031.144.044.217v32.393h11.224l9.236-19.791a24.659,24.659,0,0,0-2.148-24.568" fill="#f99"/><path d="M371.841,1105.753H360.134l-.013-32.721c-.011-.046-.021-.093-.028-.141l-5.338-33.967,24.282,4.857v17.224a25.016,25.016,0,0,1,2.12,24.786Zm-11.117-.591h10.741l9.156-19.622a24.422,24.422,0,0,0-2.122-24.273l-.053-.077v-16.925l-22.976-4.595,5.207,33.131c.005.035.013.068.02.1l.023.111Z"/><path d="M327.926,804.31l3.7,7.711a3.336,3.336,0,0,0,4.845,1.345c5.457-3.6,15.819-10.989,14.506-14.49-1.306-3.483-14.16-.871-20.834.745a3.335,3.335,0,0,0-2.218,4.689" fill="#f99"/><path d="M334.636,814.212a3.632,3.632,0,0,1-3.275-2.064l-3.7-7.71a3.632,3.632,0,0,1,2.416-5.1c8.946-2.166,19.882-4.02,21.179-.562s-7.236,9.975-14.619,14.841A3.643,3.643,0,0,1,334.636,814.212Zm-6.444-10.03,3.7,7.711a3.041,3.041,0,0,0,4.417,1.226c10.035-6.613,15.281-11.767,14.391-14.14-.867-2.314-8.526-1.966-20.487.929a3.041,3.041,0,0,0-2.022,4.274Z"/><path d="M355.113,851.449,328.53,941.238h64.443A31.233,31.233,0,0,0,423.027,901.5l-14.159-50.053Z" fill="#097867"/><path d="M392.919,891.027h-49.4A21.169,21.169,0,0,0,322.923,917.1l32.19,135.194H381.7V919.382" fill="#0a7968"/><path d="M381.99,1052.588H354.879L322.636,917.167a21.464,21.464,0,0,1,20.88-26.435h49.4v.591h-49.4a20.871,20.871,0,0,0-20.3,25.707L355.346,1052H381.4V919.382h.59Z" fill="#03003e"/><path d="M360.429,1091.406s-7.97,32.436,1.772,30c16.54-4.135,13.945-25.324,17.015-32.155s14.06-22.08,0-27.452c0,0,6.023,31.506-18.787,29.606" fill="#0a3a36"/><path d="M381.7,779.382a38.654,38.654,0,0,1-2.363-13.587c.591-15.949-3.505-23.344-8.27-24.81-6.437-1.98-14.177,4.726-13,17.722,1.284,14.118,11.224,10.633,11.224,10.633l1.181,12.4s5.317,2.953,11.224-2.363" fill="#f99"/><path d="M374.2,782.842a8.758,8.758,0,0,1-3.875-.839l-.136-.076-1.162-12.2a8.442,8.442,0,0,1-6.583-.9c-2.648-1.7-4.221-5.1-4.675-10.086-.643-7.075,1.279-12.991,5.274-16.231a8.708,8.708,0,0,1,8.1-1.8c5.825,1.792,8.994,11.176,8.478,25.1a38.616,38.616,0,0,0,2.343,13.468l.074.191-.152.136A11.35,11.35,0,0,1,374.2,782.842Zm-3.453-1.287c.854.413,5.433,2.275,10.6-2.259a39.165,39.165,0,0,1-2.31-13.512c.505-13.643-2.509-22.808-8.062-24.516a8.122,8.122,0,0,0-7.557,1.694c-3.839,3.114-5.683,8.843-5.058,15.718.436,4.8,1.917,8.039,4.4,9.639a8.071,8.071,0,0,0,6.431.742l.356-.124Z"/><path d="M355.408,754.276s13.789-4.439,17.131-9.451c2.363-3.544.484,11.583,6.149,8.745s-2.014-15.243-9.693-15.834-21.771,6.364-13.587,16.54" fill="#0a3a36"/><path d="M378.193,750.817s3.5-2.152,3.5.211-1.181,4.725-3.544,5.316" fill="#f99"/><path d="M378.222,756.63l-.143-.573c2.294-.573,3.321-2.939,3.321-5.03,0-.559-.222-.683-.295-.724-.577-.32-2,.3-2.758.765l-.309-.5c.231-.142,2.291-1.372,3.356-.777a1.3,1.3,0,0,1,.6,1.239C381.991,753.347,380.826,755.98,378.222,756.63Z"/><rect width="58.656" height="0.591" transform="translate(352.606 859.619)" fill="#03003e"/><path d="M369.3,890.811a9.909,9.909,0,0,1-1.355-.095.3.3,0,0,1-.251-.341l6.484-38.974.583.1-6.433,38.67a7.211,7.211,0,0,0,5.979-1.927c6.262-5.922,4.953-23.155,4.938-23.328l.589-.047c.058.719,1.345,17.689-5.121,23.8A7.624,7.624,0,0,1,369.3,890.811Z" fill="#03003e"/><path d="M378.372,859.034a3.238,3.238,0,1,1,3.238-3.239A3.243,3.243,0,0,1,378.372,859.034Zm0-5.886a2.647,2.647,0,1,0,2.648,2.647A2.65,2.65,0,0,0,378.372,853.148Z" fill="#03003e"/><path d="M369.2,851.449l-1.35,13.44h-4.388l1.726-13.44Z" fill="#0a7968"/><path d="M368.113,865.185h-4.99l1.8-14.031h4.6Zm-4.319-.591h3.785l1.291-12.849h-3.426Z" fill="#03003e"/><path d="M413.3,890.811H401.421v-.59h9.812c-12.968-4.722-9.738-23.479-9.7-23.677l.581.1c-.037.2-3.486,20.259,11.251,23.579a.3.3,0,0,1-.064.583Z" fill="#03003e"/><path d="M386.125,842.207H355.113a.209.209,0,1,1,0-.418h31.012a.209.209,0,1,1,0,.418Z"/><path d="M390.936,851.449l1.35,13.44h4.388l-1.726-13.44Z" fill="#0a7968"/><path d="M397.009,865.185h-4.99l-1.41-14.031h4.6Zm-4.456-.591h3.785l-1.65-12.849h-3.426Z" fill="#03003e"/><g opacity="0.36"><g clip-path="url(#a)"><path d="M359.131,1043.962a5.023,5.023,0,0,1-4.908-3.988L329.713,923.5a24.358,24.358,0,0,1,22.773-30.961l36.726-1.214a5.021,5.021,0,1,1,.331,10.037l-36.753,1.215a14.316,14.316,0,0,0-13.379,18.311l.092.369,24.547,116.649a5.028,5.028,0,0,1-4.919,6.056Z" fill="#61d693"/></g></g><g opacity="0.36"><g clip-path="url(#b)"><path d="M300.214,947.441a5,5,0,0,1-3.007-1L271.1,926.867a22.859,22.859,0,0,1,14.555-40.452l25.946-.408h.08a5.021,5.021,0,0,1,.078,10.042l-26.063.409a12.817,12.817,0,0,0-8.272,22.607L303.229,938.4a5.021,5.021,0,0,1-3.015,9.04Z" fill="#61d693"/></g></g></g></svg>