<svg xmlns="http://www.w3.org/2000/svg" xmlns:xlink="http://www.w3.org/1999/xlink" width="108.025" height="108.026" viewBox="0 0 108.025 108.026"><defs><clipPath id="a"><circle cx="54.013" cy="54.013" r="54.013" transform="translate(96.368 439.054)" fill="none"/></clipPath></defs><g transform="translate(-96.368 -439.054)" opacity="0.58" style="mix-blend-mode:overlay;isolation:isolate"><g clip-path="url(#a)"><rect width="2.88" height="180.361" transform="translate(255.505 515.741) rotate(135)" fill="#fff"/><rect width="2.881" height="180.361" transform="matrix(-0.707, 0.707, -0.707, -0.707, 249.755, 521.492)" fill="#fff"/><rect width="2.881" height="180.361" transform="translate(244.047 527.199) rotate(135)" fill="#fff"/><rect width="2.881" height="180.361" transform="matrix(-0.707, 0.707, -0.707, -0.707, 238.339, 532.906)" fill="#fff"/><rect width="2.88" height="180.361" transform="translate(232.589 538.657) rotate(135)" fill="#fff"/><rect width="2.88" height="180.361" transform="translate(226.86 544.386) rotate(135)" fill="#fff"/><rect width="2.881" height="180.361" transform="translate(221.131 550.115) rotate(135)" fill="#fff"/><rect width="2.881" height="180.361" transform="translate(215.402 555.844) rotate(135)" fill="#fff"/><rect width="2.88" height="180.361" transform="translate(209.673 561.573) rotate(135)" fill="#fff"/><rect width="2.88" height="180.361" transform="translate(203.944 567.302) rotate(135)" fill="#fff"/><rect width="2.881" height="180.361" transform="matrix(-0.707, 0.707, -0.707, -0.707, 198.194, 573.053)" fill="#fff"/><rect width="2.881" height="180.361" transform="translate(192.486 578.76) rotate(135)" fill="#fff"/><rect width="2.881" height="180.361" transform="matrix(-0.707, 0.707, -0.707, -0.707, 186.778, 584.467)" fill="#fff"/><rect width="2.88" height="180.361" transform="translate(181.028 590.218) rotate(135)" fill="#fff"/><rect width="2.88" height="180.361" transform="translate(175.299 595.947) rotate(135)" fill="#fff"/></g></g></svg>