<svg xmlns="http://www.w3.org/2000/svg" xmlns:xlink="http://www.w3.org/1999/xlink" width="490.412" height="259.055" viewBox="0 0 490.412 259.055"><defs><clipPath id="a"><circle cx="80.429" cy="80.429" r="80.429" transform="translate(779.497 262.881)" fill="none"/></clipPath></defs><g transform="translate(-779.919 -258.275)"><g transform="translate(0.422)"><path d="M1070.234,430.726c.542,5.815-3.327,9.352-8.711,7.4-5.109-1.852-6.2,2.16-10.429,2.6-4.505.475-5.738-5.35-8.889-2.925-6.08,4.68-12.029,1.1-9.986-5.214,1.653-5.108,4.779-6.308,7.427-6.4,4.8-.163,3.69-4.247,9.275-4.55,7.129-.388,5.139,6.092,11.513,4.587C1064.387,425.3,1069.947,427.654,1070.234,430.726Z" fill="#fff" fill-rule="evenodd"/><path d="M1195.72,448.15v.55c-.02,1.34-.07,2.79-.16,4.33-.07,1.22-.15,2.52-.26,3.88-.18,2.25-.41,4.69-.74,7.36-1,8.26-1.07,32.7-.72,53.06h-26.19c-1.21-11.38-2.84-26.93-6.23-49.76a.155.155,0,0,1-.03.06.942.942,0,0,0-.03.09c-.01.03-.03.07-.04.11a.556.556,0,0,1-.04.12c-.02.04-.03.09-.05.14s-.04.11-.06.17l-.03.09-.03.09c-.07.17-.14.38-.22.6-.58,1.59-1.59,4.36-2.85,7.93-1.09,3.08-2.4,6.83-3.81,10.95l-.01.02c-.17.5-.35,1.02-.52,1.54l-.18.51V490l-.01.04c-2.92,8.56-6.13,18.43-8.55,27.29h-26.74c2.96-15.25,10.36-53.52,15.12-80.2v-.01c1.72-9.67,3.1-17.82,3.79-22.79,0,0,.95-.13,2.58-.29h.01c1.58-.16,3.81-.36,6.44-.51a113.374,113.374,0,0,1,19.67.47h.01c6.79.86,13.16,2.67,17.02,6.15a10.84,10.84,0,0,1,3.71,7.25c.25,2.67,8.6-1.03,8.57,1.22-.03,1.72.02,3.38.09,5.05v.01c.06,1.27.14,2.53.21,3.86.06,1.24.13,2.52.18,3.88a1.693,1.693,0,0,1,.01.23.969.969,0,0,0,.01.17.67.67,0,0,0,0,.2c.03.84.06,1.71.07,2.62C1195.73,445.75,1195.73,446.91,1195.72,448.15Z" fill="#3b3b4d"/><path d="M1166.581,458.841a.241.241,0,0,0-.008.03,1.505,1.505,0,0,1-.164-.107A1.432,1.432,0,0,1,1166.581,458.841Z" fill="#1f1f3b" opacity="0.46"/><path d="M1161.417,467.563l0,.006c-.063.173-5.942,16.872-7.9,22.469l5.6-32.2S1159.031,459.184,1161.417,467.563Z" fill="#1f1f3b" opacity="0.54"/><path d="M1195.64,453.058c-.486-.105-25.161-10.268-28.217-21.289,0,0,21.647,1.262,27.934,1.917C1195.632,438.715,1195.837,450.212,1195.64,453.058Z" fill="#1f1f3b" opacity="0.35"/><path d="M1184.475,446.351s0,.011.009.028a1.4,1.4,0,0,1-.182-.012A1.3,1.3,0,0,1,1184.475,446.351Z" fill="#1f1f39" opacity="0.46"/><path d="M1066.613,303.32c3.092-14.26-5.746-9.614-6.11-18.352-.06-1.433,9.03-8.066,13.356-3.677s5.663,13.611,4.995,17.861-6.131,4.8-7.531,4.291S1066.613,303.32,1066.613,303.32Z" fill="#efaea6"/><path d="M1162.9,452.6a.172.172,0,0,0-.007.03,1.8,1.8,0,0,1-.154-.1A1.216,1.216,0,0,1,1162.9,452.6Z" fill="#1f1f39" opacity="0.46"/><path d="M1155.62,339.522l-11.168,1.928s-10.855,1.726-8.822-.646c2.721-3.167,2.537-6.514,3.623-8.648a18.265,18.265,0,0,0,1.42-5.341,58.105,58.105,0,0,0,.522-7.023l-.143-.883,1.194-2.506,3.492-7.332s7.3,3.864,7.67,8.817C1153.743,322.4,1156.225,334.579,1155.62,339.522Z" fill="#9e5a29"/><path d="M1140.673,326.815a58.105,58.105,0,0,0,.522-7.023l-.143-.883,1.194-2.506,1.269-.48a49.946,49.946,0,0,1,4.539,4.464C1149.4,322.248,1146.032,328.32,1140.673,326.815Z" fill="#1f1f39" opacity="0.14"/><path d="M1154.569,326.387c-4.729-1.119-4.86,6.874-9.559,7.452-2.48.305-1.976-.837-3.2-1.973-.754-.7-1.465-1.489-2.56-.231-22.261,25.591,4.5,86.727,1.72,91.183-2.277,3.645,17.729,10.579,29.969,6.961,16.786-4.962,14.979-23.929,14.339-27.54s-14.085-64.874-14.085-64.874A92.785,92.785,0,0,1,1154.569,326.387Z" fill="#fff"/><path d="M1064.6,305.591c.181,1.708.868,51.007,19.2,54.891,8.107,1.717,36.178,4.4,40.983,7.569,3.657,2.412,7.675,10.5,7.428,15.145-.2,3.735-.505,7.349-.548,10.014-.112,6.845-2.8,35.876,6.122,43.82,5.67,5.049,9.89,4.093,12.7.895,4.825-5.488-2.562-27.634-2.592-49.988-.023-17.283-8.682-26.643-8.222-40.971.35-10.84-.607-14.9-.607-14.9-25.131,12.752-42.454,10.853-48.426,9.33-7.672-1.957-6.478-35.239-9.385-37.1C1080.1,303.57,1064.166,301.5,1064.6,305.591Z" fill="#0267a4"/><path d="M1064.6,305.591c.181,1.708.868,51.007,19.2,54.891,8.107,1.717,36.178,4.4,40.983,7.569,3.657,2.412,7.675,10.5,7.428,15.145-.2,3.735-.505,7.349-.548,10.014-.112,6.845-2.8,35.876,6.122,43.82,5.67,5.049,9.89,4.093,12.7.895,4.825-5.488-2.562-27.634-2.592-49.988-.023-17.283-8.682-26.643-8.222-40.971.35-10.84-.607-14.9-.607-14.9-25.131,12.752-42.454,10.853-48.426,9.33-7.672-1.957-6.478-35.239-9.385-37.1C1080.1,303.57,1064.166,301.5,1064.6,305.591Z" fill="#1f1f39" opacity="0.14"/><path d="M1200.116,441c-1.925,8.875-24.022.308-30.838-6.517-5.65-5.661-.487-13.5-5.05-27.052-2.308-6.848-5.831-18.654-7.293-27.84-.142-.9-.266-1.786-.368-2.633-.849-7.113-1.369-14.815-1.682-22.047-.143-3.287-.244-6.48-.31-9.474-.043-1.921-.072-3.763-.093-5.5-.068-6.417.008-11.375.087-13.556a33.088,33.088,0,0,1,21.894,9.828,16.912,16.912,0,0,1,3.17,5.022c.8,1.773,5.688,9.777,6.485,18.637.962,10.693,1.129,18.487,1.5,24.937.409,7.109,2.813,13.687,3.572,25.069C1191.873,420.1,1201.119,436.377,1200.116,441Z" fill="#0267a4"/><path d="M1168.556,348.337c.162,2.82-9.127,33.142-10.137,38.746-.142-.9-1.75-9.275-1.852-10.122-.849-7.113-1.369-14.815-1.682-22.047Z" fill="#1f1f39" opacity="0.18"/><path d="M1138.453,298.485c-1.269,4.159-7.6,11.239-4.74,11.873s-2.689,8.785.335,9.569c7.329,1.9,16.828-.861,18.554-4.21s3.362-13.419,3.362-13.419Z" fill="#9e5a29"/><path d="M1145.174,304.268c-2.386-.25-2.577.284-4.038-.871s1.846-2.771-1.087-3.957-6.231-2.123-5.8-5.674c.629-5.141,4.922-3.353,7.554-2.151,1.693.774,2.966-2.983,6.477-2.021,2.755.755,2.078,2.306,4.506,3.088,1.466.472,4.923-1.336,6.868.99,3.609,4.316-.893,7.611,1.938,11.988,3.3,5.1-8.353,11.8-9.249,10.469-1.046-1.548,1.828-5.424.714-6.734-1.679-1.977-2.3-.32-4.328.888-2.166,1.291-5.51.648-2.669-2.147S1147.334,304.494,1145.174,304.268Z" fill="#1f1f39"/><path d="M1141.109,332.451a.465.465,0,0,0,.185-.054l-.008.005-.022.02c-.013.008-.036.035-.056.052a3.318,3.318,0,0,0-.3.366c-.216.29-.431.631-.641.977-.419.7-.823,1.435-1.227,2.176-.805,1.485-1.608,2.992-2.441,4.486a101.543,101.543,0,0,1-5.412,8.766,67.566,67.566,0,0,1-6.526,8.048,50.539,50.539,0,0,1-7.907,6.788,41.854,41.854,0,0,1-9.288,4.832,40.786,40.786,0,0,1-10.226,2.318,47.25,47.25,0,0,1-10.453-.193c-.865-.1-1.724-.242-2.581-.386l-.641-.117-.321-.059c-.107-.02-.22-.048-.329-.072l-.662-.151c-.22-.052-.443-.1-.657-.165a24.118,24.118,0,0,1-4.991-2,32.827,32.827,0,0,1-4.462-2.878,41.816,41.816,0,0,1-3.975-3.442q-1.87-1.832-3.564-3.812t-3.229-4.067c-1.021-1.393-2.011-2.807-2.955-4.247s-1.859-2.9-2.73-4.379-1.725-2.971-2.539-4.481c-.414-.752-.808-1.513-1.209-2.271s-.789-1.522-1.167-2.291c-3.068-6.13-5.768-12.423-8.216-18.8q-1.838-4.787-3.478-9.645-.82-2.428-1.594-4.874-.387-1.224-.757-2.454c-.248-.823-.489-1.635-.726-2.481a1.572,1.572,0,1,1,3.028-.848l0,.009,0,.012c.216.79.453,1.609.69,2.413s.483,1.615.732,2.421q.745,2.418,1.546,4.822,1.6,4.807,3.379,9.551c2.381,6.319,5.01,12.545,7.989,18.587.368.758.755,1.5,1.133,2.257s.772,1.495,1.173,2.234q1.185,2.227,2.46,4.4c.842,1.453,1.73,2.875,2.635,4.285s1.862,2.782,2.841,4.135,2.016,2.658,3.085,3.933,2.2,2.487,3.371,3.65a39.092,39.092,0,0,0,3.706,3.249,30.287,30.287,0,0,0,4.076,2.666,21.541,21.541,0,0,0,4.442,1.809c.189.064.384.1.577.148l.58.136c.1.022.191.047.292.066l.306.058.611.116c.817.141,1.635.279,2.457.382a44.668,44.668,0,0,0,9.884.243,38.3,38.3,0,0,0,9.613-2.118,39.4,39.4,0,0,0,8.773-4.5,48.132,48.132,0,0,0,7.57-6.424,65.208,65.208,0,0,0,6.345-7.733,99.5,99.5,0,0,0,5.342-8.541c.83-1.469,1.633-2.955,2.456-4.452.414-.749.831-1.5,1.29-2.254.234-.379.473-.757.765-1.148a5.43,5.43,0,0,1,.518-.606c.058-.055.107-.106.178-.163l.1-.083.122-.087a1.751,1.751,0,0,1,.765-.3,1.09,1.09,0,1,1,.272,2.162Z" fill="#252530"/><path d="M1264.673,265.631c3.2,0,9.779,5.678.378,6.588s-23.482.491-29.179.51c-9.3.031-11.608-.349-11.534-4.149.043-2.2,1.23-3.624,6.133-4.2,5.1-.6,2.495-6.273,8.721-6.1,5.3.147,5.844,7.571,10.7,5.752s3.836,3.139,7.385,4.049C1261.173,269.08,1261.473,265.631,1264.673,265.631Z" fill="#fff"/><path d="M1105.276,302.935a7.678,7.678,0,0,1-.748,3.623c-.611,1.053-1.737,1.836-3.828,1.843-3.9.012-4.334-1.93-9.48-1.462s-14.829,6.391-18.154,6.192c-3.025-.184-77.453,10.007-91.378,7.058a7.347,7.347,0,0,1-1.214-.351c-.629-.254-.979-.568-1.016-.947-.046-.473-.082-1.183-.107-2.089-.272-9.431.549-40.257,2.963-50.125.481-1.969,1.027-3.1,1.638-3.069a21.092,21.092,0,0,1,2.922.571c14.738,3.569,74.276,22.606,84.849,24.469,11.192,1.972,15.7,9.447,18.875,9.854,4.5.572,4.141-1.13,10.738-.632C1104.89,298.137,1105.312,301.545,1105.276,302.935Z" fill="#454554"/><path d="M1104.528,306.558c-.611,1.053-1.737,1.836-3.828,1.843-3.9.012-4.334-1.93-9.48-1.462s-14.829,6.391-18.154,6.192c-3.025-.184-77.453,10.007-91.378,7.058l.154-.254q.986-1.637,1.963-3.252c3.825-6.334,7.44-12.3,9.979-16.493,2.226-3.674,3.628-5.983,3.628-5.983a7.736,7.736,0,0,0,3.569,2.4c15.9,6.608,75.737,8.919,86.461,7.683C1096.641,303.234,1102.38,305.475,1104.528,306.558Z" fill="#1f1f39" opacity="0.18"/><path d="M1001.205,294.294c-.763,11.23-5.953,20.154-12.536,23.825a13.39,13.39,0,0,1-7.831,1.762c-8.28-.779-14.173-13.535-13.125-28.975s7.331-28,15.635-27.54a10.973,10.973,0,0,1,3.525.813h0l.01.006a16.4,16.4,0,0,1,5.268,3.592C997.9,273.429,1001.92,283.747,1001.205,294.294Z" fill="#1f1f39"/><path d="M995.011,289.959c.005.915-.022,1.832-.084,2.745-.034.484-.074.968-.124,1.451a46.081,46.081,0,0,1-1.78,8.828q-.182.59-.377,1.164a35.084,35.084,0,0,1-2.845,6.371c-2.463,4.216-5.558,6.9-8.75,6.681a6.189,6.189,0,0,1-3.388-1.386,10.736,10.736,0,0,1-1.786-1.807,19.738,19.738,0,0,1-2.673-4.744q-.114-.273-.222-.553a42.785,42.785,0,0,1-2.432-17.66c.851-12.525,6.081-24.861,12.813-24.4C989.6,267.069,994.943,278.338,995.011,289.959Z" fill="#fff"/><path d="M1138.669,304.381a4.5,4.5,0,0,1-1.083,2.274,1.931,1.931,0,0,1-1.354.6c-3.9.068-4.971-1.589-10.117-1.121-5.092.463-14.61,7.931-18.033,7.9-.037,0-.073,0-.108,0-3.025-.182-77.453,10.008-91.378,7.059a7.3,7.3,0,0,1-1.21-.349h0c-.629-.255-.98-.568-1.016-.947-.014-.152-.028-.327-.042-.527s-.022-.393-.033-.619c-.012-.285-.023-.6-.033-.944-.272-9.431.549-40.257,2.963-50.124.482-1.969,1.027-3.1,1.639-3.069a20.764,20.764,0,0,1,2.906.566l.016,0c14.738,3.569,74.276,22.606,84.849,24.469,11.192,1.973,16.778,10.776,19.956,11.19,4.213.551,2.118-.312,8.716.186C1138.857,301.193,1138.922,302.972,1138.669,304.381Z" fill="#454554"/><path d="M1137.586,306.655a1.931,1.931,0,0,1-1.354.6c-3.9.068-4.971-1.589-10.117-1.121-5.092.463-14.61,7.931-18.033,7.9-.037,0-.073,0-.108,0-3.025-.182-77.453,10.008-91.378,7.059.053-.085.1-.17.155-.254q.452-.75.9-1.5l1.059-1.754v0l.887-1.467c1.45-2.4,2.861-4.733,4.18-6.917h0c1.858-3.07,3.539-5.846,4.908-8.105v0c2.226-3.673,3.628-5.982,3.628-5.982a7.734,7.734,0,0,0,3.569,2.4c15.9,6.609,75.737,8.92,86.462,7.683A32.706,32.706,0,0,1,1137.586,306.655Z" fill="#1f1f39" opacity="0.18"/><path d="M1036.114,295.2c-.764,11.23-5.953,20.153-12.536,23.824a13.386,13.386,0,0,1-7.832,1.762c-8.279-.778-14.173-13.535-13.124-28.975s7.331-28,15.634-27.539a10.946,10.946,0,0,1,3.525.813h0l.009.006a16.434,16.434,0,0,1,5.269,3.592C1032.806,274.33,1036.828,284.648,1036.114,295.2Z" fill="#1f1f39"/><path d="M1029.835,293.607a45.547,45.547,0,0,1-1,6.855q-.312,1.4-.706,2.759-.331,1.141-.716,2.237-.358,1.03-.764,2.009a25.039,25.039,0,0,1-4.886,7.912c-.026.026-.051.053-.078.078-.055.056-.111.111-.167.166a7.425,7.425,0,0,1-5.56,2.477,5.426,5.426,0,0,1-1.361-.273,6.22,6.22,0,0,1-1.377-.659,10.977,10.977,0,0,1-3.2-3.317c-.068-.1-.135-.205-.2-.311a27.4,27.4,0,0,1-3.128-7.692,44.844,44.844,0,0,1-1.235-13.9c.85-12.526,6.08-24.861,12.812-24.4S1030.686,281.08,1029.835,293.607Z" fill="#fff"/><path d="M1033.093,287.34c4.409-1.319,4.776-3.383,4.754-9.617,1.4,5.722,2.452,7.818,7.127,7.837-3.764,2.216-5.084,3.013-4.856,9.822C1038.18,288.726,1037.218,288.248,1033.093,287.34Z" fill="#fff"/><path d="M991.788,324.011c5.82-1.179,6.5-3.326,7.089-9.861,1.235,6.062,2.387,8.308,8.415,8.543-5.076,2.149-6.858,2.924-7.24,10.071C998.214,325.7,997.02,325.153,991.788,324.011Z" fill="#fff"/><path d="M1083.128,298.086c3.119.693,8.359,1.4,8.54.407s.5-4.429-.768-4.519-1.582-2.033-3.118-2.214c-1-.118-1.568.746-2.079,1.13-.542.406-1.491-.317-2.169.587C1082.936,294.276,1082.314,297.9,1083.128,298.086Z" fill="#1f1f39" opacity="0.18"/><path d="M1088.853,295.761c-.029.7-.038,1.449-.04,2.188s0,1.487.014,2.232q.031,2.236.119,4.48.171,4.483.525,8.961c.473,5.965,1.173,11.914,2.214,17.789.523,2.936,1.13,5.854,1.86,8.734.36,1.441.762,2.869,1.192,4.285.212.71.445,1.411.675,2.113l.363,1.046c.119.349.253.692.379,1.038a45.711,45.711,0,0,0,3.749,7.9A26.693,26.693,0,0,0,1102.41,360a17.753,17.753,0,0,0,3.053,2.841,13.58,13.58,0,0,0,3.65,1.845,18.018,18.018,0,0,0,4.1.85,22.068,22.068,0,0,0,4.253-.029,27.859,27.859,0,0,0,4.234-.778,35.026,35.026,0,0,0,8.04-3.3,44.14,44.14,0,0,0,7.183-5.041,52.852,52.852,0,0,0,11.192-13.583,60.864,60.864,0,0,0,6.515-16.454h0a1.09,1.09,0,0,1,2.122.5,63.177,63.177,0,0,1-6.6,17.127,55.308,55.308,0,0,1-11.582,14.312,46.68,46.68,0,0,1-7.553,5.4,39.145,39.145,0,0,1-4.184,2.078,35.783,35.783,0,0,1-4.433,1.551,30.5,30.5,0,0,1-4.646.9,24.9,24.9,0,0,1-4.777.074,20.821,20.821,0,0,1-4.742-.939,17.886,17.886,0,0,1-2.28-.921c-.191-.084-.369-.189-.55-.289l-.543-.3c-.35-.217-.7-.442-1.037-.671a20.664,20.664,0,0,1-3.587-3.268,29.609,29.609,0,0,1-2.818-3.826,48.7,48.7,0,0,1-4.075-8.377c-.135-.361-.278-.72-.406-1.082l-.389-1.088c-.245-.728-.494-1.455-.721-2.188-.459-1.465-.888-2.937-1.272-4.417-.779-2.959-1.428-5.943-1.99-8.938-1.117-5.992-1.883-12.029-2.418-18.08q-.4-4.539-.616-9.093c-.071-1.518-.128-3.037-.163-4.56q-.027-1.143-.035-2.291c0-.769,0-1.53.021-2.334a1.75,1.75,0,0,1,3.5.11v.03Z" fill="#252530"/><path d="M1101.11,316.173c-.118-1.772-6.355-6-5.722-7.223,1.18-2.277,4.221.606,5.681-3.418,1.138-3.135-4.225-8.549-.182-9.369,9.462-1.917,12.749,5.376,10.073,13.138-2.079,6.033,1.091,10.543.561,15.91s-11.153-1.079-11.153-1.079A36.005,36.005,0,0,0,1101.11,316.173Z" fill="#9e5a29"/><path d="M1158.6,330.62c-22.262,16.205-49.312,67.528-45.414-10.758.093-1.882-15.2-5.876-15.481-2.993-11.992,124.494,64.666,42.233,74.462,35.1,4.151-3.024,3.4-19.549-3.639-19.974S1158.6,330.62,1158.6,330.62Z" fill="#0267a4"/><path d="M1145.623,335.3c.494-.292,4.753,9.387,11.054,12.856a15.285,15.285,0,0,0,5.627,1.889,128.058,128.058,0,0,0,21.579.459c-1.55-3.351-1.655-4.951-4.147-8.056-5.44,1.388-13.406,2.225-16.451,1.716a22.2,22.2,0,0,1-6.306-2.112,37,37,0,0,1-8.989-6.653c-1.167-1.138-1.258-2.777-2.73-2.918C1143.308,332.3,1144.988,335.677,1145.623,335.3Z" fill="#1f1f39" opacity="0.18"/><path d="M1142.765,333.214a2.441,2.441,0,0,1,2.8-2.2c1.471.142,1.557.748,2.726,1.887,3.51,3.42,8.8,7.68,15.3,8.766s21.907-6.644,31.46-3.988,12,11.5,25.837,14.524,29.192-2.014,33.271-1.071,6.523,1.989,6.326,3.615-2.4,4.208-5.364,5.2-28.555,1.261-35.235-.03c-10.9-2.107-19.784-12.566-26.828-13.6-2.964-.435-7.36-.12-12.075.321-6.489.607-13.583,1.452-18.375.909-9.226-1.046-16.141-12.258-16.775-11.885a2.516,2.516,0,0,1-2.392.37C1142.634,335.782,1142.653,334.137,1142.765,333.214Z" fill="#f4ad00"/><path d="M1082.947,297.589c3.119.693,8.359,1.4,8.54.407s.5-4.429-.768-4.519-1.582-2.033-3.118-2.214c-1-.118-1.567.746-2.078,1.13-.543.406-1.492-.317-2.169.587C1082.755,293.779,1082.134,297.408,1082.947,297.589Z" fill="#261d1f"/><path d="M992.646,304.147a35.084,35.084,0,0,1-2.845,6.371c-2.463,4.216-5.558,6.9-8.75,6.681a6.189,6.189,0,0,1-3.388-1.386,8.089,8.089,0,0,0-1.786-1.807,19.738,19.738,0,0,1-2.673-4.744,11.349,11.349,0,0,1,1.618-3.269c1.372-2.1-.206-7.53,2.523-9.2l.923-.264,2.924-.837a3.061,3.061,0,0,1,.827-.011c.13.009.28.025.449.046h0a16.951,16.951,0,0,1,1.95.383c.029.007.06.014.092.023a6.5,6.5,0,0,1,2.07,1.13,21.747,21.747,0,0,1,3.032,2.827A27.127,27.127,0,0,1,992.646,304.147Z" fill="#8dc9db" opacity="0.9"/><path d="M1001.205,294.294c-.763,11.23-5.953,20.154-12.536,23.825-6.38.448-13.481.711-7.617-.92,9.568-2.663,9.776-19.005,10.093-25.425s-2.783-15.843-8.831-25.1l4.559-2.5h0l.01.006c.164.111,2.563,1.715,5.268,3.592C997.9,273.429,1001.92,283.747,1001.205,294.294Z" fill="#3d3d59" opacity="0.18"/><path d="M989.613,300.088c-2.426-.715-5.66-1.754-6.911-3.167l.357-.893a5.207,5.207,0,0,1,1.452.1C985.753,296.446,987.728,298,989.613,300.088Z" fill="#1f1f39" opacity="0.1"/><path d="M982.58,294.536c1.708,2.778-2.837,5.731-4.066,6.025-.737.175-1.38-.2-.178-2.969.055-.124.253-.442.424-.8l0,0c.25-.53.442-1.154.04-1.409a.961.961,0,0,0-.67-.114h0c-.67.1-1.405.63-1.7.579-.8-.135-.252-1.707-.547-2.132s-.023-.348.1-.452c.3-.263-.005-.214-.3-.288-.443-.109-.163-.42-.162-.807s-.718-.136-.981-.467.316-.527.811-1.4c.625-1.108-.076-1.661.132-2.79l4.887.241,1.486,2.78S980.141,290.569,982.58,294.536Z" fill="#f5b1b4"/><path d="M978.762,296.786c.25-.53.442-1.154.04-1.409a.961.961,0,0,0-.67-.114C980.032,294.478,981.01,294.93,978.762,296.786Z" fill="#1f1f3b" opacity="0.12"/><path d="M995.039,290.32c.005.914-.022,1.832-.084,2.745-.034.483-.074.967-.124,1.45a1.71,1.71,0,0,0-1.6-.191c-1.789.782-1.652,2.868-4.55,3.42-8.691-.148-7.5-4.039-8.623-5.278a1.406,1.406,0,0,1-.318-1.315c.211-.558.682-1.4.023-1.667-.55-.218-1.055-.063-1.187.315a.759.759,0,0,1-1.015.309c-.482-.388-.023-1.345-2.756-1.134-.495.039.084-1.956.227-2.342.34-.917,1.322-2.517,4.123-3.23,4.044-1.03,6.746,4.993,7.929,5.33s1.253-.525,4.715-1.009C994.677,287.322,994.474,289.461,995.039,290.32Z" fill="#f28f00" opacity="0.9"/><path d="M1016.5,301.567l3.674-1.888c-.322-1.8-.1-6.206-.7-7.754-.661-1.7-.8-1.573-.8-1.573l-2.377,2.164-1.118,1.019a4.782,4.782,0,0,1,.235,1.942,9.914,9.914,0,0,1-.856,3.447C1014.106,299.977,1016.5,301.567,1016.5,301.567Z" fill="#efaea6"/><path d="M1015.18,293.535a6.649,6.649,0,0,1,.224,2.132c2.641.623,3.7-1.511,2.954-2.076a18.029,18.029,0,0,0-2.06-1.075Z" fill="#1f1f39" opacity="0.14"/><path d="M1013.943,287.057c-.118,1.527-1.752,4.456-.721,4.446s-.253,3.225.844,3.254c2.658.071,5.706-1.63,6.043-2.915a25.223,25.223,0,0,0,.13-4.867Z" fill="#efaea6"/><path d="M1016.56,288.757c-.743-.4-.733.05-1.322-.23s.422-1.1-.674-1.271-1.721-.418-1.727-1.676a1.367,1.367,0,0,1,1.615-1.436c.64.131.525-1.012,1.79-1.1,1-.068,1.295.644,2.228.963.512.175,1.778-.4,2.623.247,1.566,1.193.03,2.148,1.335,3.423,1.521,1.488-2.011,4.492-2.552,4.639-.2.055-.724-.382-.262-1.175.239-.41.412-1.326.171-1.506-.425-.318-1.186-1.177-1.408,0-.157.835.232,3.718-.019,3.957-.645.614-4.6,1.852-4.684.814-.1-1.285,3.291-.2,3.1-1.516-.144-1.006-2.98.031-3.251-.772-.314-.928,3.481.217,3.7-.652A3.055,3.055,0,0,0,1016.56,288.757Z" fill="#1f1f39"/><path d="M1021.764,315.379c.014.24.037.477.066.712-.051-.21-.1-.42-.144-.634-.055.056-.111.111-.167.166a7.425,7.425,0,0,1-5.56,2.477,5.426,5.426,0,0,1-1.361-.273,6.22,6.22,0,0,1-1.377-.659c-.063-2.938-.1-6.027-.1-8.881h0c.006-5.249.17-9.7.659-10.921a.743.743,0,0,1,.171-.282.187.187,0,0,1,.1-.052,7.435,7.435,0,0,1,1.174-.164.429.429,0,0,1,.243.1c.421.374.428,1.1,1.3,1.007,1.225-.134,1.884-1.658,3.173-1.9a1.949,1.949,0,0,1,.723,0c.1.018.2.039.3.064l.042.01a10.675,10.675,0,0,1,3.175,1.462s.572,2.288,1.4,5.613c.113.455.232.931.355,1.423.222.892.459,1.838.7,2.819A25.039,25.039,0,0,1,1021.764,315.379Z" fill="#fff"/><path d="M1028.13,303.221q-.331,1.141-.716,2.237-.358,1.03-.764,2.009a25.039,25.039,0,0,1-4.886,7.912c.014.24.037.477.066.712-.051-.21-.1-.42-.144-.634-.016-.074-.031-.146-.045-.221a20.31,20.31,0,0,1-.354-2.491c-.019-.244-.044-.477-.071-.7-.273-2.163-.932-3.495-1.048-5.395-.015-.255-.027-.511-.036-.766-.005-.176-.009-.351-.012-.526,0-.287,0-.572,0-.855,0-.141.005-.283.009-.423s.009-.282.014-.42.011-.28.019-.417q.02-.393.047-.778.016-.224.033-.441c.02-.248.042-.491.066-.731.052-.528.11-1.035.17-1.512.012-.1.024-.188.036-.281.014-.111.029-.222.044-.329s.028-.214.043-.318.029-.207.042-.306c.011-.072.021-.143.032-.212.046-.319.09-.613.128-.881.007-.04.012-.08.018-.12.018-.119.034-.233.049-.339.039-.286.071-.527.091-.718.005-.049.009-.094.011-.135,0-.014,0-.028,0-.04a24.773,24.773,0,0,1,6.562,3.322,11.039,11.039,0,0,1,1.3,1.04Q1028.524,301.866,1028.13,303.221Z" fill="#4d4d5b"/><path d="M1014.118,297.057a.889.889,0,0,1-.159.022h-.01a6.287,6.287,0,0,0-3.943,2.061,16.306,16.306,0,0,0-3.312,6.705c.058.227.116.453.183.668s.113.423.179.638v.01c.162.539.333,1.058.513,1.565.062.166.116.332.178.5s.116.322.189.487c.164.439.347.856.529,1.263.11.262.23.514.35.765.105.193.2.386.3.578.107.213.224.424.35.625s.232.4.357.594l.205.316c.114.181.238.352.351.524.134.17.257.341.38.5.157.209.322.4.487.584.065.065.12.131.185.2.165.178.339.355.511.513.141.129.281.259.42.368a4.494,4.494,0,0,0,.427.328,1.21,1.21,0,0,0,.233.163,2.221,2.221,0,0,0,.19.125v.01h.01c.179.106.357.2.535.3.156.078.323.156.488.223h.01v.01c.114.042.217.084.331.125h.01c-.077-.475-.142-.921-.175-1.35-.071-.917-.143-1.714-.209-2.441l-.01-.13c-.168-1.782-.32-3.094-.417-4.6-.014-.18-.018-.36-.032-.55-.034-.559-.049-1.149-.06-1.81l0-.421c-.012-.551-.008-1.143,0-1.806.007-.291.014-.593.019-.914.009-.141.009-.282.017-.433l.221-3.487.173-2.822Z" fill="#4d4d5b"/><path d="M1025.947,304.648a5.216,5.216,0,0,1,1.467.81q-.358,1.03-.764,2.009a25.039,25.039,0,0,1-4.886,7.912c-.01-.16-.017-.319-.02-.48a9.8,9.8,0,0,1,.255-2.423,21.008,21.008,0,0,0,.453-5.586c-.009-.239-.022-.475-.036-.712h0a2.518,2.518,0,0,1,2.532-1.729A3.476,3.476,0,0,1,1025.947,304.648Z" fill="#1f1f39" opacity="0.16"/><path d="M1020.168,306.648c.116,1.9.775,3.233,1.048,5.4.248-.79,1.508-4.893,1.2-5.867-.341-1.08-.17-4.014,1.072-5.151s-.974-2.88-2.511-4.927C1020.9,297.379,1019.883,302.051,1020.168,306.648Z" fill="#1f1f39" opacity="0.77"/><path d="M1028.13,303.221q-.331,1.141-.716,2.237-.358,1.03-.764,2.009a25.039,25.039,0,0,1-4.886,7.912c.014.24.037.477.066.712-.051-.21-.1-.42-.144-.634-.055.056-.111.111-.167.166.041-.128.081-.256.122-.387.035-.112.068-.223.1-.337,1.123-3.637,2.213-7.707,3.19-10.414l.014-.037a4.355,4.355,0,0,1,.644-1.223C1026.352,302.266,1027.275,302.508,1028.13,303.221Z" fill="#4d4d5b"/><path d="M1011.283,301.2c.659,1.047,2.031,3.072,1.318,4.369-.7,1.261,1.087,3.61,1.185,3.738-.1-1.567-.134-3.321-.061-5.995l.385-6.245C1013.1,297.982,1010.633,300.169,1011.283,301.2Z" fill="#1f1f39" opacity="0.77"/><path d="M1036.114,295.2c-.764,11.23-5.953,20.153-12.536,23.824-6.381.449-13.481.711-7.618-.92,9.568-2.663,9.777-19.005,10.093-25.425s-2.782-15.843-8.831-25.1l4.559-2.5h0l.009.006c.165.111,2.563,1.716,5.269,3.592C1032.806,274.33,1036.828,284.648,1036.114,295.2Z" fill="#3d3d59" opacity="0.18"/></g><g transform="translate(0.422)" opacity="0.35" style="mix-blend-mode:overlay;isolation:isolate"><g clip-path="url(#a)"><rect width="4.289" height="268.57" transform="translate(893.69 186.772) rotate(45)" fill="#fff"/><rect width="4.29" height="268.571" transform="matrix(0.707, 0.707, -0.707, 0.707, 902.253, 195.334)" fill="#fff"/><rect width="4.29" height="268.57" transform="translate(910.752 203.833) rotate(45)" fill="#fff"/><rect width="4.29" height="268.571" transform="matrix(0.707, 0.707, -0.707, 0.707, 919.25, 212.333)" fill="#fff"/><rect width="4.289" height="268.57" transform="translate(927.814 220.895) rotate(45)" fill="#fff"/><rect width="4.289" height="268.57" transform="translate(936.345 229.426) rotate(45)" fill="#fff"/><rect width="4.29" height="268.57" transform="translate(944.875 237.957) rotate(45)" fill="#fff"/><rect width="4.29" height="268.57" transform="translate(953.406 246.487) rotate(45)" fill="#fff"/><rect width="4.289" height="268.57" transform="translate(961.937 255.019) rotate(45)" fill="#fff"/><rect width="4.289" height="268.57" transform="translate(970.468 263.549) rotate(45)" fill="#fff"/><rect width="4.29" height="268.571" transform="matrix(0.707, 0.707, -0.707, 0.707, 979.031, 272.112)" fill="#fff"/><rect width="4.29" height="268.57" transform="translate(987.529 280.611) rotate(45)" fill="#fff"/><rect width="4.29" height="268.571" transform="matrix(0.707, 0.707, -0.707, 0.707, 996.028, 289.11)" fill="#fff"/><rect width="4.289" height="268.57" transform="translate(1004.592 297.673) rotate(45)" fill="#fff"/><rect width="4.289" height="268.57" transform="translate(1013.122 306.204) rotate(45)" fill="#fff"/></g></g></g></svg>