<svg xmlns="http://www.w3.org/2000/svg" xmlns:xlink="http://www.w3.org/1999/xlink" width="101.573" height="224.812" viewBox="0 0 101.573 224.812"><defs><linearGradient id="a" x1="16.375" y1="0.5" x2="17.375" y2="0.5" gradientUnits="objectBoundingBox"><stop offset="0" stop-color="#ff4d4c"/><stop offset="1" stop-color="#c74cff"/></linearGradient><linearGradient id="b" x1="54.658" y1="0.5" x2="55.658" y2="0.5" xlink:href="#a"/><linearGradient id="c" x1="23.6" y1="0.5" x2="24.6" y2="0.5" xlink:href="#a"/></defs><g transform="translate(-391.577 -1078.192)"><path d="M484.638,1106.733c.432.078.491,2,.28,2.381-.779.763-1.24.772-2,1.527a12.177,12.177,0,0,0,1.062-3.023C484.052,1107.119,483.982,1106.554,484.638,1106.733Z" fill="#fecfb3"/><path d="M490.911,1110.157c-.017.02-.04.034-.051.047-1.929,1.637-4.426,3.405-5.183,3.976-1.418-.509-3-3.464-2.967-3.516,1.012-.716,2.277-2.036,3.148-2.7,1.012-.8,3.476-2.322,3.65-2.436.513-.279,1.751-1.076,2.177-1.25a1.109,1.109,0,0,1,1.391.3c.111.193.269.729-.97,1.46a25.177,25.177,0,0,0-2.337,1.521s.995.234.653.926c0,0,.894.128.592.921C491.014,1109.4,491.458,1109.7,490.911,1110.157Z" fill="#fecfb3"/><path d="M457.618,1122.879a17.943,17.943,0,0,0-1.886-.263,143.026,143.026,0,0,1-15.2-2.789c-5.541-1.2-10.776-2.336-13.4-2.372a1.326,1.326,0,0,0-1.064.535c-1.17,1.512-1.4,11.318-.775,13.143,1.863,5.451,26.675,3.18,33.129,1.715,6.237-1.324,22.086-12.715,28.293-18.23l-4.239-5.383c-2.442,2.257-10.521,6.328-17.012,9.6C462.488,1120.332,459.671,1121.752,457.618,1122.879Z" fill="url(#a)"/><path d="M465.721,1174.136c-19.838-1.927-53.777-.323-61.024,3.121-7.825,3.718-14.839,25.117.657,24.827,17.641-.33,43-3.32,62.067-13.028C474.561,1185.421,474.16,1174.956,465.721,1174.136Z" fill="#01447a"/><path d="M455.6,1245.512a17.887,17.887,0,0,1-1.032-2.706l-4.92,1.133s-.155,1.235-.213,2.442c-.068,1.4-1.944,3.134-.6,4.627.518.575,3.044.264,4.507.359,1.149.074,4.68.227,6.556.318,2.025.1,4.82-.5,4.874-1.577C464.876,1247.824,456.552,1247.236,455.6,1245.512Z" fill="#801720"/><path d="M454.729,1242.61l-5.123.174s-.136,2.39-.174,3.6c0,0,4.884.7,5.683.245.974-.561.481-1.113.481-1.113A9.324,9.324,0,0,1,454.729,1242.61Z" fill="#fecfb3"/><path d="M453.677,1186.457c-1.378,30.714-4.773,56.665-4.773,56.665,1.742,1.812,4.922,2.678,6.816,2.022,0,0,6.81-28,16.376-61.61C476,1169.822,453.942,1180.563,453.677,1186.457Z" fill="#01447a"/><path d="M425.832,1104.591c.041,2.224-1.36,8.217-2.259,9.265,1.3,4.244,7.861,5.066,8.614,2.755-.72-2.68.974-7.277,1.044-7.723C431.585,1108.926,426.328,1105.061,425.832,1104.591Z" fill="#fecfb3"/><path d="M393.293,1295.987l3.672-1.6s.638,1.193,1.178,1.973c1.039,1.508,6.573,3.065,6.381,5.04-.1,1-2.283,1.689-4,1.591a11.808,11.808,0,0,1-4.071-.97c-.977-.43-3.191-1.593-3.5-2.244a2.859,2.859,0,0,1,.091-2.32C392.973,1296.342,393.293,1295.987,393.293,1295.987Z" fill="#801720"/><path d="M397.981,1294.376a1.714,1.714,0,0,0,.162,1.988s-.067.738-1.456,1.336c-.787.338-3.641-.239-3.641-.239a15.108,15.108,0,0,1,.177-2.7Z" fill="#fecfb3"/><path d="M423.573,1170.911c.1,2.433-6.9,46.086-12.28,75.766a305.179,305.179,0,0,1-13.43,48.469c-.065.18-3.631,1.691-5.153-.353,0,0,5.164-25.109,4.082-49.381-.935-20.952-3.7-52.231-5.213-53.679l4.536-20.822C404.452,1172.279,420.67,1171.859,423.573,1170.911Z" fill="#015293"/><path d="M426.6,1097.663c-2.787,1.628-3.279,5-1.667,7.761.016.03,1.675,2.868,1.675,2.868,1.216,2.082,6.34,3.483,7.929,2.04,3.76-3.414.083-11.807-.58-12.61C432.1,1095.48,429.191,1096.147,426.6,1097.663Z" fill="#fecfb3"/><path d="M440.254,1171.018c-10.77,10.616-28.474,6.411-40.571,11.543l-1.328-8.063-2.185,14.986c-1.78,1.471-3.847,2.4-4.593,2.249,0-43.4,10.077-72.986,25.111-76.956,1.684-.443,6.886-.922,6.886-.922s3.139,3.517,5.447,3.986c1.587.32,3.165-1.231,3.165-1.231a45.727,45.727,0,0,1,5.02,2.532c3.758,2.877,3.23,8.708,2.611,13.189-.266,1.9-.666,9.29-.308,22.186.01.433.021.869.037,1.312C439.684,1160.273,439.908,1165.337,440.254,1171.018Z" fill="#336989"/><path d="M429.022,1117.84c-2.311-.468-5.449-3.984-5.449-3.984s-2.672.192-3.5.253a15.01,15.01,0,0,0-3.382.669c6.119,3.99,14.968,13.912,14.968,13.912s3.666-5.5,4.609-10.169c-.555-.335-4.078-1.91-4.078-1.91S430.61,1118.16,429.022,1117.84Z" fill="url(#b)"/><path d="M432.228,1093.461c-5.377-2.977-11.55-.242-12.778,4.589-1.835,7.224,4.44,9.1,7.169,13.054,0,0-2.745-6.758-2.472-9.768,9.3-1.273,11.937-4.657,12.847-7.828C436.994,1093.508,435.482,1095.262,432.228,1093.461Z" fill="#686868"/><path d="M423.862,1104.534a2.044,2.044,0,0,0-.066,2.534,2.879,2.879,0,0,0,2.721.646,38.373,38.373,0,0,0-1.339-3.7A2.723,2.723,0,0,0,423.862,1104.534Z" fill="#fecfb3"/><path d="M439.546,1155.829c-3.635-1.876-13.958-7.339-19.644-11.773a45.012,45.012,0,0,1-5.212-4.727,12.554,12.554,0,0,1,2.744-19.479c1.354-.767,2.372-.964,2.6-.047,2.17,8.611,15.21,28.4,19.474,34.714C439.519,1154.95,439.53,1155.386,439.546,1155.829Z" fill="#275069"/><path d="M449.882,1115.446a9.1,9.1,0,0,1,.454,2.709c.153-1.011.757-.825,1.069-1.859,0-.43-.968-2.067-1.379-1.929C449.373,1114.526,449.7,1114.982,449.882,1115.446Z" fill="#fecfb3"/><path d="M458.8,1124.17a.8.8,0,0,1-.614.949.965.965,0,0,1-1.066-.427l-7.716-18.4,5.046-.8Z" fill="#120d57"/><path d="M443.327,1092.659l6.95-1.242,3.49,18.133-6.962,1.244c-4.353.778-8.662-2.654-9.62-7.665S438.975,1093.436,443.327,1092.659Z" fill="#f64c4a"/><path d="M450.051,1091.447c.077-.015.157-.014.235-.022l0-.009,24.014-12.877,6.65,34.725-27.18-3.714v-.008c-.021,0-.041.014-.062.018-2.591.5-5.51-3.156-6.519-8.157S447.46,1091.944,450.051,1091.447Z" fill="#f64c4a"/><path d="M475.21,1078.269c4.733-.9,10.169,6.2,12.13,15.874s-.269,18.217-5,19.124c-2.774.524-5.79-1.7-8.2-5.578a29.069,29.069,0,0,1-2.936-6.465,36.451,36.451,0,0,1-1.569-7.738,27.516,27.516,0,0,1,.355-8.074C470.817,1081.482,472.647,1078.752,475.21,1078.269Z" fill="#9c3135"/><path d="M473.411,1082.1c3.776-.719,8.11,4.947,9.68,12.657s-.216,14.535-3.992,15.254c-1.637.309-3.384-.585-4.962-2.324a29.069,29.069,0,0,1-2.936-6.465,36.451,36.451,0,0,1-1.569-7.738,27.516,27.516,0,0,1,.355-8.074C470.769,1083.586,471.94,1082.382,473.411,1082.1Z" fill="#fff"/><path d="M474.2,1092.285l-4.681-.494a32.864,32.864,0,0,0,2.594,11.919l3.9-2.492Z" fill="#9c3135"/><path d="M474.048,1092.34c1.2-.229,2.576,1.571,3.074,4.019s-.069,4.616-1.267,4.845a1.784,1.784,0,0,1-1.576-.738,9.23,9.23,0,0,1-.933-2.053,11.248,11.248,0,0,1-.316-1.22,11.115,11.115,0,0,1-.182-1.238,8.744,8.744,0,0,1,.113-2.564A1.59,1.59,0,0,1,474.048,1092.34Z" fill="#f64c4a"/><path d="M453.767,1109.542v.008l-.044,0C453.739,1109.55,453.752,1109.545,453.767,1109.542Z" fill="#004143"/><path d="M448.02,1091.67c.079-.016.158-.015.236-.023l0-.009,2.03-.222,0,.009c-.078.008-.158.007-.235.022-2.591.5-3.873,4.954-2.865,9.956.954,4.728,3.614,8.25,6.091,8.2l-1.523.17-.016,0v-.008c-.021,0-.042.014-.062.018-2.591.5-5.51-3.156-6.519-8.157S445.429,1092.166,448.02,1091.67Z" fill="#120d57"/><path d="M453.5,1109.5a15.746,15.746,0,0,0-1.036,2.262c-.08.185-1.186,2.831-1.544,4.056a22.952,22.952,0,0,0-.717,3.1,22.779,22.779,0,0,0,4.143,2c.545-1.718,1.8-7.2,1.853-7.324.916-2.049.461-2.82-.146-2.622-.148.049,0-1.512-.621-1.452a.73.73,0,0,0-.589-.567A2.421,2.421,0,0,0,453.5,1109.5Z" fill="#fecfb3"/><path d="M449.156,1118.308c-.829,3.22-5.41,11.021-9.091,17.288-.8,1.356-1.57,2.676-2.285,3.911-2.348-2.608-5.029-5.936-7.647-9.185-3.555-4.417-6.914-8.589-8.934-10.266a10.019,10.019,0,0,0-1.9-1.206c-2.814-.852-9.989,2.6-8.126,10.692,1.18,5.124,15.828,16.917,22.893,21.152l.008.006c1.8,1.135,5.283,3.6,6.179,2.754a8.668,8.668,0,0,0,1.567-2.343c4.526-4.615,11.6-22.623,13.815-30.578Z" fill="url(#c)"/></g></svg>