<svg xmlns="http://www.w3.org/2000/svg" xmlns:xlink="http://www.w3.org/1999/xlink" width="115.565" height="227.844" viewBox="0 0 115.565 227.844">
  <defs>
    <linearGradient id="linear-gradient" x1="16.375" y1="0.5" x2="17.375" y2="0.5" gradientUnits="objectBoundingBox">
      <stop offset="0" stop-color="#ff4d4c"/>
      <stop offset="1" stop-color="#c74cff"/>
    </linearGradient>
    <linearGradient id="linear-gradient-2" x1="54.658" y1="0.5" x2="55.658" y2="0.5" xlink:href="#linear-gradient"/>
    <linearGradient id="linear-gradient-3" x1="23.6" y1="0.5" x2="24.6" y2="0.5" xlink:href="#linear-gradient"/>
    <linearGradient id="linear-gradient-4" x1="-30.37" y1="0.5" x2="-29.37" y2="0.5" gradientUnits="objectBoundingBox">
      <stop offset="0" stop-color="#fcd528"/>
      <stop offset="1" stop-color="#ffb800"/>
    </linearGradient>
    <linearGradient id="linear-gradient-5" x1="472.028" y1="0.5" x2="473.028" y2="0.5" xlink:href="#linear-gradient-4"/>
    <linearGradient id="linear-gradient-6" x1="-36.126" y1="0.5" x2="-35.126" y2="0.5" xlink:href="#linear-gradient-4"/>
  </defs>
  <g id="Group_10855" data-name="Group 10855" transform="translate(-391.999 -1078.192)">
    <g id="Group_9789" data-name="Group 9789" transform="translate(0.422)">
      <path id="Path_13256" data-name="Path 13256" d="M484.638,1106.733c.432.078.491,2,.28,2.381-.779.763-1.24.772-2,1.527a12.177,12.177,0,0,0,1.062-3.023C484.052,1107.119,483.982,1106.554,484.638,1106.733Z" fill="#fecfb3"/>
      <path id="Path_13257" data-name="Path 13257" d="M490.911,1110.157c-.017.02-.04.034-.051.047-1.929,1.637-4.426,3.405-5.183,3.976-1.418-.509-3-3.464-2.967-3.516,1.012-.716,2.277-2.036,3.148-2.7,1.012-.8,3.476-2.322,3.65-2.436.513-.279,1.751-1.076,2.177-1.25a1.109,1.109,0,0,1,1.391.3c.111.193.269.729-.97,1.46a25.177,25.177,0,0,0-2.337,1.521s.995.234.653.926c0,0,.894.128.592.921C491.014,1109.4,491.458,1109.7,490.911,1110.157Z" fill="#fecfb3"/>
      <path id="Path_13258" data-name="Path 13258" d="M457.618,1122.879a17.943,17.943,0,0,0-1.886-.263,143.026,143.026,0,0,1-15.2-2.789c-5.541-1.2-10.776-2.336-13.4-2.372a1.326,1.326,0,0,0-1.064.535c-1.17,1.512-1.4,11.318-.775,13.143,1.863,5.451,26.675,3.18,33.129,1.715,6.237-1.324,22.086-12.715,28.293-18.23l-4.239-5.383c-2.442,2.257-10.521,6.328-17.012,9.6C462.488,1120.332,459.671,1121.752,457.618,1122.879Z" fill="url(#linear-gradient)"/>
      <path id="Path_13259" data-name="Path 13259" d="M465.721,1174.136c-19.838-1.927-53.777-.323-61.024,3.121-7.825,3.718-14.839,25.117.657,24.827,17.641-.33,43-3.32,62.067-13.028C474.561,1185.421,474.16,1174.956,465.721,1174.136Z" fill="#01447a"/>
      <path id="Path_13260" data-name="Path 13260" d="M455.6,1245.512a17.887,17.887,0,0,1-1.032-2.706l-4.92,1.133s-.155,1.235-.213,2.442c-.068,1.4-1.944,3.134-.6,4.627.518.575,3.044.264,4.507.359,1.149.074,4.68.227,6.556.318,2.025.1,4.82-.5,4.874-1.577C464.876,1247.824,456.552,1247.236,455.6,1245.512Z" fill="#801720"/>
      <path id="Path_13261" data-name="Path 13261" d="M454.729,1242.61l-5.123.174s-.136,2.39-.174,3.6c0,0,4.884.7,5.683.245.974-.561.481-1.113.481-1.113A9.324,9.324,0,0,1,454.729,1242.61Z" fill="#fecfb3"/>
      <path id="Path_13262" data-name="Path 13262" d="M453.677,1186.457c-1.378,30.714-4.773,56.665-4.773,56.665,1.742,1.812,4.922,2.678,6.816,2.022,0,0,6.81-28,16.376-61.61C476,1169.822,453.942,1180.563,453.677,1186.457Z" fill="#01447a"/>
      <path id="Path_13263" data-name="Path 13263" d="M425.832,1104.591c.041,2.224-1.36,8.217-2.259,9.265,1.3,4.244,7.861,5.066,8.614,2.755-.72-2.68.974-7.277,1.044-7.723C431.585,1108.926,426.328,1105.061,425.832,1104.591Z" fill="#fecfb3"/>
      <path id="Path_13264" data-name="Path 13264" d="M393.293,1295.987l3.672-1.6s.638,1.193,1.178,1.973c1.039,1.508,6.573,3.065,6.381,5.04-.1,1-2.283,1.689-4,1.591a11.808,11.808,0,0,1-4.071-.97c-.977-.43-3.191-1.593-3.5-2.244a2.859,2.859,0,0,1,.091-2.32C392.973,1296.342,393.293,1295.987,393.293,1295.987Z" fill="#801720"/>
      <path id="Path_13265" data-name="Path 13265" d="M397.981,1294.376a1.714,1.714,0,0,0,.162,1.988s-.067.738-1.456,1.336c-.787.338-3.641-.239-3.641-.239a15.108,15.108,0,0,1,.177-2.7Z" fill="#fecfb3"/>
      <path id="Path_13266" data-name="Path 13266" d="M423.573,1170.911c.1,2.433-6.9,46.086-12.28,75.766a305.179,305.179,0,0,1-13.43,48.469c-.065.18-3.631,1.691-5.153-.353,0,0,5.164-25.109,4.082-49.381-.935-20.952-3.7-52.231-5.213-53.679l4.536-20.822C404.452,1172.279,420.67,1171.859,423.573,1170.911Z" fill="#015293"/>
      <path id="Path_13267" data-name="Path 13267" d="M426.6,1097.663c-2.787,1.628-3.279,5-1.667,7.761.016.03,1.675,2.868,1.675,2.868,1.216,2.082,6.34,3.483,7.929,2.04,3.76-3.414.083-11.807-.58-12.61C432.1,1095.48,429.191,1096.147,426.6,1097.663Z" fill="#fecfb3"/>
      <path id="Path_13268" data-name="Path 13268" d="M440.254,1171.018c-10.77,10.616-28.474,6.411-40.571,11.543l-1.328-8.063-2.185,14.986c-1.78,1.471-3.847,2.4-4.593,2.249,0-43.4,10.077-72.986,25.111-76.956,1.684-.443,6.886-.922,6.886-.922s3.139,3.517,5.447,3.986c1.587.32,3.165-1.231,3.165-1.231a45.727,45.727,0,0,1,5.02,2.532c3.758,2.877,3.23,8.708,2.611,13.189-.266,1.9-.666,9.29-.308,22.186.01.433.021.869.037,1.312C439.684,1160.273,439.908,1165.337,440.254,1171.018Z" fill="#336989"/>
      <path id="Path_13269" data-name="Path 13269" d="M429.022,1117.84c-2.311-.468-5.449-3.984-5.449-3.984s-2.672.192-3.5.253a15.01,15.01,0,0,0-3.382.669c6.119,3.99,14.968,13.912,14.968,13.912s3.666-5.5,4.609-10.169c-.555-.335-4.078-1.91-4.078-1.91S430.61,1118.16,429.022,1117.84Z" fill="url(#linear-gradient-2)"/>
      <path id="Path_13270" data-name="Path 13270" d="M432.228,1093.461c-5.377-2.977-11.55-.242-12.778,4.589-1.835,7.224,4.44,9.1,7.169,13.054,0,0-2.745-6.758-2.472-9.768,9.3-1.273,11.937-4.657,12.847-7.828C436.994,1093.508,435.482,1095.262,432.228,1093.461Z" fill="#686868"/>
      <path id="Path_13271" data-name="Path 13271" d="M423.862,1104.534a2.044,2.044,0,0,0-.066,2.534,2.879,2.879,0,0,0,2.721.646,38.373,38.373,0,0,0-1.339-3.7A2.723,2.723,0,0,0,423.862,1104.534Z" fill="#fecfb3"/>
      <path id="Path_13272" data-name="Path 13272" d="M439.546,1155.829c-3.635-1.876-13.958-7.339-19.644-11.773a45.012,45.012,0,0,1-5.212-4.727,12.554,12.554,0,0,1,2.744-19.479c1.354-.767,2.372-.964,2.6-.047,2.17,8.611,15.21,28.4,19.474,34.714C439.519,1154.95,439.53,1155.386,439.546,1155.829Z" fill="#275069"/>
      <path id="Path_13273" data-name="Path 13273" d="M449.882,1115.446a9.1,9.1,0,0,1,.454,2.709c.153-1.011.757-.825,1.069-1.859,0-.43-.968-2.067-1.379-1.929C449.373,1114.526,449.7,1114.982,449.882,1115.446Z" fill="#fecfb3"/>
      <g id="Group_9788" data-name="Group 9788">
        <g id="Group_9781" data-name="Group 9781">
          <path id="Path_13274" data-name="Path 13274" d="M458.8,1124.17a.8.8,0,0,1-.614.949.965.965,0,0,1-1.066-.427l-7.716-18.4,5.046-.8Z" fill="#120d57"/>
        </g>
        <g id="Group_9782" data-name="Group 9782">
          <path id="Path_13275" data-name="Path 13275" d="M443.327,1092.659l6.95-1.242,3.49,18.133-6.962,1.244c-4.353.778-8.662-2.654-9.62-7.665S438.975,1093.436,443.327,1092.659Z" fill="#f64c4a"/>
        </g>
        <g id="Group_9783" data-name="Group 9783">
          <path id="Path_13276" data-name="Path 13276" d="M450.051,1091.447c.077-.015.157-.014.235-.022l0-.009,24.014-12.877,6.65,34.725-27.18-3.714v-.008c-.021,0-.041.014-.062.018-2.591.5-5.51-3.156-6.519-8.157S447.46,1091.944,450.051,1091.447Z" fill="#f64c4a"/>
        </g>
        <g id="Group_9784" data-name="Group 9784">
          <path id="Path_13277" data-name="Path 13277" d="M475.21,1078.269c4.733-.9,10.169,6.2,12.13,15.874s-.269,18.217-5,19.124c-2.774.524-5.79-1.7-8.2-5.578a29.069,29.069,0,0,1-2.936-6.465,36.451,36.451,0,0,1-1.569-7.738,27.516,27.516,0,0,1,.355-8.074C470.817,1081.482,472.647,1078.752,475.21,1078.269Z" fill="#9c3135"/>
        </g>
        <g id="Group_9785" data-name="Group 9785">
          <path id="Path_13278" data-name="Path 13278" d="M473.411,1082.1c3.776-.719,8.11,4.947,9.68,12.657s-.216,14.535-3.992,15.254c-1.637.309-3.384-.585-4.962-2.324a29.069,29.069,0,0,1-2.936-6.465,36.451,36.451,0,0,1-1.569-7.738,27.516,27.516,0,0,1,.355-8.074C470.769,1083.586,471.94,1082.382,473.411,1082.1Z" fill="#fff"/>
        </g>
        <path id="Path_13279" data-name="Path 13279" d="M474.2,1092.285l-4.681-.494a32.864,32.864,0,0,0,2.594,11.919l3.9-2.492Z" fill="#9c3135"/>
        <g id="Group_9786" data-name="Group 9786">
          <path id="Path_13280" data-name="Path 13280" d="M474.048,1092.34c1.2-.229,2.576,1.571,3.074,4.019s-.069,4.616-1.267,4.845a1.784,1.784,0,0,1-1.576-.738,9.23,9.23,0,0,1-.933-2.053,11.248,11.248,0,0,1-.316-1.22,11.115,11.115,0,0,1-.182-1.238,8.744,8.744,0,0,1,.113-2.564A1.59,1.59,0,0,1,474.048,1092.34Z" fill="#f64c4a"/>
        </g>
        <g id="Group_9787" data-name="Group 9787">
          <path id="Path_13281" data-name="Path 13281" d="M453.767,1109.542v.008l-.044,0C453.739,1109.55,453.752,1109.545,453.767,1109.542Z" fill="#004143"/>
          <path id="Path_13282" data-name="Path 13282" d="M448.02,1091.67c.079-.016.158-.015.236-.023l0-.009,2.03-.222,0,.009c-.078.008-.158.007-.235.022-2.591.5-3.873,4.954-2.865,9.956.954,4.728,3.614,8.25,6.091,8.2l-1.523.17-.016,0v-.008c-.021,0-.042.014-.062.018-2.591.5-5.51-3.156-6.519-8.157S445.429,1092.166,448.02,1091.67Z" fill="#120d57"/>
        </g>
      </g>
      <path id="Path_13283" data-name="Path 13283" d="M453.5,1109.5a15.746,15.746,0,0,0-1.036,2.262c-.08.185-1.186,2.831-1.544,4.056a22.952,22.952,0,0,0-.717,3.1,22.779,22.779,0,0,0,4.143,2c.545-1.718,1.8-7.2,1.853-7.324.916-2.049.461-2.82-.146-2.622-.148.049,0-1.512-.621-1.452a.73.73,0,0,0-.589-.567A2.421,2.421,0,0,0,453.5,1109.5Z" fill="#fecfb3"/>
      <path id="Path_13284" data-name="Path 13284" d="M449.156,1118.308c-.829,3.22-5.41,11.021-9.091,17.288-.8,1.356-1.57,2.676-2.285,3.911-2.348-2.608-5.029-5.936-7.647-9.185-3.555-4.417-6.914-8.589-8.934-10.266a10.019,10.019,0,0,0-1.9-1.206c-2.814-.852-9.989,2.6-8.126,10.692,1.18,5.124,15.828,16.917,22.893,21.152l.008.006c1.8,1.135,5.283,3.6,6.179,2.754a8.668,8.668,0,0,0,1.567-2.343c4.526-4.615,11.6-22.623,13.815-30.578Z" fill="url(#linear-gradient-3)"/>
    </g>
    <g id="Group_9916" data-name="Group 9916" transform="translate(0.422)">
      <g id="Group_9810" data-name="Group 9810">
        <g id="Group_9794" data-name="Group 9794">
          <g id="Group_9793" data-name="Group 9793">
            <g id="Group_9792" data-name="Group 9792">
              <g id="Group_9791" data-name="Group 9791">
                <g id="Group_9790" data-name="Group 9790">
                  <path id="Path_13285" data-name="Path 13285" d="M507.142,1299.281a4.893,4.893,0,0,1-1.544,3.567,5.216,5.216,0,0,1-2.685,1.366,5.466,5.466,0,0,1-.986.089l-48.19-.018h-3.129v-1.9l.007-6.2v-.957l0-.961v-.021l20.934.008h.005l2.725,0,2.767,0h6l10.542.005,8.578,0A5.114,5.114,0,0,1,507.142,1299.281Z" fill="#6eacbb"/>
                </g>
              </g>
            </g>
          </g>
        </g>
        <g id="Group_9798" data-name="Group 9798">
          <g id="Group_9797" data-name="Group 9797">
            <g id="Group_9796" data-name="Group 9796">
              <g id="Group_9795" data-name="Group 9795">
                <path id="Path_13286" data-name="Path 13286" d="M416.152,1303.283a4.056,4.056,0,0,0,.655-8.081l36.742.018a4.064,4.064,0,1,1-.245,8.123l-37.274-.016v-.044Z" fill="#f3f0fc" fill-rule="evenodd"/>
              </g>
            </g>
          </g>
        </g>
        <g id="Group_9803" data-name="Group 9803">
          <g id="Group_9802" data-name="Group 9802">
            <g id="Group_9801" data-name="Group 9801">
              <g id="Group_9800" data-name="Group 9800">
                <g id="Group_9799" data-name="Group 9799">
                  <path id="Path_13287" data-name="Path 13287" d="M453.3,1302.383a3.369,3.369,0,0,0,2.344-.922,3,3,0,0,0,.95-2.181,3.189,3.189,0,0,0-3.1-3.1l-39.17-.018,0-1.92,39.22.02a5.119,5.119,0,0,1,4.971,5.023,4.9,4.9,0,0,1-1.546,3.567,5.277,5.277,0,0,1-3.671,1.454l-38.983-.019,0-1.921Z" fill="#bfe1ea"/>
                </g>
              </g>
            </g>
          </g>
        </g>
        <g id="Group_9809" data-name="Group 9809">
          <g id="Group_9808" data-name="Group 9808">
            <g id="Group_9807" data-name="Group 9807">
              <g id="Group_9806" data-name="Group 9806">
                <g id="Group_9805" data-name="Group 9805">
                  <g id="Group_9804" data-name="Group 9804">
                    <path id="Path_13288" data-name="Path 13288" d="M443.634,1306.035l-1.665-1.446-1.665,1.4v-8.02h3.33Z" fill="#ffcb00" fill-rule="evenodd"/>
                  </g>
                </g>
              </g>
            </g>
          </g>
        </g>
        <path id="Path_13289" data-name="Path 13289" d="M466.238,1299.271l-2.415,1.855-2.415-1.855,2.415-1.855Z" fill="#bfe1ea"/>
      </g>
      <g id="Group_9825" data-name="Group 9825">
        <g id="Group_9815" data-name="Group 9815">
          <g id="Group_9814" data-name="Group 9814">
            <g id="Group_9813" data-name="Group 9813">
              <g id="Group_9812" data-name="Group 9812">
                <g id="Group_9811" data-name="Group 9811">
                  <path id="Path_13290" data-name="Path 13290" d="M483.923,1255.745a4.556,4.556,0,0,1-1.1,3.029,3.485,3.485,0,0,1-2.509,1.233c-.039,0-.077,0-.117,0l-36.713-.017.007-8.531,34.158.016,2.724,0A4.062,4.062,0,0,1,483.923,1255.745Z" fill="#015578"/>
                </g>
              </g>
            </g>
          </g>
        </g>
        <g id="Group_9819" data-name="Group 9819">
          <g id="Group_9818" data-name="Group 9818">
            <g id="Group_9817" data-name="Group 9817">
              <g id="Group_9816" data-name="Group 9816">
                <path id="Path_13291" data-name="Path 13291" d="M418.829,1259.144a3.265,3.265,0,0,0,3.042-3.45,3.348,3.348,0,0,0-2.574-3.414l26.285.016a3.491,3.491,0,0,1-.174,6.9l-26.666-.013v-.038Z" fill="#f3f0fc" fill-rule="evenodd"/>
              </g>
            </g>
          </g>
        </g>
        <g id="Group_9824" data-name="Group 9824">
          <g id="Group_9823" data-name="Group 9823">
            <g id="Group_9822" data-name="Group 9822">
              <g id="Group_9821" data-name="Group 9821">
                <g id="Group_9820" data-name="Group 9820">
                  <path id="Path_13292" data-name="Path 13292" d="M445.409,1258.379a2.222,2.222,0,0,0,1.676-.783,2.8,2.8,0,0,0,.68-1.852,2.527,2.527,0,0,0-2.22-2.635l-28.022-.016,0-1.631,28.058.017a4.066,4.066,0,0,1,3.556,4.266,4.562,4.562,0,0,1-1.106,3.03,3.479,3.479,0,0,1-2.627,1.235l-27.888-.017,0-1.631Z" fill="#01648d"/>
                </g>
              </g>
            </g>
          </g>
        </g>
        <path id="Path_13293" data-name="Path 13293" d="M454.661,1255.736l-1.729,1.576-1.728-1.576,1.728-1.576Z" fill="#01648d"/>
      </g>
      <g id="Group_9846" data-name="Group 9846">
        <g id="Group_9830" data-name="Group 9830">
          <g id="Group_9829" data-name="Group 9829">
            <g id="Group_9828" data-name="Group 9828">
              <g id="Group_9827" data-name="Group 9827">
                <g id="Group_9826" data-name="Group 9826">
                  <path id="Path_13294" data-name="Path 13294" d="M430.4,1285.718a4.356,4.356,0,0,0-4.23,4.275,4.17,4.17,0,0,0,1.314,3.036,4.5,4.5,0,0,0,3.125,1.238l43.674-.017-.008-8.549Z" fill="#01648d"/>
                </g>
              </g>
            </g>
          </g>
        </g>
        <g id="Group_9834" data-name="Group 9834">
          <g id="Group_9833" data-name="Group 9833">
            <g id="Group_9832" data-name="Group 9832">
              <g id="Group_9831" data-name="Group 9831">
                <path id="Path_13295" data-name="Path 13295" d="M503.71,1293.4v.037l-20.657.009-2.835,0h-.339l-5.6,0H471.99a3.458,3.458,0,1,1-.209-6.912l2.493,0h5.492l23.284-.012a3.669,3.669,0,0,0-1.826.815,3.362,3.362,0,0,0,.09,5.28,3.691,3.691,0,0,0,2.294.781Z" fill="#e9e9e9" fill-rule="evenodd"/>
              </g>
            </g>
          </g>
        </g>
        <g id="Group_9839" data-name="Group 9839">
          <g id="Group_9838" data-name="Group 9838">
            <g id="Group_9837" data-name="Group 9837">
              <g id="Group_9836" data-name="Group 9836">
                <g id="Group_9835" data-name="Group 9835">
                  <path id="Path_13296" data-name="Path 13296" d="M505.167,1294.25l-11.572.006-10.542,0-2.835,0-3.158,0-5.07,0c-.128,0-.254-.005-.379-.016a.314.314,0,0,1-.054-.005h-.005a4.476,4.476,0,0,1-2.686-1.217,4.172,4.172,0,0,1-1.316-3.036,4.317,4.317,0,0,1,3.584-4.194,4.485,4.485,0,0,1,.647-.08l2.493,0,5.492,0,10.17-.005,7.23,0h0l7.99-.005v1.634l-3.936,0-21.458.011-5.491,0h-2.449a2.717,2.717,0,0,0-2.642,2.642,2.558,2.558,0,0,0,.81,1.854,2.868,2.868,0,0,0,1.993.786l2.294,0,5.937,0h2.835l18.261-.01,3.851,0Z" fill="#015578"/>
                </g>
              </g>
            </g>
          </g>
        </g>
        <g id="Group_9845" data-name="Group 9845">
          <g id="Group_9844" data-name="Group 9844">
            <g id="Group_9843" data-name="Group 9843">
              <g id="Group_9842" data-name="Group 9842">
                <g id="Group_9841" data-name="Group 9841">
                  <g id="Group_9840" data-name="Group 9840">
                    <path id="Path_13297" data-name="Path 13297" d="M480.219,1296.856l1.417-1.23,1.417,1.191v-7.941h-2.834Z" fill-rule="evenodd" fill="url(#linear-gradient-4)"/>
                  </g>
                </g>
              </g>
            </g>
          </g>
        </g>
        <path id="Path_13298" data-name="Path 13298" d="M460.982,1289.984l2.056,1.578,2.056-1.578-2.056-1.579Z" fill="#015578"/>
      </g>
      <g id="Group_9867" data-name="Group 9867">
        <g id="Group_9851" data-name="Group 9851">
          <g id="Group_9850" data-name="Group 9850">
            <g id="Group_9849" data-name="Group 9849">
              <g id="Group_9848" data-name="Group 9848">
                <g id="Group_9847" data-name="Group 9847">
                  <path id="Path_13299" data-name="Path 13299" d="M489.223,1277.585a4.188,4.188,0,0,1,4.067,4.11,4.013,4.013,0,0,1-1.264,2.919,4.314,4.314,0,0,1-3.005,1.19l-41.994-.016.007-8.22Z" fill="#6eacbb"/>
                </g>
              </g>
            </g>
          </g>
        </g>
        <g id="Group_9855" data-name="Group 9855">
          <g id="Group_9854" data-name="Group 9854">
            <g id="Group_9853" data-name="Group 9853">
              <g id="Group_9852" data-name="Group 9852">
                <path id="Path_13300" data-name="Path 13300" d="M418.829,1284.97a3.319,3.319,0,0,0,.537-6.613l30.066.015a3.325,3.325,0,1,1-.2,6.646l-30.5-.013v-.035Z" fill="#f3f0fc" fill-rule="evenodd"/>
              </g>
            </g>
          </g>
        </g>
        <g id="Group_9860" data-name="Group 9860">
          <g id="Group_9859" data-name="Group 9859">
            <g id="Group_9858" data-name="Group 9858">
              <g id="Group_9857" data-name="Group 9857">
                <g id="Group_9856" data-name="Group 9856">
                  <path id="Path_13301" data-name="Path 13301" d="M449.233,1284.233a2.754,2.754,0,0,0,1.917-.755,2.455,2.455,0,0,0,.778-1.784,2.609,2.609,0,0,0-2.539-2.539l-32.053-.015,0-1.572,32.094.017a4.188,4.188,0,0,1,4.068,4.11,4.009,4.009,0,0,1-1.264,2.919,4.316,4.316,0,0,1-3.005,1.19l-31.9-.016,0-1.571Z" fill="#bfe1ea"/>
                </g>
              </g>
            </g>
          </g>
        </g>
        <g id="Group_9866" data-name="Group 9866">
          <g id="Group_9865" data-name="Group 9865">
            <g id="Group_9864" data-name="Group 9864">
              <g id="Group_9863" data-name="Group 9863">
                <g id="Group_9862" data-name="Group 9862">
                  <g id="Group_9861" data-name="Group 9861">
                    <path id="Path_13302" data-name="Path 13302" d="M441.319,1288.294l-1.362-1.183-1.362,1.146v-7.636h2.725Z" fill-rule="evenodd" fill="url(#linear-gradient-5)"/>
                  </g>
                </g>
              </g>
            </g>
          </g>
        </g>
        <path id="Path_13303" data-name="Path 13303" d="M459.816,1281.686l-1.976,1.518-1.976-1.518,1.976-1.518Z" fill="#bfe1ea"/>
      </g>
      <g id="Group_9888" data-name="Group 9888">
        <g id="Group_9872" data-name="Group 9872">
          <g id="Group_9871" data-name="Group 9871">
            <g id="Group_9870" data-name="Group 9870">
              <g id="Group_9869" data-name="Group 9869">
                <g id="Group_9868" data-name="Group 9868">
                  <path id="Path_13304" data-name="Path 13304" d="M501.741,1273.129a4.775,4.775,0,0,1-1.217,3.234,3.894,3.894,0,0,1-2.766,1.315c-.041,0-.085,0-.128,0h-.479l-7.225,0-16.112-.006-14.166-.007h-2.466v-1.726l0-5.626,0-.867v-.888h7.287l5.937,0h6.819l18.128.008,2.462,0A4.385,4.385,0,0,1,501.741,1273.129Z" fill="#015578"/>
                </g>
              </g>
            </g>
          </g>
        </g>
        <g id="Group_9876" data-name="Group 9876">
          <g id="Group_9875" data-name="Group 9875">
            <g id="Group_9874" data-name="Group 9874">
              <g id="Group_9873" data-name="Group 9873">
                <path id="Path_13305" data-name="Path 13305" d="M430.023,1276.757a3.528,3.528,0,0,0,3.353-3.683,3.6,3.6,0,0,0-2.836-3.644l28.959.017a3.711,3.711,0,0,1-.193,7.364l-29.378-.015v-.039Z" fill="#f3f0fc" fill-rule="evenodd"/>
              </g>
            </g>
          </g>
        </g>
        <g id="Group_9881" data-name="Group 9881">
          <g id="Group_9880" data-name="Group 9880">
            <g id="Group_9879" data-name="Group 9879">
              <g id="Group_9878" data-name="Group 9878">
                <g id="Group_9877" data-name="Group 9877">
                  <path id="Path_13306" data-name="Path 13306" d="M459.308,1275.94a2.476,2.476,0,0,0,1.846-.836,2.921,2.921,0,0,0,.749-1.976,2.726,2.726,0,0,0-2.445-2.813l-30.873-.017,0-1.741,30.912.018a4.381,4.381,0,0,1,3.917,4.554,4.775,4.775,0,0,1-1.217,3.234,3.885,3.885,0,0,1-2.894,1.318l-30.725-.017v-1.741Z" fill="#01648d"/>
                </g>
              </g>
            </g>
          </g>
        </g>
        <g id="Group_9887" data-name="Group 9887">
          <g id="Group_9886" data-name="Group 9886">
            <g id="Group_9885" data-name="Group 9885">
              <g id="Group_9884" data-name="Group 9884">
                <g id="Group_9883" data-name="Group 9883">
                  <g id="Group_9882" data-name="Group 9882">
                    <path id="Path_13307" data-name="Path 13307" d="M451.684,1280.44l-1.311-1.311-1.313,1.269v-8.459h2.625Z" fill="#ffcb00" fill-rule="evenodd"/>
                  </g>
                </g>
              </g>
            </g>
          </g>
        </g>
      </g>
      <g id="Group_9909" data-name="Group 9909">
        <g id="Group_9893" data-name="Group 9893">
          <g id="Group_9892" data-name="Group 9892">
            <g id="Group_9891" data-name="Group 9891">
              <g id="Group_9890" data-name="Group 9890">
                <g id="Group_9889" data-name="Group 9889">
                  <path id="Path_13308" data-name="Path 13308" d="M420.6,1260.064a4.356,4.356,0,0,0-4.23,4.276,4.168,4.168,0,0,0,1.314,3.036,4.5,4.5,0,0,0,3.124,1.237l43.674-.016-.007-8.55Z" fill="#bfe1ea"/>
                </g>
              </g>
            </g>
          </g>
        </g>
        <g id="Group_9897" data-name="Group 9897">
          <g id="Group_9896" data-name="Group 9896">
            <g id="Group_9895" data-name="Group 9895">
              <g id="Group_9894" data-name="Group 9894">
                <path id="Path_13309" data-name="Path 13309" d="M493.9,1267.745v.036l-19.22.008-1.438,0-2.833,0-5.937,0h-2.292a3.459,3.459,0,1,1-.209-6.913h2.493l10.316-.005,18.46-.01a3.68,3.68,0,0,0-1.826.816,3.36,3.36,0,0,0,.09,5.281,3.7,3.7,0,0,0,2.294.781Z" fill="#e9e9e9" fill-rule="evenodd"/>
              </g>
            </g>
          </g>
        </g>
        <g id="Group_9902" data-name="Group 9902">
          <g id="Group_9901" data-name="Group 9901">
            <g id="Group_9900" data-name="Group 9900">
              <g id="Group_9899" data-name="Group 9899">
                <g id="Group_9898" data-name="Group 9898">
                  <path id="Path_13310" data-name="Path 13310" d="M495.361,1268.572v.024l-18.109.01h-4.005l-2.833,0-8.229,0c-.129,0-.256,0-.38-.016s-.222-.022-.332-.039a4.468,4.468,0,0,1-2.413-1.182,4.173,4.173,0,0,1-1.314-3.036,4.358,4.358,0,0,1,4.23-4.276l2.493,0,30.884-.014v0l0,1.631h-3.936l-16.634.009-10.313,0-2.452,0a2.715,2.715,0,0,0-2.641,2.64,2.557,2.557,0,0,0,.809,1.856,2.862,2.862,0,0,0,2,.784l2.293,0h5.938l2.833,0H475.7l15.806-.008,3.85,0Z" fill="#6eacbb"/>
                </g>
              </g>
            </g>
          </g>
        </g>
        <g id="Group_9908" data-name="Group 9908">
          <g id="Group_9907" data-name="Group 9907">
            <g id="Group_9906" data-name="Group 9906">
              <g id="Group_9905" data-name="Group 9905">
                <g id="Group_9904" data-name="Group 9904">
                  <g id="Group_9903" data-name="Group 9903">
                    <path id="Path_13311" data-name="Path 13311" d="M470.414,1271.2l1.416-1.23,1.417,1.191v-7.94h-2.833Z" fill="#ffcb00" fill-rule="evenodd"/>
                  </g>
                </g>
              </g>
            </g>
          </g>
        </g>
        <path id="Path_13312" data-name="Path 13312" d="M451.177,1264.331l2.056,1.578,2.056-1.578-2.056-1.579Z" fill="#6eacbb"/>
      </g>
      <g id="Group_9915" data-name="Group 9915">
        <g id="Group_9914" data-name="Group 9914">
          <g id="Group_9913" data-name="Group 9913">
            <g id="Group_9912" data-name="Group 9912">
              <g id="Group_9911" data-name="Group 9911">
                <g id="Group_9910" data-name="Group 9910">
                  <path id="Path_13313" data-name="Path 13313" d="M438.489,1262.594l-1.191-1.228-1.192,1.188v-7.925h2.383Z" fill-rule="evenodd" fill="url(#linear-gradient-6)"/>
                </g>
              </g>
            </g>
          </g>
        </g>
      </g>
    </g>
  </g>
</svg>
