<svg xmlns="http://www.w3.org/2000/svg" width="19.094" height="21.045" viewBox="0 0 19.094 21.045"><path d="M509.914,553.218a5.5,5.5,0,0,0-5.5,5.5v2.5a5.36,5.36,0,0,0-2.36.325,2.936,2.936,0,0,0-1.31,1.311,7.385,7.385,0,0,0-.33,3.162v3.4a7.389,7.389,0,0,0,.33,3.162,2.936,2.936,0,0,0,1.31,1.311,7.439,7.439,0,0,0,3.16.327h9.4a7.438,7.438,0,0,0,3.16-.327,2.936,2.936,0,0,0,1.31-1.311,7.389,7.389,0,0,0,.33-3.162v-3.4a7.385,7.385,0,0,0-.33-3.162,2.936,2.936,0,0,0-1.31-1.311,5.359,5.359,0,0,0-2.36-.325v-2.5a5.5,5.5,0,0,0-5.5-5.5Zm3.5,8v-2.5a3.5,3.5,0,1,0-7,0v2.5Zm-2.5,7.232a2,2,0,0,0,.732-2.732h0a2,2,0,0,0-2.732-.732h0a2,2,0,0,0-.732,2.732h0a1.992,1.992,0,0,0,.732.732v1.768a1,1,0,0,0,2,0Z" transform="translate(-500.367 -553.218)" fill="#fff" fill-rule="evenodd"/></svg>