<svg xmlns="http://www.w3.org/2000/svg" xmlns:xlink="http://www.w3.org/1999/xlink" width="98.14" height="164.374" viewBox="0 0 98.14 164.374"><defs><clipPath id="a"><rect width="27.513" height="64.007" fill="none"/></clipPath><clipPath id="b"><rect width="22.602" height="25.762" fill="none"/></clipPath></defs><g transform="translate(-228.994 -729.552)"><g transform="translate(228.994 729.552)"><path d="M291.84,733.47c0-3.416-3.471-5.254-7.9-2.775-5.337,2.989-7.9,16.864-15.37,18.145s-27.111,2.562-35.222,10.033c-7.553,6.957-2.989,17.078-2.989,17.078s-3.6-10.269,4.91-16.864c6.194-4.8,17.077-2.562,17.077-2.562s-27.208,14.349-8.987,34.423c6.229,6.862,34.706,8.908,39.634,4.211,13.662-13.021-.587-28.879,8.952-37.247,12.168-10.673,3.949-25.509-.107-24.442" transform="translate(-228.994 -729.552)" fill="#0a3a36"/></g><g transform="translate(293.008 843.411)"><path d="M406.935,1020.485l-3.594-8.424a10.34,10.34,0,0,0-8.271-6.207l-5.331-4.78-8.09,6.054,11.95,7.746c.026.017.054.031.08.047l10.114,9.068Z" transform="translate(-381.648 -1001.074)" fill="#f99"/></g><g transform="translate(292.791 843.251)"><path d="M403.5,1023.943l-10.218-9.154c-.018-.01-.036-.02-.053-.032l-12.1-7.842,8.313-6.221,5.378,4.821a10.492,10.492,0,0,1,8.332,6.277l3.624,8.5ZM381.565,1006.9l11.8,7.649c.013.009.027.016.04.023l.038.022,10.039,9,3.007-3.353-3.563-8.352a10.241,10.241,0,0,0-8.172-6.132l-.039,0-5.285-4.738Z" transform="translate(-381.132 -1000.693)"/></g><g transform="translate(306.781 847.603)"><path d="M418.478,1025.86s7.9,11.568,9.862,7.845c3.339-6.322-4-11.443-5.277-14.314s-2.957-10.571-8.57-7.685c0,0,11.523,6.939,3.985,14.153" transform="translate(-414.493 -1011.07)" fill="#0a3a36"/></g><g transform="translate(258.657 751.933)"><path d="M299.732,810.818l23.223-27.892,4.706,19.569-18.45,13.535Z" transform="translate(-299.732 -782.926)" fill="#fff"/></g><g transform="translate(258.522 751.743)"><path d="M309.031,815.87l-.049-.027-9.573-5.264,23.4-28.108,4.761,19.8-.047.034Zm-9.351-5.341,9.337,5.134L327.375,802.2l-4.652-19.342Z" transform="translate(-299.409 -782.472)"/></g><g transform="translate(240.663 794.308)"><path d="M294,883.978H267.623a10.782,10.782,0,0,0-6.859,19.1l53.127,43.8,4.954-14.367-31.954-24.523h12.881Z" transform="translate(-256.82 -883.978)" fill="#0a7968"/></g><g transform="translate(240.523 794.185)"><path d="M313.757,946.917,260.492,903a10.906,10.906,0,0,1,6.938-19.32H293.9l.023.095,5.809,24.164H287.063L318.8,932.3l-.029.084ZM267.43,883.93a10.658,10.658,0,0,0-6.78,18.882L313.639,946.5l4.867-14.114-32.173-24.691h13.088l-5.713-23.764Z" transform="translate(-256.488 -883.683)" fill="#03003e"/></g><g transform="translate(277.36 748.958)"><path d="M348.853,778.806c1.238-1.734,18.578-4.459,20.808-1.982,3.692,4.1-1.486,17.092,1.734,30.716H348.853v-3.963s-3.964-1.734-4.459-7.432,2.062-13.985,4.459-17.34" transform="translate(-344.332 -775.83)" fill="#fff"/></g><g transform="translate(277.273 748.87)"><path d="M371.385,807.505h-22.74v-4c-.475-.235-4-2.153-4.458-7.479-.486-5.59,2.006-13.942,4.475-17.4h0c.854-1.2,8.441-2.645,13.823-2.948,2.717-.153,6.158-.111,7.121.959,1.84,2.045,1.508,6.252,1.088,11.578-.431,5.464-.968,12.263.666,19.176Zm-22.565-.175h22.343c-1.609-6.9-1.075-13.675-.645-19.123.417-5.284.746-9.458-1.043-11.447-.715-.794-3.194-1.114-6.98-.9-5.779.326-12.944,1.83-13.69,2.875-2.451,3.431-4.926,11.728-4.443,17.281.486,5.581,4.367,7.341,4.407,7.359l.052.023Z" transform="translate(-344.126 -775.62)"/></g><g transform="translate(300.083 749.952)"><path d="M401.126,778.2,421.8,791.152l-4.328,11.819-17.835-9.165s-3.324-6.463,1.486-15.606" transform="translate(-398.521 -778.2)" fill="#fff"/></g><g transform="translate(300.009 749.828)"><path d="M417.421,802.922l-.088-.045-17.86-9.178-.013-.025c-.034-.065-3.29-6.608,1.487-15.687l.044-.083,20.817,13.039ZM399.6,793.57l17.721,9.106,4.269-11.66-20.536-12.863C396.536,786.823,399.39,793.125,399.6,793.57Z" transform="translate(-398.345 -777.904)"/></g><g transform="translate(283.568 757.476)"><path d="M362.533,796.26c.521.354.375,1.3-.27,1.745l-2.755,1.909a.235.235,0,0,1-.329-.322l2.046-2.915a1,1,0,0,1,1.309-.417" transform="translate(-359.137 -796.143)" fill="#ff6aa9"/></g><g transform="translate(283.444 757.35)"><path d="M359.205,799.905a.363.363,0,0,1-.258-.11.341.341,0,0,1-.044-.447l2.046-2.915a1.107,1.107,0,0,1,1.48-.449.886.886,0,0,1,.37.759,1.491,1.491,0,0,1-.64,1.191l-2.755,1.908A.348.348,0,0,1,359.205,799.905Zm2.761-3.812a1.052,1.052,0,0,0-.814.482l-2.046,2.915a.1.1,0,0,0,.016.13.109.109,0,0,0,.141.018l2.755-1.909a1.238,1.238,0,0,0,.533-.986.647.647,0,0,0-.262-.555h0A.571.571,0,0,0,361.966,796.093Z" transform="translate(-358.84 -795.844)"/></g><g transform="translate(281.757 756.961)"><path d="M358.051,795.017c.537.33.434,1.279-.19,1.756l-2.664,2.033a.235.235,0,0,1-.344-.306l1.91-3.007a1,1,0,0,1,1.289-.477" transform="translate(-354.817 -794.917)" fill="#ff6aa9"/></g><g transform="translate(281.632 756.836)"><path d="M354.887,798.8a.365.365,0,0,1-.247-.1.341.341,0,0,1-.064-.445l1.91-3.007a1.108,1.108,0,0,1,1.458-.516h0a.887.887,0,0,1,.4.741,1.49,1.49,0,0,1-.585,1.218L355.1,798.73A.35.35,0,0,1,354.887,798.8Zm2.629-3.936a1.038,1.038,0,0,0-.821.52l-1.91,3.006a.1.1,0,0,0,.022.13.109.109,0,0,0,.142.011l2.664-2.033a1.237,1.237,0,0,0,.488-1.009.647.647,0,0,0-.287-.543h0A.567.567,0,0,0,357.516,794.866Z" transform="translate(-354.521 -794.617)"/></g><g transform="translate(289.999 755.203)"><path d="M400.77,810.456,375.3,794.023a1.79,1.79,0,0,1,1.386-3.245l29.482,7.037a6.972,6.972,0,1,1-5.4,12.64" transform="translate(-374.473 -790.723)" fill="#fff"/></g><g transform="translate(289.912 755.115)"><path d="M404.413,811.545a7,7,0,0,1-3.81-1.138l-25.469-16.433a1.877,1.877,0,0,1,1.454-3.4l29.481,7.037a7.087,7.087,0,0,1,5.25,8.411,6.973,6.973,0,0,1-4.214,4.989A7.1,7.1,0,0,1,404.413,811.545ZM400.7,810.26a6.884,6.884,0,0,0,10.449-4.279,6.912,6.912,0,0,0-5.119-8.2l-29.481-7.038a1.7,1.7,0,0,0-1.318,3.086Z" transform="translate(-374.267 -790.513)"/></g><g transform="translate(284.081 754.866)"><path d="M369.426,791.6c.543,1.651-.6,3.217-2.113,2.9l-6.459-1.372c-.487-.1-.69-1.1-.251-1.233L366.821,790a2.2,2.2,0,0,1,2.6,1.6" transform="translate(-360.361 -789.92)" fill="#f99"/></g><g transform="translate(283.957 754.744)"><path d="M367.535,794.493a2.046,2.046,0,0,1-.42-.045l-6.458-1.372a.913.913,0,0,1-.59-.877.539.539,0,0,1,.329-.6l6.218-1.894a2.336,2.336,0,0,1,2.758,1.685h0a2.512,2.512,0,0,1-.437,2.464A1.859,1.859,0,0,1,367.535,794.493Zm-.379-4.617a1.6,1.6,0,0,0-.47.07l-6.218,1.894c-.154.047-.156.278-.154.349.012.273.173.6.394.645l6.459,1.372a1.625,1.625,0,0,0,1.584-.514,2.266,2.266,0,0,0,.386-2.222h0A2.2,2.2,0,0,0,367.156,789.876Z" transform="translate(-360.066 -789.628)"/></g><g transform="translate(273.957 751.753)"><path d="M349.963,797.967H340.27L336.219,782.5h9.693Z" transform="translate(-336.219 -782.496)"/></g><g transform="translate(273.837 751.66)"><path d="M349.917,797.931h-9.885l-4.1-15.657h9.885Zm-9.742-.186h9.5l-4-15.286h-9.5Z" transform="translate(-335.932 -782.274)" fill="#fff"/></g><g transform="translate(272.839 751.753)"><path d="M347.3,797.967H337.6L333.551,782.5h9.693Z" transform="translate(-333.551 -782.496)"/></g><g transform="translate(272.719 751.66)"><path d="M347.25,797.931h-9.885l-4.1-15.657h9.885Zm-9.741-.186h9.5l-4-15.286h-9.5Z" transform="translate(-333.265 -782.274)" fill="#fff"/></g><g transform="translate(258.486 761.417)"><path d="M300.3,822.461l13.646-16.449c.906-1.092,2.976-.11,2.562,1.216L310.277,827.2c-.783,2.512-3.785,3.833-6.739,2.964-3.756-1.1-5.425-5.069-3.242-7.7" transform="translate(-299.324 -805.542)" fill="#fff"/></g><g transform="translate(258.4 761.33)"><path d="M305.232,830.392a6.513,6.513,0,0,1-1.838-.267,5.873,5.873,0,0,1-4.076-3.8,4.27,4.27,0,0,1,.791-4.039l.068.056-.068-.056,13.646-16.45a1.568,1.568,0,0,1,1.971-.276,1.331,1.331,0,0,1,.742,1.575l-6.227,19.97A5.066,5.066,0,0,1,305.232,830.392Zm-4.988-8a4.1,4.1,0,0,0-.759,3.876,5.7,5.7,0,0,0,3.958,3.685c2.891.851,5.866-.453,6.631-2.906l6.227-19.97a1.175,1.175,0,0,0-.658-1.368,1.4,1.4,0,0,0-1.753.234Z" transform="translate(-299.119 -805.335)"/></g><g transform="translate(281.881 859.439)"><path d="M365.021,1048.439v-7.16l-9.908-1.982,2.211,14.069c0,.031.013.06.018.091v13.584h4.707l3.873-8.3a10.341,10.341,0,0,0-.9-10.3" transform="translate(-355.113 -1039.297)" fill="#f99"/></g><g transform="translate(281.73 859.283)"><path d="M361.92,1066.948h-4.909l-.005-13.721c0-.019-.009-.039-.012-.059l-2.238-14.244,10.182,2.037v7.223a10.49,10.49,0,0,1,.889,10.394Zm-4.662-.248h4.5l3.839-8.228a10.241,10.241,0,0,0-.89-10.179l-.022-.032v-7.1l-9.635-1.927,2.184,13.893c0,.015.005.028.008.042l.01.047Z" transform="translate(-354.755 -1038.924)"/></g><g transform="translate(270.341 757.899)"><path d="M327.733,800.154l1.552,3.234a1.4,1.4,0,0,0,2.032.564c2.288-1.508,6.633-4.608,6.083-6.076s-5.938-.365-8.736.312a1.4,1.4,0,0,0-.93,1.966" transform="translate(-327.594 -797.153)" fill="#f99"/></g><g transform="translate(270.217 757.773)"><path d="M330.376,804.132a1.523,1.523,0,0,1-1.373-.866l-1.552-3.233a1.523,1.523,0,0,1,1.013-2.14c3.751-.908,8.337-1.686,8.881-.236s-3.034,4.183-6.13,6.223A1.527,1.527,0,0,1,330.376,804.132Zm-2.7-4.206,1.552,3.234a1.275,1.275,0,0,0,1.852.514c4.208-2.773,6.408-4.934,6.035-5.929-.364-.97-3.575-.824-8.591.39a1.275,1.275,0,0,0-.848,1.792Z" transform="translate(-327.299 -796.852)"/></g><g transform="translate(270.733 780.668)"><path d="M339.677,851.449,328.53,889.1h27.023a13.1,13.1,0,0,0,12.6-16.663l-5.937-20.989Z" transform="translate(-328.53 -851.449)" fill="#097867"/></g><g transform="translate(268.137 797.264)"><path d="M351.935,891.027H331.219a8.877,8.877,0,0,0-8.635,10.933l13.5,56.692h11.147V902.917" transform="translate(-322.338 -891.027)" fill="#0a7968"/></g><g transform="translate(268.014 797.14)"><path d="M347.182,958.6H335.813l-13.521-56.787a9,9,0,0,1,8.756-11.085h20.717v.248H331.048a8.752,8.752,0,0,0-8.515,10.78l13.475,56.6h10.925v-55.61h.247Z" transform="translate(-322.045 -890.732)" fill="#03003e"/></g><g transform="translate(282.822 868.876)"><path d="M358.646,1074.215s-3.342,13.6.743,12.581c6.936-1.734,5.848-10.619,7.135-13.484s5.9-9.259,0-11.512c0,0,2.526,13.212-7.878,12.415" transform="translate(-357.359 -1061.8)" fill="#0a3a36"/></g><g transform="translate(283.068 734.203)"><path d="M367.9,756.888a16.209,16.209,0,0,1-.991-5.7c.248-6.688-1.47-9.789-3.468-10.4-2.7-.83-5.945,1.982-5.45,7.431.538,5.92,4.707,4.459,4.707,4.459l.5,5.2s2.23,1.238,4.707-.991" transform="translate(-357.946 -740.643)" fill="#f99"/></g><g transform="translate(282.944 734.079)"><path d="M364.591,758.168a3.673,3.673,0,0,1-1.625-.352l-.057-.032-.487-5.117a3.54,3.54,0,0,1-2.76-.379c-1.11-.714-1.77-2.137-1.96-4.229-.27-2.967.536-5.448,2.212-6.806a3.652,3.652,0,0,1,3.4-.755c2.443.751,3.772,4.687,3.555,10.527a16.193,16.193,0,0,0,.983,5.648l.031.08-.064.057A4.759,4.759,0,0,1,364.591,758.168Zm-1.448-.54a4.011,4.011,0,0,0,4.444-.947,16.424,16.424,0,0,1-.969-5.666c.212-5.721-1.052-9.564-3.381-10.28a3.405,3.405,0,0,0-3.169.71c-1.61,1.306-2.383,3.708-2.121,6.591.183,2.011.8,3.371,1.846,4.042a3.384,3.384,0,0,0,2.7.311l.149-.052Z" transform="translate(-357.65 -740.349)"/></g><g transform="translate(280.966 732.969)"><path d="M353.971,744.652s5.782-1.862,7.184-3.963c.991-1.486.2,4.857,2.578,3.667s-.845-6.392-4.065-6.64-9.129,2.669-5.7,6.936" transform="translate(-352.933 -737.701)" fill="#0a3a36"/></g><g transform="translate(291.541 738.093)"><path d="M378.169,750.3s1.469-.9,1.469.088a2.166,2.166,0,0,1-1.486,2.229" transform="translate(-378.151 -749.92)" fill="#f99"/></g><g transform="translate(291.494 737.97)"><path d="M378.115,752.563l-.06-.24a2.062,2.062,0,0,0,1.393-2.109c0-.234-.093-.286-.124-.3-.242-.134-.838.125-1.157.321l-.13-.211c.1-.059.961-.575,1.407-.326a.545.545,0,0,1,.25.52A2.3,2.3,0,0,1,378.115,752.563Z" transform="translate(-378.038 -749.627)"/></g><g transform="translate(280.829 784.094)"><rect width="24.597" height="0.248" transform="translate(0)" fill="#03003e"/></g><g transform="translate(287.156 780.648)"><path d="M368.368,867.927a4.164,4.164,0,0,1-.568-.04.124.124,0,0,1-.105-.143l2.719-16.343.245.041-2.7,16.216a3.024,3.024,0,0,0,2.507-.808c2.626-2.483,2.077-9.71,2.071-9.782l.247-.02c.024.3.564,7.418-2.147,9.982A3.2,3.2,0,0,1,368.368,867.927Z" transform="translate(-367.693 -851.401)" fill="#03003e"/></g><g transform="translate(290.276 781.132)"><path d="M376.491,855.273a1.358,1.358,0,1,1,1.358-1.358A1.36,1.36,0,0,1,376.491,855.273Zm0-2.468a1.11,1.11,0,1,0,1.11,1.11A1.111,1.111,0,0,0,376.491,852.8Z" transform="translate(-375.133 -852.557)" fill="#03003e"/></g><g transform="translate(285.38 780.668)"><path d="M365.865,851.449l-.566,5.636h-1.84l.724-5.636Z" transform="translate(-363.458 -851.449)" fill="#0a7968"/></g><g transform="translate(285.239 780.544)"><path d="M365.215,857.038h-2.092l.756-5.884h1.928Zm-1.811-.248h1.587l.541-5.388H364.1Z" transform="translate(-363.123 -851.154)" fill="#03003e"/></g><g transform="translate(301.185 786.997)"><path d="M406.244,876.72h-4.981v-.247h4.115c-5.438-1.98-4.084-9.845-4.068-9.929l.244.044c-.015.085-1.462,8.5,4.718,9.888a.124.124,0,0,1-.027.245Z" transform="translate(-401.149 -866.544)" fill="#03003e"/></g><g transform="translate(281.793 776.617)"><path d="M368,841.964h-13a.088.088,0,1,1,0-.175h13a.088.088,0,1,1,0,.175Z" transform="translate(-354.904 -841.789)"/></g><g transform="translate(296.902 780.668)"><path d="M390.936,851.449l.566,5.636h1.84l-.724-5.636Z" transform="translate(-390.936 -851.449)" fill="#0a7968"/></g><g transform="translate(296.765 780.544)"><path d="M393.293,857.038H391.2l-.591-5.884h1.929Zm-1.869-.248h1.587l-.692-5.388h-1.437Z" transform="translate(-390.609 -851.154)" fill="#03003e"/></g><g transform="translate(270.841 797.388)" opacity="0.36"><g transform="translate(0)"><g clip-path="url(#a)"><g transform="translate(-0.001 -0.001)"><path d="M341.51,955.329a2.106,2.106,0,0,1-2.058-1.672l-10.278-48.842a10.214,10.214,0,0,1,9.55-12.983l15.4-.509a2.106,2.106,0,1,1,.139,4.209l-15.412.51a6,6,0,0,0-5.61,7.678l.039.155,10.293,48.915a2.108,2.108,0,0,1-2.063,2.539Z" transform="translate(-328.784 -891.321)" fill="#61d693"/></g></g></g></g><g transform="translate(243.169 795.159)" opacity="0.36"><g clip-path="url(#b)"><g transform="translate(0 0)"><path d="M278.488,911.768a2.1,2.1,0,0,1-1.261-.421l-10.949-8.207a9.586,9.586,0,0,1,6.1-16.963l10.88-.171h.034a2.106,2.106,0,0,1,.033,4.211l-10.929.172a5.374,5.374,0,0,0-3.469,9.48l10.823,8.109a2.106,2.106,0,0,1-1.264,3.791Z" transform="translate(-262.798 -886.006)" fill="#61d693"/></g></g></g></g></svg>